<?xml version="1.0" encoding="utf-8"?>
<!-- Generator: Adobe Illustrator 16.0.0, SVG Export Plug-In . SVG Version: 6.00 Build 0)  -->
<svg version="1.2" baseProfile="tiny" id="Layer_1" xmlns="http://www.w3.org/2000/svg" xmlns:xlink="http://www.w3.org/1999/xlink"
	 x="0px" y="0px" width="402.5px" height="143.5px" viewBox="0 0 402.5 143.5" xml:space="preserve">
<g>
	<path fill="none" stroke="#FFFFFF" stroke-width="2" d="M7.88,11.95c6.45,0,8.36,0,8.36,0v45.67h30.54v8.36H7.88V11.95z"/>
	<path fill="none" stroke="#FFFFFF" stroke-width="2" d="M81.06,13.45v8.36H46.78v11h12.5v8.36h-12.5v16.37h18.21
		c0,4.11,0,3.13,0,8.18v0.18H38.42V13.45H81.06z"/>
	<path fill="none" stroke="#FFFFFF" stroke-width="2" d="M81.01,53.84V21.81H69.13v-8.36h32.12v8.36H89.37v45.32c0,0-4.6,0-8.27,0
		L81.01,53.84z"/>
	<path fill="none" stroke="#FFFFFF" stroke-width="2" d="M118.96,12.95c5.56,0,3.15,0.09,8.18,0.09l0.18,45.58h42.54v8.36h-50.9
		V12.95z"/>
	<path fill="none" stroke="#FFFFFF" stroke-width="2" d="M160.23,65.31c-3.17-1.32-5.98-3.34-8.45-5.81
		c-2.46-2.46-4.31-5.37-5.63-8.54c-1.41-3.26-2.11-6.86-2.11-10.47s0.7-7.13,2.11-10.38c1.32-3.17,3.17-6.07,5.63-8.54
		c2.46-2.46,5.28-4.49,8.45-5.81c3.26-1.41,6.78-2.11,10.38-2.11s7.13,0.7,10.38,2.11c3.17,1.32,5.98,3.34,8.45,5.81
		c2.46,2.46,4.31,5.37,5.63,8.54c1.41,3.26,2.11,6.78,2.11,10.38s-0.7,7.22-2.11,10.47c-1.32,3.17-3.17,6.07-5.63,8.54
		c-2.46,2.46-5.28,4.49-8.45,5.81c-3.26,1.41-6.78,2.11-10.38,2.11S163.49,66.72,160.23,65.31z M152.4,40.5
		c0,10.03,8.18,18.48,18.22,18.48s18.22-8.45,18.22-18.48s-8.18-18.39-18.22-18.39S152.4,30.46,152.4,40.5z"/>
	<path fill="none" stroke="#FFFFFF" stroke-width="2" d="M217.52,65.31c-3.17-1.32-5.98-3.34-8.45-5.81
		c-2.46-2.46-4.31-5.37-5.63-8.54c-1.41-3.26-2.11-6.86-2.11-10.47s0.7-7.13,2.11-10.38c1.32-3.17,3.17-6.07,5.63-8.54
		c2.46-2.46,5.28-4.49,8.45-5.81c3.26-1.41,6.78-2.11,10.38-2.11s7.13,0.7,10.38,2.11c3.17,1.32,5.98,3.34,8.45,5.81
		c2.46,2.46,4.31,5.37,5.63,8.54c1.41,3.26,2.11,6.78,2.11,10.38s-0.7,7.22-2.11,10.47c-1.32,3.17-3.17,6.07-5.63,8.54
		c-2.46,2.46-5.28,4.49-8.45,5.81c-3.26,1.41-6.78,2.11-10.38,2.11S220.78,66.72,217.52,65.31z M209.69,40.5
		c0,10.03,8.18,18.48,18.22,18.48s18.22-8.45,18.22-18.48S237.94,22.1,227.9,22.1S209.69,30.46,209.69,40.5z"/>
	<path fill="none" stroke="#FFFFFF" stroke-width="2" d="M258.26,28.44c0-7.74,6.6-14.08,14.34-14.08h30.02v0.09
		c0,4.89-0.13,3.9-0.13,8.27h-29.89c-3.17,0-5.98,2.55-5.98,5.72c0,2.73,2.11,5.02,4.66,5.63c0,0,0.44,0.09,1.32,0.18
		c3.52,0.44,7.22,2.11,9.77,4.66c3.08,3.08,4.75,7.22,4.75,11.62s-1.67,8.54-4.75,11.62s-7.22,4.84-11.62,4.84
		c-0.09,0-0.18-0.09-0.26-0.09h-43.23c0-2.56,0-8.36,0-8.36h43.5c4.4,0,8.01-3.61,8.01-8.01c0-3.78-2.99-7.04-6.6-7.83
		c0,0-0.35-0.09-0.88-0.18c-0.53-0.09-0.79-0.09-1.06-0.18C263.54,41.2,258.26,35.39,258.26,28.44z"/>
	<path fill="none" stroke="#FFFFFF" stroke-width="2" d="M318.54,14.45v8.36h-16.28v11h12.5v8.36h-12.5v16.37h18.22
		c0,3.86,0,2.78,0,8.18v0.18H293.9V14.45H318.54z"/>
	<path fill="none" stroke="#FFFFFF" stroke-width="2" d="M349.29,14.04h0.18V67.9h-8.36V14.04
		C345.59,14.04,344.02,14.04,349.29,14.04z"/>
	<path fill="none" stroke="#FFFFFF" stroke-width="2" d="M387.48,13.86c5.14,0,2.77,0,8.27,0v55.7l-30.01-33.35V67.9h-8.36V14.3
		l30.01,33.35L387.48,13.86z"/>
	<path fill="none" stroke="#FFFFFF" stroke-width="2" d="M7.88,83.42c5.4,0,8.36-0.09,8.36-0.09V129h25.54v8.36H7.88V83.42z"/>
	<path fill="none" stroke="#FFFFFF" stroke-width="2" d="M44.53,137.36c-4.17,0-3.53,0-8.72,0l0,0l22.06-53.94l22,53.94h-9.15
		l-4.31-10.91H49.24L44.53,137.36z M63.15,118.09l-5.28-13.64l-5.37,13.64H63.15z"/>
	<path fill="none" stroke="#FFFFFF" stroke-width="2" d="M100.99,83.42c5.7,0,8.36-0.09,8.36-0.09V129h25.54v8.36h-33.9V83.42z"/>
	<path fill="none" stroke="#FFFFFF" stroke-width="2" d="M137.46,137.36c-4.5,0-3.35,0-8.54,0l0,0l22.06-53.94l22,53.94h-9.15
		l-4.31-10.91h-17.16L137.46,137.36z M156.26,118.09l-5.28-13.64l-5.37,13.64H156.26z M142.35,126.45l-4.89,10.91
		c-4.25,0-3.13,0-8.32,0 M137.46,137.36c-3.13,0-3.13,0-8.32,0"/>
</g>
<g>
	<path fill="none" stroke="#FFFFFF" stroke-width="2" d="M194.19,81.86c4.07,0,8.55,0.09,8.55,0.09v46.71h25.92v8.55h-34.47V81.86z"
		/>
	<path fill="none" stroke="#FFFFFF" stroke-width="2" d="M231.53,137.38c-3.67,0-3.67,0-8.98,0h-0.18l22.04-55.34l22.5,55.17h-9.36
		l-4.41-11.16h-17.55L231.53,137.38z M249.81,117.5l-5.4-13.95l-5.49,13.95H249.81z"/>
	<path fill="none" stroke="#FFFFFF" stroke-width="2" d="M301.29,81.86c5.17,0,3.18,0,8.46,0v56.97l-30.69-34.11v32.4h-8.55V82.31
		l30.69,34.11L301.29,81.86z"/>
	<path fill="none" stroke="#FFFFFF" stroke-width="2" d="M316.05,84.83l0.27-0.09c3.33-1.44,6.93-2.07,10.62-2.07
		c3.69,0,7.29,0.45,10.62,1.89c3.24,1.35,6.12,3.24,8.64,5.76c2.52,2.52,4.5,5.4,5.85,8.64c1.44,3.33,2.07,7.11,2.07,10.8
		c0,3.69-0.63,7.47-2.07,10.8c-1.35,3.24-3.33,6.12-5.85,8.64c-2.52,2.52-5.4,4.5-8.64,5.85c-3.06,1.35-6.66,1.98-9.99,2.07h-11.61
		L316.05,84.83z M326.94,128.57c10.26,0,18.63-8.55,18.63-18.81c0-10.26-8.37-18.9-18.63-18.9c-0.72,0-1.44,0.09-2.16,0.18v37.53
		h1.71H326.94z"/>
</g>
<g>
</g>
<g>
</g>
<g>
</g>
<g>
</g>
<g>
</g>
<g>
</g>
</svg>
