<?xml version="1.0" standalone="no"?>
<!DOCTYPE svg PUBLIC "-//W3C//DTD SVG 20010904//EN"
 "http://www.w3.org/TR/2001/REC-SVG-20010904/DTD/svg10.dtd">
<svg version="1.0" xmlns="http://www.w3.org/2000/svg"
 width="332.000000pt" height="455.000000pt" viewBox="0 0 332.000000 455.000000"
 preserveAspectRatio="xMidYMid meet">
<metadata>
Created by potrace 1.11, written by Peter Selinger 2001-2013
</metadata>
<g transform="translate(0.000000,455.000000) scale(0.100000,-0.100000)"
fill="#000000" stroke="none">
<path d="M20 4165 l0 -385 110 0 110 0 0 140 0 140 125 0 125 0 0 -140 0 -140
115 0 115 0 -2 383 -3 382 -110 0 -110 0 -3 -142 -3 -143 -124 0 -125 0 0 145
0 145 -110 0 -110 0 0 -385z m200 225 l0 -140 145 0 145 0 0 140 0 140 95 0
95 0 0 -370 0 -370 -95 0 -95 0 0 145 0 145 -145 0 -145 0 0 -145 0 -145 -95
0 -95 0 0 370 0 370 95 0 95 0 0 -140z"/>
<path d="M1310 4165 l0 -385 315 0 315 0 0 95 0 95 -205 0 -205 0 0 50 0 50
180 0 180 0 0 90 0 90 -177 2 -178 3 -3 48 -3 47 200 0 201 0 0 100 0 100
-310 0 -310 0 0 -385z m610 285 l0 -80 -200 0 -200 0 0 -65 0 -65 180 0 180 0
0 -75 0 -75 -180 0 -180 0 0 -65 0 -65 200 0 200 0 0 -85 0 -85 -295 0 -295 0
0 370 0 370 295 0 295 0 0 -80z"/>
<path d="M2767 4518 c-8 -18 -80 -189 -161 -379 -80 -191 -146 -352 -146 -358
0 -7 36 -11 113 -11 l114 0 27 70 28 71 141 -3 141 -3 27 -65 28 -65 115 -3
c93 -2 116 0 116 11 0 8 -71 182 -158 388 l-159 374 -106 3 -106 3 -14 -33z
m368 -345 c83 -196 151 -362 153 -370 3 -11 -16 -13 -99 -11 l-103 3 -25 63
-24 62 -155 -2 -154 -3 -25 -62 -25 -63 -99 0 c-54 0 -99 2 -99 5 0 6 298 713
306 726 3 5 49 9 102 9 l97 0 150 -357z"/>
<path d="M2836 4194 c-26 -64 -45 -118 -43 -121 3 -2 45 -2 94 -1 l90 3 -44
115 c-24 63 -46 116 -48 118 -1 2 -24 -50 -49 -114z"/>
<path d="M0 2905 l0 -385 174 0 c95 0 195 4 222 9 144 28 240 95 296 209 31
62 33 73 33 172 0 93 -3 112 -26 161 -35 74 -96 134 -173 170 -87 41 -145 49
-347 49 l-179 0 0 -385z m492 337 c66 -27 120 -67 160 -121 44 -61 61 -116 61
-211 1 -156 -62 -259 -201 -327 l-76 -38 -208 -3 -208 -4 0 367 0 366 208 -3
c187 -3 213 -6 264 -26z"/>
<path d="M210 2905 l0 -197 93 4 c81 3 99 7 134 30 53 35 77 87 77 163 0 76
-24 128 -77 163 -35 23 -53 27 -134 30 l-93 4 0 -197z m162 175 c79 -22 128
-89 128 -175 0 -119 -87 -191 -223 -183 l-52 3 -3 170 c-1 93 0 175 2 182 6
16 95 17 148 3z"/>
<path d="M1509 3276 c-113 -44 -190 -110 -236 -204 -26 -52 -28 -67 -28 -167
0 -102 2 -114 29 -167 40 -78 108 -145 186 -182 59 -28 74 -31 165 -31 93 0
105 2 166 32 80 39 150 111 187 191 24 50 27 69 27 157 0 88 -3 107 -27 157
-37 80 -107 152 -186 190 -56 28 -77 33 -156 35 -59 2 -103 -2 -127 -11z m241
-21 c62 -21 135 -77 173 -131 52 -74 70 -129 70 -221 1 -74 -2 -88 -36 -156
-58 -117 -148 -185 -275 -208 -232 -43 -453 165 -428 404 25 237 269 391 496
312z"/>
<path d="M1529 3082 c-43 -22 -59 -38 -81 -81 -47 -90 -30 -182 45 -248 86
-75 208 -66 285 21 67 77 67 185 -1 263 -66 75 -158 92 -248 45z m174 -8 c69
-35 107 -95 107 -169 0 -112 -87 -191 -201 -183 -68 5 -122 40 -151 99 -20 38
-23 113 -7 156 14 37 57 82 94 99 41 18 120 17 158 -2z"/>
<path d="M2530 2906 l0 -386 110 0 110 0 0 115 0 115 40 0 c40 0 40 0 116
-115 l77 -115 129 0 c101 0 128 3 122 13 -4 6 -45 67 -91 135 -47 67 -80 122
-75 122 6 0 32 20 60 45 75 67 101 171 71 279 -14 52 -79 119 -142 147 -49 22
-66 24 -289 27 l-238 4 0 -386z m498 349 c62 -19 115 -62 144 -119 30 -57 30
-165 0 -222 -19 -38 -83 -104 -100 -104 -4 0 -13 -4 -20 -9 -10 -6 8 -39 73
-135 l86 -126 -110 0 -111 0 -72 110 -73 110 -52 0 -53 0 0 -110 0 -110 -100
0 -100 0 0 365 0 365 218 0 c168 0 230 -4 270 -15z"/>
<path d="M2740 3010 l0 -100 74 0 c96 0 130 8 161 36 18 16 25 33 25 59 0 79
-43 105 -175 105 l-85 0 0 -100z m219 63 c11 -10 24 -32 27 -50 5 -27 1 -37
-24 -63 -29 -29 -33 -30 -121 -30 l-91 0 0 80 0 80 94 0 c75 0 98 -4 115 -17z"/>
<path d="M2771 2013 c-7 -15 -80 -187 -162 -382 -82 -195 -152 -358 -155 -362
-3 -5 49 -9 114 -9 l120 0 22 58 c13 31 28 63 33 70 7 9 45 12 145 10 l136 -3
26 -65 26 -65 122 -3 121 -3 -39 93 c-21 51 -95 226 -163 388 l-125 295 -104
3 -104 3 -13 -28z m366 -358 c84 -198 152 -364 153 -368 0 -4 -46 -6 -102 -5
l-103 3 -25 62 -25 63 -151 0 -152 0 -25 -62 -25 -63 -101 -3 c-56 -1 -101 -1
-101 2 0 2 63 152 139 333 76 180 146 345 155 366 l15 38 98 -3 97 -3 153
-360z"/>
<path d="M2837 1684 c-26 -65 -45 -119 -43 -121 2 -2 44 -2 93 -1 l90 3 -47
118 -46 118 -47 -117z"/>
<path d="M20 1645 l0 -385 110 0 110 0 0 145 0 145 125 0 124 0 3 -142 3 -143
110 0 110 0 3 383 2 382 -115 0 -115 0 0 -140 0 -140 -125 0 -125 0 0 140 0
140 -110 0 -110 0 0 -385z m200 235 l0 -140 145 0 145 0 0 140 0 140 95 0 95
0 0 -370 0 -370 -95 0 -94 0 -3 143 -3 142 -140 0 -140 0 -3 -142 -3 -143 -94
0 -95 0 0 370 0 370 95 0 95 0 0 -140z"/>
<path d="M1310 1645 l0 -385 313 2 312 3 0 95 0 95 -202 3 -203 2 0 50 0 50
180 0 180 0 0 90 0 90 -180 0 -180 0 0 50 0 50 200 0 200 0 0 95 0 95 -310 0
-310 0 0 -385z m610 295 l0 -80 -200 0 -200 0 0 -65 0 -65 180 0 180 0 0 -75
0 -75 -180 0 -180 0 0 -70 0 -70 200 0 200 0 0 -80 0 -80 -295 0 -295 0 0 370
0 370 295 0 295 0 0 -80z"/>
<path d="M10 396 l0 -386 110 0 110 0 0 116 0 115 42 -3 c42 -3 43 -4 117
-115 l74 -113 129 0 c100 0 128 3 122 13 -4 6 -44 66 -90 133 l-82 121 28 16
c43 26 98 92 109 134 14 49 14 127 0 177 -14 52 -79 119 -142 147 -49 22 -66
24 -289 27 l-238 4 0 -386z m514 343 c182 -68 209 -315 47 -426 -18 -12 -37
-23 -42 -25 -6 -2 25 -56 69 -121 45 -64 83 -121 87 -127 4 -6 -32 -10 -104
-10 l-111 0 -72 110 -73 110 -52 0 -53 0 0 -110 0 -110 -100 0 -100 0 0 365 0
365 225 0 c202 0 230 -2 279 -21z"/>
<path d="M220 500 l0 -100 78 0 c134 0 182 26 182 98 0 76 -45 102 -175 102
l-85 0 0 -100z m217 65 c44 -31 37 -111 -13 -134 -14 -6 -63 -11 -109 -11
l-85 0 0 80 0 80 93 0 c65 0 99 -4 114 -15z"/>
<path d="M1290 680 l0 -100 110 0 110 0 0 -285 0 -285 115 0 115 0 0 285 0
285 110 0 110 0 0 100 0 100 -335 0 -335 0 0 -100z m660 0 l0 -80 -115 0 -115
0 0 -285 0 -285 -95 0 -95 0 -2 283 -3 282 -112 3 -113 3 0 79 0 80 325 0 325
0 0 -80z"/>
<path d="M2775 766 c-63 -20 -117 -51 -152 -88 l-31 -33 58 -64 59 -64 33 28
c61 52 139 69 203 45 34 -13 50 -55 34 -92 -15 -37 -57 -58 -128 -65 -31 -3
-61 -10 -67 -14 -8 -6 -7 -33 2 -96 8 -49 14 -94 14 -100 0 -9 20 -13 65 -13
68 0 68 0 79 50 4 20 15 28 49 37 63 17 137 71 161 117 25 49 32 137 16 196
-17 64 -88 133 -159 154 -64 19 -180 20 -236 2z m254 -27 c92 -41 134 -106
134 -210 0 -113 -53 -178 -175 -215 -52 -16 -57 -21 -60 -48 -3 -30 -5 -31
-59 -34 l-56 -3 -7 63 c-4 35 -10 75 -13 89 -5 25 -2 26 49 33 67 9 133 38
147 64 29 54 4 113 -55 132 -57 19 -132 0 -206 -52 -15 -11 -25 -6 -68 37
l-50 49 23 24 c86 92 273 126 396 71z"/>
<path d="M2826 139 c-36 -28 -33 -83 6 -112 73 -54 153 56 82 112 -34 27 -54
26 -88 0z"/>
</g>
</svg>
