<?xml version="1.0" standalone="no"?>
<!DOCTYPE svg PUBLIC "-//W3C//DTD SVG 1.1//EN" "http://www.w3.org/Graphics/SVG/1.1/DTD/svg11.dtd" >
<svg xmlns="http://www.w3.org/2000/svg">
<metadata>Generated by IcoMoon</metadata>
<defs>
<font id="issue-icons" horiz-adv-x="1024">
<font-face units-per-em="1024" ascent="960" descent="-64" />
<missing-glyph horiz-adv-x="1024" />
<glyph unicode="&#x20;" d="" horiz-adv-x="512" />
<glyph unicode="&#xe601;" d="M402.381 220.467l-41.472-41.165c-35.942-35.584-94.362-35.635-130.253 0-17.254 17.152-26.726 39.834-26.726 64.051s9.523 46.95 26.726 64.102l152.576 151.398c31.59 31.386 91.085 77.517 134.451 34.509 19.917-19.763 52.070-19.61 71.782 0.256 19.763 19.866 19.661 52.019-0.256 71.782-73.677 73.114-182.63 59.597-277.504-34.509l-152.576-151.398c-36.557-36.352-56.73-84.685-56.73-136.141 0-51.405 20.173-99.738 56.781-136.090 37.683-37.427 87.142-56.064 136.602-56.064s99.021 18.637 136.704 56.064l41.472 41.216c19.917 19.763 20.019 51.917 0.256 71.731-19.763 19.866-51.917 19.968-71.834 0.256zM864.819 808.499c-79.155 78.541-189.798 82.79-263.117 10.086l-51.661-51.251c-19.917-19.763-20.070-51.866-0.307-71.782 19.814-19.917 51.917-20.019 71.782-0.256l51.661 51.251c37.939 37.683 87.654 22.067 120.115-10.086 17.254-17.101 26.726-39.885 26.726-64.051 0-24.218-9.523-46.95-26.726-64.051l-162.816-161.485c-74.394-73.83-109.363-39.219-124.262-24.422-19.917 19.763-52.019 19.61-71.731-0.256-19.763-19.917-19.661-52.070 0.256-71.782 34.15-33.894 73.216-50.688 114.074-50.688 50.074 0 102.963 25.19 153.242 75.11l162.765 161.485c36.608 36.301 56.781 84.634 56.781 136.038s-20.173 99.789-56.781 136.141z" />
<glyph unicode="&#xe602;" d="M691.148 922.88h-358.297c-51.892 0-94.31-42.419-94.31-94.31v-735.539c0-51.845 42.419-94.31 94.31-94.31h358.297c51.892 0 94.31 42.465 94.31 94.31v735.539c0 51.892-42.419 94.31-94.31 94.31zM512 36.425c-36.413 0-65.985 21.117-65.985 47.178s29.574 47.178 65.985 47.178c36.458 0 65.985-21.117 65.985-47.178s-29.527-47.178-65.985-47.178zM710.001 177.915h-396.048v622.375h396.048v-622.375z" />
<glyph unicode="&#xe603;" d="M734.723 255.267c-113.903 41.495-150.315 76.521-150.315 151.516 0 45.007 34.795 30.313 50.044 112.748 6.33 34.194 37.059 0.554 42.973 78.599 0 31.098-16.774 38.861-16.774 38.861s8.548 46.069 11.875 81.465c4.067 44.175-25.507 158.217-183.631 158.217-158.077 0-187.744-114.042-183.585-158.217 3.327-35.395 11.875-81.465 11.875-81.465s-16.82-7.717-16.82-38.861c5.868-78.045 36.596-44.406 42.928-78.599 15.295-82.435 50.090-67.741 50.090-112.748 0-74.996-36.413-110.021-150.315-151.516-114.319-41.587-188.528-84.052-188.528-113.024 0-28.926 0-97.268 0-97.268h868.71c0 0 0 68.342 0 97.268s-74.256 71.392-188.528 113.024z" />
<glyph unicode="&#xe604;" d="M843.208 220.767l-165.889 165.889c25.022 41.131 39.42 89.331 39.42 140.998 0 149.954-129.981 279.935-279.979 279.935-149.954 0-271.551-121.596-271.551-271.551 0-149.997 129.936-279.979 279.935-279.979 49.867 0 96.575 13.52 136.741 37.006l166.768-166.811c16.374-16.33 42.8-16.33 59.086 0l41.396 41.351c16.286 16.33 10.36 36.874-5.926 53.16zM248.79 536.041c0 103.818 84.151 188.014 187.969 188.014 103.862 0 196.398-92.537 196.398-196.398s-84.151-188.014-188.014-188.014-196.355 92.536-196.355 196.398z" />
<glyph unicode="&#xe605;" d="M747.52 665.549l-471.040 0.051 235.52-409.6z" />
<glyph unicode="&#xe606;" d="M172.094 629.136c80.725 69.312 144.539 124.16 317.541 26.339 83.129-46.993 150.176-64.646 205.996-64.646 97.73 0 161.034 54.387 215.792 101.38 19.546 16.774 22.088 46.578 5.637 66.493s-45.561 22.503-65.107 5.73c-80.725-69.358-144.492-124.16-317.588-26.339-228.637 129.152-335.747 37.152-421.787-36.781-19.5-16.774-22.041-46.531-5.637-66.448s45.607-22.55 65.153-5.73zM851.906 528.449c-80.725-69.312-144.492-124.16-317.588-26.339-228.591 129.152-335.701 37.152-421.74-36.736-19.546-16.774-22.087-46.579-5.637-66.493s45.561-22.503 65.107-5.73c80.725 69.358 144.539 124.16 317.541 26.384 83.129-46.994 150.176-64.691 205.995-64.691 97.73 0 161.034 54.387 215.792 101.427 19.546 16.774 22.087 46.531 5.637 66.448-16.404 19.961-45.561 22.503-65.107 5.73zM851.906 292.464c-80.725-69.312-144.492-124.16-317.588-26.339-228.591 129.152-335.747 37.197-421.74-36.736-19.546-16.774-22.087-46.578-5.637-66.493s45.561-22.503 65.107-5.73c80.772 69.358 144.539 124.115 317.588 26.384 83.129-46.993 150.176-64.691 205.995-64.691 97.73 0 161.034 54.387 215.792 101.427 19.546 16.727 22.088 46.531 5.637 66.448s-45.607 22.55-65.153 5.73z" />
<glyph unicode="&#xe607;" d="M716.749 696.32l0.051-471.040-409.6 235.52z" />
<glyph unicode="&#xe608;" d="M276.48 256h471.040l-235.571 409.6z" />
<glyph unicode="&#xe609;" d="M950.422 812.582l-213.897-348.454c-7.948-12.892-23.475-15.018-34.564-4.666l-103.414 96.852c-11.090 10.351-26.986 8.502-35.395-4.159l-145.232-219.026c-8.364-12.615-24.398-14.601-35.626-4.436l-67.603 61.734c-11.229 10.212-28.141 8.871-37.613-2.912l-212.973-265.604c-9.519-11.875-4.852-21.533 10.258-21.533h890.474v708.138c0.046 15.203-6.469 17.051-14.416 4.067z" />
<glyph unicode="&#xe60a;" d="M838.8 0.392l-326.8 326.8-326.8-326.8v929.085h653.6v-929.085zM512 391.762l281.2-281.2v773.315h-562.4v-773.315l281.2 281.2zM684.429 785.685l-237.12-238.822-89.68 89.71-33.835-33.835 106.4-106.4c4.742-4.773 11.218-8.573 16.933-8.573s11.978 3.8 16.72 8.39l254.022 255.33-33.44 34.2z" />
<glyph unicode="&#xe60b;" d="M185.2 929.781v-937.931l326.8 326.8 326.8-326.8v937.931h-653.6zM456.885 496.702c-4.59-4.378-10.731-8.026-16.264-8.026s-11.856 3.648-16.416 8.208l-103.451 101.962 32.893 32.406 87.187-85.971 230.523 228.882 32.467-32.771-246.939-244.69z" />
<glyph unicode="&#xe60c;" d="M307.251 696.32l-0.051-471.040 409.6 235.52z" />
<glyph unicode="&#xe60d;" d="M512.224 33.152c-2.016 0-4.064 0.768-5.6 2.304l-144.352 142.208c-1.536 1.504-2.4 3.552-2.4 5.696s0.864 4.224 2.4 5.728l22.464 22.048c3.136 3.072 8.096 3.072 11.232 0l92.416-90.848v449.984c0 4.416 3.584 8 8 8h31.776c4.416 0 8-3.584 8-8v-449.952l92.416 90.848c3.072 3.072 8.128 3.072 11.2 0l22.432-22.048c1.536-1.536 2.4-3.552 2.4-5.728 0-2.112-0.832-4.192-2.368-5.696l-144.352-142.208c-1.6-1.536-3.648-2.336-5.664-2.336zM787.072 300.288h-195.712c-4.416 0-8 3.584-8 8v31.040c0 4.416 3.584 8 8 8l194.304 0.192c66.848 0.352 121.056 54.368 121.056 120.448 0 66.72-52.384 119.744-119.232 120.64l-29.408 0.192c-2.144 0-4.192 0.896-5.696 2.464-1.504 1.536-2.304 3.616-2.24 5.792 0 0.064 0.416 13.568 0.416 38.72 0 99.84-84.096 181.088-187.456 181.088-71.232 0-137.152-41.28-167.968-105.12l-12.608-26.336c-0.928-1.952-2.592-3.392-4.608-4.096-2.048-0.704-4.224-0.576-6.176 0.416l-26.144 12.992c-10.976 5.472-22.752 8.256-35.008 8.256-37.376 0-70.56-29.44-77.184-68.48l-2.912-16.896c-0.512-2.912-2.56-5.312-5.344-6.24l-16.288-5.44c-55.744-18.976-91.776-67.488-91.776-123.584 0-74.304 60.896-134.752 135.776-134.752h175.744c4.416 0 8-3.584 8-8v-31.008c0-4.416-3.584-8-8-8h-177.28c-100.128 0-181.6 81.12-181.6 180.8 0 74.624 46.304 139.136 118.4 165.664 12.16 58.112 63.424 101.376 121.12 101.376 16.672 0 32.896-3.264 48.256-9.728 39.776 75.744 119.744 124.256 205.952 124.256 128.864 0 233.76-102.912 234.304-229.632 88.096-4.448 155.936-75.776 155.936-165.888 0.064-92.192-74.72-167.136-166.624-167.136z" />
<glyph unicode="&#xe60e;" d="M512 864c-0.2 0-0.2 0-0.4 0 0 0 0 0-0.2 0s-0.4 0-0.4 0c-229.4-0.6-415-186.6-415-416s185.6-415.4 415-416c0.2 0 0.4 0 0.4 0s0.2 0 0.2 0 0.2 0 0.4 0c229.8 0 416 186.2 416 416s-186.2 416-416 416zM512 65.2c-0.2 0-0.2 0-0.4 0 0 0 0 0-0.2 0s-0.4 0-0.4 0c-210.8 0.6-381.8 171.8-381.8 382.8s170.8 382.2 381.8 382.6c0.2 0 0.2 0 0.4 0 0 0 0.2 0 0.2 0 0.2 0 0.2 0 0.4 0 211.4 0 382.8-171.4 382.8-382.8 0-211.2-171.4-382.6-382.8-382.6zM644.6 616.4c-37.4-9-76-14.4-115.8-15.6v-136.2h135.2c-1.2 56.2-8.2 107.2-19.4 151.8zM528.6 795v-163.8c37 1.2 73 6 107.6 14.4-26.2 82.8-67 137.2-107.6 149.4zM386.8 645.8c35-8.4 71.2-13.4 108.4-14.6v164.2c-40.6-11.8-82-66.2-108.4-149.6zM761.2 693.2c-45.2 46-103 79.6-167.8 95 29.6-30.6 54.4-77.4 72.2-134.6 33.4 10.2 65.4 23.4 95.6 39.6zM694.6 464.6h166.6c-3.6 77.6-32.6 148.8-79 205.2-34.2-18.8-70.4-34.2-108.2-45.6 12.2-48 19.4-102.2 20.6-159.6zM359 464.6h136.4v136.2c-40.2 1.2-79.2 6.6-116.8 15.8-11.4-44.6-18.4-95.8-19.6-152zM664 431.4h-135.4v-136c39.8-1.2 78.6-6.4 116-15.6 11.2 44.4 18.2 95.6 19.4 151.6zM378.6 279.6c37.6 9.2 76.6 14.6 116.8 15.8v136h-136.4c1.2-56.2 8.2-107.4 19.6-151.8zM495.4 100.8v164.2c-37.2-1.2-73.6-6.2-108.6-14.6 26.4-83.4 67.8-138 108.6-149.6zM593.4 107.8c64.8 15.6 122.6 49 168 95.2-30.2 16.2-62.2 29.4-95.6 39.6-17.8-57.4-42.8-104-72.4-134.8zM429.4 787.8c-64.2-15.6-121.6-49-166.6-94.8 30-16 61.6-29.2 94.6-39.2 17.8 57 42.6 103.4 72 134zM674 271.8c38-11.4 74.2-26.8 108.4-45.6 46.4 56.4 75.4 127.6 79 205.2h-166.6c-1.4-57.4-8.6-111.4-20.8-159.6zM528.6 265v-164c40.6 12.2 81.4 66.6 107.6 149.6-34.6 8.4-70.6 13.2-107.6 14.4zM349.2 624.4c-37.6 11.4-73.6 26.6-107.4 45.4-46.4-56.4-75.4-127.6-79-205.2h165.8c1 57.6 8.4 111.8 20.6 159.8zM328.4 431.4h-165.8c3.6-77.6 32.6-148.8 79-205.2 33.8 18.6 69.8 34 107.4 45.4-12 48-19.4 102.2-20.6 159.8zM262.6 203c45-45.8 102.4-79.2 166.8-94.8-29.4 30.6-54.2 77.2-72 134.2-33-10.2-64.8-23.4-94.8-39.4z" />
<glyph unicode="&#xe60f;" d="M282.419 244.531c-115.814 124.57-113.766 319.744 6.502 440.883 49.254 49.562 110.797 79.155 174.797 88.883l-3.533 106.342c-89.805-10.906-176.742-50.995-245.606-120.32-161.229-162.406-163.123-424.448-6.298-590.438l-89.139-89.754 282.112-15.411-0.768 298.701-118.067-118.886zM622.694 856.832l0.768-298.701 118.118 118.938c115.814-124.57 113.818-319.744-6.502-440.883-49.254-49.613-110.797-79.155-174.848-88.883l3.533-106.291c89.856 10.906 176.794 50.995 245.658 120.371 161.178 162.355 163.174 424.448 6.246 590.387l89.139 89.754-282.112 15.309z" />
<glyph unicode="&#xe610;" d="M946.263 580.294l-344.019 92.139-60.209 224.663c-5.037 18.761-25.137 29.712-44.914 24.398l-419.338-112.332c-19.777-5.268-31.699-24.813-26.708-43.575l149.206-556.899c5.037-18.761 25.137-29.712 44.868-24.398l166.95 44.73-22.781-84.931c-5.037-18.806 6.886-38.307 26.662-43.62l374.747-100.41c19.777-5.268 39.878 5.637 44.914 24.398l137.284 512.262c5.037 18.761-6.886 38.307-26.662 43.575zM125.424 755.053l361.763 96.852 133.958-499.879-361.808-96.852-133.911 499.879zM774.416 69.649l-314.908 86.132 24.767 92.555 180.257 48.288c19.777 5.314 31.744 24.813 26.708 43.62l-69.683 260.012 274.752-75.365-121.897-455.241z" />
<glyph unicode="&#xe611;" d="M725.938 588.062h54.188v-88.688l151.875 156-151.875 152.625v-101.25h-54.188c-155.062 0-242.625-116.063-319.875-218.438-69.375-92.062-129.375-178.875-226.125-178.875h-87.938v-118.688h87.938c155.063 0 242.625 123.375 319.875 225.75 69.375 92.063 129.187 171.563 226.125 171.563zM319.25 520.187c6.563 8.625 13.313 17.438 20.062 26.438 16.5 21.75 33.75 44.813 52.5 67.688-55.5 52.313-122.438 90.938-211.875 90.938h-87.938v-118.688c0 0 24.938 1.125 87.938 0 60.938-1.312 99.188-26.437 139.313-66.375zM780.125 308.5h-54.188c-59.063 0-104.438 29.625-146.625 73.688-4.125-5.625-8.437-11.25-12.75-16.875-18.562-24.563-38.438-51-60.375-77.063 57-56.063 126-98.438 219.75-98.438h54.188v-101.813l151.875 152.625-151.875 156v-88.125z" />
<glyph unicode="&#xe612;" d="M833.978 691.84c0 46.208-45.977 46.208-45.977 46.208h-552c0 0-45.977 0-45.977-46.208v-46.208h643.955v46.208zM695.954 830.464h-367.955c0 0-45.977 0-45.977-46.208h459.955c0 46.208-46.023 46.208-46.023 46.208zM925.931 645.632c-27.217 27.355-27.217 27.355-27.217 27.355v-73.563h-773.476v73.563c0 0 0 0-27.217-27.355s-46.716-34.702-35.719-92.462c10.859-57.529 63.675-373.13 71.484-415.826 8.64-46.855 56.235-46.208 56.235-46.208h643.955c0 0 47.594-0.647 56.234 46.208 7.856 42.697 60.624 358.297 71.53 415.826 10.951 57.76-8.548 65.107-35.811 92.462zM695.954 396.109c0 0 0-46.208-46.023-46.208h-275.908c-45.977 0-45.977 46.208-45.977 46.208v92.416h64.414v-73.933h239.034v73.933h64.506v-92.416z" />
<glyph unicode="&#xe613;" d="M834.5-6.32l-322.5 322.5-322.5-322.5v916.83h645v-916.83zM512 379.84l277.5-277.5v763.17h-555v-763.17l277.5 277.5z" />
<glyph unicode="&#xe614;" d="M594.586 864.666l123.085-99.635-155.136-150.016 102.4-102.4 150.118 155.238 101.99-125.798v322.611h-322.458zM357.786 410.214l-150.067-155.136-100.864 124.467v-322.56h322.56l-124.467 100.813 155.187 150.067-102.349 102.349z" />
<glyph unicode="&#xe615;" d="M239.373 271.347l-143.245-134.003 92.416-92.416 134.003 143.245 92.416-97.037v272.627h-272.627l97.037-92.416zM927.872 784.256l-92.416 92.416-134.003-143.245-92.416 97.037v-272.627h272.627l-97.037 92.416 143.245 134.003z" />
<glyph unicode="&#xe616;" d="M704 204.2h-499.2v359.4h115c0 0 28.2 39.4 85.4 76.4h-238.8c-21.2 0-38.4-17-38.4-38.2v-435.8c0-21 17.2-38.2 38.4-38.2h576c21.2 0 38.4 17 38.4 38.2v218l-76.8-62.8v-117zM640 512v-127.8l256 191-256 192.8v-119.4c-309.6 0-320-328.6-320-328.6 87.6 143 152 192 320 192z" />
<glyph unicode="&#xe617;" d="M767.2 256l64.8 64.6-320 319.4-320-319.4 64.8-64.6 255.2 254.6z" />
<glyph unicode="&#xe618;" d="M775.386 581.825h-26.339c-9.701 0-17.559-7.901-17.559-17.559v-121.025c0-58.69-46.224-158.032-219.488-158.032s-219.488 99.341-219.488 158.032v121.025c0 9.658-7.946 17.559-17.559 17.559h-26.339c-9.658 0-17.559-7.901-17.559-17.559v-121.025c0-98.199 72.168-203.246 237.047-217.731v-115.89h-114.177c-9.613 0-17.516-7.901-17.516-17.559v-52.678c0-9.658 7.901-17.559 17.516-17.559h316.063c9.701 0 17.559 7.901 17.559 17.559v52.678c0 9.701-7.901 17.559-17.559 17.559h-114.090v115.89c164.923 14.486 237.047 119.577 237.047 217.731v121.025c0 9.658-7.901 17.559-17.559 17.559zM512 373.005c103.028 0 131.693 42.318 131.693 70.236v138.584h-263.386v-138.584c0-27.919 28.665-70.236 131.693-70.236zM643.693 829.54c0 27.962-28.665 70.236-131.693 70.236s-131.693-42.274-131.693-70.236v-186.258h263.386v186.258z" />
<glyph unicode="&#xe619;" d="M632.455 643.758l213.322 71.571 178.931-533.306-213.322-71.572zM126 110.5h225v618.75h-225v-618.75zM182.25 616.75h112.5v-56.25h-112.5v56.25zM407.25 110.5h225v618.75h-225v-618.75zM463.5 616.75h112.5v-56.25h-112.5v56.25z" horiz-adv-x="1120" />
<glyph unicode="&#xe61a;" d="M256.8 640l-64.8-64.6 320-319.4 320 319.4-64.8 64.6-255.2-254.6z" />
<glyph unicode="&#xe61b;" d="M584.818 593.635v86.699c0 39.139 8.647 58.937 69.405 58.937h76.231v145.635h-127.203c-155.875 0-207.303-71.453-207.303-194.105v-97.166h-102.4v-145.635h102.4v-436.907h188.871v436.907h128.341l17.294 145.635h-145.635z" />
<glyph unicode="&#xe61c;" d="M721.565 474.713h-677.197c-15.562 0-28.193-12.631-28.193-28.226s12.631-28.226 28.193-28.226h677.197c15.594 0 28.193 12.664 28.193 28.226s-12.599 28.226-28.193 28.226zM361.659 568.376c0.488-0.586 0.651-1.27 1.172-1.823 0.846-0.846 2.084-0.879 3.028-1.628 2.996-2.376 6.218-4.102 9.734-5.078 1.335-0.391 2.539-0.651 3.906-0.748 8.4-1.172 17.124 1.009 23.602 7.456 0.553 0.553 0.716 1.303 1.238 1.889l111.635 111.895c10.939 10.971 10.939 28.714 0 39.686s-28.682 10.971-39.653 0l-65.111-65.34v186.774c0 15.594-12.664 28.258-28.226 28.258s-28.226-12.664-28.226-28.258v-186.774l-65.111 65.34c-10.939 10.971-28.714 10.971-39.653 0s-10.939-28.714 0-39.686l111.667-111.96zM404.34 324.532c-0.521 0.586-0.683 1.335-1.238 1.889-6.446 6.446-15.204 8.66-23.602 7.456-1.368-0.13-2.572-0.391-3.906-0.748-3.483-1.009-6.74-2.702-9.734-5.078-0.912-0.716-2.149-0.748-3.028-1.628-0.553-0.553-0.683-1.238-1.172-1.823l-111.7-111.927c-10.939-10.971-10.939-28.714 0-39.686s28.714-10.971 39.653 0l65.111 65.34v-186.774c0-15.594 12.664-28.258 28.226-28.258s28.226 12.664 28.226 28.258v186.774l65.111-65.34c10.971-10.971 28.714-10.971 39.653 0s10.939 28.714 0 39.686l-111.602 111.863z" horiz-adv-x="780" />
<glyph unicode="&#xe61d;" d="M822.121 244.079l-216.887 217.714 217.383 214.904c8.926 8.927 8.926 23.473 0 32.4l-61.826 62.156c-4.298 4.298-10.084 6.613-16.201 6.613s-11.903-2.479-16.2-6.613l-216.391-214.242-216.721 214.077c-4.297 4.298-10.084 6.613-16.2 6.613s-11.903-2.479-16.201-6.613l-61.662-62.156c-8.926-8.926-8.926-23.473 0-32.4l217.383-214.904-216.721-217.548c-4.298-4.298-6.778-10.084-6.778-16.201s2.314-11.903 6.778-16.2l61.826-62.156c4.464-4.464 10.249-6.778 16.201-6.778 5.785 0 11.737 2.149 16.2 6.778l215.897 216.887 216.060-216.721c4.464-4.464 10.249-6.778 16.2-6.778 5.785 0 11.737 2.149 16.2 6.778l61.827 62.156c4.298 4.298 6.778 10.084 6.778 16.201-0.166 5.951-2.645 11.737-6.943 16.036z" />
<glyph unicode="&#xe61e;" d="M512 897.28l-212.557-337.318h425.068l-212.511 337.318zM512.046-26.88l212.511 337.318-425.114 0.046 212.602-337.364z" />
<glyph unicode="&#xe61f;" d="M619.008 801.28c0 59.098-47.91 107.008-107.008 107.008s-107.008-47.91-107.008-107.008 47.91-107.008 107.008-107.008c59.098 0 107.008 47.91 107.008 107.008zM619.008 460.8c0 59.098-47.91 107.008-107.008 107.008s-107.008-47.91-107.008-107.008 47.91-106.96 107.008-106.96c59.098 0 107.008 47.862 107.008 106.96zM619.008 120.32c0 59.098-47.91 107.008-107.008 107.008s-107.008-47.91-107.008-107.008 47.91-107.008 107.008-107.008c59.098 0 107.008 47.91 107.008 107.008z" />
<glyph unicode="&#xe621;" d="M983.040 752.998c-34.714-15.411-71.936-25.754-111.053-30.464 39.936 23.91 70.605 61.798 84.992 106.906-37.325-22.118-78.694-38.246-122.675-46.899-35.277 37.581-85.504 61.030-141.107 61.030-106.752 0-193.28-86.528-193.28-193.229 0-15.155 1.69-29.901 5.018-44.032-160.614 8.038-303.053 84.992-398.336 201.933-16.691-28.518-26.266-61.747-26.266-97.178 0-67.072 34.15-126.208 86.016-160.87-31.693 1.024-61.491 9.677-87.552 24.166 0-0.819 0-1.587 0-2.406 0-93.645 66.662-171.725 155.034-189.542-16.179-4.403-33.28-6.758-50.944-6.758-12.442 0-24.525 1.178-36.352 3.43 24.576-76.8 96-132.659 180.531-134.195-66.15-51.866-149.453-82.739-240.026-82.739-15.616 0-30.976 0.922-46.080 2.714 85.504-54.835 187.085-86.835 296.294-86.835 355.482 0 549.888 294.502 549.888 549.939 0 8.346-0.154 16.691-0.563 24.986 37.786 27.238 70.502 61.286 96.461 100.045z" />
<glyph unicode="&#xe622;" d="M328.901 130.912q37.446-15.767 68.98-15.767 64.545 0 106.426 20.201t60.11 55.676q18.723 34.49 18.723 89.181 0 56.169-20.201 88.688-28.578 46.314-69.472 62.081-39.417 15.767-121.7 15.767-36.461 0-49.764-4.927v-70.95l-0.492-85.239 1.478-133.033q0-7.39 5.912-21.679zM322.003 498.475q21.186-3.449 53.706-3.449 86.224 0 130.076 32.026t43.851 110.367q0 55.184-41.88 92.137-41.387 36.953-125.641 36.953-25.621 0-64.053-6.405 0-21.679 0.985-37.939 3.449-60.11 2.957-137.467l-0.492-48.286q0-21.186 0.492-37.939zM55.446 60.455l0.985 46.314q22.171 4.435 33.505 5.912 37.939 5.912 60.604 15.274 8.376 13.304 10.347 25.128 4.435 32.519 4.435 95.586l-0.985 244.877q-2.463 126.134-4.435 199.055-0.492 42.866-5.42 53.706-0.492 1.971-5.912 5.912-8.869 5.912-33.998 7.391-14.782 0.985-56.169 6.405l-1.971 40.895 128.105 2.957 187.231 6.405 22.171 0.492q2.464 0 6.898 0.247t6.898 0.247q0.492 0 10.593-0.247t19.955-0.247h36.461q43.359 0 94.108-13.304 21.186-6.405 47.3-19.216 28.085-14.288 50.257-37.447 21.679-23.158 32.026-51.242t10.347-60.11q0-34.49-15.767-63.067t-46.807-51.734q-12.811-9.855-73.907-37.939 87.21-20.201 131.553-71.936 45.329-52.228 45.329-116.279 0-37.447-14.288-79.327-10.347-30.548-34.982-57.648-32.519-35.475-68.98-53.213-35.967-17.738-100.020-29.563-40.402-7.39-97.557-5.42l-97.064 1.971q-41.387 0.985-146.829-5.42-16.259-1.478-134.018-5.42z" horiz-adv-x="805" />
<glyph unicode="&#xe623;" d="M20.893 32.408l9.020 45.102q2.123 0.53 40.857 10.613 40.327 10.082 61.551 20.694 15.387 19.633 21.756 53.592l14.327 73.755 29.714 142.204 6.367 33.959q4.245 23.347 9.020 44.837t8.49 35.551 6.633 24.673 4.776 16.184 1.857 6.102l15.387 83.306 8.49 33.429 11.673 71.633 4.245 26.53v20.163q-21.755 11.673-76.408 14.857-14.857 1.061-20.163 2.123l10.082 54.653 168.204-7.429q20.694-1.061 38.734-1.061 35.020 0 113.551 4.776 17.51 1.061 36.081 2.387t19.102 1.327q-1.061-10.082-3.184-20.163-3.714-15.387-6.898-27.061-29.184-10.082-57.837-16.449-33.959-8.49-53.592-16.449-6.367-16.449-12.734-46.694-4.776-23.347-6.898-43.51-23.347-105.592-35.020-162.367l-32.367-165.020-20.163-83.837-22.816-124.694-6.367-23.877q-1.061-3.714 0.53-14.327 33.959-7.959 63.143-11.143 19.102-2.653 35.020-5.306-0.53-15.387-3.714-30.776-3.714-16.449-4.776-21.755-9.551 0-12.204-0.53-12.734-1.061-22.286-1.061-4.776 0-14.857 1.592-10.082 2.123-76.939 9.020l-105.061 1.061q-21.756 0.53-92.327-5.837-39.266-3.714-52-4.776z" horiz-adv-x="585" />
<glyph unicode="&#xe624;" d="M892.655 248.53v-54.379q0-11.046-8.071-19.117t-19.117-8.072h-706.931q-11.046 0-19.116 8.072t-8.072 19.117v54.379q0 11.046 8.072 19.117t19.116 8.072h706.931q11.046 0 19.117-8.072t8.071-19.117zM729.517 411.668v-54.379q0-11.046-8.071-19.117t-19.116-8.071h-543.793q-11.046 0-19.117 8.071t-8.072 19.117v54.38q0 11.046 8.072 19.117t19.117 8.072h543.793q11.046 0 19.116-8.072t8.072-19.117zM838.275 574.805v-54.379q0-11.046-8.071-19.117t-19.116-8.072h-652.551q-11.046 0-19.117 8.072t-8.072 19.117v54.379q0 11.046 8.072 19.117t19.117 8.072h652.551q11.046 0 19.116-8.072t8.071-19.117zM675.138 737.943v-54.379q0-11.046-8.072-19.117t-19.117-8.071h-489.414q-11.046 0-19.117 8.071t-8.072 19.117v54.379q0 11.046 8.072 19.117t19.117 8.071h489.414q11.046 0 19.117-8.071t8.072-19.117z" />
<glyph unicode="&#xe625;" d="M892.655 248.53v-54.379q0-11.046-8.071-19.117t-19.117-8.072h-706.931q-11.046 0-19.116 8.072t-8.072 19.117v54.379q0 11.046 8.072 19.117t19.116 8.072h706.931q11.046 0 19.117-8.072t8.071-19.117zM729.517 411.668v-54.379q0-11.046-8.071-19.117t-19.116-8.071h-380.655q-11.046 0-19.116 8.071t-8.072 19.117v54.38q0 11.046 8.072 19.117t19.116 8.072h380.655q11.046 0 19.116-8.072t8.072-19.117zM838.275 574.805v-54.379q0-11.046-8.071-19.117t-19.116-8.072h-598.172q-11.046 0-19.116 8.072t-8.072 19.117v54.379q0 11.046 8.072 19.117t19.116 8.072h598.172q11.046 0 19.116-8.072t8.071-19.117zM675.138 737.943v-54.379q0-11.046-8.072-19.117t-19.117-8.071h-271.896q-11.046 0-19.116 8.071t-8.071 19.117v54.379q0 11.046 8.071 19.117t19.116 8.071h271.896q11.046 0 19.117-8.071t8.072-19.117z" />
<glyph unicode="&#xe626;" d="M892.655 248.53v-54.379q0-11.046-8.071-19.117t-19.117-8.072h-706.931q-11.046 0-19.116 8.072t-8.072 19.117v54.379q0 11.046 8.072 19.117t19.116 8.072h706.931q11.046 0 19.117-8.072t8.071-19.117zM892.655 411.668v-54.379q0-11.046-8.071-19.117t-19.117-8.071h-543.793q-11.046 0-19.117 8.071t-8.072 19.117v54.38q0 11.046 8.072 19.117t19.117 8.072h543.793q11.046 0 19.117-8.072t8.071-19.117zM892.655 574.805v-54.379q0-11.046-8.071-19.117t-19.117-8.072h-652.551q-11.046 0-19.117 8.072t-8.072 19.117v54.379q0 11.046 8.072 19.117t19.117 8.072h652.551q11.046 0 19.117-8.072t8.071-19.117zM892.655 737.943v-54.379q0-11.046-8.071-19.117t-19.117-8.071h-489.414q-11.046 0-19.117 8.071t-8.072 19.117v54.379q0 11.046 8.072 19.117t19.117 8.071h489.414q11.046 0 19.117-8.071t8.071-19.117z" />
<glyph unicode="&#xe627;" d="M277.751 204.608q0-36.601-25.621-62.222t-62.223-25.621-62.222 25.621-25.621 62.222 25.621 62.223 62.222 25.621 62.223-25.621 25.621-62.223zM277.751 438.857q0-36.601-25.621-62.223t-62.223-25.621-62.222 25.621-25.621 62.223 25.621 62.223 62.222 25.621 62.223-25.621 25.621-62.223zM921.936 248.53v-87.843q0-5.947-4.347-10.294t-10.294-4.347h-556.341q-5.947 0-10.294 4.347t-4.347 10.294v87.843q0 5.947 4.347 10.294t10.294 4.347h556.341q5.947 0 10.294-4.347t4.347-10.294zM277.751 673.106q0-36.601-25.621-62.223t-62.223-25.621-62.222 25.621-25.621 62.223 25.621 62.222 62.222 25.621 62.223-25.621 25.621-62.222zM921.936 482.778v-87.843q0-5.947-4.347-10.294t-10.294-4.347h-556.341q-5.947 0-10.294 4.347t-4.347 10.294v87.843q0 5.947 4.347 10.294t10.294 4.347h556.341q5.947 0 10.294-4.347t4.347-10.294zM921.936 717.028v-87.843q0-5.947-4.347-10.294t-10.294-4.347h-556.341q-5.947 0-10.294 4.347t-4.347 10.294v87.843q0 5.948 4.347 10.294t10.294 4.347h556.341q5.947 0 10.294-4.347t4.347-10.294z" />
<glyph unicode="&#xe628;" d="M258.253 82.134q0-39.417-26.852-62.082t-66.762-22.665q-52.227 0-84.747 32.519l28.085 43.359q24.143-22.171 52.227-22.171 14.288 0 24.882 7.144t10.593 20.94q0 31.533-51.734 27.592l-12.811 27.592q3.942 4.927 16.013 21.432t20.94 26.606 18.231 18.97v0.492q-7.884 0-23.896-0.492t-23.896-0.492v-26.114h-52.228v74.892h164.073v-43.359l-46.807-56.661q25.128-5.912 39.91-24.143t14.781-43.359zM259.239 391.063v-78.341h-178.361q-2.957 17.738-2.957 26.606 0 25.128 11.579 45.822t27.839 33.505 32.519 23.404 27.839 21.432 11.579 22.171q0 12.318-7.144 18.97t-19.462 6.651q-22.665 0-39.91-28.578l-41.88 29.070q11.824 25.128 35.229 39.171t51.981 14.043q35.967 0 60.604-20.447t24.635-55.43q0-24.635-16.752-45.083t-36.953-31.779-37.2-24.882-17.491-25.867h62.574v29.563h51.734zM953.47 233.89v-94.6q0-6.405-4.681-11.086t-11.086-4.681h-599.137q-6.405 0-11.086 4.681t-4.681 11.086v94.6q0 6.898 4.435 11.332t11.332 4.435h599.137q6.405 0 11.086-4.681t4.681-11.086zM259.732 676.837v-48.778h-165.058v48.778h52.721q0 20.201 0.247 60.11t0.247 59.618v5.912h-0.985q-3.942-8.376-24.635-26.606l-34.982 37.447 67.009 62.574h52.228v-199.055h53.213zM953.47 486.157v-94.6q0-6.405-4.681-11.086t-11.086-4.681h-599.137q-6.405 0-11.086 4.681t-4.681 11.086v94.6q0 6.898 4.435 11.332t11.332 4.435h599.137q6.405 0 11.086-4.681t4.681-11.086zM953.47 738.426v-94.6q0-6.405-4.681-11.086t-11.086-4.681h-599.137q-6.405 0-11.086 4.681t-4.681 11.086v94.6q0 6.405 4.681 11.086t11.086 4.681h599.137q6.405 0 11.086-4.681t4.681-11.086z" />
<glyph unicode="&#xe629;" d="M1019.875 777.718h-774.542c-17.799 0-32.248-14.448-32.248-32.248 0-17.837 14.448-32.285 32.248-32.285h774.542c17.837 0 32.284 14.448 32.284 32.285 0 17.799-14.411 32.248-32.284 32.248zM657.108 605.942c-0.596 0.708-0.78 1.527-1.452 2.197-7.336 7.372-17.389 9.905-26.96 8.527-1.6-0.186-2.979-0.484-4.506-0.858-3.983-1.154-7.707-3.089-11.133-5.846-1.042-0.821-2.458-0.821-3.463-1.824-0.634-0.633-0.78-1.452-1.34-2.087l-160.009-160.346c-12.513-12.513-12.513-32.881 0-45.392s32.806-12.513 45.317 0l106.759 107.021v-375.019c0-17.837 14.485-32.323 32.284-32.323 17.837 0 32.248 14.485 32.248 32.323v375.019l106.797-107.021c12.548-12.513 32.844-12.513 45.355 0s12.513 32.881 0 45.392l-159.9 160.233z" horiz-adv-x="1231" />
<glyph unicode="&#xe62a;" d="M109.473 746.767q-16.929 0.915-20.587 1.83l-1.372 40.262q5.947 0.457 18.3 0.457 27.451 0 51.242-1.83 60.392-3.203 75.948-3.203 39.347 0 76.863 1.372 53.073 1.83 66.798 2.287 25.621 0 39.346 0.915l-0.457-6.405 0.915-29.281v-4.118q-27.451-4.118-56.732-4.118-27.451 0-36.144-11.438-5.947-6.405-5.947-60.392 0-5.947 0.229-14.868t0.229-11.667l0.457-104.772 6.405-128.105q2.746-56.732 23.333-92.419 16.013-26.994 43.921-42.091 40.262-21.504 80.982-21.504 47.582 0 87.386 12.811 25.621 8.236 45.294 23.333 21.962 16.471 29.738 29.281 16.471 25.621 24.249 52.157 9.608 33.398 9.608 104.772 0 36.145-1.601 58.563t-5.033 56.046-6.176 72.975l-1.83 26.994q-2.287 30.654-10.979 40.262-15.555 16.012-35.229 15.555l-45.752-0.915-6.405 1.372 0.915 39.346h38.431l93.791-4.575q34.772-1.372 89.673 4.575l8.236-0.915q2.746-17.386 2.746-23.333 0-3.203-1.83-14.183-20.587-5.49-38.431-5.947-33.398-5.033-36.145-7.778-6.862-6.862-6.862-18.759 0-3.203 0.686-12.354t0.686-14.183q3.66-8.693 10.065-181.177 2.746-89.216-6.862-139.085-6.862-34.771-18.758-55.816-17.386-29.738-51.242-56.275-34.313-26.079-83.268-40.719-49.87-15.098-116.667-15.098-76.407 0-129.935 21.046-54.445 21.504-81.896 55.816-27.908 34.772-37.974 89.216-7.321 36.602-7.321 108.432v152.353q0 86.014-7.778 97.451-11.438 16.471-67.256 17.843zM790.259 102.124v29.281q0 6.405-4.118 10.523t-10.523 4.118h-673.466q-6.405 0-10.523-4.118t-4.118-10.523v-29.281q0-6.405 4.118-10.523t10.523-4.118h673.466q6.405 0 10.523 4.118t4.118 10.523z" horiz-adv-x="878" />
<glyph unicode="&#xe62b;" d="M512 869.875c-232.995 0-421.875-188.88-421.875-421.875s188.88-421.875 421.875-421.875 421.875 188.88 421.875 421.875-188.88 421.875-421.875 421.875zM512 105.227c-189.308 0-342.773 153.465-342.773 342.773s153.465 342.773 342.773 342.773 342.773-153.465 342.773-342.773-153.465-342.773-342.773-342.773zM406.531 632.57l316.406-184.57-316.406-184.57z" />
<glyph unicode="&#xe62c;" d="M758.253 201.837h-735.878c-16.235 0-29.447-13.212-29.447-29.481s13.212-29.447 29.447-29.447h735.878c16.269 0 29.447 13.212 29.447 29.447s-13.143 29.481-29.447 29.481zM353.293 299.588c0.543-0.61 0.713-1.392 1.292-1.97 6.725-6.725 15.861-9.036 24.624-7.778 1.46 0.136 2.683 0.408 4.11 0.781 3.634 1.053 7.031 2.819 10.121 5.298 0.951 0.781 2.276 0.781 3.16 1.698 0.577 0.577 0.713 1.292 1.257 1.902l145.946 146.218c11.412 11.446 11.412 29.991 0 41.437s-29.923 11.446-41.334 0l-97.411-97.614v342.059c0 16.269-13.178 29.481-29.414 29.481s-29.481-13.178-29.481-29.481v-342.059l-97.378 97.614c-11.446 11.446-29.957 11.446-41.369 0s-11.412-29.991 0-41.437l145.878-146.15z" horiz-adv-x="780" />
<glyph unicode="&#xe62d;" d="M102.502 829.491v-121.242c362.803 0 656.896-294.144 656.896-656.947h121.293c0 429.773-348.416 778.189-778.189 778.189zM102.502 586.957v-121.293c228.864 0 414.413-185.498 414.413-414.362h121.19c0 295.782-239.77 535.654-535.603 535.654zM218.726 283.75c-64.154 0-116.224-52.070-116.224-116.275s52.070-116.224 116.224-116.224c64.205 0 116.275 52.019 116.275 116.224s-52.070 116.275-116.275 116.275z" />
<glyph unicode="&#xe62e;" d="M410.342 355.862l-184.832 73.978v-62.566l184.832-73.978v62.566zM410.342 547.856l-184.832 73.933v-62.566l184.832-73.933v62.566zM907.587 868.724c-12.662 8.595-28.834 10.351-43.065 4.666l-352.521-141.027-352.521 141.027c-14.232 5.684-30.358 3.927-43.065-4.666-12.662-8.595-20.285-22.919-20.285-38.26v-591.462c0-18.899 11.506-35.857 29.019-42.928l368.878-147.543c0 0 7.578-2.449 8.964-2.726 3.004-0.554 6.007-0.878 9.011-0.878 2.957 0 6.007 0.323 8.964 0.924 1.386 0.277 8.964 2.772 8.964 2.772l368.832 147.495c17.605 7.023 29.111 23.982 29.111 42.881v591.462c0 15.341-7.625 29.665-20.285 38.26zM465.792 139.469l-295.731 118.292v517.9l295.731-118.339v-517.853zM853.939 257.716l-295.731-118.292v517.9l295.731 118.339v-517.946zM798.49 429.84l-184.878-73.978v-62.566l184.878 73.978v62.566zM798.49 621.789l-184.878-73.933v-62.566l184.878 73.933v62.566z" />
<glyph unicode="&#xe62f;" d="M512 864c-0.2 0-0.2 0-0.4 0 0 0 0 0-0.2 0s-0.4 0-0.4 0c-229.4-0.6-415-186.6-415-416s185.6-415.4 415-416c0.2 0 0.4 0 0.4 0s0.2 0 0.2 0 0.2 0 0.4 0c229.8 0 416 186.2 416 416s-186.2 416-416 416zM528.6 615c44.2 1.2 87 7 128.4 17 12.4-49 20.2-105.6 21.4-167.6h-149.8v150.6zM528.6 648.4v179.6c44.8-12.4 90.4-72.2 119.2-164-38.4-9.2-78.2-14.4-119.2-15.6zM495.4 828.4v-180.2c-41.4 1.2-81.6 6.6-120.2 16 29.2 92.4 75 152.6 120.2 164.2zM495.4 615v-150.4h-150.8c1.2 62 9 118.6 21.4 167.6 41.6-10 85-16 129.4-17.2zM311 464.6h-181.2c3.6 85.6 35.6 164 86.6 226 37-20.4 76.4-37.2 117.6-49.6-13.6-53-21.6-112.8-23-176.4zM311 431.4c1.2-63.4 9.2-123.4 22.8-176.4-41.2-12.6-80.4-29.2-117.6-49.6-51 62-82.8 140.4-86.6 226h181.4zM344.6 431.4h150.8v-150.2c-44.4-1.2-87.8-7.2-129.4-17.4-12.4 49-20.2 105.6-21.4 167.6zM495.4 247.8v-180.4c-45.2 11.8-91 71.8-120.2 164.2 38.6 9.6 78.8 15 120.2 16.2zM528.6 68v180c41-1.2 80.8-6.6 119.4-15.8-29-92-74.4-151.8-119.4-164.2zM528.6 281.2v150.2h149.8c-1.2-61.8-9-118.4-21.4-167.4-41.4 10-84.2 16-128.4 17.2zM711.8 431.4h182.4c-3.6-85.6-35.6-163.8-86.6-226-37.4 20.6-77 37.4-118.6 50 13.6 53 21.6 112.6 22.8 176zM711.8 464.6c-1.2 63.4-9.2 123.2-22.6 176.2 41.6 12.6 81.2 29.4 118.4 49.8 51-62 83-140.4 86.6-226.2h-182.4zM784.8 716.2c-33.2-17.6-68-32.2-104.6-43.2-19.4 62.6-46.8 113.6-79 147.2 70.8-17 134-53.8 183.6-104zM421.6 819.8c-32.2-33.4-59.4-84.4-78.6-146.6-36.2 11-70.8 25.4-103.6 43 49 50 111.8 86.6 182.2 103.6zM239.2 180c32.8 17.6 67.6 32 103.6 43 19.4-62.4 46.6-113.2 78.8-146.8-70.4 17-133.2 53.6-182.4 103.8zM601.2 75.8c32.4 33.6 59.6 84.6 79.2 147.4 36.6-11 71.4-25.6 104.6-43.2-49.6-50.4-113-87.2-183.8-104.2z" />
<glyph unicode="&#xe630;" d="M876.8 521.6h-304v304h-121.6v-304h-304v-121.6h304v-304h121.6v304h304z" />
<glyph unicode="&#xe631;" d="M165.44 518.56h693.12v-115.52h-693.12v115.52z" />
<glyph unicode="&#xe632;" d="M680.2 618.2l-249.6-251.4-94.4 94.4-35.6-35.6 112-112c5-5 11.801-9 17.801-9s12.6 4 17.6 8.8l267.4 268.8-35.201 36zM430.4 299.6c-6.808 0-14.784 3.912-21.336 10.465l-115.536 115.535 42.672 42.671 94.387-94.387 249.641 251.44 42.195-43.154-270.96-272.377c-3.193-3.065-11.636-10.193-21.063-10.193zM307.671 425.6l108.464-108.465c4.578-4.577 10.177-7.535 14.265-7.535 3.949 0 9.346 2.821 14.096 7.367l263.882 265.263-28.205 28.846-249.561-251.36-94.412 94.413-28.529-28.529zM512 876.8c-229.8 0-416-186.2-416-416s186.2-416 416-416 416 186.2 416 416-186.2 416-416 416zM512 79.4c-210.2 0-381.4 171-381.4 381.4 0 210.2 171 381.4 381.4 381.4 210.2 0 381.4-171 381.4-381.4 0-210.2-171.2-381.4-381.4-381.4zM512 39.8c-56.845 0-111.987 11.13-163.894 33.079-50.135 21.201-95.158 51.552-133.816 90.21-38.659 38.659-69.010 83.682-90.21 133.816-21.951 51.908-33.080 107.050-33.080 163.895s11.129 111.987 33.079 163.894c21.201 50.135 51.552 95.158 90.21 133.816s83.681 69.010 133.816 90.21c51.908 21.951 107.050 33.080 163.895 33.080s111.987-11.129 163.895-33.079c50.135-21.201 95.157-51.552 133.816-90.21s69.009-83.681 90.21-133.816c21.949-51.908 33.079-107.050 33.079-163.895s-11.13-111.987-33.079-163.895c-21.201-50.135-51.552-95.157-90.21-133.816s-83.682-69.009-133.816-90.21c-51.908-21.949-107.050-33.079-163.895-33.079zM512 871.8c-55.5 0-109.332-10.864-160-32.29-48.943-20.696-92.896-50.328-130.64-88.071-37.743-37.744-67.375-81.697-88.071-130.64-21.425-50.667-32.289-104.499-32.289-159.999s10.864-109.331 32.29-159.999c20.696-48.943 50.328-92.897 88.071-130.641s81.697-67.374 130.64-88.070c50.667-21.427 104.499-32.29 159.999-32.29s109.331 10.863 159.999 32.29c48.943 20.696 92.897 50.327 130.641 88.070s67.374 81.697 88.070 130.641c21.427 50.668 32.29 104.499 32.29 159.999s-10.863 109.332-32.29 160c-20.696 48.943-50.327 92.896-88.070 130.64s-81.697 67.375-130.641 88.071c-50.668 21.425-104.499 32.289-159.999 32.289zM512 74.4c-213.062 0-386.4 173.339-386.4 386.4s173.338 386.4 386.4 386.4 386.4-173.338 386.4-386.4-173.338-386.4-386.4-386.4zM512 837.2c-207.548 0-376.4-168.852-376.4-376.4s168.852-376.4 376.4-376.4 376.4 168.852 376.4 376.4-168.852 376.4-376.4 376.4z" />
<glyph unicode="&#xe633;" d="M188.544 562.458c-56.143 0-101.658-45.515-101.658-101.658s45.514-101.658 101.658-101.658 101.658 45.514 101.658 101.658c0 56.143-45.514 101.658-101.658 101.658zM512 562.458c-56.143 0-101.658-45.515-101.658-101.658s45.515-101.658 101.658-101.658 101.612 45.514 101.612 101.658c0 56.143-45.469 101.658-101.612 101.658zM835.456 562.458c-56.143 0-101.658-45.515-101.658-101.658s45.514-101.658 101.658-101.658 101.658 45.514 101.658 101.658c0 56.143-45.514 101.658-101.658 101.658z" />
<glyph unicode="&#xe634;" d="M759.675 818.789h-495.351c-67.713 0-123.113-55.402-123.113-123.113v-495.351c0-67.713 55.402-123.113 123.113-123.113h495.351c67.713 0 123.113 55.402 123.113 123.113v495.351c0 67.713-55.402 123.113-123.113 123.113zM378.603 494.348h266.794c5.061-14.526 7.822-30.119 7.822-46.348 0-77.87-63.35-141.218-141.218-141.218s-141.218 63.35-141.218 141.218c0 16.229 2.762 31.822 7.822 46.348zM790.092 494.312v-278.055c0-25.492-20.858-46.348-46.348-46.348h-463.486c-25.492 0-46.348 20.858-46.348 46.348v278.092h72.498c-3.362-14.919-5.148-30.428-5.148-46.348 0-116.203 94.538-210.742 210.742-210.742s210.742 94.537 210.742 210.742c0 15.921-1.785 31.429-5.148 46.348l72.498-0.036zM790.092 656.568c0-12.746-10.428-23.174-23.174-23.174h-46.348c-12.746 0-23.174 10.428-23.174 23.174v46.348c0 12.746 10.428 23.174 23.174 23.174h46.348c12.746 0 23.174-10.428 23.174-23.174v-46.348z" />
<glyph unicode="&#xe635;" d="M759.225 818.789h-494.404c-67.986 0-123.61-55.628-123.61-123.61v-494.355c0-68.030 55.625-123.612 123.61-123.612h494.404c67.981 0 123.563 55.583 123.563 123.612v494.357c-0.007 67.981-55.588 123.607-123.563 123.607zM671.118 221.553c-21.836-10.275-41.662-17.516-59.385-21.681-17.739-4.121-36.906-6.198-57.503-6.198-23.401 0-37.207 2.938-55.175 8.826-17.965 5.929-33.313 14.393-45.986 25.253-12.716 10.957-21.499 22.593-26.409 34.902-4.913 12.314-7.355 30.193-7.355 53.594v179.457h-69.519v72.468c20.092 6.518 43.405 15.884 57.707 28.062 14.368 12.218 25.868 26.838 34.533 43.947 8.694 17.065 14.665 38.835 17.925 65.226h72.781v-118.364h118.313v-91.341h-118.317v-131.215c0-29.693-0.383-46.802 2.763-55.219 3.123-8.372 10.955-17.063 19.483-22.087 11.339-6.79 24.265-10.182 38.835-10.182 25.915 0 51.692 8.419 77.308 25.257v-80.704z" />
<glyph unicode="&#xe636;" d="M295.139 826.038v-774.542c0-17.799 14.448-32.248 32.248-32.248 17.837 0 32.285 14.448 32.285 32.248v774.542c0 17.837-14.448 32.284-32.285 32.284-17.799 0-32.248-14.411-32.248-32.284zM466.915 463.271c-0.708-0.596-1.527-0.78-2.197-1.452-7.372-7.336-9.905-17.389-8.527-26.96 0.186-1.6 0.484-2.979 0.858-4.506 1.154-3.983 3.089-7.707 5.846-11.133 0.821-1.042 0.821-2.458 1.824-3.463 0.633-0.634 1.452-0.78 2.087-1.34l160.346-160.009c12.513-12.513 32.881-12.513 45.392 0s12.513 32.806 0 45.317l-107.021 106.759h375.019c17.837 0 32.323 14.485 32.323 32.284 0 17.837-14.485 32.248-32.323 32.248h-375.019l107.021 106.797c12.513 12.548 12.513 32.844 0 45.355s-32.881 12.513-45.392 0l-160.233-159.9z" horiz-adv-x="1268" />
<glyph unicode="&#xe637;" d="M613.988 81.787v729.289c0 16.759-13.603 30.362-30.397 30.362s-30.397-13.603-30.397-30.362v-729.289c0-16.794 13.638-30.362 30.397-30.362s30.397 13.568 30.397 30.362zM714.857 469.378c-0.631-0.525-1.368-0.701-1.963-1.262-0.911-0.911-0.947-2.244-1.753-3.261-2.559-3.226-4.418-6.696-5.469-10.483-0.421-1.438-0.701-2.734-0.806-4.207-1.262-9.046 1.087-18.441 8.029-25.418 0.596-0.596 1.403-0.771 2.034-1.333l120.502-120.222c11.815-11.78 30.923-11.78 42.739 0s11.815 30.888 0 42.703l-70.366 70.12h201.141c16.794 0 30.432 13.638 30.432 30.397s-13.638 30.397-30.432 30.397h-201.141l70.366 70.12c11.815 11.78 11.815 30.923 0 42.703s-30.923 11.78-42.739 0l-120.572-120.257zM452.255 423.414c0.631 0.561 1.438 0.736 2.034 1.333 6.942 6.942 9.326 16.373 8.029 25.418-0.14 1.473-0.421 2.77-0.806 4.207-1.087 3.751-2.91 7.258-5.469 10.483-0.771 0.982-0.806 2.314-1.753 3.261-0.596 0.596-1.333 0.736-1.963 1.262l-120.537 120.292c-11.815 11.78-30.923 11.78-42.739 0s-11.815-30.923 0-42.703l70.366-70.12h-201.141c-16.794 0-30.432-13.638-30.432-30.397s13.638-30.397 30.432-30.397h201.141l-70.366-70.12c-11.815-11.815-11.815-30.923 0-42.703s30.923-11.78 42.739 0l120.468 120.187z" horiz-adv-x="1109" />
<glyph unicode="&#xe638;" d="M936.29 51.676v774.542c0 17.799-14.448 32.248-32.248 32.248-17.837 0-32.285-14.448-32.285-32.248v-774.542c0-17.837 14.448-32.284 32.285-32.284 17.799 0 32.248 14.411 32.248 32.284zM764.514 414.443c0.708 0.596 1.527 0.78 2.197 1.452 7.372 7.336 9.905 17.389 8.527 26.96-0.186 1.6-0.484 2.979-0.858 4.506-1.154 3.983-3.089 7.707-5.846 11.133-0.821 1.042-0.821 2.458-1.824 3.463-0.633 0.634-1.452 0.78-2.087 1.34l-160.346 160.009c-12.513 12.513-32.881 12.513-45.392 0s-12.513-32.806 0-45.317l107.021-106.759h-375.019c-17.837 0-32.323-14.485-32.323-32.284 0-17.837 14.485-32.248 32.323-32.248h375.019l-107.021-106.797c-12.513-12.548-12.513-32.844 0-45.355s32.881-12.513 45.392 0l160.233 159.9z" horiz-adv-x="1195" />
<glyph unicode="&#xe639;" d="M851.721 711.94c-143.43 95.373-304.465 128.319-495.442 73.61-149.066-42.742-285.704-212.279-296.285-357.465-12.522-171.663 121.204-318.65 356.634-318.419 253.867 0.277 348.87 122.174 350.996 159.187 2.080 37.059-99.070 105.539-33.962 175.961 81.557 88.211 154.15 13.030 198.141 23.658 43.99 10.535 66.263 146.063-80.078 243.47zM557.192 281.374c-38.399 0-69.543 31.052-69.543 69.312 0 38.307 31.145 69.312 69.543 69.312s69.497-31.005 69.497-69.312c-0.046-38.26-31.098-69.312-69.497-69.312z" />
<glyph unicode="&#xe63a;" d="M248.614 153.517c0-48.463 39.332-87.795 87.795-87.795 48.507 0 87.795 39.332 87.795 87.795s-39.288 87.795-87.795 87.795c-48.463 0-87.795-39.332-87.795-87.795zM687.591 153.517c0-48.463 39.332-87.795 87.795-87.795 48.507 0 87.795 39.332 87.795 87.795s-39.288 87.795-87.795 87.795c-48.463 0-87.795-39.332-87.795-87.795zM404.319 361.064l485.902 138.804c9.263 2.678 16.857 12.731 16.857 22.388v241.437h-618.956v74.626c0 9.658-7.858 17.559-17.559 17.559h-136.083c-9.658 0-17.559-7.901-17.559-17.559v-70.236h85.294l86.391-397.58 8.341-41.396v-65.846c0-9.658 7.901-17.559 17.516-17.559h575.101c9.613 0 17.516 7.901 17.516 17.559v65.846h-493.761c-50.439 0-51.492 19.754-8.998 31.957z" />
<glyph unicode="&#xe63b;" d="M927.846 810.65c-15.155 13.107-97.587 75.52-112.998 88.781s-39.475 17.050-56.474 17.050h-492.749c-16.947 0-41.062-3.738-56.422-17.050-15.411-13.312-97.843-75.725-112.998-88.781s-27.802-32.819-23.757-60.979c4.045-28.16 99.174-664.218 99.174-664.218 5.325-16.026 23.552-29.133 40.55-29.133h599.706c16.998 0 35.226 13.158 40.55 29.133 0 0 95.078 636.058 99.174 664.218 3.994 28.16-8.602 47.872-23.757 60.979zM512 365.158c-166.298 0-201.882 235.366-209.254 283.853h94.054c14.182-70.758 46.387-191.693 115.2-191.693s101.069 120.934 115.251 191.693h94.003c-7.373-48.486-42.957-283.853-209.254-283.853zM151.706 742.4l112.947 117.76h494.694l112.947-117.76h-720.589z" />
<glyph unicode="&#xe63c;" d="M841.232 617.030l-94.541 260.428c-6.977 19.222-27.494 29.388-45.7 22.733l-628.29-229.331c-18.252-6.608-27.447-27.586-20.471-46.809l99.67-274.568v147.172c0 66.4 53.047 120.372 118.339 120.372h166.026l198.001 138.994 114.596-138.994h92.37zM938.87 533.671h-668.63c-19.408 0-35.21-16.589-35.21-37.059v-435.325c0-20.424 15.757-37.059 35.21-37.059h668.63c19.453 0 35.21 16.589 35.21 37.059v435.372c0 20.423-15.757 37.012-35.21 37.012zM887.856 116.875h-554.265v79.431l85.254 198.464 127.95-158.816 120.002 123.005 154.289 55.68 66.771-148.882v-148.882z" />
<glyph unicode="&#xe63d;" d="M768 948.547h-512c-56.32 0-102.4-46.080-102.4-102.4v-716.8c0-56.32 46.080-102.4 102.4-102.4h512c56.371 0 102.4 46.080 102.4 102.4v716.8c0 56.32-46.029 102.4-102.4 102.4zM655.155 461.073c-12.134-18.944-18.586-10.854-14.951 0 9.626 28.571 9.267 115.046-71.271 127.693v-266.906c0-49.766-28.672-80.998-89.6-100.557-59.187-18.944-125.44 0.768-140.954 43.315-15.462 42.496 19.354 94.208 77.773 115.507 32.614 11.827 65.691 11.725 91.187 1.843v376.525h61.594c0-64.666 173.107-162.253 86.221-297.421z" />
<glyph unicode="&#xe63e;" d="M827.789 693.096q13.796-13.796 23.651-37.447t9.855-43.359v-567.604q0-19.708-13.796-33.504t-33.505-13.796h-662.204q-19.708 0-33.504 13.796t-13.796 33.504v788.339q0 19.708 13.796 33.504t33.504 13.796h441.47q19.708 0 43.359-9.855t37.447-23.651zM609.025 813.318v-185.259h185.259q-4.927 14.288-10.839 20.201l-154.219 154.218q-5.912 5.912-20.201 10.839zM798.226 60.455v504.536h-204.968q-19.708 0-33.504 13.796t-13.796 33.505v204.968h-378.402v-756.804h630.671zM293.691 486.157q0 6.897 4.435 11.332t11.332 4.435h346.869q6.897 0 11.332-4.435t4.435-11.332v-31.534q0-6.897-4.435-11.332t-11.332-4.435h-346.869q-6.897 0-11.332 4.435t-4.435 11.332v31.534zM656.326 375.79q6.897 0 11.332-4.435t4.435-11.332v-31.532q0-6.897-4.435-11.332t-11.332-4.435h-346.869q-6.897 0-11.332 4.435t-4.435 11.332v31.532q0 6.897 4.435 11.332t11.332 4.435h346.869zM656.326 249.656q6.897 0 11.332-4.435t4.435-11.332v-31.532q0-6.897-4.435-11.332t-11.332-4.435h-346.869q-6.897 0-11.332 4.435t-4.435 11.332v31.532q0 6.897 4.435 11.332t11.332 4.435h346.869z" horiz-adv-x="987" />
<glyph unicode="&#xe63f;" d="M512 874.667c-235.733 0-426.667-190.933-426.667-426.667s190.933-426.667 426.667-426.667 426.667 190.933 426.667 426.667-190.933 426.667-426.667 426.667zM725.333 295.040l-60.373-60.373-152.96 152.96-152.96-152.96-60.373 60.373 152.96 152.96-152.96 152.96 60.373 60.373 152.96-152.96 152.96 152.96 60.373-60.373-152.96-152.96 152.96-152.96z" />
<glyph unicode="&#xe640;" d="M211.96 485.505h262.537v262.537h-262.537v-262.537zM549.505 748.040v-262.537h262.537v262.537h-262.537zM549.505 147.96h262.537v262.537h-262.537v-262.537zM211.96 147.96h262.537v262.537h-262.537v-262.537z" />
<glyph unicode="&#xe641;" d="M512 20.148c0 0-283.377 323.86-283.377 607.237s283.377 283.377 283.377 283.377 283.377 0 283.377-283.377-283.377-607.237-283.377-607.237zM710.607 665.034c-9.311 49.47-36.88 91.976-75.095 121.65-2.592 2.065-4.94 4.373-7.651 6.315-5.992 4.251-12.631 7.611-19.148 11.174-5.465 3.036-10.607 6.356-16.395 8.907-5.667 2.469-11.78 3.926-17.731 5.87-6.922 2.267-13.521 4.98-20.848 6.477-13.481 2.794-27.367 4.373-41.656 4.373 0 0-0.041 0-0.081 0-0.081 0-0.122 0-0.202 0-14.088 0-27.813-1.498-41.090-4.211-26.515-5.344-50.239-15.869-71.047-29.917-0.324-0.202-0.648-0.324-0.932-0.526-8.622-5.869-16.354-12.631-23.885-19.715-2.268-2.105-4.777-3.886-6.922-6.073-5.061-5.222-9.311-11.012-13.806-16.679-3.846-4.899-8.015-9.554-11.456-14.818-2.307-3.684-4.048-7.651-6.194-11.456-4.292-7.651-8.663-15.262-11.982-23.48-1.254-3.077-1.862-6.356-2.956-9.513-3.077-8.907-6.192-17.812-8.015-27.286-2.551-12.712-3.928-25.706-3.928-38.741 0-202.412 202.412-485.79 202.412-485.79s202.412 283.377 202.412 485.79c0 12.59-1.294 25.221-3.805 37.648zM390.553 627.385c0 67.080 54.369 121.447 121.447 121.447s121.447-54.369 121.447-121.447-54.369-121.447-121.447-121.447-121.447 54.369-121.447 121.447z" />
<glyph unicode="&#xe646;" d="M320 703.2l64.6 64.8 319.4-320-319.4-320-64.6 64.8 254.6 255.2z" />
<glyph unicode="&#xe648;" d="M704 703.2l-64.6 64.8-319.4-320 319.4-320 64.6 64.8-254.6 255.2z" />
<glyph unicode="&#xe649;" d="M822.201 448c0 47.801 29.6 85.6 73.801 111.6-8 26.601-18.601 52.4-31.6 76.4-49.801-13.001-90 6.4-124 40.4-33.799 33.799-44.201 74.199-31.2 124-24 13.001-49.6 23.6-76.4 31.6-26-44.4-72.8-73.801-120.8-73.801-47.801 0-94.8 29.401-120.8 73.801-26.8-8-52.4-18.601-76.4-31.6 13.001-49.801 2.601-90-31.2-124-33.799-33.799-74.201-53.401-123.801-40.4-13.2-24-23.801-49.6-31.801-76.4 44.4-26 74-63.801 74-111.6s-29.6-94.8-74-120.8c8-26.8 18.599-52.4 31.6-76.4 49.801 13.001 90 2.601 123.801-31.2 34-33.799 44.201-74.201 31.2-124 24.201-13.001 49.6-23.6 76.4-31.6 26 44.4 73.001 73.801 120.8 73.801s94.8-29.401 120.8-73.801c26.8 8 52.4 18.601 76.4 31.6-13.001 49.801-2.601 90 31.2 124 33.799 33.799 74.201 53.401 124 40.4 13.001 24.201 23.6 49.801 31.6 76.4-44.201 26-73.601 63.799-73.601 111.6zM512 251.399c-108.4 0-196.601 88-196.601 196.601s88 196.601 196.601 196.601c108.601 0 196.601-88 196.601-196.601s-88-196.601-196.601-196.601z" />
<glyph unicode="&#xe64c;" d="M148.289 482.098h727.42v-72.742h-727.42v72.742zM148.289 700.323h727.42v-72.742h-727.42v72.742zM148.289 263.872h727.42v-72.742h-727.42v72.742z" />
<glyph unicode="&#xe64e;" d="M512 908.8c-247.4 0-448-200.6-448-448s200.6-448 448-448 448 200.6 448 448-200.6 448-448 448zM768 428.8h-224v-224h-64v224h-224v64h224v224h64v-224h224v-64z" />
<glyph unicode="&#xe64f;" d="M512 865.12c-223.278 0-404.32-181.042-404.32-404.32s181.041-404.32 404.32-404.32 404.32 181.042 404.32 404.32-181.042 404.32-404.32 404.32zM743.040 431.92h-462.080v57.76h462.080v-57.76z" />
<glyph unicode="&#xe650;" d="M512 32c229.8 0 416 186.2 416 416s-186.2 416-416 416c-229.8 0-416-186.2-416-416s186.2-416 416-416z" />
<glyph unicode="&#xe651;" d="M530 768c130.6 0 237.4-2.2 336.2-6.6h2.8c46.2 0 84-44 84-98.2v-2.2l0.2-2.2c4.6-68 6.8-138.6 6.8-209.8v0 0c0.2-71.2-2.2-141.8-6.8-209.8l-0.2-2.2v-2.2c0-27.6-9.4-53.2-26.8-72.2-15.6-17.2-36-26.8-57.2-26.8h-3.2c-105.8-5-217.6-7.6-332.8-7.6-7 0-14.2 0-21.2 0v0c-7.2 0-14.4 0-21.6 0-115.6 0-227.4 2.6-332.4 7.4h-3.2c-21.2 0-41.4 9.6-57 26.8-17.2 19-26.8 44.6-26.8 72.2v2.2l-0.2 2.2c-4.8 68.2-7 138.8-6.6 209.4v0.4c-0.2 70.6 2 141 6.6 209.2l0.2 2.2v2.2c0 54.4 37.6 98.6 83.8 98.6h2.8c99 4.6 205.8 6.6 336.4 6.6h36.2zM530 832c-6 0-12 0-18 0s-12 0-18 0c-115.2 0-228.4-1.6-339.2-6.6-81.6 0-147.8-72.6-147.8-162.6-5-71.6-7.2-142.8-7-214.2-0.2-71.4 1.8-142.6 6.8-214 0-90 66.2-163.2 147.8-163.2 109.6-5.2 221.4-7.6 335.6-7.6 7.2 0 14.6 0 21.8 0s14.4 0 21.4 0c114.2 0 226 2.4 335.8 7.6 81.8 0 148 73.2 148 163.2 4.8 71.4 7 142.8 6.8 214.2 0.2 71.4-2 142.6-6.8 214.2 0 90-66.2 162.2-148 162.2-110.8 5.2-223.8 6.8-339.2 6.8v0zM414 252.4v392.8l290-196.4-290-196.4z" />
<glyph unicode="&#xe652;" d="M1017.2 662.4c0 90-66.2 162.4-148 162.4-110.8 5.2-223.8 7.2-339.2 7.2-6 0-12 0-18 0s-12 0-18 0c-115.2 0-228.4-2-339.2-7.2-81.6 0-147.8-72.8-147.8-162.8-5-71.2-7.2-142.4-7-213.6-0.2-71.2 2-142.4 6.8-213.8 0-90 66.2-163 147.8-163 116.4-5.4 235.8-7.8 357.2-7.6 121.6-0.4 240.6 2 357.2 7.6 81.8 0 148 73 148 163 4.8 71.4 7 142.6 6.8 214 0.4 71.2-1.8 142.4-6.6 213.8zM414 252.2v393l290-196.4-290-196.6z" />
<glyph unicode="&#xe653;" d="M688.583 680.334c-76.459 0-108.771-37.547-162.019-37.547-54.613 0-96.256 37.319-162.475 37.319-64.853 0-134.030-40.733-177.949-110.137-61.667-97.849-51.2-282.169 48.697-439.182 35.726-56.206 83.513-119.239 146.091-119.922 0.455 0 0.683 0 1.138 0 54.386 0 70.542 36.637 145.408 37.091 0.455 0 0.683 0 1.138 0 73.728 0 88.519-36.864 142.677-36.864 0.455 0 0.683 0 1.138 0 62.578 0.683 112.867 70.542 148.594 126.521 25.714 40.277 35.271 60.53 55.069 106.041-144.498 56.434-167.709 267.15-24.803 347.933-43.691 56.206-104.903 88.747-162.702 88.747v0zM671.744 884.907c-45.511-3.186-98.531-32.995-129.707-71.907-28.217-35.271-51.427-87.609-42.325-138.354 1.138 0 2.275 0 3.641 0 48.469 0 98.077 30.037 126.976 68.494 27.989 36.637 49.152 88.519 41.415 141.767v0z" />
<glyph unicode="&#xe654;" d="M273.067 421.547v-191.147c0-14.721 9.601-29.867 24.32-29.867h61.013v-110.933c0-28.374 22.828-51.2 51.2-51.2s51.2 22.828 51.2 51.2v110.933h104.533v-110.933c0-16.001 7.253-30.293 18.773-39.68 8.321-7.253 19.414-11.52 31.361-11.52 0.214 0 0.427 0 0.641 0s0.214 0 0.427 0c28.374 0 51.2 22.828 51.2 51.2v110.933h58.88c14.933 0 24.32 15.148 24.32 29.654v354.346h-477.867v-162.987zM836.267 618.667c-28.374 0-51.2-22.828-51.2-51.2v-204.8c0-28.374 22.828-51.2 51.2-51.2s51.2 22.828 51.2 51.2v204.8c0 28.374-22.828 51.2-51.2 51.2zM187.733 618.667c-28.374 0-51.2-22.828-51.2-51.2v-204.8c0-28.374 22.828-51.2 51.2-51.2s51.2 22.828 51.2 51.2v204.8c0 28.374-22.828 51.2-51.2 51.2zM629.76 804.052l39.468 46.721c0.853 1.068-0.427 3.413-2.774 5.334-2.348 1.707-5.12 2.133-5.761 0.853l-40.96-48.64c-29.013 11.52-64.427 18.773-107.947 18.773-43.734 0.212-79.36-6.827-108.373-18.134l-40.533 47.787c-0.853 1.068-3.413 0.853-5.761-0.853s-3.626-3.84-2.774-5.334l39.041-46.080c-102.827-44.588-118.187-154.027-120.32-186.027h477.013c-1.919 32.214-17.067 140.161-120.32 185.6zM407.040 697.812c-15.787 0-28.801 12.8-28.801 28.372s12.8 28.374 28.801 28.374c15.787 0 28.801-12.8 28.801-28.374s-12.8-28.372-28.801-28.372zM616.96 697.812c-15.787 0-28.801 12.8-28.801 28.372s12.8 28.374 28.801 28.374c15.787 0 28.801-12.8 28.801-28.374s-13.014-28.372-28.801-28.372z" />
<glyph unicode="&#xe655;" d="M682 704v58c0 38.2-29 70-69 70h-202.2c-39.8 0-68.8-31.8-68.8-70v-58h-182v-64h18.4c0 0 10.8-1.2 16.4-6.8s7.8-18 7.8-18l38-483.4c3-58.8 3-67.8 72-67.8h398.8c69 0 69 8.8 72 67.6l38 483.2c0 0 2.2 12.6 7.8 18.2s16.4 6.8 16.4 6.8h18.4v64h-182v0.2zM384 762c0 19.2 15.6 30 35.4 30h183.4c19.8 0 37.2-11 37.2-30v-58h-256v58zM367 192l-20.6 384h40.6l21-384h-41zM534.2 192h-44v384h44v-384zM657.4 192h-40.8l21 384h40.6l-20.8-384z" />
<glyph unicode="&#xe656;" d="M676.295 884.907h-328.59c-29.81 0-54.158-24.349-54.158-54.386v-765.269c0-29.81 24.349-54.158 54.158-54.158h328.363c29.81 0 54.158 24.349 54.158 54.158v765.269c0.227 30.037-24.121 54.386-53.931 54.386zM475.591 803.214c0 4.779 3.869 8.875 8.875 8.875h55.296c4.779 0 8.875-3.869 8.875-8.875v-0.683c0-4.779-3.869-8.875-8.875-8.875h-55.296c-4.779 0-8.875 3.869-8.875 8.875v0.683zM448.285 812.089c5.006 0 9.102-4.096 9.102-9.102s-4.096-9.102-9.102-9.102-9.102 4.096-9.102 9.102c0 5.006 4.096 9.102 9.102 9.102zM512 47.275c-20.253 0-36.637 16.384-36.637 36.637s16.384 36.637 36.637 36.637c20.253 0 36.637-16.384 36.637-36.637s-16.611-36.637-36.637-36.637zM694.045 156.729h-364.089v582.542h364.089v-582.542z" />
<glyph unicode="&#xe657;" d="M204.8 838.827v-781.653c0-10.453 8.32-18.773 18.773-18.773h576.853c10.453 0 18.773 8.32 18.773 18.773v781.653c0 10.453-8.32 18.773-18.773 18.773h-576.853c-10.453 0-18.773-8.32-18.773-18.773zM512 60.587c-16 0-29.013 12.8-29.013 28.8s13.013 29.013 29.013 29.013c15.787 0 28.8-13.013 28.8-29.013 0.213-16-12.8-28.8-28.8-28.8zM273.067 741.12c0 7.467 5.76 14.080 12.8 14.080h450.56c7.253 0 14.507-6.613 14.507-14.080v-587.093c0-7.467-7.253-13.44-14.507-13.44h-450.56c-7.253 0-12.8 5.973-12.8 13.44v587.093z" />
<glyph unicode="&#xe659;" d="M962 208v540h-900v-540h328.125v-30h-120v-30h481.875v30h-120v30h330zM92 718h840v-480h-840v480zM122 688h780v-420h-780v420z" />
<glyph unicode="&#xe65c;" d="M512 864c-229.8 0-416-186.2-416-416s186.2-416 416-416c229.8 0 416 186.2 416 416s-186.2 416-416 416zM512 66.6c-210.2 0-381.4 171-381.4 381.4 0 210.2 171 381.4 381.4 381.4 210.2 0 381.4-171 381.4-381.4 0-210.2-171.2-381.4-381.4-381.4z" />
<glyph unicode="&#xe65d;" d="M512 891.733c-245.12 0-443.733-198.613-443.733-443.733s198.613-443.733 443.733-443.733c245.12 0 443.733 198.613 443.733 443.733s-198.613 443.733-443.733 443.733zM512 41.173c-224.213 0-406.827 182.4-406.827 406.827 0 224.213 182.4 406.827 406.827 406.827 224.213 0 406.827-182.4 406.827-406.827 0-224.213-182.613-406.827-406.827-406.827zM512 789.333c-188.587 0-341.333-152.747-341.333-341.333s152.747-341.333 341.333-341.333c188.587 0 341.333 152.747 341.333 341.333s-152.747 341.333-341.333 341.333z" />
<glyph unicode="&#xf011;" d="M133.597 438.857q0 89.673 39.663 169t111.599 133.033q21.186 15.767 47.054 12.318t41.141-24.635q15.767-20.694 12.071-46.561t-24.39-41.634q-48.286-36.461-74.645-89.181t-26.359-112.339q0-51.242 19.955-97.804t53.952-80.558 80.559-53.952 97.804-19.955 97.804 19.955 80.558 53.952 53.952 80.558 19.955 97.804q0 59.618-26.359 112.339t-74.645 89.181q-20.694 15.767-24.39 41.634t12.071 46.561q15.274 21.186 41.387 24.635t46.807-12.318q71.936-53.706 111.599-133.033t39.663-169q0-76.863-30.055-146.829t-80.804-120.714-120.714-80.804-146.829-30.055-146.828 30.055-120.714 80.804-80.804 120.714-30.055 146.829zM448.932 501.924v315.335q0 25.621 18.723 44.344t44.344 18.723 44.345-18.723 18.723-44.344v-315.335q0-25.621-18.723-44.345t-44.345-18.723-44.344 18.723-18.723 44.344z" />
<glyph unicode="&#xf031;" d="M94.788 87.484l0.915 36.144q10.523 3.203 25.621 5.719t26.078 4.803 22.648 6.634 20.36 13.267 14.183 23.105l108.431 281.831 128.105 331.243h58.563q3.66-6.405 5.033-9.608l93.791-219.609q15.098-35.686 48.496-117.811t52.157-125.588q6.862-15.555 26.537-66.111t32.941-77.092q9.151-20.587 16.013-26.079 8.693-6.862 40.262-13.497t38.431-9.379q2.746-17.386 2.746-26.079 0-1.83-0.229-5.947t-0.229-5.947q-28.824 0-86.928 3.66t-87.386 3.66q-34.772 0-98.366-3.203t-81.438-3.66q0 19.673 1.83 35.686l59.935 12.811q0.457 0 5.719 1.144t7.091 1.601 6.634 2.058 6.862 2.974 5.033 3.66 4.118 5.033 1.144 6.405q0 7.321-14.183 44.151t-32.941 81.21-19.216 45.752l-205.884 0.915q-11.896-26.537-35.001-89.444t-23.105-74.346q0-10.065 6.405-17.157t19.901-11.209 22.189-6.176 26.079-3.889 18.758-1.83q0.457-8.693 0.457-26.537 0-4.118-0.915-12.354-26.537 0-79.837 4.575t-79.837 4.575q-3.66 0-12.124-1.83t-9.836-1.83q-36.602-6.405-86.014-6.405zM348.71 387.158q15.098 0 62.452-0.915t73.431-0.915q8.693 0 26.079 0.915-39.804 115.752-84.183 206.798z" horiz-adv-x="951" />
<glyph unicode="&#xf155;" d="M65.914 207.775l50.749 66.516q3.449 4.927 11.332 5.912 7.391 0.985 11.824-4.435l0.985-0.985q55.676-48.778 119.729-61.589 18.231-3.942 36.461-3.942 39.91 0 70.212 21.186t30.302 60.11q0 13.796-7.391 26.114t-16.506 20.694-28.824 18.477-32.519 15.767-39.417 16.013q-19.216 7.884-30.302 12.318t-30.302 13.057-30.794 15.274-27.839 17.491-26.359 20.94-21.433 24.143-17.492 28.578-10.347 32.766-4.188 38.431q0 67.994 48.286 119.236t125.641 66.023v88.688q0 6.405 4.681 11.086t11.086 4.681h66.516q6.898 0 11.332-4.435t4.435-11.332v-86.716q28.084-2.957 54.445-11.332t42.866-16.506 31.287-18.477 19.216-14.288 7.391-6.898q8.376-8.869 2.463-18.723l-39.91-71.936q-3.942-7.391-11.332-7.884-6.898-1.478-13.304 3.449-1.478 1.478-7.144 5.912t-19.216 13.057-28.824 15.767-36.706 12.811-42.127 5.666q-46.807 0-76.369-21.186t-29.563-54.691q0-12.811 4.188-23.651t14.535-20.447 19.462-16.259 27.592-15.274 29.809-13.304 34.49-13.55q26.114-9.855 39.91-15.52t37.446-17.245 37.2-20.94 30.548-24.635 26.114-31.287 15.52-37.693 6.405-46.314q0-75.385-49.025-129.829t-127.366-67.255v-86.224q0-6.898-4.435-11.332t-11.332-4.435h-66.516q-6.405 0-11.086 4.681t-4.681 11.086v86.224q-32.519 4.435-62.821 15.274t-50.010 21.926-36.461 23.651-22.911 18.477-8.623 8.869q-8.376 10.347-0.985 20.201z" horiz-adv-x="585" />
<glyph unicode="&#xf4ce;" d="M700.997 738.664c59.041-81.751 95.374-181.666 95.374-290.664s-36.333-208.916-95.374-290.664l-31.79 22.708c54.499 74.938 88.562 168.040 88.562 267.957s-34.062 193.020-88.562 267.957zM578.373 230.001l-31.79 22.708c40.874 54.499 65.854 122.624 65.854 195.29s-24.98 140.791-65.854 195.29l31.79 22.708c45.416-61.312 72.667-136.25 72.667-217.999s-27.25-156.686-72.667-217.999zM471.645 302.667l-29.522 22.708c27.25 34.062 40.874 77.208 40.874 122.624s-13.625 88.562-40.874 122.624l29.522 22.708c31.79-40.874 49.957-90.834 49.957-145.333s-18.167-104.457-49.957-145.333zM201.416 538.834l158.957 127.166v-435.998l-158.957 127.166h-131.708v181.666h131.708z" horiz-adv-x="816" />
<glyph unicode="&#xf4cf;" d="M311.661 538.444l158.957 127.166v-435.998l-158.957 127.166h-131.708v181.666h131.708z" horiz-adv-x="1040" />
</font>
</defs>
</svg>
