<?xml version="1.0" encoding="utf-8"?>
<!-- Generator: Adobe Illustrator 16.0.0, SVG Export Plug-In . SVG Version: 6.00 Build 0)  -->
<svg version="1.2" baseProfile="tiny" id="Layer_1" xmlns="http://www.w3.org/2000/svg" xmlns:xlink="http://www.w3.org/1999/xlink"
	 x="0px" y="0px" width="328.049px" height="44.512px" viewBox="0 0 328.049 44.512" xml:space="preserve">
<g>
	<path fill="none" stroke="#000000" stroke-miterlimit="10" d="M49.977,23.89c1.96,1.96,3.08,4.648,3.08,7.448
		s-1.12,5.432-3.08,7.392c-1.96,1.96-4.592,3.08-7.392,3.08c-0.224,0-0.448-0.056-0.672-0.056c-2.128-0.056-4.256-0.448-6.216-1.288
		c-2.016-0.84-3.808-2.072-5.376-3.64s-2.8-3.36-3.64-5.376c-0.896-2.072-1.344-4.312-1.344-6.608s0.448-4.48,1.344-6.552
		c0.84-2.016,2.072-3.808,3.64-5.376c1.568-1.568,3.36-2.8,5.376-3.64c2.072-0.896,4.48-1.344,6.776-1.344
		c1.736,0,3.584,0.28,5.208,0.784v5.712c-1.512-0.728-3.36-1.176-5.208-1.176c-6.384,0-11.816,5.208-11.816,11.592
		s5.152,11.592,11.536,11.592h0.168l0.112,0.056h0.168c2.856,0,5.096-2.296,5.096-5.152c0-2.464-1.736-4.536-4.088-5.04h-0.056
		v-0.056c-2.744-0.616-5.04-2.52-6.048-5.096v-0.112h5.992C46.113,21.034,48.241,22.154,49.977,23.89z"/>
	<path fill="none" stroke="#000000" stroke-miterlimit="10" d="M71.615,8.099v5.32h-10.36v7h7.952v5.32h-7.952v10.416h3.92
		c3.472,0,6.44,2.128,7.672,5.208v0.112H55.935V8.099H71.615z"/>
	<path fill="none" stroke="#000000" stroke-miterlimit="10" d="M81.264,33.802V13.418H55.935v-5.32h38.208v5.32h-7.56v28.84
		l-0.056-0.056c-3.08-1.232-5.208-4.256-5.208-7.84L81.264,33.802z"/>
	<path fill="none" stroke="#000000" stroke-miterlimit="10" d="M119.454,33.802V13.418h-7.56v-5.32h27.803v5.32h-14.922v28.84
		l-0.056-0.056c-3.08-1.232-5.208-4.256-5.208-7.84L119.454,33.802z"/>
	<path fill="none" stroke="#000000" stroke-miterlimit="10" d="M156.912,8.099v33.375h-5.32V25.682h-11.928v16.464h-0.056
		c-3.08-1.232-5.264-4.256-5.264-7.84c0-0.168,0.056-0.336,0.056-0.504h-0.056V8.042l5.376,0.056v12.264h11.872V8.099H156.912z"/>
	<path fill="none" stroke="#000000" stroke-miterlimit="10" d="M175.268,8.099v5.32h-10.36v7h7.952v5.32h-7.952v10.416h3.92
		c3.472,0,6.44,2.128,7.672,5.208v0.112h-16.912V8.099H175.268z"/>
	<path fill="none" stroke="#000000" stroke-miterlimit="10" d="M196.363,15.042c0-3.584,2.128-6.608,5.208-7.84l0.112-0.056V36.21
		h10.528v5.32h-15.848V15.042z"/>
	<path fill="none" stroke="#000000" stroke-miterlimit="10" d="M221.887,40.466c-2.016-0.84-3.808-2.128-5.376-3.696
		c-1.568-1.568-2.744-3.416-3.584-5.432c-0.896-2.072-1.344-4.368-1.344-6.664s0.448-4.536,1.344-6.608
		c0.84-2.016,2.016-3.864,3.584-5.432c1.568-1.568,3.36-2.856,5.376-3.696c2.072-0.896,4.312-1.344,6.608-1.344
		s4.536,0.448,6.608,1.344c2.016,0.84,3.808,2.128,5.376,3.696c1.568,1.568,2.744,3.416,3.584,5.432
		c0.896,2.072,1.344,4.312,1.344,6.608s-0.448,4.592-1.344,6.664c-0.84,2.016-2.016,3.864-3.584,5.432
		c-1.568,1.568-3.36,2.856-5.376,3.696c-2.072,0.896-4.312,1.344-6.608,1.344S223.959,41.362,221.887,40.466z M216.903,24.674
		c0,6.384,5.208,11.76,11.592,11.76s11.592-5.376,11.592-11.76s-5.208-11.704-11.592-11.704S216.903,18.291,216.903,24.674z"/>
	<path fill="none" stroke="#000000" stroke-miterlimit="10" d="M257.29,40.466c-2.016-0.84-3.808-2.128-5.376-3.696
		c-1.568-1.568-2.744-3.416-3.584-5.432c-0.896-2.072-1.344-4.368-1.344-6.664s0.448-4.536,1.344-6.608
		c0.84-2.016,2.016-3.864,3.584-5.432c1.568-1.568,3.36-2.856,5.376-3.696c2.072-0.896,4.312-1.344,6.608-1.344
		s4.536,0.448,6.608,1.344c2.016,0.84,3.808,2.128,5.376,3.696c1.567,1.568,2.743,3.416,3.584,5.432
		c0.896,2.072,1.344,4.312,1.344,6.608s-0.448,4.592-1.344,6.664c-0.841,2.016-2.017,3.864-3.584,5.432
		c-1.568,1.568-3.36,2.856-5.376,3.696c-2.072,0.896-4.312,1.344-6.608,1.344S259.362,41.362,257.29,40.466z M252.306,24.674
		c0,6.384,5.208,11.76,11.592,11.76s11.592-5.376,11.592-11.76s-5.208-11.704-11.592-11.704S252.306,18.291,252.306,24.674z"/>
	<path fill="none" stroke="#000000" stroke-miterlimit="10" d="M283.85,8.042l5.32,0.056v9.8l7.896-9.8h6.776l-11.983,15.008
		l14.84,18.424h-6.832L289.17,28.258v13.888l-0.112-0.056c-3.08-1.232-5.208-4.256-5.208-7.84v-0.504V8.042z"/>
</g>
</svg>
