<?xml version="1.0" encoding="utf-8"?>
<!-- Generator: Adobe Illustrator 16.0.0, SVG Export Plug-In . SVG Version: 6.00 Build 0)  -->
<!DOCTYPE svg PUBLIC "-//W3C//DTD SVG 1.1 Tiny//EN" "http://www.w3.org/Graphics/SVG/1.1/DTD/svg11-tiny.dtd">
<svg version="1.1" baseProfile="tiny" id="Layer_1" xmlns="http://www.w3.org/2000/svg" xmlns:xlink="http://www.w3.org/1999/xlink"
	 x="0px" y="0px" width="326.797px" height="111.825px" viewBox="0 0 326.797 111.825" xml:space="preserve">
<g>
	<g>
		<path fill="#FFFFFF" d="M83.566,37.688c0,1.863-0.864,4.76-2.587,8.692l-7.657,17.384c-1.242,2.83-1.863,4.863-1.863,6.105
			c0,1.381,0.8,2.07,2.401,2.07c2.435,0,4.8-1.276,7.096-3.83c0.834-0.895,1.496-1.345,1.984-1.345c0.417,0,0.626,0.14,0.626,0.414
			c0,0.828-1.181,2.069-3.538,3.726c-3.466,2.482-6.656,3.725-9.57,3.725c-1.942,0-3.52-0.5-4.733-1.5
			c-1.214-1-1.82-2.293-1.82-3.881c0-1.723,0.758-4.346,2.276-7.864l7.554-17.488c1.793-4.139,2.69-6.83,2.69-8.071
			c0-2.414-1.035-3.622-3.104-3.622c-3.244,0-6.726,2.306-10.452,6.917c-2.416,2.959-5.484,8.809-9.209,17.548l-6.208,14.555
			c-0.967,2.271-1.691,3.406-2.173,3.406c-0.346,0-0.621,0-0.828,0c-1.035,0-1.932,0-2.69,0c-0.414,0-0.983,0-1.708,0
			c-0.725,0-1.26,0-1.604,0c-0.483,0-0.724-0.172-0.724-0.514c0-0.207,0.137-0.584,0.414-1.133c0.275-0.551,0.655-1.34,1.138-2.369
			l10.762-25.437c2.276-5.355,3.415-8.855,3.415-10.504c0-1.921-1.035-2.883-3.104-2.883c-2.69,0-6.001,2.242-9.934,6.726
			c-1.174,1.381-3.001,3.794-5.484,7.244c-0.897,1.242-2.173,3.829-3.829,7.761l-7.761,18.213c-0.828,1.932-1.449,2.896-1.863,2.896
			c-0.346,0-0.621-0.047-0.828-0.137c-1.104-0.186-1.759-0.277-1.966-0.277c-2.139,0-3.415,0.104-3.829,0.311
			c-0.137,0.068-0.344,0.104-0.621,0.104c-0.344,0-0.517-0.172-0.517-0.518c0.346-0.758,0.76-1.586,1.242-2.482l16.35-37.978
			c0.207-0.344,0.311-0.585,0.311-0.724c0-0.621-0.621-0.932-1.863-0.932c-1.932,0-2.897-0.344-2.897-1.035
			c0-0.482,0.345-0.724,1.035-0.724c0.621,0,1.586,0.069,2.897,0.207c1.31,0.139,2.276,0.207,2.897,0.207
			c3.104,0,5.071-0.241,5.898-0.724c0.207-0.068,0.414-0.138,0.621-0.207c0.414,0,0.621,0.243,0.621,0.725
			c0,0.139-0.31,0.897-0.931,2.276c-0.483,0.967-1.138,2.656-1.966,5.07l-0.517,1.449c0.621-0.682,1.931-2.115,3.932-4.299
			c3.104-3.479,6.897-5.221,11.383-5.221c2.828,0,4.828,0.718,6.001,2.15c1.172,1.434,1.827,3.96,1.966,7.577
			c4.414-6.483,9.174-9.727,14.28-9.727c2.621,0,4.708,0.725,6.26,2.173C82.79,33.342,83.566,35.274,83.566,37.688z"/>
		<path fill="#FFFFFF" d="M132.2,46.484c0,8.071-3.691,15.351-11.072,21.833c-5.795,5.107-11.832,7.658-18.109,7.658
			c-4.278,0-7.796-1.484-10.555-4.449c-2.76-2.966-4.139-6.795-4.139-11.486c0-4,1.138-8.105,3.415-12.314
			c2.276-4.207,5.312-7.795,9.106-10.762c5.932-4.621,11.657-6.933,17.177-6.933c4.207,0,7.622,1.518,10.245,4.553
			C130.889,37.62,132.2,41.586,132.2,46.484z M124.232,39.758c0-5.242-2.346-7.865-7.037-7.865c-5.727,0-10.694,4.105-14.901,12.314
			c-4.002,7.864-6.002,15.247-6.002,22.145c0,5.174,2.311,7.76,6.933,7.76c5.795,0,10.623-3.725,14.487-11.176
			C122.059,54.521,124.232,46.794,124.232,39.758z"/>
		<path fill="#FFFFFF" d="M199.462,1.365c-0.07,0.207-0.174,0.45-0.311,0.725c-0.277,0.551-0.658,1.343-1.139,2.376l-23.594,57.142
			c-1.795,4.34-2.691,7.026-2.691,8.06c0,1.929,1.104,2.894,3.312,2.894c3.311,0,6.139-1.803,8.484-5.408
			c0.76-1.154,1.277-1.732,1.553-1.732c0.482,0,0.725,0.276,0.725,0.828c0,1.174-1.174,2.829-3.518,4.967
			c-2.898,2.623-6.383,3.932-10.453,3.932c-5.173,0-7.76-2.207-7.76-6.623c0-0.895,0-1.896,0-3
			c-2.536,3.618-4.967,6.197-7.295,7.732c-2.329,1.535-5.067,2.305-8.217,2.305c-3.837,0-6.971-1.223-9.402-3.666
			c-2.432-2.442-3.646-5.626-3.646-9.551c0-8.121,3.863-15.796,11.59-23.023c6.967-6.539,13.624-9.808,19.971-9.808
			c4.414,0,7.347,2.105,8.796,6.312l0.621-1.25l0.725-1.562l11.795-28.529c0.275-0.346,0.414-0.658,0.414-0.937
			c0-0.485-0.189-0.781-0.568-0.884c-0.381-0.104-1.674-0.226-3.881-0.365c-1.311-0.058-1.967-0.262-1.967-0.613
			c0-0.349,0.379-0.525,1.139-0.525h1.242c0.896,0,2.189,0,3.881,0c1.689,0,2.914,0,3.674,0c2.621,0,4.311-0.092,5.07-0.277
			c0.414-0.09,0.688-0.137,0.828-0.137C199.255,0.746,199.462,0.953,199.462,1.365z M174.522,37.879
			c0-1.581-0.725-2.993-2.174-4.231c-1.447-1.238-3.07-1.857-4.863-1.857c-5.106,0-10.314,4.267-15.625,12.799
			c-5.037,8.052-7.554,14.863-7.554,20.438c0,5.023,2.276,7.535,6.83,7.535c4,0,7.932-2.787,11.796-8.361
			c2.758-3.923,5.139-8.499,7.141-13.728l2.379-6.091C173.833,40.874,174.522,38.705,174.522,37.879z"/>
		<path fill="#FFFFFF" d="M229.572,36.86c0,3.725-2.002,6.813-6.002,9.261c-4.002,2.45-9.072,3.674-15.212,3.674
			c-2.208,0-4.656-0.171-7.347-0.518c-2.553,5.291-3.829,10.201-3.829,14.735c0,6.113,2.725,9.168,8.175,9.168
			c4.207,0,8.312-2.178,12.314-6.536c0.896-0.954,1.482-1.431,1.759-1.431c0.345,0,0.518,0.172,0.518,0.512
			c0,1.572-1.622,3.52-4.863,5.841c-3.726,2.665-7.59,3.995-11.59,3.995c-4.485,0-8.175-1.307-11.072-3.922
			c-2.897-2.617-4.347-5.92-4.347-9.914c0-7.707,4.208-15.175,12.625-22.403c7.381-6.332,13.97-9.499,19.765-9.499
			C226.535,29.824,229.572,32.17,229.572,36.86z M222.225,35.101c0-2.137-1.07-3.208-3.208-3.208c-2.208,0-4.382,0.828-6.519,2.484
			c-3.864,3.036-7.417,7.554-10.658,13.556c0.827,0.069,1.759,0.104,2.794,0.104c3.862,0,7.621-1.172,11.278-3.519
			C220.12,41.897,222.225,38.758,222.225,35.101z"/>
		<path fill="#FFFFFF" d="M267.858,34.584c0,1.38-0.449,2.571-1.346,3.57c-0.896,1.001-1.932,1.5-3.104,1.5
			c-1.104,0-1.656-0.378-1.656-1.138l0.207-1.035c0.138-0.414,0.207-0.792,0.207-1.138c0-1.656-0.828-2.483-2.483-2.483
			c-2.002,0-4.796,1.932-8.382,5.795c-3.588,3.864-6.969,9.279-10.141,16.246l-7.451,16.351c-0.69,1.588-1.277,2.379-1.759,2.379
			c-1.381-0.207-2.449-0.311-3.208-0.311c-1.174,0-2.105,0.104-2.794,0.311h-0.621c-0.621,0-0.931-0.139-0.931-0.416
			c0-0.066,0.104-0.207,0.31-0.412l0.518-1.039l17.488-39.833c0-0.553-0.449-0.83-1.346-0.83c0.068,0-0.069,0-0.413,0
			c-0.277,0.07-0.725,0.104-1.346,0.104h-1.035c-1.034,0-1.552-0.241-1.552-0.724c0-0.414,1.793-0.689,5.381-0.828
			c3.586-0.137,6.002-0.448,7.243-0.931c0.552-0.137,0.862-0.207,0.932-0.207c0.414,0,0.621,0.207,0.621,0.621
			c0,0.346-0.449,1.622-1.346,3.829l-3.828,9.313c6.346-8.83,11.934-13.245,16.764-13.245
			C266.167,30.031,267.858,31.549,267.858,34.584z"/>
		<path fill="#FFFFFF" d="M308.939,37.832c0,1.664-0.897,4.54-2.69,8.631l-8.382,19.028c-0.967,2.219-1.449,3.709-1.449,4.471
			c0,1.457,0.807,2.186,2.421,2.186c1.963,0,4.839-1.587,8.627-4.761c0.35-0.207,0.631-0.311,0.843-0.311
			c0.42,0,0.631,0.173,0.631,0.518c0,0.827-1.149,2.036-3.449,3.622c-3.137,2.139-6.48,3.207-10.034,3.207
			c-2.16,0-3.936-0.467-5.329-1.402s-2.091-2.132-2.091-3.588c0-1.178,0.655-3.259,1.967-6.24l8.278-18.613c2-4.504,3-7.556,3-9.15
			c0-2.357-1.207-3.536-3.621-3.536c-3.174,0-6.899,2.277-11.176,6.83c-3.243,3.45-6.209,8.278-8.899,14.487L269.1,72.872
			c-0.346,1.033-0.794,1.551-1.345,1.551c-0.14,0-0.897,0-2.277,0c-0.207,0-0.62,0-1.241,0c-0.553,0-1.484,0-2.794,0
			c-0.207,0-0.449,0-0.725,0c-0.481,0-0.725-0.172-0.725-0.516c0-0.135,0.104-0.342,0.311-0.617l0.725-1.545l15.832-37.902
			c0.207-0.343,0.379-0.653,0.518-0.928c-0.069-0.48-0.932-0.755-2.587-0.823c-2.069-0.068-3.104-0.446-3.104-1.133
			c0-0.48,0.379-0.721,1.139-0.721c0.481,0,1.241,0.069,2.276,0.207c1.034,0.139,1.827,0.207,2.38,0.207
			c3.726,0,6.173-0.275,7.347-0.828c0.482-0.207,0.793-0.311,0.932-0.311c0.414,0,0.621,0.207,0.621,0.621
			c0,0.207-0.036,0.38-0.104,0.517l-3.829,9.727c0.552-0.632,1.346-1.512,2.38-2.637c5.104-5.484,10.038-8.229,14.798-8.229
			c2.759,0,5.001,0.781,6.727,2.34C308.076,33.413,308.939,35.407,308.939,37.832z"/>
	</g>
	<g>
		<path fill="#FFFFFF" d="M245.767,84.198c0,0.934-0.432,2.385-1.294,4.355l-3.829,8.715c-0.62,1.418-0.931,2.438-0.931,3.059
			c0,0.693,0.4,1.037,1.2,1.037c1.218,0,2.4-0.65,3.549-1.951c0.417-0.457,0.747-0.688,0.991-0.688c0.209,0,0.313,0.07,0.313,0.207
			c0,0.414-0.591,1.035-1.77,1.863c-1.733,1.242-3.328,1.863-4.785,1.863c-0.971,0-1.76-0.25-2.366-0.748
			c-0.606-0.5-0.91-1.145-0.91-1.936c0-0.861,0.379-2.168,1.139-3.924l3.776-8.723c0.896-2.064,1.346-3.406,1.346-4.025
			c0-1.205-0.518-1.807-1.553-1.807c-1.621,0-3.362,1.15-5.226,3.449c-1.207,1.477-2.742,4.395-4.604,8.754l-3.104,7.26
			c-0.483,1.133-0.846,1.699-1.086,1.699c-0.174,0-0.311,0-0.414,0c-0.518,0-0.967,0-1.346,0c-0.207,0-0.491,0-0.854,0
			s-0.63,0-0.802,0c-0.242,0-0.362-0.086-0.362-0.258c0-0.104,0.068-0.291,0.207-0.566c0.138-0.275,0.327-0.67,0.569-1.184
			l5.381-12.719c1.138-2.678,1.707-4.428,1.707-5.252c0-0.961-0.518-1.441-1.552-1.441c-1.346,0-3.001,1.121-4.968,3.361
			c-0.587,0.691-1.5,1.898-2.742,3.623c-0.448,0.621-1.086,1.914-1.914,3.881l-3.881,9.105c-0.413,0.967-0.724,1.449-0.931,1.449
			c-0.173,0-0.311-0.023-0.414-0.068c-0.552-0.094-0.88-0.139-0.983-0.139c-1.069,0-1.707,0.051-1.914,0.154
			c-0.068,0.035-0.172,0.053-0.311,0.053c-0.172,0-0.259-0.088-0.259-0.26c0.173-0.379,0.38-0.793,0.621-1.242l8.175-18.988
			c0.104-0.172,0.155-0.291,0.155-0.361c0-0.311-0.311-0.465-0.932-0.465c-0.966,0-1.448-0.174-1.448-0.518
			c0-0.242,0.172-0.363,0.518-0.363c0.311,0,0.793,0.035,1.448,0.104c0.655,0.07,1.139,0.104,1.449,0.104
			c1.552,0,2.535-0.121,2.949-0.361c0.104-0.035,0.206-0.068,0.31-0.104c0.207,0,0.311,0.121,0.311,0.361
			c0,0.07-0.155,0.449-0.465,1.139c-0.242,0.484-0.569,1.328-0.983,2.535l-0.259,0.725c0.311-0.342,0.965-1.059,1.966-2.15
			c1.553-1.738,3.449-2.609,5.691-2.609c1.414,0,2.414,0.359,3.001,1.074c0.586,0.717,0.914,1.98,0.983,3.789
			c2.207-3.242,4.587-4.863,7.14-4.863c1.311,0,2.354,0.363,3.131,1.09C245.378,82.019,245.767,82.987,245.767,84.198z"/>
		<path fill="#FFFFFF" d="M272.93,80.878l-0.104,0.262l-0.362,0.836l-5.795,13.635c-1.173,2.752-1.759,4.459-1.759,5.121
			c0,0.939,0.447,1.41,1.345,1.41c1.275,0,2.69-0.951,4.243-2.857c0.379-0.475,0.638-0.713,0.775-0.713
			c0.207,0,0.311,0.105,0.311,0.314c0,0.836-1.018,1.883-3.053,3.141c-1.207,0.732-2.449,1.098-3.725,1.098
			c-1.001,0-1.881-0.279-2.639-0.834c-0.76-0.557-1.139-1.199-1.139-1.93c0-0.418,0.155-1.061,0.466-1.93l0.621-1.773
			c-2.312,2.699-4.062,4.451-5.252,5.258s-2.647,1.209-4.372,1.209c-1.345,0-2.449-0.27-3.312-0.807
			c-0.862-0.535-1.293-1.238-1.293-2.104c0-0.938,0.379-2.254,1.138-3.953l5.329-12.01c0.138-0.311,0.432-0.918,0.88-1.818
			c0.104-0.174,0.155-0.295,0.155-0.365c0-0.275-0.414-0.416-1.242-0.416c-1.104,0-1.655-0.188-1.655-0.568
			c0-0.24,0.12-0.361,0.362-0.361c0.275,0,0.673,0.033,1.19,0.104c0.517,0.068,0.913,0.104,1.189,0.104
			c1.793,0,3.121-0.156,3.984-0.467c0.207-0.068,0.344-0.104,0.414-0.104c0.172,0,0.258,0.105,0.258,0.312
			c0,0.277-0.345,1.152-1.034,2.625c-0.69,1.473-1.328,2.99-1.915,4.549c-0.138,0.381-0.672,1.646-1.604,3.795l-2.069,4.783
			c-0.862,1.975-1.294,3.379-1.294,4.211c0,1.006,0.638,1.508,1.915,1.508c1.345,0,3.086-1.104,5.226-3.312
			c2.414-2.482,4.415-5.621,6.002-9.416l3.311-7.863c0.173-0.414,0.362-0.621,0.569-0.621c-0.034,0,0.327,0,1.087,0h0.414
			c0.931,0,1.534-0.053,1.811-0.156c0.172-0.068,0.293-0.104,0.362-0.104C272.843,80.669,272.93,80.739,272.93,80.878z"/>
		<path fill="#FFFFFF" d="M292.072,84.188c0,0.586-0.19,1.086-0.569,1.5c-0.38,0.414-0.828,0.621-1.345,0.621
			c-1.035,0-1.553-0.5-1.553-1.502c0-0.826,0.345-1.24,1.035-1.24c0.104,0,0.267,0.051,0.491,0.154
			c0.224,0.104,0.405,0.156,0.543,0.156c0.207,0,0.311-0.119,0.311-0.357c0-0.574-0.396-1.135-1.189-1.676
			c-0.794-0.541-1.604-0.812-2.432-0.812c-1.104,0-2.036,0.352-2.794,1.057c-0.76,0.707-1.139,1.559-1.139,2.557
			c0,0.859,0.811,3.252,2.432,7.174c0.379,0.93,0.569,1.98,0.569,3.15c0,2.34-0.794,4.301-2.38,5.883
			c-1.587,1.584-3.57,2.375-5.95,2.375c-2.069,0-3.803-0.578-5.2-1.732c-1.396-1.156-2.095-2.578-2.095-4.27
			c0-0.965,0.284-1.758,0.854-2.379s1.284-0.932,2.146-0.932c0.655,0,1.217,0.225,1.682,0.672c0.466,0.449,0.699,0.982,0.699,1.604
			c0,1.035-0.501,1.553-1.501,1.553c-1.069,0-1.604-0.361-1.604-1.086c0-0.242,0.043-0.482,0.129-0.725
			c0.086-0.24,0.13-0.379,0.13-0.414c0-0.344-0.139-0.518-0.414-0.518c-0.311,0-0.595,0.232-0.854,0.699
			c-0.259,0.465-0.389,0.975-0.389,1.525c0,1.346,0.563,2.52,1.689,3.52c1.127,1,2.452,1.5,3.978,1.5
			c1.422,0,2.608-0.432,3.562-1.293c0.953-0.863,1.43-1.949,1.43-3.26c0-0.932-0.371-2.449-1.112-4.555
			c-0.707-2-1.061-3.654-1.061-4.967c0-2.24,0.681-4.129,2.044-5.664c1.362-1.535,3.026-2.303,4.993-2.303
			c1.311,0,2.448,0.396,3.414,1.189C291.589,82.188,292.072,83.118,292.072,84.188z"/>
		<path fill="#FFFFFF" d="M311.784,83.755c0,1.854-1.001,3.391-3.001,4.607c-2.001,1.219-4.536,1.826-7.605,1.826
			c-1.104,0-2.328-0.068-3.674-0.207c-1.276,2.646-1.914,5.102-1.914,7.369c0,3.057,1.362,4.584,4.088,4.584
			c2.104,0,4.156-1.09,6.156-3.27c0.448-0.477,0.742-0.715,0.88-0.715c0.172,0,0.259,0.086,0.259,0.256
			c0,0.787-0.811,1.76-2.432,2.92c-1.862,1.332-3.795,1.998-5.795,1.998c-2.242,0-4.088-0.652-5.536-1.961
			c-1.449-1.309-2.173-2.959-2.173-4.957c0-3.854,2.104-7.588,6.312-11.201c3.691-3.166,6.985-4.75,9.883-4.75
			C310.267,80.255,311.784,81.423,311.784,83.755z M308.111,82.894c0-1.068-0.535-1.604-1.604-1.604c-1.104,0-2.19,0.414-3.26,1.242
			c-1.932,1.518-3.708,3.777-5.329,6.777c0.414,0.035,0.88,0.053,1.397,0.053c1.931,0,3.811-0.586,5.64-1.76
			C307.059,86.292,308.111,84.724,308.111,82.894z"/>
	</g>
	<g>
		<path fill="#FFFFFF" d="M48.611,7.442c-0.428,1.187-0.759,2.201-0.994,3.042c-0.166,0.58-0.311,0.87-0.435,0.87
			c-0.11,0-0.166-0.055-0.166-0.165c0-0.055,0.059-0.298,0.176-0.73s0.176-0.827,0.176-1.183c0-0.699-0.325-1.131-0.973-1.296
			c-0.263-0.068-0.711-0.103-1.345-0.103c-0.387,0-0.745,0.014-1.077,0.042l-4.801,11.965c-0.11,0.275-0.21,0.517-0.3,0.724
			c-0.09,0.207-0.135,0.337-0.135,0.393c0,0.317,0.441,0.475,1.325,0.475c0.124,0,0.186,0.042,0.186,0.124
			c0,0.151-0.117,0.227-0.352,0.227c-0.069,0-0.249-0.007-0.538-0.021c-0.58-0.027-1.263-0.042-2.049-0.042
			c-0.51,0-1.055,0.01-1.635,0.031c-0.193,0.021-0.435,0.031-0.724,0.031c-0.152,0-0.228-0.036-0.228-0.11
			c0-0.147,0.138-0.221,0.414-0.221c0.042,0,0.104,0,0.187,0h0.207c0.51,0,0.859-0.089,1.045-0.269
			c0.186-0.179,0.445-0.689,0.776-1.531l4.677-11.817h-0.828c-1.421,0-2.477,0.324-3.167,0.973c-0.4,0.373-0.883,1.097-1.449,2.173
			c-0.083,0.166-0.18,0.249-0.29,0.249c-0.069,0-0.104-0.042-0.104-0.125c0-0.041,0.021-0.111,0.062-0.208l0.311-0.708
			c0.151-0.333,0.379-0.839,0.683-1.519c0.179-0.347,0.379-0.77,0.6-1.269c0.469,0.041,2.194,0.062,5.174,0.062
			C44.679,7.504,46.541,7.483,48.611,7.442z"/>
		<path fill="#FFFFFF" d="M55.233,20.273c0,0.097-0.131,0.255-0.393,0.476c-0.98,0.828-1.87,1.242-2.67,1.242
			c-0.386,0-0.697-0.107-0.931-0.321c-0.235-0.213-0.352-0.493-0.352-0.838c0-0.29,0.167-0.807,0.5-1.552l1.835-4.077
			c0.306-0.676,0.459-1.097,0.459-1.262c0-0.428-0.228-0.642-0.683-0.642c-0.566,0-1.256,0.386-2.07,1.159
			c-0.621,0.594-1.093,1.132-1.417,1.614c-0.324,0.483-0.707,1.229-1.148,2.235l-1.345,3.021c-0.111,0.262-0.187,0.414-0.228,0.456
			c-0.041,0.041-0.124,0.062-0.248,0.062c-0.056,0-0.242,0-0.559,0c-0.428,0-0.666,0-0.714,0s-0.1,0-0.155,0
			c-0.055,0-0.083-0.021-0.083-0.062c0-0.055,0.048-0.193,0.145-0.414l5.691-12.956c0.207-0.469,0.311-0.738,0.311-0.807
			c0-0.11-0.031-0.172-0.093-0.187C51.021,7.408,50.797,7.4,50.411,7.4c-0.331,0-0.497-0.06-0.497-0.18
			c0-0.059,0.048-0.089,0.145-0.089s0.172,0,0.228,0h1.532c0.303,0,0.593-0.012,0.869-0.037c0.166-0.017,0.276-0.025,0.331-0.025
			c0.125,0,0.187,0.048,0.187,0.145c0,0.097-0.028,0.18-0.083,0.249c-0.097,0.235-0.186,0.421-0.269,0.559l-3.353,7.43
			c0.869-0.979,1.593-1.659,2.173-2.039s1.187-0.569,1.821-0.569c0.51,0,0.928,0.122,1.252,0.363s0.486,0.55,0.486,0.923
			c0,0.415-0.159,0.989-0.476,1.722l-1.883,4.335c-0.235,0.54-0.352,0.865-0.352,0.976c0,0.208,0.103,0.311,0.308,0.311
			c0.452,0,1.082-0.35,1.89-1.051c0.205-0.182,0.342-0.273,0.411-0.273C55.199,20.149,55.233,20.19,55.233,20.273z"/>
		<path fill="#FFFFFF" d="M64.277,14.305c0,0.742-0.4,1.356-1.201,1.843s-1.814,0.73-3.042,0.73c-0.442,0-0.931-0.027-1.469-0.083
			c-0.511,1.058-0.766,2.04-0.766,2.947c0,1.223,0.545,1.834,1.635,1.834c0.841,0,1.662-0.436,2.463-1.308
			c0.179-0.191,0.296-0.286,0.352-0.286c0.069,0,0.104,0.034,0.104,0.103c0,0.314-0.324,0.704-0.973,1.168
			c-0.745,0.533-1.518,0.799-2.318,0.799c-0.897,0-1.635-0.261-2.214-0.785c-0.58-0.523-0.87-1.184-0.87-1.982
			c0-1.542,0.842-3.035,2.525-4.481c1.477-1.266,2.794-1.9,3.953-1.9C63.67,12.905,64.277,13.372,64.277,14.305z M62.808,13.961
			c0-0.427-0.214-0.642-0.641-0.642c-0.442,0-0.876,0.166-1.304,0.497c-0.773,0.607-1.483,1.511-2.131,2.711
			c0.166,0.014,0.352,0.021,0.559,0.021c0.772,0,1.524-0.234,2.256-0.704C62.387,15.32,62.808,14.692,62.808,13.961z"/>
	</g>
</g>
<g>
</g>
<g>
</g>
<g>
</g>
<g>
</g>
<g>
</g>
<g>
</g>
</svg>
