<?xml version="1.0" encoding="utf-8"?>
<!-- Generator: Adobe Illustrator 16.0.0, SVG Export Plug-In . SVG Version: 6.00 Build 0)  -->
<!DOCTYPE svg PUBLIC "-//W3C//DTD SVG 1.1 Tiny//EN" "http://www.w3.org/Graphics/SVG/1.1/DTD/svg11-tiny.dtd">
<svg version="1.1" baseProfile="tiny" id="Layer_1" xmlns="http://www.w3.org/2000/svg" xmlns:xlink="http://www.w3.org/1999/xlink"
	 x="0px" y="0px" width="326.797px" height="195.269px" viewBox="0 0 326.797 195.269" xml:space="preserve">
<g>
	<path d="M64.016,30.472c0,5.297-2.461,9.744-7.379,13.339c-4.919,3.596-10.984,5.394-18.196,5.394
		c-1.901,0-4.528-0.223-7.882-0.671l-8.05,20.879c-0.28,0.728-0.699,1.874-1.258,3.438l-0.503,1.257
		c-0.056,0.057-0.113,0.141-0.167,0.252c0,0.392,0.363,0.587,1.09,0.587l6.457-0.252c0.558,0.126,0.839,0.375,0.839,0.75
		c0,0.618-0.448,0.898-1.342,0.844l-2.18-0.42H9.008c-1.396,0-2.403,0.071-3.019,0.21c-0.615,0.139-0.81,0.21-0.587,0.21
		c-0.839,0-1.258-0.252-1.258-0.755c0-0.558,0.364-0.839,1.09-0.839c0.335,0,0.644,0,0.922,0h4.36c0.95,0,1.677-0.459,2.18-1.381
		c0.503-0.921,1.258-2.693,2.264-5.316l17.273-44.291c0.223-0.613,0.782-2.065,1.677-4.354c-0.335-0.055-0.7-0.084-1.09-0.084
		c-0.727,0-1.622,0.071-2.683,0.21c-1.062,0.14-1.733,0.209-2.013,0.209c-1.341,0-2.012-0.279-2.012-0.838
		c0-0.558,0.558-0.839,1.677-0.839h0.671c0.447,0,0.922,0,1.426,0h1.006c0.95,0,2.487,0,4.612,0c7.882,0,13.639,0.335,17.274,1.004
		C60.27,20.41,64.016,24.229,64.016,30.472z M55.63,29.304c0-3.399-0.881-5.852-2.642-7.357c-1.761-1.504-4.626-2.257-8.595-2.257
		c-0.56,0-1.342,0.084-2.348,0.25L31.313,46.86c2.851,0.558,5.002,0.836,6.457,0.836c4.696,0,8.847-1.867,12.452-5.601
		C53.827,38.361,55.63,34.098,55.63,29.304z"/>
	<path d="M93.362,53.566c0,6.541-2.991,12.439-8.972,17.693c-4.696,4.137-9.588,6.205-14.674,6.205
		c-3.466,0-6.317-1.203-8.553-3.605c-2.236-2.403-3.354-5.506-3.354-9.309c0-3.24,0.922-6.567,2.767-9.978
		c1.845-3.409,4.304-6.317,7.379-8.721c4.807-3.745,9.447-5.618,13.919-5.618c3.409,0,6.176,1.23,8.301,3.689
		C92.3,46.383,93.362,49.597,93.362,53.566z M86.906,48.115c0-4.248-1.901-6.373-5.702-6.373c-4.641,0-8.666,3.327-12.075,9.979
		c-3.243,6.373-4.863,12.355-4.863,17.944c0,4.193,1.872,6.289,5.618,6.289c4.696,0,8.608-3.019,11.739-9.056
		C85.145,60.079,86.906,53.817,86.906,48.115z"/>
	<path d="M150.381,44.941c0,7.788-2.334,15.127-7.001,22.019c-4.668,6.892-9.601,10.336-14.8,10.336
		c-1.79,0-3.354-0.574-4.696-1.719c-1.342-1.145-2.209-2.696-2.6-4.654c-0.167-0.781-0.251-2.123-0.251-4.024
		c-3.299,6.933-7.463,10.397-12.494,10.397c-2.236,0-4.081-0.673-5.534-2.016c-1.454-1.345-2.18-3.055-2.18-5.129
		c0-2.744,0.782-5.91,2.348-9.498l5.031-11.599c0.839-1.961,1.258-3.559,1.258-4.792c0-1.512-0.643-2.269-1.929-2.269
		c-1.119,0-2.544,0.742-4.276,2.222c-1.733,1.482-3.047,3.089-3.941,4.821c-0.28,0.616-0.587,0.922-0.922,0.922
		s-0.503-0.223-0.503-0.67c0-1.006,1.09-2.627,3.27-4.864c2.906-2.962,5.897-4.444,8.972-4.444c4.08,0,6.121,1.618,6.121,4.852
		c0,2.231-0.895,5.327-2.683,9.287l-4.947,10.875c-1.287,2.844-1.929,5.214-1.929,7.109c0,2.344,0.95,3.515,2.851,3.515
		c4.639,0,9.392-5.855,14.255-17.567l4.276-10.289l1.593-4.768c0.168-0.668,0.558-1.031,1.174-1.087l1.006-0.084l2.013-0.25
		l2.348-0.418c0.614-0.111,0.866-0.168,0.755-0.168c0.447,0,0.67,0.168,0.67,0.503c0,0.224-0.112,0.448-0.335,0.671
		c-0.28,0.559-0.587,1.257-0.922,2.096l-7.882,19.706c-1.23,3.074-1.845,5.59-1.845,7.547c0,2.739,1.201,4.108,3.605,4.108
		c4.025,0,8.413-3.941,13.165-11.823c3.521-5.869,5.283-11.543,5.283-17.022c0-1.229-0.358-1.845-1.072-1.845
		c-0.11,0-0.385,0.062-0.824,0.188c-0.11,0.042-0.33,0.063-0.66,0.063c-1.595,0-2.391-0.698-2.391-2.096
		c0-0.839,0.33-1.564,0.993-2.18c0.663-0.615,1.463-0.922,2.401-0.922C149.305,39.982,150.381,41.635,150.381,44.941z"/>
	<path d="M186.102,45.768c0,3.019-1.622,5.521-4.864,7.505c-3.243,1.985-7.351,2.977-12.326,2.977c-1.79,0-3.773-0.139-5.954-0.419
		c-2.068,4.287-3.103,8.266-3.103,11.94c0,4.954,2.208,7.431,6.625,7.431c3.409,0,6.736-1.766,9.979-5.298
		c0.726-0.772,1.201-1.159,1.425-1.159c0.279,0,0.419,0.139,0.419,0.415c0,1.274-1.314,2.851-3.941,4.732
		c-3.019,2.159-6.15,3.237-9.392,3.237c-3.634,0-6.625-1.059-8.972-3.178c-2.348-2.12-3.522-4.797-3.522-8.033
		c0-6.246,3.409-12.297,10.23-18.154c5.981-5.131,11.32-7.698,16.016-7.698C183.642,40.065,186.102,41.967,186.102,45.768z
		 M180.148,44.342c0-1.732-0.867-2.599-2.6-2.599c-1.79,0-3.55,0.671-5.283,2.012c-3.131,2.461-6.01,6.122-8.637,10.985
		c0.671,0.056,1.426,0.084,2.264,0.084c3.13,0,6.176-0.95,9.14-2.851C178.442,49.849,180.148,47.306,180.148,44.342z"/>
	<path d="M217.126,43.923c0,1.119-0.363,2.083-1.09,2.893c-0.727,0.811-1.565,1.216-2.516,1.216c-0.895,0-1.342-0.307-1.342-0.922
		l0.168-0.839c0.111-0.335,0.168-0.642,0.168-0.922c0-1.341-0.671-2.012-2.013-2.012c-1.622,0-3.886,1.565-6.792,4.696
		c-2.907,3.131-5.646,7.519-8.218,13.165l-6.037,13.248c-0.56,1.287-1.035,1.93-1.426,1.93c-1.119-0.168-1.985-0.252-2.599-0.252
		c-0.951,0-1.706,0.084-2.264,0.252h-0.503c-0.503,0-0.755-0.113-0.755-0.337c0-0.056,0.084-0.168,0.251-0.335l0.419-0.842
		l14.17-32.278c0-0.448-0.364-0.672-1.09-0.672c0.055,0-0.057,0-0.335,0c-0.225,0.057-0.587,0.084-1.091,0.084h-0.838
		c-0.839,0-1.258-0.195-1.258-0.587c0-0.335,1.453-0.558,4.36-0.671c2.906-0.111,4.863-0.363,5.869-0.754
		c0.447-0.112,0.698-0.168,0.755-0.168c0.336,0,0.503,0.168,0.503,0.503c0,0.281-0.364,1.314-1.09,3.103l-3.103,7.547
		c5.143-7.155,9.671-10.733,13.584-10.733C215.756,40.233,217.126,41.463,217.126,43.923z"/>
	<path d="M264.335,17.005c-0.057,0.167-0.141,0.364-0.252,0.587c-0.224,0.447-0.532,1.089-0.922,1.926l-19.119,46.304
		c-1.454,3.517-2.18,5.694-2.18,6.531c0,1.562,0.894,2.344,2.684,2.344c2.683,0,4.975-1.459,6.876-4.381
		c0.614-0.936,1.033-1.404,1.257-1.404c0.391,0,0.588,0.224,0.588,0.67c0,0.951-0.952,2.293-2.852,4.025
		c-2.348,2.125-5.171,3.187-8.469,3.187c-4.192,0-6.289-1.788-6.289-5.366c0-0.727,0-1.537,0-2.432
		c-2.055,2.932-4.025,5.021-5.912,6.266s-4.105,1.867-6.658,1.867c-3.109,0-5.648-0.99-7.619-2.97
		c-1.97-1.979-2.954-4.56-2.954-7.739c0-6.581,3.13-12.801,9.392-18.657c5.646-5.298,11.04-7.948,16.184-7.948
		c3.577,0,5.953,1.706,7.128,5.115l0.503-1.013l0.587-1.266l9.559-23.118c0.223-0.28,0.336-0.533,0.336-0.759
		c0-0.393-0.155-0.633-0.461-0.716c-0.309-0.084-1.356-0.184-3.145-0.296c-1.062-0.047-1.594-0.212-1.594-0.497
		c0-0.283,0.307-0.426,0.923-0.426h1.006c0.726,0,1.774,0,3.145,0c1.369,0,2.361,0,2.977,0c2.124,0,3.493-0.075,4.109-0.224
		c0.335-0.073,0.558-0.111,0.67-0.111C264.167,16.503,264.335,16.671,264.335,17.005z M244.126,46.593
		c0-1.281-0.587-2.425-1.761-3.429c-1.174-1.003-2.488-1.505-3.941-1.505c-4.137,0-8.357,3.458-12.661,10.372
		c-4.082,6.525-6.122,12.045-6.122,16.561c0,4.07,1.846,6.105,5.535,6.105c3.241,0,6.428-2.258,9.559-6.775
		c2.235-3.178,4.164-6.886,5.786-11.123l1.929-4.936C243.566,49.02,244.126,47.263,244.126,46.593z"/>
	<path d="M288.734,45.768c0,3.019-1.622,5.521-4.863,7.505c-3.243,1.985-7.352,2.977-12.326,2.977c-1.79,0-3.773-0.139-5.954-0.419
		c-2.068,4.287-3.103,8.266-3.103,11.94c0,4.954,2.208,7.431,6.625,7.431c3.408,0,6.735-1.766,9.978-5.298
		c0.727-0.772,1.202-1.159,1.426-1.159c0.279,0,0.419,0.139,0.419,0.415c0,1.274-1.313,2.851-3.94,4.732
		c-3.019,2.159-6.15,3.237-9.392,3.237c-3.635,0-6.624-1.059-8.973-3.178c-2.348-2.12-3.521-4.797-3.521-8.033
		c0-6.246,3.409-12.297,10.23-18.154c5.98-5.131,11.319-7.698,16.016-7.698C286.273,40.065,288.734,41.967,288.734,45.768z
		 M282.78,44.342c0-1.732-0.867-2.599-2.599-2.599c-1.79,0-3.551,0.671-5.283,2.012c-3.131,2.461-6.01,6.122-8.637,10.985
		c0.671,0.056,1.426,0.084,2.264,0.084c3.131,0,6.177-0.95,9.141-2.851C281.075,49.849,282.78,47.306,282.78,44.342z"/>
	<path d="M319.759,43.923c0,1.119-0.364,2.083-1.09,2.893c-0.728,0.811-1.565,1.216-2.516,1.216c-0.895,0-1.342-0.307-1.342-0.922
		l0.168-0.839c0.111-0.335,0.168-0.642,0.168-0.922c0-1.341-0.671-2.012-2.013-2.012c-1.622,0-3.886,1.565-6.792,4.696
		c-2.907,3.131-5.647,7.519-8.218,13.165l-6.037,13.248c-0.56,1.287-1.035,1.93-1.426,1.93c-1.119-0.168-1.984-0.252-2.6-0.252
		c-0.951,0-1.705,0.084-2.264,0.252h-0.503c-0.503,0-0.755-0.113-0.755-0.337c0-0.056,0.084-0.168,0.252-0.335l0.419-0.842
		l14.171-32.278c0-0.448-0.364-0.672-1.09-0.672c0.055,0-0.057,0-0.336,0c-0.224,0.057-0.587,0.084-1.09,0.084h-0.838
		c-0.839,0-1.258-0.195-1.258-0.587c0-0.335,1.452-0.558,4.36-0.671c2.905-0.111,4.863-0.363,5.869-0.754
		c0.447-0.112,0.698-0.168,0.755-0.168c0.335,0,0.503,0.168,0.503,0.503c0,0.281-0.364,1.314-1.09,3.103l-3.103,7.547
		c5.143-7.155,9.67-10.733,13.584-10.733C318.389,40.233,319.759,41.463,319.759,43.923z"/>
	<path d="M156.085,98.393c0,5.297-2.461,9.743-7.379,13.339c-4.919,3.597-10.984,5.394-18.196,5.394
		c-1.901,0-4.528-0.223-7.882-0.671l-8.05,20.88c-0.28,0.727-0.699,1.873-1.258,3.438l-0.503,1.258
		c-0.056,0.057-0.113,0.141-0.167,0.252c0,0.392,0.363,0.587,1.09,0.587l6.457-0.252c0.558,0.126,0.839,0.375,0.839,0.75
		c0,0.618-0.448,0.898-1.342,0.844l-2.18-0.42h-16.435c-1.396,0-2.403,0.071-3.019,0.21c-0.615,0.139-0.81,0.21-0.587,0.21
		c-0.839,0-1.258-0.252-1.258-0.755c0-0.559,0.364-0.839,1.09-0.839c0.335,0,0.644,0,0.922,0h4.36c0.95,0,1.677-0.46,2.18-1.381
		s1.258-2.693,2.264-5.316l17.273-44.291c0.223-0.613,0.782-2.065,1.677-4.354c-0.335-0.056-0.7-0.084-1.09-0.084
		c-0.727,0-1.622,0.07-2.683,0.209c-1.062,0.141-1.733,0.21-2.013,0.21c-1.341,0-2.012-0.279-2.012-0.839
		c0-0.558,0.558-0.838,1.677-0.838h0.671c0.447,0,0.922,0,1.426,0h1.006c0.95,0,2.487,0,4.612,0c7.882,0,13.639,0.335,17.274,1.003
		C152.339,88.33,156.085,92.149,156.085,98.393z M147.7,97.224c0-3.398-0.881-5.852-2.642-7.356s-4.626-2.258-8.595-2.258
		c-0.56,0-1.342,0.084-2.348,0.25l-10.733,26.921c2.851,0.558,5.002,0.836,6.457,0.836c4.696,0,8.847-1.867,12.452-5.602
		C145.896,106.281,147.7,102.018,147.7,97.224z"/>
	<path d="M183.084,113.688c0,3.019-1.622,5.521-4.864,7.505c-3.243,1.984-7.351,2.977-12.326,2.977c-1.79,0-3.773-0.139-5.954-0.419
		c-2.068,4.287-3.103,8.266-3.103,11.939c0,4.954,2.208,7.43,6.625,7.43c3.409,0,6.736-1.765,9.979-5.297
		c0.726-0.772,1.201-1.159,1.425-1.159c0.279,0,0.419,0.139,0.419,0.415c0,1.273-1.314,2.852-3.941,4.732
		c-3.019,2.159-6.15,3.237-9.392,3.237c-3.634,0-6.625-1.059-8.972-3.178c-2.348-2.12-3.522-4.797-3.522-8.033
		c0-6.246,3.409-12.298,10.23-18.154c5.981-5.131,11.32-7.697,16.016-7.697C180.624,107.985,183.084,109.887,183.084,113.688z
		 M177.13,112.262c0-1.731-0.867-2.6-2.6-2.6c-1.79,0-3.55,0.671-5.283,2.013c-3.131,2.461-6.01,6.121-8.637,10.984
		c0.671,0.057,1.426,0.084,2.264,0.084c3.13,0,6.176-0.949,9.14-2.851C175.424,117.769,177.13,115.226,177.13,112.262z"/>
	<path d="M214.108,111.843c0,1.119-0.364,2.083-1.09,2.893c-0.728,0.812-1.566,1.216-2.516,1.216c-0.896,0-1.342-0.307-1.342-0.922
		l0.168-0.839c0.111-0.335,0.167-0.642,0.167-0.922c0-1.342-0.67-2.013-2.012-2.013c-1.622,0-3.887,1.565-6.792,4.695
		c-2.907,3.132-5.647,7.52-8.218,13.165l-6.037,13.249c-0.56,1.286-1.035,1.929-1.426,1.929c-1.119-0.168-1.985-0.252-2.599-0.252
		c-0.951,0-1.706,0.084-2.264,0.252h-0.503c-0.503,0-0.755-0.113-0.755-0.337c0-0.056,0.084-0.168,0.251-0.336l0.419-0.841
		l14.171-32.278c0-0.447-0.364-0.672-1.09-0.672c0.055,0-0.057,0-0.335,0c-0.224,0.057-0.587,0.084-1.09,0.084h-0.838
		c-0.838,0-1.258-0.195-1.258-0.587c0-0.335,1.453-0.559,4.36-0.671c2.906-0.111,4.863-0.363,5.87-0.755
		c0.446-0.111,0.698-0.167,0.755-0.167c0.335,0,0.503,0.167,0.503,0.503c0,0.28-0.364,1.313-1.09,3.103l-3.103,7.547
		c5.142-7.155,9.67-10.733,13.584-10.733C212.738,108.153,214.108,109.384,214.108,111.843z"/>
	<path d="M251.086,90.125c0,2.18-1.035,3.271-3.102,3.271c-0.727,0-1.355-0.237-1.887-0.713c-0.531-0.475-0.797-1.02-0.797-1.636
		c0-0.446,0.363-1.09,1.09-1.928c0.223-0.447,0.336-0.811,0.336-1.091c0-1.396-1.174-2.096-3.521-2.096
		c-2.461,0-4.445,1.044-5.955,3.133c-1.508,2.088-3.41,6.334-5.701,12.738l-2.264,6.35h8.637c0.279,0,0.643,0,1.09,0
		c0.615,0,0.922,0.293,0.922,0.88c0,0.588-0.391,0.881-1.174,0.881h-9.811l-7.295,19.957c-5.255,14.366-10.37,24.401-15.345,30.103
		c-2.013,2.292-3.871,3.899-5.576,4.822c-1.705,0.922-3.731,1.383-6.08,1.383c-4.75,0-7.127-1.593-7.127-4.779
		c0-2.293,1.23-3.438,3.689-3.438c1.677,0,2.516,0.698,2.516,2.096c0,0.447-0.279,1.034-0.839,1.761
		c-0.335,0.391-0.502,0.755-0.502,1.091c0,1.229,0.838,1.845,2.515,1.845c2.907,0,5.396-1.402,7.463-4.206
		c1.622-2.243,3.746-7.094,6.373-14.551l12.661-36.083h-1.929h-4.192c-0.448,0.224-0.951,0.335-1.509,0.335
		c-0.671,0-1.007-0.215-1.007-0.645c0-0.806,0.698-1.289,2.097-1.451c0.111,0,1.117,0,3.019,0h3.019h1.174
		c3.354-7.965,6.093-13.396,8.218-16.292c3.521-4.735,7.967-7.103,13.332-7.103c2.236,0,4.039,0.489,5.408,1.467
		C250.402,87.204,251.086,88.504,251.086,90.125z"/>
	<path d="M265.761,113.688c0,3.019-1.622,5.521-4.863,7.505c-3.243,1.984-7.352,2.977-12.326,2.977c-1.79,0-3.773-0.139-5.954-0.419
		c-2.068,4.287-3.103,8.266-3.103,11.939c0,4.954,2.208,7.43,6.625,7.43c3.408,0,6.735-1.765,9.978-5.297
		c0.727-0.772,1.202-1.159,1.426-1.159c0.279,0,0.419,0.139,0.419,0.415c0,1.273-1.313,2.852-3.94,4.732
		c-3.019,2.159-6.15,3.237-9.392,3.237c-3.635,0-6.624-1.059-8.973-3.178c-2.348-2.12-3.521-4.797-3.521-8.033
		c0-6.246,3.409-12.298,10.23-18.154c5.98-5.131,11.319-7.697,16.016-7.697C263.3,107.985,265.761,109.887,265.761,113.688z
		 M259.807,112.262c0-1.731-0.867-2.6-2.599-2.6c-1.79,0-3.551,0.671-5.283,2.013c-3.131,2.461-6.01,6.121-8.637,10.984
		c0.671,0.057,1.426,0.084,2.264,0.084c3.131,0,6.177-0.949,9.141-2.851C258.102,117.769,259.807,115.226,259.807,112.262z"/>
	<path d="M296.45,114.19c0,2.74-1.146,4.109-3.438,4.109c-0.783,0-1.481-0.294-2.096-0.881c-0.616-0.587-0.923-1.243-0.923-1.971
		c0-1.342,0.755-2.013,2.265-2.013l0.67,0.084c0.391,0.168,0.727,0.28,1.007,0.336c0.446,0,0.671-0.307,0.671-0.923
		c0-0.894-0.545-1.69-1.636-2.39c-1.09-0.698-2.306-1.048-3.647-1.048c-4.138,0-8.134,3.066-11.99,9.201
		c-3.971,6.302-5.954,12.185-5.954,17.648c0,4.686,2.124,7.026,6.373,7.026c3.187,0,6.4-1.903,9.643-5.714
		c0.559-0.663,1.007-0.994,1.342-0.994c0.279,0,0.42,0.166,0.42,0.498c0,0.665-0.728,1.716-2.181,3.154
		c-3.187,3.155-6.765,4.732-10.733,4.732c-3.634,0-6.555-1.045-8.763-3.137c-2.209-2.091-3.312-4.865-3.312-8.324
		c0-5.856,3.13-11.853,9.392-17.988c5.143-5.075,10.452-7.613,15.932-7.613c2.067,0,3.744,0.574,5.031,1.719
		C295.807,110.851,296.45,112.346,296.45,114.19z"/>
	<path d="M321.017,108.908c0,0.783-1.174,1.202-3.521,1.258h-3.187H312.8l-11.32,25.473c-1.23,2.746-1.845,4.484-1.845,5.213
		c0,1.177,0.866,1.765,2.6,1.765c2.516,0,4.75-1.342,6.708-4.024c0.446-0.559,0.782-0.839,1.006-0.839
		c0.447,0,0.671,0.196,0.671,0.587c0,0.728-0.922,1.901-2.767,3.522c-2.126,1.845-4.669,2.767-7.631,2.767
		c-2.013,0-3.647-0.502-4.905-1.505c-1.258-1.004-1.887-2.287-1.887-3.849c0-1.004,0.642-2.872,1.929-5.604l10.984-23.505h-3.438
		c-0.952,0-1.426-0.187-1.426-0.559c0-0.689,0.391-1.035,1.174-1.035h0.755c0.278-0.055,0.726-0.084,1.342-0.084
		c0.781,0,1.536-0.027,2.264-0.084l1.426-3.605c0.503-1.229,0.894-1.845,1.174-1.845c0.278,0,0.713,0.042,1.3,0.126
		s1.048,0.126,1.383,0.126c0.615,0,1.51-0.256,2.684-0.77c0.223-0.102,0.419-0.153,0.587-0.153c0.279,0,0.419,0.111,0.419,0.332
		l-0.922,1.984l-1.845,3.973h2.013h3.186c0.279,0,0.615-0.055,1.007-0.168c0.391-0.111,0.614-0.167,0.671-0.167
		C320.709,108.237,321.017,108.461,321.017,108.908z"/>
	<path d="M132.606,159.377c0,0.172-0.342,0.267-1.026,0.285c-0.765,0.021-1.273,0.271-1.524,0.755
		c-0.252,0.482-0.639,1.509-1.162,3.079c-0.907,2.757-1.713,5.101-2.417,7.032c-1.207,3.301-2.303,6.491-3.288,9.57
		c-0.083,0.262-0.186,0.393-0.309,0.393c-0.104,0-0.202-0.101-0.294-0.3c-0.093-0.2-0.366-0.9-0.82-2.102
		c-0.56-1.572-1.171-3.154-1.832-4.746c-0.521-1.25-1.031-2.54-1.531-3.87c-1.402,3.401-2.793,6.953-4.175,10.657
		c-0.081,0.24-0.183,0.36-0.304,0.36c-0.102,0-0.223-0.171-0.365-0.514c-0.624-1.488-2.938-7.656-6.943-18.504
		c-0.282-0.765-0.494-1.242-0.634-1.435c-0.141-0.19-0.493-0.296-1.056-0.316c-0.966-0.04-1.449-0.182-1.449-0.423
		c0-0.181,0.162-0.271,0.483-0.271c0.141,0,0.262,0.011,0.362,0.03c1.066,0.061,2.214,0.091,3.441,0.091
		c0.242,0,0.659-0.021,1.253-0.061c0.593-0.04,1.363-0.061,2.309-0.061h0.332c0.342,0,0.513,0.093,0.513,0.277
		c0,0.226-0.31,0.349-0.929,0.37c-1.239,0.041-1.859,0.205-1.859,0.492c0,0.563,1.849,5.807,5.548,15.729
		c1.345-3.399,2.349-5.904,3.011-7.514l-2.98-7.73c-0.162-0.422-0.35-0.692-0.562-0.812c-0.212-0.12-0.602-0.19-1.167-0.211
		c-0.566-0.02-0.85-0.11-0.85-0.271c0-0.221,0.211-0.331,0.634-0.331c0.322,0,0.714,0.021,1.177,0.061s1.268,0.061,2.415,0.061
		h2.294h3.32c0.744,0,1.64-0.032,2.687-0.097c0.121-0.017,0.261-0.024,0.423-0.024c0.483,0,0.725,0.106,0.725,0.317
		c0,0.191-0.171,0.286-0.513,0.286h-0.513c-0.906,0-1.59,0.121-2.053,0.362c-0.202,0.101-0.574,0.824-1.117,2.171
		c-0.244,0.563-0.65,1.519-1.219,2.865c-0.118,0.303-0.296,0.758-0.532,1.363c0.14,0.403,0.581,1.521,1.321,3.354
		c0.957,2.33,1.743,4.328,2.361,5.994c1.132-3.258,2.466-7.11,4.003-11.556c0.813-2.366,1.22-3.681,1.22-3.943
		c0-0.385-0.352-0.577-1.057-0.577c-0.986,0-1.479-0.111-1.479-0.334c0-0.201,0.201-0.303,0.604-0.303
		c0.342,0,0.613,0.014,0.815,0.04c0.442,0.054,0.845,0.081,1.208,0.081h2.415c0.604,0,0.936,0.023,0.997,0.07
		C132.576,159.268,132.606,159.32,132.606,159.377z M119.837,159.723h-0.362h-0.513c-0.724,0.04-1.086,0.172-1.086,0.395
		c0,0.04,0.592,1.79,1.777,5.249c0.46-1.007,1-2.337,1.62-3.989c0.083-0.221,0.208-0.511,0.375-0.872l0.062-0.241
		C121.709,159.903,121.085,159.723,119.837,159.723z"/>
	<path d="M140.424,179.842c0,0.172-0.121,0.257-0.362,0.257h-0.302c-0.121-0.061-1.49-0.091-4.105-0.091
		c-0.503,0-1.006,0.021-1.509,0.061c-0.262,0.021-0.664,0.03-1.208,0.03c-0.262,0-0.393-0.091-0.393-0.271
		c0-0.161,0.261-0.252,0.785-0.271c0.805-0.021,1.277-0.116,1.418-0.288c0.141-0.171,0.211-0.751,0.211-1.741v-15.926
		c0-0.989-0.051-1.545-0.153-1.666c-0.123-0.202-0.683-0.322-1.682-0.363c-0.387-0.018-0.581-0.088-0.581-0.213
		c0-0.159,0.122-0.239,0.365-0.239h4.107c0.304,0,0.892,0.01,1.764,0.03l1.156-0.03c0.325,0,0.487,0.086,0.487,0.257
		c0,0.153-0.449,0.248-1.345,0.286c-0.509,0.021-0.82,0.111-0.933,0.271c-0.112,0.161-0.168,0.584-0.168,1.269v16.119
		c0,1.147,0.05,1.771,0.151,1.872c0.221,0.222,0.875,0.352,1.962,0.393C140.313,179.586,140.424,179.671,140.424,179.842z"/>
	<path d="M160.619,159.421c0,0.201-0.252,0.292-0.755,0.271H159.2h-0.543c-0.322,0-0.513,0.056-0.573,0.166s-0.091,0.447-0.091,1.01
		v17.362c0,1.064-0.01,1.688-0.03,1.868c-0.021,0.181-0.081,0.271-0.18,0.271c-0.121,0-0.261-0.111-0.421-0.333l-3.857-5.65
		c-2.237-3.295-4.956-7.408-8.159-12.341v16.903c0.02,0.263,0.172,0.429,0.458,0.5c0.285,0.07,0.966,0.116,2.043,0.137
		c0.264,0,0.397,0.08,0.397,0.241c0,0.201-0.262,0.302-0.785,0.302c-0.181,0-0.754-0.03-1.721-0.091
		c-0.322-0.02-0.634-0.03-0.936-0.03c0.02,0-0.156,0.021-0.528,0.061c-0.373,0.04-0.941,0.061-1.706,0.061h-0.302
		c-0.463,0-0.694-0.091-0.694-0.272c0-0.181,0.201-0.271,0.604-0.271c1.188-0.021,1.876-0.096,2.068-0.227
		c0.191-0.132,0.287-0.56,0.287-1.285v-14.904c0-1.673-0.342-2.721-1.026-3.145c-0.322-0.201-0.896-0.302-1.721-0.302
		c-0.524,0-0.785-0.105-0.785-0.318c0-0.19,0.151-0.285,0.453-0.285c0.402,0,0.916,0.02,1.54,0.06
		c0.624,0.041,0.956,0.061,0.996,0.061c0.06,0,0.342-0.01,0.845-0.03c0.664,0,1.308-0.03,1.932-0.09l10.415,15.545v-13.433
		c0-0.623-0.01-1-0.03-1.132c-0.02-0.131-0.101-0.23-0.241-0.302c-0.141-0.07-0.624-0.105-1.449-0.105
		c-0.724,0-1.086-0.091-1.086-0.271c0-0.201,0.241-0.302,0.724-0.302h1.057c0.261,0,0.543,0,0.845,0c0.322,0,0.513,0,0.574,0
		c0.02,0,0.201,0,0.543,0c0.321,0,0.624,0,0.905,0h0.936C160.397,159.119,160.619,159.22,160.619,159.421z"/>
	<path d="M178.249,164.522c0,0.262-0.121,0.393-0.362,0.393c-0.242,0-0.413-0.262-0.513-0.785c-0.041-0.362-0.081-0.725-0.121-1.087
		c-0.141-0.725-0.373-1.338-0.694-1.841c-0.423-0.665-1.117-1.087-2.083-1.269c-0.624-0.12-1.127-0.171-1.509-0.15
		c-0.946,0.026-1.52,0.047-1.721,0.061v18.23c0,0.726,0.191,1.179,0.574,1.359c0.201,0.102,0.764,0.162,1.69,0.182
		c0.241,0.02,0.362,0.105,0.362,0.257c0,0.171-0.161,0.257-0.483,0.257c-0.161,0-0.302-0.011-0.422-0.03
		c-1.208-0.04-2.063-0.061-2.566-0.061c-0.664,0-1.288,0.016-1.872,0.046c-0.584,0.029-1.328,0.045-2.234,0.045
		c-0.463,0-0.694-0.081-0.694-0.242c0-0.181,0.433-0.282,1.298-0.302c0.624,0,1.026-0.131,1.208-0.394
		c0.101-0.161,0.151-0.574,0.151-1.239v-18.108c-1.992,0.02-3.23,0.12-3.713,0.302c-1.268,0.463-2.013,1.7-2.234,3.713
		c-0.06,0.604-0.201,0.905-0.422,0.905c-0.242,0-0.362-0.211-0.362-0.634c0-0.222,0.01-0.442,0.03-0.664l0.06-0.694
		c0.061-0.926,0.151-2.144,0.272-3.652h1.358l6.158,0.09c0.724,0.021,1.851,0.021,3.381,0l5.011-0.09
		c0.04,1.127,0.171,2.797,0.393,5.011c0,0.061,0.01,0.136,0.03,0.227C178.238,164.446,178.249,164.502,178.249,164.522z"/>
	<path d="M195.666,175.238c0,0.081-0.021,0.574-0.061,1.479s-0.061,1.771-0.061,2.596v0.996c-1.973-0.12-5.876-0.181-11.712-0.181
		c-0.705,0-1.399,0-2.083,0c-0.685,0-1.147,0-1.389,0h-0.302c-0.382,0-0.574-0.081-0.574-0.243c0-0.107,0.061-0.171,0.181-0.189
		c0.061,0,0.442-0.026,1.147-0.081c0.523-0.04,0.84-0.15,0.951-0.333c0.11-0.182,0.166-0.655,0.166-1.423v-17.017
		c0-0.585-0.086-0.933-0.256-1.044c-0.171-0.111-0.72-0.167-1.646-0.167c-0.322,0-0.483-0.085-0.483-0.257
		c0-0.17,0.221-0.256,0.664-0.256h5.162c0.181,0,1.318,0,3.411,0c2.093,0,3.501,0,4.226,0c0.604,0,1.156-0.04,1.66-0.121
		c0.04,0.865,0.131,2.063,0.271,3.592l0.121,1.299c0.02,0.101,0.03,0.231,0.03,0.392c0,0.202-0.091,0.303-0.272,0.303
		c-0.222,0-0.382-0.253-0.482-0.76c-0.383-1.822-1.007-2.978-1.872-3.464c-0.644-0.363-2.334-0.546-5.071-0.546h-2.476v8.875h0.725
		c2.254,0,3.627-0.171,4.121-0.514c0.493-0.342,0.83-1.338,1.011-2.988c0.04-0.423,0.151-0.634,0.332-0.634
		c0.221,0,0.332,0.181,0.332,0.543s-0.02,0.896-0.06,1.6c-0.041,0.705-0.061,1.238-0.061,1.601c0,2.153,0.032,3.633,0.097,4.438
		c0.016,0.201,0.024,0.372,0.024,0.513c0,0.262-0.11,0.393-0.331,0.393c-0.141,0-0.235-0.085-0.285-0.257
		c-0.05-0.171-0.136-0.729-0.255-1.675c-0.16-1.188-0.651-1.922-1.473-2.204c-0.361-0.121-1.302-0.181-2.824-0.181h-1.353v10.112
		c4.427,0,7.023-0.089,7.789-0.269c1.328-0.298,2.082-1.57,2.264-3.816c0.04-0.496,0.171-0.745,0.393-0.745
		C195.565,174.604,195.666,174.816,195.666,175.238z"/>
	<path d="M214.2,179.193c0,0.845-0.705,1.268-2.113,1.268c-1.57,0-2.798-0.653-3.683-1.962c-0.383-0.563-0.63-1.106-0.74-1.631
		c-0.11-0.522-0.276-1.851-0.498-3.984c-0.12-1.287-0.533-2.198-1.237-2.731c-0.705-0.533-1.852-0.82-3.441-0.86v9.509
		c0,0.402,0.321,0.654,0.966,0.755c0.182,0.02,0.644,0.04,1.389,0.06c0.262,0,0.393,0.081,0.393,0.242
		c0,0.181-0.171,0.271-0.514,0.271h-0.362c-0.181,0-1.056,0-2.626,0c-0.302,0-0.814,0-1.539,0c-0.705,0-1.168,0-1.389,0h-1.178
		c-0.442,0-0.664-0.091-0.664-0.271c0-0.141,0.292-0.222,0.876-0.242c0.945-0.02,1.459-0.141,1.539-0.362
		c0.08-0.1,0.121-0.492,0.121-1.177v-16.663c0-0.805-0.086-1.288-0.257-1.449s-0.689-0.251-1.555-0.271
		c-0.503,0-0.755-0.091-0.755-0.271c0-0.201,0.161-0.302,0.483-0.302c0.061,0,0.15,0.01,0.271,0.03l4.015,0.09
		c0.402,0,0.966-0.013,1.69-0.04c0.805-0.054,1.368-0.08,1.69-0.08c1.872,0,3.355,0.418,4.453,1.252
		c1.097,0.836,1.645,1.968,1.645,3.396c0,1.409-0.563,2.571-1.69,3.486c-1.127,0.916-2.656,1.454-4.588,1.615
		c-0.182,0.021-0.282,0.051-0.302,0.091c0,0.081,0.101,0.121,0.302,0.121c2.113,0.363,3.566,1.104,4.362,2.225
		c0.794,1.12,1.322,3.144,1.584,6.069c0.161,1.655,0.725,2.482,1.69,2.482c0.303,0,0.453-0.061,0.453-0.182
		c0-0.02-0.011-0.04-0.03-0.061c-0.101-0.221-0.15-0.402-0.15-0.543c0-0.423,0.221-0.634,0.664-0.634
		C213.958,178.438,214.2,178.69,214.2,179.193z M207.951,164.069c0-2.878-1.248-4.316-3.743-4.316c-0.664,0-1.117,0.091-1.358,0.271
		s-0.362,0.503-0.362,0.966v7.668c1.932,0.02,3.325-0.332,4.181-1.057S207.951,165.699,207.951,164.069z"/>
	<path d="M236.869,164.522c0,0.262-0.119,0.393-0.361,0.393s-0.412-0.262-0.514-0.785c-0.041-0.362-0.08-0.725-0.121-1.087
		c-0.141-0.725-0.371-1.338-0.693-1.841c-0.422-0.665-1.117-1.087-2.084-1.269c-0.623-0.12-1.127-0.171-1.508-0.15
		c-0.947,0.026-1.521,0.047-1.722,0.061v18.23c0,0.726,0.191,1.179,0.574,1.359c0.2,0.102,0.765,0.162,1.69,0.182
		c0.242,0.02,0.361,0.105,0.361,0.257c0,0.171-0.16,0.257-0.482,0.257c-0.162,0-0.301-0.011-0.422-0.03
		c-1.208-0.04-2.063-0.061-2.566-0.061c-0.664,0-1.288,0.016-1.872,0.046c-0.584,0.029-1.328,0.045-2.233,0.045
		c-0.464,0-0.694-0.081-0.694-0.242c0-0.181,0.433-0.282,1.298-0.302c0.623,0,1.026-0.131,1.207-0.394
		c0.101-0.161,0.151-0.574,0.151-1.239v-18.108c-1.992,0.02-3.23,0.12-3.713,0.302c-1.268,0.463-2.013,1.7-2.234,3.713
		c-0.06,0.604-0.201,0.905-0.422,0.905c-0.242,0-0.362-0.211-0.362-0.634c0-0.222,0.01-0.442,0.03-0.664l0.06-0.694
		c0.061-0.926,0.151-2.144,0.272-3.652h1.358l6.158,0.09c0.724,0.021,1.851,0.021,3.381,0l5.012-0.09
		c0.039,1.127,0.17,2.797,0.393,5.011c0,0.061,0.01,0.136,0.029,0.227C236.859,164.446,236.869,164.502,236.869,164.522z"/>
	<path d="M255.254,179.193c0,0.845-0.704,1.268-2.112,1.268c-1.57,0-2.798-0.653-3.684-1.962c-0.382-0.563-0.629-1.106-0.739-1.631
		c-0.11-0.522-0.276-1.851-0.498-3.984c-0.121-1.287-0.533-2.198-1.237-2.731c-0.705-0.533-1.853-0.82-3.441-0.86v9.509
		c0,0.402,0.321,0.654,0.966,0.755c0.181,0.02,0.644,0.04,1.389,0.06c0.261,0,0.393,0.081,0.393,0.242
		c0,0.181-0.172,0.271-0.514,0.271h-0.362c-0.181,0-1.057,0-2.626,0c-0.302,0-0.815,0-1.54,0c-0.704,0-1.167,0-1.388,0h-1.178
		c-0.443,0-0.664-0.091-0.664-0.271c0-0.141,0.291-0.222,0.875-0.242c0.946-0.02,1.459-0.141,1.54-0.362
		c0.08-0.1,0.121-0.492,0.121-1.177v-16.663c0-0.805-0.086-1.288-0.257-1.449c-0.172-0.161-0.689-0.251-1.555-0.271
		c-0.504,0-0.755-0.091-0.755-0.271c0-0.201,0.161-0.302,0.483-0.302c0.06,0,0.15,0.01,0.271,0.03l4.015,0.09
		c0.402,0,0.966-0.013,1.69-0.04c0.805-0.054,1.368-0.08,1.69-0.08c1.872,0,3.355,0.418,4.453,1.252
		c1.096,0.836,1.645,1.968,1.645,3.396c0,1.409-0.563,2.571-1.69,3.486c-1.127,0.916-2.656,1.454-4.588,1.615
		c-0.182,0.021-0.282,0.051-0.302,0.091c0,0.081,0.1,0.121,0.302,0.121c2.112,0.363,3.566,1.104,4.361,2.225
		s1.323,3.144,1.585,6.069c0.161,1.655,0.725,2.482,1.69,2.482c0.302,0,0.453-0.061,0.453-0.182c0-0.02-0.011-0.04-0.03-0.061
		c-0.101-0.221-0.151-0.402-0.151-0.543c0-0.423,0.222-0.634,0.664-0.634C255.013,178.438,255.254,178.69,255.254,179.193z
		 M249.006,164.069c0-2.878-1.248-4.316-3.743-4.316c-0.664,0-1.117,0.091-1.358,0.271c-0.242,0.181-0.362,0.503-0.362,0.966v7.668
		c1.932,0.02,3.325-0.332,4.181-1.057S249.006,165.699,249.006,164.069z"/>
	<path d="M272.037,175.238c0,0.081-0.021,0.574-0.061,1.479s-0.06,1.771-0.06,2.596v0.996c-1.973-0.12-5.877-0.181-11.713-0.181
		c-0.705,0-1.399,0-2.083,0c-0.685,0-1.147,0-1.389,0h-0.302c-0.383,0-0.573-0.081-0.573-0.243c0-0.107,0.061-0.171,0.181-0.189
		c0.061,0,0.442-0.026,1.147-0.081c0.522-0.04,0.84-0.15,0.95-0.333c0.111-0.182,0.167-0.655,0.167-1.423v-17.017
		c0-0.585-0.086-0.933-0.257-1.044c-0.172-0.111-0.72-0.167-1.646-0.167c-0.322,0-0.482-0.085-0.482-0.257
		c0-0.17,0.221-0.256,0.664-0.256h5.161c0.182,0,1.318,0,3.411,0s3.502,0,4.227,0c0.604,0,1.157-0.04,1.66-0.121
		c0.04,0.865,0.131,2.063,0.271,3.592l0.121,1.299c0.02,0.101,0.03,0.231,0.03,0.392c0,0.202-0.091,0.303-0.271,0.303
		c-0.222,0-0.383-0.253-0.483-0.76c-0.383-1.822-1.007-2.978-1.871-3.464c-0.645-0.363-2.335-0.546-5.072-0.546h-2.475v8.875h0.725
		c2.253,0,3.627-0.171,4.12-0.514c0.493-0.342,0.83-1.338,1.012-2.988c0.04-0.423,0.15-0.634,0.332-0.634
		c0.221,0,0.332,0.181,0.332,0.543s-0.021,0.896-0.061,1.6c-0.041,0.705-0.061,1.238-0.061,1.601c0,2.153,0.032,3.633,0.097,4.438
		c0.016,0.201,0.024,0.372,0.024,0.513c0,0.262-0.11,0.393-0.331,0.393c-0.141,0-0.235-0.085-0.285-0.257
		c-0.05-0.171-0.136-0.729-0.256-1.675c-0.16-1.188-0.651-1.922-1.472-2.204c-0.361-0.121-1.303-0.181-2.825-0.181h-1.352v10.112
		c4.427,0,7.022-0.089,7.788-0.269c1.328-0.298,2.083-1.57,2.264-3.816c0.04-0.496,0.171-0.745,0.393-0.745
		C271.937,174.604,272.037,174.816,272.037,175.238z"/>
	<path d="M292.051,159.421c0,0.201-0.252,0.292-0.755,0.271h-0.664h-0.543c-0.322,0-0.514,0.056-0.574,0.166
		c-0.06,0.11-0.09,0.447-0.09,1.01v17.362c0,1.064-0.011,1.688-0.03,1.868c-0.021,0.181-0.08,0.271-0.181,0.271
		c-0.12,0-0.261-0.111-0.421-0.333l-3.857-5.65c-2.236-3.295-4.956-7.408-8.159-12.341v16.903c0.021,0.263,0.173,0.429,0.457,0.5
		c0.285,0.07,0.967,0.116,2.044,0.137c0.265,0,0.396,0.08,0.396,0.241c0,0.201-0.262,0.302-0.784,0.302
		c-0.182,0-0.755-0.03-1.721-0.091c-0.322-0.02-0.634-0.03-0.937-0.03c0.021,0-0.155,0.021-0.528,0.061
		c-0.372,0.04-0.94,0.061-1.705,0.061h-0.302c-0.463,0-0.694-0.091-0.694-0.272c0-0.181,0.201-0.271,0.604-0.271
		c1.188-0.021,1.876-0.096,2.068-0.227c0.19-0.132,0.286-0.56,0.286-1.285v-14.904c0-1.673-0.342-2.721-1.026-3.145
		c-0.322-0.201-0.896-0.302-1.721-0.302c-0.523,0-0.784-0.105-0.784-0.318c0-0.19,0.15-0.285,0.452-0.285
		c0.402,0,0.916,0.02,1.54,0.06c0.623,0.041,0.955,0.061,0.996,0.061c0.061,0,0.342-0.01,0.845-0.03c0.664,0,1.309-0.03,1.933-0.09
		l10.414,15.545v-13.433c0-0.623-0.011-1-0.03-1.132c-0.021-0.131-0.101-0.23-0.241-0.302c-0.142-0.07-0.624-0.105-1.449-0.105
		c-0.725,0-1.087-0.091-1.087-0.271c0-0.201,0.242-0.302,0.725-0.302h1.057c0.262,0,0.544,0,0.846,0c0.321,0,0.513,0,0.573,0
		c0.02,0,0.201,0,0.543,0c0.322,0,0.624,0,0.906,0h0.936C291.829,159.119,292.051,159.22,292.051,159.421z"/>
	<path d="M312.819,169.624c0,3.553-1.237,6.317-3.713,8.295c-1.812,1.453-4.236,2.18-7.275,2.18c-0.08,0-0.438,0-1.071,0
		s-1.555,0-2.762,0h-1.51h-2.385c-0.141,0-0.292,0-0.453,0c-0.382,0-0.573-0.101-0.573-0.302c0-0.182,0.322-0.271,0.966-0.271
		c0.825,0,1.339-0.151,1.54-0.453c0.08-0.141,0.12-0.523,0.12-1.147v-16.271c0-0.985-0.075-1.56-0.226-1.721
		c-0.151-0.16-0.67-0.241-1.555-0.241c-0.464,0-0.694-0.11-0.694-0.332c0-0.161,0.171-0.241,0.513-0.241c-0.021,0,0.201,0,0.664,0
		s0.916,0,1.358,0h3.23c3.622,0,6.188,0.252,7.697,0.757c1.831,0.605,3.311,1.801,4.438,3.587
		C312.256,165.25,312.819,167.303,312.819,169.624z M309.438,169.503c0-3.352-0.654-5.809-1.962-7.373
		c-1.309-1.564-3.351-2.347-6.128-2.347c-1.349,0-2.164,0.142-2.445,0.424c-0.121,0.142-0.181,0.626-0.181,1.453v16.109
		c0,0.564,0.015,0.908,0.045,1.029s0.115,0.222,0.257,0.303c0.482,0.242,1.499,0.363,3.049,0.363c2.173,0,3.924-0.767,5.252-2.302
		C308.733,175.549,309.438,172.995,309.438,169.503z"/>
</g>
<g>
</g>
<g>
</g>
<g>
</g>
<g>
</g>
<g>
</g>
<g>
</g>
</svg>
