<?xml version="1.0" encoding="utf-8"?>
<!-- Generator: Adobe Illustrator 16.0.0, SVG Export Plug-In . SVG Version: 6.00 Build 0)  -->
<!DOCTYPE svg PUBLIC "-//W3C//DTD SVG 1.1 Tiny//EN" "http://www.w3.org/Graphics/SVG/1.1/DTD/svg11-tiny.dtd">
<svg version="1.1" baseProfile="tiny" id="Layer_1" xmlns="http://www.w3.org/2000/svg" xmlns:xlink="http://www.w3.org/1999/xlink"
	 x="0px" y="0px" width="326.797px" height="195.27px" viewBox="0 0 326.797 195.27" xml:space="preserve">
   
<g>
	<path d="M269.226,44.953c0,0.342-0.158,0.513-0.474,0.513s-0.539-0.342-0.671-1.026c-0.053-0.474-0.105-0.947-0.157-1.42
		c-0.185-0.947-0.487-1.749-0.908-2.407c-0.552-0.868-1.46-1.42-2.722-1.657c-0.816-0.158-1.474-0.223-1.974-0.197
		c-1.236,0.035-1.986,0.062-2.249,0.079v23.828c0,0.949,0.25,1.541,0.75,1.778c0.263,0.132,0.999,0.211,2.21,0.237
		c0.315,0.025,0.474,0.137,0.474,0.335c0,0.224-0.211,0.335-0.632,0.335c-0.211,0-0.395-0.014-0.553-0.04
		c-1.578-0.052-2.696-0.079-3.354-0.079c-0.868,0-1.684,0.02-2.446,0.06c-0.763,0.039-1.735,0.059-2.92,0.059
		c-0.604,0-0.907-0.105-0.907-0.316c0-0.237,0.565-0.369,1.697-0.395c0.814,0,1.341-0.171,1.578-0.514
		c0.131-0.211,0.197-0.751,0.197-1.62V38.838c-2.604,0.026-4.222,0.158-4.854,0.395c-1.657,0.605-2.631,2.223-2.92,4.853
		c-0.078,0.789-0.263,1.184-0.552,1.184c-0.316,0-0.474-0.276-0.474-0.829c0-0.289,0.013-0.578,0.039-0.868l0.079-0.907
		c0.079-1.209,0.197-2.801,0.355-4.774h1.775l8.049,0.119c0.947,0.026,2.42,0.026,4.419,0l6.55-0.119
		c0.053,1.474,0.223,3.657,0.513,6.55c0,0.079,0.013,0.178,0.04,0.296C269.212,44.854,269.226,44.927,269.226,44.953z"/>
	<path d="M296.766,64.957c0,0.237-0.248,0.355-0.744,0.355h-5.402c-0.365,0-0.9,0-1.605,0c-0.704,0-1.227,0-1.565,0
		c-0.522,0-0.783-0.105-0.783-0.315c0-0.209,0.61-0.354,1.831-0.433c0.649-0.052,1.025-0.163,1.13-0.334
		c0.104-0.17,0.156-0.78,0.156-1.83v-11.49h-11.876v11.166c0,1.184,0.092,1.881,0.275,2.091s0.803,0.355,1.854,0.434
		c0.684,0.053,1.026,0.171,1.026,0.355c0,0.237-0.264,0.355-0.789,0.355h-0.355c-0.631,0-1.296,0-1.992,0c-0.697,0-1.111,0-1.243,0
		c-0.368,0-0.921,0-1.657,0s-1.842,0-3.314,0c-0.526,0-0.789-0.105-0.789-0.315c0-0.209,0.263-0.341,0.789-0.394
		c0.342-0.026,0.697-0.052,1.065-0.079c0.578-0.052,0.947-0.184,1.104-0.394c0.079-0.131,0.119-0.867,0.119-2.207V41.122
		c0-1.182-0.06-1.878-0.178-2.088c-0.118-0.209-0.533-0.328-1.243-0.354c-0.815-0.055-1.296-0.097-1.44-0.125
		c-0.145-0.027-0.217-0.138-0.217-0.332c0-0.221,0.171-0.333,0.514-0.333c0.104,0,0.328,0.014,0.67,0.04
		c0.657,0.053,2.21,0.079,4.656,0.079c1.342,0,2.274-0.02,2.801-0.059c0.185-0.04,0.421-0.06,0.711-0.06
		c0.474,0,0.71,0.132,0.71,0.396c0,0.238-0.428,0.356-1.282,0.356c-0.855,0-1.368,0.099-1.539,0.297
		c-0.171,0.198-0.256,0.825-0.256,1.88v9.104h11.876v-8.511c0-1.398-0.105-2.223-0.315-2.474c-0.211-0.25-0.947-0.362-2.21-0.336
		c-0.395,0-0.592-0.119-0.592-0.356c0-0.237,0.223-0.356,0.671-0.356h0.197c0.368,0,1.012,0,1.934,0c0.946,0,1.656,0,2.13,0
		c1.604,0,2.689,0,3.255,0s0.928,0,1.086,0c0.552,0,0.828,0.119,0.828,0.355c0,0.236-0.579,0.369-1.736,0.395
		c-0.342,0-0.592,0.026-0.749,0.079c-0.264,0.079-0.428,0.224-0.493,0.434c-0.066,0.211-0.099,0.829-0.099,1.854v20.99
		c0,1.263,0.064,2,0.194,2.209c0.26,0.29,1.013,0.434,2.26,0.434C296.558,64.589,296.766,64.695,296.766,64.957z"/>
	<path d="M320.083,58.96c0,0.105-0.026,0.75-0.079,1.934s-0.078,2.315-0.078,3.393v1.302c-2.578-0.158-7.682-0.237-15.31-0.237
		c-0.921,0-1.828,0-2.722,0c-0.895,0-1.5,0-1.815,0h-0.395c-0.5,0-0.75-0.105-0.75-0.317c0-0.142,0.079-0.224,0.237-0.248
		c0.079,0,0.578-0.035,1.499-0.106c0.684-0.052,1.099-0.197,1.243-0.435c0.145-0.237,0.217-0.858,0.217-1.86V40.144
		c0-0.765-0.112-1.22-0.335-1.365c-0.224-0.145-0.941-0.218-2.15-0.218c-0.421,0-0.632-0.112-0.632-0.335
		c0-0.223,0.289-0.335,0.868-0.335h6.747c0.236,0,1.723,0,4.458,0c2.736,0,4.577,0,5.524,0c0.789,0,1.512-0.052,2.17-0.158
		c0.053,1.131,0.171,2.697,0.355,4.695l0.157,1.697c0.026,0.132,0.04,0.302,0.04,0.513c0,0.263-0.119,0.395-0.355,0.395
		c-0.29,0-0.5-0.331-0.631-0.993c-0.5-2.382-1.316-3.891-2.446-4.527c-0.843-0.476-3.052-0.714-6.629-0.714h-3.235v11.6h0.947
		c2.945,0,4.74-0.223,5.386-0.671c0.644-0.447,1.085-1.749,1.321-3.906c0.053-0.552,0.197-0.829,0.434-0.829
		c0.29,0,0.435,0.237,0.435,0.71c0,0.473-0.026,1.17-0.079,2.091c-0.053,0.921-0.079,1.618-0.079,2.091
		c0,2.815,0.042,4.749,0.127,5.8c0.021,0.263,0.031,0.487,0.031,0.67c0,0.342-0.145,0.513-0.433,0.513
		c-0.184,0-0.308-0.112-0.373-0.335c-0.064-0.223-0.177-0.953-0.333-2.19c-0.21-1.552-0.852-2.512-1.925-2.88
		c-0.472-0.158-1.702-0.236-3.691-0.236h-1.768v13.217c5.786,0,9.18-0.116,10.18-0.351c1.736-0.39,2.723-2.052,2.959-4.988
		c0.053-0.649,0.224-0.974,0.513-0.974C319.951,58.131,320.083,58.407,320.083,58.96z"/>
	<path d="M108.555,45.602c0,1.075-0.421,1.613-1.263,1.613c-0.281-0.053-0.736-0.131-1.368-0.237
		c-0.281-0.053-0.631-0.079-1.052-0.079s-0.772,0-1.052,0h-2.209c-0.281,0-0.667,0-1.157,0c-0.842,0-1.509,0.492-1.999,1.473
		c-1.333,2.736-2.63,5.752-3.893,9.049l-19.675,51.24c-0.141,0.491-0.421,1.263-0.842,2.314c0,0.142-0.088,0.474-0.263,1
		c-0.176,0.525-0.474,1.314-0.895,2.367c-0.281,0.281-0.421,0.526-0.421,0.736c0,0.842,0.911,1.263,2.736,1.263h1.473H79.2h2.104
		c0.21,0.065,0.316,0.231,0.316,0.495c0,0.862-0.526,1.257-1.578,1.188h-2.946H54.579c-0.702,0-1.052-0.211-1.052-0.632
		c0-0.771,0.963-1.157,2.893-1.157c1.929,0,3.489-0.174,4.682-0.526c0.561-0.21,1.157-1.016,1.789-2.42
		c1.752-4.419,3.507-8.838,5.261-13.257l20.623-52.082c-0.071,0.071-3.543,5.192-10.417,15.361l-34.826,51.24
		c-1.333,1.825-2.209,2.736-2.63,2.736c-0.562,0-0.842-0.561-0.842-1.684l0.21-1.157v-3.262l2.841-53.45
		c0.14-2.665,0.21-4.383,0.21-5.156c0-1.612-0.142-2.42-0.421-2.42c-0.142,0.142-0.315,0.492-0.526,1.052
		c-0.421,1.404-1.018,3.122-1.789,5.156l-21.043,57.342c-0.141,0.421-0.21,0.737-0.21,0.947c0,0.842,0.35,1.368,1.052,1.578
		c0.7,0.211,2.42,0.247,5.156,0.105h1.894c0.49,0,0.737,0.199,0.737,0.594c0,0.727-0.457,1.09-1.368,1.09c-0.772,0-1.404,0-1.894,0
		h-6.734c-4.981-0.071-8.662-0.071-11.047,0c-0.421,0-0.911,0-1.473,0c-0.7,0-1.052-0.217-1.052-0.654
		c0-0.686,0.526-1.029,1.578-1.029c0.352,0,0.737,0,1.157,0c0.421,0,1.544,0,3.367,0c2.384,0,3.875-0.332,4.472-0.998
		c0.595-0.664,1.665-3.028,3.209-7.092l21.253-56.729c0.21-0.7,0.49-1.506,0.842-2.417c0.21-0.28,0.385-0.561,0.526-0.84
		c0-0.279-0.404-0.577-1.21-0.893c-0.807-0.315-1.596-0.474-2.367-0.474c-1.123,0-3.122,0-5.997,0h-0.421
		c-0.492,0-0.737-0.366-0.737-1.101c0-0.667,0.385-1.003,1.158-1.003c0.49,0,0.947,0.036,1.368,0.105
		c0.911,0.142,4.454,0.21,10.626,0.21c5.401,0,8.276-0.105,8.628-0.315h0.526c0.421,0,0.631,0.317,0.631,0.95
		c0,1.057-0.071,2.994-0.21,5.81l-2.42,47.952c0.279-0.489,1.087-1.647,2.42-3.472l2.525-3.472l31.775-47.452h7.891l12.1-0.315
		C108.134,44.795,108.555,45.065,108.555,45.602z"/>
	<path d="M138.329,89.617c0,8.207-3.753,15.607-11.258,22.2c-5.892,5.191-12.031,7.786-18.413,7.786
		c-4.35,0-7.927-1.51-10.732-4.524c-2.806-3.015-4.208-6.908-4.208-11.679c0-4.067,1.157-8.242,3.472-12.521
		c2.315-4.277,5.4-7.925,9.259-10.942c6.032-4.698,11.854-7.049,17.466-7.049c4.278,0,7.75,1.544,10.417,4.629
		C136.996,80.604,138.329,84.637,138.329,89.617z M130.228,82.778c0-5.33-2.385-7.996-7.155-7.996
		c-5.823,0-10.873,4.174-15.151,12.521c-4.069,7.997-6.103,15.502-6.103,22.516c0,5.261,2.349,7.892,7.049,7.892
		c5.892,0,10.801-3.788,14.73-11.363C128.018,97.789,130.228,89.932,130.228,82.778z"/>
	<path d="M206.718,43.741c-0.07,0.21-0.176,0.457-0.315,0.736c-0.281,0.561-0.668,1.366-1.157,2.417l-23.989,58.101
		c-1.824,4.412-2.735,7.145-2.735,8.195c0,1.961,1.121,2.94,3.366,2.94c3.367,0,6.242-1.831,8.628-5.497
		c0.771-1.174,1.298-1.763,1.579-1.763c0.489,0,0.735,0.281,0.735,0.842c0,1.193-1.192,2.877-3.577,5.051
		c-2.945,2.666-6.488,3.998-10.627,3.998c-5.26,0-7.891-2.244-7.891-6.733c0-0.911,0-1.929,0-3.052
		c-2.578,3.68-5.051,6.302-7.417,7.863c-2.368,1.561-5.152,2.343-8.355,2.343c-3.901,0-7.087-1.243-9.56-3.727
		c-2.473-2.484-3.708-5.722-3.708-9.712c0-8.257,3.928-16.062,11.784-23.41c7.084-6.648,13.852-9.972,20.306-9.972
		c4.488,0,7.471,2.14,8.943,6.418l0.632-1.271l0.736-1.588l11.994-29.008c0.28-0.352,0.421-0.669,0.421-0.952
		c0-0.493-0.193-0.794-0.578-0.899c-0.387-0.105-1.702-0.23-3.945-0.372c-1.334-0.059-2-0.266-2-0.623
		c0-0.355,0.385-0.534,1.158-0.534h1.263c0.91,0,2.226,0,3.945,0c1.718,0,2.962,0,3.735,0c2.664,0,4.383-0.094,5.155-0.281
		c0.421-0.092,0.7-0.14,0.842-0.14C206.508,43.112,206.718,43.322,206.718,43.741z M181.361,80.867c0-1.608-0.736-3.043-2.21-4.302
		c-1.473-1.259-3.122-1.889-4.944-1.889c-5.192,0-10.488,4.339-15.888,13.014c-5.121,8.187-7.681,15.112-7.681,20.78
		c0,5.107,2.315,7.66,6.944,7.66c4.067,0,8.066-2.832,11.995-8.501c2.805-3.988,5.225-8.641,7.26-13.957l2.42-6.193
		C180.659,83.912,181.361,81.708,181.361,80.867z"/>
	<path d="M237.334,79.794c0,3.77-2.035,6.893-6.103,9.369c-4.068,2.478-9.224,3.716-15.467,3.716c-2.245,0-4.734-0.14-7.47-0.421
		c-2.596,5.379-3.893,10.371-3.893,14.981c0,6.216,2.77,9.323,8.312,9.323c4.277,0,8.452-2.215,12.521-6.646
		c0.911-0.971,1.508-1.455,1.789-1.455c0.35,0,0.525,0.174,0.525,0.521c0,1.599-1.648,3.578-4.944,5.938
		c-3.788,2.709-7.717,4.062-11.784,4.062c-4.561,0-8.312-1.328-11.259-3.988c-2.945-2.66-4.419-6.019-4.419-10.079
		c0-7.837,4.278-15.431,12.837-22.779c7.505-6.438,14.204-9.659,20.096-9.659C234.247,72.677,237.334,75.05,237.334,79.794z
		 M229.864,78.043c0-2.173-1.089-3.262-3.262-3.262c-2.246,0-4.455,0.842-6.629,2.525c-3.929,3.087-7.541,7.681-10.837,13.783
		c0.842,0.071,1.788,0.105,2.841,0.105c3.928,0,7.75-1.192,11.469-3.577C227.724,84.953,229.864,81.762,229.864,78.043z"/>
	<path d="M276.263,77.517c0,1.404-0.457,2.614-1.368,3.63c-0.912,1.018-1.964,1.526-3.156,1.526c-1.123,0-1.684-0.385-1.684-1.157
		l0.211-1.052c0.14-0.421,0.21-0.806,0.21-1.157c0-1.684-0.842-2.525-2.525-2.525c-2.035,0-4.876,1.964-8.522,5.892
		c-3.647,3.929-7.085,9.435-10.311,16.519l-7.575,16.624c-0.702,1.614-1.299,2.42-1.789,2.42c-1.404-0.21-2.49-0.315-3.262-0.315
		c-1.193,0-2.141,0.105-2.841,0.315h-0.631c-0.632,0-0.947-0.142-0.947-0.422c0-0.069,0.105-0.211,0.315-0.421l0.526-1.056
		l17.781-40.501c0-0.562-0.457-0.843-1.368-0.843c0.069,0-0.07,0-0.421,0c-0.281,0.071-0.736,0.105-1.367,0.105h-1.053
		c-1.052,0-1.578-0.245-1.578-0.736c0-0.421,1.823-0.7,5.472-0.842c3.646-0.14,6.103-0.456,7.365-0.947
		c0.561-0.14,0.876-0.21,0.946-0.21c0.421,0,0.632,0.21,0.632,0.631c0,0.352-0.457,1.649-1.368,3.893l-3.893,9.47
		c6.452-8.978,12.134-13.468,17.045-13.468C274.543,72.887,276.263,74.431,276.263,77.517z"/>
	<path d="M318.032,80.82c0,1.692-0.912,4.617-2.735,8.776l-8.522,19.348c-0.983,2.256-1.473,3.771-1.473,4.546
		c0,1.481,0.82,2.221,2.461,2.221c1.996,0,4.92-1.612,8.772-4.84c0.354-0.21,0.641-0.315,0.856-0.315
		c0.427,0,0.641,0.176,0.641,0.526c0,0.842-1.169,2.069-3.507,3.683c-3.188,2.175-6.589,3.262-10.202,3.262
		c-2.196,0-4.001-0.476-5.419-1.427c-1.417-0.951-2.125-2.167-2.125-3.648c0-1.197,0.666-3.312,1.999-6.344l8.417-18.926
		c2.033-4.58,3.051-7.682,3.051-9.303c0-2.397-1.228-3.595-3.682-3.595c-3.228,0-7.016,2.314-11.363,6.944
		c-3.298,3.508-6.313,8.417-9.049,14.73l-8.628,19.991c-0.352,1.052-0.807,1.578-1.367,1.578c-0.142,0-0.913,0-2.315,0
		c-0.21,0-0.631,0-1.263,0c-0.562,0-1.509,0-2.841,0c-0.21,0-0.457,0-0.736,0c-0.489,0-0.736-0.175-0.736-0.524
		c0-0.139,0.105-0.349,0.315-0.628l0.736-1.57l16.099-38.539c0.21-0.348,0.385-0.664,0.525-0.943
		c-0.07-0.488-0.946-0.768-2.63-0.837c-2.104-0.069-3.156-0.454-3.156-1.152c0-0.488,0.385-0.733,1.157-0.733
		c0.49,0,1.263,0.071,2.314,0.21c1.053,0.142,1.857,0.21,2.42,0.21c3.788,0,6.277-0.279,7.471-0.842
		c0.489-0.21,0.806-0.315,0.946-0.315c0.421,0,0.632,0.21,0.632,0.631c0,0.21-0.036,0.386-0.105,0.526l-3.893,9.89
		c0.561-0.643,1.367-1.537,2.42-2.681c5.189-5.577,10.206-8.366,15.046-8.366c2.805,0,5.085,0.794,6.839,2.379
		C317.154,76.327,318.032,78.354,318.032,80.82z"/>
	<path d="M143.406,163.695c0,0.225-0.276,0.336-0.826,0.336h-0.433c-0.368,0-1.036,0-2.006,0c-0.97,0-1.717,0-2.241,0
		c-0.787,0-1.705,0-2.752,0c-1.075,0-1.783,0-2.124,0h-0.275c-0.551,0-0.826-0.118-0.826-0.355c0-0.264,0.381-0.396,1.145-0.396
		c1.341,0,2.156-0.145,2.446-0.435c0.131-0.132,0.197-1.015,0.197-2.648v-20.471c0,0.026-0.159,0.486-0.474,1.381
		c-1.057,3.181-2.589,7.966-4.597,14.354l-1.833,6.28c-0.369,1.237-0.632,1.854-0.79,1.854c-0.185,0-0.382-0.315-0.593-0.946
		c-0.759-2.395-2.907-8.369-6.443-17.923l-1.566-4.212c0,0.5,0,1.184,0,2.052v12.823c0,4.813,0.04,7.246,0.118,7.299
		c0.184,0.342,0.815,0.513,1.894,0.513c0.868,0,1.302,0.132,1.302,0.393c0,0.291-0.276,0.437-0.829,0.437
		c-0.342,0-0.658-0.026-0.947-0.079c-0.369-0.053-0.697-0.079-0.986-0.079l-4.537,0.158c-0.474,0-0.71-0.118-0.71-0.355
		c0-0.264,0.75-0.408,2.249-0.436c0.631,0,1-0.104,1.105-0.315c0.104-0.211,0.158-0.896,0.158-2.055v-18.928
		c0-2.186-0.027-3.371-0.079-3.556c-0.105-0.369-0.329-0.619-0.671-0.751s-1.079-0.237-2.209-0.316
		c-0.421-0.025-0.631-0.145-0.631-0.354c0-0.289,0.386-0.435,1.157-0.435c0.106,0,0.333,0,0.679,0h2.075
		c1.57,0,2.674-0.01,3.312-0.029c0.129,0.343,0.892,2.412,2.289,6.209c0.599,1.579,2.28,6.187,5.043,13.819
		c0.497-1.712,1.007-3.398,1.53-5.059l4.218-13.038c0.26-0.75,0.491-1.371,0.694-1.863l5.852-0.039c0.858,0,1.352,0.04,1.482,0.119
		c0.13,0.079,0.196,0.198,0.196,0.355c0,0.264-0.224,0.396-0.671,0.396c-0.737,0-1.237,0.026-1.5,0.079
		c-0.631,0.105-1.065,0.316-1.302,0.633c-0.132,0.186-0.197,1.729-0.197,4.63v18.4c0,1.056,0.104,1.676,0.315,1.86
		c0.342,0.238,1.197,0.356,2.565,0.356h0.236C143.142,163.36,143.406,163.472,143.406,163.695z"/>
	<path d="M169.643,136.923c0,0.212-0.236,0.317-0.709,0.317c-0.08,0-0.343,0-0.79,0c-0.132,0-0.315,0-0.552,0
		c-0.658,0-1.053,0.171-1.184,0.513c-0.054,0.184-0.08,0.485-0.08,0.906v14.774c0,3.835-0.717,6.625-2.149,8.372
		c-1.434,1.747-3.742,2.62-6.925,2.62c-3.814,0-6.497-1.078-8.049-3.235c-1.026-1.446-1.539-3.827-1.539-7.142v-15.822
		c-0.081-0.473-0.4-0.762-0.959-0.867c-0.16-0.026-0.653-0.04-1.479-0.04c-0.453-0.052-0.679-0.184-0.679-0.395
		c0-0.236,0.184-0.354,0.552-0.354h0.71c0.131,0,0.434,0,0.907,0c0.42,0,0.802,0,1.145,0h5.642c0.131,0,0.289,0,0.473,0
		c0.447,0,0.671,0.145,0.671,0.433c0,0.184-0.079,0.289-0.237,0.315s-0.684,0.053-1.578,0.079c-0.369,0-0.618,0.026-0.75,0.079
		c-0.263,0.104-0.408,0.289-0.434,0.552c-0.026,0.104-0.04,0.853-0.04,2.245v14.104c0,3.468,0.552,5.832,1.657,7.093
		c1.104,1.261,2.748,1.891,4.932,1.891c3.998,0,6.26-2.269,6.786-6.806c0.079-0.682,0.118-3.567,0.118-8.655v-2.242v-3.146v-2.715
		c0-0.263,0-0.551,0-0.865c0-0.341,0-0.485,0-0.433c0-0.577-0.273-0.932-0.818-1.062c-0.182-0.053-0.715-0.079-1.598-0.079
		c-0.52,0-0.779-0.145-0.779-0.433c0-0.235,0.184-0.354,0.553-0.354c0.21,0,0.381,0,0.513,0c0.315,0,1.46,0,3.433,0
		c0.289,0,0.617,0,0.986,0c0.342,0,0.592,0,0.749,0h0.593C169.34,136.57,169.643,136.687,169.643,136.923z"/>
	<path d="M188.502,156.258c0,2.263-0.861,4.189-2.584,5.78c-1.723,1.592-3.795,2.388-6.215,2.388c-1.42,0-3.117-0.435-5.09-1.302
		c-0.525-0.237-0.92-0.355-1.184-0.355c-0.314,0-0.512,0.364-0.592,1.093c-0.025,0.376-0.197,0.564-0.512,0.564
		c-0.264,0-0.396-0.158-0.396-0.474c0-0.21,0.013-0.368,0.04-0.474c0.21-1.604,0.315-3.09,0.315-4.458c0-0.263-0.026-1-0.079-2.21
		c-0.026-0.157-0.039-0.368-0.039-0.631c0-0.395,0.158-0.592,0.473-0.592c0.264,0,0.447,0.318,0.553,0.956
		c0.684,4.729,2.906,7.093,6.668,7.093c1.604,0,2.848-0.454,3.729-1.361s1.322-2.189,1.322-3.847c0-1.474-0.428-2.729-1.283-3.769
		c-0.854-1.039-2.321-2.071-4.398-3.097c-2.5-1.236-4.236-2.434-5.209-3.591s-1.459-2.591-1.459-4.301
		c0-2.183,0.703-3.985,2.11-5.405c1.407-1.421,3.189-2.131,5.347-2.131c0.894,0,2.131,0.303,3.709,0.907
		c0.553,0.211,0.959,0.316,1.223,0.316c0.289,0,0.48-0.053,0.572-0.158c0.092-0.104,0.178-0.381,0.256-0.828
		c0.053-0.263,0.197-0.395,0.435-0.395c0.263,0,0.395,0.157,0.395,0.473c0,0.211-0.014,0.369-0.04,0.474
		c-0.078,0.632-0.117,1.395-0.117,2.289c0,1.262,0.064,2.262,0.197,2.998l0.039,0.632c0.025,0.289-0.093,0.434-0.355,0.434
		c-0.289,0-0.486-0.302-0.592-0.907c-0.289-1.552-0.973-2.848-2.052-3.887s-2.288-1.559-3.63-1.559
		c-1.315,0-2.361,0.421-3.137,1.263s-1.164,1.986-1.164,3.433c0,1.684,0.565,3.038,1.697,4.064c0.631,0.578,1.998,1.395,4.104,2.446
		c2.472,1.236,4.247,2.492,5.326,3.768C187.963,153.175,188.502,154.628,188.502,156.258z"/>
	<path d="M211.82,157.599c0,0.105-0.027,0.75-0.08,1.934s-0.078,2.314-0.078,3.394v1.302c-2.578-0.158-7.682-0.237-15.309-0.237
		c-0.922,0-1.828,0-2.723,0s-1.499,0-1.814,0h-0.395c-0.5,0-0.75-0.105-0.75-0.317c0-0.141,0.079-0.224,0.236-0.247
		c0.079,0,0.578-0.035,1.5-0.105c0.684-0.053,1.098-0.197,1.242-0.436c0.145-0.237,0.217-0.857,0.217-1.86v-22.241
		c0-0.765-0.111-1.22-0.334-1.365c-0.225-0.146-0.941-0.218-2.151-0.218c-0.421,0-0.631-0.111-0.631-0.335s0.289-0.336,0.868-0.336
		h6.746c0.236,0,1.723,0,4.459,0s4.576,0,5.523,0c0.789,0,1.512-0.053,2.17-0.157c0.053,1.131,0.172,2.696,0.355,4.694l0.158,1.697
		c0.025,0.132,0.039,0.303,0.039,0.513c0,0.264-0.119,0.395-0.355,0.395c-0.289,0-0.5-0.33-0.631-0.992
		c-0.5-2.383-1.316-3.892-2.445-4.527c-0.844-0.476-3.053-0.715-6.629-0.715h-3.236v11.601h0.947c2.945,0,4.74-0.224,5.387-0.671
		c0.643-0.447,1.084-1.749,1.32-3.906c0.053-0.553,0.197-0.828,0.434-0.828c0.291,0,0.436,0.236,0.436,0.71s-0.027,1.171-0.08,2.091
		c-0.053,0.921-0.078,1.618-0.078,2.092c0,2.814,0.041,4.748,0.127,5.8c0.02,0.263,0.031,0.486,0.031,0.671
		c0,0.342-0.145,0.513-0.434,0.513c-0.184,0-0.307-0.111-0.373-0.336c-0.064-0.223-0.176-0.953-0.332-2.189
		c-0.211-1.552-0.852-2.512-1.926-2.88c-0.471-0.158-1.701-0.237-3.691-0.237h-1.768v13.218c5.787,0,9.18-0.116,10.18-0.351
		c1.736-0.39,2.723-2.053,2.959-4.988c0.053-0.649,0.225-0.974,0.514-0.974C211.688,156.771,211.82,157.048,211.82,157.599z"/>
	<path d="M231.311,163.617c0,0.224-0.158,0.335-0.474,0.335h-0.395c-0.158-0.079-1.947-0.118-5.366-0.118
		c-0.657,0-1.315,0.026-1.973,0.079c-0.342,0.026-0.868,0.039-1.578,0.039c-0.342,0-0.513-0.118-0.513-0.355
		c0-0.21,0.342-0.328,1.025-0.354c1.052-0.026,1.671-0.151,1.854-0.376c0.184-0.224,0.276-0.982,0.276-2.275v-20.817
		c0-1.292-0.066-2.018-0.199-2.177c-0.161-0.264-0.894-0.422-2.198-0.475c-0.506-0.022-0.759-0.115-0.759-0.278
		c0-0.209,0.159-0.313,0.477-0.313h5.368c0.397,0,1.166,0.014,2.306,0.04l1.511-0.04c0.425,0,0.637,0.112,0.637,0.337
		c0,0.199-0.586,0.324-1.758,0.373c-0.666,0.027-1.072,0.146-1.219,0.355c-0.146,0.211-0.22,0.764-0.22,1.657v21.069
		c0,1.499,0.065,2.314,0.197,2.446c0.289,0.29,1.145,0.46,2.565,0.513C231.166,163.281,231.311,163.393,231.311,163.617z"/>
	<path d="M250.841,156.258c0,2.263-0.862,4.189-2.585,5.78c-1.723,1.592-3.794,2.388-6.214,2.388c-1.42,0-3.117-0.435-5.09-1.302
		c-0.526-0.237-0.921-0.355-1.184-0.355c-0.315,0-0.513,0.364-0.592,1.093c-0.026,0.376-0.197,0.564-0.513,0.564
		c-0.264,0-0.395-0.158-0.395-0.474c0-0.21,0.013-0.368,0.039-0.474c0.21-1.604,0.315-3.09,0.315-4.458c0-0.263-0.026-1-0.078-2.21
		c-0.027-0.157-0.04-0.368-0.04-0.631c0-0.395,0.158-0.592,0.474-0.592c0.263,0,0.447,0.318,0.553,0.956
		c0.684,4.729,2.906,7.093,6.668,7.093c1.604,0,2.847-0.454,3.729-1.361c0.881-0.907,1.321-2.189,1.321-3.847
		c0-1.474-0.428-2.729-1.282-3.769c-0.854-1.039-2.321-2.071-4.399-3.097c-2.499-1.236-4.235-2.434-5.208-3.591
		c-0.974-1.157-1.46-2.591-1.46-4.301c0-2.183,0.703-3.985,2.111-5.405c1.406-1.421,3.188-2.131,5.346-2.131
		c0.895,0,2.131,0.303,3.709,0.907c0.553,0.211,0.96,0.316,1.224,0.316c0.289,0,0.479-0.053,0.571-0.158
		c0.093-0.104,0.178-0.381,0.257-0.828c0.053-0.263,0.197-0.395,0.434-0.395c0.263,0,0.396,0.157,0.396,0.473
		c0,0.211-0.014,0.369-0.04,0.474c-0.079,0.632-0.118,1.395-0.118,2.289c0,1.262,0.065,2.262,0.197,2.998l0.039,0.632
		c0.026,0.289-0.092,0.434-0.354,0.434c-0.29,0-0.487-0.302-0.592-0.907c-0.29-1.552-0.974-2.848-2.052-3.887
		c-1.079-1.039-2.289-1.559-3.63-1.559c-1.315,0-2.361,0.421-3.137,1.263c-0.776,0.842-1.164,1.986-1.164,3.433
		c0,1.684,0.565,3.038,1.696,4.064c0.632,0.578,1.999,1.395,4.104,2.446c2.472,1.236,4.248,2.492,5.326,3.768
		C250.301,153.175,250.841,154.628,250.841,156.258z"/>
	<path d="M270.489,156.258c0,2.263-0.862,4.189-2.585,5.78c-1.723,1.592-3.794,2.388-6.214,2.388c-1.42,0-3.117-0.435-5.09-1.302
		c-0.526-0.237-0.921-0.355-1.184-0.355c-0.315,0-0.513,0.364-0.592,1.093c-0.026,0.376-0.197,0.564-0.513,0.564
		c-0.264,0-0.395-0.158-0.395-0.474c0-0.21,0.013-0.368,0.039-0.474c0.21-1.604,0.315-3.09,0.315-4.458c0-0.263-0.026-1-0.078-2.21
		c-0.027-0.157-0.04-0.368-0.04-0.631c0-0.395,0.158-0.592,0.474-0.592c0.263,0,0.447,0.318,0.553,0.956
		c0.684,4.729,2.906,7.093,6.668,7.093c1.604,0,2.847-0.454,3.729-1.361c0.881-0.907,1.321-2.189,1.321-3.847
		c0-1.474-0.428-2.729-1.282-3.769c-0.854-1.039-2.321-2.071-4.399-3.097c-2.499-1.236-4.235-2.434-5.208-3.591
		c-0.974-1.157-1.46-2.591-1.46-4.301c0-2.183,0.703-3.985,2.111-5.405c1.406-1.421,3.188-2.131,5.346-2.131
		c0.895,0,2.131,0.303,3.709,0.907c0.553,0.211,0.96,0.316,1.224,0.316c0.289,0,0.479-0.053,0.571-0.158
		c0.093-0.104,0.178-0.381,0.257-0.828c0.053-0.263,0.197-0.395,0.434-0.395c0.263,0,0.396,0.157,0.396,0.473
		c0,0.211-0.014,0.369-0.04,0.474c-0.079,0.632-0.118,1.395-0.118,2.289c0,1.262,0.065,2.262,0.197,2.998l0.039,0.632
		c0.026,0.289-0.092,0.434-0.354,0.434c-0.29,0-0.487-0.302-0.592-0.907c-0.29-1.552-0.974-2.848-2.052-3.887
		c-1.079-1.039-2.289-1.559-3.63-1.559c-1.315,0-2.361,0.421-3.137,1.263c-0.776,0.842-1.164,1.986-1.164,3.433
		c0,1.684,0.565,3.038,1.696,4.064c0.632,0.578,1.999,1.395,4.104,2.446c2.472,1.236,4.248,2.492,5.326,3.768
		C269.949,153.175,270.489,154.628,270.489,156.258z"/>
	<path d="M297.556,136.923c0,0.212-0.237,0.317-0.711,0.317c-0.079,0-0.342,0-0.789,0c-0.132,0-0.315,0-0.552,0
		c-0.658,0-1.053,0.171-1.184,0.513c-0.054,0.184-0.079,0.485-0.079,0.906v14.774c0,3.835-0.717,6.625-2.15,8.372
		c-1.435,1.747-3.742,2.62-6.925,2.62c-3.814,0-6.497-1.078-8.049-3.235c-1.025-1.446-1.539-3.827-1.539-7.142v-15.822
		c-0.08-0.473-0.399-0.762-0.959-0.867c-0.16-0.026-0.653-0.04-1.479-0.04c-0.453-0.052-0.68-0.184-0.68-0.395
		c0-0.236,0.185-0.354,0.553-0.354h0.71c0.132,0,0.435,0,0.908,0c0.42,0,0.802,0,1.144,0h5.643c0.131,0,0.289,0,0.474,0
		c0.446,0,0.671,0.145,0.671,0.433c0,0.184-0.079,0.289-0.237,0.315c-0.157,0.026-0.685,0.053-1.578,0.079
		c-0.368,0-0.618,0.026-0.75,0.079c-0.263,0.104-0.408,0.289-0.434,0.552c-0.026,0.104-0.039,0.853-0.039,2.245v14.104
		c0,3.468,0.552,5.832,1.656,7.093c1.105,1.261,2.749,1.891,4.933,1.891c3.998,0,6.26-2.269,6.786-6.806
		c0.079-0.682,0.118-3.567,0.118-8.655v-2.242v-3.146v-2.715c0-0.263,0-0.551,0-0.865c0-0.341,0-0.485,0-0.433
		c0-0.577-0.272-0.932-0.818-1.062c-0.182-0.053-0.715-0.079-1.598-0.079c-0.521,0-0.779-0.145-0.779-0.433
		c0-0.235,0.184-0.354,0.552-0.354c0.211,0,0.381,0,0.513,0c0.316,0,1.46,0,3.434,0c0.289,0,0.617,0,0.986,0
		c0.341,0,0.592,0,0.749,0h0.592C297.253,136.57,297.556,136.687,297.556,136.923z"/>
	<path d="M320.083,157.599c0,0.105-0.026,0.75-0.079,1.934s-0.078,2.314-0.078,3.394v1.302c-2.578-0.158-7.682-0.237-15.31-0.237
		c-0.921,0-1.828,0-2.722,0c-0.895,0-1.5,0-1.815,0h-0.395c-0.5,0-0.75-0.105-0.75-0.317c0-0.141,0.079-0.224,0.237-0.247
		c0.079,0,0.578-0.035,1.499-0.105c0.684-0.053,1.099-0.197,1.243-0.436c0.145-0.237,0.217-0.857,0.217-1.86v-22.241
		c0-0.765-0.112-1.22-0.335-1.365c-0.224-0.146-0.941-0.218-2.15-0.218c-0.421,0-0.632-0.111-0.632-0.335s0.289-0.336,0.868-0.336
		h6.747c0.236,0,1.723,0,4.458,0c2.736,0,4.577,0,5.524,0c0.789,0,1.512-0.053,2.17-0.157c0.053,1.131,0.171,2.696,0.355,4.694
		l0.157,1.697c0.026,0.132,0.04,0.303,0.04,0.513c0,0.264-0.119,0.395-0.355,0.395c-0.29,0-0.5-0.33-0.631-0.992
		c-0.5-2.383-1.316-3.892-2.446-4.527c-0.843-0.476-3.052-0.715-6.629-0.715h-3.235v11.601h0.947c2.945,0,4.74-0.224,5.386-0.671
		c0.644-0.447,1.085-1.749,1.321-3.906c0.053-0.553,0.197-0.828,0.434-0.828c0.29,0,0.435,0.236,0.435,0.71
		s-0.026,1.171-0.079,2.091c-0.053,0.921-0.079,1.618-0.079,2.092c0,2.814,0.042,4.748,0.127,5.8
		c0.021,0.263,0.031,0.486,0.031,0.671c0,0.342-0.145,0.513-0.433,0.513c-0.184,0-0.308-0.111-0.373-0.336
		c-0.064-0.223-0.177-0.953-0.333-2.189c-0.21-1.552-0.852-2.512-1.925-2.88c-0.472-0.158-1.702-0.237-3.691-0.237h-1.768v13.218
		c5.786,0,9.18-0.116,10.18-0.351c1.736-0.39,2.723-2.053,2.959-4.988c0.053-0.649,0.224-0.974,0.513-0.974
		C319.951,156.771,320.083,157.048,320.083,157.599z"/>
</g>
</svg>
