<?xml version="1.0" encoding="utf-8"?>
<!-- Generator: Adobe Illustrator 16.0.0, SVG Export Plug-In . SVG Version: 6.00 Build 0)  -->
<!DOCTYPE svg PUBLIC "-//W3C//DTD SVG 1.1 Tiny//EN" "http://www.w3.org/Graphics/SVG/1.1/DTD/svg11-tiny.dtd">
<svg version="1.1" baseProfile="tiny" id="Layer_1" xmlns="http://www.w3.org/2000/svg" xmlns:xlink="http://www.w3.org/1999/xlink"
	 x="0px" y="0px" width="326.797px" height="195.269px" viewBox="0 0 326.797 195.269" xml:space="preserve">
<g>
	<path fill="#010101" d="M21.585,68.156c0,0.104-0.123,0.162-0.367,0.175c-0.567,0.013-0.947,0.097-1.141,0.252
		s-0.394,0.518-0.6,1.086l-0.657,1.804c-1.586,4.356-2.701,7.698-3.345,10.025c-0.039,0.154-0.104,0.231-0.193,0.231
		c-0.104,0-0.316-0.483-0.638-1.45c-0.58-1.766-1.031-3.094-1.354-3.982c-0.345-0.981-0.856-2.445-1.533-4.395l-0.942-2.605
		c-0.129-0.36-0.271-0.603-0.426-0.725c-0.154-0.123-0.412-0.19-0.773-0.203c-0.425-0.013-0.68-0.026-0.764-0.039
		s-0.126-0.064-0.126-0.154c0-0.116,0.129-0.175,0.387-0.175h0.174c0.232,0,0.635,0.01,1.208,0.029
		c0.573,0.02,0.983,0.029,1.228,0.029c0.064,0,0.312-0.01,0.745-0.029c0.432-0.02,1.047-0.029,1.847-0.029h0.271
		c0.232,0,0.348,0.059,0.348,0.176c0,0.13-0.232,0.2-0.696,0.211l-1.179,0.041c-0.271,0.014-0.406,0.101-0.406,0.262
		c0,0.027,0.013,0.081,0.038,0.162l0.149,0.524c0.026,0.104,0.656,1.919,1.892,5.447c0.206,0.607,0.599,1.765,1.179,3.472
		c2.123-6.024,3.184-9.191,3.184-9.501c0-0.297-0.316-0.433-0.949-0.407h-0.6c-0.155,0-0.232-0.057-0.232-0.172
		c0-0.143,0.193-0.215,0.58-0.215c0.077,0,0.296,0,0.657,0c0.361,0.039,0.625,0.059,0.793,0.059h0.619l1.276-0.059
		C21.47,68.001,21.585,68.053,21.585,68.156z"/>
	<path fill="#010101" d="M33.69,81.353c0,0.109-0.097,0.165-0.29,0.165c-0.129,0-0.245-0.007-0.348-0.02l-2.456-0.077l-2.456,0.077
		c-0.09,0.013-0.187,0.02-0.29,0.02c-0.258,0-0.387-0.067-0.387-0.203c0-0.148,0.174-0.223,0.522-0.223
		c1.134-0.013,1.702-0.126,1.702-0.341c0-0.013-0.013-0.063-0.04-0.151l-0.158-0.512l-0.099-0.27c-0.116-0.4-0.399-1.284-0.85-2.651
		h-4.133c-0.773,2.062-1.159,3.248-1.159,3.558c0,0.181,0.078,0.29,0.232,0.328c0.039,0.014,0.361,0.039,0.967,0.078
		c0.374,0.013,0.561,0.077,0.561,0.193c0,0.129-0.168,0.193-0.503,0.193c-0.593,0-1.283-0.026-2.069-0.078
		c-0.193-0.013-0.394-0.019-0.6-0.019s-0.406,0.021-0.599,0.063c-0.103,0.021-0.187,0.033-0.251,0.033
		c-0.18,0-0.271-0.059-0.271-0.175s0.203-0.182,0.609-0.194s0.699-0.074,0.88-0.185c0.18-0.109,0.322-0.319,0.425-0.63
		c1.658-4.76,3.008-8.582,4.049-11.467c0.03-0.151,0.09-0.322,0.18-0.513l0.083-0.354c0.039-0.142,0.09-0.212,0.155-0.212
		c0.039,0,0.07,0.038,0.097,0.115c0.167,0.503,0.547,1.554,1.14,3.152c0.464,1.25,1.618,4.389,3.461,9.416
		c0.103,0.292,0.235,0.478,0.396,0.558c0.161,0.079,0.493,0.126,0.996,0.139C33.522,81.182,33.69,81.242,33.69,81.353z
		 M28.452,76.722c-0.21-0.58-0.558-1.541-1.043-2.882l-0.929-2.68c-0.543,1.426-1.197,3.28-1.96,5.562H28.452z"/>
	<path fill="#010101" d="M45.252,68.233c0,0.129-0.162,0.188-0.483,0.174h-0.425h-0.348c-0.207,0-0.329,0.036-0.368,0.106
		c-0.039,0.071-0.058,0.286-0.058,0.646v11.122c0,0.682-0.007,1.081-0.02,1.196c-0.013,0.116-0.051,0.174-0.115,0.174
		c-0.078,0-0.167-0.071-0.27-0.214l-2.471-3.618c-1.433-2.11-3.175-4.746-5.227-7.905v10.827c0.013,0.168,0.111,0.275,0.293,0.32
		c0.183,0.045,0.619,0.074,1.309,0.087c0.169,0,0.254,0.052,0.254,0.155c0,0.129-0.168,0.193-0.503,0.193
		c-0.116,0-0.483-0.02-1.102-0.059c-0.207-0.013-0.406-0.019-0.6-0.019c0.013,0-0.1,0.013-0.338,0.038
		c-0.238,0.025-0.603,0.039-1.092,0.039h-0.193c-0.297,0-0.445-0.059-0.445-0.175s0.129-0.174,0.387-0.174
		c0.761-0.013,1.202-0.062,1.325-0.146c0.122-0.084,0.184-0.358,0.184-0.822v-9.547c0-1.071-0.219-1.743-0.657-2.015
		c-0.207-0.129-0.574-0.193-1.103-0.193c-0.335,0-0.502-0.067-0.502-0.203c0-0.122,0.097-0.184,0.29-0.184
		c0.258,0,0.586,0.013,0.986,0.039c0.399,0.025,0.612,0.038,0.638,0.038c0.039,0,0.219-0.006,0.542-0.02
		c0.425,0,0.838-0.019,1.237-0.058l6.671,9.957v-8.604c0-0.399-0.006-0.641-0.019-0.725c-0.013-0.084-0.065-0.148-0.155-0.193
		c-0.09-0.046-0.4-0.068-0.928-0.068c-0.464,0-0.696-0.058-0.696-0.174c0-0.129,0.154-0.193,0.464-0.193h0.677
		c0.167,0,0.348,0,0.542,0c0.206,0,0.329,0,0.367,0c0.013,0,0.129,0,0.348,0c0.206,0,0.399,0,0.58,0h0.6
		C45.11,68.04,45.252,68.104,45.252,68.233z"/>
	<path fill="#010101" d="M51.072,81.314c0,0.109-0.078,0.164-0.232,0.164h-0.193c-0.078-0.039-0.954-0.058-2.63-0.058
		c-0.322,0-0.645,0.013-0.967,0.038c-0.167,0.014-0.425,0.02-0.773,0.02c-0.167,0-0.251-0.058-0.251-0.174
		c0-0.104,0.167-0.161,0.503-0.174c0.515-0.013,0.818-0.074,0.909-0.185c0.09-0.109,0.135-0.481,0.135-1.115V69.63
		c0-0.634-0.033-0.989-0.098-1.067c-0.079-0.129-0.438-0.206-1.077-0.232c-0.248-0.011-0.372-0.057-0.372-0.137
		c0-0.102,0.078-0.153,0.234-0.153h2.631c0.194,0,0.571,0.007,1.13,0.02l0.74-0.02c0.208,0,0.312,0.055,0.312,0.165
		c0,0.098-0.288,0.159-0.861,0.183c-0.327,0.014-0.525,0.071-0.598,0.175c-0.072,0.103-0.107,0.374-0.107,0.812v10.325
		c0,0.735,0.032,1.135,0.097,1.199c0.142,0.142,0.561,0.226,1.257,0.251C51.001,81.149,51.072,81.205,51.072,81.314z"/>
	<path fill="#010101" d="M62.616,71.501c0,0.168-0.078,0.252-0.232,0.252c-0.154,0-0.264-0.168-0.329-0.503
		c-0.026-0.232-0.052-0.464-0.077-0.696c-0.09-0.464-0.239-0.857-0.445-1.18c-0.271-0.425-0.715-0.696-1.334-0.812
		c-0.4-0.078-0.722-0.109-0.967-0.097c-0.606,0.017-0.974,0.03-1.103,0.038v11.678c0,0.465,0.123,0.755,0.368,0.871
		c0.128,0.064,0.49,0.104,1.083,0.116c0.155,0.013,0.232,0.067,0.232,0.165c0,0.109-0.104,0.164-0.31,0.164
		c-0.104,0-0.193-0.007-0.271-0.02c-0.773-0.025-1.322-0.039-1.644-0.039c-0.426,0-0.825,0.01-1.199,0.029s-0.851,0.029-1.431,0.029
		c-0.297,0-0.445-0.052-0.445-0.155c0-0.116,0.277-0.181,0.832-0.193c0.399,0,0.657-0.084,0.773-0.252
		c0.064-0.104,0.097-0.368,0.097-0.794v-11.6c-1.276,0.014-2.069,0.077-2.378,0.193c-0.812,0.297-1.289,1.09-1.431,2.379
		c-0.039,0.387-0.129,0.58-0.271,0.58c-0.154,0-0.232-0.136-0.232-0.406c0-0.142,0.006-0.283,0.02-0.426l0.039-0.444
		c0.039-0.593,0.097-1.373,0.174-2.34h0.87l3.945,0.058c0.464,0.014,1.186,0.014,2.166,0l3.21-0.058
		c0.025,0.722,0.109,1.792,0.251,3.21c0,0.038,0.006,0.087,0.02,0.145C62.609,71.453,62.616,71.488,62.616,71.501z"/>
	<path fill="#010101" d="M74.875,68.184c0,0.098-0.109,0.146-0.329,0.146c-0.709,0.014-1.147,0.137-1.315,0.371
		c-0.154,0.144-0.709,1.251-1.663,3.322c-0.425,0.915-0.825,1.721-1.199,2.417c-0.258,0.479-0.406,0.805-0.445,0.979
		s-0.058,0.553-0.058,1.134v3.665c0,0.427,0.055,0.679,0.165,0.757c0.109,0.077,0.493,0.136,1.15,0.174
		c0.348,0.024,0.522,0.086,0.522,0.183c0,0.098-0.09,0.146-0.271,0.146h-0.232l-2.707-0.058c-0.761,0-1.386,0.013-1.875,0.038
		c-0.077,0.014-0.167,0.02-0.271,0.02c-0.181,0-0.271-0.061-0.271-0.183s0.148-0.19,0.445-0.204c0.709-0.025,1.128-0.09,1.257-0.192
		c0.129-0.104,0.193-0.411,0.193-0.925V75.91c-0.129-0.284-0.502-1.038-1.122-2.263l-1.934-3.828
		c-0.193-0.374-0.425-0.793-0.696-1.257c-0.142-0.129-0.448-0.193-0.918-0.193c-0.471,0-0.706-0.071-0.706-0.213
		c0-0.104,0.104-0.155,0.31-0.155c0.271,0,0.812,0.014,1.624,0.039c0.464,0.013,0.799,0.02,1.006,0.02l2.243-0.029
		c0.09-0.02,0.193-0.029,0.31-0.029c0.232,0,0.348,0.065,0.348,0.195c0,0.116-0.22,0.175-0.658,0.175
		c-0.799,0-1.199,0.143-1.199,0.428c0,0.221,0.405,1.108,1.217,2.665l1.756,3.324c0.321-0.576,0.687-1.286,1.098-2.132l1.141-2.301
		c0.432-0.83,0.647-1.375,0.647-1.634c0-0.169-0.11-0.267-0.329-0.292c-0.452-0.064-0.754-0.091-0.909-0.078
		c-0.284,0.014-0.425-0.052-0.425-0.194c0-0.104,0.123-0.156,0.368-0.156h1.121h0.638C74.217,67.963,74.875,68.023,74.875,68.184z"
		/>
	<path fill="#010101" d="M91.349,74.847c0,1.921-0.577,3.545-1.73,4.872c-1.154,1.328-2.569,1.992-4.245,1.992
		c-1.779,0-3.274-0.674-4.486-2.021c-1.212-1.348-1.817-3.007-1.817-4.979c0-2.011,0.583-3.657,1.75-4.94
		c1.167-1.282,2.659-1.924,4.476-1.924c1.714,0,3.152,0.671,4.312,2.011C90.769,71.198,91.349,72.861,91.349,74.847z M89.183,74.943
		c0-2.365-0.483-4.208-1.45-5.526c-0.606-0.828-1.45-1.241-2.533-1.241c-1.031,0-1.831,0.316-2.397,0.95
		c-1.044,1.163-1.566,3.058-1.566,5.682c0,2.082,0.364,3.698,1.092,4.849c0.729,1.15,1.75,1.726,3.065,1.726
		c1.225,0,2.146-0.543,2.765-1.629C88.841,78.551,89.183,76.947,89.183,74.943z"/>
	<path fill="#010101" d="M102.66,71.27c0,0.181-0.065,0.271-0.193,0.271c-0.129,0-0.219-0.163-0.271-0.489
		c-0.154-0.94-0.471-1.625-0.947-2.057c-0.31-0.273-0.787-0.443-1.431-0.509c-0.232-0.026-0.748-0.039-1.547-0.039
		c-0.593,0-1.302,0.02-2.127,0.059v5.684c1.65,0.014,2.668-0.093,3.055-0.318s0.619-0.86,0.696-1.905
		c0.026-0.296,0.103-0.444,0.232-0.444s0.193,0.097,0.193,0.29c0,0.116-0.006,0.213-0.019,0.29c-0.039,0.89-0.058,1.715-0.058,2.475
		c0,0.98,0.021,1.754,0.062,2.32c0.01,0.052,0.015,0.13,0.015,0.232c0,0.154-0.064,0.232-0.192,0.232
		c-0.103,0-0.167-0.039-0.193-0.116c-0.025-0.077-0.07-0.374-0.134-0.89c-0.103-0.786-0.305-1.276-0.606-1.47
		c-0.301-0.193-0.901-0.29-1.799-0.29c-0.475,0-0.892,0.014-1.251,0.039v1.972v3.79c0,0.374,0.146,0.612,0.439,0.716
		c0.14,0.052,0.452,0.071,0.937,0.058c0.204,0,0.306,0.052,0.306,0.155c0,0.115-0.129,0.174-0.387,0.174h-0.193
		c-0.181,0-0.425,0-0.735,0c-0.297,0-0.497,0-0.6,0H93.03c-0.245,0-0.367-0.052-0.367-0.155s0.222-0.168,0.667-0.194
		c0.445-0.025,0.706-0.087,0.783-0.184c0.077-0.098,0.116-0.397,0.116-0.902V68.931c-0.013-0.232-0.082-0.378-0.206-0.436
		c-0.124-0.059-0.46-0.094-1.009-0.107c-0.209,0-0.313-0.063-0.313-0.192c0-0.116,0.116-0.175,0.348-0.175h0.309
		c-0.026,0,0.596,0,1.866,0c1.27,0,2.311,0,3.123,0c2.178,0,3.513-0.038,4.002-0.116c0.013,0.168,0.051,0.651,0.116,1.45
		c0.039,0.542,0.09,1.025,0.155,1.45C102.646,70.985,102.66,71.141,102.66,71.27z"/>
	<path fill="#010101" d="M115.324,77.708c0,1.108-0.422,2.053-1.266,2.833c-0.845,0.78-1.86,1.17-3.045,1.17
		c-0.696,0-1.528-0.213-2.495-0.639c-0.258-0.116-0.451-0.174-0.58-0.174c-0.155,0-0.251,0.179-0.29,0.535
		c-0.013,0.185-0.097,0.277-0.251,0.277c-0.129,0-0.193-0.078-0.193-0.232c0-0.103,0.006-0.181,0.02-0.232
		c0.103-0.786,0.155-1.514,0.155-2.185c0-0.129-0.013-0.489-0.039-1.083c-0.013-0.077-0.02-0.18-0.02-0.31
		c0-0.193,0.077-0.29,0.232-0.29c0.129,0,0.219,0.156,0.271,0.469c0.335,2.317,1.424,3.477,3.268,3.477
		c0.786,0,1.395-0.223,1.827-0.667c0.432-0.445,0.648-1.073,0.648-1.886c0-0.722-0.21-1.337-0.628-1.847
		c-0.419-0.509-1.138-1.015-2.156-1.518c-1.225-0.605-2.075-1.192-2.552-1.76s-0.715-1.27-0.715-2.107
		c0-1.07,0.345-1.953,1.035-2.649c0.689-0.696,1.562-1.044,2.62-1.044c0.438,0,1.044,0.148,1.818,0.444
		c0.271,0.104,0.47,0.155,0.599,0.155c0.142,0,0.235-0.025,0.281-0.077c0.045-0.052,0.087-0.188,0.125-0.406
		c0.026-0.129,0.097-0.193,0.213-0.193c0.128,0,0.193,0.077,0.193,0.231c0,0.104-0.007,0.181-0.02,0.232
		c-0.039,0.31-0.058,0.684-0.058,1.121c0,0.619,0.032,1.109,0.097,1.47l0.02,0.31c0.013,0.142-0.045,0.213-0.174,0.213
		c-0.142,0-0.238-0.148-0.29-0.445c-0.142-0.76-0.477-1.395-1.005-1.904c-0.529-0.509-1.122-0.764-1.779-0.764
		c-0.645,0-1.157,0.206-1.537,0.619c-0.38,0.412-0.57,0.973-0.57,1.682c0,0.825,0.277,1.489,0.831,1.992
		c0.31,0.283,0.979,0.683,2.011,1.198c1.211,0.606,2.082,1.222,2.61,1.847C115.06,76.197,115.324,76.909,115.324,77.708z"/>
	<path fill="#010101" d="M126.751,78.365c0,0.052-0.013,0.367-0.039,0.947s-0.039,1.135-0.039,1.663v0.639
		c-1.264-0.078-3.764-0.116-7.502-0.116c-0.451,0-0.896,0-1.334,0c-0.438,0-0.735,0-0.89,0h-0.193c-0.245,0-0.367-0.052-0.367-0.156
		c0-0.068,0.039-0.109,0.116-0.121c0.039,0,0.284-0.017,0.735-0.052c0.335-0.025,0.538-0.097,0.609-0.213s0.106-0.421,0.106-0.912
		V69.145c0-0.375-0.055-0.598-0.164-0.669c-0.11-0.071-0.461-0.106-1.054-0.106c-0.206,0-0.309-0.055-0.309-0.165
		c0-0.109,0.142-0.164,0.425-0.164h3.307c0.116,0,0.844,0,2.185,0s2.243,0,2.707,0c0.387,0,0.741-0.025,1.063-0.077
		c0.026,0.555,0.084,1.321,0.174,2.301l0.077,0.831c0.013,0.065,0.02,0.148,0.02,0.252c0,0.129-0.058,0.193-0.174,0.193
		c-0.142,0-0.245-0.162-0.309-0.486c-0.245-1.168-0.645-1.907-1.199-2.219c-0.413-0.233-1.496-0.351-3.249-0.351h-1.585v5.686h0.464
		c1.443,0,2.323-0.109,2.639-0.329c0.316-0.219,0.532-0.857,0.648-1.914c0.026-0.271,0.097-0.406,0.213-0.406
		c0.142,0,0.212,0.116,0.212,0.348c0,0.232-0.013,0.574-0.039,1.025s-0.039,0.793-0.039,1.024c0,1.38,0.021,2.327,0.062,2.843
		c0.01,0.129,0.015,0.238,0.015,0.328c0,0.168-0.071,0.252-0.212,0.252c-0.09,0-0.15-0.055-0.183-0.164s-0.087-0.468-0.164-1.073
		c-0.103-0.761-0.417-1.231-0.943-1.412c-0.231-0.077-0.834-0.116-1.809-0.116h-0.866v6.478c2.835,0,4.499-0.057,4.988-0.172
		c0.851-0.19,1.334-1.006,1.45-2.444c0.026-0.318,0.109-0.478,0.251-0.478C126.687,77.959,126.751,78.095,126.751,78.365z"/>
	<path fill="#010101" d="M139.571,68.233c0,0.129-0.162,0.188-0.483,0.174h-0.425h-0.348c-0.207,0-0.329,0.036-0.368,0.106
		c-0.039,0.071-0.058,0.286-0.058,0.646v11.122c0,0.682-0.007,1.081-0.02,1.196c-0.013,0.116-0.051,0.174-0.115,0.174
		c-0.078,0-0.167-0.071-0.27-0.214l-2.471-3.618c-1.433-2.11-3.175-4.746-5.227-7.905v10.827c0.013,0.168,0.111,0.275,0.293,0.32
		c0.183,0.045,0.619,0.074,1.309,0.087c0.169,0,0.254,0.052,0.254,0.155c0,0.129-0.168,0.193-0.503,0.193
		c-0.116,0-0.483-0.02-1.102-0.059c-0.207-0.013-0.406-0.019-0.6-0.019c0.013,0-0.1,0.013-0.338,0.038
		c-0.238,0.025-0.603,0.039-1.092,0.039h-0.193c-0.297,0-0.445-0.059-0.445-0.175s0.129-0.174,0.387-0.174
		c0.761-0.013,1.202-0.062,1.325-0.146c0.122-0.084,0.184-0.358,0.184-0.822v-9.547c0-1.071-0.219-1.743-0.657-2.015
		c-0.207-0.129-0.574-0.193-1.103-0.193c-0.335,0-0.502-0.067-0.502-0.203c0-0.122,0.097-0.184,0.29-0.184
		c0.258,0,0.586,0.013,0.986,0.039c0.399,0.025,0.612,0.038,0.638,0.038c0.039,0,0.219-0.006,0.542-0.02
		c0.425,0,0.838-0.019,1.237-0.058l6.671,9.957v-8.604c0-0.399-0.006-0.641-0.019-0.725c-0.013-0.084-0.065-0.148-0.155-0.193
		c-0.09-0.046-0.4-0.068-0.928-0.068c-0.464,0-0.696-0.058-0.696-0.174c0-0.129,0.154-0.193,0.464-0.193h0.677
		c0.167,0,0.348,0,0.542,0c0.206,0,0.329,0,0.367,0c0.013,0,0.129,0,0.348,0c0.206,0,0.399,0,0.58,0h0.6
		C139.429,68.04,139.571,68.104,139.571,68.233z"/>
	<path fill="#010101" d="M148.891,77.708c0,1.108-0.422,2.053-1.266,2.833c-0.845,0.78-1.86,1.17-3.045,1.17
		c-0.696,0-1.528-0.213-2.495-0.639c-0.258-0.116-0.451-0.174-0.58-0.174c-0.155,0-0.251,0.179-0.29,0.535
		c-0.013,0.185-0.097,0.277-0.251,0.277c-0.129,0-0.193-0.078-0.193-0.232c0-0.103,0.006-0.181,0.02-0.232
		c0.103-0.786,0.155-1.514,0.155-2.185c0-0.129-0.013-0.489-0.039-1.083c-0.013-0.077-0.02-0.18-0.02-0.31
		c0-0.193,0.077-0.29,0.232-0.29c0.129,0,0.219,0.156,0.271,0.469c0.335,2.317,1.424,3.477,3.268,3.477
		c0.786,0,1.395-0.223,1.827-0.667c0.432-0.445,0.648-1.073,0.648-1.886c0-0.722-0.21-1.337-0.628-1.847
		c-0.419-0.509-1.138-1.015-2.156-1.518c-1.225-0.605-2.075-1.192-2.552-1.76s-0.715-1.27-0.715-2.107
		c0-1.07,0.345-1.953,1.035-2.649c0.689-0.696,1.562-1.044,2.62-1.044c0.438,0,1.044,0.148,1.818,0.444
		c0.271,0.104,0.47,0.155,0.599,0.155c0.142,0,0.235-0.025,0.281-0.077c0.045-0.052,0.087-0.188,0.125-0.406
		c0.026-0.129,0.097-0.193,0.213-0.193c0.128,0,0.193,0.077,0.193,0.231c0,0.104-0.007,0.181-0.02,0.232
		c-0.039,0.31-0.058,0.684-0.058,1.121c0,0.619,0.032,1.109,0.097,1.47l0.02,0.31c0.013,0.142-0.045,0.213-0.174,0.213
		c-0.142,0-0.238-0.148-0.29-0.445c-0.142-0.76-0.477-1.395-1.005-1.904c-0.529-0.509-1.122-0.764-1.779-0.764
		c-0.645,0-1.157,0.206-1.537,0.619c-0.38,0.412-0.57,0.973-0.57,1.682c0,0.825,0.277,1.489,0.831,1.992
		c0.31,0.283,0.979,0.683,2.011,1.198c1.211,0.606,2.082,1.222,2.61,1.847C148.626,76.197,148.891,76.909,148.891,77.708z"/>
	<path fill="#010101" d="M160.318,78.365c0,0.052-0.013,0.367-0.039,0.947s-0.039,1.135-0.039,1.663v0.639
		c-1.264-0.078-3.764-0.116-7.502-0.116c-0.451,0-0.896,0-1.334,0c-0.438,0-0.735,0-0.89,0h-0.193c-0.245,0-0.367-0.052-0.367-0.156
		c0-0.068,0.039-0.109,0.116-0.121c0.039,0,0.284-0.017,0.735-0.052c0.335-0.025,0.538-0.097,0.609-0.213s0.106-0.421,0.106-0.912
		V69.145c0-0.375-0.055-0.598-0.164-0.669c-0.11-0.071-0.461-0.106-1.054-0.106c-0.206,0-0.309-0.055-0.309-0.165
		c0-0.109,0.142-0.164,0.425-0.164h3.307c0.116,0,0.844,0,2.185,0s2.243,0,2.707,0c0.387,0,0.741-0.025,1.063-0.077
		c0.026,0.555,0.084,1.321,0.174,2.301l0.077,0.831c0.013,0.065,0.02,0.148,0.02,0.252c0,0.129-0.058,0.193-0.174,0.193
		c-0.142,0-0.245-0.162-0.309-0.486c-0.245-1.168-0.645-1.907-1.199-2.219c-0.413-0.233-1.496-0.351-3.249-0.351h-1.585v5.686h0.464
		c1.443,0,2.323-0.109,2.639-0.329c0.316-0.219,0.532-0.857,0.648-1.914c0.026-0.271,0.097-0.406,0.213-0.406
		c0.142,0,0.212,0.116,0.212,0.348c0,0.232-0.013,0.574-0.039,1.025s-0.039,0.793-0.039,1.024c0,1.38,0.021,2.327,0.062,2.843
		c0.01,0.129,0.015,0.238,0.015,0.328c0,0.168-0.071,0.252-0.212,0.252c-0.09,0-0.15-0.055-0.183-0.164s-0.087-0.468-0.164-1.073
		c-0.103-0.761-0.417-1.231-0.943-1.412c-0.231-0.077-0.834-0.116-1.809-0.116h-0.866v6.478c2.835,0,4.499-0.057,4.988-0.172
		c0.851-0.19,1.334-1.006,1.45-2.444c0.026-0.318,0.109-0.478,0.251-0.478C160.253,77.959,160.318,78.095,160.318,78.365z"/>
	<path fill="#010101" d="M169.773,77.708c0,1.108-0.422,2.053-1.266,2.833c-0.845,0.78-1.86,1.17-3.045,1.17
		c-0.696,0-1.528-0.213-2.495-0.639c-0.258-0.116-0.451-0.174-0.58-0.174c-0.155,0-0.251,0.179-0.29,0.535
		c-0.013,0.185-0.097,0.277-0.251,0.277c-0.129,0-0.193-0.078-0.193-0.232c0-0.103,0.006-0.181,0.02-0.232
		c0.103-0.786,0.155-1.514,0.155-2.185c0-0.129-0.013-0.489-0.039-1.083c-0.013-0.077-0.02-0.18-0.02-0.31
		c0-0.193,0.077-0.29,0.232-0.29c0.129,0,0.219,0.156,0.271,0.469c0.335,2.317,1.424,3.477,3.268,3.477
		c0.786,0,1.395-0.223,1.827-0.667c0.432-0.445,0.648-1.073,0.648-1.886c0-0.722-0.21-1.337-0.628-1.847
		c-0.419-0.509-1.138-1.015-2.156-1.518c-1.225-0.605-2.075-1.192-2.552-1.76s-0.715-1.27-0.715-2.107
		c0-1.07,0.345-1.953,1.035-2.649c0.689-0.696,1.562-1.044,2.62-1.044c0.438,0,1.044,0.148,1.818,0.444
		c0.271,0.104,0.47,0.155,0.599,0.155c0.142,0,0.235-0.025,0.281-0.077c0.045-0.052,0.087-0.188,0.125-0.406
		c0.026-0.129,0.097-0.193,0.213-0.193c0.128,0,0.193,0.077,0.193,0.231c0,0.104-0.007,0.181-0.02,0.232
		c-0.039,0.31-0.058,0.684-0.058,1.121c0,0.619,0.032,1.109,0.097,1.47l0.02,0.31c0.013,0.142-0.045,0.213-0.174,0.213
		c-0.142,0-0.238-0.148-0.29-0.445c-0.142-0.76-0.477-1.395-1.005-1.904c-0.529-0.509-1.122-0.764-1.779-0.764
		c-0.645,0-1.157,0.206-1.537,0.619c-0.38,0.412-0.57,0.973-0.57,1.682c0,0.825,0.277,1.489,0.831,1.992
		c0.31,0.283,0.979,0.683,2.011,1.198c1.211,0.606,2.082,1.222,2.61,1.847C169.509,76.197,169.773,76.909,169.773,77.708z"/>
	<path fill="#010101" d="M48.229,86.323c0,0.307-0.51,0.459-1.531,0.459c-1.123,0-2.245,0.376-3.368,1.126
		c-0.816,0.546-2.994,2.27-6.531,5.17l-3.878,3.173c-0.816,0.683-1.65,1.297-2.5,1.843c-1.463,0.955-2.194,1.603-2.194,1.944
		l0.153,0.461l0.255,0.768l5.103,15.969c0.476,1.535,0.875,2.456,1.199,2.763c0.323,0.309,1.012,0.461,2.066,0.461h0.408
		c0.306,0,0.646-0.051,1.021-0.152h0.51c0.374,0,0.561,0.136,0.561,0.408c0,0.408-0.63,0.611-1.888,0.611c0.068,0-0.536,0-1.812,0
		c-1.275,0-2.458,0-3.546,0h-1.479h-3.98c-0.851,0-1.276-0.16-1.276-0.482c0-0.358,0.238-0.537,0.714-0.537
		c0.408,0,0.766,0.051,1.072,0.152h0.765c0.816,0,1.225-0.29,1.225-0.872c-0.102-0.41-0.324-1.23-0.663-2.463l-3.929-13.083
		c-0.408-1.402-0.765-2.104-1.071-2.104c-0.171,0-0.442,0.495-0.816,1.483l-4.796,12.229c-0.885,2.251-1.327,3.531-1.327,3.838
		c0,0.648,0.493,0.972,1.479,0.972h0.459c0.272,0,0.578,0,0.918,0c0.34,0,0.527,0,0.561,0c0.952,0,1.429,0.137,1.429,0.408
		c0,0.307-0.323,0.459-0.969,0.459l-3.572-0.152L6.95,121.326c-0.51,0-0.766-0.136-0.766-0.41c0-0.305,0.238-0.457,0.714-0.457
		c0.204,0,0.51,0,0.918,0s0.714,0,0.918,0c1.088,0,1.803-0.152,2.143-0.459c0.17-0.136,0.357-0.408,0.561-0.816
		c0.34-0.646,0.97-2.126,1.888-4.439l9.287-23.318c0.612-1.53,1.088-2.807,1.429-3.827c0-0.68-0.74-1.003-2.22-0.969
		c-1.479,0.034-2.22-0.119-2.22-0.46c0-0.271,0.68-0.408,2.041-0.408h5.103h4.796c1.292,0,1.939,0.129,1.939,0.385
		c0,0.257-0.51,0.4-1.531,0.432c-0.851,0.034-1.479,0.104-1.888,0.205c-0.714,0.205-1.174,0.581-1.378,1.127l-1.071,2.919
		l-3.266,8.756c-0.136,0.342-0.273,0.717-0.408,1.127c0,0.205,0.084,0.307,0.255,0.307c0.102,0,0.238-0.084,0.408-0.255
		c0.272-0.307,0.646-0.562,1.123-0.766l3.572-2.5l1.684-1.327l4.439-3.622c2.347-1.905,3.793-3.146,4.337-3.726
		c0.374-0.408,0.561-0.833,0.561-1.275c0-0.578-0.528-0.867-1.582-0.867c-0.51,0-0.902,0.018-1.174,0.051h-0.816
		c-0.408,0-0.612-0.119-0.612-0.357c0-0.408,0.323-0.612,0.97-0.612h0.714c0.135,0,1.156,0.018,3.062,0.052
		c1.905,0.034,3.792,0.051,5.664,0.051C47.668,85.864,48.229,86.018,48.229,86.323z"/>
	<path fill="#010101" d="M66.189,99.588c0,0.103-0.136,0.457-0.408,1.066l-6.735,15.235c-0.646,1.455-0.969,2.573-0.969,3.352
		c0,0.88,0.441,1.32,1.327,1.32c1.327,0,2.653-0.901,3.98-2.704c0.272-0.374,0.476-0.562,0.612-0.562
		c0.135,0,0.204,0.068,0.204,0.204c0,0.374-0.375,0.97-1.123,1.786c-1.498,1.599-3.283,2.397-5.358,2.397
		c-1.055,0-1.913-0.255-2.577-0.765c-0.663-0.511-0.995-1.174-0.995-1.99c0-0.511,0.119-1.105,0.357-1.786
		c-2.143,3.13-4.626,4.694-7.45,4.694c-1.769,0-3.215-0.568-4.337-1.705s-1.684-2.588-1.684-4.354c0-1.934,0.646-4.056,1.939-6.363
		c1.292-2.308,3.01-4.412,5.153-6.313c2.925-2.579,5.613-3.869,8.062-3.869c2.551,0,3.98,1.225,4.286,3.674l1.276-2.704
		c0.272-0.544,0.51-0.816,0.714-0.816c0.068,0,0.272,0.034,0.612,0.103c0.339,0.068,0.578,0.102,0.714,0.102
		c0.748,0,1.327-0.079,1.735-0.238c0.135-0.079,0.255-0.119,0.357-0.119C66.087,99.232,66.189,99.352,66.189,99.588z M59.76,103.808
		c0-1.05-0.315-1.896-0.944-2.539c-0.63-0.643-1.438-0.964-2.424-0.964c-1.701,0-3.334,0.999-4.898,2.995
		c-1.803,2.268-3.249,4.663-4.337,7.184c-1.089,2.522-1.633,4.73-1.633,6.626c0,2.302,0.952,3.452,2.857,3.452
		c1.088,0,2.271-0.593,3.546-1.777c1.275-1.185,2.338-2.674,3.189-4.468l3.98-8.529C59.539,104.84,59.76,104.18,59.76,103.808z"/>
	<path fill="#010101" d="M86.14,101.631c0,0.681-0.222,1.268-0.663,1.761c-0.442,0.493-0.953,0.739-1.531,0.739
		c-0.544,0-0.816-0.187-0.816-0.561l0.102-0.511c0.068-0.204,0.102-0.391,0.102-0.562c0-0.816-0.408-1.225-1.225-1.225
		c-0.987,0-2.365,0.953-4.133,2.857c-1.769,1.906-3.436,4.576-5,8.012l-3.674,8.062c-0.34,0.783-0.629,1.174-0.867,1.174
		c-0.681-0.103-1.208-0.153-1.582-0.153c-0.579,0-1.038,0.051-1.377,0.153h-0.306c-0.306,0-0.459-0.068-0.459-0.205
		c0-0.033,0.051-0.103,0.153-0.204l0.255-0.512l8.623-19.642c0-0.272-0.222-0.409-0.664-0.409c0.034,0-0.034,0-0.204,0
		c-0.136,0.034-0.357,0.051-0.663,0.051H71.7c-0.51,0-0.766-0.118-0.766-0.356c0-0.204,0.884-0.34,2.653-0.408
		c1.769-0.068,2.959-0.222,3.572-0.46c0.272-0.067,0.425-0.102,0.459-0.102c0.204,0,0.306,0.102,0.306,0.306
		c0,0.171-0.222,0.8-0.664,1.889l-1.888,4.592c3.129-4.354,5.885-6.531,8.266-6.531C85.306,99.386,86.14,100.135,86.14,101.631z"/>
	<path fill="#010101" d="M101.09,85.507c0,0.068-0.085,0.307-0.255,0.715c-0.102,0.272-0.273,0.681-0.51,1.225l-11.43,27.91
		c-0.851,2.075-1.276,3.419-1.276,4.031c0,0.919,0.612,1.378,1.837,1.378s2.449-0.715,3.674-2.144
		c0.51-0.612,0.833-0.918,0.97-0.918c0.238,0,0.357,0.119,0.357,0.357c0,0.442-0.561,1.156-1.684,2.143
		c-1.293,1.156-2.959,1.734-5,1.734c-2.79,0-4.184-1.04-4.184-3.121c0-0.683,0.425-2.063,1.275-4.145l11.43-27.938
		c0.102-0.204,0.153-0.324,0.153-0.358c0-0.307-0.324-0.461-0.97-0.461c-1.497,0-2.245-0.116-2.245-0.35
		c0-0.175,0.153-0.263,0.459-0.263s0.773,0,1.403,0c0.629,0,1.097,0,1.403,0c1.462,0,2.551-0.045,3.266-0.137
		c0.374-0.044,0.629-0.067,0.766-0.067C100.903,85.099,101.09,85.235,101.09,85.507z"/>
	<path fill="#010101" d="M132.674,111.178c0,0.48-0.953,3.125-2.857,7.934l-0.612,1.546c-0.136,0.344-0.298,0.541-0.484,0.592
		c-0.188,0.052-0.809,0.077-1.863,0.077h-3.112c-1.429,0-2.85-0.034-4.261-0.102c-1.412-0.067-2.05-0.102-1.914-0.102
		c-0.136,0-0.681,0-1.633,0c-0.953,0-1.82,0-2.602,0h-4.082c-0.681,0-1.361,0-2.041,0c-0.681,0-1.004,0-0.97,0
		c-0.442,0-1.105,0.034-1.99,0.102s-1.547,0.102-1.99,0.102c-0.476,0-0.714-0.127-0.714-0.384c0-0.288,0.425-0.432,1.275-0.432
		c0.068,0.068,0.936,0.034,2.602-0.103c0.612-0.033,1.012-0.128,1.199-0.28c0.187-0.153,0.383-0.521,0.587-1.1
		c0.102-0.204,0.391-0.885,0.867-2.044l11.124-27.085c0.578-1.396,0.868-2.282,0.868-2.657c0-0.51-0.851-0.766-2.551-0.766
		c0.102,0-0.392,0.068-1.48,0.204c-0.306,0.034-0.459-0.117-0.459-0.454c0-0.378,0.816-0.566,2.449-0.566
		c-0.034,0,0.697,0.018,2.194,0.051c0.816,0.034,1.615,0.085,2.398,0.153c1.666,0.068,3.436,0.068,5.307,0h0.969
		c0.17-0.136,0.374-0.204,0.612-0.204c0.34,0,0.51,0.18,0.51,0.537c0,0.322-0.204,0.483-0.612,0.483c-0.034,0-0.391,0-1.071,0
		h-0.612c-1.191,0-1.931,0.093-2.22,0.279c-0.29,0.187-0.927,1.519-1.914,3.994l-10.613,26.604
		c-0.272,0.646-0.477,1.171-0.612,1.577c-0.068,0.137-0.119,0.255-0.153,0.356c0,0.543,0.697,0.814,2.092,0.814
		c4.762,0,8.028-0.238,9.797-0.715c2.585-0.68,4.711-2.585,6.378-5.715c0.612-1.156,1.037-2.058,1.275-2.704
		c0.102-0.307,0.255-0.459,0.459-0.459C132.521,110.714,132.674,110.868,132.674,111.178z"/>
	<path fill="#010101" d="M159.462,99.588c0,0.103-0.136,0.457-0.408,1.066l-6.735,15.235c-0.646,1.455-0.969,2.573-0.969,3.352
		c0,0.88,0.441,1.32,1.327,1.32c1.327,0,2.653-0.901,3.98-2.704c0.272-0.374,0.476-0.562,0.612-0.562
		c0.135,0,0.204,0.068,0.204,0.204c0,0.374-0.375,0.97-1.123,1.786c-1.498,1.599-3.283,2.397-5.358,2.397
		c-1.055,0-1.913-0.255-2.577-0.765c-0.663-0.511-0.995-1.174-0.995-1.99c0-0.511,0.119-1.105,0.357-1.786
		c-2.143,3.13-4.626,4.694-7.45,4.694c-1.769,0-3.215-0.568-4.337-1.705s-1.684-2.588-1.684-4.354c0-1.934,0.646-4.056,1.939-6.363
		c1.292-2.308,3.01-4.412,5.153-6.313c2.925-2.579,5.613-3.869,8.062-3.869c2.551,0,3.98,1.225,4.286,3.674l1.276-2.704
		c0.272-0.544,0.51-0.816,0.714-0.816c0.068,0,0.272,0.034,0.612,0.103c0.339,0.068,0.578,0.102,0.714,0.102
		c0.748,0,1.327-0.079,1.735-0.238c0.135-0.079,0.255-0.119,0.357-0.119C159.36,99.232,159.462,99.352,159.462,99.588z
		 M153.033,103.808c0-1.05-0.315-1.896-0.944-2.539c-0.63-0.643-1.438-0.964-2.424-0.964c-1.701,0-3.334,0.999-4.898,2.995
		c-1.803,2.268-3.249,4.663-4.337,7.184c-1.089,2.522-1.633,4.73-1.633,6.626c0,2.302,0.952,3.452,2.857,3.452
		c1.088,0,2.271-0.593,3.546-1.777c1.275-1.185,2.338-2.674,3.189-4.468l3.98-8.529C152.811,104.84,153.033,104.18,153.033,103.808z
		"/>
	<path fill="#010101" d="M179.413,101.631c0,0.681-0.222,1.268-0.663,1.761c-0.442,0.493-0.953,0.739-1.531,0.739
		c-0.544,0-0.816-0.187-0.816-0.561l0.103-0.511c0.067-0.204,0.102-0.391,0.102-0.562c0-0.816-0.408-1.225-1.225-1.225
		c-0.987,0-2.364,0.953-4.133,2.857c-1.769,1.906-3.436,4.576-5,8.012l-3.674,8.062c-0.34,0.783-0.629,1.174-0.867,1.174
		c-0.681-0.103-1.208-0.153-1.582-0.153c-0.579,0-1.038,0.051-1.377,0.153h-0.306c-0.306,0-0.459-0.068-0.459-0.205
		c0-0.033,0.051-0.103,0.153-0.204l0.255-0.512l8.623-19.642c0-0.272-0.222-0.409-0.664-0.409c0.034,0-0.034,0-0.204,0
		c-0.136,0.034-0.357,0.051-0.663,0.051h-0.51c-0.51,0-0.766-0.118-0.766-0.356c0-0.204,0.884-0.34,2.653-0.408
		c1.769-0.068,2.959-0.222,3.572-0.46c0.272-0.067,0.425-0.102,0.459-0.102c0.204,0,0.306,0.102,0.306,0.306
		c0,0.171-0.222,0.8-0.664,1.889l-1.888,4.592c3.129-4.354,5.885-6.531,8.266-6.531C178.579,99.386,179.413,100.135,179.413,101.631
		z"/>
	<path fill="#010101" d="M200.64,101.223c0,1.089-0.511,1.633-1.531,1.633c-0.952,0-1.429-0.459-1.429-1.378
		c0-0.102,0.018-0.212,0.052-0.331c0.033-0.119,0.067-0.281,0.102-0.485c0-0.17-0.102-0.255-0.306-0.255
		c-0.341,0-0.825,0.366-1.454,1.097c-0.63,0.732-0.944,1.285-0.944,1.659c0,0.17,0.067,0.374,0.204,0.612
		c0.408,0.952,0.612,1.989,0.612,3.112c0,2.415-0.809,4.465-2.424,6.148c-1.616,1.684-3.768,2.525-6.455,2.525
		c-1.973,0-3.742-0.561-5.307-1.684c-2.619,0.919-3.929,1.939-3.929,3.062c0,0.715,0.511,1.157,1.531,1.327
		c1.904,0.306,2.976,0.425,3.214,0.356h4.235c1.939,0,3.334,0.103,4.185,0.307c2.517,0.612,3.775,2.449,3.775,5.511
		c0,2.721-0.97,5.068-2.908,7.041c-2.075,2.109-4.949,3.164-8.623,3.164c-2.653,0-5.001-0.612-7.042-1.837
		c-2.482-1.497-3.725-3.249-3.725-5.256c0-1.396,0.63-2.552,1.888-3.47c0.579-0.408,1.853-0.987,3.827-1.735
		c-1.974-0.816-2.959-2.006-2.959-3.571c0-2.585,1.972-4.439,5.918-5.562c-1.089-1.429-1.633-2.874-1.633-4.337
		c0-2.619,0.961-4.873,2.884-6.762c1.921-1.888,4.209-2.831,6.862-2.831c2.041,0,3.776,0.918,5.205,2.755
		c1.258-1.938,2.584-2.908,3.979-2.908C199.907,99.131,200.64,99.828,200.64,101.223z M193.292,126.327
		c0-0.851-0.272-1.607-0.816-2.271c-0.545-0.663-1.225-1.08-2.041-1.25c-1.123-0.238-2.908-0.341-5.357-0.307h-5.767
		c-2.109,1.063-3.163,2.712-3.163,4.943c0,1.888,0.671,3.407,2.016,4.558c1.344,1.149,3.12,1.725,5.332,1.725
		c2.619,0,4.906-0.739,6.863-2.22C192.313,130.026,193.292,128.3,193.292,126.327z M192.373,103.685c0-2.39-0.986-3.584-2.959-3.584
		c-1.633,0-3.096,1.434-4.389,4.301c-1.122,2.458-1.684,4.762-1.684,6.912c0,2.22,1.089,3.329,3.266,3.329
		c1.599,0,2.977-1.314,4.133-3.942C191.829,108.242,192.373,105.903,192.373,103.685z"/>
	<path fill="#010101" d="M219.213,102.735c0,1.828-0.987,3.343-2.96,4.543c-1.973,1.202-4.474,1.803-7.501,1.803
		c-1.089,0-2.296-0.068-3.622-0.204c-1.259,2.608-1.889,5.029-1.889,7.265c0,3.015,1.344,4.521,4.031,4.521
		c2.075,0,4.099-1.073,6.072-3.223c0.441-0.471,0.731-0.706,0.867-0.706c0.17,0,0.255,0.085,0.255,0.253
		c0,0.774-0.799,1.734-2.397,2.88c-1.837,1.313-3.742,1.97-5.715,1.97c-2.212,0-4.031-0.645-5.46-1.935s-2.144-2.918-2.144-4.888
		c0-3.801,2.075-7.483,6.226-11.047c3.64-3.122,6.889-4.684,9.746-4.684C217.715,99.284,219.213,100.435,219.213,102.735z
		 M215.59,101.886c0-1.054-0.528-1.581-1.582-1.581c-1.089,0-2.16,0.408-3.215,1.225c-1.905,1.497-3.656,3.725-5.255,6.684
		c0.408,0.034,0.867,0.052,1.377,0.052c1.905,0,3.759-0.578,5.562-1.735C214.552,105.237,215.59,103.689,215.59,101.886z"/>
	<path fill="#010101" d="M238.091,101.631c0,0.681-0.222,1.268-0.663,1.761c-0.442,0.493-0.953,0.739-1.531,0.739
		c-0.544,0-0.816-0.187-0.816-0.561l0.103-0.511c0.067-0.204,0.102-0.391,0.102-0.562c0-0.816-0.408-1.225-1.225-1.225
		c-0.986,0-2.364,0.953-4.133,2.857c-1.769,1.906-3.436,4.576-5,8.012l-3.674,8.062c-0.341,0.783-0.63,1.174-0.868,1.174
		c-0.681-0.103-1.207-0.153-1.581-0.153c-0.579,0-1.038,0.051-1.378,0.153h-0.306c-0.307,0-0.46-0.068-0.46-0.205
		c0-0.033,0.052-0.103,0.153-0.204l0.255-0.512l8.623-19.642c0-0.272-0.221-0.409-0.663-0.409c0.034,0-0.034,0-0.204,0
		c-0.136,0.034-0.357,0.051-0.663,0.051h-0.511c-0.51,0-0.765-0.118-0.765-0.356c0-0.204,0.884-0.34,2.653-0.408
		c1.769-0.068,2.959-0.222,3.571-0.46c0.272-0.067,0.425-0.102,0.459-0.102c0.204,0,0.307,0.102,0.307,0.306
		c0,0.171-0.222,0.8-0.663,1.889l-1.889,4.592c3.13-4.354,5.885-6.531,8.267-6.531C237.257,99.386,238.091,100.135,238.091,101.631z
		"/>
	<path fill="#010101" d="M260.593,88.415c0,1.327-0.63,1.99-1.888,1.99c-0.442,0-0.825-0.145-1.148-0.434s-0.484-0.62-0.484-0.995
		c0-0.271,0.221-0.663,0.663-1.174c0.136-0.271,0.204-0.492,0.204-0.663c0-0.85-0.714-1.275-2.143-1.275
		c-1.498,0-2.705,0.636-3.623,1.906c-0.919,1.271-2.075,3.854-3.47,7.752l-1.378,3.863h5.256c0.17,0,0.391,0,0.663,0
		c0.374,0,0.562,0.179,0.562,0.536c0,0.356-0.238,0.535-0.715,0.535h-5.97l-4.439,12.145c-3.197,8.742-6.31,14.848-9.337,18.317
		c-1.225,1.395-2.355,2.373-3.394,2.935c-1.037,0.562-2.271,0.842-3.699,0.842c-2.891,0-4.337-0.97-4.337-2.908
		c0-1.396,0.748-2.093,2.245-2.093c1.021,0,1.53,0.431,1.53,1.292c0,0.275-0.17,0.637-0.51,1.084
		c-0.204,0.241-0.307,0.465-0.307,0.673c0,0.757,0.511,1.136,1.531,1.136c1.769,0,3.283-0.854,4.541-2.563
		c0.987-1.367,2.279-4.323,3.878-8.868l7.705-21.99h-1.174h-2.552c-0.272,0.137-0.578,0.204-0.918,0.204
		c-0.408,0-0.612-0.131-0.612-0.392c0-0.49,0.425-0.785,1.275-0.884c0.068,0,0.681,0,1.837,0h1.837h0.715
		c2.041-4.847,3.707-8.151,5-9.914c2.144-2.881,4.848-4.322,8.113-4.322c1.36,0,2.457,0.299,3.291,0.894
		C260.176,86.639,260.593,87.429,260.593,88.415z"/>
	<path fill="#010101" d="M261.409,99.589c0,0.103-0.085,0.306-0.255,0.611c-0.238,0.407-0.63,1.238-1.174,2.494l-5.868,13.388
		c-0.782,1.799-1.174,2.919-1.174,3.36c0,0.916,0.477,1.374,1.429,1.374c0.646,0,1.386-0.226,2.22-0.677
		c0.833-0.451,1.472-0.994,1.914-1.63c0.306-0.401,0.544-0.602,0.714-0.602c0.204,0,0.307,0.101,0.307,0.302
		c0,0.403-0.477,1.008-1.429,1.813c-1.429,1.209-3.045,1.813-4.848,1.813c-1.191,0-2.169-0.307-2.934-0.916
		c-0.766-0.61-1.148-1.392-1.148-2.342c0-0.848,0.425-2.223,1.275-4.123l5.307-11.811c0.17-0.576,0.374-1.017,0.612-1.323
		c0.103-0.136,0.153-0.254,0.153-0.356c0-0.305-0.749-0.509-2.245-0.61c-0.272-0.068-0.408-0.187-0.408-0.357
		c0-0.306,0.136-0.459,0.408-0.459c0.033,0,0.289,0.034,0.766,0.102c0.476,0.069,1.241,0.103,2.296,0.103
		c1.429,0,2.432-0.119,3.011-0.357c0.34-0.136,0.578-0.204,0.714-0.204C261.29,99.182,261.409,99.318,261.409,99.589z
		 M264.93,90.048c0,1.429-0.663,2.144-1.99,2.144c-0.681,0-1.241-0.212-1.684-0.638c-0.442-0.425-0.663-0.961-0.663-1.607
		c0-1.395,0.782-2.092,2.347-2.092C264.267,87.854,264.93,88.586,264.93,90.048z"/>
	<path fill="#010101" d="M281.768,102.735c0,1.828-0.987,3.343-2.96,4.543c-1.973,1.202-4.474,1.803-7.501,1.803
		c-1.089,0-2.296-0.068-3.622-0.204c-1.259,2.608-1.889,5.029-1.889,7.265c0,3.015,1.344,4.521,4.031,4.521
		c2.075,0,4.099-1.073,6.072-3.223c0.441-0.471,0.731-0.706,0.867-0.706c0.17,0,0.255,0.085,0.255,0.253
		c0,0.774-0.799,1.734-2.397,2.88c-1.837,1.313-3.742,1.97-5.715,1.97c-2.212,0-4.031-0.645-5.46-1.935s-2.144-2.918-2.144-4.888
		c0-3.801,2.075-7.483,6.226-11.047c3.64-3.122,6.889-4.684,9.746-4.684C280.27,99.284,281.768,100.435,281.768,102.735z
		 M278.145,101.886c0-1.054-0.528-1.581-1.582-1.581c-1.089,0-2.16,0.408-3.215,1.225c-1.905,1.497-3.656,3.725-5.255,6.684
		c0.408,0.034,0.867,0.052,1.377,0.052c1.905,0,3.759-0.578,5.562-1.735C277.106,105.237,278.145,103.689,278.145,101.886z"/>
	<path fill="#010101" d="M298.401,85.507c0,0.068-0.085,0.307-0.255,0.715c-0.103,0.272-0.272,0.681-0.511,1.225l-11.43,27.91
		c-0.851,2.075-1.275,3.419-1.275,4.031c0,0.919,0.612,1.378,1.837,1.378s2.449-0.715,3.674-2.144
		c0.511-0.612,0.833-0.918,0.97-0.918c0.237,0,0.357,0.119,0.357,0.357c0,0.442-0.562,1.156-1.685,2.143
		c-1.293,1.156-2.959,1.734-5,1.734c-2.79,0-4.185-1.04-4.185-3.121c0-0.683,0.426-2.063,1.276-4.145l11.43-27.938
		c0.102-0.204,0.152-0.324,0.152-0.358c0-0.307-0.323-0.461-0.969-0.461c-1.497,0-2.245-0.116-2.245-0.35
		c0-0.175,0.152-0.263,0.459-0.263c0.306,0,0.773,0,1.403,0c0.629,0,1.097,0,1.403,0c1.462,0,2.551-0.045,3.266-0.137
		c0.374-0.044,0.629-0.067,0.765-0.067C298.214,85.099,298.401,85.235,298.401,85.507z"/>
	<path fill="#010101" d="M324.577,85.251c-0.034,0.103-0.086,0.222-0.153,0.357c-0.137,0.271-0.324,0.662-0.562,1.172
		l-11.634,28.176c-0.885,2.141-1.326,3.466-1.326,3.975c0,0.951,0.543,1.427,1.633,1.427c1.633,0,3.027-0.889,4.184-2.666
		c0.374-0.569,0.629-0.854,0.766-0.854c0.237,0,0.357,0.136,0.357,0.408c0,0.578-0.579,1.395-1.735,2.449
		c-1.429,1.293-3.146,1.938-5.153,1.938c-2.552,0-3.827-1.088-3.827-3.266c0-0.441,0-0.936,0-1.479
		c-1.25,1.784-2.449,3.056-3.597,3.813c-1.148,0.756-2.499,1.136-4.052,1.136c-1.893,0-3.438-0.603-4.637-1.808
		c-1.199-1.204-1.798-2.774-1.798-4.709c0-4.005,1.905-7.79,5.715-11.354c3.436-3.224,6.718-4.836,9.848-4.836
		c2.177,0,3.623,1.038,4.338,3.112l0.306-0.616l0.357-0.771l5.816-14.067c0.136-0.171,0.204-0.324,0.204-0.462
		c0-0.239-0.094-0.385-0.28-0.436c-0.188-0.052-0.825-0.112-1.913-0.181c-0.646-0.028-0.97-0.129-0.97-0.302s0.187-0.26,0.562-0.26
		h0.612c0.441,0,1.079,0,1.913,0c0.833,0,1.437,0,1.812,0c1.292,0,2.125-0.045,2.5-0.136c0.204-0.045,0.34-0.068,0.408-0.068
		C324.475,84.945,324.577,85.048,324.577,85.251z M312.279,103.256c0-0.78-0.356-1.476-1.071-2.087
		c-0.714-0.61-1.514-0.916-2.398-0.916c-2.518,0-5.085,2.104-7.704,6.312c-2.483,3.971-3.726,7.329-3.726,10.077
		c0,2.478,1.123,3.716,3.368,3.716c1.973,0,3.911-1.374,5.816-4.123c1.36-1.934,2.534-4.19,3.521-6.769l1.173-3.004
		C311.939,104.732,312.279,103.663,312.279,103.256z"/>
</g>
<g>
</g>
<g>
</g>
<g>
</g>
<g>
</g>
<g>
</g>
<g>
</g>
</svg>
