<?xml version="1.0" encoding="utf-8"?>
<!-- Generator: Adobe Illustrator 18.1.1, SVG Export Plug-In . SVG Version: 6.00 Build 0)  -->
<svg version="1.1" id="Layer_1" xmlns="http://www.w3.org/2000/svg" xmlns:xlink="http://www.w3.org/1999/xlink" x="0px" y="0px"
	 viewBox="-142 299.7 326.8 195.3" enable-background="new -142 299.7 326.8 195.3" xml:space="preserve">
<g>
	<path fill="#010101" d="M-120.4,367.9c0,0.1-0.1,0.2-0.4,0.2c-0.6,0-0.9,0.1-1.1,0.3s-0.4,0.5-0.6,1.1l-0.7,1.8
		c-1.6,4.4-2.7,7.7-3.3,10c0,0.2-0.1,0.2-0.2,0.2c-0.1,0-0.3-0.5-0.6-1.5c-0.6-1.8-1-3.1-1.4-4c-0.3-1-0.9-2.4-1.5-4.4l-0.9-2.6
		c-0.1-0.4-0.3-0.6-0.4-0.7c-0.2-0.1-0.4-0.2-0.8-0.2c-0.4,0-0.7,0-0.8,0c-0.1,0-0.1-0.1-0.1-0.2c0-0.1,0.1-0.2,0.4-0.2h0.2
		c0.2,0,0.6,0,1.2,0c0.6,0,1,0,1.2,0c0.1,0,0.3,0,0.7,0c0.4,0,1,0,1.8,0h0.3c0.2,0,0.3,0.1,0.3,0.2c0,0.1-0.2,0.2-0.7,0.2l-1.2,0
		c-0.3,0-0.4,0.1-0.4,0.3c0,0,0,0.1,0,0.2l0.1,0.5c0,0.1,0.7,1.9,1.9,5.4c0.2,0.6,0.6,1.8,1.2,3.5c2.1-6,3.2-9.2,3.2-9.5
		c0-0.3-0.3-0.4-0.9-0.4h-0.6c-0.2,0-0.2-0.1-0.2-0.2c0-0.1,0.2-0.2,0.6-0.2c0.1,0,0.3,0,0.7,0c0.4,0,0.6,0.1,0.8,0.1h0.6l1.3-0.1
		C-120.5,367.7-120.4,367.8-120.4,367.9z"/>
	<path fill="#010101" d="M-108.3,381.1c0,0.1-0.1,0.2-0.3,0.2c-0.1,0-0.2,0-0.3,0l-2.5-0.1l-2.5,0.1c-0.1,0-0.2,0-0.3,0
		c-0.3,0-0.4-0.1-0.4-0.2c0-0.1,0.2-0.2,0.5-0.2c1.1,0,1.7-0.1,1.7-0.3c0,0,0-0.1,0-0.2l-0.2-0.5l-0.1-0.3c-0.1-0.4-0.4-1.3-0.9-2.7
		h-4.1c-0.8,2.1-1.2,3.2-1.2,3.6c0,0.2,0.1,0.3,0.2,0.3c0,0,0.4,0,1,0.1c0.4,0,0.6,0.1,0.6,0.2c0,0.1-0.2,0.2-0.5,0.2
		c-0.6,0-1.3,0-2.1-0.1c-0.2,0-0.4,0-0.6,0c-0.2,0-0.4,0-0.6,0.1c-0.1,0-0.2,0-0.3,0c-0.2,0-0.3-0.1-0.3-0.2c0-0.1,0.2-0.2,0.6-0.2
		s0.7-0.1,0.9-0.2c0.2-0.1,0.3-0.3,0.4-0.6c1.7-4.8,3-8.6,4-11.5c0-0.2,0.1-0.3,0.2-0.5l0.1-0.4c0-0.1,0.1-0.2,0.2-0.2
		c0,0,0.1,0,0.1,0.1c0.2,0.5,0.5,1.6,1.1,3.2c0.5,1.2,1.6,4.4,3.5,9.4c0.1,0.3,0.2,0.5,0.4,0.6c0.2,0.1,0.5,0.1,1,0.1
		C-108.5,380.9-108.3,381-108.3,381.1z M-113.5,376.5c-0.2-0.6-0.6-1.5-1-2.9l-0.9-2.7c-0.5,1.4-1.2,3.3-2,5.6
		C-117.5,376.5-113.5,376.5-113.5,376.5z"/>
	<path fill="#010101" d="M-96.7,368c0,0.1-0.2,0.2-0.5,0.2h-0.4H-98c-0.2,0-0.3,0-0.4,0.1c0,0.1-0.1,0.3-0.1,0.6V380
		c0,0.7,0,1.1,0,1.2c0,0.1-0.1,0.2-0.1,0.2c-0.1,0-0.2-0.1-0.3-0.2l-2.5-3.6c-1.4-2.1-3.2-4.7-5.2-7.9v10.8c0,0.2,0.1,0.3,0.3,0.3
		c0.2,0,0.6,0.1,1.3,0.1c0.2,0,0.3,0.1,0.3,0.2c0,0.1-0.2,0.2-0.5,0.2c-0.1,0-0.5,0-1.1-0.1c-0.2,0-0.4,0-0.6,0c0,0-0.1,0-0.3,0
		c-0.2,0-0.6,0-1.1,0h-0.2c-0.3,0-0.4-0.1-0.4-0.2c0-0.1,0.1-0.2,0.4-0.2c0.8,0,1.2-0.1,1.3-0.1c0.1-0.1,0.2-0.4,0.2-0.8v-9.5
		c0-1.1-0.2-1.7-0.7-2c-0.2-0.1-0.6-0.2-1.1-0.2c-0.3,0-0.5-0.1-0.5-0.2c0-0.1,0.1-0.2,0.3-0.2c0.3,0,0.6,0,1,0c0.4,0,0.6,0,0.6,0
		c0,0,0.2,0,0.5,0c0.4,0,0.8,0,1.2-0.1l6.7,10v-8.6c0-0.4,0-0.6,0-0.7c0-0.1-0.1-0.1-0.2-0.2c-0.1,0-0.4-0.1-0.9-0.1
		c-0.5,0-0.7-0.1-0.7-0.2c0-0.1,0.2-0.2,0.5-0.2h0.7c0.2,0,0.3,0,0.5,0c0.2,0,0.3,0,0.4,0c0,0,0.1,0,0.3,0c0.2,0,0.4,0,0.6,0h0.6
		C-96.9,367.8-96.7,367.8-96.7,368z"/>
	<path fill="#010101" d="M-90.9,381c0,0.1-0.1,0.2-0.2,0.2h-0.2c-0.1,0-1-0.1-2.6-0.1c-0.3,0-0.6,0-1,0c-0.2,0-0.4,0-0.8,0
		c-0.2,0-0.3-0.1-0.3-0.2c0-0.1,0.2-0.2,0.5-0.2c0.5,0,0.8-0.1,0.9-0.2c0.1-0.1,0.1-0.5,0.1-1.1v-10.2c0-0.6,0-1-0.1-1.1
		c-0.1-0.1-0.4-0.2-1.1-0.2c-0.2,0-0.4-0.1-0.4-0.1c0-0.1,0.1-0.2,0.2-0.2h2.6c0.2,0,0.6,0,1.1,0l0.7,0c0.2,0,0.3,0.1,0.3,0.2
		c0,0.1-0.3,0.2-0.9,0.2c-0.3,0-0.5,0.1-0.6,0.2c-0.1,0.1-0.1,0.4-0.1,0.8v10.3c0,0.7,0,1.1,0.1,1.2c0.1,0.1,0.6,0.2,1.3,0.3
		C-91,380.9-90.9,380.9-90.9,381z"/>
	<path fill="#010101" d="M-79.4,371.2c0,0.2-0.1,0.3-0.2,0.3s-0.3-0.2-0.3-0.5c0-0.2-0.1-0.5-0.1-0.7c-0.1-0.5-0.2-0.9-0.4-1.2
		c-0.3-0.4-0.7-0.7-1.3-0.8c-0.4-0.1-0.7-0.1-1-0.1c-0.6,0-1,0-1.1,0v11.7c0,0.5,0.1,0.8,0.4,0.9c0.1,0.1,0.5,0.1,1.1,0.1
		c0.2,0,0.2,0.1,0.2,0.2c0,0.1-0.1,0.2-0.3,0.2c-0.1,0-0.2,0-0.3,0c-0.8,0-1.3,0-1.6,0c-0.4,0-0.8,0-1.2,0s-0.9,0-1.4,0
		c-0.3,0-0.4-0.1-0.4-0.2c0-0.1,0.3-0.2,0.8-0.2c0.4,0,0.7-0.1,0.8-0.3c0.1-0.1,0.1-0.4,0.1-0.8v-11.6c-1.3,0-2.1,0.1-2.4,0.2
		c-0.8,0.3-1.3,1.1-1.4,2.4c0,0.4-0.1,0.6-0.3,0.6c-0.2,0-0.2-0.1-0.2-0.4c0-0.1,0-0.3,0-0.4l0-0.4c0-0.6,0.1-1.4,0.2-2.3h0.9
		l3.9,0.1c0.5,0,1.2,0,2.2,0l3.2-0.1c0,0.7,0.1,1.8,0.3,3.2c0,0,0,0.1,0,0.1C-79.4,371.2-79.4,371.2-79.4,371.2z"/>
	<path fill="#010101" d="M-67.1,367.9c0,0.1-0.1,0.1-0.3,0.1c-0.7,0-1.1,0.1-1.3,0.4c-0.2,0.1-0.7,1.3-1.7,3.3
		c-0.4,0.9-0.8,1.7-1.2,2.4c-0.3,0.5-0.4,0.8-0.4,1c0,0.2-0.1,0.6-0.1,1.1v3.7c0,0.4,0.1,0.7,0.2,0.8c0.1,0.1,0.5,0.1,1.2,0.2
		c0.3,0,0.5,0.1,0.5,0.2c0,0.1-0.1,0.1-0.3,0.1h-0.2l-2.7-0.1c-0.8,0-1.4,0-1.9,0c-0.1,0-0.2,0-0.3,0c-0.2,0-0.3-0.1-0.3-0.2
		s0.1-0.2,0.4-0.2c0.7,0,1.1-0.1,1.3-0.2c0.1-0.1,0.2-0.4,0.2-0.9v-4.1c-0.1-0.3-0.5-1-1.1-2.3l-1.9-3.8c-0.2-0.4-0.4-0.8-0.7-1.3
		c-0.1-0.1-0.4-0.2-0.9-0.2c-0.5,0-0.7-0.1-0.7-0.2c0-0.1,0.1-0.2,0.3-0.2c0.3,0,0.8,0,1.6,0c0.5,0,0.8,0,1,0l2.2,0
		c0.1,0,0.2,0,0.3,0c0.2,0,0.3,0.1,0.3,0.2c0,0.1-0.2,0.2-0.7,0.2c-0.8,0-1.2,0.1-1.2,0.4c0,0.2,0.4,1.1,1.2,2.7l1.8,3.3
		c0.3-0.6,0.7-1.3,1.1-2.1l1.1-2.3c0.4-0.8,0.6-1.4,0.6-1.6c0-0.2-0.1-0.3-0.3-0.3c-0.5-0.1-0.8-0.1-0.9-0.1c-0.3,0-0.4-0.1-0.4-0.2
		c0-0.1,0.1-0.2,0.4-0.2h1.1h0.6C-67.8,367.7-67.1,367.8-67.1,367.9z"/>
	<path fill="#010101" d="M-50.7,374.6c0,1.9-0.6,3.5-1.7,4.9c-1.2,1.3-2.6,2-4.2,2c-1.8,0-3.3-0.7-4.5-2c-1.2-1.3-1.8-3-1.8-5
		c0-2,0.6-3.7,1.8-4.9c1.2-1.3,2.7-1.9,4.5-1.9c1.7,0,3.2,0.7,4.3,2C-51.2,370.9-50.7,372.6-50.7,374.6z M-52.8,374.7
		c0-2.4-0.5-4.2-1.4-5.5c-0.6-0.8-1.4-1.2-2.5-1.2c-1,0-1.8,0.3-2.4,1c-1,1.2-1.6,3.1-1.6,5.7c0,2.1,0.4,3.7,1.1,4.8
		c0.7,1.2,1.8,1.7,3.1,1.7c1.2,0,2.1-0.5,2.8-1.6C-53.2,378.3-52.8,376.7-52.8,374.7z"/>
	<path fill="#010101" d="M-39.3,371c0,0.2-0.1,0.3-0.2,0.3c-0.1,0-0.2-0.2-0.3-0.5c-0.2-0.9-0.5-1.6-0.9-2.1
		c-0.3-0.3-0.8-0.4-1.4-0.5c-0.2,0-0.7,0-1.5,0c-0.6,0-1.3,0-2.1,0.1v5.7c1.7,0,2.7-0.1,3.1-0.3c0.4-0.2,0.6-0.9,0.7-1.9
		c0-0.3,0.1-0.4,0.2-0.4s0.2,0.1,0.2,0.3c0,0.1,0,0.2,0,0.3c0,0.9-0.1,1.7-0.1,2.5c0,1,0,1.8,0.1,2.3c0,0.1,0,0.1,0,0.2
		c0,0.2-0.1,0.2-0.2,0.2c-0.1,0-0.2,0-0.2-0.1c0-0.1-0.1-0.4-0.1-0.9c-0.1-0.8-0.3-1.3-0.6-1.5c-0.3-0.2-0.9-0.3-1.8-0.3
		c-0.5,0-0.9,0-1.3,0v2v3.8c0,0.4,0.1,0.6,0.4,0.7c0.1,0.1,0.5,0.1,0.9,0.1c0.2,0,0.3,0.1,0.3,0.2c0,0.1-0.1,0.2-0.4,0.2h-0.2
		c-0.2,0-0.4,0-0.7,0c-0.3,0-0.5,0-0.6,0H-49c-0.2,0-0.4-0.1-0.4-0.2s0.2-0.2,0.7-0.2c0.4,0,0.7-0.1,0.8-0.2
		c0.1-0.1,0.1-0.4,0.1-0.9v-11.1c0-0.2-0.1-0.4-0.2-0.4c-0.1-0.1-0.5-0.1-1-0.1c-0.2,0-0.3-0.1-0.3-0.2c0-0.1,0.1-0.2,0.3-0.2h0.3
		c0,0,0.6,0,1.9,0s2.3,0,3.1,0c2.2,0,3.5,0,4-0.1c0,0.2,0.1,0.7,0.1,1.4c0,0.5,0.1,1,0.2,1.5C-39.4,370.7-39.3,370.9-39.3,371z"/>
	<path fill="#010101" d="M-26.7,377.4c0,1.1-0.4,2.1-1.3,2.8c-0.8,0.8-1.9,1.2-3,1.2c-0.7,0-1.5-0.2-2.5-0.6
		c-0.3-0.1-0.5-0.2-0.6-0.2c-0.2,0-0.3,0.2-0.3,0.5c0,0.2-0.1,0.3-0.3,0.3c-0.1,0-0.2-0.1-0.2-0.2c0-0.1,0-0.2,0-0.2
		c0.1-0.8,0.2-1.5,0.2-2.2c0-0.1,0-0.5,0-1.1c0-0.1,0-0.2,0-0.3c0-0.2,0.1-0.3,0.2-0.3c0.1,0,0.2,0.2,0.3,0.5
		c0.3,2.3,1.4,3.5,3.3,3.5c0.8,0,1.4-0.2,1.8-0.7c0.4-0.4,0.6-1.1,0.6-1.9c0-0.7-0.2-1.3-0.6-1.8c-0.4-0.5-1.1-1-2.2-1.5
		c-1.2-0.6-2.1-1.2-2.6-1.8s-0.7-1.3-0.7-2.1c0-1.1,0.3-2,1-2.6c0.7-0.7,1.6-1,2.6-1c0.4,0,1,0.1,1.8,0.4c0.3,0.1,0.5,0.2,0.6,0.2
		c0.1,0,0.2,0,0.3-0.1c0-0.1,0.1-0.2,0.1-0.4c0-0.1,0.1-0.2,0.2-0.2c0.1,0,0.2,0.1,0.2,0.2c0,0.1,0,0.2,0,0.2c0,0.3-0.1,0.7-0.1,1.1
		c0,0.6,0,1.1,0.1,1.5l0,0.3c0,0.1,0,0.2-0.2,0.2c-0.1,0-0.2-0.1-0.3-0.4c-0.1-0.8-0.5-1.4-1-1.9c-0.5-0.5-1.1-0.8-1.8-0.8
		c-0.6,0-1.2,0.2-1.5,0.6c-0.4,0.4-0.6,1-0.6,1.7c0,0.8,0.3,1.5,0.8,2c0.3,0.3,1,0.7,2,1.2c1.2,0.6,2.1,1.2,2.6,1.8
		C-26.9,375.9-26.7,376.6-26.7,377.4z"/>
	<path fill="#010101" d="M-15.2,378.1c0,0.1,0,0.4,0,0.9c0,0.6,0,1.1,0,1.7v0.6c-1.3-0.1-3.8-0.1-7.5-0.1c-0.5,0-0.9,0-1.3,0
		c-0.4,0-0.7,0-0.9,0h-0.2c-0.2,0-0.4-0.1-0.4-0.2c0-0.1,0-0.1,0.1-0.1c0,0,0.3,0,0.7-0.1c0.3,0,0.5-0.1,0.6-0.2s0.1-0.4,0.1-0.9
		v-10.9c0-0.4-0.1-0.6-0.2-0.7c-0.1-0.1-0.5-0.1-1.1-0.1c-0.2,0-0.3-0.1-0.3-0.2c0-0.1,0.1-0.2,0.4-0.2h3.3c0.1,0,0.8,0,2.2,0
		s2.2,0,2.7,0c0.4,0,0.7,0,1.1-0.1c0,0.6,0.1,1.3,0.2,2.3l0.1,0.8c0,0.1,0,0.1,0,0.3c0,0.1-0.1,0.2-0.2,0.2c-0.1,0-0.2-0.2-0.3-0.5
		c-0.2-1.2-0.6-1.9-1.2-2.2c-0.4-0.2-1.5-0.4-3.2-0.4h-1.6v5.7h0.5c1.4,0,2.3-0.1,2.6-0.3c0.3-0.2,0.5-0.9,0.6-1.9
		c0-0.3,0.1-0.4,0.2-0.4c0.1,0,0.2,0.1,0.2,0.3s0,0.6,0,1s0,0.8,0,1c0,1.4,0,2.3,0.1,2.8c0,0.1,0,0.2,0,0.3c0,0.2-0.1,0.3-0.2,0.3
		c-0.1,0-0.2-0.1-0.2-0.2c0-0.1-0.1-0.5-0.2-1.1c-0.1-0.8-0.4-1.2-0.9-1.4c-0.2-0.1-0.8-0.1-1.8-0.1h-0.9v6.5c2.8,0,4.5-0.1,5-0.2
		c0.9-0.2,1.3-1,1.4-2.4c0-0.3,0.1-0.5,0.3-0.5C-15.3,377.7-15.2,377.8-15.2,378.1z"/>
	<path fill="#010101" d="M-2.4,368c0,0.1-0.2,0.2-0.5,0.2h-0.4h-0.3c-0.2,0-0.3,0-0.4,0.1c0,0.1-0.1,0.3-0.1,0.6V380
		c0,0.7,0,1.1,0,1.2c0,0.1-0.1,0.2-0.1,0.2c-0.1,0-0.2-0.1-0.3-0.2l-2.5-3.6c-1.4-2.1-3.2-4.7-5.2-7.9v10.8c0,0.2,0.1,0.3,0.3,0.3
		c0.2,0,0.6,0.1,1.3,0.1c0.2,0,0.3,0.1,0.3,0.2c0,0.1-0.2,0.2-0.5,0.2c-0.1,0-0.5,0-1.1-0.1c-0.2,0-0.4,0-0.6,0c0,0-0.1,0-0.3,0
		c-0.2,0-0.6,0-1.1,0h-0.2c-0.3,0-0.4-0.1-0.4-0.2c0-0.1,0.1-0.2,0.4-0.2c0.8,0,1.2-0.1,1.3-0.1c0.1-0.1,0.2-0.4,0.2-0.8v-9.5
		c0-1.1-0.2-1.7-0.7-2c-0.2-0.1-0.6-0.2-1.1-0.2c-0.3,0-0.5-0.1-0.5-0.2c0-0.1,0.1-0.2,0.3-0.2c0.3,0,0.6,0,1,0c0.4,0,0.6,0,0.6,0
		c0,0,0.2,0,0.5,0c0.4,0,0.8,0,1.2-0.1l6.7,10v-8.6c0-0.4,0-0.6,0-0.7c0-0.1-0.1-0.1-0.2-0.2c-0.1,0-0.4-0.1-0.9-0.1
		c-0.5,0-0.7-0.1-0.7-0.2c0-0.1,0.2-0.2,0.5-0.2h0.7c0.2,0,0.3,0,0.5,0c0.2,0,0.3,0,0.4,0c0,0,0.1,0,0.3,0c0.2,0,0.4,0,0.6,0h0.6
		C-2.6,367.8-2.4,367.8-2.4,368z"/>
	<path fill="#010101" d="M6.9,377.4c0,1.1-0.4,2.1-1.3,2.8c-0.8,0.8-1.9,1.2-3,1.2c-0.7,0-1.5-0.2-2.5-0.6c-0.3-0.1-0.5-0.2-0.6-0.2
		c-0.2,0-0.3,0.2-0.3,0.5c0,0.2-0.1,0.3-0.3,0.3c-0.1,0-0.2-0.1-0.2-0.2c0-0.1,0-0.2,0-0.2c0.1-0.8,0.2-1.5,0.2-2.2
		c0-0.1,0-0.5,0-1.1c0-0.1,0-0.2,0-0.3c0-0.2,0.1-0.3,0.2-0.3c0.1,0,0.2,0.2,0.3,0.5c0.3,2.3,1.4,3.5,3.3,3.5c0.8,0,1.4-0.2,1.8-0.7
		c0.4-0.4,0.6-1.1,0.6-1.9c0-0.7-0.2-1.3-0.6-1.8c-0.4-0.5-1.1-1-2.2-1.5c-1.2-0.6-2.1-1.2-2.6-1.8s-0.7-1.3-0.7-2.1
		c0-1.1,0.3-2,1-2.6c0.7-0.7,1.6-1,2.6-1c0.4,0,1,0.1,1.8,0.4c0.3,0.1,0.5,0.2,0.6,0.2c0.1,0,0.2,0,0.3-0.1c0-0.1,0.1-0.2,0.1-0.4
		c0-0.1,0.1-0.2,0.2-0.2c0.1,0,0.2,0.1,0.2,0.2c0,0.1,0,0.2,0,0.2c0,0.3-0.1,0.7-0.1,1.1c0,0.6,0,1.1,0.1,1.5l0,0.3
		c0,0.1,0,0.2-0.2,0.2c-0.1,0-0.2-0.1-0.3-0.4c-0.1-0.8-0.5-1.4-1-1.9C4,368.2,3.4,368,2.8,368c-0.6,0-1.2,0.2-1.5,0.6
		c-0.4,0.4-0.6,1-0.6,1.7c0,0.8,0.3,1.5,0.8,2c0.3,0.3,1,0.7,2,1.2c1.2,0.6,2.1,1.2,2.6,1.8C6.6,375.9,6.9,376.6,6.9,377.4z"/>
	<path fill="#010101" d="M18.3,378.1c0,0.1,0,0.4,0,0.9c0,0.6,0,1.1,0,1.7v0.6c-1.3-0.1-3.8-0.1-7.5-0.1c-0.5,0-0.9,0-1.3,0
		s-0.7,0-0.9,0H8.3c-0.2,0-0.4-0.1-0.4-0.2c0-0.1,0-0.1,0.1-0.1c0,0,0.3,0,0.7-0.1c0.3,0,0.5-0.1,0.6-0.2s0.1-0.4,0.1-0.9v-10.9
		c0-0.4-0.1-0.6-0.2-0.7c-0.1-0.1-0.5-0.1-1.1-0.1c-0.2,0-0.3-0.1-0.3-0.2c0-0.1,0.1-0.2,0.4-0.2h3.3c0.1,0,0.8,0,2.2,0s2.2,0,2.7,0
		c0.4,0,0.7,0,1.1-0.1c0,0.6,0.1,1.3,0.2,2.3l0.1,0.8c0,0.1,0,0.1,0,0.3c0,0.1-0.1,0.2-0.2,0.2c-0.1,0-0.2-0.2-0.3-0.5
		c-0.2-1.2-0.6-1.9-1.2-2.2c-0.4-0.2-1.5-0.4-3.2-0.4h-1.6v5.7h0.5c1.4,0,2.3-0.1,2.6-0.3c0.3-0.2,0.5-0.9,0.6-1.9
		c0-0.3,0.1-0.4,0.2-0.4c0.1,0,0.2,0.1,0.2,0.3s0,0.6,0,1s0,0.8,0,1c0,1.4,0,2.3,0.1,2.8c0,0.1,0,0.2,0,0.3c0,0.2-0.1,0.3-0.2,0.3
		c-0.1,0-0.1-0.1-0.2-0.2c0-0.1-0.1-0.5-0.2-1.1c-0.1-0.8-0.4-1.2-0.9-1.4c-0.2-0.1-0.8-0.1-1.8-0.1h-0.9v6.5c2.8,0,4.5-0.1,5-0.2
		c0.9-0.2,1.3-1,1.4-2.4c0-0.3,0.1-0.5,0.3-0.5C18.3,377.7,18.3,377.8,18.3,378.1z"/>
	<path fill="#010101" d="M27.8,377.4c0,1.1-0.4,2.1-1.3,2.8c-0.8,0.8-1.9,1.2-3,1.2c-0.7,0-1.5-0.2-2.5-0.6
		c-0.3-0.1-0.5-0.2-0.6-0.2c-0.2,0-0.3,0.2-0.3,0.5c0,0.2-0.1,0.3-0.3,0.3c-0.1,0-0.2-0.1-0.2-0.2c0-0.1,0-0.2,0-0.2
		c0.1-0.8,0.2-1.5,0.2-2.2c0-0.1,0-0.5,0-1.1c0-0.1,0-0.2,0-0.3c0-0.2,0.1-0.3,0.2-0.3c0.1,0,0.2,0.2,0.3,0.5
		c0.3,2.3,1.4,3.5,3.3,3.5c0.8,0,1.4-0.2,1.8-0.7c0.4-0.4,0.6-1.1,0.6-1.9c0-0.7-0.2-1.3-0.6-1.8c-0.4-0.5-1.1-1-2.2-1.5
		c-1.2-0.6-2.1-1.2-2.6-1.8s-0.7-1.3-0.7-2.1c0-1.1,0.3-2,1-2.6c0.7-0.7,1.6-1,2.6-1c0.4,0,1,0.1,1.8,0.4c0.3,0.1,0.5,0.2,0.6,0.2
		c0.1,0,0.2,0,0.3-0.1c0-0.1,0.1-0.2,0.1-0.4c0-0.1,0.1-0.2,0.2-0.2c0.1,0,0.2,0.1,0.2,0.2c0,0.1,0,0.2,0,0.2c0,0.3-0.1,0.7-0.1,1.1
		c0,0.6,0,1.1,0.1,1.5l0,0.3c0,0.1,0,0.2-0.2,0.2c-0.1,0-0.2-0.1-0.3-0.4c-0.1-0.8-0.5-1.4-1-1.9c-0.5-0.5-1.1-0.8-1.8-0.8
		c-0.6,0-1.2,0.2-1.5,0.6c-0.4,0.4-0.6,1-0.6,1.7c0,0.8,0.3,1.5,0.8,2c0.3,0.3,1,0.7,2,1.2c1.2,0.6,2.1,1.2,2.6,1.8
		C27.5,375.9,27.8,376.6,27.8,377.4z"/>
	<text transform="matrix(1 0 0 1 -133.2739 424.731)" font-family="'BodoniSvtyTwoOSITCTT-BookIt'" font-size="55">Karl Lagerfeld</text>
</g>
</svg>
