<?xml version="1.0" encoding="utf-8"?>
<!-- Generator: Adobe Illustrator 16.0.0, SVG Export Plug-In . SVG Version: 6.00 Build 0)  -->
<!DOCTYPE svg PUBLIC "-//W3C//DTD SVG 1.1 Tiny//EN" "http://www.w3.org/Graphics/SVG/1.1/DTD/svg11-tiny.dtd">
<svg version="1.1" baseProfile="tiny" id="Layer_1" xmlns="http://www.w3.org/2000/svg" xmlns:xlink="http://www.w3.org/1999/xlink"
	 x="0px" y="0px" width="326.797px" height="195.269px" viewBox="0 0 326.797 195.269" xml:space="preserve">
<g>
	<path fill="#010101" d="M220.1,57.354c0,1.841-0.788,3.273-2.362,4.298c-0.987,0.646-2.239,0.968-3.757,0.968
		c-0.646,0-1.376-0.066-2.191-0.199v8.083c0,0.437,0.019,0.711,0.057,0.825c0.095,0.266,0.303,0.427,0.626,0.483
		c0.55,0.076,1.082,0.114,1.594,0.114c0.209,0,0.313,0.066,0.313,0.199c0,0.189-0.133,0.284-0.398,0.284c-0.114,0-0.209,0-0.285,0
		c-1.044,0-3.007,0-5.892,0h-0.369c-0.569,0-0.854-0.095-0.854-0.285c0-0.133,0.199-0.199,0.598-0.199
		c0.892,0,1.404-0.086,1.537-0.257c0.151-0.075,0.237-0.266,0.256-0.569V54.283c0-0.589-0.161-0.95-0.483-1.083
		c-0.19-0.075-0.522-0.114-0.996-0.114h-0.285c-0.057,0-0.123,0-0.199,0c-0.284,0-0.427-0.076-0.427-0.229
		c0-0.17,0.266-0.255,0.797-0.255h6.262c2.163,0,3.747,0.38,4.753,1.139C219.53,54.594,220.1,55.799,220.1,57.354z M217.11,57.382
		c0-2.864-1.195-4.296-3.586-4.296c-0.797,0-1.318,0.134-1.565,0.401c-0.113,0.115-0.17,0.41-0.17,0.888v7.62
		c0.151,0.019,0.322,0.028,0.512,0.028c1.253,0,2.314-0.277,3.188-0.831C216.57,60.504,217.11,59.234,217.11,57.382z"/>
	<path fill="#010101" d="M237.175,71.528c0,0.797-0.664,1.195-1.992,1.195c-1.479,0-2.638-0.616-3.472-1.851
		c-0.361-0.53-0.594-1.043-0.697-1.536c-0.104-0.493-0.262-1.746-0.47-3.757c-0.114-1.214-0.503-2.073-1.167-2.576
		c-0.664-0.502-1.746-0.772-3.244-0.811v8.965c0,0.38,0.303,0.616,0.91,0.711c0.171,0.02,0.607,0.039,1.31,0.058
		c0.246,0,0.37,0.076,0.37,0.228c0,0.171-0.162,0.256-0.484,0.256h-0.341c-0.171,0-0.997,0-2.477,0c-0.284,0-0.769,0-1.451,0
		c-0.665,0-1.101,0-1.31,0h-1.11c-0.417,0-0.626-0.085-0.626-0.256c0-0.133,0.275-0.209,0.825-0.228
		c0.892-0.019,1.376-0.133,1.452-0.342c0.075-0.095,0.113-0.465,0.113-1.11v-15.71c0-0.759-0.081-1.214-0.241-1.366
		c-0.162-0.151-0.65-0.237-1.466-0.256c-0.475,0-0.712-0.085-0.712-0.256c0-0.189,0.151-0.285,0.455-0.285
		c0.058,0,0.143,0.01,0.257,0.029l3.785,0.085c0.379,0,0.91-0.012,1.594-0.038c0.759-0.051,1.29-0.076,1.594-0.076
		c1.765,0,3.163,0.394,4.198,1.181c1.033,0.788,1.551,1.855,1.551,3.202c0,1.328-0.531,2.423-1.594,3.287
		c-1.062,0.864-2.505,1.371-4.326,1.523c-0.171,0.019-0.266,0.047-0.284,0.085c0,0.076,0.095,0.114,0.284,0.114
		c1.992,0.343,3.363,1.042,4.112,2.098c0.75,1.056,1.248,2.964,1.494,5.723c0.152,1.56,0.684,2.34,1.594,2.34
		c0.285,0,0.428-0.057,0.428-0.171c0-0.019-0.01-0.038-0.029-0.057c-0.095-0.209-0.142-0.38-0.142-0.513
		c0-0.398,0.208-0.598,0.626-0.598C236.947,70.816,237.175,71.054,237.175,71.528z M231.284,57.269c0-2.712-1.177-4.069-3.529-4.069
		c-0.626,0-1.054,0.085-1.281,0.256s-0.341,0.475-0.341,0.911v7.229c1.821,0.019,3.135-0.313,3.941-0.996
		C230.881,59.916,231.284,58.806,231.284,57.269z"/>
	<path fill="#010101" d="M256.301,62.62c0,2.827-0.849,5.218-2.547,7.172s-3.781,2.932-6.247,2.932
		c-2.618,0-4.819-0.991-6.603-2.975c-1.784-1.982-2.676-4.426-2.676-7.328c0-2.96,0.858-5.384,2.576-7.272
		c1.717-1.888,3.913-2.832,6.588-2.832c2.523,0,4.64,0.987,6.347,2.96C255.447,57.251,256.301,59.698,256.301,62.62z
		 M253.113,62.763c0-3.482-0.711-6.194-2.134-8.135c-0.893-1.218-2.135-1.827-3.729-1.827c-1.519,0-2.694,0.467-3.529,1.399
		c-1.537,1.713-2.306,4.5-2.306,8.363c0,3.064,0.536,5.443,1.608,7.137c1.071,1.693,2.575,2.54,4.511,2.54
		c1.803,0,3.159-0.799,4.07-2.397C252.61,68.072,253.113,65.713,253.113,62.763z"/>
	<path fill="#010101" d="M272.95,57.354c0,0.266-0.095,0.398-0.284,0.398c-0.19,0-0.323-0.24-0.398-0.72
		c-0.229-1.383-0.693-2.392-1.395-3.026c-0.456-0.403-1.158-0.653-2.106-0.749c-0.342-0.039-1.101-0.058-2.277-0.058
		c-0.872,0-1.916,0.029-3.13,0.086v8.367c2.428,0.019,3.927-0.138,4.496-0.47s0.911-1.267,1.024-2.804
		c0.038-0.436,0.152-0.654,0.342-0.654s0.285,0.143,0.285,0.427c0,0.171-0.01,0.313-0.029,0.427
		c-0.057,1.31-0.085,2.524-0.085,3.644c0,1.441,0.03,2.58,0.091,3.415c0.016,0.076,0.023,0.189,0.023,0.342
		c0,0.228-0.095,0.341-0.283,0.341c-0.151,0-0.246-0.057-0.284-0.17c-0.038-0.114-0.104-0.551-0.198-1.31
		c-0.15-1.157-0.448-1.879-0.893-2.163c-0.443-0.284-1.326-0.427-2.648-0.427c-0.699,0-1.312,0.019-1.841,0.057v2.903v5.578
		c0,0.551,0.215,0.901,0.646,1.053c0.206,0.076,0.666,0.104,1.379,0.086c0.3,0,0.45,0.076,0.45,0.228
		c0,0.171-0.189,0.256-0.569,0.256h-0.284c-0.267,0-0.626,0-1.082,0c-0.437,0-0.73,0-0.882,0h-4.241c-0.36,0-0.54-0.076-0.54-0.229
		s0.327-0.247,0.981-0.285s1.039-0.128,1.153-0.271c0.113-0.143,0.17-0.585,0.17-1.327V53.913c-0.02-0.342-0.12-0.556-0.303-0.642
		c-0.182-0.085-0.677-0.138-1.484-0.157c-0.308,0-0.461-0.094-0.461-0.283c0-0.171,0.171-0.257,0.513-0.257h0.455
		c-0.038,0,0.877,0,2.746,0s3.401,0,4.597,0c3.206,0,5.17-0.057,5.892-0.171c0.019,0.247,0.075,0.958,0.171,2.135
		c0.057,0.797,0.132,1.508,0.228,2.134C272.931,56.938,272.95,57.165,272.95,57.354z"/>
	<path fill="#010101" d="M281.146,72.14c0,0.162-0.113,0.242-0.341,0.242h-0.285c-0.113-0.057-1.404-0.085-3.87-0.085
		c-0.475,0-0.949,0.019-1.424,0.057c-0.246,0.019-0.626,0.028-1.138,0.028c-0.247,0-0.37-0.085-0.37-0.256
		c0-0.152,0.246-0.237,0.74-0.257c0.758-0.019,1.204-0.108,1.337-0.271s0.199-0.709,0.199-1.642V54.941
		c0-0.933-0.048-1.456-0.144-1.57c-0.116-0.19-0.645-0.304-1.586-0.342c-0.364-0.017-0.547-0.084-0.547-0.201
		c0-0.15,0.114-0.226,0.344-0.226h3.872c0.286,0,0.841,0.01,1.663,0.029l1.09-0.029c0.307,0,0.459,0.081,0.459,0.243
		c0,0.144-0.423,0.234-1.268,0.269c-0.48,0.02-0.773,0.104-0.879,0.256c-0.106,0.152-0.158,0.551-0.158,1.195v15.198
		c0,1.081,0.047,1.67,0.142,1.765c0.209,0.209,0.826,0.332,1.851,0.37C281.042,71.898,281.146,71.979,281.146,72.14z"/>
	<path fill="#010101" d="M297.654,70.134c0,0.493-0.029,1.309-0.086,2.447h-0.312c-0.113,0-0.389-0.02-0.823-0.057
		c-0.437-0.038-0.929-0.058-1.478-0.058l-11.817-0.085c-0.321,0-0.482-0.085-0.482-0.256c0-0.133,0.256-0.218,0.769-0.257
		c0.721-0.037,1.152-0.118,1.295-0.241s0.213-0.479,0.213-1.067V54.565c0-0.702-0.07-1.11-0.213-1.224s-0.65-0.171-1.522-0.171
		c-0.361,0-0.541-0.104-0.541-0.313c0-0.171,0.113-0.256,0.342-0.256h0.256c0.626,0.057,1.868,0.085,3.729,0.085
		c0.171,0,0.502-0.014,0.996-0.042c0.493-0.029,0.9-0.043,1.224-0.043h0.313c0.341,0,0.512,0.095,0.512,0.285
		c0,0.114-0.053,0.185-0.156,0.213c-0.104,0.029-0.432,0.053-0.982,0.071c-0.55,0.019-0.878,0.109-0.981,0.271
		c-0.104,0.161-0.156,0.659-0.156,1.494v16.792c0.512,0.019,1.224,0.028,2.134,0.028c2.221,0,3.785-0.114,4.696-0.342
		s1.527-0.654,1.85-1.28c0.323-0.627,0.513-1.471,0.569-2.533c0.019-0.246,0.128-0.37,0.327-0.37c0.237,0,0.347,0.143,0.328,0.427
		v0.712c0,0.038,0,0.123,0,0.256s0,0.266,0,0.398V70.134z"/>
	<path fill="#010101" d="M313.934,67.8c0,0.076-0.02,0.541-0.058,1.395s-0.057,1.67-0.057,2.447v0.939
		c-1.859-0.114-5.54-0.171-11.043-0.171c-0.664,0-1.318,0-1.963,0c-0.646,0-1.082,0-1.31,0h-0.285c-0.36,0-0.54-0.076-0.54-0.229
		c0-0.103,0.057-0.162,0.171-0.179c0.057,0,0.417-0.025,1.081-0.076c0.493-0.038,0.792-0.143,0.896-0.314
		c0.104-0.171,0.156-0.618,0.156-1.342V54.228c0-0.552-0.081-0.88-0.241-0.985c-0.162-0.104-0.679-0.157-1.552-0.157
		c-0.304,0-0.455-0.081-0.455-0.242s0.209-0.242,0.626-0.242h4.867c0.171,0,1.242,0,3.216,0c1.973,0,3.302,0,3.984,0
		c0.569,0,1.091-0.038,1.565-0.114c0.038,0.816,0.123,1.945,0.256,3.387l0.114,1.224c0.019,0.096,0.028,0.219,0.028,0.37
		c0,0.189-0.085,0.284-0.256,0.284c-0.209,0-0.361-0.238-0.456-0.716c-0.36-1.718-0.948-2.807-1.764-3.266
		c-0.608-0.343-2.202-0.515-4.782-0.515h-2.333v8.368h0.683c2.125,0,3.42-0.161,3.885-0.484c0.465-0.322,0.783-1.262,0.953-2.817
		c0.038-0.398,0.143-0.598,0.313-0.598c0.209,0,0.313,0.171,0.313,0.513c0,0.341-0.02,0.844-0.058,1.508
		c-0.038,0.665-0.057,1.167-0.057,1.509c0,2.03,0.03,3.425,0.091,4.184c0.016,0.189,0.023,0.352,0.023,0.483
		c0,0.247-0.104,0.37-0.312,0.37c-0.132,0-0.222-0.08-0.269-0.241s-0.128-0.688-0.24-1.58c-0.151-1.119-0.614-1.812-1.389-2.077
		c-0.34-0.114-1.228-0.171-2.663-0.171h-1.274v9.534c4.174,0,6.621-0.084,7.343-0.253c1.252-0.281,1.964-1.48,2.134-3.599
		c0.038-0.468,0.161-0.702,0.37-0.702C313.838,67.202,313.934,67.401,313.934,67.8z"/>
	<path fill="#010101" d="M67.469,74.311c0,0.427-0.711,0.641-2.134,0.641c-1.565,0-3.131,0.523-4.696,1.57
		c-1.138,0.761-4.174,3.163-9.107,7.208l-5.407,4.425c-1.139,0.951-2.301,1.809-3.487,2.569c-2.04,1.332-3.059,2.235-3.059,2.712
		l0.213,0.643l0.355,1.07l7.115,22.267c0.664,2.142,1.221,3.426,1.672,3.854c0.45,0.43,1.411,0.643,2.881,0.643h0.569
		c0.427,0,0.9-0.071,1.423-0.213h0.711c0.521,0,0.783,0.189,0.783,0.568c0,0.569-0.878,0.854-2.632,0.854c0.094,0-0.747,0-2.526,0
		s-3.428,0-4.945,0h-2.063h-5.55c-1.186,0-1.779-0.225-1.779-0.674c0-0.499,0.332-0.749,0.997-0.749c0.569,0,1.067,0.07,1.494,0.213
		h1.067c1.139,0,1.708-0.404,1.708-1.216c-0.143-0.571-0.452-1.717-0.925-3.435l-5.479-18.243c-0.569-1.956-1.067-2.935-1.494-2.935
		c-0.238,0-0.617,0.69-1.139,2.069l-6.688,17.052c-1.234,3.14-1.85,4.924-1.85,5.352c0,0.904,0.687,1.355,2.063,1.355h0.64
		c0.379,0,0.806,0,1.281,0c0.474,0,0.735,0,0.783,0c1.328,0,1.992,0.19,1.992,0.569c0,0.427-0.451,0.641-1.352,0.641l-4.98-0.214
		l-14.017,0.214c-0.711,0-1.067-0.19-1.067-0.573c0-0.424,0.333-0.637,0.996-0.637c0.285,0,0.711,0,1.281,0s0.996,0,1.281,0
		c1.518,0,2.514-0.213,2.988-0.641c0.237-0.188,0.498-0.568,0.783-1.138c0.474-0.9,1.352-2.964,2.633-6.19l12.95-32.517
		c0.854-2.135,1.517-3.913,1.992-5.336c0-0.948-1.032-1.398-3.095-1.353c-2.063,0.048-3.095-0.165-3.095-0.64
		c0-0.379,0.948-0.569,2.846-0.569h7.115h6.688c1.802,0,2.704,0.179,2.704,0.536s-0.712,0.558-2.135,0.603
		c-1.186,0.048-2.063,0.143-2.633,0.285c-0.996,0.286-1.636,0.81-1.921,1.571l-1.494,4.07l-4.554,12.21
		c-0.19,0.476-0.38,0.999-0.569,1.57c0,0.286,0.118,0.429,0.356,0.429c0.142,0,0.331-0.118,0.569-0.356
		c0.379-0.427,0.9-0.782,1.565-1.066l4.981-3.487l2.348-1.85l6.19-5.052c3.273-2.656,5.289-4.387,6.048-5.194
		c0.521-0.568,0.783-1.161,0.783-1.778c0-0.806-0.736-1.21-2.206-1.21c-0.712,0-1.258,0.024-1.637,0.071h-1.139
		c-0.569,0-0.854-0.165-0.854-0.498c0-0.569,0.45-0.854,1.352-0.854h0.996c0.189,0,1.612,0.024,4.269,0.071
		c2.656,0.048,5.289,0.071,7.897,0.071C66.686,73.671,67.469,73.884,67.469,74.311z"/>
	<path fill="#010101" d="M95.644,94.66c0,1.661-0.807,2.49-2.419,2.49c-0.759,0-1.305-0.45-1.636-1.352
		c-0.096-0.189-0.214-0.285-0.356-0.285c-0.475,0-1.494,1.283-3.06,3.848l-7.329,11.973c-0.285,0.522-3.629,5.654-10.032,15.394
		c-3.321,5.083-6.759,9.072-10.317,11.971c-2.088,1.71-4.15,2.566-6.19,2.566c-2.134,0-3.202-0.783-3.202-2.349
		c0-0.807,0.285-1.471,0.854-1.992c0.569-0.522,1.281-0.782,2.135-0.782c0.617,0,1.008,0.095,1.174,0.284
		c0.167,0.189,0.273,0.759,0.32,1.708c0.048,0.712,0.378,1.067,0.991,1.067c0.849,0,2.158-0.761,3.928-2.28
		c1.77-1.522,3.433-3.303,4.991-5.346c2.359-3.088,3.539-5.772,3.539-8.052c0-0.665,0-1.26,0-1.782v-1.711V99.506
		c0-3.277-0.723-4.917-2.168-4.917c-1.735,0-3.397,1.827-4.987,5.479c-0.578,1.329-1.061,1.992-1.445,1.992
		c-0.386,0-0.578-0.213-0.578-0.64c0-0.948,0.711-2.49,2.135-4.625c2.134-3.178,4.648-4.768,7.542-4.768
		c2.134,0,3.486,0.712,4.056,2.135c0.427,1.092,0.64,2.917,0.64,5.479v1.921l-0.213,12.665c0,1.756,0.047,3.511,0.143,5.266
		l1.138-1.708c0.474-0.854,1.233-2.134,2.277-3.842l2.277-3.486l6.119-10.104c2.323-3.795,3.83-6.095,4.518-6.902
		c0.687-0.806,1.576-1.209,2.668-1.209C94.813,92.241,95.644,93.048,95.644,94.66z"/>
	<path fill="#010101" d="M138.548,97.805c0,1.283-0.594,3.28-1.779,5.99l-5.265,11.984c-0.854,1.949-1.281,3.352-1.281,4.207
		c0,0.952,0.55,1.427,1.651,1.427c1.674,0,3.301-0.895,4.879-2.685c0.574-0.63,1.028-0.944,1.364-0.944
		c0.287,0,0.43,0.096,0.43,0.285c0,0.569-0.812,1.423-2.433,2.562c-2.383,1.707-4.577,2.562-6.58,2.562
		c-1.335,0-2.42-0.343-3.254-1.028c-0.835-0.687-1.252-1.573-1.252-2.663c0-1.183,0.521-2.98,1.565-5.395l5.194-11.995
		c1.233-2.839,1.85-4.684,1.85-5.535c0-1.657-0.711-2.485-2.134-2.485c-2.23,0-4.625,1.582-7.187,4.744
		c-1.661,2.03-3.771,6.042-6.333,12.037l-4.269,9.983c-0.665,1.559-1.163,2.337-1.494,2.337c-0.238,0-0.427,0-0.569,0
		c-0.711,0-1.328,0-1.85,0c-0.285,0-0.676,0-1.174,0s-0.866,0-1.103,0c-0.333,0-0.498-0.118-0.498-0.354
		c0-0.143,0.094-0.401,0.285-0.779c0.189-0.379,0.45-0.921,0.783-1.629l7.399-17.49c1.565-3.682,2.348-6.089,2.348-7.223
		c0-1.321-0.711-1.982-2.135-1.982c-1.85,0-4.126,1.542-6.831,4.625c-0.807,0.949-2.063,2.609-3.771,4.98
		c-0.617,0.854-1.494,2.633-2.632,5.336L97.138,121.2c-0.569,1.328-0.996,1.992-1.281,1.992c-0.238,0-0.427-0.032-0.569-0.095
		c-0.759-0.127-1.209-0.19-1.352-0.19c-1.471,0-2.348,0.071-2.633,0.214c-0.095,0.047-0.237,0.071-0.427,0.071
		c-0.237,0-0.356-0.119-0.356-0.356c0.238-0.521,0.522-1.091,0.854-1.707l11.242-26.113c0.143-0.236,0.213-0.402,0.213-0.498
		c0-0.427-0.427-0.64-1.281-0.64c-1.328,0-1.992-0.237-1.992-0.712c0-0.331,0.237-0.498,0.712-0.498c0.427,0,1.09,0.048,1.992,0.143
		c0.9,0.096,1.565,0.142,1.992,0.142c2.134,0,3.486-0.165,4.056-0.498c0.142-0.046,0.285-0.094,0.427-0.142
		c0.285,0,0.427,0.166,0.427,0.498c0,0.096-0.213,0.617-0.64,1.565c-0.333,0.664-0.783,1.826-1.352,3.486l-0.355,0.996
		c0.427-0.47,1.327-1.454,2.704-2.956c2.134-2.393,4.743-3.59,7.827-3.59c1.944,0,3.32,0.493,4.127,1.479
		c0.806,0.986,1.256,2.723,1.352,5.209c3.035-4.458,6.308-6.688,9.819-6.688c1.802,0,3.238,0.5,4.305,1.498
		C138.014,94.81,138.548,96.141,138.548,97.805z"/>
	<path fill="#010101" d="M201.729,74.247c0,0.05-0.048,0.168-0.143,0.359c-0.237,0.385-0.498,1.057-0.782,2.015
		c-0.808,2.829-1.459,5.238-1.957,7.229s-0.938,2.984-1.316,2.984c-0.284,0-0.427-0.189-0.427-0.569l0.071-0.498
		c0.616-1.518,0.925-3.345,0.925-5.479c0-2.323-0.747-3.781-2.241-4.375c-1.494-0.593-4.02-0.913-7.578-0.961h-4.767
		c-0.807,0-1.4,0.472-1.779,1.414l-2.419,6.36l-5.336,13.571c1.708,0.189,2.821,0.284,3.344,0.284c2.419,0,4.529-0.615,6.333-1.85
		c1.802-1.233,3.06-2.917,3.771-5.052c0.237-0.712,0.521-1.067,0.854-1.067c0.427,0,0.641,0.19,0.641,0.569
		c0,0.096-0.096,0.355-0.285,0.782c-2.704,5.788-5.052,11.693-7.044,17.717c-0.143,0.665-0.38,0.996-0.712,0.996
		c-0.332,0-0.498-0.166-0.498-0.501c0-0.191,0.047-0.454,0.143-0.788c0.711-2.53,1.067-4.368,1.067-5.515
		c0-1.527-0.523-2.602-1.565-3.222c-1.044-0.62-2.894-0.932-5.55-0.932c-0.759,0-1.329,0.476-1.708,1.428l-7.685,18.982
		c-0.569,1.428-0.854,2.261-0.854,2.498c0,0.429,0.427,0.666,1.281,0.713l3.7,0.144c1.233,0.048,2.514,0.071,3.842,0.071
		c6.877,0,11.598-1.494,14.159-4.482c1.328-1.518,2.562-4.008,3.7-7.472c0.331-0.948,0.735-1.423,1.209-1.423
		c0.331,0,0.498,0.167,0.498,0.501c0,0.19-0.238,0.907-0.711,2.146c-1.803,4.72-3.131,8.416-3.984,11.086
		c-0.19,0.491-0.404,0.805-0.641,0.938c-0.238,0.132-0.783,0.2-1.636,0.2h-24.121c-5.882,0-9.309-0.024-10.281-0.071
		c-0.972-0.047-1.459-0.236-1.459-0.568c0-0.284,0.214-0.45,0.641-0.497c0.427-0.046,1.803-0.07,4.127-0.07
		c0.9,0,1.518-0.166,1.85-0.497c0.332-0.332,0.83-1.304,1.494-2.914l14.373-34.671c0.427-0.899,1.055-2.368,1.886-4.405
		c0.83-2.036,1.245-3.291,1.245-3.765c0-0.378-0.226-0.604-0.676-0.675c-0.452-0.071-2.004-0.131-4.661-0.179
		c-0.569,0-0.854-0.15-0.854-0.453c0-0.504,0.45-0.756,1.352-0.756c0.095,0,0.783,0,2.063,0c1.281,0.048,2.846,0.071,4.696,0.071
		l21.203,0.142c0.854,0,1.376-0.07,1.565-0.213h0.427C201.326,73.528,201.729,73.769,201.729,74.247z"/>
	<path fill="#010101" d="M220.157,73.173c0,0.095-0.119,0.427-0.355,0.996c-0.143,0.38-0.38,0.949-0.712,1.707l-15.938,38.92
		c-1.187,2.895-1.779,4.768-1.779,5.621c0,1.281,0.854,1.921,2.562,1.921c1.708,0,3.416-0.996,5.123-2.988
		c0.712-0.854,1.162-1.28,1.352-1.28c0.332,0,0.498,0.166,0.498,0.498c0,0.617-0.782,1.613-2.348,2.988
		c-1.803,1.612-4.127,2.419-6.973,2.419c-3.89,0-5.835-1.451-5.835-4.353c0-0.951,0.593-2.878,1.779-5.78l15.938-38.958
		c0.143-0.285,0.214-0.452,0.214-0.5c0-0.428-0.451-0.643-1.352-0.643c-2.088,0-3.131-0.162-3.131-0.487
		c0-0.244,0.213-0.366,0.641-0.366c0.427,0,1.078,0,1.956,0c0.877,0,1.53,0,1.957,0c2.039,0,3.558-0.063,4.554-0.19
		c0.521-0.062,0.877-0.094,1.067-0.094C219.896,72.604,220.157,72.793,220.157,73.173z"/>
	<path fill="#010101" d="M237.446,73.173c0,0.095-0.119,0.427-0.355,0.996c-0.143,0.38-0.38,0.949-0.712,1.707l-15.938,38.92
		c-1.187,2.895-1.779,4.768-1.779,5.621c0,1.281,0.854,1.921,2.562,1.921c1.708,0,3.416-0.996,5.123-2.988
		c0.712-0.854,1.162-1.28,1.352-1.28c0.332,0,0.498,0.166,0.498,0.498c0,0.617-0.782,1.613-2.348,2.988
		c-1.803,1.612-4.127,2.419-6.973,2.419c-3.89,0-5.835-1.451-5.835-4.353c0-0.951,0.593-2.878,1.779-5.78l15.938-38.958
		c0.143-0.285,0.214-0.452,0.214-0.5c0-0.428-0.451-0.643-1.352-0.643c-2.088,0-3.131-0.162-3.131-0.487
		c0-0.244,0.213-0.366,0.641-0.366c0.427,0,1.078,0,1.956,0c0.877,0,1.53,0,1.957,0c2.039,0,3.558-0.063,4.554-0.19
		c0.521-0.062,0.877-0.094,1.067-0.094C237.186,72.604,237.446,72.793,237.446,73.173z"/>
	<path fill="#010101" d="M258.579,97.196c0,2.549-1.377,4.661-4.127,6.336c-2.752,1.675-6.238,2.513-10.46,2.513
		c-1.519,0-3.201-0.095-5.052-0.285c-1.755,3.638-2.632,7.014-2.632,10.132c0,4.203,1.873,6.305,5.621,6.305
		c2.893,0,5.715-1.498,8.467-4.495c0.615-0.656,1.02-0.984,1.209-0.984c0.237,0,0.356,0.118,0.356,0.353
		c0,1.081-1.115,2.419-3.345,4.016c-2.562,1.832-5.218,2.747-7.969,2.747c-3.084,0-5.621-0.898-7.613-2.697
		c-1.992-1.798-2.988-4.069-2.988-6.815c0-5.3,2.893-10.435,8.681-15.404c5.075-4.354,9.605-6.531,13.59-6.531
		C256.491,92.384,258.579,93.987,258.579,97.196z M253.527,96.012c0-1.47-0.736-2.205-2.206-2.205c-1.519,0-3.013,0.569-4.482,1.707
		c-2.657,2.088-5.1,5.194-7.329,9.321c0.569,0.048,1.21,0.071,1.921,0.071c2.656,0,5.241-0.807,7.756-2.419
		C252.079,100.685,253.527,98.526,253.527,96.012z"/>
	<path fill="#010101" d="M284.904,95.656c0,0.949-0.31,1.768-0.925,2.455c-0.617,0.688-1.329,1.031-2.135,1.031
		c-0.76,0-1.139-0.26-1.139-0.782l0.143-0.712c0.095-0.284,0.143-0.545,0.143-0.782c0-1.139-0.569-1.708-1.708-1.708
		c-1.376,0-3.297,1.328-5.764,3.984c-2.467,2.657-4.791,6.381-6.973,11.171l-5.123,11.242c-0.475,1.092-0.878,1.637-1.209,1.637
		c-0.949-0.143-1.685-0.214-2.206-0.214c-0.807,0-1.447,0.071-1.921,0.214h-0.427c-0.427,0-0.641-0.096-0.641-0.286
		c0-0.047,0.071-0.143,0.214-0.284l0.355-0.714l12.024-27.39c0-0.38-0.309-0.57-0.925-0.57c0.047,0-0.048,0-0.284,0
		c-0.19,0.048-0.498,0.071-0.926,0.071h-0.711c-0.712,0-1.067-0.165-1.067-0.498c0-0.284,1.232-0.474,3.7-0.569
		c2.466-0.094,4.126-0.308,4.98-0.64c0.379-0.095,0.593-0.143,0.64-0.143c0.285,0,0.428,0.143,0.428,0.427
		c0,0.238-0.31,1.115-0.926,2.633l-2.632,6.403c4.363-6.071,8.205-9.107,11.526-9.107C283.741,92.525,284.904,93.569,284.904,95.656
		z"/>
	<path fill="#010101" d="M318.843,94.66c0,1.661-0.807,2.49-2.419,2.49c-0.76,0-1.305-0.45-1.637-1.352
		c-0.096-0.189-0.213-0.285-0.355-0.285c-0.475,0-1.494,1.283-3.06,3.848l-7.328,11.973c-0.285,0.522-3.629,5.654-10.033,15.394
		c-3.32,5.083-6.759,9.072-10.316,11.971c-2.088,1.71-4.15,2.566-6.19,2.566c-2.135,0-3.202-0.783-3.202-2.349
		c0-0.807,0.285-1.471,0.854-1.992c0.569-0.522,1.28-0.782,2.134-0.782c0.617,0,1.009,0.095,1.175,0.284s0.273,0.759,0.32,1.708
		c0.047,0.712,0.378,1.067,0.99,1.067c0.85,0,2.158-0.761,3.928-2.28c1.77-1.522,3.433-3.303,4.99-5.346
		c2.359-3.088,3.539-5.772,3.539-8.052c0-0.665,0-1.26,0-1.782v-1.711V99.506c0-3.277-0.723-4.917-2.168-4.917
		c-1.735,0-3.397,1.827-4.987,5.479c-0.578,1.329-1.061,1.992-1.445,1.992c-0.386,0-0.578-0.213-0.578-0.64
		c0-0.948,0.712-2.49,2.135-4.625c2.135-3.178,4.648-4.768,7.542-4.768c2.135,0,3.486,0.712,4.056,2.135
		c0.427,1.092,0.641,2.917,0.641,5.479v1.921l-0.214,12.665c0,1.756,0.047,3.511,0.143,5.266l1.139-1.708
		c0.473-0.854,1.232-2.134,2.276-3.842l2.277-3.486l6.118-10.104c2.324-3.795,3.83-6.095,4.519-6.902
		c0.688-0.806,1.576-1.209,2.668-1.209C318.013,92.241,318.843,93.048,318.843,94.66z"/>
</g>
<g>
</g>
<g>
</g>
<g>
</g>
<g>
</g>
<g>
</g>
<g>
</g>
</svg>
