<?xml version="1.0" encoding="utf-8"?>
<!-- Generator: Adobe Illustrator 16.0.0, SVG Export Plug-In . SVG Version: 6.00 Build 0)  -->
<!DOCTYPE svg PUBLIC "-//W3C//DTD SVG 1.1 Tiny//EN" "http://www.w3.org/Graphics/SVG/1.1/DTD/svg11-tiny.dtd">
<svg version="1.1" baseProfile="tiny" id="Layer_1" xmlns="http://www.w3.org/2000/svg" xmlns:xlink="http://www.w3.org/1999/xlink"
	 x="0px" y="0px" width="326.797px" height="195.27px" viewBox="0 0 326.797 195.27" xml:space="preserve">
<g>
	<path d="M57.719,38.322c0,2.125-0.766,4.097-2.299,5.915c-1.532,1.819-3.627,3.218-6.283,4.199c-2.084,0.777-5.21,1.247-9.379,1.41
		l1.962,0.552c2.615,0.735,4.331,1.666,5.149,2.789c0.817,1.125,1.226,3.117,1.226,5.977c0,0.654-0.023,1.247-0.069,1.777
		l-0.482,5.395c-0.083,1.553-0.123,2.718-0.123,3.494c0,1.554,0.49,2.33,1.471,2.33c0.326,0,0.633-0.123,0.919-0.368
		c0.081-0.082,0.123-0.347,0.123-0.797c0-0.449,0.163-0.858,0.49-1.226c0.327-0.368,0.714-0.552,1.165-0.552
		c0.572,0,0.858,0.307,0.858,0.919c0,0.818-0.45,1.523-1.349,2.115c-0.899,0.592-1.982,0.889-3.249,0.889
		c-4.087,0-6.129-2.084-6.129-6.252c0-1.062,0.081-2.289,0.245-3.678l0.552-4.72c0.163-1.389,0.245-2.533,0.245-3.433
		c0-2.043-0.879-3.392-2.636-4.046c-0.613-0.204-2.207-0.388-4.781-0.552l-7.663,19.315c-0.123,0.285-0.184,0.468-0.184,0.55
		c0,0.611,0.714,0.998,2.145,1.161c0.613,0.083,0.981,0.123,1.104,0.123h1.41c0.245,0,0.368,0.103,0.368,0.307
		c0,0.409-0.45,0.613-1.349,0.613c-1.431,0-3.842-0.041-7.233-0.123c-1.716-0.04-2.657-0.062-2.819-0.062
		c-0.491,0-1.226,0.031-2.207,0.092c-0.98,0.061-1.716,0.092-2.207,0.092c-0.531,0-0.797-0.163-0.797-0.49
		c0-0.245,0.573-0.388,1.716-0.429c1.594-0.04,2.676-0.245,3.249-0.613c0.491-0.246,1.144-1.389,1.962-3.433l13.547-34.572
		c0.163-0.327,0.245-0.613,0.245-0.858c0-0.776-1.247-1.165-3.739-1.165c-0.409-0.082-0.613-0.224-0.613-0.429
		c0-0.285,0.184-0.449,0.551-0.49c0.368-0.04,1.594-0.062,3.678-0.062c1.226,0.123,2.166,0.184,2.82,0.184h3.003
		c4.208,0.083,6.682,0.164,7.417,0.245c1.185,0.083,2.33,0.389,3.433,0.919C56.207,32.765,57.719,35.094,57.719,38.322z
		 M51.896,38.359c0-3.544-1.067-5.784-3.2-6.721c-0.738-0.326-2.215-0.488-4.43-0.488c-0.657,0-1.128,0.244-1.416,0.732
		c-0.41,0.693-0.738,1.345-0.984,1.956l-6.03,15.456c0.492,0.041,1.066,0.062,1.723,0.062c4.184,0,7.619-1.028,10.307-3.085
		C50.552,44.214,51.896,41.577,51.896,38.359z"/>
	<path d="M86.039,46.783l-0.123,0.31l-0.429,0.991l-6.865,16.154c-1.39,3.26-2.084,5.282-2.084,6.065
		c0,1.115,0.53,1.671,1.594,1.671c1.511,0,3.188-1.127,5.026-3.384c0.449-0.563,0.755-0.846,0.919-0.846
		c0.245,0,0.368,0.125,0.368,0.372c0,0.992-1.206,2.233-3.617,3.721c-1.431,0.868-2.902,1.301-4.413,1.301
		c-1.186,0-2.228-0.33-3.126-0.988c-0.899-0.659-1.349-1.421-1.349-2.286c0-0.494,0.184-1.257,0.552-2.286l0.736-2.102
		c-2.738,3.198-4.812,5.274-6.222,6.229c-1.41,0.955-3.137,1.433-5.18,1.433c-1.594,0-2.902-0.319-3.923-0.955
		c-1.022-0.636-1.532-1.467-1.532-2.494c0-1.109,0.449-2.669,1.348-4.682l6.314-14.229c0.163-0.369,0.51-1.087,1.042-2.155
		c0.123-0.205,0.184-0.35,0.184-0.432c0-0.328-0.491-0.492-1.471-0.492c-1.309,0-1.962-0.224-1.962-0.674
		c0-0.285,0.143-0.429,0.429-0.429c0.327,0,0.797,0.042,1.41,0.123c0.613,0.083,1.082,0.123,1.41,0.123
		c2.125,0,3.698-0.184,4.72-0.551c0.246-0.082,0.408-0.123,0.491-0.123c0.204,0,0.306,0.124,0.306,0.37
		c0,0.329-0.409,1.365-1.226,3.11c-0.818,1.745-1.574,3.542-2.268,5.389c-0.164,0.452-0.797,1.95-1.9,4.496l-2.452,5.666
		c-1.022,2.341-1.533,4.005-1.533,4.989c0,1.191,0.756,1.786,2.268,1.786c1.594,0,3.657-1.307,6.191-3.923
		c2.86-2.942,5.23-6.661,7.111-11.156l3.923-9.317c0.204-0.49,0.429-0.736,0.674-0.736c-0.041,0,0.388,0,1.288,0h0.49
		c1.104,0,1.818-0.061,2.146-0.184c0.204-0.082,0.347-0.123,0.429-0.123C85.936,46.536,86.039,46.618,86.039,46.783z"/>
	<path d="M113.929,50.789c0,0.985-0.531,2.689-1.594,5.113l-4.965,11.272c-0.573,1.314-0.858,2.197-0.858,2.648
		c0,0.863,0.478,1.294,1.434,1.294c1.163,0,2.867-0.94,5.11-2.82c0.207-0.123,0.374-0.184,0.499-0.184
		c0.249,0,0.374,0.103,0.374,0.307c0,0.49-0.681,1.206-2.043,2.146c-1.858,1.267-3.838,1.9-5.944,1.9
		c-1.28,0-2.331-0.277-3.157-0.832c-0.826-0.554-1.238-1.262-1.238-2.125c0-0.697,0.388-1.93,1.165-3.696l4.904-11.026
		c1.185-2.668,1.778-4.476,1.778-5.42c0-1.396-0.716-2.095-2.146-2.095c-1.88,0-4.087,1.349-6.62,4.046
		c-1.921,2.044-3.678,4.904-5.272,8.582l-5.026,11.646c-0.205,0.613-0.47,0.92-0.797,0.92c-0.083,0-0.532,0-1.349,0
		c-0.123,0-0.368,0-0.735,0c-0.328,0-0.879,0-1.655,0c-0.123,0-0.266,0-0.429,0c-0.285,0-0.429-0.102-0.429-0.306
		c0-0.081,0.061-0.203,0.184-0.366l0.429-0.915l9.378-22.452c0.123-0.203,0.224-0.387,0.307-0.55
		c-0.041-0.285-0.552-0.447-1.532-0.487c-1.226-0.041-1.839-0.265-1.839-0.672c0-0.284,0.224-0.427,0.674-0.427
		c0.286,0,0.736,0.041,1.349,0.123c0.613,0.082,1.083,0.123,1.41,0.123c2.207,0,3.657-0.163,4.352-0.491
		c0.285-0.123,0.469-0.184,0.552-0.184c0.245,0,0.368,0.123,0.368,0.368c0,0.123-0.021,0.225-0.062,0.307l-2.268,5.762
		c0.326-0.375,0.797-0.896,1.41-1.562c3.023-3.249,5.946-4.874,8.766-4.874c1.634,0,2.962,0.462,3.984,1.386
		C113.417,48.172,113.929,49.353,113.929,50.789z"/>
	<path d="M156.101,49.609c0,5.693-1.707,11.059-5.119,16.097c-3.413,5.038-7.019,7.556-10.819,7.556
		c-1.309,0-2.452-0.42-3.433-1.257c-0.981-0.837-1.615-1.971-1.9-3.402c-0.123-0.572-0.184-1.553-0.184-2.942
		c-2.412,5.067-5.455,7.601-9.133,7.601c-1.635,0-2.983-0.491-4.045-1.471c-1.063-0.981-1.594-2.227-1.594-3.739
		c0-2.002,0.572-4.311,1.716-6.927l3.678-8.459c0.613-1.43,0.919-2.595,0.919-3.494c0-1.104-0.47-1.655-1.41-1.655
		c-0.818,0-1.86,0.537-3.126,1.607c-1.267,1.072-2.228,2.234-2.881,3.487c-0.205,0.445-0.429,0.667-0.674,0.667
		s-0.368-0.163-0.368-0.49c0-0.736,0.797-1.92,2.391-3.556c2.125-2.166,4.311-3.249,6.559-3.249c2.983,0,4.475,1.183,4.475,3.547
		c0,1.631-0.654,3.894-1.961,6.789l-3.617,7.95c-0.94,2.079-1.41,3.812-1.41,5.198c0,1.712,0.694,2.569,2.084,2.569
		c3.391,0,6.865-4.28,10.42-12.842l3.126-7.521l1.165-3.486c0.123-0.488,0.408-0.753,0.858-0.795l0.736-0.061l1.471-0.183
		l1.716-0.306c0.449-0.081,0.633-0.123,0.552-0.123c0.327,0,0.49,0.123,0.49,0.368c0,0.164-0.083,0.327-0.245,0.49
		c-0.205,0.409-0.429,0.919-0.674,1.532l-5.762,14.405c-0.899,2.248-1.348,4.087-1.348,5.517c0,2.003,0.878,3.004,2.636,3.004
		c2.942,0,6.15-2.881,9.624-8.643c2.575-4.291,3.862-8.438,3.862-12.443c0-0.898-0.261-1.349-0.783-1.349
		c-0.081,0-0.282,0.046-0.603,0.138c-0.081,0.031-0.242,0.046-0.483,0.046c-1.166,0-1.748-0.51-1.748-1.532
		c0-0.613,0.242-1.144,0.726-1.594c0.485-0.449,1.07-0.674,1.756-0.674C155.314,45.984,156.101,47.193,156.101,49.609z"/>
	<path d="M187.485,46.411c0,0.123-0.163,0.549-0.49,1.28l-8.091,18.302c-0.777,1.749-1.165,3.092-1.165,4.027
		c0,1.057,0.53,1.586,1.594,1.586c1.594,0,3.188-1.083,4.781-3.249c0.327-0.449,0.572-0.674,0.735-0.674s0.245,0.082,0.245,0.245
		c0,0.45-0.45,1.165-1.349,2.146c-1.798,1.921-3.943,2.881-6.436,2.881c-1.268,0-2.299-0.307-3.096-0.919
		c-0.797-0.613-1.195-1.41-1.195-2.391c0-0.613,0.143-1.328,0.429-2.146c-2.574,3.76-5.558,5.639-8.949,5.639
		c-2.125,0-3.862-0.683-5.21-2.048s-2.023-3.109-2.023-5.229c0-2.324,0.776-4.873,2.33-7.645c1.552-2.772,3.617-5.3,6.191-7.584
		c3.515-3.098,6.743-4.648,9.686-4.648c3.064,0,4.781,1.471,5.148,4.414l1.532-3.249c0.327-0.653,0.613-0.98,0.858-0.98
		c0.082,0,0.327,0.041,0.735,0.123c0.408,0.082,0.695,0.123,0.858,0.123c0.898,0,1.594-0.095,2.084-0.287
		c0.163-0.095,0.307-0.143,0.43-0.143C187.363,45.984,187.485,46.127,187.485,46.411z M179.762,51.48
		c0-1.26-0.378-2.276-1.134-3.049c-0.757-0.772-1.727-1.159-2.911-1.159c-2.045,0-4.006,1.2-5.885,3.599
		c-2.166,2.725-3.903,5.602-5.211,8.63c-1.308,3.03-1.961,5.683-1.961,7.959c0,2.765,1.144,4.147,3.433,4.147
		c1.308,0,2.728-0.711,4.261-2.135c1.531-1.423,2.809-3.212,3.83-5.368l4.781-10.246C179.496,52.72,179.762,51.927,179.762,51.48z"
		/>
	<path d="M220.035,48.007c0,1.431-0.695,2.146-2.084,2.146c-0.654,0-1.124-0.388-1.41-1.165c-0.082-0.163-0.184-0.245-0.306-0.245
		c-0.409,0-1.288,1.105-2.637,3.315l-6.313,10.314c-0.245,0.45-3.126,4.871-8.643,13.261c-2.861,4.379-5.823,7.816-8.889,10.313
		c-1.799,1.473-3.575,2.21-5.333,2.21c-1.839,0-2.758-0.674-2.758-2.022c0-0.695,0.245-1.268,0.735-1.716
		c0.49-0.45,1.104-0.674,1.839-0.674c0.531,0,0.869,0.081,1.012,0.245c0.144,0.163,0.235,0.653,0.275,1.471
		c0.041,0.613,0.326,0.919,0.854,0.919c0.731,0,1.859-0.655,3.384-1.964c1.524-1.312,2.958-2.846,4.3-4.605
		c2.032-2.661,3.049-4.974,3.049-6.938c0-0.573,0-1.085,0-1.535v-1.474V52.182c0-2.824-0.623-4.236-1.868-4.236
		c-1.495,0-2.927,1.574-4.297,4.72c-0.498,1.145-0.913,1.716-1.245,1.716s-0.498-0.184-0.498-0.552c0-0.817,0.613-2.146,1.839-3.984
		c1.839-2.737,4.005-4.107,6.498-4.107c1.839,0,3.004,0.613,3.494,1.839c0.367,0.94,0.552,2.513,0.552,4.72v1.655L201.4,64.864
		c0,1.512,0.041,3.024,0.123,4.536l0.98-1.471c0.408-0.736,1.062-1.839,1.962-3.31l1.961-3.004l5.272-8.704
		c2.001-3.269,3.299-5.25,3.892-5.946c0.593-0.695,1.358-1.042,2.299-1.042C219.32,45.923,220.035,46.618,220.035,48.007z"/>
	<path d="M57.719,86.07c0,2.125-0.766,4.097-2.299,5.915c-1.532,1.819-3.627,3.218-6.283,4.199c-2.084,0.777-5.21,1.247-9.379,1.41
		l1.962,0.552c2.615,0.735,4.331,1.665,5.149,2.789c0.817,1.124,1.226,3.116,1.226,5.977c0,0.654-0.023,1.247-0.069,1.777
		l-0.482,5.395c-0.083,1.554-0.123,2.718-0.123,3.494c0,1.554,0.49,2.329,1.471,2.329c0.326,0,0.633-0.123,0.919-0.368
		c0.081-0.081,0.123-0.347,0.123-0.797c0-0.449,0.163-0.857,0.49-1.226c0.327-0.368,0.714-0.552,1.165-0.552
		c0.572,0,0.858,0.307,0.858,0.92c0,0.817-0.45,1.522-1.349,2.114c-0.899,0.592-1.982,0.889-3.249,0.889
		c-4.087,0-6.129-2.084-6.129-6.252c0-1.062,0.081-2.288,0.245-3.678l0.552-4.721c0.163-1.389,0.245-2.533,0.245-3.433
		c0-2.043-0.879-3.392-2.636-4.046c-0.613-0.204-2.207-0.388-4.781-0.552l-7.663,19.315c-0.123,0.285-0.184,0.468-0.184,0.55
		c0,0.611,0.714,0.998,2.145,1.16c0.613,0.083,0.981,0.123,1.104,0.123h1.41c0.245,0,0.368,0.103,0.368,0.307
		c0,0.409-0.45,0.613-1.349,0.613c-1.431,0-3.842-0.042-7.233-0.123c-1.716-0.04-2.657-0.062-2.819-0.062
		c-0.491,0-1.226,0.031-2.207,0.092c-0.98,0.062-1.716,0.093-2.207,0.093c-0.531,0-0.797-0.163-0.797-0.491
		c0-0.245,0.573-0.388,1.716-0.429c1.594-0.04,2.676-0.245,3.249-0.613c0.491-0.245,1.144-1.389,1.962-3.433l13.547-34.572
		c0.163-0.327,0.245-0.613,0.245-0.858c0-0.776-1.247-1.165-3.739-1.165c-0.409-0.082-0.613-0.224-0.613-0.429
		c0-0.285,0.184-0.449,0.551-0.49c0.368-0.04,1.594-0.062,3.678-0.062c1.226,0.123,2.166,0.184,2.82,0.184h3.003
		c4.208,0.083,6.682,0.164,7.417,0.245c1.185,0.083,2.33,0.389,3.433,0.919C56.207,80.512,57.719,82.842,57.719,86.07z
		 M51.896,86.107c0-3.544-1.067-5.784-3.2-6.721c-0.738-0.326-2.215-0.488-4.43-0.488c-0.657,0-1.128,0.244-1.416,0.732
		c-0.41,0.693-0.738,1.345-0.984,1.956l-6.03,15.456c0.492,0.041,1.066,0.062,1.723,0.062c4.184,0,7.619-1.028,10.307-3.085
		C50.552,91.962,51.896,89.325,51.896,86.107z"/>
	<path d="M96.888,78.169c0,0.042-0.041,0.145-0.123,0.309c-0.205,0.332-0.429,0.91-0.674,1.736
		c-0.695,2.438-1.256,4.513-1.686,6.228s-0.807,2.57-1.134,2.57c-0.245,0-0.368-0.163-0.368-0.49l0.062-0.429
		c0.531-1.307,0.797-2.881,0.797-4.72c0-2.002-0.644-3.258-1.931-3.77c-1.288-0.51-3.463-0.786-6.528-0.827h-4.107
		c-0.695,0-1.206,0.406-1.533,1.218l-2.084,5.479l-4.598,11.691c1.471,0.164,2.431,0.245,2.881,0.245
		c2.084,0,3.902-0.53,5.456-1.594c1.552-1.062,2.636-2.513,3.249-4.352c0.204-0.613,0.449-0.919,0.736-0.919
		c0.368,0,0.552,0.164,0.552,0.49c0,0.083-0.083,0.307-0.246,0.674c-2.329,4.986-4.352,10.074-6.068,15.264
		c-0.123,0.572-0.328,0.857-0.613,0.857c-0.287,0-0.429-0.144-0.429-0.432c0-0.165,0.04-0.391,0.123-0.679
		c0.613-2.181,0.919-3.764,0.919-4.751c0-1.316-0.45-2.241-1.349-2.775c-0.899-0.535-2.493-0.803-4.781-0.803
		c-0.654,0-1.145,0.409-1.471,1.229l-6.62,16.354c-0.49,1.229-0.735,1.947-0.735,2.152c0,0.368,0.368,0.573,1.103,0.613l3.188,0.124
		c1.062,0.041,2.166,0.062,3.31,0.062c5.925,0,9.992-1.288,12.199-3.862c1.144-1.308,2.207-3.453,3.188-6.437
		c0.285-0.816,0.633-1.226,1.042-1.226c0.285,0,0.429,0.144,0.429,0.431c0,0.165-0.205,0.782-0.613,1.849
		c-1.553,4.067-2.697,7.251-3.433,9.551c-0.164,0.424-0.348,0.694-0.552,0.809c-0.205,0.114-0.674,0.173-1.41,0.173h-20.78
		c-5.067,0-8.02-0.021-8.857-0.062c-0.837-0.04-1.257-0.204-1.257-0.489c0-0.245,0.184-0.388,0.552-0.429
		c0.368-0.04,1.554-0.061,3.555-0.061c0.776,0,1.308-0.143,1.594-0.429c0.286-0.285,0.715-1.122,1.288-2.51l12.382-29.87
		c0.368-0.775,0.909-2.04,1.624-3.795c0.715-1.754,1.073-2.836,1.073-3.244c0-0.325-0.194-0.52-0.582-0.581
		c-0.389-0.062-1.727-0.112-4.015-0.153c-0.49,0-0.736-0.13-0.736-0.391c0-0.434,0.388-0.651,1.165-0.651c0.081,0,0.674,0,1.777,0
		c1.104,0.041,2.452,0.061,4.046,0.061l18.267,0.123c0.736,0,1.185-0.061,1.349-0.184h0.368
		C96.541,77.549,96.888,77.756,96.888,78.169z"/>
	<path d="M131.093,86.78c0,3.873-1.798,7.123-5.394,9.751c-3.597,2.628-8.03,3.943-13.302,3.943c-1.39,0-3.31-0.163-5.762-0.49
		l-5.885,15.263c-0.205,0.532-0.512,1.37-0.919,2.514l-0.368,0.92c-0.042,0.041-0.083,0.102-0.123,0.184
		c0,0.286,0.266,0.429,0.797,0.429l4.72-0.184c0.408,0.092,0.613,0.273,0.613,0.548c0,0.452-0.328,0.657-0.98,0.617l-1.594-0.307
		H90.881c-1.021,0-1.756,0.052-2.207,0.153c-0.449,0.102-0.592,0.153-0.429,0.153c-0.613,0-0.919-0.185-0.919-0.552
		c0-0.408,0.266-0.613,0.797-0.613c0.245,0,0.47,0,0.674,0h3.188c0.694,0,1.226-0.336,1.594-1.009
		c0.368-0.672,0.919-1.965,1.655-3.881l12.627-32.328c0.163-0.448,0.572-1.507,1.226-3.178c-0.245-0.04-0.511-0.062-0.797-0.062
		c-0.532,0-1.186,0.042-1.961,0.123c-0.777,0.082-1.267,0.123-1.471,0.123c-0.981,0-1.471-0.204-1.471-0.613
		c0-0.408,0.408-0.613,1.226-0.613h0.49c0.327,0,0.674,0,1.042,0h0.736c0.694,0,1.818,0,3.371,0c5.762,0,9.971,0.245,12.627,0.733
		C128.354,79.424,131.093,82.216,131.093,86.78z M124.963,85.926c0-2.484-0.644-4.277-1.931-5.378
		c-1.287-1.099-3.382-1.65-6.283-1.65c-0.409,0-0.98,0.061-1.716,0.183l-7.846,19.679c2.084,0.408,3.657,0.611,4.72,0.611
		c3.433,0,6.467-1.365,9.103-4.094S124.963,89.43,124.963,85.926z"/>
	<path d="M170.69,91.382c0,4.245-1.063,8.417-3.188,12.518c-2.126,4.102-5.026,7.621-8.705,10.559
		c-5.435,4.285-10.871,6.428-16.305,6.428c-4.087,0-7.274-1.132-9.562-3.397c-2.289-2.264-3.433-5.437-3.433-9.518
		c0-4.122,1.062-8.355,3.188-12.702c2.125-4.346,4.985-8.09,8.582-11.233c5.395-4.733,10.911-7.101,16.551-7.101
		c4.127,0,7.334,1.49,9.624,4.468C169.607,84.22,170.69,87.546,170.69,91.382z M164.867,87.465c0-2.326-0.45-4.386-1.349-6.182
		c-1.145-2.326-3.208-3.489-6.191-3.489c-5.109,0-9.952,3.693-14.528,11.079c-2.248,3.632-4.036,7.489-5.364,11.568
		c-1.328,4.081-1.992,7.774-1.992,11.079c0,5.672,2.575,8.508,7.724,8.508c3.065,0,6.068-1.285,9.011-3.855
		c3.923-3.387,7.069-8.182,9.44-14.385C163.784,96.157,164.867,91.382,164.867,87.465z"/>
	<path d="M208.082,86.07c0,2.125-0.767,4.097-2.299,5.915c-1.533,1.819-3.627,3.218-6.283,4.199
		c-2.084,0.777-5.211,1.247-9.379,1.41l1.962,0.552c2.614,0.735,4.331,1.665,5.148,2.789s1.227,3.116,1.227,5.977
		c0,0.654-0.023,1.247-0.069,1.777l-0.482,5.395c-0.083,1.554-0.123,2.718-0.123,3.494c0,1.554,0.49,2.329,1.472,2.329
		c0.326,0,0.633-0.123,0.919-0.368c0.082-0.081,0.123-0.347,0.123-0.797c0-0.449,0.163-0.857,0.49-1.226
		c0.326-0.368,0.715-0.552,1.165-0.552c0.571,0,0.857,0.307,0.857,0.92c0,0.817-0.45,1.522-1.349,2.114s-1.982,0.889-3.248,0.889
		c-4.087,0-6.13-2.084-6.13-6.252c0-1.062,0.081-2.288,0.245-3.678l0.552-4.721c0.162-1.389,0.245-2.533,0.245-3.433
		c0-2.043-0.88-3.392-2.636-4.046c-0.613-0.204-2.207-0.388-4.781-0.552l-7.662,19.315c-0.123,0.285-0.185,0.468-0.185,0.55
		c0,0.611,0.715,0.998,2.146,1.16c0.613,0.083,0.981,0.123,1.104,0.123h1.41c0.245,0,0.367,0.103,0.367,0.307
		c0,0.409-0.45,0.613-1.349,0.613c-1.431,0-3.841-0.042-7.232-0.123c-1.717-0.04-2.657-0.062-2.82-0.062
		c-0.49,0-1.226,0.031-2.207,0.092c-0.98,0.062-1.716,0.093-2.206,0.093c-0.53,0-0.797-0.163-0.797-0.491
		c0-0.245,0.573-0.388,1.716-0.429c1.594-0.04,2.676-0.245,3.249-0.613c0.491-0.245,1.144-1.389,1.962-3.433l13.547-34.572
		c0.163-0.327,0.245-0.613,0.245-0.858c0-0.776-1.247-1.165-3.739-1.165c-0.409-0.082-0.613-0.224-0.613-0.429
		c0-0.285,0.185-0.449,0.552-0.49c0.368-0.04,1.594-0.062,3.678-0.062c1.227,0.123,2.166,0.184,2.82,0.184h3.003
		c4.209,0.083,6.682,0.164,7.418,0.245c1.185,0.083,2.329,0.389,3.433,0.919C206.569,80.512,208.082,82.842,208.082,86.07z
		 M202.258,86.107c0-3.544-1.066-5.784-3.199-6.721c-0.738-0.326-2.216-0.488-4.43-0.488c-0.657,0-1.129,0.244-1.416,0.732
		c-0.41,0.693-0.738,1.345-0.984,1.956l-6.03,15.456c0.492,0.041,1.066,0.062,1.723,0.062c4.184,0,7.619-1.028,10.307-3.085
		C200.914,91.962,202.258,89.325,202.258,86.107z"/>
	<path d="M250.562,77.61c-1.268,3.515-2.248,6.519-2.942,9.011c-0.49,1.717-0.92,2.575-1.287,2.575c-0.328,0-0.49-0.162-0.49-0.487
		c0-0.162,0.173-0.883,0.521-2.163c0.347-1.28,0.521-2.448,0.521-3.505c0-2.071-0.961-3.35-2.882-3.839
		c-0.776-0.203-2.104-0.304-3.984-0.304c-1.145,0-2.206,0.041-3.188,0.123l-14.221,35.438c-0.327,0.816-0.623,1.531-0.889,2.143
		c-0.267,0.612-0.398,1-0.398,1.163c0,0.938,1.308,1.408,3.923,1.408c0.368,0,0.552,0.122,0.552,0.366
		c0,0.449-0.348,0.674-1.042,0.674c-0.205,0-0.735-0.021-1.594-0.062c-1.717-0.081-3.739-0.123-6.068-0.123
		c-1.513,0-3.126,0.031-4.843,0.093c-0.573,0.061-1.287,0.092-2.146,0.092c-0.45,0-0.674-0.108-0.674-0.327
		c0-0.436,0.407-0.654,1.226-0.654c0.123,0,0.307,0,0.552,0h0.613c1.511,0,2.544-0.265,3.095-0.797
		c0.552-0.53,1.318-2.043,2.299-4.535l13.854-35.001h-2.452c-4.209,0-7.335,0.96-9.378,2.881c-1.187,1.104-2.616,3.249-4.291,6.436
		c-0.245,0.491-0.531,0.736-0.858,0.736c-0.205,0-0.307-0.123-0.307-0.37c0-0.123,0.062-0.329,0.185-0.617l0.919-2.095
		c0.449-0.987,1.124-2.486,2.022-4.5c0.531-1.026,1.124-2.279,1.778-3.759c1.389,0.123,6.497,0.184,15.324,0.184
		C238.915,77.794,244.432,77.733,250.562,77.61z"/>
	<path d="M282.19,78.169c0,0.042-0.041,0.145-0.122,0.309c-0.205,0.332-0.43,0.91-0.675,1.736c-0.695,2.438-1.257,4.513-1.686,6.228
		s-0.808,2.57-1.134,2.57c-0.245,0-0.368-0.163-0.368-0.49l0.062-0.429c0.53-1.307,0.797-2.881,0.797-4.72
		c0-2.002-0.644-3.258-1.931-3.77c-1.287-0.51-3.464-0.786-6.528-0.827h-4.107c-0.695,0-1.205,0.406-1.532,1.218l-2.084,5.479
		l-4.598,11.691c1.472,0.164,2.431,0.245,2.881,0.245c2.085,0,3.902-0.53,5.456-1.594c1.553-1.062,2.636-2.513,3.249-4.352
		c0.204-0.613,0.449-0.919,0.735-0.919c0.367,0,0.552,0.164,0.552,0.49c0,0.083-0.083,0.307-0.245,0.674
		c-2.33,4.986-4.353,10.074-6.068,15.264c-0.123,0.572-0.328,0.857-0.613,0.857c-0.286,0-0.43-0.144-0.43-0.432
		c0-0.165,0.041-0.391,0.123-0.679c0.613-2.181,0.92-3.764,0.92-4.751c0-1.316-0.45-2.241-1.349-2.775
		c-0.899-0.535-2.493-0.803-4.781-0.803c-0.654,0-1.145,0.409-1.472,1.229l-6.62,16.354c-0.49,1.229-0.735,1.947-0.735,2.152
		c0,0.368,0.367,0.573,1.104,0.613l3.188,0.124c1.062,0.041,2.165,0.062,3.31,0.062c5.925,0,9.992-1.288,12.198-3.862
		c1.144-1.308,2.207-3.453,3.188-6.437c0.286-0.816,0.634-1.226,1.042-1.226c0.286,0,0.43,0.144,0.43,0.431
		c0,0.165-0.205,0.782-0.613,1.849c-1.554,4.067-2.697,7.251-3.433,9.551c-0.164,0.424-0.348,0.694-0.552,0.809
		c-0.205,0.114-0.674,0.173-1.41,0.173h-20.779c-5.068,0-8.02-0.021-8.858-0.062c-0.837-0.04-1.256-0.204-1.256-0.489
		c0-0.245,0.184-0.388,0.552-0.429c0.367-0.04,1.553-0.061,3.555-0.061c0.776,0,1.308-0.143,1.594-0.429
		c0.285-0.285,0.715-1.122,1.287-2.51l12.383-29.87c0.367-0.775,0.909-2.04,1.624-3.795c0.715-1.754,1.073-2.836,1.073-3.244
		c0-0.325-0.194-0.52-0.583-0.581c-0.389-0.062-1.727-0.112-4.015-0.153c-0.49,0-0.735-0.13-0.735-0.391
		c0-0.434,0.388-0.651,1.164-0.651c0.082,0,0.675,0,1.778,0c1.103,0.041,2.451,0.061,4.045,0.061l18.268,0.123
		c0.735,0,1.185-0.061,1.349-0.184h0.367C281.843,77.549,282.19,77.756,282.19,78.169z"/>
	<path d="M315.107,86.07c0,2.125-0.767,4.097-2.299,5.915c-1.533,1.819-3.627,3.218-6.283,4.199
		c-2.084,0.777-5.211,1.247-9.379,1.41l1.962,0.552c2.614,0.735,4.331,1.665,5.148,2.789s1.227,3.116,1.227,5.977
		c0,0.654-0.023,1.247-0.069,1.777l-0.482,5.395c-0.083,1.554-0.123,2.718-0.123,3.494c0,1.554,0.49,2.329,1.472,2.329
		c0.326,0,0.633-0.123,0.919-0.368c0.082-0.081,0.123-0.347,0.123-0.797c0-0.449,0.163-0.857,0.49-1.226
		c0.326-0.368,0.715-0.552,1.165-0.552c0.571,0,0.857,0.307,0.857,0.92c0,0.817-0.45,1.522-1.349,2.114s-1.982,0.889-3.248,0.889
		c-4.087,0-6.13-2.084-6.13-6.252c0-1.062,0.081-2.288,0.245-3.678l0.552-4.721c0.162-1.389,0.245-2.533,0.245-3.433
		c0-2.043-0.88-3.392-2.636-4.046c-0.613-0.204-2.207-0.388-4.781-0.552l-7.662,19.315c-0.123,0.285-0.185,0.468-0.185,0.55
		c0,0.611,0.715,0.998,2.146,1.16c0.613,0.083,0.981,0.123,1.104,0.123h1.41c0.245,0,0.367,0.103,0.367,0.307
		c0,0.409-0.45,0.613-1.349,0.613c-1.431,0-3.841-0.042-7.232-0.123c-1.717-0.04-2.657-0.062-2.82-0.062
		c-0.49,0-1.226,0.031-2.206,0.092c-0.981,0.062-1.717,0.093-2.207,0.093c-0.53,0-0.797-0.163-0.797-0.491
		c0-0.245,0.572-0.388,1.716-0.429c1.594-0.04,2.677-0.245,3.249-0.613c0.49-0.245,1.144-1.389,1.962-3.433l13.547-34.572
		c0.163-0.327,0.245-0.613,0.245-0.858c0-0.776-1.247-1.165-3.739-1.165c-0.409-0.082-0.613-0.224-0.613-0.429
		c0-0.285,0.185-0.449,0.552-0.49c0.368-0.04,1.594-0.062,3.678-0.062c1.227,0.123,2.166,0.184,2.82,0.184h3.003
		c4.209,0.083,6.682,0.164,7.418,0.245c1.185,0.083,2.329,0.389,3.433,0.919C313.595,80.512,315.107,82.842,315.107,86.07z
		 M309.283,86.107c0-3.544-1.066-5.784-3.199-6.721c-0.738-0.326-2.216-0.488-4.43-0.488c-0.657,0-1.129,0.244-1.416,0.732
		c-0.41,0.693-0.738,1.345-0.984,1.956l-6.03,15.456c0.492,0.041,1.066,0.062,1.723,0.062c4.184,0,7.619-1.028,10.307-3.085
		C307.939,91.962,309.283,89.325,309.283,86.107z"/>
	<path d="M33.861,139.506c0,2.243-0.674,4.141-2.021,5.691c-1.348,1.551-3,2.326-4.957,2.326c-2.078,0-3.825-0.787-5.24-2.36
		s-2.123-3.512-2.123-5.815c0-2.349,0.681-4.271,2.044-5.77c1.362-1.498,3.105-2.247,5.228-2.247c2.002,0,3.681,0.782,5.036,2.349
		C33.184,135.245,33.861,137.187,33.861,139.506z M31.332,139.619c0-2.763-0.564-4.915-1.694-6.455
		c-0.708-0.966-1.694-1.449-2.958-1.449c-1.205,0-2.138,0.37-2.8,1.109c-1.219,1.359-1.829,3.571-1.829,6.637
		c0,2.431,0.425,4.318,1.276,5.662s2.044,2.016,3.58,2.016c1.43,0,2.507-0.634,3.229-1.902
		C30.933,143.832,31.332,141.96,31.332,139.619z"/>
	<path d="M49.579,131.692c0,0.121-0.143,0.189-0.429,0.204c-0.663,0.015-1.106,0.113-1.332,0.294
		c-0.226,0.182-0.459,0.604-0.7,1.269l-0.768,2.106c-1.852,5.088-3.154,8.991-3.907,11.709c-0.045,0.181-0.121,0.271-0.226,0.271
		c-0.121,0-0.369-0.565-0.745-1.694c-0.677-2.062-1.205-3.613-1.581-4.652c-0.403-1.146-1-2.855-1.791-5.132l-1.1-3.043
		c-0.151-0.422-0.316-0.704-0.497-0.847c-0.181-0.144-0.481-0.223-0.903-0.237c-0.497-0.015-0.794-0.03-0.892-0.045
		c-0.098-0.016-0.147-0.075-0.147-0.181c0-0.136,0.151-0.203,0.452-0.203h0.204c0.271,0,0.741,0.011,1.411,0.033
		s1.148,0.034,1.434,0.034c0.075,0,0.365-0.012,0.87-0.034c0.504-0.022,1.223-0.033,2.157-0.033h0.316
		c0.271,0,0.407,0.068,0.407,0.205c0,0.15-0.271,0.232-0.813,0.246l-1.378,0.047c-0.316,0.016-0.474,0.118-0.474,0.307
		c0,0.031,0.015,0.095,0.044,0.188l0.174,0.612c0.03,0.121,0.767,2.242,2.209,6.363c0.241,0.71,0.7,2.061,1.378,4.054
		c2.479-7.035,3.718-10.734,3.718-11.096c0-0.347-0.369-0.506-1.108-0.476h-0.701c-0.181,0-0.271-0.066-0.271-0.201
		c0-0.167,0.226-0.25,0.677-0.25c0.09,0,0.346,0,0.768,0c0.421,0.045,0.73,0.067,0.926,0.067h0.723l1.491-0.067
		C49.444,131.511,49.579,131.571,49.579,131.692z"/>
	<path d="M61.797,143.616c0,0.061-0.015,0.429-0.045,1.106c-0.031,0.678-0.045,1.325-0.045,1.942v0.745
		c-1.476-0.091-4.396-0.136-8.762-0.136c-0.527,0-1.047,0-1.559,0s-0.858,0-1.039,0h-0.226c-0.286,0-0.429-0.061-0.429-0.182
		c0-0.081,0.045-0.128,0.135-0.142c0.045,0,0.331-0.02,0.858-0.061c0.391-0.03,0.628-0.113,0.711-0.249
		c0.083-0.136,0.125-0.491,0.125-1.064v-12.73c0-0.438-0.064-0.698-0.192-0.782c-0.128-0.082-0.539-0.124-1.231-0.124
		c-0.241,0-0.361-0.063-0.361-0.192c0-0.127,0.166-0.191,0.497-0.191h3.861c0.136,0,0.986,0,2.552,0c1.565,0,2.62,0,3.162,0
		c0.452,0,0.866-0.03,1.242-0.091c0.03,0.647,0.098,1.544,0.203,2.688l0.09,0.972c0.015,0.075,0.022,0.173,0.022,0.293
		c0,0.151-0.067,0.226-0.203,0.226c-0.166,0-0.286-0.188-0.361-0.567c-0.286-1.363-0.753-2.228-1.4-2.592
		c-0.482-0.272-1.747-0.408-3.794-0.408h-1.852v6.64h0.542c1.686,0,2.713-0.128,3.083-0.385c0.369-0.256,0.621-1.001,0.756-2.235
		c0.03-0.316,0.113-0.475,0.249-0.475c0.166,0,0.249,0.136,0.249,0.407c0,0.271-0.015,0.67-0.045,1.196
		c-0.03,0.527-0.045,0.926-0.045,1.197c0,1.611,0.024,2.718,0.072,3.319c0.012,0.151,0.018,0.279,0.018,0.385
		c0,0.195-0.083,0.293-0.248,0.293c-0.105,0-0.176-0.063-0.213-0.191c-0.037-0.128-0.101-0.546-0.191-1.254
		c-0.12-0.888-0.487-1.438-1.102-1.648c-0.27-0.091-0.974-0.136-2.113-0.136h-1.012v7.565c3.312,0,5.254-0.066,5.826-0.2
		c0.994-0.224,1.559-1.175,1.694-2.855c0.03-0.371,0.128-0.558,0.294-0.558C61.721,143.141,61.797,143.3,61.797,143.616z"/>
	<path d="M75.663,146.574c0,0.633-0.527,0.949-1.581,0.949c-1.175,0-2.093-0.489-2.755-1.469c-0.286-0.421-0.471-0.827-0.553-1.219
		c-0.083-0.392-0.207-1.386-0.373-2.981c-0.09-0.963-0.399-1.645-0.926-2.044c-0.527-0.398-1.385-0.613-2.574-0.644v7.114
		c0,0.301,0.241,0.489,0.723,0.564c0.135,0.015,0.481,0.03,1.039,0.045c0.196,0,0.294,0.061,0.294,0.181
		c0,0.136-0.128,0.203-0.384,0.203H68.3c-0.135,0-0.791,0-1.965,0c-0.226,0-0.609,0-1.151,0c-0.527,0-0.874,0-1.039,0h-0.881
		c-0.331,0-0.497-0.067-0.497-0.203c0-0.105,0.218-0.165,0.655-0.181c0.708-0.015,1.091-0.105,1.152-0.271
		c0.06-0.074,0.09-0.368,0.09-0.88v-12.467c0-0.602-0.064-0.963-0.192-1.084c-0.128-0.12-0.516-0.188-1.163-0.203
		c-0.376,0-0.564-0.067-0.564-0.203c0-0.15,0.12-0.226,0.361-0.226c0.045,0,0.113,0.008,0.203,0.022l3.003,0.067
		c0.301,0,0.723-0.01,1.265-0.029c0.602-0.041,1.024-0.061,1.265-0.061c1.4,0,2.51,0.312,3.331,0.937
		c0.821,0.625,1.231,1.473,1.231,2.541c0,1.054-0.422,1.924-1.265,2.608c-0.843,0.686-1.987,1.088-3.433,1.208
		c-0.136,0.016-0.211,0.038-0.226,0.068c0,0.061,0.075,0.091,0.226,0.091c1.581,0.271,2.668,0.826,3.263,1.664
		s0.99,2.352,1.186,4.541c0.121,1.237,0.542,1.856,1.265,1.856c0.226,0,0.339-0.045,0.339-0.136c0-0.015-0.008-0.029-0.022-0.045
		c-0.076-0.165-0.113-0.301-0.113-0.406c0-0.316,0.165-0.475,0.497-0.475C75.482,146.01,75.663,146.198,75.663,146.574z
		 M70.988,135.26c0-2.152-0.934-3.229-2.8-3.229c-0.497,0-0.835,0.068-1.016,0.204c-0.181,0.135-0.271,0.376-0.271,0.723v5.735
		c1.445,0.016,2.488-0.248,3.127-0.79C70.668,137.36,70.988,136.479,70.988,135.26z"/>
	<path d="M90.455,142.848c0,1.249-0.504,2.318-1.513,3.206c-1.114,0.979-2.537,1.469-4.268,1.469c-1.416,0-2.454-0.331-3.117-0.994
		c-0.421-0.421-0.632-0.903-0.632-1.445c0-0.467,0.147-0.839,0.44-1.118c0.293-0.278,0.689-0.418,1.186-0.418
		c0.392,0,0.715,0.114,0.971,0.341c0.256,0.228,0.384,0.516,0.384,0.864c0,0.53-0.354,0.947-1.061,1.25
		c-0.286,0.121-0.429,0.242-0.429,0.363c0,0.197,0.195,0.375,0.587,0.534s0.821,0.238,1.288,0.238c1.144,0,2.074-0.392,2.789-1.177
		c0.715-0.785,1.073-1.812,1.073-3.081c0-2.551-1.145-3.827-3.433-3.827c-0.226,0-0.392,0-0.497,0h-0.158
		c-0.196,0-0.293-0.067-0.293-0.202c0-0.105,0.181-0.188,0.542-0.248c1.054-0.149,1.867-0.536,2.439-1.159
		c0.572-0.622,0.858-1.422,0.858-2.397c0-0.96-0.249-1.729-0.746-2.308c-0.497-0.578-1.167-0.866-2.01-0.866
		c-0.618,0-1.156,0.132-1.615,0.395c-0.459,0.264-0.689,0.568-0.689,0.915c0,0.136,0.105,0.226,0.316,0.271
		c0.994,0.241,1.49,0.655,1.49,1.242c0,0.768-0.399,1.152-1.197,1.152c-0.512,0-0.922-0.15-1.231-0.452
		c-0.309-0.301-0.463-0.7-0.463-1.197c0-0.812,0.35-1.493,1.05-2.043s1.675-0.824,2.925-0.824c1.43,0,2.521,0.368,3.274,1.106
		c0.752,0.737,1.129,1.596,1.129,2.574c0,1.355-0.64,2.356-1.919,3.004c-0.452,0.226-1.182,0.414-2.19,0.564v0.158
		c1.25,0.045,2.258,0.323,3.026,0.835C89.89,140.326,90.455,141.418,90.455,142.848z"/>
	<path d="M102.401,142.171c0,1.927-0.738,3.402-2.213,4.426c-0.889,0.618-2.041,0.927-3.456,0.927s-2.454-0.369-3.116-1.107
		c-0.361-0.406-0.542-0.888-0.542-1.445c0-0.466,0.15-0.847,0.452-1.141c0.301-0.293,0.692-0.439,1.174-0.439
		c0.391,0,0.719,0.112,0.982,0.337c0.263,0.224,0.395,0.501,0.395,0.83c0,0.554-0.369,0.973-1.106,1.257
		c-0.332,0.12-0.497,0.255-0.497,0.404c0,0.239,0.222,0.453,0.667,0.64c0.444,0.188,0.937,0.28,1.479,0.28
		c1.054,0,1.844-0.36,2.371-1.081c0.723-0.991,1.084-2.327,1.084-4.01c0-1.231-0.286-2.185-0.858-2.86
		c-0.572-0.676-1.385-1.014-2.439-1.014c-0.813,0-1.709,0.309-2.688,0.926c0.09-3.388,0.158-5.525,0.203-6.414
		c0.015-0.512,0.128-0.824,0.339-0.938c0.21-0.112,0.783-0.169,1.716-0.169c0.15,0,0.406,0,0.768,0c0.362,0,0.647,0,0.858,0h0.768
		c1.039,0,1.645-0.019,1.818-0.055c0.173-0.037,0.282-0.158,0.327-0.364c0.06-0.338,0.166-0.507,0.316-0.507
		c0.15,0,0.226,0.082,0.226,0.246c0,0.104-0.007,0.187-0.022,0.247l-0.045,0.515c-0.076,0.837-0.23,1.355-0.463,1.558
		c-0.234,0.202-0.802,0.303-1.705,0.303h-4.313c-0.061,0.515-0.113,2.065-0.158,4.652c0.858-0.407,1.754-0.61,2.688-0.61
		c1.55,0,2.77,0.41,3.658,1.23C101.957,139.615,102.401,140.74,102.401,142.171z"/>
	<path d="M115.047,139.686c0,1.34-0.2,2.604-0.599,3.794s-0.945,2.146-1.637,2.868c-0.738,0.783-1.679,1.175-2.823,1.175
		c-1.566,0-2.857-0.769-3.873-2.304c-1.017-1.536-1.524-3.501-1.524-5.895c0-2.771,0.715-4.953,2.146-6.549
		c0.858-0.964,1.912-1.445,3.162-1.445c1.475,0,2.649,0.67,3.523,2.01C114.505,134.997,115.047,137.112,115.047,139.686z
		 M112.608,138.873c0-2.243-0.249-4.095-0.745-5.555c-0.376-1.114-1.039-1.672-1.987-1.672c-1.897,0-2.846,2.522-2.846,7.565
		c0,5.285,1.001,7.927,3.003,7.927c0.934,0,1.604-0.768,2.01-2.303C112.42,143.435,112.608,141.448,112.608,138.873z"/>
	<path d="M132.549,145.468c0,0.392-0.022,1.039-0.068,1.942h-0.248c-0.09,0-0.309-0.016-0.654-0.045
		c-0.346-0.03-0.736-0.046-1.172-0.046l-9.377-0.067c-0.256,0-0.383-0.067-0.383-0.203c0-0.105,0.203-0.173,0.61-0.203
		c0.572-0.03,0.915-0.094,1.027-0.192c0.113-0.098,0.169-0.38,0.169-0.847v-12.692c0-0.557-0.057-0.88-0.169-0.971
		c-0.113-0.09-0.516-0.136-1.208-0.136c-0.287,0-0.429-0.082-0.429-0.248c0-0.136,0.09-0.203,0.271-0.203h0.203
		c0.497,0.045,1.483,0.067,2.958,0.067c0.135,0,0.399-0.011,0.791-0.034c0.391-0.022,0.715-0.033,0.971-0.033h0.248
		c0.271,0,0.407,0.075,0.407,0.226c0,0.091-0.042,0.146-0.125,0.169c-0.083,0.023-0.342,0.042-0.779,0.057
		c-0.437,0.016-0.697,0.087-0.779,0.215c-0.083,0.128-0.124,0.523-0.124,1.186v13.324c0.406,0.016,0.971,0.022,1.694,0.022
		c1.761,0,3.003-0.09,3.726-0.271s1.212-0.52,1.468-1.017s0.407-1.166,0.452-2.01c0.014-0.195,0.101-0.294,0.26-0.294
		c0.188,0,0.274,0.113,0.26,0.339v0.564c0,0.03,0,0.099,0,0.203c0,0.105,0,0.212,0,0.316V145.468z"/>
	<path d="M148.086,139.506c0,2.243-0.674,4.141-2.021,5.691c-1.348,1.551-3,2.326-4.957,2.326c-2.078,0-3.825-0.787-5.24-2.36
		s-2.123-3.512-2.123-5.815c0-2.349,0.681-4.271,2.044-5.77c1.362-1.498,3.105-2.247,5.228-2.247c2.002,0,3.681,0.782,5.036,2.349
		C147.409,135.245,148.086,137.187,148.086,139.506z M145.557,139.619c0-2.763-0.564-4.915-1.694-6.455
		c-0.708-0.966-1.694-1.449-2.958-1.449c-1.205,0-2.138,0.37-2.8,1.109c-1.219,1.359-1.829,3.571-1.829,6.637
		c0,2.431,0.425,4.318,1.276,5.662s2.044,2.016,3.58,2.016c1.43,0,2.507-0.634,3.229-1.902
		C145.158,143.832,145.557,141.96,145.557,139.619z"/>
	<path d="M164.346,139.506c0,2.243-0.673,4.141-2.021,5.691c-1.348,1.551-3,2.326-4.957,2.326c-2.078,0-3.825-0.787-5.24-2.36
		s-2.123-3.512-2.123-5.815c0-2.349,0.681-4.271,2.044-5.77c1.362-1.498,3.105-2.247,5.228-2.247c2.002,0,3.681,0.782,5.036,2.349
		C163.669,135.245,164.346,137.187,164.346,139.506z M161.817,139.619c0-2.763-0.564-4.915-1.694-6.455
		c-0.708-0.966-1.694-1.449-2.958-1.449c-1.205,0-2.138,0.37-2.8,1.109c-1.219,1.359-1.829,3.571-1.829,6.637
		c0,2.431,0.425,4.318,1.276,5.662s2.044,2.016,3.58,2.016c1.43,0,2.507-0.634,3.229-1.902
		C161.418,143.832,161.817,141.96,161.817,139.619z"/>
	<path d="M180.967,147.071c0,0.136-0.105,0.203-0.316,0.203h-0.18h-2.711h-2.641c-0.092,0-0.189,0-0.295,0
		c-0.285,0-0.428-0.057-0.428-0.171c0-0.113,0.188-0.185,0.564-0.213c0.781-0.075,1.174-0.203,1.174-0.384
		c0-0.195-2.055-2.643-6.166-7.34v6.509c0,0.525,0.083,0.852,0.249,0.979c0.165,0.128,0.609,0.191,1.333,0.191
		c0.164,0,0.248,0.075,0.248,0.226c0,0.135-0.105,0.202-0.316,0.202c-0.15,0-0.286,0-0.406,0h-3.14c-0.196,0-0.425,0-0.688,0
		s-0.531,0-0.802,0h-0.203c-0.226,0-0.339-0.064-0.339-0.193c0-0.143,0.278-0.221,0.836-0.235c0.512-0.015,0.812-0.128,0.902-0.339
		c0.046-0.075,0.068-0.55,0.068-1.423v-12.579c-0.016-0.316-0.433-0.475-1.251-0.475c-0.37,0-0.556-0.082-0.556-0.248
		c0-0.136,0.129-0.203,0.387-0.203c0.076,0,0.175,0.008,0.296,0.022c0.243,0.03,0.918,0.045,2.025,0.045
		c1.183,0,1.935-0.015,2.253-0.045c0.167-0.015,0.342-0.022,0.523-0.022c0.273,0,0.41,0.083,0.41,0.248
		c0,0.091-0.043,0.147-0.127,0.17s-0.346,0.041-0.788,0.057c-0.442,0.015-0.705,0.075-0.789,0.181s-0.126,0.443-0.126,1.016v5.511
		l1.92-1.92c2.906-2.918,4.359-4.438,4.359-4.559c0-0.196-0.355-0.287-1.062-0.272c-0.451,0.016-0.678-0.061-0.678-0.227
		c0-0.105,0.105-0.166,0.316-0.182c0.211-0.015,0.941-0.022,2.191-0.022h1.242c0.527,0,0.828,0.008,0.902,0.022
		c0.15,0.03,0.227,0.105,0.227,0.226c0,0.166-0.166,0.249-0.498,0.249c-0.695-0.016-1.139,0.001-1.336,0.047
		c-0.195,0.047-0.393,0.173-0.588,0.377c-0.977,1.026-2.463,2.565-4.459,4.619l-0.604,0.571l-0.289,0.32
		c0.09,0.105,0.467,0.513,1.13,1.22c1.265,1.311,3.081,3.412,5.444,6.305c0.498,0.603,0.84,0.964,1.029,1.084
		c0.188,0.121,0.553,0.196,1.096,0.226C180.748,146.875,180.967,146.95,180.967,147.071z"/>
	<path d="M190.927,142.848c0,1.295-0.493,2.397-1.479,3.308c-0.986,0.911-2.172,1.367-3.557,1.367c-0.813,0-1.784-0.249-2.913-0.746
		c-0.302-0.135-0.527-0.203-0.678-0.203c-0.181,0-0.294,0.209-0.339,0.626c-0.016,0.215-0.113,0.323-0.294,0.323
		c-0.15,0-0.226-0.091-0.226-0.271c0-0.12,0.008-0.211,0.022-0.271c0.12-0.918,0.181-1.769,0.181-2.552
		c0-0.15-0.015-0.571-0.045-1.265c-0.016-0.09-0.022-0.21-0.022-0.361c0-0.226,0.09-0.339,0.271-0.339
		c0.15,0,0.256,0.183,0.316,0.548c0.392,2.706,1.664,4.06,3.816,4.06c0.919,0,1.63-0.26,2.135-0.779
		c0.504-0.52,0.756-1.253,0.756-2.202c0-0.843-0.244-1.562-0.733-2.156s-1.329-1.186-2.519-1.772
		c-1.43-0.708-2.424-1.393-2.98-2.056c-0.558-0.662-0.836-1.482-0.836-2.462c0-1.249,0.402-2.28,1.208-3.094
		c0.806-0.812,1.826-1.219,3.061-1.219c0.512,0,1.22,0.173,2.123,0.519c0.315,0.121,0.549,0.181,0.7,0.181
		c0.165,0,0.274-0.029,0.327-0.09s0.102-0.218,0.146-0.475c0.03-0.15,0.113-0.226,0.249-0.226c0.15,0,0.226,0.091,0.226,0.271
		c0,0.12-0.008,0.211-0.022,0.271c-0.046,0.361-0.068,0.798-0.068,1.31c0,0.723,0.038,1.295,0.113,1.717l0.022,0.361
		c0.015,0.166-0.053,0.248-0.203,0.248c-0.166,0-0.278-0.173-0.339-0.52c-0.166-0.888-0.557-1.629-1.174-2.225
		c-0.618-0.594-1.311-0.892-2.078-0.892c-0.753,0-1.352,0.241-1.795,0.723c-0.444,0.482-0.667,1.137-0.667,1.965
		c0,0.964,0.324,1.739,0.972,2.326c0.361,0.331,1.144,0.798,2.349,1.4c1.415,0.708,2.431,1.427,3.049,2.156
		C190.618,141.083,190.927,141.915,190.927,142.848z"/>
	<path d="M31.445,162.699c0,0.196-0.09,0.294-0.271,0.294s-0.309-0.195-0.384-0.587c-0.03-0.271-0.061-0.542-0.09-0.813
		c-0.105-0.542-0.279-1.001-0.52-1.378c-0.316-0.496-0.835-0.812-1.558-0.948c-0.467-0.09-0.843-0.128-1.129-0.112
		c-0.708,0.02-1.137,0.035-1.287,0.045v13.639c0,0.543,0.143,0.882,0.429,1.018c0.15,0.075,0.572,0.121,1.265,0.136
		c0.181,0.014,0.271,0.078,0.271,0.192c0,0.128-0.121,0.191-0.361,0.191c-0.121,0-0.226-0.008-0.316-0.022
		c-0.903-0.03-1.543-0.045-1.919-0.045c-0.497,0-0.964,0.011-1.4,0.033c-0.437,0.023-0.994,0.034-1.671,0.034
		c-0.347,0-0.52-0.061-0.52-0.181c0-0.136,0.324-0.211,0.971-0.227c0.466,0,0.768-0.098,0.903-0.294
		c0.075-0.12,0.113-0.43,0.113-0.927v-13.548c-1.49,0.015-2.417,0.09-2.778,0.226c-0.948,0.347-1.505,1.272-1.671,2.777
		c-0.045,0.452-0.151,0.678-0.316,0.678c-0.181,0-0.271-0.158-0.271-0.474c0-0.166,0.007-0.331,0.023-0.497l0.045-0.52
		c0.045-0.692,0.113-1.604,0.203-2.732h1.017l4.607,0.067c0.542,0.016,1.385,0.016,2.529,0l3.749-0.067
		c0.03,0.843,0.127,2.093,0.293,3.749c0,0.045,0.007,0.102,0.022,0.169C31.437,162.642,31.445,162.684,31.445,162.699z"/>
	<path d="M47.208,174.149c0,0.136-0.142,0.203-0.426,0.203H43.69c-0.209,0-0.515,0-0.918,0s-0.703,0-0.896,0
		c-0.299,0-0.448-0.06-0.448-0.181c0-0.119,0.35-0.202,1.048-0.247c0.371-0.03,0.587-0.094,0.646-0.191s0.089-0.447,0.089-1.048
		v-6.576h-6.798v6.392c0,0.677,0.053,1.076,0.158,1.196c0.105,0.121,0.459,0.203,1.062,0.249c0.391,0.03,0.587,0.098,0.587,0.203
		c0,0.136-0.151,0.203-0.452,0.203h-0.204c-0.361,0-0.742,0-1.14,0c-0.399,0-0.636,0-0.711,0c-0.211,0-0.527,0-0.949,0
		s-1.054,0-1.897,0c-0.301,0-0.452-0.06-0.452-0.181c0-0.119,0.15-0.194,0.452-0.226c0.195-0.015,0.399-0.029,0.61-0.045
		c0.331-0.03,0.542-0.104,0.632-0.226c0.045-0.075,0.068-0.496,0.068-1.263v-11.906c0-0.677-0.034-1.075-0.102-1.195
		c-0.067-0.12-0.305-0.188-0.711-0.203c-0.467-0.031-0.742-0.055-0.825-0.071c-0.083-0.016-0.124-0.079-0.124-0.189
		c0-0.127,0.098-0.19,0.293-0.19c0.06,0,0.188,0.008,0.384,0.022c0.376,0.03,1.265,0.045,2.665,0.045
		c0.768,0,1.302-0.011,1.604-0.034c0.105-0.022,0.241-0.033,0.407-0.033c0.271,0,0.406,0.075,0.406,0.227
		c0,0.136-0.245,0.204-0.734,0.204s-0.783,0.057-0.881,0.17c-0.098,0.113-0.147,0.472-0.147,1.076v5.211h6.798v-4.871
		c0-0.801-0.061-1.272-0.181-1.416c-0.121-0.144-0.542-0.208-1.265-0.193c-0.226,0-0.339-0.067-0.339-0.203s0.128-0.204,0.384-0.204
		h0.113c0.21,0,0.579,0,1.106,0c0.542,0,0.949,0,1.22,0c0.918,0,1.539,0,1.863,0s0.531,0,0.621,0c0.316,0,0.474,0.067,0.474,0.203
		s-0.331,0.211-0.994,0.226c-0.196,0-0.338,0.016-0.429,0.045c-0.151,0.046-0.245,0.129-0.283,0.249s-0.056,0.474-0.056,1.062
		v12.014c0,0.723,0.037,1.145,0.111,1.265c0.148,0.166,0.58,0.249,1.293,0.249C47.089,173.938,47.208,173.999,47.208,174.149z"/>
	<path d="M62.474,174.205c0,0.128-0.113,0.192-0.338,0.192c-0.151,0-0.286-0.008-0.407-0.022l-2.868-0.09l-2.868,0.09
		c-0.105,0.015-0.218,0.022-0.338,0.022c-0.302,0-0.452-0.078-0.452-0.236c0-0.174,0.203-0.261,0.609-0.261
		c1.325-0.015,1.987-0.147,1.987-0.397c0-0.015-0.015-0.074-0.046-0.177l-0.185-0.598l-0.116-0.315
		c-0.136-0.467-0.466-1.499-0.993-3.097h-4.828c-0.903,2.409-1.354,3.794-1.354,4.155c0,0.211,0.09,0.339,0.271,0.384
		c0.045,0.016,0.421,0.045,1.129,0.091c0.437,0.015,0.655,0.09,0.655,0.226c0,0.15-0.196,0.226-0.587,0.226
		c-0.692,0-1.498-0.03-2.417-0.09c-0.226-0.015-0.459-0.022-0.7-0.022c-0.241,0-0.475,0.024-0.7,0.075
		c-0.121,0.024-0.218,0.037-0.294,0.037c-0.21,0-0.316-0.067-0.316-0.204c0-0.136,0.237-0.211,0.711-0.227
		c0.474-0.015,0.816-0.086,1.027-0.215s0.376-0.374,0.497-0.736c1.937-5.56,3.513-10.023,4.729-13.393
		c0.035-0.177,0.105-0.377,0.21-0.599l0.097-0.412c0.045-0.166,0.105-0.249,0.181-0.249c0.045,0,0.083,0.045,0.113,0.136
		c0.195,0.587,0.64,1.814,1.332,3.681c0.542,1.461,1.889,5.127,4.042,10.998c0.121,0.342,0.274,0.558,0.463,0.65
		c0.188,0.094,0.576,0.147,1.164,0.163C62.278,174.006,62.474,174.077,62.474,174.205z M56.356,168.797
		c-0.246-0.678-0.651-1.8-1.219-3.366l-1.085-3.13c-0.635,1.666-1.398,3.831-2.29,6.496H56.356z"/>
	<path d="M74.353,162.699c0,0.196-0.09,0.294-0.271,0.294s-0.309-0.195-0.384-0.587c-0.03-0.271-0.061-0.542-0.09-0.813
		c-0.105-0.542-0.279-1.001-0.52-1.378c-0.316-0.496-0.835-0.812-1.558-0.948c-0.467-0.09-0.843-0.128-1.129-0.112
		c-0.708,0.02-1.137,0.035-1.287,0.045v13.639c0,0.543,0.143,0.882,0.429,1.018c0.15,0.075,0.572,0.121,1.265,0.136
		c0.181,0.014,0.271,0.078,0.271,0.192c0,0.128-0.121,0.191-0.361,0.191c-0.121,0-0.226-0.008-0.316-0.022
		c-0.903-0.03-1.543-0.045-1.919-0.045c-0.497,0-0.964,0.011-1.4,0.033c-0.437,0.023-0.994,0.034-1.671,0.034
		c-0.347,0-0.52-0.061-0.52-0.181c0-0.136,0.324-0.211,0.971-0.227c0.466,0,0.768-0.098,0.903-0.294
		c0.075-0.12,0.113-0.43,0.113-0.927v-13.548c-1.49,0.015-2.417,0.09-2.778,0.226c-0.948,0.347-1.505,1.272-1.671,2.777
		c-0.045,0.452-0.151,0.678-0.316,0.678c-0.181,0-0.271-0.158-0.271-0.474c0-0.166,0.007-0.331,0.023-0.497l0.045-0.52
		c0.045-0.692,0.113-1.604,0.203-2.732h1.017l4.607,0.067c0.542,0.016,1.385,0.016,2.529,0l3.749-0.067
		c0.03,0.843,0.127,2.093,0.293,3.749c0,0.045,0.007,0.102,0.022,0.169C74.345,162.642,74.353,162.684,74.353,162.699z"/>
	<path d="M89.484,169.949c0,1.295-0.494,2.397-1.479,3.308c-0.986,0.911-2.172,1.367-3.557,1.367c-0.813,0-1.784-0.249-2.914-0.746
		c-0.301-0.135-0.527-0.203-0.677-0.203c-0.181,0-0.293,0.209-0.339,0.626c-0.015,0.215-0.113,0.323-0.293,0.323
		c-0.151,0-0.226-0.091-0.226-0.271c0-0.12,0.007-0.211,0.023-0.271c0.12-0.918,0.181-1.769,0.181-2.552
		c0-0.15-0.016-0.571-0.045-1.265c-0.015-0.09-0.022-0.21-0.022-0.361c0-0.226,0.09-0.339,0.271-0.339
		c0.15,0,0.256,0.183,0.316,0.548c0.392,2.706,1.664,4.06,3.817,4.06c0.918,0,1.629-0.26,2.134-0.779s0.757-1.253,0.757-2.202
		c0-0.843-0.245-1.562-0.734-2.156c-0.49-0.595-1.329-1.186-2.518-1.772c-1.431-0.708-2.424-1.393-2.981-2.056
		c-0.557-0.662-0.836-1.482-0.836-2.462c0-1.249,0.403-2.28,1.208-3.094c0.805-0.812,1.825-1.219,3.06-1.219
		c0.512,0,1.219,0.173,2.123,0.519c0.316,0.121,0.55,0.181,0.7,0.181c0.166,0,0.274-0.029,0.328-0.09
		c0.052-0.061,0.102-0.218,0.146-0.475c0.03-0.15,0.113-0.226,0.249-0.226c0.15,0,0.226,0.091,0.226,0.271
		c0,0.12-0.008,0.211-0.023,0.271c-0.045,0.361-0.067,0.798-0.067,1.31c0,0.723,0.037,1.295,0.113,1.717l0.022,0.361
		c0.015,0.166-0.053,0.248-0.203,0.248c-0.166,0-0.279-0.173-0.339-0.52c-0.166-0.888-0.557-1.629-1.174-2.225
		c-0.618-0.594-1.31-0.892-2.078-0.892c-0.753,0-1.352,0.241-1.795,0.723c-0.444,0.482-0.666,1.137-0.666,1.965
		c0,0.964,0.323,1.739,0.971,2.326c0.361,0.331,1.144,0.798,2.349,1.4c1.415,0.708,2.431,1.427,3.048,2.156
		C89.175,168.183,89.484,169.015,89.484,169.949z"/>
	<path d="M104.75,174.205c0,0.128-0.113,0.192-0.338,0.192c-0.151,0-0.286-0.008-0.407-0.022l-2.868-0.09l-2.868,0.09
		c-0.105,0.015-0.218,0.022-0.338,0.022c-0.302,0-0.452-0.078-0.452-0.236c0-0.174,0.203-0.261,0.609-0.261
		c1.325-0.015,1.987-0.147,1.987-0.397c0-0.015-0.015-0.074-0.046-0.177l-0.185-0.598l-0.116-0.315
		c-0.136-0.467-0.466-1.499-0.993-3.097h-4.828c-0.903,2.409-1.354,3.794-1.354,4.155c0,0.211,0.09,0.339,0.271,0.384
		c0.045,0.016,0.421,0.045,1.129,0.091c0.437,0.015,0.655,0.09,0.655,0.226c0,0.15-0.196,0.226-0.587,0.226
		c-0.692,0-1.498-0.03-2.417-0.09c-0.226-0.015-0.459-0.022-0.7-0.022c-0.241,0-0.475,0.024-0.7,0.075
		c-0.121,0.024-0.218,0.037-0.294,0.037c-0.21,0-0.316-0.067-0.316-0.204c0-0.136,0.237-0.211,0.711-0.227
		c0.474-0.015,0.816-0.086,1.027-0.215s0.376-0.374,0.497-0.736c1.937-5.56,3.513-10.023,4.729-13.393
		c0.035-0.177,0.105-0.377,0.21-0.599l0.097-0.412c0.045-0.166,0.105-0.249,0.181-0.249c0.045,0,0.083,0.045,0.113,0.136
		c0.195,0.587,0.64,1.814,1.332,3.681c0.542,1.461,1.889,5.127,4.042,10.998c0.121,0.342,0.274,0.558,0.463,0.65
		c0.188,0.094,0.576,0.147,1.164,0.163C104.554,174.006,104.75,174.077,104.75,174.205z M98.632,168.797
		c-0.246-0.678-0.651-1.8-1.219-3.366l-1.085-3.13c-0.635,1.666-1.398,3.831-2.29,6.496H98.632z"/>
	<path d="M117.712,158.825c0,0.113-0.128,0.171-0.384,0.171c-0.828,0.016-1.34,0.159-1.536,0.434
		c-0.181,0.167-0.828,1.46-1.942,3.88c-0.497,1.068-0.963,2.01-1.4,2.822c-0.301,0.56-0.474,0.94-0.52,1.145
		c-0.045,0.204-0.068,0.646-0.068,1.324v4.281c0,0.498,0.064,0.793,0.192,0.883c0.128,0.091,0.576,0.159,1.344,0.204
		c0.407,0.028,0.61,0.1,0.61,0.213c0,0.114-0.105,0.171-0.316,0.171h-0.271l-3.162-0.067c-0.889,0-1.619,0.015-2.191,0.045
		c-0.09,0.015-0.196,0.022-0.316,0.022c-0.211,0-0.316-0.071-0.316-0.214s0.173-0.222,0.52-0.238
		c0.828-0.029,1.317-0.104,1.468-0.225s0.226-0.479,0.226-1.08v-4.747c-0.151-0.331-0.587-1.212-1.31-2.643l-2.258-4.472
		c-0.226-0.437-0.497-0.926-0.813-1.468c-0.166-0.15-0.523-0.226-1.073-0.226s-0.824-0.083-0.824-0.248
		c0-0.121,0.121-0.181,0.361-0.181c0.316,0,0.949,0.015,1.897,0.045c0.542,0.015,0.934,0.022,1.174,0.022l2.62-0.034
		c0.105-0.022,0.226-0.033,0.361-0.033c0.271,0,0.407,0.075,0.407,0.227c0,0.137-0.256,0.204-0.768,0.204
		c-0.934,0-1.4,0.167-1.4,0.5c0,0.258,0.474,1.295,1.421,3.112l2.051,3.884c0.375-0.673,0.802-1.503,1.282-2.49l1.333-2.688
		c0.504-0.97,0.756-1.605,0.756-1.908c0-0.197-0.128-0.311-0.384-0.341c-0.527-0.076-0.88-0.106-1.061-0.092
		c-0.332,0.016-0.497-0.06-0.497-0.227c0-0.121,0.143-0.182,0.429-0.182h1.31h0.746
		C116.945,158.566,117.712,158.637,117.712,158.825z"/>
	<path d="M136.163,158.883c0,0.15-0.188,0.219-0.564,0.203h-0.497h-0.407c-0.241,0-0.384,0.042-0.429,0.124
		c-0.045,0.083-0.067,0.335-0.067,0.756v12.989c0,0.797-0.008,1.263-0.023,1.397c-0.015,0.136-0.06,0.203-0.135,0.203
		c-0.09,0-0.195-0.083-0.315-0.249l-2.886-4.227c-1.673-2.466-3.708-5.543-6.104-9.233v12.646c0.015,0.197,0.129,0.321,0.342,0.374
		c0.213,0.054,0.723,0.088,1.529,0.103c0.197,0,0.296,0.061,0.296,0.181c0,0.15-0.196,0.226-0.587,0.226
		c-0.136,0-0.564-0.022-1.287-0.067c-0.241-0.015-0.475-0.022-0.7-0.022c0.015,0-0.117,0.015-0.396,0.045
		c-0.278,0.03-0.704,0.045-1.276,0.045h-0.226c-0.347,0-0.52-0.067-0.52-0.203s0.15-0.204,0.452-0.204
		c0.888-0.015,1.404-0.071,1.547-0.169c0.143-0.099,0.215-0.419,0.215-0.962v-11.149c0-1.252-0.256-2.036-0.768-2.353
		c-0.241-0.15-0.67-0.227-1.287-0.227c-0.392,0-0.587-0.079-0.587-0.237c0-0.143,0.113-0.214,0.339-0.214
		c0.301,0,0.685,0.015,1.152,0.045c0.466,0.03,0.715,0.045,0.745,0.045c0.045,0,0.256-0.007,0.632-0.022
		c0.497,0,0.979-0.022,1.445-0.067l7.792,11.63v-10.049c0-0.467-0.008-0.749-0.022-0.848c-0.016-0.098-0.076-0.173-0.181-0.226
		c-0.106-0.053-0.467-0.079-1.084-0.079c-0.542,0-0.813-0.067-0.813-0.203c0-0.15,0.181-0.226,0.542-0.226h0.791
		c0.196,0,0.407,0,0.632,0c0.241,0,0.384,0,0.429,0c0.015,0,0.15,0,0.407,0c0.24,0,0.466,0,0.677,0h0.7
		C135.997,158.657,136.163,158.732,136.163,158.883z"/>
	<path d="M151.768,166.606c0,2.243-0.674,4.141-2.021,5.691c-1.348,1.551-3,2.326-4.957,2.326c-2.078,0-3.825-0.787-5.24-2.36
		s-2.123-3.512-2.123-5.815c0-2.349,0.681-4.271,2.044-5.77c1.362-1.498,3.105-2.247,5.228-2.247c2.002,0,3.681,0.782,5.036,2.349
		C151.091,162.345,151.768,164.288,151.768,166.606z M149.239,166.719c0-2.763-0.564-4.915-1.694-6.455
		c-0.708-0.966-1.694-1.449-2.958-1.449c-1.205,0-2.138,0.37-2.8,1.109c-1.219,1.359-1.829,3.571-1.829,6.637
		c0,2.431,0.425,4.318,1.276,5.662s2.044,2.016,3.58,2.016c1.43,0,2.507-0.634,3.229-1.902
		C148.84,170.932,149.239,169.06,149.239,166.719z"/>
	<path d="M173.967,158.85c0,0.128-0.256,0.199-0.768,0.213c-0.572,0.016-0.952,0.203-1.141,0.564
		c-0.188,0.361-0.478,1.129-0.869,2.304c-0.678,2.062-1.281,3.816-1.809,5.261c-0.902,2.47-1.723,4.856-2.459,7.16
		c-0.062,0.195-0.14,0.294-0.232,0.294c-0.076,0-0.15-0.075-0.22-0.225s-0.274-0.674-0.613-1.572
		c-0.419-1.176-0.876-2.359-1.37-3.551c-0.39-0.936-0.771-1.9-1.146-2.896c-1.049,2.545-2.09,5.202-3.123,7.974
		c-0.061,0.179-0.137,0.27-0.228,0.27c-0.076,0-0.167-0.129-0.272-0.385c-0.467-1.113-2.198-5.728-5.195-13.843
		c-0.211-0.572-0.369-0.93-0.474-1.073c-0.105-0.143-0.369-0.222-0.79-0.237c-0.723-0.029-1.084-0.135-1.084-0.315
		c0-0.136,0.121-0.204,0.361-0.204c0.105,0,0.195,0.008,0.271,0.023c0.798,0.045,1.656,0.067,2.575,0.067
		c0.181,0,0.493-0.015,0.937-0.045c0.444-0.03,1.02-0.046,1.728-0.046h0.249c0.256,0,0.384,0.069,0.384,0.208
		c0,0.169-0.232,0.261-0.695,0.276c-0.928,0.031-1.391,0.153-1.391,0.369c0,0.422,1.383,4.344,4.15,11.768
		c1.006-2.544,1.757-4.417,2.252-5.621l-2.229-5.784c-0.122-0.314-0.262-0.518-0.42-0.607s-0.45-0.143-0.874-0.158
		c-0.424-0.015-0.636-0.082-0.636-0.202c0-0.165,0.158-0.248,0.474-0.248c0.241,0,0.534,0.016,0.881,0.046
		c0.346,0.03,0.949,0.045,1.807,0.045h1.716h2.485c0.557,0,1.227-0.024,2.01-0.072c0.09-0.012,0.195-0.019,0.316-0.019
		c0.361,0,0.541,0.08,0.541,0.238c0,0.143-0.128,0.214-0.384,0.214h-0.384c-0.678,0-1.189,0.09-1.535,0.271
		c-0.15,0.075-0.43,0.617-0.836,1.625c-0.183,0.421-0.486,1.136-0.912,2.144c-0.088,0.227-0.221,0.566-0.398,1.02
		c0.105,0.302,0.436,1.138,0.988,2.509c0.717,1.743,1.305,3.237,1.768,4.484c0.847-2.438,1.845-5.319,2.994-8.645
		c0.608-1.771,0.912-2.754,0.912-2.951c0-0.287-0.264-0.431-0.789-0.431c-0.738,0-1.107-0.084-1.107-0.25
		c0-0.151,0.15-0.228,0.451-0.228c0.256,0,0.459,0.011,0.61,0.03c0.331,0.04,0.632,0.061,0.903,0.061h1.807
		c0.451,0,0.7,0.018,0.745,0.053C173.945,158.768,173.967,158.807,173.967,158.85z M164.414,159.108h-0.271h-0.384
		c-0.542,0.03-0.813,0.129-0.813,0.295c0,0.03,0.443,1.34,1.33,3.928c0.344-0.754,0.748-1.748,1.212-2.984
		c0.062-0.165,0.155-0.383,0.279-0.653l0.047-0.18C165.814,159.244,165.348,159.108,164.414,159.108z"/>
</g>
</svg>
