<?xml version="1.0" encoding="utf-8"?>
<!-- Generator: Adobe Illustrator 16.0.0, SVG Export Plug-In . SVG Version: 6.00 Build 0)  -->
<!DOCTYPE svg PUBLIC "-//W3C//DTD SVG 1.1 Tiny//EN" "http://www.w3.org/Graphics/SVG/1.1/DTD/svg11-tiny.dtd">
<svg version="1.1" baseProfile="tiny" id="Layer_1" xmlns="http://www.w3.org/2000/svg" xmlns:xlink="http://www.w3.org/1999/xlink"
	 x="0px" y="0px" width="326.797px" height="195.27px" viewBox="0 0 326.797 195.27" xml:space="preserve">
<g>
	<path d="M187.116,19.115c0,0.35-0.381,0.524-1.142,0.524h-0.807c-0.269,0-0.671,0-1.209,0c-1.254,0-2.082,0.169-2.484,0.505
		c-0.403,0.336-0.852,1.222-1.344,2.656c-0.18,0.493-0.717,1.884-1.612,4.171l-6.112,15.403c-3.807,9.642-7.098,15.831-9.874,18.566
		c-3.449,3.409-7.926,5.112-13.434,5.112c-3.583,0-6.438-0.741-8.564-2.223c-2.127-1.482-3.19-3.457-3.19-5.927
		c0-2.605,1.097-6.625,3.291-12.059l8.463-20.882c0.312-0.808,0.761-1.864,1.343-3.167c0.179-0.314,0.269-0.583,0.269-0.808
		c0-0.763-0.56-1.212-1.679-1.348h-2.015c-0.448,0-0.672-0.117-0.672-0.35c0-0.348,0.358-0.523,1.075-0.523h0.604h6.448h7.724
		c0.492,0,0.739,0.134,0.739,0.403c0,0.314-0.112,0.493-0.335,0.538c-0.224,0.045-1.049,0.09-2.477,0.134
		c-1.249,0.045-1.962,0.157-2.141,0.335c-0.313,0.18-0.648,0.605-1.004,1.276c-0.402,1.12-0.96,2.552-1.674,4.299l-8.232,20.822
		c-2.231,5.642-3.347,9.739-3.347,12.292c0,1.702,0.603,3.09,1.81,4.165c1.207,1.075,2.749,1.612,4.626,1.612
		c5.407,0,9.698-2.242,12.871-6.728c2.146-3.049,4.693-8.362,7.643-15.942l5.9-15.203c1.295-3.318,1.943-5.225,1.943-5.718
		c0-0.941-0.829-1.413-2.485-1.413h-0.604c-0.358,0-0.694,0-1.007,0c-0.403,0-0.604-0.135-0.604-0.407
		c0-0.311,0.357-0.466,1.074-0.466h1.008h9.202c0.402,0,0.85,0,1.343,0C186.892,18.766,187.116,18.883,187.116,19.115z"/>
	<path d="M202.296,39.32c0,0.896-0.292,1.669-0.873,2.317c-0.583,0.65-1.254,0.974-2.016,0.974c-0.717,0-1.074-0.246-1.074-0.739
		l0.134-0.672c0.09-0.269,0.135-0.514,0.135-0.739c0-1.075-0.537-1.612-1.612-1.612c-1.299,0-3.112,1.254-5.44,3.761
		c-2.329,2.508-4.523,6.023-6.582,10.545l-4.837,10.613c-0.448,1.03-0.829,1.545-1.142,1.545c-0.896-0.134-1.59-0.202-2.082-0.202
		c-0.762,0-1.366,0.067-1.813,0.202h-0.403c-0.403,0-0.604-0.09-0.604-0.27c0-0.044,0.067-0.134,0.201-0.269l0.336-0.674
		l11.352-25.855c0-0.359-0.292-0.539-0.873-0.539c0.044,0-0.045,0-0.269,0c-0.18,0.045-0.471,0.067-0.873,0.067h-0.672
		c-0.672,0-1.008-0.157-1.008-0.47c0-0.269,1.164-0.447,3.493-0.538c2.328-0.089,3.896-0.291,4.702-0.604
		c0.357-0.089,0.559-0.134,0.604-0.134c0.269,0,0.402,0.134,0.402,0.403c0,0.225-0.292,1.053-0.873,2.485l-2.485,6.045
		c4.119-5.731,7.747-8.598,10.882-8.598C201.198,36.365,202.296,37.35,202.296,39.32z"/>
	<path d="M228.76,44.675c0,5.004-2.341,9.796-7.02,14.375c-4.68,4.58-9.571,6.869-14.676,6.869c-2.375,0-4.378-0.638-6.013-1.911
		c-1.635-1.274-2.451-2.807-2.451-4.595c0-1.029,0.672-3.086,2.015-6.171l14.173-32.329c0.135-0.491,0.313-0.905,0.538-1.24
		c0.223-0.336,0.335-0.526,0.335-0.571c0-0.491-1.231-0.692-3.693-0.604c-0.359,0-0.538-0.134-0.538-0.403
		c0-0.312,0.56-0.47,1.68-0.47c3.716,0,5.798-0.022,6.246-0.067l1.411-0.135h0.47c0.358,0,0.537,0.135,0.537,0.403
		c0,0.134-0.066,0.313-0.201,0.537c-0.448,0.672-0.918,1.612-1.41,2.821l-6.381,15.65c-0.448,1.075-1.053,2.329-1.813,3.761
		c0.269-0.269,0.492-0.47,0.671-0.604l1.747-1.612c1.611-1.478,3.671-2.217,6.179-2.217c2.373,0,4.333,0.805,5.878,2.413
		C227.987,40.185,228.76,42.218,228.76,44.675z M223.318,41.985c0-3.075-1.164-4.613-3.492-4.613
		c-4.479,0-8.554,4.434-12.225,13.302l-1.612,3.876c-1.568,3.788-2.352,6.328-2.352,7.62c0,1.783,1.187,2.674,3.561,2.674
		c4.388,0,8.351-3.364,11.889-10.093C221.908,49.404,223.318,45.148,223.318,41.985z"/>
	<path d="M262.746,36.631c0,0.134-0.18,0.601-0.537,1.403l-8.866,20.055c-0.852,1.917-1.276,3.388-1.276,4.412
		c0,1.159,0.581,1.738,1.746,1.738c1.747,0,3.493-1.186,5.239-3.56c0.358-0.492,0.627-0.739,0.807-0.739
		c0.178,0,0.269,0.09,0.269,0.269c0,0.493-0.493,1.276-1.479,2.351c-1.971,2.105-4.321,3.157-7.052,3.157
		c-1.389,0-2.52-0.336-3.393-1.007c-0.873-0.672-1.31-1.545-1.31-2.62c0-0.672,0.156-1.455,0.47-2.351
		c-2.82,4.121-6.09,6.18-9.807,6.18c-2.328,0-4.231-0.749-5.709-2.245s-2.217-3.407-2.217-5.73c0-2.546,0.851-5.339,2.553-8.377
		c1.701-3.037,3.963-5.808,6.784-8.31c3.851-3.395,7.389-5.093,10.612-5.093c3.358,0,5.239,1.612,5.643,4.836l1.679-3.56
		c0.358-0.716,0.672-1.075,0.94-1.075c0.089,0,0.358,0.045,0.806,0.134c0.447,0.09,0.762,0.134,0.94,0.134
		c0.984,0,1.747-0.104,2.284-0.314c0.179-0.104,0.336-0.156,0.47-0.156C262.612,36.163,262.746,36.319,262.746,36.631z
		 M254.283,42.185c0-1.381-0.415-2.495-1.243-3.341c-0.829-0.846-1.892-1.27-3.19-1.27c-2.239,0-4.389,1.315-6.448,3.943
		c-2.374,2.986-4.276,6.139-5.709,9.457c-1.434,3.32-2.149,6.227-2.149,8.722c0,3.03,1.253,4.544,3.762,4.544
		c1.433,0,2.988-0.78,4.668-2.339c1.679-1.56,3.078-3.52,4.198-5.882l5.239-11.228C253.991,43.544,254.283,42.675,254.283,42.185z"
		/>
	<path d="M293.04,41.428c0,1.08-0.582,2.947-1.746,5.602l-5.441,12.352c-0.627,1.44-0.939,2.408-0.939,2.902
		c0,0.946,0.523,1.418,1.57,1.418c1.274,0,3.142-1.029,5.601-3.09c0.227-0.134,0.409-0.201,0.547-0.201
		c0.272,0,0.409,0.112,0.409,0.336c0,0.537-0.746,1.321-2.238,2.351c-2.036,1.389-4.207,2.083-6.514,2.083
		c-1.402,0-2.555-0.304-3.459-0.911c-0.904-0.606-1.357-1.383-1.357-2.329c0-0.764,0.426-2.115,1.276-4.05l5.374-12.082
		c1.298-2.924,1.947-4.904,1.947-5.939c0-1.53-0.784-2.295-2.351-2.295c-2.061,0-4.479,1.478-7.254,4.433
		c-2.105,2.24-4.03,5.374-5.777,9.403l-5.508,12.762c-0.225,0.672-0.515,1.008-0.873,1.008c-0.09,0-0.582,0-1.478,0
		c-0.134,0-0.403,0-0.806,0c-0.359,0-0.964,0-1.813,0c-0.135,0-0.292,0-0.471,0c-0.312,0-0.47-0.111-0.47-0.335
		c0-0.088,0.067-0.223,0.201-0.401l0.471-1.002l10.276-24.603c0.135-0.223,0.245-0.424,0.336-0.603
		c-0.045-0.312-0.604-0.49-1.68-0.534c-1.343-0.044-2.015-0.29-2.015-0.736c0-0.312,0.245-0.468,0.739-0.468
		c0.312,0,0.806,0.045,1.478,0.134c0.672,0.09,1.186,0.134,1.545,0.134c2.418,0,4.007-0.178,4.769-0.537
		c0.312-0.135,0.515-0.202,0.604-0.202c0.269,0,0.403,0.134,0.403,0.403c0,0.134-0.023,0.247-0.067,0.336l-2.485,6.314
		c0.358-0.411,0.873-0.981,1.545-1.712c3.313-3.56,6.516-5.341,9.605-5.341c1.79,0,3.246,0.507,4.365,1.519
		C292.479,38.56,293.04,39.854,293.04,41.428z"/>
	<path d="M195.443,75.188c0,0.583-0.336,1.523-1.007,2.821c-2.061,3.986-3.292,6.784-3.694,8.396
		c-0.18,0.717-0.448,1.074-0.807,1.074s-0.537-0.223-0.537-0.671c0-0.135,0.156-0.694,0.471-1.68
		c0.269-0.85,0.402-1.948,0.402-3.291c0-2.776-0.717-4.971-2.149-6.583c-1.434-1.612-3.381-2.418-5.844-2.418
		c-5.821,0-10.725,3.153-14.71,9.456c-4.389,6.932-6.582,14.286-6.582,22.065c0,8.227,2.999,12.34,9,12.34
		c2.149,0,4.165-0.533,6.046-1.602c3.402-1.956,5.865-4.27,7.389-6.939c0.581-1.022,1.074-1.534,1.478-1.534
		c0.269,0,0.402,0.179,0.402,0.534c0,1.025-1.254,2.875-3.761,5.547c-4.39,4.634-9.427,6.949-15.113,6.949
		c-3.986,0-7.109-1.262-9.37-3.789c-2.262-2.526-3.392-6.025-3.392-10.497c0-8.407,3.011-16.143,9.034-23.208
		c6.021-7.065,12.616-10.598,19.781-10.598c1.97,0,3.627,0.336,4.97,1.007c0.94,0.493,2.328,1.523,4.165,3.09
		c0.447,0.403,0.896,0.604,1.343,0.604c0.538,0,1.052-0.425,1.545-1.276c0.179-0.178,0.358-0.269,0.538-0.269
		C195.31,74.718,195.443,74.875,195.443,75.188z"/>
	<path d="M245.686,72.671c0,0.38-0.291,0.569-0.873,0.569c-0.447,0-0.828,0-1.143,0h-0.873c-1.926,0-3.168,0.27-3.727,0.809
		c-0.561,0.54-1.4,2.29-2.52,5.254l-12.83,33.414c-0.582,1.527-1.029,2.785-1.342,3.772c0,0.584,0.369,0.954,1.107,1.111
		s2.385,0.26,4.938,0.304c0.492,0.09,0.738,0.246,0.738,0.471c0,0.405-0.402,0.607-1.209,0.607h-1.074h-9.74h-6.447
		c-0.27,0-0.561,0-0.873,0c-0.584,0-0.873-0.191-0.873-0.573c0-0.469,0.312-0.681,0.939-0.636h1.611h0.672h1.814
		c0.627-0.045,1.051-0.146,1.275-0.304s0.471-0.55,0.74-1.179c0.088-0.27,0.336-0.943,0.738-2.021l6.045-15.766
		c0.178-0.449,0.426-1.1,0.738-1.954c-0.09-0.449-0.762-0.674-2.014-0.674H210.49c-0.539,0-1.143,0-1.814,0s-1.232,0-1.68,0h-0.402
		c-0.627,0-1.053,0.424-1.276,1.272c-0.045,0.134-0.292,0.781-0.739,1.942l-5.642,14.33c-0.717,1.83-1.075,2.901-1.075,3.215
		c0,0.535,0.851,0.959,2.553,1.271l3.762-0.134c0.223,0,0.335,0.201,0.335,0.604c0,0.402-0.291,0.604-0.873,0.604
		c-0.269,0-0.717,0-1.343,0c-0.763-0.061-1.344-0.09-1.747-0.09l-8.866-0.18c-0.762,0-1.847,0.046-3.258,0.135
		c-1.41,0.089-2.451,0.135-3.123,0.135c-0.94,0-1.41-0.192-1.41-0.576c0-0.422,0.246-0.633,0.738-0.633c0.314,0,0.628,0,0.94,0
		h0.471c1.881,0,3.111-0.112,3.694-0.337c0.446-0.135,0.806-0.405,1.074-0.811c0.403-0.674,1.119-2.271,2.149-4.791l13.569-34.006
		c0.76-1.889,1.141-2.991,1.141-3.306c0-0.675-0.672-1.08-2.015-1.215c-0.225-0.044-1.165-0.067-2.821-0.067
		c-0.985,0-1.478-0.189-1.478-0.569c0-0.337,0.245-0.506,0.738-0.506h4.702c3.135,0,5.709,0,7.725,0h3.156c0.447,0,0.896,0,1.344,0
		c0.492,0,0.717,0,0.672,0c0.807,0,1.209,0.192,1.209,0.576c0,0.512-0.359,0.767-1.074,0.767c-0.135,0-0.785,0-1.947,0
		c-0.27,0-0.807,0-1.613,0c-0.896,0-1.488,0.204-1.779,0.609c-0.293,0.405-0.906,1.802-1.848,4.19l-5.844,15.076
		c-0.09,0.136-0.156,0.271-0.201,0.406c0,0.405,0.918,0.631,2.754,0.676h9c0.357,0,0.693,0,1.008,0h4.164
		c0.312,0,0.572-0.157,0.773-0.471c0.201-0.312,0.615-1.209,1.242-2.687l5.307-12.964c0.807-1.97,1.209-3.246,1.209-3.828
		c0-0.582-0.672-0.917-2.016-1.008c-0.896,0-1.791,0-2.686,0c-1.031,0-1.545-0.273-1.545-0.821c0-0.348,0.514-0.522,1.545-0.522
		l12.762,0.202c0.268,0,0.783,0,1.545,0c0.76-0.135,1.453-0.202,2.082-0.202h0.805C245.305,72.165,245.686,72.334,245.686,72.671z"
		/>
	<path d="M267.18,72.738c0,0.38-0.269,0.569-0.806,0.569c-0.27,0-0.494,0-0.672,0h-1.075c-1.926,0-3.112,0.359-3.56,1.075
		c-0.672,1.031-1.657,3.202-2.955,6.516l-13.501,34.592c-0.091,0.269-0.202,0.582-0.336,0.94c0,0.806,0.895,1.321,2.687,1.545
		c0.581,0,1.276,0.022,2.082,0.067c0.582,0.045,0.873,0.201,0.873,0.47c0,0.313-0.313,0.471-0.94,0.471
		c-3.224-0.046-7.858-0.067-13.903-0.067c-2.104,0-3.325-0.023-3.661-0.067s-0.504-0.179-0.504-0.402c0-0.312,0.604-0.47,1.813-0.47
		c1.657-0.044,2.754-0.155,3.292-0.335c0.85-0.312,1.478-0.804,1.881-1.476c0.402-0.983,0.873-2.146,1.41-3.487l13.098-32.864
		c1.299-3.264,1.948-5.053,1.948-5.366c0-0.76-0.695-1.14-2.082-1.14h-2.688c-0.493,0-0.738-0.191-0.738-0.573
		c0-0.334,0.245-0.502,0.738-0.502h0.604c0.27,0,1.344,0,3.225,0h10.008c0.269,0,0.492,0,0.672,0h2.485
		C266.979,72.232,267.18,72.401,267.18,72.738z"/>
	<path d="M302.577,75.188c0,0.583-0.336,1.523-1.008,2.821c-2.06,3.986-3.291,6.784-3.694,8.396
		c-0.179,0.717-0.447,1.074-0.806,1.074s-0.537-0.223-0.537-0.671c0-0.135,0.156-0.694,0.47-1.68
		c0.269-0.85,0.403-1.948,0.403-3.291c0-2.776-0.717-4.971-2.149-6.583c-1.434-1.612-3.382-2.418-5.844-2.418
		c-5.821,0-10.725,3.153-14.71,9.456c-4.389,6.932-6.582,14.286-6.582,22.065c0,8.227,2.999,12.34,9,12.34
		c2.149,0,4.165-0.533,6.045-1.602c3.403-1.956,5.866-4.27,7.389-6.939c0.582-1.022,1.075-1.534,1.479-1.534
		c0.269,0,0.402,0.179,0.402,0.534c0,1.025-1.254,2.875-3.761,5.547c-4.39,4.634-9.427,6.949-15.113,6.949
		c-3.986,0-7.109-1.262-9.37-3.789c-2.262-2.526-3.392-6.025-3.392-10.497c0-8.407,3.011-16.143,9.034-23.208
		c6.021-7.065,12.615-10.598,19.78-10.598c1.971,0,3.628,0.336,4.971,1.007c0.94,0.493,2.328,1.523,4.165,3.09
		c0.446,0.403,0.895,0.604,1.343,0.604c0.537,0,1.052-0.425,1.545-1.276c0.179-0.178,0.358-0.269,0.537-0.269
		C302.443,74.718,302.577,74.875,302.577,75.188z"/>
	<path d="M81.991,148.909c0,0.144-0.176,0.215-0.527,0.215h-0.276c-0.234,0-0.661,0-1.28,0s-1.096,0-1.431,0
		c-0.502,0-1.088,0-1.757,0c-0.686,0-1.138,0-1.355,0h-0.176c-0.352,0-0.527-0.076-0.527-0.228c0-0.168,0.243-0.252,0.73-0.252
		c0.856,0,1.376-0.093,1.562-0.277c0.084-0.085,0.126-0.647,0.126-1.69v-13.069c0,0.018-0.101,0.312-0.303,0.882
		c-0.674,2.031-1.653,5.086-2.935,9.164l-1.17,4.01c-0.235,0.789-0.403,1.184-0.504,1.184c-0.118,0-0.244-0.201-0.378-0.604
		c-0.485-1.528-1.856-5.343-4.113-11.442l-1-2.688c0,0.319,0,0.756,0,1.31v8.187c0,3.073,0.025,4.626,0.076,4.66
		c0.117,0.218,0.521,0.327,1.209,0.327c0.554,0,0.832,0.084,0.832,0.251c0,0.186-0.177,0.278-0.529,0.278
		c-0.218,0-0.42-0.018-0.604-0.051c-0.235-0.033-0.445-0.051-0.629-0.051l-2.897,0.102c-0.302,0-0.453-0.076-0.453-0.228
		c0-0.168,0.479-0.261,1.436-0.277c0.403,0,0.638-0.067,0.705-0.201c0.067-0.135,0.101-0.572,0.101-1.312v-12.083
		c0-1.396-0.017-2.152-0.05-2.27c-0.067-0.235-0.21-0.396-0.428-0.479c-0.219-0.085-0.689-0.152-1.411-0.202
		c-0.269-0.017-0.403-0.092-0.403-0.227c0-0.185,0.246-0.277,0.738-0.277c0.068,0,0.212,0,0.434,0h1.324
		c1.002,0,1.707-0.006,2.115-0.019c0.083,0.219,0.569,1.54,1.461,3.963c0.382,1.009,1.455,3.95,3.219,8.823
		c0.317-1.094,0.643-2.17,0.977-3.229l2.693-8.323c0.166-0.479,0.314-0.876,0.443-1.19l3.736-0.024c0.548,0,0.863,0.025,0.946,0.076
		c0.083,0.05,0.125,0.126,0.125,0.227c0,0.169-0.143,0.253-0.428,0.253c-0.47,0-0.79,0.017-0.957,0.051
		c-0.403,0.067-0.68,0.202-0.832,0.404c-0.084,0.118-0.126,1.104-0.126,2.956v11.746c0,0.674,0.067,1.07,0.202,1.188
		c0.218,0.152,0.764,0.228,1.637,0.228h0.151C81.823,148.695,81.991,148.766,81.991,148.909z"/>
	<path d="M98.489,148.909c0,0.143-0.126,0.215-0.378,0.215c-0.168,0-0.319-0.009-0.453-0.025l-3.199-0.101l-3.199,0.101
		c-0.118,0.017-0.244,0.025-0.378,0.025c-0.336,0-0.504-0.088-0.504-0.264c0-0.194,0.227-0.291,0.68-0.291
		c1.478-0.017,2.217-0.164,2.217-0.444c0-0.016-0.018-0.082-0.052-0.197l-0.206-0.666l-0.129-0.352
		c-0.151-0.521-0.52-1.672-1.107-3.454h-5.384c-1.007,2.688-1.51,4.231-1.51,4.635c0,0.235,0.101,0.378,0.302,0.429
		c0.05,0.017,0.47,0.05,1.259,0.101c0.487,0.017,0.73,0.101,0.73,0.252c0,0.168-0.218,0.252-0.655,0.252
		c-0.773,0-1.671-0.034-2.695-0.102c-0.252-0.017-0.512-0.024-0.781-0.024c-0.269,0-0.529,0.027-0.781,0.083
		c-0.134,0.028-0.243,0.043-0.328,0.043c-0.235,0-0.353-0.076-0.353-0.228c0-0.152,0.265-0.236,0.793-0.253s0.911-0.097,1.146-0.24
		c0.235-0.144,0.419-0.417,0.554-0.821c2.16-6.2,3.918-11.18,5.274-14.937c0.039-0.198,0.117-0.421,0.235-0.669l0.107-0.46
		c0.051-0.185,0.118-0.276,0.202-0.276c0.05,0,0.092,0.05,0.126,0.15c0.218,0.655,0.713,2.024,1.486,4.106
		c0.604,1.629,2.107,5.718,4.509,12.267c0.134,0.38,0.306,0.622,0.516,0.726s0.643,0.164,1.298,0.181
		C98.271,148.686,98.489,148.765,98.489,148.909z M91.666,142.877c-0.273-0.756-0.727-2.007-1.359-3.754l-1.21-3.491
		c-0.708,1.857-1.559,4.272-2.553,7.245H91.666z"/>
	<path d="M114.836,148.872c0,0.15-0.118,0.227-0.353,0.227h-0.202h-3.022h-2.947c-0.101,0-0.21,0-0.328,0
		c-0.319,0-0.479-0.063-0.479-0.19s0.21-0.206,0.63-0.238c0.873-0.084,1.31-0.227,1.31-0.428c0-0.218-2.292-2.947-6.876-8.187v7.26
		c0,0.586,0.092,0.95,0.277,1.093c0.185,0.142,0.68,0.213,1.486,0.213c0.185,0,0.277,0.084,0.277,0.251
		c0,0.151-0.118,0.227-0.353,0.227c-0.168,0-0.319,0-0.453,0h-3.501c-0.219,0-0.475,0-0.769,0c-0.294,0-0.592,0-0.894,0h-0.227
		c-0.252,0-0.378-0.072-0.378-0.216c0-0.159,0.311-0.247,0.932-0.263c0.571-0.017,0.907-0.143,1.008-0.378
		c0.05-0.084,0.076-0.613,0.076-1.587v-14.03c-0.018-0.353-0.483-0.528-1.396-0.528c-0.413,0-0.62-0.093-0.62-0.277
		c0-0.151,0.144-0.227,0.431-0.227c0.085,0,0.195,0.009,0.33,0.025c0.271,0.033,1.024,0.05,2.259,0.05
		c1.32,0,2.157-0.017,2.513-0.05c0.186-0.017,0.38-0.025,0.583-0.025c0.305,0,0.457,0.093,0.457,0.277
		c0,0.101-0.047,0.163-0.141,0.188s-0.387,0.047-0.88,0.062c-0.493,0.018-0.786,0.085-0.88,0.202s-0.14,0.495-0.14,1.133v6.146
		l2.141-2.141c3.241-3.255,4.861-4.95,4.861-5.085c0-0.219-0.395-0.32-1.184-0.304c-0.503,0.018-0.755-0.067-0.755-0.253
		c0-0.118,0.117-0.186,0.353-0.202c0.235-0.017,1.049-0.025,2.443-0.025h1.385c0.587,0,0.923,0.009,1.008,0.025
		c0.167,0.033,0.251,0.117,0.251,0.252c0,0.185-0.185,0.276-0.555,0.276c-0.774-0.017-1.271,0.001-1.49,0.054
		c-0.219,0.052-0.437,0.191-0.656,0.419c-1.089,1.146-2.747,2.862-4.974,5.152l-0.672,0.637l-0.323,0.358
		c0.101,0.117,0.521,0.571,1.26,1.36c1.411,1.462,3.436,3.806,6.073,7.031c0.554,0.672,0.937,1.075,1.146,1.209
		c0.21,0.135,0.618,0.219,1.223,0.252C114.592,148.653,114.836,148.737,114.836,148.872z"/>
	<path d="M128.287,145.017c0,0.067-0.017,0.479-0.05,1.234c-0.034,0.756-0.05,1.479-0.05,2.166v0.832
		c-1.646-0.102-4.904-0.151-9.773-0.151c-0.588,0-1.167,0-1.738,0s-0.957,0-1.159,0h-0.252c-0.319,0-0.479-0.067-0.479-0.203
		c0-0.09,0.05-0.143,0.151-0.157c0.05,0,0.369-0.022,0.957-0.068c0.437-0.033,0.701-0.126,0.793-0.277s0.139-0.548,0.139-1.188
		v-14.199c0-0.488-0.072-0.778-0.214-0.871s-0.601-0.139-1.373-0.139c-0.269,0-0.403-0.071-0.403-0.215
		c0-0.143,0.185-0.214,0.554-0.214h4.307c0.151,0,1.1,0,2.847,0c1.746,0,2.921,0,3.526,0c0.503,0,0.965-0.033,1.385-0.101
		c0.033,0.722,0.109,1.722,0.227,2.997l0.101,1.083c0.017,0.085,0.025,0.193,0.025,0.328c0,0.168-0.076,0.252-0.227,0.252
		c-0.185,0-0.319-0.211-0.403-0.634c-0.319-1.521-0.84-2.484-1.562-2.891c-0.538-0.304-1.948-0.456-4.231-0.456h-2.065v7.405h0.604
		c1.88,0,3.026-0.143,3.438-0.428c0.411-0.285,0.693-1.116,0.844-2.494c0.034-0.353,0.126-0.528,0.277-0.528
		c0.185,0,0.277,0.15,0.277,0.453s-0.017,0.747-0.05,1.335c-0.034,0.588-0.05,1.033-0.05,1.335c0,1.797,0.027,3.031,0.081,3.703
		c0.013,0.168,0.02,0.311,0.02,0.428c0,0.219-0.092,0.327-0.276,0.327c-0.117,0-0.196-0.071-0.238-0.214
		c-0.042-0.143-0.113-0.608-0.213-1.397c-0.134-0.991-0.543-1.604-1.229-1.839c-0.301-0.101-1.086-0.151-2.357-0.151h-1.128v8.438
		c3.694,0,5.86-0.075,6.499-0.225c1.108-0.248,1.738-1.31,1.889-3.185c0.033-0.414,0.142-0.621,0.327-0.621
		C128.203,144.489,128.287,144.665,128.287,145.017z"/>
	<path d="M149.771,148.909c0,0.143-0.126,0.215-0.378,0.215c-0.168,0-0.319-0.009-0.453-0.025l-3.199-0.101l-3.199,0.101
		c-0.118,0.017-0.244,0.025-0.378,0.025c-0.336,0-0.504-0.088-0.504-0.264c0-0.194,0.227-0.291,0.68-0.291
		c1.478-0.017,2.217-0.164,2.217-0.444c0-0.016-0.018-0.082-0.052-0.197l-0.206-0.666l-0.129-0.352
		c-0.151-0.521-0.52-1.672-1.107-3.454h-5.384c-1.007,2.688-1.51,4.231-1.51,4.635c0,0.235,0.101,0.378,0.302,0.429
		c0.05,0.017,0.47,0.05,1.259,0.101c0.487,0.017,0.73,0.101,0.73,0.252c0,0.168-0.218,0.252-0.655,0.252
		c-0.773,0-1.671-0.034-2.695-0.102c-0.252-0.017-0.512-0.024-0.781-0.024c-0.269,0-0.529,0.027-0.781,0.083
		c-0.134,0.028-0.243,0.043-0.328,0.043c-0.235,0-0.353-0.076-0.353-0.228c0-0.152,0.265-0.236,0.793-0.253s0.911-0.097,1.146-0.24
		c0.235-0.144,0.419-0.417,0.554-0.821c2.16-6.2,3.918-11.18,5.274-14.937c0.039-0.198,0.117-0.421,0.235-0.669l0.107-0.46
		c0.051-0.185,0.118-0.276,0.202-0.276c0.05,0,0.092,0.05,0.126,0.15c0.218,0.655,0.713,2.024,1.486,4.106
		c0.604,1.629,2.107,5.718,4.509,12.267c0.134,0.38,0.306,0.622,0.516,0.726s0.643,0.164,1.298,0.181
		C149.553,148.686,149.771,148.765,149.771,148.909z M142.948,142.877c-0.273-0.756-0.727-2.007-1.359-3.754l-1.21-3.491
		c-0.708,1.857-1.559,4.272-2.553,7.245H142.948z"/>
	<path d="M165.136,144.161c0,1.444-0.551,2.675-1.65,3.69c-1.1,1.017-2.422,1.524-3.967,1.524c-0.907,0-1.99-0.277-3.249-0.832
		c-0.336-0.15-0.588-0.227-0.756-0.227c-0.202,0-0.328,0.232-0.378,0.697c-0.017,0.24-0.126,0.361-0.327,0.361
		c-0.168,0-0.252-0.102-0.252-0.303c0-0.134,0.008-0.235,0.025-0.303c0.134-1.023,0.202-1.973,0.202-2.846
		c0-0.168-0.017-0.638-0.05-1.41c-0.017-0.102-0.025-0.235-0.025-0.403c0-0.252,0.101-0.378,0.302-0.378
		c0.168,0,0.286,0.203,0.353,0.61c0.437,3.019,1.855,4.528,4.257,4.528c1.024,0,1.818-0.29,2.38-0.869s0.844-1.398,0.844-2.456
		c0-0.94-0.273-1.742-0.818-2.405c-0.546-0.663-1.482-1.322-2.809-1.978c-1.596-0.789-2.704-1.553-3.325-2.292
		c-0.622-0.739-0.932-1.654-0.932-2.745c0-1.395,0.449-2.545,1.348-3.451c0.898-0.907,2.036-1.36,3.413-1.36
		c0.57,0,1.36,0.193,2.368,0.579c0.353,0.135,0.613,0.202,0.781,0.202c0.185,0,0.306-0.034,0.365-0.101
		c0.059-0.067,0.113-0.244,0.164-0.529c0.034-0.168,0.126-0.252,0.277-0.252c0.167,0,0.251,0.101,0.251,0.302
		c0,0.135-0.008,0.235-0.024,0.303c-0.05,0.403-0.076,0.891-0.076,1.461c0,0.806,0.042,1.444,0.125,1.914l0.025,0.403
		c0.017,0.185-0.059,0.277-0.227,0.277c-0.185,0-0.311-0.193-0.377-0.58c-0.185-0.99-0.622-1.817-1.31-2.48
		s-1.461-0.995-2.317-0.995c-0.84,0-1.507,0.269-2.002,0.806c-0.496,0.538-0.743,1.269-0.743,2.191c0,1.075,0.361,1.939,1.083,2.595
		c0.403,0.369,1.276,0.891,2.62,1.562c1.578,0.79,2.711,1.591,3.4,2.405C164.791,142.193,165.136,143.12,165.136,144.161z"/>
	<path d="M180.248,136.076c0,0.219-0.101,0.327-0.303,0.327c-0.201,0-0.344-0.218-0.428-0.654c-0.034-0.303-0.067-0.604-0.101-0.907
		c-0.118-0.604-0.312-1.116-0.579-1.536c-0.354-0.555-0.933-0.907-1.738-1.059c-0.521-0.101-0.94-0.142-1.26-0.126
		c-0.789,0.022-1.268,0.04-1.436,0.051v15.212c0,0.605,0.159,0.983,0.479,1.135c0.168,0.084,0.638,0.135,1.41,0.151
		c0.202,0.016,0.303,0.088,0.303,0.215c0,0.143-0.135,0.214-0.403,0.214c-0.135,0-0.252-0.009-0.353-0.025
		c-1.008-0.033-1.722-0.051-2.141-0.051c-0.555,0-1.075,0.013-1.562,0.038c-0.487,0.025-1.108,0.038-1.864,0.038
		c-0.387,0-0.579-0.067-0.579-0.202c0-0.151,0.36-0.235,1.083-0.252c0.521,0,0.856-0.109,1.008-0.328
		c0.083-0.135,0.126-0.479,0.126-1.034v-15.11c-1.663,0.017-2.695,0.101-3.099,0.252c-1.058,0.387-1.68,1.419-1.864,3.098
		c-0.05,0.504-0.168,0.756-0.353,0.756c-0.201,0-0.302-0.176-0.302-0.528c0-0.185,0.008-0.369,0.025-0.555l0.05-0.579
		c0.051-0.772,0.126-1.788,0.227-3.048h1.134l5.139,0.075c0.604,0.018,1.544,0.018,2.82,0l4.182-0.075
		c0.033,0.94,0.143,2.334,0.327,4.182c0,0.05,0.009,0.113,0.025,0.188S180.248,136.059,180.248,136.076z"/>
	<path d="M196.923,148.909c0,0.143-0.126,0.215-0.378,0.215c-0.168,0-0.319-0.009-0.453-0.025l-3.199-0.101l-3.199,0.101
		c-0.117,0.017-0.243,0.025-0.378,0.025c-0.336,0-0.504-0.088-0.504-0.264c0-0.194,0.228-0.291,0.681-0.291
		c1.478-0.017,2.217-0.164,2.217-0.444c0-0.016-0.018-0.082-0.052-0.197l-0.206-0.666l-0.129-0.352
		c-0.151-0.521-0.521-1.672-1.107-3.454h-5.384c-1.007,2.688-1.51,4.231-1.51,4.635c0,0.235,0.101,0.378,0.302,0.429
		c0.051,0.017,0.47,0.05,1.26,0.101c0.486,0.017,0.73,0.101,0.73,0.252c0,0.168-0.219,0.252-0.655,0.252
		c-0.772,0-1.671-0.034-2.695-0.102c-0.252-0.017-0.512-0.024-0.78-0.024c-0.27,0-0.529,0.027-0.781,0.083
		c-0.134,0.028-0.243,0.043-0.327,0.043c-0.235,0-0.353-0.076-0.353-0.228c0-0.152,0.265-0.236,0.793-0.253
		c0.529-0.017,0.911-0.097,1.146-0.24c0.234-0.144,0.419-0.417,0.554-0.821c2.16-6.2,3.919-11.18,5.274-14.937
		c0.039-0.198,0.117-0.421,0.235-0.669l0.107-0.46c0.051-0.185,0.117-0.276,0.201-0.276c0.051,0,0.093,0.05,0.126,0.15
		c0.219,0.655,0.714,2.024,1.486,4.106c0.604,1.629,2.106,5.718,4.509,12.267c0.134,0.38,0.306,0.622,0.516,0.726
		s0.643,0.164,1.298,0.181C196.704,148.686,196.923,148.765,196.923,148.909z M190.099,142.877
		c-0.273-0.756-0.727-2.007-1.358-3.754l-1.211-3.491c-0.708,1.857-1.559,4.272-2.553,7.245H190.099z"/>
	<path d="M210.172,136.076c0,0.219-0.102,0.327-0.303,0.327s-0.344-0.218-0.428-0.654c-0.034-0.303-0.067-0.604-0.101-0.907
		c-0.118-0.604-0.312-1.116-0.58-1.536c-0.353-0.555-0.932-0.907-1.737-1.059c-0.521-0.101-0.941-0.142-1.26-0.126
		c-0.789,0.022-1.269,0.04-1.437,0.051v15.212c0,0.605,0.16,0.983,0.479,1.135c0.168,0.084,0.638,0.135,1.41,0.151
		c0.202,0.016,0.303,0.088,0.303,0.215c0,0.143-0.135,0.214-0.403,0.214c-0.135,0-0.252-0.009-0.353-0.025
		c-1.008-0.033-1.722-0.051-2.142-0.051c-0.554,0-1.074,0.013-1.562,0.038s-1.108,0.038-1.864,0.038
		c-0.386,0-0.579-0.067-0.579-0.202c0-0.151,0.361-0.235,1.083-0.252c0.521,0,0.856-0.109,1.008-0.328
		c0.084-0.135,0.126-0.479,0.126-1.034v-15.11c-1.662,0.017-2.695,0.101-3.098,0.252c-1.059,0.387-1.68,1.419-1.864,3.098
		c-0.051,0.504-0.168,0.756-0.353,0.756c-0.202,0-0.303-0.176-0.303-0.528c0-0.185,0.009-0.369,0.025-0.555l0.051-0.579
		c0.05-0.772,0.126-1.788,0.227-3.048h1.133l5.139,0.075c0.604,0.018,1.545,0.018,2.821,0l4.182-0.075
		c0.033,0.94,0.143,2.334,0.327,4.182c0,0.05,0.009,0.113,0.025,0.188S210.172,136.059,210.172,136.076z"/>
	<path d="M224.705,145.017c0,0.067-0.018,0.479-0.051,1.234c-0.034,0.756-0.051,1.479-0.051,2.166v0.832
		c-1.646-0.102-4.903-0.151-9.772-0.151c-0.588,0-1.168,0-1.738,0c-0.571,0-0.957,0-1.158,0h-0.252
		c-0.319,0-0.479-0.067-0.479-0.203c0-0.09,0.05-0.143,0.15-0.157c0.051,0,0.369-0.022,0.957-0.068
		c0.437-0.033,0.701-0.126,0.794-0.277c0.092-0.151,0.139-0.548,0.139-1.188v-14.199c0-0.488-0.072-0.778-0.214-0.871
		c-0.144-0.093-0.601-0.139-1.373-0.139c-0.269,0-0.403-0.071-0.403-0.215c0-0.143,0.185-0.214,0.555-0.214h4.307
		c0.151,0,1.1,0,2.847,0c1.746,0,2.922,0,3.526,0c0.504,0,0.965-0.033,1.385-0.101c0.034,0.722,0.109,1.722,0.228,2.997l0.101,1.083
		c0.017,0.085,0.024,0.193,0.024,0.328c0,0.168-0.075,0.252-0.227,0.252c-0.185,0-0.319-0.211-0.402-0.634
		c-0.319-1.521-0.84-2.484-1.562-2.891c-0.537-0.304-1.947-0.456-4.231-0.456h-2.065v7.405h0.604c1.881,0,3.026-0.143,3.438-0.428
		c0.411-0.285,0.692-1.116,0.844-2.494c0.033-0.353,0.126-0.528,0.277-0.528c0.185,0,0.277,0.15,0.277,0.453
		s-0.018,0.747-0.051,1.335c-0.034,0.588-0.051,1.033-0.051,1.335c0,1.797,0.027,3.031,0.081,3.703
		c0.014,0.168,0.021,0.311,0.021,0.428c0,0.219-0.093,0.327-0.276,0.327c-0.117,0-0.196-0.071-0.238-0.214s-0.112-0.608-0.213-1.397
		c-0.134-0.991-0.543-1.604-1.229-1.839c-0.301-0.101-1.087-0.151-2.356-0.151h-1.129v8.438c3.694,0,5.86-0.075,6.499-0.225
		c1.108-0.248,1.738-1.31,1.889-3.185c0.034-0.414,0.143-0.621,0.328-0.621C224.62,144.489,224.705,144.665,224.705,145.017z"/>
	<path d="M244.024,148.909c0,0.144-0.176,0.215-0.526,0.215h-0.276c-0.235,0-0.661,0-1.28,0c-0.62,0-1.097,0-1.431,0
		c-0.503,0-1.089,0-1.758,0c-0.687,0-1.138,0-1.355,0h-0.176c-0.352,0-0.527-0.076-0.527-0.228c0-0.168,0.244-0.252,0.73-0.252
		c0.856,0,1.377-0.093,1.562-0.277c0.083-0.085,0.126-0.647,0.126-1.69v-13.069c0,0.018-0.102,0.312-0.303,0.882
		c-0.675,2.031-1.653,5.086-2.936,9.164l-1.169,4.01c-0.235,0.789-0.403,1.184-0.505,1.184c-0.117,0-0.243-0.201-0.378-0.604
		c-0.484-1.528-1.855-5.343-4.113-11.442l-1-2.688c0,0.319,0,0.756,0,1.31v8.187c0,3.073,0.025,4.626,0.076,4.66
		c0.117,0.218,0.52,0.327,1.209,0.327c0.554,0,0.831,0.084,0.831,0.251c0,0.186-0.177,0.278-0.529,0.278
		c-0.219,0-0.42-0.018-0.604-0.051c-0.235-0.033-0.445-0.051-0.63-0.051l-2.896,0.102c-0.302,0-0.453-0.076-0.453-0.228
		c0-0.168,0.479-0.261,1.436-0.277c0.403,0,0.638-0.067,0.705-0.201c0.067-0.135,0.101-0.572,0.101-1.312v-12.083
		c0-1.396-0.017-2.152-0.05-2.27c-0.067-0.235-0.21-0.396-0.429-0.479c-0.218-0.085-0.688-0.152-1.41-0.202
		c-0.269-0.017-0.403-0.092-0.403-0.227c0-0.185,0.246-0.277,0.739-0.277c0.067,0,0.212,0,0.433,0h1.325
		c1.002,0,1.706-0.006,2.114-0.019c0.083,0.219,0.569,1.54,1.461,3.963c0.383,1.009,1.456,3.95,3.22,8.823
		c0.317-1.094,0.643-2.17,0.977-3.229l2.693-8.323c0.166-0.479,0.313-0.876,0.442-1.19l3.736-0.024c0.548,0,0.863,0.025,0.946,0.076
		c0.083,0.05,0.124,0.126,0.124,0.227c0,0.169-0.143,0.253-0.428,0.253c-0.471,0-0.789,0.017-0.957,0.051
		c-0.403,0.067-0.681,0.202-0.831,0.404c-0.085,0.118-0.126,1.104-0.126,2.956v11.746c0,0.674,0.066,1.07,0.201,1.188
		c0.218,0.152,0.764,0.228,1.638,0.228h0.15C243.856,148.695,244.024,148.766,244.024,148.909z"/>
	<path d="M258.382,145.017c0,0.067-0.018,0.479-0.051,1.234c-0.034,0.756-0.051,1.479-0.051,2.166v0.832
		c-1.646-0.102-4.903-0.151-9.772-0.151c-0.588,0-1.168,0-1.738,0c-0.571,0-0.957,0-1.158,0h-0.252
		c-0.319,0-0.479-0.067-0.479-0.203c0-0.09,0.05-0.143,0.15-0.157c0.051,0,0.369-0.022,0.957-0.068
		c0.437-0.033,0.701-0.126,0.794-0.277c0.092-0.151,0.139-0.548,0.139-1.188v-14.199c0-0.488-0.072-0.778-0.214-0.871
		c-0.144-0.093-0.601-0.139-1.373-0.139c-0.269,0-0.403-0.071-0.403-0.215c0-0.143,0.185-0.214,0.555-0.214h4.307
		c0.151,0,1.1,0,2.847,0c1.746,0,2.922,0,3.526,0c0.504,0,0.965-0.033,1.385-0.101c0.034,0.722,0.109,1.722,0.228,2.997l0.101,1.083
		c0.017,0.085,0.024,0.193,0.024,0.328c0,0.168-0.075,0.252-0.227,0.252c-0.185,0-0.319-0.211-0.402-0.634
		c-0.319-1.521-0.84-2.484-1.562-2.891c-0.537-0.304-1.947-0.456-4.231-0.456h-2.065v7.405h0.604c1.881,0,3.026-0.143,3.438-0.428
		c0.411-0.285,0.692-1.116,0.844-2.494c0.033-0.353,0.126-0.528,0.277-0.528c0.185,0,0.277,0.15,0.277,0.453
		s-0.018,0.747-0.051,1.335c-0.034,0.588-0.051,1.033-0.051,1.335c0,1.797,0.027,3.031,0.081,3.703
		c0.014,0.168,0.021,0.311,0.021,0.428c0,0.219-0.093,0.327-0.276,0.327c-0.117,0-0.196-0.071-0.238-0.214s-0.112-0.608-0.213-1.397
		c-0.134-0.991-0.543-1.604-1.229-1.839c-0.301-0.101-1.087-0.151-2.356-0.151h-1.129v8.438c3.694,0,5.86-0.075,6.499-0.225
		c1.108-0.248,1.738-1.31,1.889-3.185c0.034-0.414,0.143-0.621,0.328-0.621C258.297,144.489,258.382,144.665,258.382,145.017z"/>
	<path d="M275.081,131.819c0,0.168-0.21,0.243-0.63,0.227h-0.555h-0.453c-0.269,0-0.428,0.047-0.479,0.139
		c-0.05,0.092-0.075,0.373-0.075,0.842v14.488c0,0.889-0.009,1.408-0.025,1.559c-0.017,0.151-0.067,0.227-0.15,0.227
		c-0.101,0-0.218-0.093-0.352-0.278l-3.219-4.714c-1.866-2.75-4.136-6.183-6.808-10.298v14.104c0.017,0.219,0.144,0.358,0.382,0.417
		c0.237,0.06,0.806,0.098,1.705,0.114c0.22,0,0.331,0.066,0.331,0.201c0,0.168-0.219,0.252-0.655,0.252
		c-0.151,0-0.63-0.025-1.436-0.076c-0.269-0.017-0.529-0.024-0.781-0.024c0.017,0-0.13,0.017-0.44,0.05s-0.785,0.051-1.423,0.051
		h-0.252c-0.387,0-0.579-0.076-0.579-0.228s0.167-0.227,0.503-0.227c0.991-0.017,1.566-0.08,1.726-0.189s0.239-0.467,0.239-1.072
		v-12.436c0-1.396-0.285-2.271-0.856-2.624c-0.269-0.168-0.747-0.252-1.436-0.252c-0.437,0-0.655-0.088-0.655-0.266
		c0-0.159,0.126-0.238,0.378-0.238c0.336,0,0.765,0.017,1.285,0.051c0.521,0.033,0.797,0.05,0.831,0.05
		c0.051,0,0.285-0.008,0.705-0.025c0.555,0,1.092-0.024,1.612-0.075l8.689,12.971v-11.207c0-0.521-0.008-0.836-0.024-0.945
		c-0.018-0.108-0.085-0.192-0.202-0.252c-0.117-0.059-0.521-0.088-1.209-0.088c-0.604,0-0.906-0.075-0.906-0.227
		c0-0.168,0.201-0.252,0.604-0.252h0.881c0.219,0,0.454,0,0.706,0c0.268,0,0.428,0,0.479,0c0.017,0,0.167,0,0.453,0
		c0.269,0,0.521,0,0.756,0h0.78C274.896,131.567,275.081,131.651,275.081,131.819z"/>
	<path d="M289.791,136.076c0,0.219-0.102,0.327-0.303,0.327s-0.344-0.218-0.428-0.654c-0.034-0.303-0.067-0.604-0.101-0.907
		c-0.118-0.604-0.312-1.116-0.58-1.536c-0.353-0.555-0.932-0.907-1.737-1.059c-0.521-0.101-0.941-0.142-1.26-0.126
		c-0.79,0.022-1.269,0.04-1.436,0.051v15.212c0,0.605,0.159,0.983,0.479,1.135c0.167,0.084,0.638,0.135,1.41,0.151
		c0.202,0.016,0.303,0.088,0.303,0.215c0,0.143-0.135,0.214-0.403,0.214c-0.135,0-0.252-0.009-0.353-0.025
		c-1.008-0.033-1.722-0.051-2.141-0.051c-0.555,0-1.075,0.013-1.562,0.038s-1.107,0.038-1.863,0.038c-0.387,0-0.58-0.067-0.58-0.202
		c0-0.151,0.361-0.235,1.084-0.252c0.52,0,0.856-0.109,1.007-0.328c0.084-0.135,0.126-0.479,0.126-1.034v-15.11
		c-1.662,0.017-2.695,0.101-3.098,0.252c-1.059,0.387-1.68,1.419-1.864,3.098c-0.05,0.504-0.168,0.756-0.353,0.756
		c-0.201,0-0.303-0.176-0.303-0.528c0-0.185,0.009-0.369,0.025-0.555l0.051-0.579c0.05-0.772,0.126-1.788,0.227-3.048h1.134
		l5.138,0.075c0.604,0.018,1.545,0.018,2.821,0l4.182-0.075c0.033,0.94,0.143,2.334,0.327,4.182c0,0.05,0.009,0.113,0.025,0.188
		S289.791,136.059,289.791,136.076z"/>
	<path d="M39.599,179.086c0,0.143-0.101,0.214-0.302,0.214h-0.252c-0.101-0.051-1.243-0.075-3.426-0.075
		c-0.42,0-0.84,0.017-1.259,0.05c-0.219,0.018-0.554,0.025-1.008,0.025c-0.218,0-0.327-0.075-0.327-0.227
		c0-0.135,0.218-0.21,0.655-0.227c0.671-0.017,1.066-0.097,1.184-0.24c0.117-0.143,0.176-0.627,0.176-1.453v-13.289
		c0-0.825-0.042-1.288-0.128-1.39c-0.102-0.168-0.57-0.269-1.403-0.303c-0.323-0.015-0.484-0.074-0.484-0.178
		c0-0.133,0.102-0.2,0.305-0.2h3.427c0.253,0,0.744,0.009,1.472,0.025l0.965-0.025c0.271,0,0.406,0.071,0.406,0.215
		c0,0.128-0.375,0.207-1.122,0.238c-0.425,0.018-0.685,0.093-0.778,0.227c-0.094,0.135-0.14,0.487-0.14,1.059v13.45
		c0,0.957,0.042,1.478,0.126,1.562c0.185,0.186,0.73,0.294,1.637,0.328C39.506,178.872,39.599,178.943,39.599,179.086z"/>
	<path d="M56.45,162.046c0,0.168-0.21,0.243-0.629,0.227h-0.554h-0.454c-0.269,0-0.428,0.047-0.479,0.139s-0.075,0.373-0.075,0.842
		v14.488c0,0.889-0.009,1.408-0.025,1.559c-0.017,0.151-0.067,0.227-0.15,0.227c-0.101,0-0.218-0.093-0.352-0.278l-3.218-4.714
		c-1.867-2.75-4.136-6.183-6.809-10.298v14.104c0.017,0.219,0.144,0.358,0.382,0.417c0.238,0.06,0.806,0.098,1.706,0.114
		c0.22,0,0.331,0.066,0.331,0.201c0,0.168-0.218,0.252-0.655,0.252c-0.151,0-0.629-0.025-1.436-0.076
		c-0.269-0.017-0.529-0.024-0.781-0.024c0.017,0-0.13,0.017-0.441,0.05c-0.311,0.033-0.785,0.051-1.423,0.051h-0.252
		c-0.386,0-0.579-0.076-0.579-0.228s0.167-0.227,0.504-0.227c0.99-0.017,1.565-0.08,1.725-0.189s0.239-0.467,0.239-1.072v-12.436
		c0-1.396-0.286-2.271-0.856-2.624c-0.269-0.168-0.747-0.252-1.436-0.252c-0.437,0-0.655-0.088-0.655-0.266
		c0-0.159,0.126-0.238,0.378-0.238c0.335,0,0.764,0.017,1.285,0.051c0.52,0.033,0.797,0.05,0.831,0.05
		c0.05,0,0.285-0.008,0.705-0.025c0.554,0,1.091-0.024,1.612-0.075l8.69,12.971v-11.207c0-0.521-0.009-0.836-0.025-0.945
		c-0.017-0.108-0.084-0.192-0.202-0.252c-0.118-0.059-0.521-0.088-1.209-0.088c-0.604,0-0.907-0.075-0.907-0.227
		c0-0.168,0.202-0.252,0.604-0.252h0.882c0.218,0,0.453,0,0.705,0c0.269,0,0.428,0,0.479,0c0.017,0,0.168,0,0.454,0
		c0.269,0,0.52,0,0.755,0h0.781C56.265,161.794,56.45,161.878,56.45,162.046z"/>
	<path d="M74.006,166c0,1.629-0.697,2.897-2.091,3.804c-0.874,0.571-1.981,0.856-3.325,0.856c-0.571,0-1.218-0.059-1.939-0.176
		v7.153c0,0.386,0.016,0.629,0.05,0.73c0.083,0.235,0.268,0.378,0.554,0.428c0.487,0.067,0.957,0.101,1.41,0.101
		c0.185,0,0.277,0.06,0.277,0.177c0,0.168-0.118,0.252-0.353,0.252c-0.101,0-0.185,0-0.252,0c-0.924,0-2.662,0-5.214,0h-0.328
		c-0.504,0-0.756-0.084-0.756-0.253c0-0.117,0.177-0.176,0.529-0.176c0.789,0,1.242-0.076,1.36-0.228
		c0.134-0.067,0.21-0.235,0.227-0.504v-14.884c0-0.521-0.143-0.84-0.428-0.958c-0.168-0.067-0.462-0.101-0.882-0.101h-0.252
		c-0.05,0-0.109,0-0.176,0c-0.252,0-0.378-0.067-0.378-0.203c0-0.15,0.235-0.226,0.706-0.226h5.542c1.914,0,3.316,0.336,4.206,1.008
		C73.502,163.557,74.006,164.624,74.006,166z M71.361,166.024c0-2.534-1.058-3.802-3.174-3.802c-0.705,0-1.167,0.118-1.385,0.354
		c-0.101,0.102-0.151,0.363-0.151,0.785v6.744c0.134,0.017,0.285,0.024,0.453,0.024c1.108,0,2.049-0.244,2.821-0.734
		C70.882,168.788,71.361,167.664,71.361,166.024z"/>
	<path d="M89.118,178.544c0,0.705-0.588,1.059-1.763,1.059c-1.31,0-2.334-0.546-3.073-1.638c-0.319-0.47-0.525-0.923-0.617-1.36
		c-0.093-0.437-0.231-1.545-0.416-3.324c-0.101-1.075-0.445-1.835-1.033-2.28c-0.588-0.444-1.545-0.684-2.871-0.718v7.935
		c0,0.336,0.268,0.546,0.806,0.63c0.151,0.017,0.538,0.033,1.159,0.05c0.218,0,0.328,0.067,0.328,0.202
		c0,0.15-0.143,0.227-0.428,0.227h-0.302c-0.151,0-0.882,0-2.191,0c-0.252,0-0.68,0-1.285,0c-0.588,0-0.974,0-1.159,0H75.29
		c-0.37,0-0.554-0.076-0.554-0.227c0-0.117,0.244-0.185,0.73-0.202c0.79-0.017,1.217-0.117,1.285-0.302
		c0.067-0.084,0.101-0.411,0.101-0.982v-13.904c0-0.671-0.072-1.074-0.214-1.209c-0.143-0.134-0.575-0.21-1.297-0.227
		c-0.42,0-0.63-0.075-0.63-0.227c0-0.168,0.134-0.252,0.403-0.252c0.05,0,0.126,0.009,0.227,0.025l3.35,0.075
		c0.336,0,0.806-0.011,1.411-0.033c0.671-0.045,1.142-0.067,1.411-0.067c1.562,0,2.8,0.349,3.715,1.045
		c0.915,0.697,1.373,1.642,1.373,2.834c0,1.176-0.47,2.146-1.411,2.909c-0.94,0.765-2.216,1.214-3.829,1.348
		c-0.151,0.017-0.235,0.042-0.251,0.076c0,0.067,0.083,0.101,0.251,0.101c1.763,0.303,2.977,0.922,3.64,1.856
		c0.663,0.935,1.104,2.623,1.322,5.064c0.134,1.381,0.604,2.071,1.411,2.071c0.251,0,0.377-0.051,0.377-0.151
		c0-0.017-0.008-0.033-0.025-0.051c-0.084-0.185-0.126-0.335-0.126-0.453c0-0.353,0.185-0.529,0.554-0.529
		C88.917,177.914,89.118,178.125,89.118,178.544z M83.904,165.925c0-2.401-1.042-3.602-3.124-3.602
		c-0.554,0-0.932,0.075-1.133,0.227c-0.202,0.151-0.302,0.42-0.302,0.806v6.398c1.612,0.017,2.774-0.277,3.488-0.882
		S83.904,167.285,83.904,165.925z"/>
	<path d="M96.222,179.086c0,0.143-0.101,0.214-0.302,0.214h-0.252c-0.101-0.051-1.243-0.075-3.426-0.075
		c-0.42,0-0.84,0.017-1.259,0.05c-0.219,0.018-0.554,0.025-1.008,0.025c-0.218,0-0.327-0.075-0.327-0.227
		c0-0.135,0.218-0.21,0.655-0.227c0.671-0.017,1.066-0.097,1.184-0.24c0.117-0.143,0.176-0.627,0.176-1.453v-13.289
		c0-0.825-0.042-1.288-0.128-1.39c-0.102-0.168-0.57-0.269-1.403-0.303c-0.323-0.015-0.484-0.074-0.484-0.178
		c0-0.133,0.102-0.2,0.305-0.2h3.427c0.253,0,0.744,0.009,1.472,0.025l0.965-0.025c0.271,0,0.406,0.071,0.406,0.215
		c0,0.128-0.375,0.207-1.122,0.238c-0.425,0.018-0.685,0.093-0.778,0.227c-0.094,0.135-0.14,0.487-0.14,1.059v13.45
		c0,0.957,0.042,1.478,0.126,1.562c0.185,0.186,0.73,0.294,1.637,0.328C96.129,178.872,96.222,178.943,96.222,179.086z"/>
	<path d="M113.072,162.046c0,0.168-0.21,0.243-0.629,0.227h-0.554h-0.454c-0.269,0-0.428,0.047-0.479,0.139
		s-0.075,0.373-0.075,0.842v14.488c0,0.889-0.009,1.408-0.025,1.559c-0.017,0.151-0.067,0.227-0.15,0.227
		c-0.101,0-0.218-0.093-0.352-0.278l-3.218-4.714c-1.867-2.75-4.136-6.183-6.809-10.298v14.104c0.017,0.219,0.144,0.358,0.382,0.417
		c0.238,0.06,0.806,0.098,1.706,0.114c0.22,0,0.331,0.066,0.331,0.201c0,0.168-0.218,0.252-0.655,0.252
		c-0.151,0-0.629-0.025-1.436-0.076c-0.269-0.017-0.529-0.024-0.781-0.024c0.017,0-0.13,0.017-0.441,0.05
		c-0.311,0.033-0.785,0.051-1.423,0.051h-0.252c-0.386,0-0.579-0.076-0.579-0.228s0.167-0.227,0.504-0.227
		c0.99-0.017,1.565-0.08,1.725-0.189s0.239-0.467,0.239-1.072v-12.436c0-1.396-0.286-2.271-0.856-2.624
		c-0.269-0.168-0.747-0.252-1.436-0.252c-0.437,0-0.655-0.088-0.655-0.266c0-0.159,0.126-0.238,0.378-0.238
		c0.335,0,0.764,0.017,1.285,0.051c0.52,0.033,0.797,0.05,0.831,0.05c0.05,0,0.285-0.008,0.705-0.025
		c0.554,0,1.091-0.024,1.612-0.075l8.69,12.971v-11.207c0-0.521-0.009-0.836-0.025-0.945c-0.017-0.108-0.084-0.192-0.202-0.252
		c-0.118-0.059-0.521-0.088-1.209-0.088c-0.604,0-0.907-0.075-0.907-0.227c0-0.168,0.202-0.252,0.604-0.252h0.882
		c0.218,0,0.453,0,0.705,0c0.269,0,0.428,0,0.479,0c0.017,0,0.168,0,0.454,0c0.269,0,0.52,0,0.755,0h0.781
		C112.887,161.794,113.072,161.878,113.072,162.046z"/>
	<path d="M127.782,166.302c0,0.219-0.101,0.327-0.302,0.327c-0.201,0-0.344-0.218-0.428-0.654c-0.034-0.303-0.067-0.604-0.101-0.907
		c-0.118-0.604-0.311-1.116-0.579-1.536c-0.353-0.555-0.932-0.907-1.738-1.059c-0.521-0.101-0.94-0.142-1.259-0.126
		c-0.79,0.022-1.268,0.04-1.436,0.051v15.212c0,0.605,0.16,0.983,0.479,1.135c0.167,0.084,0.638,0.135,1.41,0.151
		c0.202,0.016,0.302,0.088,0.302,0.215c0,0.143-0.134,0.214-0.403,0.214c-0.135,0-0.252-0.009-0.353-0.025
		c-1.008-0.033-1.722-0.051-2.141-0.051c-0.554,0-1.075,0.013-1.562,0.038c-0.487,0.025-1.108,0.038-1.864,0.038
		c-0.386,0-0.579-0.067-0.579-0.202c0-0.151,0.361-0.235,1.083-0.252c0.521,0,0.856-0.109,1.008-0.328
		c0.083-0.135,0.126-0.479,0.126-1.034v-15.11c-1.663,0.017-2.695,0.101-3.098,0.252c-1.058,0.387-1.68,1.419-1.864,3.098
		c-0.05,0.504-0.168,0.756-0.353,0.756c-0.202,0-0.302-0.176-0.302-0.528c0-0.185,0.008-0.369,0.025-0.555l0.05-0.579
		c0.05-0.772,0.126-1.788,0.227-3.048h1.133l5.139,0.075c0.604,0.018,1.544,0.018,2.821,0l4.182-0.075
		c0.033,0.94,0.142,2.334,0.327,4.182c0,0.05,0.008,0.113,0.025,0.188C127.773,166.239,127.782,166.286,127.782,166.302z"/>
	<path d="M139.973,174.387c0,1.444-0.55,2.675-1.65,3.69c-1.1,1.017-2.422,1.524-3.967,1.524c-0.907,0-1.99-0.277-3.249-0.832
		c-0.336-0.15-0.588-0.227-0.756-0.227c-0.202,0-0.328,0.232-0.378,0.697c-0.017,0.24-0.126,0.361-0.327,0.361
		c-0.168,0-0.252-0.102-0.252-0.303c0-0.134,0.008-0.235,0.025-0.303c0.134-1.023,0.202-1.973,0.202-2.846
		c0-0.168-0.017-0.638-0.05-1.41c-0.017-0.102-0.025-0.235-0.025-0.403c0-0.252,0.101-0.378,0.302-0.378
		c0.168,0,0.286,0.203,0.353,0.61c0.437,3.019,1.855,4.528,4.257,4.528c1.024,0,1.818-0.29,2.38-0.869s0.844-1.398,0.844-2.456
		c0-0.94-0.273-1.742-0.818-2.405c-0.546-0.663-1.482-1.322-2.809-1.978c-1.596-0.789-2.704-1.553-3.325-2.292
		c-0.622-0.739-0.932-1.654-0.932-2.745c0-1.395,0.449-2.545,1.348-3.451c0.898-0.907,2.036-1.36,3.413-1.36
		c0.57,0,1.36,0.193,2.368,0.579c0.353,0.135,0.613,0.202,0.781,0.202c0.185,0,0.306-0.034,0.365-0.101
		c0.059-0.067,0.113-0.244,0.164-0.529c0.034-0.168,0.126-0.252,0.277-0.252c0.167,0,0.251,0.101,0.251,0.302
		c0,0.135-0.008,0.235-0.025,0.303c-0.05,0.403-0.076,0.891-0.076,1.461c0,0.806,0.042,1.444,0.126,1.914l0.025,0.403
		c0.017,0.185-0.059,0.277-0.227,0.277c-0.185,0-0.311-0.193-0.377-0.58c-0.185-0.99-0.622-1.817-1.31-2.48
		s-1.461-0.995-2.317-0.995c-0.84,0-1.507,0.269-2.002,0.806c-0.496,0.538-0.743,1.269-0.743,2.191c0,1.075,0.361,1.939,1.083,2.595
		c0.403,0.369,1.276,0.891,2.62,1.562c1.578,0.79,2.711,1.591,3.4,2.405C139.628,172.42,139.973,173.346,139.973,174.387z"/>
	<path d="M159.77,166.302c0,0.219-0.101,0.327-0.302,0.327c-0.201,0-0.344-0.218-0.428-0.654c-0.034-0.303-0.067-0.604-0.101-0.907
		c-0.118-0.604-0.311-1.116-0.579-1.536c-0.353-0.555-0.932-0.907-1.738-1.059c-0.521-0.101-0.94-0.142-1.259-0.126
		c-0.79,0.022-1.268,0.04-1.436,0.051v15.212c0,0.605,0.16,0.983,0.479,1.135c0.167,0.084,0.638,0.135,1.41,0.151
		c0.202,0.016,0.302,0.088,0.302,0.215c0,0.143-0.134,0.214-0.403,0.214c-0.135,0-0.252-0.009-0.353-0.025
		c-1.008-0.033-1.722-0.051-2.141-0.051c-0.554,0-1.075,0.013-1.562,0.038c-0.487,0.025-1.108,0.038-1.864,0.038
		c-0.386,0-0.579-0.067-0.579-0.202c0-0.151,0.361-0.235,1.083-0.252c0.521,0,0.856-0.109,1.008-0.328
		c0.083-0.135,0.126-0.479,0.126-1.034v-15.11c-1.663,0.017-2.695,0.101-3.098,0.252c-1.058,0.387-1.68,1.419-1.864,3.098
		c-0.05,0.504-0.168,0.756-0.353,0.756c-0.202,0-0.302-0.176-0.302-0.528c0-0.185,0.008-0.369,0.025-0.555l0.05-0.579
		c0.05-0.772,0.126-1.788,0.227-3.048h1.133l5.139,0.075c0.604,0.018,1.544,0.018,2.821,0l4.182-0.075
		c0.033,0.94,0.142,2.334,0.327,4.182c0,0.05,0.008,0.113,0.025,0.188C159.762,166.239,159.77,166.286,159.77,166.302z"/>
	<path d="M177.352,179.073c0,0.151-0.159,0.227-0.476,0.227h-3.448c-0.233,0-0.575,0-1.025,0c-0.449,0-0.783,0-0.999,0
		c-0.334,0-0.5-0.067-0.5-0.201s0.39-0.226,1.169-0.276c0.414-0.033,0.654-0.104,0.721-0.213c0.066-0.109,0.1-0.498,0.1-1.168
		v-7.335h-7.581v7.128c0,0.756,0.059,1.201,0.176,1.335c0.117,0.135,0.513,0.227,1.185,0.277c0.437,0.033,0.654,0.109,0.654,0.227
		c0,0.151-0.168,0.227-0.504,0.227h-0.227c-0.402,0-0.827,0-1.271,0c-0.445,0-0.71,0-0.794,0c-0.235,0-0.588,0-1.058,0
		c-0.47,0-1.175,0-2.116,0c-0.336,0-0.504-0.067-0.504-0.201s0.168-0.218,0.504-0.251c0.218-0.017,0.445-0.034,0.68-0.051
		c0.369-0.033,0.604-0.117,0.705-0.252c0.05-0.083,0.076-0.553,0.076-1.408v-13.279c0-0.755-0.038-1.199-0.113-1.333
		s-0.34-0.21-0.793-0.227c-0.521-0.035-0.827-0.062-0.919-0.08c-0.092-0.017-0.139-0.088-0.139-0.212
		c0-0.141,0.109-0.212,0.328-0.212c0.067,0,0.21,0.009,0.428,0.025c0.419,0.033,1.411,0.05,2.972,0.05
		c0.856,0,1.452-0.012,1.788-0.037c0.117-0.025,0.269-0.038,0.453-0.038c0.303,0,0.454,0.084,0.454,0.253
		c0,0.151-0.273,0.228-0.819,0.228s-0.873,0.063-0.982,0.189s-0.163,0.526-0.163,1.2v5.812h7.581v-5.434
		c0-0.893-0.067-1.419-0.201-1.579c-0.135-0.16-0.604-0.231-1.41-0.215c-0.252,0-0.378-0.075-0.378-0.228
		c0-0.151,0.143-0.228,0.428-0.228h0.126c0.235,0,0.646,0,1.234,0c0.604,0,1.058,0,1.36,0c1.023,0,1.717,0,2.078,0
		c0.36,0,0.592,0,0.692,0c0.353,0,0.529,0.075,0.529,0.227s-0.37,0.235-1.108,0.252c-0.219,0-0.378,0.017-0.479,0.051
		c-0.168,0.05-0.273,0.143-0.315,0.276c-0.042,0.135-0.062,0.529-0.062,1.185v13.399c0,0.807,0.041,1.276,0.124,1.411
		c0.166,0.185,0.646,0.277,1.442,0.277C177.219,178.838,177.352,178.905,177.352,179.073z"/>
	<path d="M185.336,179.086c0,0.143-0.102,0.214-0.303,0.214h-0.252c-0.101-0.051-1.243-0.075-3.426-0.075
		c-0.42,0-0.84,0.017-1.259,0.05c-0.219,0.018-0.555,0.025-1.008,0.025c-0.219,0-0.327-0.075-0.327-0.227
		c0-0.135,0.218-0.21,0.654-0.227c0.672-0.017,1.066-0.097,1.185-0.24c0.117-0.143,0.176-0.627,0.176-1.453v-13.289
		c0-0.825-0.042-1.288-0.128-1.39c-0.102-0.168-0.569-0.269-1.402-0.303c-0.323-0.015-0.484-0.074-0.484-0.178
		c0-0.133,0.102-0.2,0.305-0.2h3.427c0.253,0,0.744,0.009,1.472,0.025l0.965-0.025c0.271,0,0.406,0.071,0.406,0.215
		c0,0.128-0.375,0.207-1.122,0.238c-0.426,0.018-0.685,0.093-0.778,0.227c-0.094,0.135-0.141,0.487-0.141,1.059v13.45
		c0,0.957,0.042,1.478,0.126,1.562c0.185,0.186,0.73,0.294,1.638,0.328C185.243,178.872,185.336,178.943,185.336,179.086z"/>
	<path d="M197.804,174.387c0,1.444-0.55,2.675-1.649,3.69c-1.101,1.017-2.423,1.524-3.968,1.524c-0.906,0-1.989-0.277-3.249-0.832
		c-0.336-0.15-0.588-0.227-0.756-0.227c-0.201,0-0.327,0.232-0.378,0.697c-0.017,0.24-0.126,0.361-0.327,0.361
		c-0.168,0-0.252-0.102-0.252-0.303c0-0.134,0.009-0.235,0.025-0.303c0.134-1.023,0.201-1.973,0.201-2.846
		c0-0.168-0.017-0.638-0.05-1.41c-0.018-0.102-0.025-0.235-0.025-0.403c0-0.252,0.101-0.378,0.302-0.378
		c0.168,0,0.286,0.203,0.353,0.61c0.437,3.019,1.855,4.528,4.257,4.528c1.024,0,1.818-0.29,2.381-0.869s0.844-1.398,0.844-2.456
		c0-0.94-0.273-1.742-0.818-2.405c-0.546-0.663-1.482-1.322-2.809-1.978c-1.596-0.789-2.704-1.553-3.325-2.292
		s-0.932-1.654-0.932-2.745c0-1.395,0.449-2.545,1.348-3.451c0.897-0.907,2.035-1.36,3.413-1.36c0.57,0,1.359,0.193,2.367,0.579
		c0.353,0.135,0.613,0.202,0.781,0.202c0.185,0,0.306-0.034,0.365-0.101c0.059-0.067,0.113-0.244,0.163-0.529
		c0.034-0.168,0.126-0.252,0.277-0.252c0.168,0,0.252,0.101,0.252,0.302c0,0.135-0.009,0.235-0.025,0.303
		c-0.05,0.403-0.075,0.891-0.075,1.461c0,0.806,0.042,1.444,0.126,1.914l0.025,0.403c0.017,0.185-0.06,0.277-0.228,0.277
		c-0.185,0-0.311-0.193-0.377-0.58c-0.186-0.99-0.622-1.817-1.311-2.48s-1.461-0.995-2.317-0.995c-0.84,0-1.507,0.269-2.002,0.806
		c-0.496,0.538-0.743,1.269-0.743,2.191c0,1.075,0.361,1.939,1.083,2.595c0.403,0.369,1.276,0.891,2.62,1.562
		c1.578,0.79,2.711,1.591,3.4,2.405C197.459,172.42,197.804,173.346,197.804,174.387z"/>
	<path d="M226.921,162.01c0,0.143-0.286,0.222-0.856,0.237c-0.639,0.018-1.062,0.227-1.272,0.63s-0.533,1.26-0.97,2.569
		c-0.756,2.301-1.429,4.257-2.017,5.868c-1.007,2.754-1.921,5.416-2.743,7.985c-0.069,0.218-0.155,0.327-0.259,0.327
		c-0.086,0-0.168-0.084-0.245-0.25c-0.078-0.167-0.306-0.751-0.685-1.753c-0.467-1.312-0.977-2.632-1.528-3.961
		c-0.434-1.043-0.86-2.119-1.277-3.229c-1.169,2.839-2.33,5.803-3.483,8.893c-0.067,0.201-0.152,0.301-0.254,0.301
		c-0.084,0-0.186-0.143-0.304-0.428c-0.521-1.242-2.452-6.39-5.794-15.44c-0.235-0.638-0.412-1.037-0.529-1.196
		c-0.117-0.16-0.411-0.248-0.881-0.265c-0.807-0.033-1.209-0.151-1.209-0.353c0-0.151,0.135-0.227,0.402-0.227
		c0.118,0,0.219,0.009,0.303,0.024c0.89,0.051,1.847,0.076,2.872,0.076c0.201,0,0.55-0.017,1.045-0.051
		c0.495-0.033,1.138-0.05,1.927-0.05h0.277c0.285,0,0.428,0.077,0.428,0.231c0,0.188-0.258,0.291-0.775,0.309
		c-1.034,0.034-1.551,0.171-1.551,0.411c0,0.47,1.543,4.845,4.629,13.125c1.122-2.837,1.96-4.927,2.513-6.27l-2.486-6.451
		c-0.136-0.352-0.292-0.577-0.469-0.678c-0.178-0.101-0.503-0.159-0.975-0.176c-0.473-0.017-0.709-0.092-0.709-0.226
		c0-0.185,0.176-0.276,0.528-0.276c0.269,0,0.597,0.017,0.982,0.05c0.387,0.034,1.059,0.051,2.016,0.051h1.914h2.771
		c0.621,0,1.369-0.027,2.242-0.081c0.101-0.013,0.218-0.02,0.353-0.02c0.403,0,0.604,0.088,0.604,0.265
		c0,0.159-0.143,0.239-0.429,0.239h-0.428c-0.756,0-1.327,0.101-1.713,0.302c-0.168,0.084-0.479,0.688-0.932,1.812
		c-0.204,0.47-0.543,1.267-1.018,2.391c-0.099,0.253-0.246,0.633-0.443,1.138c0.116,0.336,0.484,1.269,1.103,2.799
		c0.798,1.943,1.454,3.61,1.97,5.001c0.944-2.719,2.058-5.933,3.34-9.642c0.679-1.975,1.019-3.072,1.019-3.291
		c0-0.32-0.294-0.481-0.882-0.481c-0.823,0-1.234-0.093-1.234-0.278c0-0.169,0.168-0.253,0.504-0.253
		c0.285,0,0.512,0.011,0.68,0.033c0.369,0.045,0.706,0.067,1.008,0.067h2.015c0.504,0,0.781,0.02,0.832,0.06
		C226.896,161.918,226.921,161.962,226.921,162.01z M216.267,162.298h-0.303h-0.428c-0.604,0.034-0.907,0.144-0.907,0.329
		c0,0.033,0.494,1.494,1.483,4.38c0.384-0.841,0.834-1.95,1.352-3.328c0.069-0.185,0.173-0.427,0.312-0.729l0.052-0.2
		C217.828,162.448,217.308,162.298,216.267,162.298z"/>
	<path d="M233.444,179.086c0,0.143-0.101,0.214-0.302,0.214h-0.252c-0.101-0.051-1.243-0.075-3.426-0.075
		c-0.42,0-0.84,0.017-1.26,0.05c-0.218,0.018-0.554,0.025-1.007,0.025c-0.219,0-0.328-0.075-0.328-0.227
		c0-0.135,0.219-0.21,0.655-0.227c0.672-0.017,1.066-0.097,1.184-0.24c0.117-0.143,0.177-0.627,0.177-1.453v-13.289
		c0-0.825-0.043-1.288-0.128-1.39c-0.103-0.168-0.569-0.269-1.402-0.303c-0.323-0.015-0.485-0.074-0.485-0.178
		c0-0.133,0.102-0.2,0.305-0.2h3.427c0.254,0,0.744,0.009,1.473,0.025l0.964-0.025c0.271,0,0.406,0.071,0.406,0.215
		c0,0.128-0.374,0.207-1.122,0.238c-0.425,0.018-0.685,0.093-0.777,0.227c-0.094,0.135-0.141,0.487-0.141,1.059v13.45
		c0,0.957,0.042,1.478,0.126,1.562c0.185,0.186,0.73,0.294,1.638,0.328C233.353,178.872,233.444,178.943,233.444,179.086z"/>
	<path d="M250.296,162.046c0,0.168-0.21,0.243-0.63,0.227h-0.555h-0.453c-0.269,0-0.428,0.047-0.479,0.139
		c-0.05,0.092-0.075,0.373-0.075,0.842v14.488c0,0.889-0.009,1.408-0.025,1.559c-0.017,0.151-0.067,0.227-0.15,0.227
		c-0.101,0-0.218-0.093-0.352-0.278l-3.219-4.714c-1.866-2.75-4.136-6.183-6.808-10.298v14.104c0.017,0.219,0.144,0.358,0.382,0.417
		c0.237,0.06,0.806,0.098,1.705,0.114c0.22,0,0.331,0.066,0.331,0.201c0,0.168-0.219,0.252-0.655,0.252
		c-0.151,0-0.63-0.025-1.436-0.076c-0.269-0.017-0.529-0.024-0.781-0.024c0.017,0-0.13,0.017-0.44,0.05s-0.785,0.051-1.423,0.051
		h-0.252c-0.387,0-0.579-0.076-0.579-0.228s0.167-0.227,0.503-0.227c0.991-0.017,1.566-0.08,1.726-0.189s0.239-0.467,0.239-1.072
		v-12.436c0-1.396-0.285-2.271-0.856-2.624c-0.269-0.168-0.747-0.252-1.436-0.252c-0.437,0-0.655-0.088-0.655-0.266
		c0-0.159,0.126-0.238,0.378-0.238c0.336,0,0.765,0.017,1.285,0.051c0.521,0.033,0.797,0.05,0.831,0.05
		c0.051,0,0.285-0.008,0.705-0.025c0.555,0,1.092-0.024,1.612-0.075l8.689,12.971v-11.207c0-0.521-0.008-0.836-0.024-0.945
		c-0.018-0.108-0.085-0.192-0.202-0.252c-0.117-0.059-0.521-0.088-1.209-0.088c-0.604,0-0.906-0.075-0.906-0.227
		c0-0.168,0.201-0.252,0.604-0.252h0.881c0.219,0,0.454,0,0.706,0c0.268,0,0.428,0,0.479,0c0.017,0,0.167,0,0.453,0
		c0.269,0,0.521,0,0.756,0h0.78C250.11,161.794,250.296,161.878,250.296,162.046z"/>
	<path d="M265.005,166.302c0,0.219-0.102,0.327-0.303,0.327s-0.344-0.218-0.428-0.654c-0.034-0.303-0.067-0.604-0.101-0.907
		c-0.118-0.604-0.312-1.116-0.58-1.536c-0.353-0.555-0.932-0.907-1.737-1.059c-0.521-0.101-0.941-0.142-1.26-0.126
		c-0.79,0.022-1.269,0.04-1.436,0.051v15.212c0,0.605,0.159,0.983,0.479,1.135c0.167,0.084,0.638,0.135,1.41,0.151
		c0.202,0.016,0.303,0.088,0.303,0.215c0,0.143-0.135,0.214-0.403,0.214c-0.135,0-0.252-0.009-0.353-0.025
		c-1.008-0.033-1.722-0.051-2.141-0.051c-0.555,0-1.075,0.013-1.562,0.038s-1.107,0.038-1.863,0.038c-0.387,0-0.58-0.067-0.58-0.202
		c0-0.151,0.361-0.235,1.084-0.252c0.52,0,0.856-0.109,1.007-0.328c0.084-0.135,0.126-0.479,0.126-1.034v-15.11
		c-1.662,0.017-2.695,0.101-3.098,0.252c-1.059,0.387-1.68,1.419-1.864,3.098c-0.05,0.504-0.168,0.756-0.353,0.756
		c-0.201,0-0.303-0.176-0.303-0.528c0-0.185,0.009-0.369,0.025-0.555l0.051-0.579c0.05-0.772,0.126-1.788,0.227-3.048h1.134
		l5.138,0.075c0.604,0.018,1.545,0.018,2.821,0l4.182-0.075c0.033,0.94,0.143,2.334,0.327,4.182c0,0.05,0.009,0.113,0.025,0.188
		S265.005,166.286,265.005,166.302z"/>
	<path d="M279.539,175.244c0,0.067-0.018,0.479-0.051,1.234c-0.034,0.756-0.051,1.479-0.051,2.166v0.832
		c-1.646-0.102-4.903-0.151-9.772-0.151c-0.588,0-1.168,0-1.738,0c-0.571,0-0.957,0-1.158,0h-0.252
		c-0.319,0-0.479-0.067-0.479-0.203c0-0.09,0.05-0.143,0.15-0.157c0.051,0,0.369-0.022,0.957-0.068
		c0.437-0.033,0.701-0.126,0.794-0.277c0.092-0.151,0.139-0.548,0.139-1.188v-14.199c0-0.488-0.072-0.778-0.214-0.871
		c-0.144-0.093-0.601-0.139-1.373-0.139c-0.269,0-0.403-0.071-0.403-0.215c0-0.143,0.185-0.214,0.555-0.214h4.307
		c0.151,0,1.1,0,2.847,0c1.746,0,2.922,0,3.526,0c0.504,0,0.965-0.033,1.385-0.101c0.034,0.722,0.109,1.722,0.228,2.997l0.101,1.083
		c0.017,0.085,0.024,0.193,0.024,0.328c0,0.168-0.075,0.252-0.227,0.252c-0.185,0-0.319-0.211-0.402-0.634
		c-0.319-1.521-0.84-2.484-1.562-2.891c-0.537-0.304-1.947-0.456-4.231-0.456h-2.065v7.405h0.604c1.881,0,3.026-0.143,3.438-0.428
		c0.411-0.285,0.692-1.116,0.844-2.494c0.033-0.353,0.126-0.528,0.277-0.528c0.185,0,0.277,0.15,0.277,0.453
		s-0.018,0.747-0.051,1.335c-0.034,0.588-0.051,1.033-0.051,1.335c0,1.797,0.027,3.031,0.081,3.703
		c0.014,0.168,0.021,0.311,0.021,0.428c0,0.219-0.093,0.327-0.276,0.327c-0.117,0-0.196-0.071-0.238-0.214s-0.112-0.608-0.213-1.397
		c-0.134-0.991-0.543-1.604-1.229-1.839c-0.301-0.101-1.087-0.151-2.356-0.151h-1.129v8.438c3.694,0,5.86-0.075,6.499-0.225
		c1.108-0.248,1.738-1.31,1.889-3.185c0.034-0.414,0.143-0.621,0.328-0.621C279.454,174.716,279.539,174.891,279.539,175.244z"/>
	<path d="M295.004,178.544c0,0.705-0.588,1.059-1.764,1.059c-1.31,0-2.334-0.546-3.072-1.638c-0.319-0.47-0.525-0.923-0.617-1.36
		c-0.093-0.437-0.231-1.545-0.416-3.324c-0.101-1.075-0.445-1.835-1.032-2.28c-0.588-0.444-1.546-0.684-2.872-0.718v7.935
		c0,0.336,0.269,0.546,0.807,0.63c0.15,0.017,0.537,0.033,1.158,0.05c0.218,0,0.327,0.067,0.327,0.202
		c0,0.15-0.143,0.227-0.428,0.227h-0.303c-0.15,0-0.881,0-2.191,0c-0.251,0-0.68,0-1.284,0c-0.588,0-0.974,0-1.158,0h-0.982
		c-0.37,0-0.555-0.076-0.555-0.227c0-0.117,0.243-0.185,0.73-0.202c0.789-0.017,1.218-0.117,1.285-0.302
		c0.066-0.084,0.101-0.411,0.101-0.982v-13.904c0-0.671-0.072-1.074-0.214-1.209c-0.144-0.134-0.576-0.21-1.298-0.227
		c-0.42,0-0.63-0.075-0.63-0.227c0-0.168,0.135-0.252,0.403-0.252c0.051,0,0.126,0.009,0.227,0.025l3.351,0.075
		c0.335,0,0.806-0.011,1.41-0.033c0.672-0.045,1.142-0.067,1.41-0.067c1.562,0,2.801,0.349,3.716,1.045
		c0.915,0.697,1.373,1.642,1.373,2.834c0,1.176-0.471,2.146-1.411,2.909c-0.94,0.765-2.217,1.214-3.828,1.348
		c-0.151,0.017-0.235,0.042-0.252,0.076c0,0.067,0.084,0.101,0.252,0.101c1.763,0.303,2.976,0.922,3.64,1.856
		c0.663,0.935,1.104,2.623,1.322,5.064c0.134,1.381,0.604,2.071,1.41,2.071c0.252,0,0.378-0.051,0.378-0.151
		c0-0.017-0.009-0.033-0.025-0.051c-0.084-0.185-0.126-0.335-0.126-0.453c0-0.353,0.185-0.529,0.555-0.529
		C294.803,177.914,295.004,178.125,295.004,178.544z M289.79,165.925c0-2.401-1.042-3.602-3.124-3.602
		c-0.554,0-0.932,0.075-1.133,0.227c-0.202,0.151-0.303,0.42-0.303,0.806v6.398c1.612,0.017,2.775-0.277,3.489-0.882
		C289.433,168.267,289.79,167.285,289.79,165.925z"/>
</g>
</svg>
