<?xml version="1.0" standalone="no"?>
<!DOCTYPE svg PUBLIC "-//W3C//DTD SVG 20010904//EN"
 "http://www.w3.org/TR/2001/REC-SVG-20010904/DTD/svg10.dtd">
<svg version="1.0" xmlns="http://www.w3.org/2000/svg"
 width="1022.000000pt" height="1200.000000pt" viewBox="0 0 1022.000000 1200.000000"
 preserveAspectRatio="xMidYMid meet">
<metadata>
Created by potrace 1.11, written by Peter Selinger 2001-2013
</metadata>
<g transform="translate(0.000000,1200.000000) scale(0.100000,-0.100000)"
fill="#000000" stroke="none">
<path d="M7861 11593 c-14 -27 -793 -1866 -798 -1885 -5 -17 13 -18 288 -18
l294 0 65 165 65 165 350 -2 350 -3 65 -160 66 -160 302 -3 301 -2 -29 67
c-16 38 -199 470 -407 960 l-378 893 -262 0 c-240 0 -263 -2 -272 -17z m527
-70 c11 -27 185 -437 387 -912 201 -476 368 -868 371 -873 3 -4 -111 -8 -253
-8 l-259 0 -66 163 -66 162 -378 0 -378 0 -65 -162 -65 -163 -248 0 c-136 0
-248 3 -248 7 0 4 174 418 387 920 l387 913 237 0 237 0 20 -47z"/>
<path d="M8007 10728 c-64 -161 -117 -296 -117 -301 0 -4 106 -7 235 -7 139 0
235 4 235 9 0 13 -221 574 -229 584 -4 4 -60 -125 -124 -285z m212 -41 c44
-114 81 -212 81 -217 0 -6 -66 -10 -175 -10 -97 0 -175 4 -175 9 0 23 173 442
180 434 4 -4 44 -101 89 -216z"/>
<path d="M1000 10645 l0 -955 278 2 277 3 3 353 2 352 310 0 310 0 2 -352 3
-353 278 -3 277 -2 0 955 0 955 -280 0 -280 0 0 -350 0 -350 -310 0 -310 0 0
350 0 350 -280 0 -280 0 0 -955z m520 565 l0 -350 350 0 350 0 0 350 0 350
240 0 240 0 0 -915 0 -915 -237 2 -238 3 -3 353 -2 352 -350 0 -350 0 -2 -352
-3 -353 -237 -3 -238 -2 0 915 0 915 240 0 240 0 0 -350z"/>
<path d="M4212 10648 l3 -953 780 0 780 0 3 238 2 237 -505 0 -505 0 0 130 0
130 450 0 450 0 0 225 0 225 -450 0 -450 0 0 120 0 120 495 0 495 0 0 240 0
240 -775 0 -775 0 2 -952z m1508 712 l0 -200 -495 0 -495 0 0 -160 0 -160 450
0 450 0 0 -185 0 -185 -450 0 -450 0 0 -170 0 -170 505 0 505 0 -2 -197 -3
-198 -740 0 -740 0 -3 913 -2 912 735 0 735 0 0 -200z"/>
<path d="M4872 8490 c-276 -39 -523 -190 -675 -414 -195 -288 -221 -660 -65
-971 211 -422 701 -630 1148 -489 262 82 459 251 580 497 76 154 93 230 94
417 1 132 -3 167 -22 240 -114 419 -467 704 -895 724 -56 3 -130 1 -165 -4z
m356 -66 c321 -81 575 -335 663 -664 33 -122 33 -329 1 -450 -81 -304 -305
-545 -599 -646 -507 -173 -1053 120 -1194 641 -32 118 -33 337 -1 454 102 377
407 643 792 691 94 12 231 1 338 -26z"/>
<path d="M4854 8021 c-80 -23 -146 -62 -215 -128 -97 -92 -149 -217 -149 -358
0 -144 51 -265 154 -363 277 -267 730 -144 840 227 9 31 16 90 16 136 0 144
-46 253 -149 356 -132 131 -320 181 -497 130z m238 -32 c119 -25 246 -118 311
-229 77 -132 75 -325 -6 -462 -31 -53 -116 -135 -177 -171 -130 -76 -319 -75
-455 3 -61 35 -154 130 -183 185 -33 67 -52 145 -52 221 0 293 274 513 562
453z"/>
<path d="M960 7534 l0 -956 468 5 c428 4 475 6 560 25 191 43 335 108 461 209
204 163 318 399 328 683 21 543 -324 916 -905 979 -58 6 -280 11 -507 11
l-405 0 0 -956z m907 905 c188 -21 372 -81 498 -164 78 -51 193 -165 240 -239
46 -72 86 -167 111 -266 28 -111 26 -363 -5 -475 -91 -338 -340 -560 -726
-648 -82 -18 -132 -20 -537 -24 l-448 -5 0 916 0 916 385 0 c212 0 429 -5 482
-11z"/>
<path d="M1480 7536 l0 -496 158 0 c231 0 352 33 458 124 189 161 204 531 30
710 -58 59 -110 91 -203 123 -71 24 -95 27 -260 31 l-183 4 0 -496z m433 424
c131 -44 227 -136 267 -256 58 -174 24 -366 -86 -484 -92 -98 -222 -140 -441
-140 l-133 0 0 456 0 457 163 -5 c133 -4 174 -9 230 -28z"/>
<path d="M7240 7535 l0 -955 280 0 280 0 0 285 0 286 98 -3 97 -3 189 -282
189 -283 324 0 c267 0 323 2 316 13 -4 8 -107 157 -227 332 -121 175 -215 320
-210 322 44 15 148 90 200 146 65 69 102 129 136 227 28 78 35 269 14 370 -59
277 -281 450 -628 490 -46 6 -302 10 -570 10 l-488 0 0 -955z m1060 905 c197
-24 334 -84 440 -190 112 -112 160 -239 160 -419 -1 -254 -110 -431 -338 -545
-35 -18 -50 -31 -46 -39 4 -7 101 -148 216 -315 114 -166 208 -305 208 -307 0
-3 -123 -5 -273 -5 l-274 0 -189 285 -189 284 -127 1 -128 0 0 -285 0 -285
-240 0 -240 0 0 915 0 915 468 0 c261 0 505 -5 552 -10z"/>
<path d="M7760 7794 l0 -246 228 5 c247 4 278 10 343 60 62 47 84 96 84 187 0
88 -26 144 -84 184 -65 45 -135 56 -363 56 l-208 0 0 -246z m460 195 c25 -5
62 -21 83 -35 91 -60 104 -215 25 -291 -62 -60 -91 -67 -320 -71 l-208 -4 0
206 0 206 188 0 c103 0 207 -5 232 -11z"/>
<path d="M7625 4812 c-132 -312 -314 -744 -406 -960 l-167 -392 296 2 296 3
65 163 66 162 350 0 350 0 66 -163 65 -162 302 -3 302 -2 -23 52 c-13 29 -196
461 -407 961 l-385 907 -265 0 -265 0 -240 -568z m754 501 c7 -16 182 -426
388 -913 206 -487 377 -888 380 -892 2 -5 -112 -8 -254 -8 l-258 0 -66 163
-66 162 -379 0 -378 0 -65 -162 -65 -163 -248 0 c-136 0 -248 3 -248 8 0 4
174 418 386 920 l387 912 237 0 237 0 12 -27z"/>
<path d="M8010 4509 c-63 -160 -116 -295 -118 -300 -2 -5 92 -9 232 -9 130 0
236 2 236 4 0 6 -221 568 -229 583 -3 7 -58 -118 -121 -278z m209 -51 c45
-114 81 -209 81 -212 0 -3 -79 -6 -176 -6 -164 0 -176 1 -170 18 57 154 173
428 178 419 3 -7 43 -105 87 -219z"/>
<path d="M1000 4420 l0 -950 280 0 280 0 0 355 0 355 310 0 310 0 0 -355 0
-355 280 0 280 0 0 950 0 950 -280 0 -280 0 0 -350 0 -350 -310 0 -310 0 0
350 0 350 -280 0 -280 0 0 -950z m518 568 l2 -348 350 0 350 0 2 348 3 347
238 3 237 2 0 -915 0 -915 -240 0 -240 0 0 355 0 355 -350 0 -350 0 0 -355 0
-355 -240 0 -240 0 0 915 0 915 238 -2 237 -3 3 -347z"/>
<path d="M4210 4420 l0 -950 785 0 785 0 -2 238 -3 237 -502 3 -503 2 0 125 0
125 450 0 450 0 0 225 0 225 -450 0 -450 0 0 120 0 120 495 0 495 0 0 240 0
240 -775 0 -775 0 0 -950z m1510 715 l0 -205 -495 0 -495 0 0 -160 0 -160 450
0 450 0 0 -185 0 -185 -450 0 -450 0 0 -165 0 -165 503 -2 502 -3 3 -197 2
-198 -745 0 -745 0 0 908 c0 500 3 912 7 915 3 4 334 7 735 7 l728 0 0 -205z"/>
<path d="M8017 2270 c-217 -25 -412 -118 -562 -269 l-59 -61 25 -27 c14 -16
74 -82 134 -148 60 -66 114 -126 121 -134 11 -12 20 -8 59 28 116 106 249 164
385 165 180 2 276 -80 255 -221 -6 -40 -15 -56 -55 -94 -66 -65 -177 -100
-362 -115 -48 -4 -92 -12 -98 -19 -7 -8 1 -89 25 -255 19 -133 35 -247 35
-251 0 -5 76 -9 169 -9 l168 0 13 78 c6 42 16 83 20 91 4 8 45 25 91 38 256
73 404 203 465 408 27 92 25 268 -5 365 -53 176 -165 298 -339 370 -126 53
-326 77 -485 60z m298 -51 c148 -24 297 -98 376 -187 103 -117 152 -296 128
-467 -22 -161 -87 -269 -212 -352 -77 -52 -199 -102 -298 -122 -55 -12 -57
-13 -63 -49 -4 -20 -11 -61 -17 -89 l-10 -53 -129 0 -129 0 -6 32 c-11 67 -55
381 -55 397 0 15 17 20 110 30 289 31 424 132 408 302 -7 66 -37 119 -90 155
-141 95 -383 60 -570 -84 l-67 -52 -49 53 c-26 28 -78 84 -115 124 -37 40 -67
77 -67 82 0 17 83 91 165 146 195 130 427 175 690 134z"/>
<path d="M980 1315 l0 -955 280 0 280 0 0 285 0 286 98 -3 97 -3 189 -282 189
-283 324 0 c266 0 323 2 316 13 -4 7 -107 157 -227 332 -121 175 -215 320
-210 322 44 15 148 90 200 146 65 69 102 129 136 227 28 78 35 269 14 370 -38
181 -150 323 -319 404 -182 88 -253 96 -874 96 l-493 0 0 -955z m1192 883
c133 -36 228 -88 308 -168 112 -112 160 -239 160 -419 -1 -251 -110 -430 -333
-542 -38 -20 -55 -34 -50 -42 4 -7 101 -148 215 -315 114 -166 208 -305 208
-307 0 -3 -123 -5 -272 -5 l-273 1 -190 284 -190 284 -127 1 -128 0 0 -285 0
-285 -240 0 -240 0 0 916 0 915 528 -3 527 -4 97 -26z"/>
<path d="M1500 1574 l0 -246 228 4 c261 5 298 14 367 82 90 90 86 251 -9 338
-60 55 -132 68 -372 68 l-214 0 0 -246z m460 195 c25 -5 62 -21 83 -35 91 -60
104 -215 25 -291 -62 -60 -91 -67 -320 -71 l-208 -4 0 206 0 206 188 0 c103 0
207 -5 232 -11z"/>
<path d="M4150 2025 l0 -245 283 -2 282 -3 3 -708 2 -707 275 0 275 0 2 708 3
707 283 3 282 2 0 245 0 245 -845 0 -845 0 0 -245z m1648 -2 l-3 -208 -282 -3
-283 -2 0 -705 0 -705 -237 2 -238 3 -3 702 -2 703 -278 2 -277 3 -3 208 -2
207 805 0 805 0 -2 -207z"/>
<path d="M8037 716 c-50 -18 -85 -51 -108 -101 -61 -132 51 -272 198 -250 53
8 109 53 134 110 21 46 23 66 9 117 -28 99 -139 158 -233 124z m148 -67 c86
-76 55 -207 -57 -241 -33 -10 -46 -9 -86 8 -39 16 -51 28 -71 67 -31 63 -23
107 29 159 35 35 42 38 93 38 49 0 61 -4 92 -31z"/>
</g>
</svg>
