<?xml version="1.0" encoding="utf-8"?>
<!-- Generator: Adobe Illustrator 16.0.0, SVG Export Plug-In . SVG Version: 6.00 Build 0)  -->
<!DOCTYPE svg PUBLIC "-//W3C//DTD SVG 1.1//EN" "http://www.w3.org/Graphics/SVG/1.1/DTD/svg11.dtd">
<svg version="1.1" id="Layer_1" xmlns="http://www.w3.org/2000/svg" xmlns:xlink="http://www.w3.org/1999/xlink" x="0px" y="0px"
	 width="22.967px" height="30.149px" viewBox="0 0 22.967 30.149" enable-background="new 0 0 22.967 30.149" xml:space="preserve">
<g id="tTjnSX_1_">
	<g>
		<g>
			<g>
				<path fill-rule="evenodd" clip-rule="evenodd" fill="#E31E26" d="M22.1,104.271H1.3c-0.479,0-0.866,0.388-0.866,0.866
					c0,0.479,0.388,0.867,0.866,0.867h20.8c0.479,0,0.867-0.388,0.867-0.867C22.967,104.658,22.579,104.271,22.1,104.271z
					 M12.357,108.884c-0.016-0.019-0.021-0.041-0.039-0.059c-0.197-0.198-0.467-0.266-0.724-0.229
					c-0.043,0.005-0.08,0.013-0.121,0.023c-0.107,0.031-0.207,0.083-0.299,0.157c-0.028,0.022-0.066,0.022-0.093,0.049
					c-0.017,0.017-0.021,0.039-0.036,0.056l-4.297,4.306c-0.336,0.336-0.336,0.883,0,1.219s0.881,0.336,1.217,0l2.867-2.874v10.071
					c0,0.479,0.389,0.868,0.867,0.868c0.479,0,0.866-0.389,0.866-0.868v-10.071l2.868,2.874c0.337,0.336,0.882,0.336,1.218,0
					s0.336-0.883,0-1.219L12.357,108.884z"/>
			</g>
		</g>
	</g>
	<g>
		<g>
			<path fill-rule="evenodd" clip-rule="evenodd" fill="#EF3D3C" d="M-31.203,12.133h-20.801c-0.479,0-0.866,0.389-0.866,0.867
				s0.388,0.867,0.866,0.867h20.801c0.479,0,0.866-0.389,0.866-0.867S-30.725,12.133-31.203,12.133z M-42.258,9.256
				c0.015,0.018,0.02,0.039,0.036,0.056c0.026,0.026,0.064,0.027,0.093,0.05c0.092,0.073,0.191,0.126,0.299,0.156
				c0.041,0.012,0.078,0.02,0.12,0.023c0.258,0.036,0.526-0.031,0.725-0.229c0.017-0.017,0.022-0.04,0.038-0.058l3.429-3.437
				c0.336-0.337,0.336-0.882,0-1.219s-0.881-0.337-1.218,0l-2,2.007V0.868c0-0.479-0.389-0.868-0.867-0.868
				s-0.867,0.389-0.867,0.868v5.737l-2-2.007c-0.336-0.337-0.882-0.337-1.218,0s-0.336,0.882,0,1.219L-42.258,9.256z
				 M-40.947,16.746c-0.016-0.018-0.021-0.041-0.038-0.058c-0.198-0.198-0.467-0.266-0.725-0.229
				c-0.042,0.004-0.079,0.012-0.12,0.023c-0.107,0.031-0.207,0.083-0.299,0.156c-0.028,0.022-0.066,0.023-0.093,0.05
				c-0.017,0.017-0.021,0.038-0.036,0.056l-3.431,3.438c-0.336,0.337-0.336,0.882,0,1.219s0.882,0.337,1.218,0l2-2.007v5.737
				c0,0.479,0.389,0.868,0.867,0.868s0.867-0.389,0.867-0.868v-5.737l2,2.007c0.337,0.337,0.882,0.337,1.218,0s0.336-0.882,0-1.219
				L-40.947,16.746z"/>
		</g>
	</g>
	<g>
		<g>
			<path fill-rule="evenodd" clip-rule="evenodd" fill="#EE3633" d="M22.533,22.524H0.867C0.389,22.524,0,22.913,0,23.392
				s0.389,0.867,0.867,0.867h21.666c0.479,0,0.867-0.389,0.867-0.867S23.013,22.524,22.533,22.524z M10.61,19.646
				c0.016,0.018,0.021,0.041,0.038,0.058c0.198,0.198,0.467,0.266,0.725,0.229c0.043-0.004,0.079-0.012,0.121-0.023
				c0.107-0.031,0.207-0.083,0.298-0.156c0.028-0.023,0.067-0.023,0.093-0.05c0.017-0.017,0.021-0.038,0.037-0.056l4.297-4.305
				c0.336-0.337,0.336-0.883,0-1.22s-0.881-0.337-1.217,0l-2.868,2.874V6.926c0-0.479-0.388-0.868-0.866-0.868
				S10.4,6.446,10.4,6.926v10.071l-2.867-2.874c-0.337-0.337-0.882-0.337-1.218,0s-0.336,0.883,0,1.22L10.61,19.646z"/>
		</g>
	</g>
</g>
</svg>
