<?xml version="1.0" encoding="utf-8"?>
<!-- Generator: Adobe Illustrator 16.0.0, SVG Export Plug-In . SVG Version: 6.00 Build 0)  -->
<!DOCTYPE svg PUBLIC "-//W3C//DTD SVG 1.1 Tiny//EN" "http://www.w3.org/Graphics/SVG/1.1/DTD/svg11-tiny.dtd">
<svg version="1.1" baseProfile="tiny" id="Layer_1" xmlns="http://www.w3.org/2000/svg" xmlns:xlink="http://www.w3.org/1999/xlink"
	 x="0px" y="0px" width="109.148px" height="43.791px" viewBox="0 0 109.148 43.791" xml:space="preserve">
<g>
	<path fill="#FFFFFF" d="M9.822,28.73l1.584-2.185c1.08,1.176,2.832,2.232,5.064,2.232c2.304,0,3.192-1.128,3.192-2.208
		c0-3.36-9.312-1.272-9.312-7.153c0-2.664,2.304-4.704,5.833-4.704c2.472,0,4.512,0.816,5.977,2.256l-1.584,2.089
		c-1.272-1.272-2.976-1.849-4.656-1.849c-1.632,0-2.688,0.816-2.688,1.992c0,3,9.312,1.152,9.312,7.104
		c0,2.664-1.896,4.969-6.192,4.969C13.398,31.274,11.262,30.219,9.822,28.73z"/>
	<path fill="#FFFFFF" d="M25.11,30.986v-16.01h7.057c3.36,0,5.208,2.28,5.208,5.017c0,2.713-1.872,4.992-5.208,4.992h-4.249v6.001
		H25.11z M34.494,19.993c0-1.536-1.128-2.544-2.712-2.544h-3.865v5.064h3.865C33.366,22.514,34.494,21.506,34.494,19.993z"/>
	<path fill="#FFFFFF" d="M48.87,30.986l-3.528-5.977h-2.809v5.977h-2.808v-16.01h7.033c3.168,0,5.256,2.041,5.256,5.017
		c0,2.832-1.872,4.393-3.816,4.705l3.937,6.288H48.87z M49.134,19.97c0-1.536-1.152-2.521-2.736-2.521h-3.865v5.088h3.865
		C47.982,22.537,49.134,21.529,49.134,19.97z"/>
	<path fill="#FFFFFF" d="M54.822,30.986v-16.01H65.79v2.473h-8.161v4.128h7.993v2.473h-7.993v4.464h8.161v2.473H54.822z"/>
	<path fill="#FFFFFF" d="M79.903,30.986l-1.176-3.097h-7.346l-1.176,3.097h-3.192l6.288-16.01h3.505l6.288,16.01H79.903z
		 M75.054,17.785l-2.88,7.633h5.76L75.054,17.785z"/>
	<path fill="#FFFFFF" d="M84.821,30.986v-16.01h5.953c5.017,0,8.377,3.312,8.377,7.993c0,4.729-3.36,8.017-8.354,8.017H84.821z
		 M96.27,22.97c0-3.072-1.92-5.521-5.473-5.521h-3.168v11.064h3.145C94.254,28.514,96.27,26.018,96.27,22.97z"/>
</g>
<rect x="0" fill="none" stroke="#FFFFFF" stroke-width="3" stroke-miterlimit="10" width="109.148" height="43.791"/>
</svg>
