<?xml version="1.0" encoding="utf-8"?>
<!-- Generator: Adobe Illustrator 16.0.0, SVG Export Plug-In . SVG Version: 6.00 Build 0)  -->
<!DOCTYPE svg PUBLIC "-//W3C//DTD SVG 1.1 Tiny//EN" "http://www.w3.org/Graphics/SVG/1.1/DTD/svg11-tiny.dtd">
<svg version="1.1" baseProfile="tiny" id="Layer_1" xmlns="http://www.w3.org/2000/svg" xmlns:xlink="http://www.w3.org/1999/xlink"
	 x="0px" y="0px" width="424.794px" height="166.879px" viewBox="0 0 424.794 166.879" xml:space="preserve">
<g>
	<path fill="#FFFFFF" d="M49.832,29.283c0,2.135-1.548,4-4.64,5.6c-0.855,0.428-1.76,0.48-2.72,0.16
		c-1.495-0.425-2.295-0.64-2.4-0.64c-0.64,0-1.28,0.32-1.92,0.96c-5.76,5.76-8.64,12.8-8.64,21.12c0,3.095,0.48,5.975,1.44,8.64
		c0.425,1.175,4.48,9.44,12.16,24.8c5.12,10.24,7.68,18.935,7.68,26.08c0,5.868-1.44,11.52-4.32,16.96
		c-0.96,1.812-3.36,4.16-7.2,7.04c-3.095,2.24-5.868,3.36-8.32,3.36c-0.96,0-1.867-0.16-2.72-0.48c-3.2-1.387-4.8-3.147-4.8-5.28
		c0-1.28,0.8-2.828,2.4-4.64c0.425-0.535,1.44-0.855,3.04-0.96c1.6-0.107,2.665-0.748,3.2-1.92c2.24-4.692,3.36-9.493,3.36-14.4
		c0-6.933-3.44-16.985-10.32-30.16c-6.88-13.172-10.32-23.705-10.32-31.6c0-6.505,1.28-12.32,3.84-17.44
		c2.88-5.865,6.985-10.08,12.32-12.64c2.453-1.172,4.853-1.76,7.2-1.76c4.48,0,7.84,1.228,10.08,3.68
		C49.296,26.938,49.832,28.11,49.832,29.283z"/>
	<path fill="#FFFFFF" d="M121.51,70.723c-4.055,8.748-7.52,14.56-10.4,17.44c-4.48,4.48-6.935,6.935-7.36,7.36
		c-3.095,2.455-6.188,3.948-9.28,4.48c-0.428,2.135-0.64,4.64-0.64,7.52c0,2.027,0.16,5.095,0.48,9.2
		c0.32,4.107,0.48,7.12,0.48,9.04c0,7.252-1.708,12.692-5.12,16.32l-4.48-2.4c-1.815-0.96-2.827-2.135-3.04-3.52
		c-1.068-6.935-1.6-14.665-1.6-23.2c0-5.652,0.32-14.08,0.96-25.28c0.64-11.2,0.96-19.68,0.96-25.44c0-8.32-0.48-15.945-1.44-22.88
		c-0.855,0.32-1.655-0.212-2.4-1.6c-0.748-1.385-1.388-2.185-1.92-2.4c0.533-3.412,1.44-5.12,2.72-5.12
		c1.6-0.533,4.905-0.425,9.92,0.32c13.865,2.24,24.32,8.32,31.36,18.24c2.24,3.2,3.36,6.827,3.36,10.88
		C124.07,63.203,123.215,66.883,121.51,70.723z M111.11,58.403c0.532-4.265-1.28-7.625-5.44-10.08c-0.215,0-4.055-1.545-11.52-4.64
		c1.172,19.627,1.545,33.387,1.12,41.28C104.763,76.003,110.042,67.15,111.11,58.403z"/>
	<path fill="#FFFFFF" d="M213.03,127.203c0.32,0.425,0.48,0.905,0.48,1.44c0,2.453-2.56,4.32-7.68,5.6
		c-5.655-4.375-12.695-11.093-21.12-20.16c-9.387-10.132-16.375-17.172-20.96-21.12c-0.32,2.775-0.908,10.028-1.76,21.76
		c-0.535,8.855-1.495,15.893-2.88,21.12c-0.215,0-0.88,0.265-2,0.8c-1.12,0.532-2.055,0.692-2.8,0.48
		c-4.695-1.067-7.04-4.32-7.04-9.76c0-1.6,0.212-3.732,0.64-6.4c0.425-3.092,0.692-5.012,0.8-5.76
		c0.425-6.185,0.692-13.545,0.8-22.08v-17.44c0-14.505,0.8-26.72,2.4-36.64c1.065-6.612,7.305-9.652,18.72-9.12
		c5.76,0.215,10.772,3.095,15.04,8.64c3.945,5.12,5.92,10.667,5.92,16.64c0,5.015-1.867,10.027-5.6,15.04
		c-3.2,4.48-7.148,8-11.84,10.56c-1.92,1.067-2.88,2.24-2.88,3.52c0,1.387,1.12,3.04,3.36,4.96c1.705,1.387,3.413,2.775,5.12,4.16
		c0.105,0.107,5.973,5.44,17.6,16C204.71,116.058,209.935,121.978,213.03,127.203z M179.27,55.363c0.32-1.92,0.425-3.625,0.32-5.12
		c-0.32-2.24-1.255-4.265-2.8-6.08c-1.547-1.812-4.027-2.72-7.44-2.72c-2.56,0-4.16,0.8-4.8,2.4c-0.535,2.668-0.8,5.708-0.8,9.12
		c0,1.388,0.16,4.96,0.48,10.72c0.212,4.375,0.212,7.947,0,10.72C173.083,67.791,178.095,61.443,179.27,55.363z"/>
	<path fill="#FFFFFF" d="M238.948,45.123c0.212,3.095,0.32,6.295,0.32,9.6c0,7.255-0.748,18.188-2.24,32.8
		c-1.495,14.615-2.24,25.655-2.24,33.12c0,2.775,0.052,5.493,0.16,8.16c-0.96,2.985-3.04,4.425-6.24,4.32
		c-4.587-0.215-7.095-2.188-7.52-5.92c-0.427-3.732-0.64-7.68-0.64-11.84c0-7.252,0.88-18.08,2.64-32.48
		c1.76-14.4,2.64-25.172,2.64-32.32c0-2.772-0.107-5.493-0.32-8.16c1.065-2.025,2.88-3.04,5.44-3.04c2.025,0,4.052,0.588,6.08,1.76
		c0.425-0.32,0.745-0.48,0.96-0.48c0.32,0,0.48,0.535,0.48,1.6c-0.108,1.28-0.108,2.027,0,2.24
		C238.573,44.803,238.733,45.018,238.948,45.123z"/>
	<path fill="#FFFFFF" d="M331.748,29.123c-1.494,14.295-2.936,28.64-4.32,43.04c-1.814,17.067-2.719,31.308-2.719,42.72
		c0,3.735,0.104,7.415,0.318,11.04c0.105,1.705-0.506,3.2-1.84,4.48c-1.334,1.28-2.854,1.92-4.559,1.92
		c-3.309,0-6.08-2.24-8.32-6.72c-6.828-13.333-15.309-34.24-25.44-62.72c-0.215-0.64-0.479-0.96-0.8-0.96
		c-0.748,0-1.228,0.748-1.439,2.24c-1.816,15.255-2.721,31.308-2.721,48.16c0,8.107,0.213,16.372,0.641,24.8
		c0.104,3.092-0.801,5.225-2.721,6.4c-0.748,0.745-1.547,1.12-2.4,1.12c-0.747,0-1.707-0.32-2.879-0.96
		c-1.601-0.748-2.615-1.228-3.041-1.44c-1.387-0.428-2.24-1.708-2.56-3.84c-0.107-1.708-0.215-3.467-0.319-5.28
		c-0.32-5.975-0.48-12.212-0.48-18.72c0-11.305,0.64-25.44,1.92-42.4c2.025-25.812,3.145-40.105,3.359-42.88
		c0.105-2.345,2.08-3.52,5.92-3.52c1.812-0.212,4.48,1.12,8,4c3.413,6.507,7.625,17.067,12.641,31.68
		c4.801,13.975,9.172,24.587,13.119,31.84c1.602-14.185,4.105-35.625,7.521-64.32c0.318-2.133,1.865-3.2,4.639-3.2
		c0.961,0,2.08,0.16,3.361,0.48c1.705,0.428,2.719,0.695,3.039,0.8C330.732,27.311,331.427,28.058,331.748,29.123z"/>
	<path fill="#FFFFFF" d="M413.828,86.083c-2.881,7.147-4.748,15.947-5.602,26.4c-0.535,9.067-1.014,18.133-1.439,27.2
		c-0.215,2.665-1.975,4-5.279,4c-0.961,0-1.867-0.16-2.721-0.48c-4.588-1.92-6.879-5.495-6.879-10.72c0-1.495,0.211-3.76,0.639-6.8
		c0.426-3.04,0.641-5.252,0.641-6.64c0.424-3.092,0.959-7.732,1.6-13.92c-7.359,6.935-15.68,12.107-24.959,15.52
		c-1.281,0.427-2.561,0.64-3.842,0.64c-4.906,0-9.439-2.772-13.6-8.32c-2.344-3.092-3.52-6.933-3.52-11.52
		c0-4.052,0.908-8.8,2.721-14.24c5.652-17.28,14.664-34.185,27.039-50.72c6.186-8.212,11.68-12.32,16.48-12.32
		c4.266,0,6.664,1.6,7.199,4.8c0.426,2.667-0.479,4.587-2.719,5.76c-3.736,2.027-5.709,3.147-5.92,3.36
		c-8.961,9.92-17.176,22.72-24.641,38.4c-4.588,9.708-6.881,18.4-6.881,26.08c0,1.388,0.053,2.775,0.16,4.16
		c0.213,0.107,0.533,0.615,0.961,1.52c0.424,0.907,1.012,1.2,1.76,0.88c7.039-2.772,17.652-10.08,31.84-21.92
		c1.064-0.853,2.293-3.305,3.68-7.36c1.064-2.985,2.986-4.48,5.76-4.48c-0.854,0,0-0.105,2.561-0.32c1.279-0.212,2.133,0,2.561,0.64
		c2.025,2.987,3.039,5.44,3.039,7.36C414.466,84.003,414.251,85.018,413.828,86.083z"/>
</g>
<g>
</g>
<g>
</g>
<g>
</g>
<g>
</g>
<g>
</g>
<g>
</g>
</svg>
