<?xml version="1.0" encoding="utf-8"?>
<!-- Generator: Adobe Illustrator 16.0.0, SVG Export Plug-In . SVG Version: 6.00 Build 0)  -->
<svg version="1.2" baseProfile="tiny" id="Layer_1" xmlns="http://www.w3.org/2000/svg" xmlns:xlink="http://www.w3.org/1999/xlink"
	 x="0px" y="0px" width="388.22px" height="219.38px" viewBox="0 0 388.22 219.38" xml:space="preserve">
<g>
	<path fill="none" stroke="#000000" stroke-width="2" d="M126.31,6.68v0.38c0,3.4-2.08,6.3-5.1,7.51h-0.11V6.68H126.31z
		 M127.73,6.68h5.21v0.38c0,3.4-2.08,6.3-5.1,7.51h-0.11V6.68z"/>
	<path fill="none" stroke="#000000" stroke-width="2" d="M133.56,42.64c-2.74,0.06-2.43,0.06-5.67,0.06h-0.11l14.03-34.31
		l13.71,33.6h-5.7l-2.69-6.8h-10.69L133.56,42.64z M145.11,29.98l-3.29-8.5l-3.34,8.5H145.11z"/>
	<path fill="none" stroke="#000000" stroke-width="2" d="M177.01,8.44c3.76-0.05,1.86,0.13,5.1,0h0.05v34.59l-18.69-20.77v19.73
		h-5.21V8.6l18.69,20.77L177.01,8.44z"/>
	<path fill="none" stroke="#000000" stroke-width="2" d="M194.11,34.47V25.7c-0.49-5.15-4.11-9.43-8.88-11.02V9.26
		c1.04,0.22,2.08,0.55,3.07,0.99c2.19,0.93,4.11,2.19,5.81,3.89c1.04,1.04,1.92,2.19,2.69,3.45c0.77-1.26,1.7-2.41,2.74-3.45
		c1.7-1.7,3.56-2.96,5.75-3.89c0.93-0.38,1.97-0.77,2.96-0.99v5.43c-4.88,1.64-8.5,6.14-8.88,11.46V42.7h-0.11
		c-3.35-0.06-2.97,0-5.1,0L194.11,34.47z"/>
	<path fill="none" stroke="#000000" stroke-width="2" d="M233.47,34.42v-19.9h-7.4V9.31h20.01v5.21h-7.4v28.12h-0.05
		c-3.5,0-2.89,0-5.1,0L233.47,34.42z"/>
	<path fill="none" stroke="#000000" stroke-width="2" d="M257.31,34.47V25.7c-0.49-5.15-4.11-9.43-8.88-11.02V9.26
		c1.04,0.22,2.08,0.55,3.07,0.99c2.19,0.93,4.11,2.19,5.81,3.89c1.04,1.04,1.92,2.19,2.69,3.45c0.77-1.26,1.7-2.41,2.74-3.45
		c1.7-1.7,3.56-2.96,5.76-3.89c0.93-0.38,1.96-0.88,2.96-0.99c2.06-0.22,8.28,0.03,8.28,0.03l-0.23,5.23l-8.06,0.16
		c-4.88,1.64-8.5,6.14-8.88,11.46V42.7h-0.11c-3.21,0-2.52,0-5.1,0L257.31,34.47z"/>
	<path fill="none" stroke="#000000" stroke-width="2" d="M274.3,34.42V9.26l8.77,0.05c2.74,0,5.32,1.04,7.23,2.96
		c1.92,1.92,3.01,4.55,3.01,7.29c0,2.74-1.09,5.32-3.01,7.24c-1.92,1.92-4.49,3.01-7.23,3.01c-1.26,0-2.41-0.22-3.57-0.66v13.48
		c0,0-2.97,0-5.21,0V34.42z M288.12,19.56c0-2.8-2.25-5.04-5.04-5.04h-3.57v8.61c0.93,0.93,2.19,1.48,3.57,1.48
		C285.87,24.61,288.12,22.36,288.12,19.56z"/>
	<path fill="none" stroke="#000000" stroke-width="2" d="M312.29,9.31v5.21h-10.14v6.8h7.78v5.21h-7.78v10.25l11.35-0.05
		c0,2.25,0,2.25,0,5.15v0.05l-16.55,0.05V9.31H312.29z"/>
	<path fill="none" stroke="#000000" stroke-width="2" d="M341.12,40.89c-1.97-0.82-3.73-2.03-5.26-3.56
		c-1.54-1.54-2.69-3.29-3.51-5.26c-0.88-2.03-1.32-4.22-1.32-6.47c0-2.25,0.44-4.38,1.32-6.41c0.82-1.97,1.97-3.73,3.51-5.26
		c1.53-1.53,3.29-2.74,5.26-3.56c2.03-0.88,4.22-1.32,6.47-1.32c2.25,0,4.38,0.44,6.41,1.32c1.97,0.82,3.78,2.03,5.32,3.56
		c1.53,1.53,2.69,3.29,3.51,5.26c0.88,2.03,1.32,4.17,1.32,6.41c0,2.25-0.44,4.44-1.32,6.47c-0.82,1.97-1.97,3.73-3.51,5.26
		c-1.54,1.53-3.35,2.74-5.32,3.56c-2.03,0.88-4.17,1.32-6.41,1.32C345.34,42.2,343.15,41.76,341.12,40.89z M336.24,25.59
		c0,6.25,5.1,11.4,11.35,11.4s11.35-5.15,11.35-11.4c0-6.25-5.1-11.35-11.35-11.35S336.24,19.35,336.24,25.59z"/>
	<path fill="none" stroke="#000000" stroke-width="2" d="M382.73,9.31v5.21h-9.59l-0.05,6.8h6.96v5.21h-6.96v16.06h-0.05
		c-3.3,0-3.3,0-5.15,0c-0.16,0,0.06-8,0.06-8.17h-0.06V9.31H382.73z"/>
	<path fill="none" stroke="#000000" stroke-width="2" d="M141.27,61.02c0-4.82,3.95-8.82,8.77-8.82h18.38c0,0-0.11,2.36-0.11,5.21
		h-18.27c-1.97,0-3.56,1.64-3.56,3.62c0,1.7,1.15,3.07,2.74,3.45c0,0,0.27,0.05,0.82,0.11c2.19,0.28,4.71,1.32,6.3,2.91
		c1.92,1.92,2.96,4.49,2.96,7.23c0,2.74-1.04,5.32-2.96,7.24c-1.92,1.92-4.49,3.02-7.23,3.02h-0.17h-7.78
		c0-2.73,0.05-1.64,0.05-5.15l7.73-0.06h0.17c2.74,0,4.99-2.3,4.99-5.04c0-2.36-2.03-4.38-4.28-4.88c0,0-0.22,0-0.55-0.05
		s-0.55-0.05-0.71-0.11C144.39,68.97,141.27,65.35,141.27,61.02z"/>
	<path fill="none" stroke="#000000" stroke-width="2" d="M168.73,77.36v-19.9h-7.4v-5.21h20.01v5.21h-7.4v28.12h-0.05
		c-3.26,0-3.26,0-5.1,0L168.73,77.36z"/>
	<path fill="none" stroke="#000000" stroke-width="2" d="M192.57,77.41v-8.77c-0.49-5.15-4.11-9.43-8.88-11.02V52.2
		c1.04,0.22,2.08,0.55,3.07,0.99c2.19,0.93,4.11,2.19,5.81,3.89c1.04,1.04,1.92,2.19,2.69,3.45c0.77-1.26,1.7-2.41,2.74-3.45
		c1.7-1.7,3.56-2.96,5.76-3.89c0.93-0.38,1.97-0.77,2.96-0.99v5.43c-4.88,1.64-8.5,6.14-8.88,11.46v16.55h-0.11
		c-3.18,0-2.96,0-5.1,0L192.57,77.41z"/>
	<path fill="none" stroke="#000000" stroke-width="2" d="M209.84,51.32c2.52,0,1.84,0,5.1,0l0.11,28.39h19.5v5.21h-24.7V51.32z"/>
	<path fill="none" stroke="#000000" stroke-width="2" d="M244.76,52.25v5.21h-10.14v6.8h7.79v5.21h-7.79v10.25l11.35-0.05
		c0,3.27,0,1.96,0,5.15v0.05l-16.55,0.05V52.25H244.76z"/>
	<path fill="none" stroke="#000000" stroke-width="2" d="M270.03,51.32h0.11v33.55h-5.21V51.32C267.88,51.32,267,51.32,270.03,51.32
		z"/>
	<path fill="none" stroke="#000000" stroke-width="2" d="M312.4,52.25v32.67h-5.21V69.46h-11.62v16.06h-0.11c-3.46,0-1.82,0-5.1,0
		v-8.17h-0.06V52.2l5.26,0.05v12h11.62v-12H312.4z"/>
	<path fill="none" stroke="#000000" stroke-width="2" d="M320.96,85.52c-2.34,0-2.59,0.16-5.82,0.16h-0.05l14.03-34.26l13.71,33.44
		h-5.65l-2.68-6.85H323.8L320.96,85.52z M332.46,72.81l-3.29-8.28l-3.34,8.28H332.46z"/>
	<path fill="none" stroke="#000000" stroke-width="2" d="M350.77,85.85L338.87,52.2h5.54l6.36,18.03l6.85-18.97
		c3.03-0.14,2.25,0.11,5.48,0h0.11l-1.43,3.95L350.77,85.85z"/>
	<path fill="none" stroke="#000000" stroke-width="2" d="M382.01,52.25v5.21h-10.14v6.8h7.78v5.21h-7.78v10.25l11.35-0.05
		c0,2.76-0.22,1.73,0,5.15v0.05l-16.55,0.05V52.25H382.01z"/>
	<path fill="none" stroke="#000000" stroke-width="2" d="M214.45,95.19v32.67h-5.21V112.4h-11.62v16.06h-0.11c-3.25,0-2.51,0-5.1,0
		v-8.17h-0.05V95.14l5.26,0.05v12h11.62v-12H214.45z"/>
	<path fill="none" stroke="#000000" stroke-width="2" d="M223.15,128.46c-2.34,0.06-2.73,0.16-5.96,0.16h-0.05l14.03-34.26
		l13.7,33.44h-5.65l-2.69-6.85h-10.69L223.15,128.46z M234.51,115.75l-3.29-8.28l-3.34,8.28H234.51z"/>
	<path fill="none" stroke="#000000" stroke-width="2" d="M246.57,120.3V95.14l8.77,0.05c2.74,0,5.32,1.04,7.23,2.96
		c1.92,1.92,3.01,4.55,3.01,7.29c0,2.74-1.09,5.32-3.01,7.24c-1.92,1.92-4.5,3.01-7.23,3.01c-1.26,0-2.41-0.22-3.56-0.66
		l-0.11,13.43c-3.33,0-3.05,0-5.1,0V120.3z M260.38,105.44c0-2.79-2.25-5.04-5.04-5.04h-3.56V109c0.93,0.93,2.19,1.48,3.56,1.48
		C258.13,110.49,260.38,108.24,260.38,105.44z"/>
	<path fill="none" stroke="#000000" stroke-width="2" d="M268.99,120.3V95.14l8.77,0.05c2.74,0,5.32,1.04,7.23,2.96
		c1.92,1.92,3.01,4.55,3.01,7.29c0,2.74-1.09,5.32-3.01,7.24c-1.92,1.92-4.49,3.01-7.23,3.01c-1.26,0-2.41-0.22-3.56-0.66
		l-0.11,13.43c-3.34,0-3.34,0.06-5.1,0.06V120.3z M282.8,105.44c0-2.79-2.25-5.04-5.04-5.04h-3.56V109
		c0.93,0.93,2.19,1.48,3.56,1.48C280.55,110.49,282.8,108.24,282.8,105.44z"/>
	<path fill="none" stroke="#000000" stroke-width="2" d="M306.97,95.19v5.21h-10.14v6.8h7.78v5.21h-7.78v10.25l19.57-0.05
		c0,2.01,0,2.01,0,5.15v0.05l-24.78,0.06V95.19H306.97z"/>
	<path fill="none" stroke="#000000" stroke-width="2" d="M330,94.23c2.43-0.18,1.99,0.08,5.1,0.08h0.05v34.59l-18.69-20.77v19.73
		h-5.21V94.48l18.69,20.77L330,94.23z"/>
	<path fill="none" stroke="#000000" stroke-width="2" d="M364.89,95.19v5.21h-19.28v6.8h7.78v5.21h-7.78v10.25l11.35-0.05
		c0,1.96,0,1.62,0,5.15v0.05l-16.55,0.06V95.19H364.89z"/>
	<path fill="none" stroke="#000000" stroke-width="2" d="M359.92,95.96l0.05-0.06c2.03-0.88,4.33-1.21,6.58-1.21
		c2.25,0,4.44,0.22,6.47,1.1c1.97,0.82,3.73,1.97,5.26,3.51c1.53,1.54,2.74,3.29,3.56,5.26c0.88,2.03,1.26,4.33,1.26,6.58
		c0,2.25-0.38,4.55-1.26,6.58c-0.82,1.97-2.03,3.73-3.56,5.26c-1.54,1.53-3.29,2.74-5.26,3.56c-1.87,0.82-3.89,1.21-5.92,1.26h-7.18
		V95.96z M366.55,122.6c6.25,0,11.35-5.21,11.35-11.46c0-6.25-5.1-11.51-11.35-11.51c-0.44,0-0.88,0.05-1.31,0.11v22.86h1.04H366.55
		z"/>
	<path fill="none" stroke="#000000" stroke-width="2" d="M213.9,146.9c0-4.82,3.95-8.83,8.77-8.83l28.38,0.11
		c0,3.16-0.03,1.89-0.03,5.05l-28.35,0.05c-1.97,0-3.56,1.64-3.56,3.62c0,1.7,1.15,3.07,2.74,3.45c0,0,0.27,0.05,0.82,0.11
		c2.19,0.27,4.71,1.32,6.3,2.91c1.92,1.92,2.96,4.49,2.96,7.24c0,2.74-1.04,5.32-2.96,7.24c-1.92,1.92-4.49,3.01-7.23,3.01h-0.16
		h-7.79c0-2.16,0.05-2.16,0.05-5.15l7.73-0.05h0.16c2.74,0,4.99-2.3,4.99-5.04c0-2.36-2.03-4.38-4.27-4.88c0,0-0.22,0-0.55-0.05
		c-0.33-0.05-0.55-0.05-0.71-0.11C217.02,154.85,213.9,151.23,213.9,146.9z"/>
	<path fill="none" stroke="#000000" stroke-width="2" d="M244.26,169.7c-1.97-0.82-3.73-2.03-5.26-3.56
		c-1.54-1.53-2.69-3.29-3.51-5.26c-0.88-2.03-1.31-4.22-1.31-6.47c0-2.25,0.44-4.38,1.31-6.41c0.82-1.97,1.97-3.73,3.51-5.26
		c1.53-1.53,3.29-2.74,5.26-3.56c2.03-0.88,4.22-1.32,6.47-1.32c2.25,0,4.38,0.44,6.41,1.32c1.97,0.82,3.78,2.03,5.32,3.56
		c1.53,1.53,2.69,3.29,3.51,5.26c0.88,2.03,1.32,4.17,1.32,6.41c0,2.25-0.44,4.44-1.32,6.47c-0.82,1.97-1.97,3.73-3.51,5.26
		c-1.54,1.53-3.34,2.74-5.32,3.56c-2.03,0.88-4.17,1.32-6.41,1.32C248.49,171.02,246.29,170.58,244.26,169.7z M239.39,154.41
		c0,6.25,5.1,11.4,11.35,11.4s11.35-5.15,11.35-11.4c0-6.25-5.1-11.35-11.35-11.35S239.39,148.16,239.39,154.41z"/>
	<path fill="none" stroke="#000000" stroke-width="2" d="M270.74,163.23l0.06-25.16l8.82,0.05c2.74,0,5.32,1.04,7.24,2.96
		c1.92,1.92,3.01,4.55,3.01,7.29s-1.1,5.26-3.01,7.18c-1.54,1.53-3.51,2.52-5.59,2.85l9.98,12.39h-6.74l-8.55-10.63l-0.06,11.24
		c-3.46,0-2.22,0.05-5.1,0.05L270.74,163.23z M276,143.34v8.55c0.93,0.93,2.19,1.54,3.62,1.54c2.79,0,5.04-2.25,5.04-5.04
		s-2.25-5.04-5.04-5.04H276z"/>
	<path fill="none" stroke="#000000" stroke-width="2" d="M300.23,163.23v-19.9h-24.76v-5.21h37.36v5.21h-7.4v28.12h-0.05
		c-3.24-0.29-2.55,0-5.1,0L300.23,163.23z"/>
	<path fill="none" stroke="#000000" stroke-width="2" d="M341.12,169.7c-1.97-0.82-3.73-2.03-5.26-3.56
		c-1.54-1.53-2.69-3.29-3.51-5.26c-0.88-2.03-1.31-4.22-1.31-6.47c0-2.25,0.44-4.38,1.31-6.41c0.82-1.97,1.97-3.73,3.51-5.26
		c1.53-1.53,3.29-2.74,5.26-3.56c2.03-0.88,4.22-1.32,6.47-1.32c2.25,0,4.38,0.44,6.41,1.32c1.97,0.82,3.78,2.03,5.32,3.56
		c1.54,1.53,2.69,3.29,3.51,5.26c0.88,2.03,1.32,4.17,1.32,6.41c0,2.25-0.44,4.44-1.32,6.47c-0.82,1.97-1.97,3.73-3.51,5.26
		s-3.34,2.74-5.32,3.56c-2.03,0.88-4.17,1.32-6.41,1.32C345.34,171.02,343.15,170.58,341.12,169.7z M336.24,154.41
		c0,6.25,5.1,11.4,11.35,11.4c6.25,0,11.35-5.15,11.35-11.4c0-6.25-5.1-11.35-11.35-11.35
		C341.34,143.06,336.24,148.16,336.24,154.41z"/>
	<path fill="none" stroke="#000000" stroke-width="2" d="M382.73,138.13v5.21h-9.59l-0.05,6.8h6.96v5.21h-6.96v16.06h-0.05
		c-3.18,0-3.07,0-5.15,0c-0.16,0,0.06-8,0.06-8.17h-0.06v-25.1H382.73z"/>
	<path fill="none" stroke="#000000" stroke-width="2" d="M113.81,212.64c-1.97-0.82-3.73-2.03-5.26-3.56s-2.69-3.29-3.51-5.26
		c-0.88-2.03-1.32-4.22-1.32-6.47c0-2.25,0.44-4.38,1.32-6.41c0.82-1.97,1.97-3.73,3.51-5.26c1.54-1.54,3.29-2.74,5.26-3.56
		c2.03-0.88,4.22-1.32,6.47-1.32c2.25,0,4.38,0.44,6.41,1.32c1.97,0.82,3.78,2.03,5.32,3.56c1.54,1.53,2.69,3.29,3.51,5.26
		c0.88,2.03,1.31,4.17,1.31,6.41c0,2.25-0.44,4.44-1.31,6.47c-0.82,1.97-1.97,3.73-3.51,5.26c-1.53,1.54-3.34,2.74-5.32,3.56
		c-2.03,0.88-4.17,1.32-6.41,1.32C118.03,213.96,115.84,213.52,113.81,212.64z M108.93,197.35c0,6.25,5.1,11.4,11.35,11.4
		c6.25,0,11.35-5.15,11.35-11.4c0-6.25-5.1-11.35-11.35-11.35C114.03,186,108.93,191.1,108.93,197.35z"/>
	<path fill="none" stroke="#000000" stroke-width="2" d="M140.28,206.17l0.05-25.16l8.83,0.05c2.74,0,5.32,1.04,7.23,2.96
		c1.92,1.92,3.02,4.55,3.02,7.29s-1.1,5.26-3.02,7.18c-1.53,1.54-3.51,2.52-5.59,2.85l9.98,12.39h-6.74l-8.55-10.63l-0.05,11.24
		c-3.25,0-2.47,0.05-5.1,0.05L140.28,206.17z M145.54,186.28v8.55c0.93,0.93,2.19,1.54,3.62,1.54c2.79,0,5.04-2.25,5.04-5.04
		s-2.25-5.04-5.04-5.04H145.54z"/>
	<path fill="none" stroke="#000000" stroke-width="2" d="M186.71,196.42c1.92,1.92,3.01,4.55,3.01,7.29c0,2.74-1.09,5.32-3.01,7.23
		c-1.92,1.92-4.49,3.02-7.23,3.02c-0.22,0-0.49-0.05-0.71-0.05c-2.08-0.05-4.11-0.44-6.03-1.26c-1.97-0.82-3.73-2.03-5.26-3.56
		c-1.54-1.54-2.74-3.29-3.56-5.26c-0.88-2.03-1.31-4.22-1.31-6.47c0-2.25,0.44-4.38,1.31-6.41c0.82-1.97,2.03-3.73,3.56-5.26
		c1.53-1.54,3.29-2.74,5.26-3.56c2.03-0.88,4.17-1.32,6.41-1.32c1.7,0,3.4,0.27,4.99,0.77v5.59c-1.48-0.71-3.18-1.15-4.99-1.15
		c-6.25,0-11.35,5.1-11.35,11.35c0,6.25,4.99,11.35,11.24,11.35h0.16h0.16c0.06,0,0.11,0.05,0.17,0.05c2.79,0,4.99-2.25,4.99-5.04
		c0-2.41-1.7-4.44-4-4.93h-0.06l-0.05-0.05c-2.69-0.6-3.9-0.27-5.87-0.27v-4.82h5.87C182.93,193.62,185.01,194.72,186.71,196.42z"/>
	<path fill="none" stroke="#000000" stroke-width="2" d="M196.54,214.5c-2.05,0-2.76,0-6,0h-0.05l14.03-34.26l13.7,33.44h-5.65
		l-2.69-6.85h-10.69L196.54,214.5z M207.87,201.62l-3.29-8.28l-3.35,8.28H207.87z"/>
	<path fill="none" stroke="#000000" stroke-width="2" d="M239.71,180.19c2.85,0,2.27,0.38,5.1,0h0.05v34.59L226.18,194v19.73h-5.21
		v-33.38l18.69,20.77L239.71,180.19z"/>
	<path fill="none" stroke="#000000" stroke-width="2" d="M254.95,180.08h0.11v33.66h-5.21v-33.66
		C253.18,180.08,251.87,180.08,254.95,180.08z"/>
	<path fill="none" stroke="#000000" stroke-width="2" d="M287.62,214.1c-1.86,0.19-10.68-0.08-12.38-0.08
		c-2.25,0-4.38-0.38-6.41-1.26c-1.97-0.82-3.73-2.03-5.26-3.56c-1.54-1.53-2.74-3.29-3.56-5.26c-0.88-2.03-1.31-4.38-1.31-6.63
		s0.44-4.55,1.31-6.58c0.82-1.97,2.03-3.73,3.56-5.26c1.54-1.53,3.29-2.74,5.26-3.56c2.03-0.88,4.16-1.31,6.41-1.31
		c1.7,0,3.4,0.27,4.99,0.77v5.59c-1.48-0.71-3.18-1.15-4.99-1.15c-6.25,0-11.35,5.26-11.35,11.51c0,6.25,5.1,11.51,11.35,11.51
		c1.81,0,10.16,0.14,12.48-0.08L287.62,214.1z"/>
	<path fill="none" stroke="#000000" stroke-width="2" d="M288.42,214.5c-2.74,0-2.44,0-5.67,0h-0.05l14.03-34.26l13.71,33.44h-5.65
		l-2.69-6.85H291.4L288.42,214.5z M300.06,201.62l-3.29-8.28l-3.35,8.28H300.06z"/>
	<path fill="none" stroke="#000000" stroke-width="2" d="M313.22,180.08c3.37,0,1.98,0.23,5.1,0.05l0.11,28.39h18.58v5.21h-23.79
		V180.08z"/>
	<path fill="none" stroke="#000000" stroke-width="2" d="M332.02,180.08c3.67,0,1.85,0.16,5.1,0.05l0.11,28.39h21.32v5.21h-26.53
		V180.08z"/>
	<path fill="none" stroke="#000000" stroke-width="2" d="M353.34,206.23v-8.77c-0.49-5.15-4.11-9.43-8.88-11.02v-5.43
		c1.04,0.22,2.08,0.55,3.07,0.99c2.19,0.93,4.11,2.19,5.81,3.89c1.04,1.04,1.92,2.19,2.69,3.45c0.77-1.26,1.7-2.41,2.74-3.45
		c1.7-1.7,3.56-2.96,5.76-3.89c0.93-0.38,1.97-0.77,2.96-0.99v5.43c-4.88,1.64-8.5,6.14-8.88,11.46v16.55h-0.11
		c-3.27,0-2.02,0.05-5.1,0.05L353.34,206.23z"/>
	<path fill="none" stroke="#000000" stroke-width="2" d="M375.49,178.44v0.38c0,3.4-2.08,6.3-5.1,7.51h-0.11v-7.89H375.49z
		 M376.92,178.44h5.21v0.38c0,3.4-2.08,6.3-5.1,7.51h-0.11V178.44z"/>
</g>
<g>
</g>
<g>
</g>
<g>
</g>
<g>
</g>
<g>
</g>
<g>
</g>
</svg>
