<?xml version="1.0" encoding="utf-8"?>
<!-- Generator: Adobe Illustrator 16.0.0, SVG Export Plug-In . SVG Version: 6.00 Build 0)  -->
<svg version="1.2" baseProfile="tiny" id="Layer_1" xmlns="http://www.w3.org/2000/svg" xmlns:xlink="http://www.w3.org/1999/xlink"
	 x="0px" y="0px" width="297.07px" height="144.7px" viewBox="0 0 297.07 144.7" xml:space="preserve">
<g>
	<path fill="none" stroke="#000000" stroke-width="3" d="M1.82,21.63c0-9.06,7.73-16.48,16.79-16.48h15.24v0.1
		c-0.48,5.71-0.1,2.69-0.1,9.68H18.61c-3.71,0-7,2.99-7,6.7c0,3.19,2.47,5.87,5.46,6.59c0,0,0.52,0.1,1.54,0.21
		c4.12,0.51,8.45,2.47,11.43,5.46c3.6,3.6,5.56,8.45,5.56,13.6c0,5.15-1.96,9.99-5.56,13.59c-3.6,3.61-8.45,5.67-13.6,5.67
		c-0.1,0-0.21-0.1-0.31-0.1h-0.41c-6.48,0.62-7.31,0.62-14.11,0.1l-0.1-9.89h14.63h0.31c5.15,0,9.37-4.22,9.37-9.37
		c0-4.43-3.5-8.24-7.73-9.17c0,0-0.41-0.1-1.03-0.21c-0.62-0.1-0.93-0.1-1.24-0.21C8,36.56,1.82,29.76,1.82,21.63z"/>
	<path fill="none" stroke="#000000" stroke-width="3" d="M54.44,52.53V15.03h-13.9V5.25h37.59v9.79h-13.9l-0.1,53.56
		c-6.59,0.1-4.79,0-9.58,0L54.44,52.53z"/>
	<path fill="none" stroke="#000000" stroke-width="3" d="M101.47,52.63V36.15c-0.93-9.68-7.72-17.72-16.69-20.7V5.25
		c1.96,0.41,3.81,1.03,5.67,1.85c4.12,1.75,7.72,4.12,10.92,7.31c1.96,1.96,3.71,4.12,5.15,6.49c1.44-2.37,3.09-4.53,5.05-6.49
		c3.19-3.19,6.8-5.56,10.92-7.31c1.75-0.72,4.71-1.44,6.56-1.85v10.2c-9.17,3.09-17.07,11.54-17.79,21.53v31.1h-0.21
		c-6.3,0-5.61,0-9.58,0V52.63z"/>
	<path fill="none" stroke="#000000" stroke-width="3" d="M135.93,3.6c7.2,0,9.78-0.1,9.78-0.1v53.46h40.36v9.78h-50.15V3.6z"/>
	<path fill="none" stroke="#000000" stroke-width="3" d="M185.89,3.6h0.21v63.03h-9.78V3.6C181.2,3.6,180.07,3.6,185.89,3.6z"/>
	<path fill="none" stroke="#000000" stroke-width="3" d="M228.71,3.4c5.86,0,3.8,0,9.68,0v65.2l-35.12-39.04v37.08h-9.78V3.91
		l35.12,39.04L228.71,3.4z"/>
	<path fill="none" stroke="#000000" stroke-width="3" d="M289.91,34.29c3.6,3.6,5.66,8.55,5.66,13.7c0,5.15-2.06,9.99-5.66,13.6
		c-3.6,3.6-8.45,5.67-13.6,5.67c-0.41,0-0.82-0.1-1.24-0.1c-3.91-0.1-7.83-0.82-11.43-2.37c-3.71-1.54-7-3.81-9.89-6.69
		c-2.88-2.88-5.15-6.18-6.69-9.89c-1.65-3.81-2.47-7.93-2.47-12.15c0-4.22,0.82-8.24,2.47-12.05c1.54-3.71,3.81-7,6.69-9.89
		c2.88-2.88,6.18-5.15,9.89-6.7c3.81-1.65,8.24-2.47,12.46-2.47c3.19,0,6.59,0.51,9.58,1.44v10.5c-2.78-1.34-6.18-2.16-9.58-2.16
		c-11.74,0-21.73,9.58-21.73,21.32c0,11.74,9.48,21.32,21.22,21.32h0.31l0.21,0.1h0.31c5.25,0,9.37-4.22,9.37-9.48
		c0-4.53-3.19-8.34-7.52-9.27h-0.1L267,38.62c0-2.63,0.04-9.58,0.04-9.58h11.02C282.8,29.04,286.71,31.1,289.91,34.29z"/>
	<path fill="none" stroke="#000000" stroke-width="3" d="M11.66,80.16l0.21-2v65.03H2.08V80.16C9.13,80.16,5.67,80.16,11.66,80.16z"
		/>
	<path fill="none" stroke="#000000" stroke-width="3" d="M38.03,127.08V89.59H2.12v-9.79h59.59v9.79h-13.9l-0.1,52.94
		c-6.58,0-4.79,0.1-9.58,0.1L38.03,127.08z"/>
	<path fill="none" stroke="#000000" stroke-width="3" d="M100.55,139.34c-3.71-1.54-7-3.91-9.89-6.8c-2.88-2.88-5.05-6.28-6.59-9.99
		c-1.65-3.81-2.47-8.03-2.47-12.26s0.82-8.34,2.47-12.15c1.54-3.71,3.71-7.11,6.59-9.99c2.88-2.88,6.18-5.25,9.89-6.8
		c3.81-1.65,7.93-2.47,12.15-2.47s8.34,0.82,12.15,2.47c3.71,1.54,7,3.91,9.89,6.8c2.88,2.88,5.05,6.28,6.59,9.99
		c1.65,3.81,2.47,7.93,2.47,12.15s-0.82,8.45-2.47,12.26c-1.54,3.71-3.71,7.11-6.59,9.99c-2.88,2.88-6.18,5.25-9.89,6.8
		c-3.81,1.65-7.93,2.47-12.15,2.47S104.36,140.99,100.55,139.34z M91.39,110.3c0,11.74,9.58,21.63,21.32,21.63
		s21.32-9.89,21.32-21.63c0-11.74-9.58-21.53-21.32-21.53S91.39,98.55,91.39,110.3z"/>
	<path fill="none" stroke="#000000" stroke-width="3" d="M196.84,118.54c0,6.18-2.37,12.05-6.8,16.48s-10.2,6.9-16.38,6.9
		c-6.18,0-12.05-2.47-16.48-6.9c-4.33-4.33-6.69-10.09-6.8-16.17V79.71h9.78v38.62v0.31c0,7.42,6.08,13.49,13.49,13.49
		c7.31,0,13.18-5.87,13.39-13.08V79.81c5.43,0,3.75-0.21,9.58-0.21L196.84,118.54z"/>
	<path fill="none" stroke="#000000" stroke-width="3" d="M221.87,127.08V89.59h-34.9v-9.79h58.59v9.79h-13.9l-0.1,52.94
		c-6.81,0-4.79,0.1-9.58,0.1L221.87,127.08z"/>
</g>
<g>
</g>
<g>
</g>
<g>
</g>
<g>
</g>
<g>
</g>
<g>
</g>
</svg>
