<svg version="1.1" baseProfile="tiny" id="Layer_1" xmlns="http://www.w3.org/2000/svg" xmlns:xlink="http://www.w3.org/1999/xlink"
	 x="0px" y="0px" width="273.083px" height="111.825px" viewBox="0 0 273.083 111.825" xml:space="preserve">

<g>
	<path fill="#FFFFFF" d="M47.441,17.937h-6.778v60.001c0,0.598,0,1.197-0.1,1.795v0.1c0,0.199,0,0.398-0.1,0.598
		c0,0.398-0.1,0.896-0.199,1.295c0,0.199,0,0.398-0.1,0.6c-0.1,0.498-0.199,0.896-0.299,1.295c-0.1,0.199-0.1,0.299-0.199,0.498
		c-0.1,0.598-0.3,1.096-0.599,1.695c-0.1,0.199-0.199,0.398-0.199,0.598c-0.199,0.299-0.398,0.598-0.498,0.996
		c-0.199,0.199-0.299,0.498-0.498,0.697c-0.101,0.299-0.2,0.498-0.399,0.699c-0.199,0.299-0.299,0.598-0.498,0.896
		c-0.199,0.1-0.299,0.299-0.398,0.498c-0.798,0.996-1.694,1.994-2.691,2.891c-0.1,0.1-0.1,0.1-0.199,0.199
		c-0.299,0.299-0.698,0.598-1.097,0.797c0,0.1-0.1,0.1-0.1,0.199c-1.694,1.197-3.488,2.094-5.382,2.791
		c-0.499,0.199-0.997,0.398-1.495,0.498c-0.1,0-0.199,0.1-0.299,0.1c-0.399,0.1-0.897,0.199-1.396,0.299
		c-0.199,0-0.398,0.1-0.698,0.1c-0.299,0-0.697,0.1-0.996,0.1c-0.599,0.102-1.296,0.102-1.894,0.102
		c-10.665,0-19.437-6.08-20.233-12.559c-0.1-0.301-0.1-0.6-0.1-0.998c0-3.688,2.99-6.777,6.777-6.777
		c3.688,0,6.777,3.09,6.777,6.777c0,6.777-3.887,12.559,6.778,12.559c3.389,0,6.179-2.492,6.678-5.781h0.1v-6.777v-6.777V17.937
		h-6.777V16.94h6.777h13.555h6.778V17.937z"/>
	<path fill="#FFFFFF" d="M114.618,50.829c0,18.739-15.25,33.887-33.987,33.887c-18.639,0-33.889-15.148-33.889-33.887
		c0-18.738,15.25-33.888,33.889-33.888C99.368,16.94,114.618,32.09,114.618,50.829z M101.062,38.27
		c0-11.163-9.169-20.333-20.432-20.333c-11.163,0-20.333,9.17-20.333,20.333v25.117c0,11.263,9.17,20.333,20.333,20.333
		c11.263,0,20.432-9.07,20.432-20.333V38.27z"/>
	<path fill="#FFFFFF" d="M164.947,17.937h-9.668v66.779h-1.096h-2.691l-30.101-50.034V83.72h9.668v0.996h-9.668h-0.996h-9.668V83.72
		h9.668V17.937h-9.668V16.94h9.668h0.996h2.094h0.797l21.729,36.18c1.794,2.691,4.784,4.585,8.173,4.785V17.937h-9.668V16.94h9.668
		h1.096h9.668V17.937z"/>
	<path fill="#FFFFFF" d="M219.166,16.94v0.997v12.559h-0.997c0-6.877-5.681-12.559-12.558-12.559h-20.333V50.33h10.166
		c5.083,0,9.17-4.086,9.17-9.17h0.997v9.17v0.997v9.17h-0.997c0-5.084-4.087-9.17-9.17-9.17h-10.166V83.72h20.333
		c6.877,0,12.558-5.582,12.558-12.559h0.997V83.72v0.996h-0.997h-32.891h-13.556h-6.777V83.72h6.777V17.937h-6.777V16.94h6.777
		h13.556h32.891H219.166z"/>
	<path fill="#FFFFFF" d="M248.567,84.716c-0.599,0-1.097,0-1.694,0h-0.101c0,0,0,0-0.1,0c-17.94,0-23.621-11.859-23.621-18.638
		c0-3.688,2.989-6.778,6.777-6.778c3.688,0,6.777,3.09,6.777,6.778c0,0,0,0,0,0.1c0,6.778-4.187,17.542,10.166,17.542
		c9.568,0,16.944-4.885,16.944-10.863c0-2.99-2.192-5.781-5.881-7.875L232.221,50.33h0.1c-5.681-3.389-9.269-8.771-9.269-14.751
		c0-0.598,0-1.196,0.1-1.694c0-0.1,0-0.199,0-0.299c0.1-0.499,0.199-0.897,0.299-1.396c1.894-8.272,10.665-14.552,21.528-15.15
		c0.599-0.1,1.097-0.1,1.694-0.1h0.1c18.041,0,23.722,11.861,23.722,18.638c0,3.788-2.99,6.778-6.777,6.778s-6.777-2.99-6.777-6.778
		c0,0,0,0,0-0.1c0-6.777,4.086-17.542-10.167-17.542c-9.568,0-16.943,4.983-16.943,10.864c0,2.99,2.192,5.781,5.88,7.874
		l1.695,0.997l3.787,2.193l19.336,11.063l0.498,0.199v0.1c5.682,3.389,9.469,8.771,9.469,14.851c0,0.598,0,1.196-0.1,1.794
		c0,0.1,0,0.1,0,0.199c-0.1,0.498-0.199,0.996-0.299,1.395C268.103,77.739,259.331,84.019,248.567,84.716z"/>
</g>
</svg>
