<?xml version="1.0" encoding="utf-8"?>
<!-- Generator: Adobe Illustrator 16.0.0, SVG Export Plug-In . SVG Version: 6.00 Build 0)  -->
<svg version="1.2" baseProfile="tiny" id="svg2" xmlns:svg="http://www.w3.org/2000/svg"
	 xmlns="http://www.w3.org/2000/svg" xmlns:xlink="http://www.w3.org/1999/xlink" x="0px" y="0px" width="1295.3px" height="1463px"
	 viewBox="0 29.6 1295.3 1463" xml:space="preserve">
<g id="New_Zealand">
	<path id="path9" fill="#FEFEE9" stroke="#333" stroke-width="1.8425" stroke-linejoin="round" stroke-miterlimit="3.8637" d="
		M579.6,814.3c-0.5,0.5-3,6.7-2.9,7.5c0.3,2.6-4.4,6.1-5.3,9c-0.2,0.5-3.7,5.4-3.8,5.5c-1.7,0.4-3.2-1.3-4.4,2.1
		c-0.7,2-7.9,4.6-9.7,5.9c-2.5,1.7-3.1,1.2-5.2,0.5c-1.8,2-0.7,0.9-3,0.4c-2.3,1.3-8.3,2.1-10.4-0.2c-1.3,0.6-0.5,6.6-0.2,7.6
		c4-1,0.3,2.1-0.5,2.9c-1.5,1.6-0.3,4.1-1.7,5.9c-1.4,1.8-2,5.4-2.2,7.7c-0.2,2.5-0.5,5.2-3.4,5.8c-1.8,2-1.6,4.6-2.9,6.7
		c-1.6,2.6-1.9,7.3-2.2,10.3c-0.4,4.6-1.1,9.4-3.2,13.5c-1.7,3.5-4.6,5.6-5.3,9.6c-0.8,4.4-4.1,6.7-5.7,10.9c-1.3,3.5-2,7.4-5.5,9.7
		l0.4-1c-3.3,5.2-7.8,9-12.4,12.4c-3.4,1.5-4.4,6.2-6.8,8.7c-2.3,2.4-3.6,5.1-6.1,7.3c-2.7,2.3-8.9,10.6-13.5,8.9
		c-0.9-0.3-8.4,3.6-9.7,4.2c-2.9,1.3-9.1,2.8-9.1,6c-2.6,0-5.1,0.6-5.8,4c5.5,1.8,0.4,1.6-2.3,2.1c-3.7,0.7-5.1-1.2-7.7,1.7
		c-2.2,2.4-4.5,5.1-6.1,8c-1.3,2.5,0.9,1.9,1.5,0.4c0.7-1.8,2.7-3.9,4.6-4.7c5.6-2.5-2.6,6.7-2.5,6.6c-0.4,1.5-0.8,3-2.8,1.5
		c-2.9-2.1-4.6-0.3-7.5,0.7c-2.4,0.8-2.5,4.2-4.5,5.4c-1.9,1.1-2,0.5-2.8,2.8c-1,3.1-2.6,2.8-5,4.1c-4.8,2.6-10.3,2.9-12.6,8.4
		c-1.9,3.4-5.6,6-7.9,9.9c-2,3.4-3.7,3.6-6.7,5.8c-3.2,2.4-4.6,2.7-7.8,1.3c-1.6-0.7-3.5,3.4-5.6,3.1c-2.5-0.4-5,2.3-7.7,1.9
		c-3.2-0.4-4.8,4.2-8,5.2c-2.4,0.7-5,1.6-7.2,2.8c-5.3,2.8-12.2,7.5-16,11.4c-0.2,0.2-1.4,2.3-2.3,3.1c-2.1,1.9-4.4,1.8-6.6,3.2
		c-2.9,1.8-4.5,2.8-7,5.2c-3.3,3.1-5,4-9.4,5.4c-3.5,1.1-6.6,2.9-9.9,0.4c-1.5-1.2-1.2-3.6-3.6-3.4c-1.3,0.3-1.4,1.9-2.6,2.1
		c-2.1,0.4-2-1.4-3.8,0.9c-1.7,2.1-4.9,3.2-7.5,3.7c-2.4,0.4-8.7-1.3-10,1.5c1.3,0.8,1.7-0.1,2.2,1.1c-1.2,1-2.7,1.6-3.9,2.7
		c-2.1,1.9,0,3.8-1.7,5.3c-1.3,1.1-2.3,1.8-3,3.4c-1,2.1-2.9,1-4.1,2.7c-0.8,1.2-2.3,0.7-2.9,2c-2.6,1-1.4,0.9-3,2.8
		c-1.9,2.1-4.7,2.6-7.4,3.2c1.1,1.9,6.5,3.3,2.5,5.9c-2.2,1.4-7.1-0.9-8.9,0.7c0.1,2.5,1.4,3.4-1.2,5.5c-1.5,1.2-3.6,1.4-5,2.5
		c-2,1.5-3.7,4-5.6,5.8c-1.2,1.1-4.8,3.9-5,5.5c1.1,2.5,2.4,6.4,1.5,9c-0.7,2.4,2.3,2.1,3.6,3c0.7,0.5,1,1.2,0.9,2.1
		c1.5-0.5,1.8-0.3,2.4,0.6c0.2,1.7,1.3,3.5,0.3,5.1c-1.2,0.7-3-3.7-4.1-4.8c-1.7-1.6-4.1-2.1-5.6-4c-2.3-2.9-2.9-1.8-5.7-0.4
		c-1.9,0.9-3.3,2.5-5.2,3.3c-1,0.3-1.8,1-2.2,2c-1.2,2.3-1.7,1.1-3.8,1.6c-1.8,0.4-5.9,2.7-2.6,4.5c2,1.1,3.4,5.1,6.2,5.4
		c-0.9,0-2.8,0.1-3.7-0.5c-1.6-1.2-1.7-3.9-4.2-4.2c-5,1.5-2.9,4.5-0.1,7.4c3,0,0.9,3.5,0.1,4.9c-0.1,0.2-2,4.6-1.3,4.1
		c-1.1,0.7-2.3,0.1-2.9-1.3c-1.1-2.6,0.8-4.6,2.4-6.4c-0.1-3.8-6-4.5-8.5-2.7c-3.4,2.6-1.7,7.9,0,11c1.1,2.1-0.4,5.4,1.4,6.5
		c0.9,0.5,2.4,3.9,2.5,5.1c0.1,1.8-3.4,0.7-4.6,0.4c-0.9-1.8,1.6-2.5-0.3-3.9c-1.3-1-1.8-2.4-1.2-4c1.2-3.2-0.6-2.9-1.3-5.9
		c-1.2-4.7-2.2-2.2-5.9-1c-3.1,0.9-5.3,1.8-3.3,4.3c-1.4,0.9-3.2-0.1-5,0.8c-2,1-6.4,5.1-6.1,7.1c0.9,2.2,13.3,4.1,13.2,6.8
		c-0.1,1.9-7.3-2.7-7.7-2.9c-3.8-1.8-6.6-2.7-10-0.5c-1.1,2.3,1.2,3.6,2.4,5c1.8,2.2,0.9,2.3,3.6,2.9c1.5,0.3,4.3,0.4,5.4,1.5
		c-2,2.1-5.6-1.2-7.4,0.9c-0.6,0.7,0.9,2,0.7,2.2c0.7,2.8-2.1,1.9-2.2-0.2c-0.2-2.4-1.5-8-4.7-8.4c-2.4,0.9-4.2,4.9-5.9,6.8
		c2.5,1.4,4.9,2,6.7,4.8c0.4,0.6,0.4,1.5,1,2c0.9,0.4,3,0,3.4,1.3c0.7,3-4.9-0.3-5.7-1.3c-1.8-2.1-4.4-5.8-7.7-3.9
		c-2.9,1.6-2.4,4.1-2.2,7.3c0.1,1.9,2.1,0.8,2.6,2.6c0.5,1.8,0.9,3.9,1.5,5.7c1.4,1.5,8-0.2,9.7-0.6c2.7-0.6,5.3-2.2,8-1.9
		c-1,1.5-2.8,2.7-2.2,4.6c1.8,0.8,1.9,2,4.2,1.8c1.6-0.1,2.8-0.1,3.3,1.4c-6.1,4.5-8.2-5.1-11.5-3.8c-2.1,0.8-14.7,1.2-10.4,5.8
		c2.7,2.9,7.8,3.5,9.2,7.8c0.8,0.3,4.2,5.1,4.1,5.5c-0.3,1.5-2.7-0.3-3.9,0.1c-0.4-1.9-1.5-5.4-2.8-6.9c-2.9-3.4-4.2-2.3-5.2,0.9
		c-0.6,1.8-5.1,3.1-5.8,1.5c-0.8-1.7,2.8-2,3.5-3.1c2-3.2-4.2-8.4-6.3-5.9c-3.2,2.4-5.5,2.2-2-1.3c0.1,0.6-8-5.6-7.3-5.6
		c-1.2,0.1-4.8,4.9-5.2,6c0,0.1-2.8,6.5,1,3.5c1.2,0.8,2.7,1.4,4.1,2.3c2.8,1.7,1.5,1.3,3.2-1.1c1.8,0.6,2.4,3.9,3.6,6
		c-3.7,1.7-9.3-5.9-14.3-3.5c-4.2,2-3.1,6.3-4.5,9.9c-1.3,3.3-3.2,3.7-2.7,7.3c2.1,4.5,9.2,0,12.9-1.3c6.1-1.3,11.9-4.4,17.8-6.1
		c-0.3,4-3.2,3.2-6.2,4.3c-5.7,2-0.7,2.2,2.1,2.9c-0.7,3.5-7.2,0.1-9.3-0.3c-3.3-0.5-6,2.6-9.2,3.1c-1.8,0.3-3.1,0.3-2.9,2.5
		c0.1,0.9,0.5,4.9,1.1,5.2c1.8,0.8,6.7-1.7,9.3-1.1c0.4-0.4-14.6,5.7-9.2,7.9c1.3,0.5,7.2-2.3,9.3-2.5c2.5-0.2,4.7,0.9,7.1,0.8
		c1.7-0.1,3-1.1,4.4-1.2c-0.1,3.6-5.5,4-7.8,5.3c-0.8,0.5-2.8,1.9-3.4,2.8c-1.5,0.9-3-0.7-4.5-0.6c-3.6,0.4-6.9,2.1-10.5,2.4
		c-1.7,0.2-3.5,0.1-5.2,0.3c-1.4,0.1-2.2,1.5-3.6,1.7c-0.6-0.7,0-0.6,0.3-1.1c-4.2-1.2-15.8-1.3-13.7,5.4c0.7,2.4,0,3.9-1.1,6
		c-0.2,1.6,1.8,3.2,1.5,5.1c-0.3,1.9-0.8,2.8,0.2,4.6c1.7,3.1,1.5-0.8,3.2-1.5c2.2-1,4.2,0.9,6.3-1c1.9-1.7,4.3-0.7,5.8-3.2
		c1-1.8,7.3-11.2,9.1-8.4c0.5,2.2-6.8,6.7-5.6,7.8c3.9,3.6,7.3-2.2,10.6-0.7c-1.5,3.7-5.5,2.9-8.7,3.9c-1.4,0.4-3.3,0.9-4.3,2
		c-2.4,2.6-0.9,3.7-1.7,6.5c-2.3-1.8-2.6,2.2-2.3,3.9c2.3-1.2,5.4,0.3,7-1.4c1.1-1.1,2.8-4,3.9-4.6c1.1,3,0.1,7,2.2,1.4
		c1.3,0.7,3.1-0.2,2-1.8c-2-2.9,4.3-4.7,6.3-5.3c1.8-0.5,7.3-4.9,8-3.1c-2.7,2.9-6,3.5-9.3,5c-2.9,1.3-4.2,6.7-6.3,9.3
		c-1.9,2.6-4.7,4.8-7.8,6.2c-3,1.3,1.9,6.7,3.7,7.3c5.6,1.9,10.9,1.7,16.6,1.3c3.9-0.3,8,1.8,11.5,1.3c2.3-0.3,8.8,0.5,10,2.8
		c0,0.1,11.6,1.1,12.4,0.6c3.7-2.2,10,0.3,10-5.1c0-2.8,2.3-2.8,2.5-5.2c0.3-2.9,3.2-2.6,5.6-2.3c4.9,0.6,8.7,3.5,13.2,4.2
		c1.8,0.3,3.2-0.6,4.5,0.7c-1.9,1.4,1.4,3.6,2.1,4.9c1,1.6,2.3,2.5,3.5,3.9c3,3.4-1.2,3-2.7,4.7c0.9,0.9,2.7,0.7,3.5,1.8
		c1.8,2.4,2.8,6,6.2,6.2c3-2.6,5,1.2,7-1c2.2-2.4,4-2,7.3-1.7c1,0.1,4,1.9,4.2,0.7c0.4-2.3-1.7-2.9,1.8-3.4c4-0.6,11.6-2.7,12.6,3.2
		c0.2,1.1,2.9,3.7,3.6,4.9c0.9,1.5,2.6,6.6,4.8,6.4c0.2-0.2,0.3-0.4,0.5-0.6c0.1-2.9,1.1-1,2.5-2.6c0.4-1.5-1.5-3-0.3-4.2
		c2.5-1.3,2.4,2.2,3,3.6c2.4,5.4-1.3,3.5-3.3,6.8c0.1,2.7-0.7,2.3-2.2,2.2c-1.2-3.1-5.3-1.6-4,2.2c5.4-0.3,0.9,0.7,4.7,3.5
		c1.1,0.8,5.6,5.6,6.3,3.3c0.4-3.5-5.5-3.6-4.1-7.8c0.7-1.1,1.8,0.4,2.3,0.3c1.7-0.4-0.6-2.4,1.8,0.1c1.8,2,7.2,0.5,9.8,1.1
		c0.5,0.1,6.2,1,4.6,2.8c-1.2,1.4-4.5,0-5.7-0.7c0.5-0.7,0.9-1.1-0.8-1.1c-4.7,0.1-4,0.5-6.5,3.2c3.6,2.4,16.3,1.9,19.8,0
		c-0.4-0.3-0.6-0.7-1-1.1c3.1-2.7-1.4-1.9-1.4-4.3c0.1-1.1,7.4,0.5,8.4,1.1c-1.2,0.7-2.8,0.4-4,1.3c1.9,2.5,7.9-0.7,10.5-0.9
		c1.3-0.1,4.4-1.1,5.5-0.4c0.9,2.4,1.1,4.4,1.5,6.9c1,6,3.2,2.6,7.4,3.2c3,0.4,4.3,2.1,7.5,1.9c5.4-0.3,0-1.6,3.2-4.4
		c2.1,1.2,1.2,3.5,4.2,3.7c2.1,0.1,5.2-1,4.9-3.8c-0.1-1.1-0.9-2.1,0.9-1.9c2.9,1.3-0.1,3.6,1.1,4.9c5.1,2.3,7.8-3.9,12.1-3.8
		c1.3,0,3.9,1.1,4.7,2c1.6-0.1,1.3-2.5,4.5-2.4c0.5,0,7.8,1.9,4.9-0.9c-1.7-1.6,0-2.5,2-3.3c2.1-0.8,5.1-1.8,7.4-1.5
		c1.9,0.2,2.4,1.8,4.2,0.7c3.7-2.3,6.4-2.4,9.2-6.3c1.9-2.8-7.4-1.8-8.2-2.5c2.1,0.3,4.2-1.2,6.5-0.9c1.9,0.3,3.8,0.8,5.7,1.2
		c-0.6-2.7,5-1.2,5.3-4.1c0.4-2.9-2.1-7.2,1.2-9.3c4.9-3.1,9.8-6.3,14.8-9.4c2.4-1.5,3.1-4.3,5.8-6c2.9-1.8,6.4-2.2,9-4.3
		c4.8-3.8,2.9-7.9,5.1-13c2.5-5.9,6.9-8.7,12.3-11.6c5.8-3,18.2-5.2,24.8-4.3c3.8,0.5,0.2-3.1,3.1-3.4c1.9-0.2,5.5,2.3,6.1-1.1
		c0.3-1.5-1.1-4.4,0-5.3c1.1-0.9-0.4-3-1.2-3.6c-1.3,2.3-2.7,1.9-4.5,3.4c-1.8,1.5-1,3.7-3.9,4.2c-1.4,0.2-10.6,6.2-10.9,3.9
		c-0.2-1.6,2.2-2.1,3.4-2.4c1.1-1.4,1.8-3,3.3-4.1c1.2-0.5,2.1-0.6,3.1-1.3c0.8-1.5,0.7-2.5,2.5-2.6c1.1-0.1,6.9-1.1,5.9-3.1
		c-0.7-1.4-3.5-0.5-4.7-1.5c-2.4-2.1-0.8-0.5-3.9-0.4c-1-1.8-2.4-0.2-3.1-1.1c-1.4-1.9-0.6-3.9,2-2.8c2.3-1.9,4.3-3.5,5.8-6.7
		c-2.1,0-5.5-2.8-1.4-3c2.8-0.1,3.1,1.6,5-1.2c1.3-1.8-0.7-2.3-0.2-4.4c1.9,1.9,3,1.1,4.3-1.3c0,0.1-0.1-2.3-0.1-2.2
		c0.7-1.6,2.3-2.3,3.7-3.3c2.5-1.7-0.1-4,1-6.1c1-1.9,4.2-3.4,4.7-4.9c-0.2-2.2,0.2-2.7-2.2-2.2c-0.3-0.7-1.4-0.4-1.1-2
		c0.7-2.9,2.7-5.1,3.2-8.1c0.7-4.1,3-8,4.6-11.8c0.4-1,1.4-2.3,2.3-2.8c2.4-1.3,1.8-2.7,3.5-4.2c8.3-7.9,14.7-14.9,15.8-26.6
		c0.1-1.4,0.4-3.3,0.2-4.8c-0.3-2.5-3-1.3-3.3-2.3c-0.4-2,4.4-0.4,3.7-4.6c-0.6-3.3-2-6.7-1.9-10c0.1-2.1,0.1-4.4,0.3-6.5
		c0.3-3-0.5-1.8-1.9-3.8c0.9-1.3,3.1-0.6,4-2.3c1.5-2.8,3.8-5.6,4.8-8.9c0.4-1.4,1.3-4.5-0.3-5.5c0.7-2.4,1.9-4.6,3.4-6.5
		c1.5-1.9,3-3.7,4.6-5.5c1.4-1.6,1.8,0.7,3.7-0.6c1.1-0.8,1.8-2.1,2.8-3c3-2.6,6.4-4.4,9.5-6.9c2.9-2.4,6.9-2.6,9.4-5.2
		c3.1-3.2,8.6-3,12.3-5.9c1.7-1.3,2.7-1.3,4.8-0.9c3.1,0.5,5.6-2.3,7.5-4.2c3.4-3.5,10.5-6.8,15-8.4c4.3-1.5,8.4-5.1,12.7-6.1
		c4.5-1,14.7,0.2,12.8-6.3c-0.6-2.1-0.8-5.7,0.9-7.3c0.8-0.8,1.8-1.7,2.4-2.6c2.5-1.1,1.4,1.6,4.2-1.1c3.1-0.6,4.8,1.6,6.4,3.6
		c2.1,2.7,3.9,0.1,6.3,0.8c6.9,1.9-4.4,4-6.3,4.7c-1.4,0.5-13,2-11.7,4.6c0.8,1.6,13.3-2.7,15.4-3c2.5-0.4,4.9-1.1,7.5-1.2
		c3-0.1,5.5-2.4,8.2-2.2c-5.4,4.3,1.6,7.4,5.1,9.5c-0.1-0.1,1.1-0.4,1.2-0.4c1.4,0.2,1.4,2.3,3.1,2.7c1.9-1,6.4,0.3,8.4,1.1
		c0.7-1.6-1.6-3-2.5-3.9c-0.9-0.9-1-3-1.5-4.2c-0.7-2,2.3-4.2,0.7-5.5c-1.4-1.2-0.1-3.1,1.7-3.1c2,0.1,0.6,3,1.1,4.2
		c0.2,0.8,0.8,1.3,1.7,1.5c0.6,1.6-0.8,3.4-0.3,5.1c1.2,4.4,2.1,2.4,4.7,3.3c-0.1-0.4,0.3-2,0.2-2.5c0.7,0.2,1.9,1.3,2.4,0.2
		c1.4-2.8-0.4-3.2,2.8-1.2c0.2-1.1,0.8-1.9,1.7-2.4c0.5-1.5-0.5-1.8-0.7-3.1c0.2-1.1,0.8-1.8,0.9-2.9c0.8-1,0-4.3-1-4.7
		c-0.3-0.9-0.3-0.7,0.2-1.9c0.8-1.9-1.6-2.6-2.7-3.7c-1.3-1.4-1.1-4.5-2.9-1.4c-1.8,3-1.5-0.6-3.2-0.8c-1.1-0.1-2-1.5-3.1-0.6
		c-1.5,1.3-1.9,3.4-3.5,4.4c-1.8-1.6,0.5-4.6-0.1-6.5c-4.4-4.2-2.6,2.3-4.6,4c-2.7,0.7-1.5-2.9-2.1-3.9c-0.6-1-4.7,0.2-6.2-0.3
		c-1.9,0.2-2.7,1.2-3.7,2.6c-2.1-0.5-1.5,0.6-3.2,0.6c-1.3-0.8-3.8-2.1-1-3.1c2-0.7,3.3-1.8,5.4-1.9c1.9-0.1,5.5,0.5,6.6-0.9
		c-1.3-1.7-4.5-1.1-6.3-2.4c-0.7-0.5-2.7-1.9-0.4-2.4c1-0.2,1.1,1.1,2,1.5c1.2-1.5-1.7-4.9-2.1-6.9c-0.7-3.4-2.3-7.4-1.7-10.9
		c0.4-4.9,1-11.5,2.3-16c3.7-12.7,15.9-16.1,27.2-19.7c2.7-0.9,5.7-1.6,6.6-4.8c1-3.9,4.3-3.1,7.4-3.6c1.5-0.4,4.6-2.3,5.5-3.5
		c0.6-0.8,0-2,0.7-2.8c2.2-0.5,3.4-2,2.5-4.1c-1.4-3.2,0.4-3.4,2.4-5.2c2.7-2.4,3.7-6.4,5.2-9.6c1.6-3.3,7.1-10.4,3.9-12.6
		c6.8-2.3,6.4-9.7,9.2-15c1.1-2,3.6-2.3,4.7-4.2c1.5-2.6,5.3-4.8,7.6-2c0.9,1.1,1.9,2,2.4,0.2c-0.3-2.3-4.6-4.7-0.7-6.9
		c1.1-0.6,2-1.5,1.8-2.9c1.1-0.8,2.3-0.2,3.5-0.8c1.9-3.2,3.7-6.2,7.3-7.9c1.1-0.5,6.4-5.7,6.3-6.5c-0.2-0.9,1.5-2.4,2.1-2.9
		c0.4-2.4-0.7-4.5,0.2-6.9c1.9-5.3,5.4-8.2,9-12.3c4.3-4.9,9.9-8.4,14-13.5c1.8-2.3,3.2-5.6,4.6-8.2c0.8-1.5,1.9-3,1.3-4.6
		c-6,1.5-8.3-4.8-8.9-10c-0.6-4.8-2.3-12-7.5-14.1c-1.2,2.1,2.4,3.2,1.3,5.5c-0.9,0.8-1.9,0.9-3,0.4c3-3.3-1.5-3.3-2.2-5.5
		c2.2-1.5-2.4-7,0.3-9.9c2.6-2.8,2.9-3.2,4-7.1c0.4-1.4,3.1-4.2,4.5-4.7c-1.7,4.7,2.3,0.3,3.4,0.2c0.6,1.8-1.5,2.6-2.1,4.3
		c0.6,0.2,0.8,0,1.4,0.1c1.4-2.3,5-1.4,5.8-3.1c0.7-1.5,0.4-1.9,1.4-3.3c2.4-1.5,3.9-4.4,5.3-6.9c-1.2,0.1-2.7,1.1-3.6,2.2
		c-2,2.4-0.7,0-1.9,0.6c-1,0.7-2,0.8-3.1,0.2c-0.5,0.4-0.9,2-1.9,2c-2.4-0.6-4.5-2.8-6.7-2.4c-1.4,0.3-2.6,0.8-4,1.1
		c-3.2,0.2-2.3,0.6-4.8,2.2c-0.8,0.5-2.3-0.9-3.5-0.9c-1,0.1-6.2,4-4.5-0.2c0.4-0.6,3.1-2.5,3.5-2.7c1,0.1,1.9,1.5,2.4,0.1
		c0.3-1,0.6-1,1.7-0.7c0.8,0.2,1.7,1.3,2.2,0.2c1.1-2.6,5-0.3,6.9-1.1c1.3-0.5,2.2-0.1,3.4-0.8c1.3-4.3,3.1-0.8,3.9-2.8
		c0.8-2-7.5-9.3-2.5-7.9c0.4-3.5,1.9-2.4,1.4,0.6c-0.1,1-0.2,2,0.7,2.6c2.4,1.7,1.5-1.5,2-2.3c3.1,0.1,2.1-2.6,4.4-5.2
		c0.9-1,4.7-7.7,3.6-8.1c-4.2-1.6-7.3,11.7-11.8,5.8c-2-2.6,3.4-0.6,2.6-4.4c-0.3-1.2-2.1-4.5-3.4-5c-0.8,0.2-0.4,0.9-0.9,1.2
		c1.3,1.3-0.6,3-1.9,3.6c-3.6-2.4-2.4,2.6-6.4,0.1v0.1c-1.4-1.6-3.7-0.9-4.2-3.3c-0.5-2.4-2.8-2-2.5,0.4c-2.3-0.6-2.8,0.3-1.6,2.2
		c-0.8-0.1-1.7,0-2.5,0.3c0.2,2.2,2.2,3,3.6,4.6c2.4-0.4,0-3.9,3.4-3.7c2.4,1.5-0.4,3.4-0.4,3.9c0,1.6,1.1,2.8,1.8,4.2
		c-5.5-2.5-3.3,2.7-6,5.3c-2.2-3.6,0.2-3.5,0.5-6.6c-1.1,0.5-2.1,0.4-3.1-0.2c1,3.4-1.9,0.4-2,3.1c-0.2,2.5-1,0.2-2.2,1.9
		c-1.4,1.9-0.9,4.3-0.6,6.5c1.9,3,4.7-1.1,5.9-1.5c2-0.7,0.2,2,0.9,2.1c3.5,0.7,1.4-2.4,4.9-2c1.5,0.2,2.5-0.7,3.9,0.3
		c2,1.4,3.2-1.4,5.2-0.8c1.8,0.6-2.2,2-2.2,2.1c-2.4,1.3-4.7,0.3-7.1,0.7c0.6,0.4,0.4,0.6,1.5,1.4c-2.7,2.1-12.9-1.5-13.8,1.5
		c0.7,0.2,3.4,0.5,4.1,0.3c0,0.2,0.1,0.3,0.1,0.5c-1.2,1.1-3.9,1.1-5.5,1.9c-1.7,0.9-2.6,2.4-4.6,2.7c-0.9,1.6-5.8,1.5-4.9-0.9
		c0.8-2.2,7.2-1.6,8.3-2.7c0.4-1.6,0.4-3.2,0.8-4.9c0.9-3.6-1.9-3.1-4-4.3c0.2-2.3,4.3-0.9,3.9-4.8c4,1.6-0.9-3.8,2.4-3.6
		c2.7,0.2,1.6,1.8,3.3-1c0.6-0.3,1.6-0.8,2.1-0.8c-1.6-2.1-9-0.4-11.1,0.1c-1,0.2,0.1,3-1.1,2.2c-1-0.6-1.1,2.7-3.1,3.4
		c0.4,1.5-0.8-2.5-0.8-1.7c0-1.4,1.6-0.4,1.8-1.9c0.4-3.7-2.6-1.8,1-5.3c-0.9-0.7-3.3-0.3-1.7-2.3c1.8-0.8,1.8-0.5,3.4-1.6
		c2,0.2,0.6,1,1.7,2.2c1.1,0.8,6.3-1,7.9-1.1c1.1-1.2-1-1.6-1.4-2.8c1.1-1.2,2.3-1.4,3.5-0.5c0-0.3,2.3-4.9,2-4.8
		c1.4-0.4,5.4,4.9,4.8,0c-0.1-0.9-3.2-3.3-3.6-3.2c-1.2,0-2.7,2.2-3.9,2.7c-3.5-0.3-2,0.1-2.7,2.6c-2.1,0.9-2.8,2.6-4.6,3.5
		c-2.9,1.5-0.3-3.9-0.6-5.1c-1.5-2.1-3.7,3-4.9,3.9c-1.6,1.2-3.1,0.1-4.6,1c-1.3,0.8-1.5,1.8-3.2,2c-1.7,0.3-4.2,1.9-3.1,4.1
		c1.2,1.2,3.7-2,5.5-1.9c2.5,2-1.4,4.5-2.9,4.7c-4.7,0.8-1.9,1-1.9,4.3c-1.2-0.8-2-0.8-2.9,0.5c-0.8-1.3-0.2,3.4-0.6-2
		c-0.2-3-1.5-1.1-2.6-3c-1.3-2.2-3.9,1-5.1,2.3c-0.8,1.2,1.2,0.8,1,1.9c-0.2,1.3-2.6,0.1-3.4,0.7c-2,3-3.3,5.2-7.3,5.7
		c-0.1-1.4,1.8-2.4-0.4-2.7c-2.5,1.8-5.5,4.3-7.9,6.4c-4.5,4-7.2,10.3-13.5,12.2c-2.7,0.8-11.1,0.9-10.9-3c3.5-3.9,0.6-2.6,0.6-7.6
		c0-2.4-0.3-4.9-2.3-2c-1.9-3.2-2-4.2-1.6-7.7c1.3,0.3,1.5,1.3,2.4,2.4c1.3-1.1-1.9-5.7-2.1-6.8c-0.3-1.4-0.6-2.8-0.8-4.2
		c-0.3-2.5-1.2-0.5-3.1-1.7c0.7-0.8,2.1-2.2,2.4-3l-0.1,0.3c3.9-2.1,2.8-3.5,2.8-7c0.5-1.3-0.3-3.4,0.2-4c2.4-2.8-3.7-1.9-4-2.5
		c0.9-2.1,2.4-6.6-0.7-8.5c-1.7-1-2.4-0.6-2.7,0.9c-0.5,2.9-3.2-2.2-3.9,1.6c-0.3,1.5-2.8,3.4-4.6,4.3c-2.5,1.3-2-2.4-4.7-2
		c-1.9-1-8.9-10.3-9.5-10.2c-0.8,0.1-1.6,2.7-2.4,0.9c-0.8-1.8,2-4,0.8-5.8c-0.2-0.3-4.5-2.3-3.2-4.1c0.7-0.9,2.3,0.2,2.8,0.7
		c1-1.8-0.8-2.4,0.7-3.9c1.1-1.2,0.8-3,1-4.4c0.6-3.2,0.7-6.5,4.1-6c2.6,0.3,5.4-0.3,8.2,0.1c3.7,0.6,8.5,1.5,12.3,1.3
		c0-0.2,0.1-0.3,0.1-0.5c-5.3-1.8-11.5-2.4-17-3.1c-1.5-0.2-3,0.8-4.5,0.6c-1.4-0.2-2.3-1.4-3.8-0.9c-1.9,0.7-5.2,0.1-6.8,1.5
		c-0.6,0.3-8.1,5.6-5.6,6.8c1.1,0,2-1.2,2.9-1.7c2.9-1.3,0.2,0.5,1.4,0.3c0.8-0.1,0.9-0.1,1.7-0.4c0.8,3.3-5.2,1.5-3.1,4.4
		c-1,0.5-1.3,1.2-2.2,1.7c-2.1-3.2-2.1,2.6-4.6,1.4c0.1-1.8,1.7-3.1,1.8-5.1c-5.5-0.7-12.2,11.9-16.1,14.8c-1,0.4-2.1,0.7-3.2,1.1
		c-0.6,0.7-1.2,1.5-1.8,2.2c-1.6,1-3.2,2.3-5.2,2.5c-1.8,0.2-1.9,0.5-2.3,2.3c-0.8,0.2-1.6,0.3-2.4,0.4c0.2,1.3-0.8,3.4-1.8,4.2
		c-1.9,1.7-1.4,3.7-4.1,3.4c-2.3,1-1.2,4.7-1.1,6.4c0.2,5.5,0.6,11.1,0.6,16.6c0,2.2-1.4,2.9-1,5.3c0.4,2.3,0.4,5.1,0.4,7.4
		c0,1.9,0.3,2.2-0.5,4.3c1.2,0.9,2.5,2.8,3.3,3.8c-1.2-0.1-2.8-0.1-3,1.5c-1.3-0.4-1.8-0.3-1.7,1.4c0.1,3.2-2.2,6.3-1.7,9.3
		C587.3,809.9,581,812.7,579.6,814.3z"/>
	<path id="path11" fill="#FEFEE9" stroke="#333" stroke-width="1.8425" stroke-linejoin="round" stroke-miterlimit="3.8637" d="
		M971.1,421c2.4,2,4,0.8,5.9,2.6c1.5,1.5,0.9-0.3,1.7,0.2c1.3,0,2.9,2.6,3.9,3.2c4.3,2.5,7.9,6.4,12.7,7.9c6.3,2,12.4,3.8,18.9,5.6
		c2.9,0.8,5.7,2,8.5,3.1c2.5,1,8.9,0.6,10.5,2.9c-1.1,0.8-7.4-1.4-5.8,1.7c4.1,1.7,8.9,5.4,7.1-1.5c1.1-0.7,2-0.6,2.9,0.3
		c1.7,1.5,2.5,1.1,4.6,0.8c2.7-0.4,2.5,3.4,4.9,2.3c1-0.5,0-2.1,1-2.4c3.3-1.6,7-0.4,10.2-1.1c4-0.9,8-4.2,11.3-6.6
		c4.7-3.5,4.6-6.1,6.5-10.9c0.7-1.9,3.3-1.3,4.8-3.1c2-2.6,0.6-3.6,1.5-6c1.4-1.9,2.8-2.6,3.8-5.1c1.6-1.4,4.7-1.4,6.7-2.2
		c2-0.8,4.8,0.1,6.4-1.6c2.6-2.7,1.7-3.4,5.9-4.1c1.4-0.2,4.1-1.2,5.1-2.1c1.1-1-0.8-3.4-1.4-4.5c4.6-0.5,8.9,0.3,13.3,1.1
		c2.3,0.4,4.8-0.7,7.4-0.4c1.5,0.2,7.5,0.4,7.6,2.5c0.2,2.3-2.9,0.8,0.7,2.8c3.4,1.9,3.7,2.8,8.1,2.7c4.8,2.3,9.2,1.7,12.7,6.8
		c1.7,2.5-1.4,6.5-3.2,8.7c-0.8,1-1.8,0.6-2.5,1.4c-0.4,0.5-0.1,3.1-0.7,4.1c-1.3,2.3-3,3.5-4.7,5.4c-2.3,2.4-1.8,5.7-3.2,8.4
		c-1.3,2.5-4.9,4.4-4,7.6c2,1.4,3.7,6.7,1.8,8.7c-1.7,1.8-4.7,2.1-2.9,5.6c1.7,3.2,1.9,4-0.1,7.3c-1.6,2.7-1.9,3.4-0.2,6.2
		c0.6,0.9,3.3,2.8,2.1,3.9c-1.5,1.3-4.4,7.3-2.2,8.5c4.1,2.1-0.9,4.2-2.2,5.2c-2.3,1.9-0.2,5.3-0.5,7.7c-0.2,1.8-4.5,4-6,5
		c-3.1,2-4.4,6.2-7.8,8.5c-2.4,1.6-3.8,3.6-5.8,5.6c-3.7,3.7-2.4-1.6-5-2.2c-1.7-0.4-5.1-1.3-6.3,0.4c-0.2,0.3-2.2,1.5-2.2,1.4
		c-0.5,2,1.8,3.9,2.6,5.5c0.8,1.7-2,5.3-2.3,7.5c-0.3,2.2,0.7,4.2,0.3,6.3c-0.6,3.1-1.8,6.1-2.3,9.2c-0.5,3.6,1.1,7.1-2,8.8
		c0,1-0.2,2-0.6,3c3.3-0.4,6.8,0.2,9.4,2.4c3,2.6-2.2,3.8-3.6,6c-2.8,4.5-1.6,9.7-6.7,13c-1-1-2.2-4.1-2.5-5.6c-0.8-4.1-1-5,0.2-8.9
		c0.6-1.9,4.2-9.2-1.4-6.2c-0.4,0-0.6,1.5-1.4,1.4c-1.7-1.2-2.5-2.6-4.7-2.7c-8.6-0.4-16.8-0.7-25.4-0.7c-3,0-3.9-2.3-6.1-0.5
		c-2.2,1.8-4.9,2.6-7.4,3.8c-3.1,1.5-6.4,2.9-9.6,4c-4.2,1.5-7.6,4.4-11.8,5.9c-3.3,1.2-2.2,5.8-4.3,8.5c-2.2,2.8-5.3,5.1-7.7,7.5
		c-1.3,1.3-0.3,2.8-1.9,3.9c-1.4,1.1-1.4,2.8-1.4,4.4c-0.1,4,4.2,4,3.9,7.9c-0.2,2.7,1.6,7.9,0.3,10.3c-1.1,2-3.6,7.2-0.4,8.8
		c0.1-0.2,0.3-0.4,0.5-0.4c-0.2-1.1-0.7-3.7,0.2-5.1c1.4-2.4,3.5,1.1,4.8,2c5,3.6,12.7-2.5,8.4,5.8c-2.5,4.8-8,5.5-8.4,11.6
		c-0.1,1.7,1.5,3.2-0.6,4.1c-1.4,0.6-2,1.8-2.8,3.1c-1.3,2.3-1.5,5.2-2.5,7.7c-0.9,2.4-1.3,5.7-3.1,7.4c-1.9,1.8-0.6,5.6-1.7,7.8
		c0,0-1,0.2-1.1,0.4c-0.4,0.7,0.5,1.8,0.5,2.7c-0.5,1.2-2,1.3-2.7,2.4c-0.9,1.6-1.8,3.6-2.6,5.3c-0.7,1.4-7.5,8.2-7.7,4.8
		c0-0.8-6.6,3.2-5.2,6.5c6.1-5.9-2.5,7.5-3.1,9.4c-0.8,2.7,0.1,7.1-2,9.1c-1.8,1.8-4.2,0-6.3,0.3c-1.2,3.4-5.6,7.3-7.9,10.9
		c-1,1.5-2,0.7-3.4,1.3c-0.2,1.3,0.2,2.6-0.4,3.8c-0.5,1-1,2-1.5,3c-1,1.8-3.7,1.7-3.7,3.9c0,2.1-3,5.7-4,7.5
		c-1.2,2.2-2,4.6-3.2,6.8c-1.4,2.6-2.5,4.1-2.4,7.2c-2,3.3-5.6,3.7-8,6.5c-3.9,4.7-3,11.6-5.9,16.8c-1.2,2.1-2.9,3.9-4.8,5.4
		c-2.7,2.1-3.5,5.7-6.3,7.9c-2.6,2.1-5.5,3.4-7.8,5.7c-2.5,2.5-5.9,3.9-8.3,6.1c-2,1.9-3.2,3.1-5.8,4.2c-2.4,0.9-7.6,2.8-8.7,5.1
		c-1.4,3.1-8.6,6.1-11.5,8.6c-1.7,1.5-4.6,3.8-7.1,3.6c-3.3-0.3-4.3,2.6-6.3,4.4c-1.8,1.7-9.2,1.8-9.7-1.3
		c-0.8-4.6-3.6-7.2-2.7-12.2c0.6-3.3,1.8-5.5-1.7-7.1c-2.3-1-4.8-1.5-6.9-3c-7-4.8-9.7,4.5-14.4,6c-1.2,0.4-5.5-1.8-5.4-3.3
		c0.2-2.7,2.8-2.7,0.4-5.5c-2.3-2.6,7.9-13.7,1.4-14.8c-3-0.5-4.7-0.5-7.1,1.4c-2.2,1.7-4.2,5.8,0.4,5.2c2.7-0.4,2.8,2.7,1.5,4.3
		c-1.9,2.6-3.8-1-6.1,2c-2.4,0.5-8.1,0-9.6-2.1c-2.4-3.5-6-4.3-3.5-8.9c1-1.8,5-0.7,7.2-2.4c2.1-1.7,11.2-16.5,14-13.8
		c0.1,5.6,2.9-0.4,1.2-1.3c-5.4-2.9,3.8-6.9,5.5-8.5c2.8-2.6,1.9-5.1,2.6-8.3c0.5-2,2.2-3.5,3.5-5.1c3.6-4.1,7.9-8.9,10.6-13.7
		c3.8-6.7,5.9-15.3,6.7-22.9c0.1-1.8,0.3-3.5,0.5-5.3c0.7-0.5,1.4,0,2-0.5c0.4-0.4-0.6-3.5-0.6-4.4c-0.1-4.9,2.8-8.7,2.2-13.7
		c3.3-1,5.6,0.6,8.2-2.5c2.2-2.6,2-3.8,2.6-7.3c-2.7,2.5-2.4,7-6.8,8.2c-7.9,2.2-5.6-7.6-7.3-12.1c-1.4-3.6-3.2-7.5-5.9-10.3
		c-1.8-1.8-5.8-4.5-6.1-7.2c0.6,0.4,0.9,1.1,1.6,1.4c0.1-2.7-7.9-8.9-9.8-10.3c-4-2.9-14.6-8.9-19-5.5c-3.1,0.6-6.7-2.7-9.9-3.2
		c-3.4-0.5-6.7-0.3-9.4-2.6c-4-3.5-8.8-7.4-12-11.7c-1.8-2.4-2.8-6.2-5.2-7.9c-2.6-1.9-5.2-2.1-8.1-3.2c-2.9-1.1-4.6-1.9-7.8-2.4
		c-3.5-0.5-6.4,0.3-9.5-1.6c-2.1-1.3-4.6-0.1-6.8-1.2c-2.5-1.2-4.7-3.7-6.9-5.3c-4.7-3.4-8.7-6.9-10.7-12.5
		c-2.6-6.9-0.7-12.5,0.9-19.1c1.8-7,11.1-7.2,16.1-10.2c4.6-2.8,8.6-5.4,13.4-7.9c4.9-2.6,8.1-5.5,13.7-5.6
		c3.8-0.1,8.7,2.3,11.9-0.5c2.5-2.2,5.2-3.2,7.4-5.9c4.2-5.3,8.7-7,10.1-14.3c0.5-2.4,0.6-5,1-7.3c0-0.1,1,0.1,1.1-0.3
		c0.4-1.1-0.6-2-0.2-3.4c2.5-7.2,0.7-15.3,1.4-22.7c0.4-4.1,1.5-4.6,3.3-8.1c1.1-2.1,0.9-4.8,1.7-7.1c1.1-3.4,0.5-6.8,1.3-10.3
		c0.4-1.4,0.9-2.6,0.7-4.1c-0.2-2.4-2.3-4.5-2.3-6.8c1.5,0,3.1,0.9,4.6,0.2c2.8-1.2,2.2,0.9,4.3,3c0.3-0.7,0.6-1.1,1.2-1.2
		c1.9,3.6,6.1,2.2,2.7,0.5c1.6-3.3,5.8,0.8,8.5-3.7c-1.1-0.2-2.2-0.1-3.2,0.3c0.6-2-0.5-3.6-2.7-4.4c-3.7-1.4-2.7,2.2-5.5,3
		c-2.9,0.8-1.9-4.2-1.2-5.4c1.6-2.8,3.7-0.5,5-1.7c2.1-2.1,5.5-7.2,0.7-8.8c-2.1,1.2-2.9,8.3-5.5,6.2c-2.9-2.3-0.6-8.7-0.8-11.9
		c-0.3-4.2,2.2-5.8,5.7-7.6c3.3-1.7,7.9,1.3,10.8-0.8c-0.5-1.3-1.5-1.4-2.4-2.4c1.6-1.6,2.8-1.5,2.4-4.5c-3.2-0.9-3.9,2.1-5.3,3.8
		c-1.8-0.5-4.5,1-5.3,0c-1.9-2.5-2-6.7-2.8-9.6c-1.5-5.7-3.2-11.2-5.2-16.7c-1.1-3.2-7.3-13.3-2.4-14.8c2.9-0.9,3.3-1.8,4.2-4.5
		c1-3,4.4-2.5,4.9-5.6c-2.2-0.5-3.8,1.1-5.4,2.3c-1.5,1.3-2.6,5.3-4.1,5.8c-3.2,0.6-6.8-10.3-7.3-12.4c-1-4.2-3.5-8.4-5.4-12.3
		c-1-2.1-3.1-4.2-3.5-6.4c0.7-2.6,4.3-0.2,6.2-0.8c1.7-0.6,4.1-1.1,4.1,1.5c-0.8,1.5-3.1,2.6-0.4,3.8c2,2.3,3.1,6.4,3.9,9.2
		c0.4,1.6,0.8,4.1,2.6,4.7c1.5,0,1.2-2.6,0.8-3.4c-3.4-7.5,2.3-1.5,5-4.8c-2-0.7-6.5-0.2-7.5-1.7c2.4-1.9,3.2-1.6,4.7-4.3
		c1.1-2.1,1.6,1.2,1.7,1.9c1.8-1.7,2.9-2.5,4.5-4.8c1.2-1.7,3-2.3,3.4,0.2c0.2,0.3,4.3,3.2,4.6,3.3c2.9-0.1,0.3-3,0.3-4.1
		c-0.4-1.1,2.2,0-0.1-2.2c-1-1-3.4-0.2-4.7-0.5c-1.3-3-1-0.5-1.9-1.3c-3.1,0.3-1.3-5.1-3.5-4.5c-0.5,0.1-2.4,4.4-3.5,1.9
		c-1-2.3,0.3-3.9,2.1-4.9c4.8-2.6,1-3.1-2.1-3.6c-2.9-0.5-9.6-0.6-11.7,1.9c-1.3,1.5-2.7,3.2-2.8,5.3c-0.1,4.2-1.4,0.6-3.5-0.2
		c-1.2,1.4-2.5,4.4-5,4.4c-2.6,0-4.9-8.8-5.4-10.7c-1.9-7.2-2.1-15-6-21.5c-3.6-6-7.6-11.3-12.2-16.6c-1.7-2-11.2-16.5-4.2-16.4
		c0,2-1.5,3.7-0.2,5.5c1.8-1.6,0.6-3.6,3.7-4.2c2.1,0.6,3.2,5.7,4.6,7.5c1.6,2,4.3,3.3,5.4,5.1c-4.5,1.7,2.8,1.7,2.8,3.3
		c0,1.4-2.7,0.8-3.5,1.1c0.7,1.2,2.3,1.1,0.6,2.5c1.1,0.8,2.3,1.5,3.5,2.3c0.2-0.8,0.5-2.3,0.3-3.2c2.9,0.9-0.2,4.6,2.8,5.4
		c0.1,0,0.7-1.7,0.9-1.9c0.7-0.7,1.4,0.7,1.4-2.3c0-2.8,2.2-2.9,2.5-5.2c-4.9,0.1-0.8-4.1-1.3-7.5c-3.6,4.7-1.7-2.9-1.9-4.4
		c-0.2-1.6,1.6-1.8,1.4-3.2c-0.2-1.4-2.6-1.9-2.2-3.5c0.3-1.4,2.4-1.1,2.5-2.4c0.1-1-2.5-2.3-3-3.3c-0.2,0.4-1,1.7-1.4,2.2
		c-2.2,2.2-2.5,3.2-5.6,2.3c-1.9-0.6-3.7,1-5.3-0.3c-1.4-1.2-2.4-3.2-2.2-5c2.2-0.6,0.8,0,2.1-2.7c1.7-0.3,1.8,1,3.3,1.5
		c1.2,0.4,4.5-0.1,5-1.1c1.8-0.6,3.2-3.3,4.8-3.5c0.6-0.1,1.3,0.6,1.9,0.2c0.4-0.7,0.8-1.4,1.2-2.1c1.2-1.4,2.2,0.4,3.4-1
		c1.5-1.7-1.1-1.1-0.9-3c-2.8,1.1-5.2,3.4-7.9,5.1c-1.6-4.2-1.3,0.5-4.5,1.5c-2.4,0.8-8.4-2.4-4.7-3.5c1.7-0.5,5.8,5.3,4.7,0
		c-0.4-2.1,1.1-3,2.6-4.2c1.4-2.8,1.4-3.8,2.5-6.6c6.4,2.7,0.7-2.8-2.1-3.4c-0.9,3.4-0.9,9.6-5.3,11.3c-0.1-0.1-0.3-0.2-0.4-0.4
		c2.8-4.6,0.1-1.4-1.7-2.5c1.6-4.1-1.8-2.2-3.4-2.2c-2.3-1.8,0.7-4.5,0.6-6.7c-1.9-0.5-2.8,1.4-4.1,2.8c-1.1-1.9,1.8-3.5-0.7-3.7
		c-1.4,1-3.4,2.2-4.2,3.8c1.3,1.2,0.2,5.4,4.8,3.4c2.9,0.3,0.1,4.2,1.7,4.8c1.8,0.7,1.2-1.1,2.5-1.9c0.6,1.2,1.9,2.6,2.8,3.7
		c-0.9,0.4-2.2,0.6-3.2,0.8c-1.2,0.7-0.3,2.9-2.4,2.2c-1.6-1.6-3.3-1.8-4.8-3.2c-1.6-1.5-2.2-4.4-3.7-6.2c-2.4-2.9-6.5,0.1-8.3-2.2
		c-1.6-1.9-5.8-3.7-6.2-6.1c-0.6-4.1-1.4-5.6-3.3-9.1c-1-1.9-4.3-5.5-4.2-6.9c6.3-1.6,2-5.8,0.7-9c-3.1,2.6,4.8,5.7-0.7,7.2
		c-2.9,0.8-3.9,2.2-1.1,4.4c1.9,1.5,6.5,7.3,7,9.9c0.6,3,0,5.8,2.7,8c4.2,3.4,7.2,7.4,10.3,11.8c1.8,2.5,8.4,1.2,2.8,4.9
		c2.8,0.9,4.3,2.9,4,6c-0.3,2.4-5.7,3.3-7.7,4.4c-5.1,2.7-6.2-8.5-7.1-11.8c-1.8-6.9-9.4-12.7-12.8-18.9c-2.6-4.7-5.6-8.6-8.7-12.9
		c-6.3-8.9-14.2-16.7-19.5-26.3c-2.9-5.3-8-10.2-11.5-15.2c-2.2-3.3-4.7-2-2.1-6.5c1-1.7,0.8-2.3,2.1-3.7c1.7-1.8,0.5-4.4,0.9-6.5
		c0.7-0.1,0.7,0.5,1.4,0.5c0.2-3.3,2.2-0.3,3.5-2.7c5.7,6.7,0.9,2.3,3.6-1.7c0.9,0.8,1.3,2.8,2.5,3.2c1.3-1.7-0.2-3.8,1.5-5.8
		c1.8-2.2,0.9-0.6,2.4,0.2c1.9-0.7,6.3-11.3,0.3-5.1c-0.5-0.7,0-4.6-1.7-3.8c-1.5,1-0.3,3.1-1,4.5c-0.8-1.2-1.4-6.7-2.4-6.3
		c-1.5,0.6-1.2,4-0.7,5.2c0.3,0.7,3.1,5.2,0.2,4.6c-0.9-0.2-5.4-2-5.8-1.6c-1.8,2.2,2.7,2.1-2.6,3.9c-2.4-1.8-2.7-1.9-4.6,0.2
		c1.4,3.4-3.6,2.1-1.5,5.2c1.2,1.7-0.3,7.2-1,8.7c-2-1-2.7-4.2-4.1-5.9c-1.4-1.6-2.8-2.9-4-4.7c-3.2-4.9-0.2-5.1,1.8-9.1
		c-0.8,0.3-1.4,0.5-2.2,0c0.7-1.1,2.9-2.6,2.6-4.1c-1.6,0.2-2.8,1-4.1,2c-1.6,1.3-0.3,4.4-2,5.3c-1.4-0.9-2.6-3-3.4-4.5
		c-1.2-2.2,4.9-2.4,3.9-5.8c-2.1,0.3-2.6,3-4.9,2.4c-2.6-0.7-4.4-3.1-5.6-5.3c-0.2-0.7-0.6-1.2-1.4-1.6c-2.7-2.1-1.7-1.8-2.1-4.9
		c2-1.9,4.1,2,6.1-0.6c7-9,2.4-21.7-4.4-29.1c-3.7-4-4.9-9.3-8.5-13.1c-3.8-4-6.6-8.8-10.3-12.8c-3.1-3.3-5.1-7.7-8.5-10.6
		c-1.9-1.6-4.5-3-6.1-4.8c-1-3.2-3.1-1.6-5-3.8c0.6-0.6,1.2-1.3,1.9-1.8c0.6-1.2-1.1-3.4-0.2-4.2c1.2-1.2,2.2,0.6,3.3,1.2
		c2.8,1.5,8.2,0.6,10.8,0.3c3.6-1.2,4.3-2.3,8.4-1.6c1.5,0.3,6.1,1.2,7.2-0.6c1.2-1.9,1.6-2.5,3.9-0.4c-0.5,1.4-2.5,1.2-3.2,2.6
		c-0.8,1.5-0.4,3.6-0.1,5.1c0.7,3.7-2.3,7-3,1.9c-0.5-0.8-1.4-0.2-2-1c0.6-2,0-2.3-1.7-3c-2.3,2.4,1.6,7-3,5.3
		c-0.1,2.4-2.9,4.7,1.5,5.7c1.4-0.2,0.1-3.3,2.6-2.7c0,1.2-1.9,3.1,0,3.9c0.9,0.1,1.8-0.9,2.1-1.5c1,0.8-0.7,10.3,1.3,9.2
		c3-2,0.9-9.5-0.2-11.8c4.4-1,3.4,12.1,4.2,14.5c2,6.2,12,9.6,11.6,16.7c-0.8-0.2-7.9-8.8-6.9-4.9c1.1,4.1,5.1,6.2,8.5,8.2
		c1.6,0.9,8.1,3.2,8.3,4.8c0.2,1.3-3,3.3-3.5,4.9c-0.3,1-0.3,5.4,0.7,6.2c2.2-2.4,4.5,1.9,5.5-1.9c0.9-3.4,1-0.5,1.8-1.8
		c2.6-1,0.8-6.2,0.3-7.9c-1-3.8-2-4,2.4-4.6c1.6-0.2,3.7-0.9,4.2-2.6c0.8-2.9-2.2-2.2,0.3-5c2.8-0.6,1.2,5,1.3,6.2
		c1.3-0.5,1.8-1.4,3.1-1.6c-1.3,2.2,1.6,1.3,1.3,3.1c-0.1,1-2.8,1.2-3.6,1.7c-1.8,1.2-6.1-0.7-5.1,2.9c0.5,1.7,1.5,4.1,2.7,5.5
		c4.4,5.1,9.7,0.8,13.5,5.6c3.1-3.5-4.1-4.7-1.5-8.6c0.7-1,2-1.1,2.5,0.1c1.2,2.7,1.3,1,3,0.9c2.9-0.3,2,4.7,6.5,3.1
		c1.4-1.3,1.1-1.1,2.4-0.4c0.8,3.6,2.6,2.2,4.3,4.5c-1.5,0.8-1.1,0.2-1.4,2.4c-0.3,1.9-3.7,2.3-3.7,3.4c0,1.9,4.1,3.9,5.7,3.2
		c1.9-0.9-2.5-3.5,0.9-4.4c1.8-2.4-0.8-4.1,2.5-4.8c1.2-0.2,5.3-2.2,5.9-0.4c0.9,2.7-0.2,2.4,3.1,4.1c4.5,2.2,2.9,8,8.6,8.6
		c5.9,0.6,8.4-1.7,11.2,5.2c1.1,2.7-0.7,1-1,1.2c-4,0.1-3.2,1.5-3.8-2.7c-1.2-0.6-0.9,0.2-1.9,1.3c-0.9-0.2-0.2-0.1-1-1.2
		c-0.7-1.1-2.7,0-3.9,0.2c0.3,1.7,2,2.4,2.2,4.1c-5.4,0.8-2.8,2.7,0.7,2.8c5.5-2.1,3.9,2.3,3,5.4c1.7,2.4,5.3,3.9,4.5,7.1
		c-0.2,0.7-0.3,3.3,1.4,2.7c0.8-0.3,0.5-3.6,1.5-4.5c0.6,1.2,1.7,1.8,3,1.3c-0.1-0.1-0.9-1.8-0.7-1.9c2.3-1.3,3,2.8,4.4,1.5
		c1.4-6-8.8-2.2-8.6-6.3c1.2-0.1,1.3-1.5,2.6-1.3c2.2,0.3,3.4,1.6,5.9,1.1c0.4-0.8-0.4-1-0.3-1.8c2.1-0.4,2.7,1.1,4.2,0.4
		c0-2.9,0.5-1.9,2.4-3.4c0.9-0.7,1.5-3.9,3.1-2.9c2.4,1.5-1.9,6-1.9,7.5c-0.1,1.5,0.1,3.3,0.9,4.7c1.4,2.3,3,0.4,5.1,0.6
		c-4.2,2.2,4.5,5.5,0.6,6.6c-1,0.3-5.1-5.3-6.9-5.9c1.5,1.1,2.8,4.4,3.9,6.3c0.8,1.4,0.7,3,1.6,4.2c1.2,0.5,2.6,0.5,3.9,1
		c0.6,0.2,1.7-2.4,2.1-0.4c0.5,2.7,3.1,4.3,3.5,6.9c-0.8,0-3.7-0.6-4.1,0.7c-0.8,2.6,2.5,1.5,3.5,2.2c2.8,4,7.8,5.3,7,10.8
		c-0.6,3.6-4.1,1.3-6.7,1c-4.8-0.4,0.9,3.1,2.7,3.3c-0.5,0.2-0.9,0.4-1.4,0.6c0.6,1,2.2,0.5,3.1,0.8c1.2,2.6-1.6,2.5-2.5,3.9
		c0.8,0.3,2.1,1,2.6,1.8c1.3,2.4,1.2-0.3,2.9,0.8c1.2,0.8-0.3,6.1,0.8,8.2c1.2,2,0.4,3.9-2.4,2.4c-0.9-0.7-1.4-1.6-1.5-2.8
		c-1.1-0.7-2.8,0.5-2.5-1.6c0.5-2.5-4-2.4-2-3.6c-2.1-0.9-3.2,1.9-5.1,1c-3.8-1.8-1.3,0-4.7,2c-1.4-1.2,0.3-3.1,0.3-4.5
		c0-2-1.9-2.8-2.7-4.3c-1.2,2.3-1.3,13.7,1.2,14c1.5,0.2,1.4-1,1.3-2.3c0.9-1.5,1.9,0.3,2.5-0.4c1.9-2.1,8.5,1.1,9.8,2.5
		c-0.1,2.7-2.7,4.1-4.2,5.2c-0.2,0.7,1.8,10.2,2.3,10.6c1.4,1.4,3.1,1.9,4.6,3.3c1.4,1.3,3,0.3,4.5,0.8c4,3.2-0.9,6.1,2,9.5
		c1-1.5,1.4-1.3,2.2,0.6c1.3,3.1,3.9,6.7,6.1,9.2c1.8,2.1,2.9,4.2,5.8,5.1c2.7,0.8,4.5,1.4,2.4,4.4c-1.4-0.4-2.5-1.2-2.1,1.4
		c0.5,3.1,4.7,1.8,7.3,2.8c0,0.2,0,0.4,0,0.6c-1.4,0.4-4.5-0.3-5.5,0.7c-1.7,0.4-4.3-2.8-5.5-1.5c-0.9,1.5,1,7.1,1.9,8.3
		c1.2,1.5,0.9,4.6,0,6.3c-0.2,0-0.3-0.1-0.5-0.1c0-1.2-0.1-2.3-0.3-3.5c-0.3,0.2-0.7,0.4-1,0.6c0.2-2.2-1-4.1-2.9-5
		c-0.9,2.5,3.6,7.1-1.1,6.7c0.2,2.2,3.1,1.5,2.3,4.6c-0.2,0.8-2,0.8-2.2,0.8c-0.7,2.4,1.5,3.2,0.9,5.5c-2.2,7.8,10.1,2,12.1,3.7
		c-1.7,4-9.1,3.7-11.9,2c1.3,3.7,4.1,5.3,4.3,9.5c0.2,2.5,1.9,6.8,3.1,8.8c0.5,0.8,1.2,4.2-0.8,1.5c-1.2-1.7-1.3-2.9-3.5-1.1
		c-2.8,2.3-2.3-0.3-2-1.8c-1.2-0.9-2.5,0.6-2.8-1.6c0-0.1,0.1-1.7-0.5-1.9c-2.9-0.4-7.2,2.3-7.1,5.3c1.1-0.9,5.9-2.4,5.4,0.4
		c-7.3,2.1,0.5,1.3-0.1,4.8c-0.4,2-1.2,3.8,0.4,5.6c1.2,1,1.6-0.7,1.3-1.7c-0.6-2.3,0.7-2,2-3.9c1.4-1.9,5.5-2.2,7.3-1
		c1.8,1.2,3.7-0.8,5.7,0c2.8,1.1,3,3.9,0.7,5.7c-3.2,2.5,1.6,9.1,1.9,4.4c0.2-2.6,0.8-3.4,1.7-5.9c0.6-1.9-0.4-4,1.1-5.5
		c1.1,1.9,0.5,3.9,2.3,5.4c1.7,1.5-0.2,2.9,0.5,4.6c2-1.3,7.5,1.8,4.2-3.1c-3.5-5.3,5.8-3.1,6.8-0.4c1,2.6-1.3,3.6-0.9,6.1
		c0.5,2.7,4,1.6,5.5,0.8c2.6-1.5,1.8-2.2,4.4-1.2c2.4,0.9,2.4-3.4,4-1.1c1.3,1.8,2.9,1.1,4.2,2.8c1.8,2.4,4.7,4.4,4.2,7.8
		c-0.4,2.6-0.9,4.9-0.8,7.7c0.1,3.8,2.5,12.7,8.2,11.6c2.8-0.6,5-0.3,7.8-1.6c1.8-0.8,3.2-3.2,5.3-3.1c0,0,2.1,12.4,5.1,6.7
		c-3.5-0.7-2.4-6-3-8.4c-0.4-1.6-1.4-2.7-2.2-4.1c-1.5-2.5-0.6-5.4-0.8-8.1c-0.3-4.7-2-7.8-4.3-11.7c-1-1.8-2.2-1.9-3.6-3.3
		c-0.9-2.4-0.7-2.6-2.6-4.4c1.6-1.6,6.7,1.9,7.1-2.1c-1.5-0.6-3.8,0.4-5.2-0.8c0.7-1.4,2.3-1,3.6-1.3c-0.8-0.5-2-1.3-2.7-1.9
		c3.1-0.9,7-0.3,5.5-4.8c-0.4,0.5-1.3,0.9-1.8,1.2c-0.7-2.6-1.5-1.2-0.9-4.1c-1.1-3.9-3-1.6-1.1-6.1c1.3-3.2,2.8-4.2-0.8-5.4
		c-1.6-0.5-1.8-2.1-2.6-3.3c-1.1-0.8-2.3-0.9-3.5-1.5c-2-0.9-4-2-4.5-4.3c-0.5-2.8-1.8-7.1,2-6.6c3.4,0.5,5.4-1.2,6.9,2.6
		c0.5,1.3,3.3,3.6,4.6,3.3c-0.3-5.6,8,2.3,3.6,5.5c-1.8,1.3-0.5,3.1,1.5,2.6c3.2-0.9,5.1,4.2,3.6,6.6c-0.9,1.4-1.9-1.2-2.8-0.9
		c-2.5,0.8,1.1,4,3.5,2.9c1.9,1.3,1.1,3.5,0.2,5.5c1.2,5.8,2.5,0.6,5.6,0.1c-0.7-0.6-1.4-1.2-2.1-1.9c1.7-0.5,2.8,0.3,4.7,0.5
		c2.3,0.2,4.2-1.7,6.3-2.4c2.8-1,2.6,4.4,5.3,0.8c1.3,0.7,0.9,2.5,0.4,3.6c-1,0.1-2.1,0-3-0.3c-1.4,0.7-1.6,2.4-2.2,3.7
		c-0.8,0.8-3.7,1.5-4.8,2.3c-1.2,2.9-3.1,3-1.5,5.6c-0.3,2.1-0.3,3,2.5,3.8c0.2-2.8,2-0.9,0.5-4.5c0-2.2,0.8-3,2.6-1.6
		c2.3,1.7,1.4-2,4.4-0.7c2,0.9,2,2.5,2,4.5c0,2.6,3.3,3.9,2.4,6.5c-0.9,2.4,1.2,4,1.2,6.2c0,2.2-3.2,5.2-1.7,7.7
		c1.2-0.6,2.1-1.3,2.2-2.7c5.6,2.6-3.1,9-1.5,11.2c0.8,1,2.7-1.4,2.9,0.1c0.3,1.9,0,4.2,0.3,6.3c-1.1-1.4-1.9-2.9-3-3.8
		c-0.3,2.8,2.8,7.1,0.3,8c4.4,0.9,4.3,3.7,5.2,7.8c0.6,2.6,0.9,5.4,1.6,8c0.5,2,4.4,5.4,3.7,7.5c-1.5-1.4-4.9-0.8-2.3,1.5
		c2,1.8,4.9,0.2,7.1,2.5c2.3,2.4,3.7,4.8,5.5,7.6c1.1,1.7,4.3,3.2,4,5.4c-1.7-0.3-2.7-2.1-4.4-2.4c-1.5,0.7-4.8-0.1-5.3-1.9
		c0.7-1,2.4-0.9,3.4-1c-2.5-3.8-9.1-8.9-13.6-5.1c0.3,0.5,2.2,1.6,1.4,2.5c-0.3,0.3-0.2,3.3,0,3.5c0.7,0.7,2.1-0.8,3.4,0.4
		c1,1-0.8,1.4-0.5,2.3c0.7,2.4,0.5,3.5,3.7,3.6c2.6-4.3,3.7,1.5,4.6,3.1c2.6-1.5,5,2.9,5.4,0.8c0.4-2.3,2.4-2.4,3.9-0.8
		c1.6,1.6,0.1,3.5,0.2,5.3c1.1-0.3,3.5-0.1,4.5-0.7c0.2-0.9-1.5-6.2-2-6.9c-0.7-1-2.1-1.5-1.9-2.9c0.5-3,4.5,3.6,4.7,3.8
		c2,2.1,3.9,4.4,6.8,5.2C965.2,418.5,968.8,418.7,971.1,421C972,421.7,970.3,420.2,971.1,421z"/>
	<path id="path13" fill="#FEFEE9" stroke="#333" stroke-width="1.8425" stroke-linejoin="round" stroke-miterlimit="3.8637" d="
		M277.9,1377.2c-0.2,0.7-0.7,2.1-1.6,1.8c-0.8-0.2-0.9-0.8-0.5-1.9c-1-0.1-2-0.2-3-0.3c0.8-1,1-2,1.8-2.7c4,1.3,2.2-2.8,4.8-2.6
		C282.1,1371.7,278.8,1376.5,277.9,1377.2C277.7,1377.9,278.4,1376.8,277.9,1377.2z"/>
	<path id="path21" fill="#FEFEE9" stroke="#333" stroke-width="1.8425" stroke-linejoin="round" stroke-miterlimit="3.8637" d="
		M183.4,1422.8c-0.5,0.8-5.3,4.1-5.8,2.5C177.3,1421.7,182.4,1420.4,183.4,1422.8z"/>
	<path id="path23" fill="#FEFEE9" stroke="#333" stroke-width="1.8425" stroke-linejoin="round" stroke-miterlimit="3.8637" d="
		M202,1377.5c-3.5,2.2-4.8-5.3,0.7-3.6c1.2,1.2-3.7,0.3,1.4,1.3c-0.4,2-1,1.6-2.6,2.4L202,1377.5z"/>
	<path id="path25" fill="#FEFEE9" stroke="#333" stroke-width="1.8425" stroke-linejoin="round" stroke-miterlimit="3.8637" d="
		M229.1,1370c1.4,1.2,3.4,3.5,4.4,5.1c0.4,3.1,2,2.2,3.6,4.7c1.4,2.2,3.3,2.5,4.6,4.8c3.6,0.4,4,0.6,2.5,3.7
		c0.9,0.1,1.4,0.5,1.7,1.1c-2.8,0.8-5.4-0.2-8.3-0.2c-2.2,1.9-1.8-0.4-1.8-1.2c-2.2-0.9-5.3-0.3-6.2,0.9c3.3,3.5-2.6,5-3.7,7.7
		c1.5,1.1,4.8-2.6,6.2-3.6c0.9-0.7,4.3,1.1,5.2,1.7c3.1,1.8,6.3,0.4,3.1,3.8c1.1,0.6,2,0.8,3.4-0.3c1.9-1.4,2.9-0.2,5-1.7
		c2,2.4,2.7,2.9,1.9,5.4c-1,3.6-0.8,1.9-4.2,2.1c-0.1,0.2-0.3,0.4-0.4,0.7c1.4,1.3,4.6,1.5,5.5,3.3c0.3,0.7-1.1,1-1.3,1
		c-2,0.2-1.3-1.7-2.9-2.3c-4.7-0.2-1.3,3.9-1.9,4.2c-1.7,0.6-2.1-1.8-3.8-1.1c0.5,0.5,0.8,1.1,1.1,1.8c-4-0.4-9.6-1.1-13.3,0.7
		c-3.3,1.6-8.6,9.4-12.7,6.5c-2-1.5-6.5-0.4-7.3-2.8c-1-3.1-2.3-1.4-4.7-0.2c-3.6,1.7,2.8,4.4-2.8,1.8c-1.8,2.9-5,3.1-6.9,5.4
		c2.2,1.6,7.4-1.1,9.5-1.5c0,2.9-2.1,4.9-4.7,5.6c-0.8-1.9,0.9-3.7-1.8-2.5c-1.3,3.8-3.6,3.7-7,3.8c-5.2,0.2-4.8-0.4-3.9-5.7
		c0.9-5.6,7.3-2.4,9-6.7c-0.7-0.2-1-0.2-1.4-0.9c0.1-1.1,0.5-2.1,1.3-2.9c0-1.9-1.1-3.4-0.3-5.3c0.8-1.7,2.8-2.6,4.3-3.4
		c2.5-1.3,3.6,1.1,5.4,0.6c2.6-0.8-0.3-6.8-0.5-8c0.7-1.9,3.9-1,5.5-2.2c2.3-1.6,2.7-5,1.2-7.1c0.5-3.8-3.3-4.9-4-8.1
		c0.9-2.5,2.2-0.9,0.7-3.7c-1.5-2.6,1.1-2.3,0.6-5c-1.2-5.9,6.6-2.1,8.9-2.1c3.5,0,2.8-2.4,6.3-0.8c2.4,1.1,4.1,1.8,6,3.8
		L229.1,1370z"/>
	<path id="path39" fill="#FEFEE9" stroke="#333" stroke-width="1.8425" stroke-linejoin="round" stroke-miterlimit="3.8637" d="
		M109.8,1306.8c0.7-0.4,1.9-0.4,2.4,0.2c-0.6,1.3-2.5,2.2-4,2.3C108.6,1308.4,109.1,1307.5,109.8,1306.8
		C110.4,1306.4,109.6,1307,109.8,1306.8z"/>
	<path id="path41" fill="#FEFEE9" stroke="#333" stroke-width="1.8425" stroke-linejoin="round" stroke-miterlimit="3.8637" d="
		M101,1300.2c1.1-1.2,3.2-0.1,1.2,1.4C101.5,1301.3,100.6,1301.3,101,1300.2C101.3,1299.9,100.9,1300.4,101,1300.2z"/>
	<path id="path43" fill="#FEFEE9" stroke="#333" stroke-width="1.8425" stroke-linejoin="round" stroke-miterlimit="3.8637" d="
		M103.1,1296.2C105.1,1297.8,102.7,1298.8,103.1,1296.2C103.1,1296.2,103,1296.4,103.1,1296.2z"/>
	<path id="path45" fill="#FEFEE9" stroke="#333" stroke-width="1.8425" stroke-linejoin="round" stroke-miterlimit="3.8637" d="
		M104.8,1292.4c0.5-0.4,1-0.3,1.4,0.1c-1.4,0.3-1.8,1.1-1.3,2.4C102.6,1294.3,104.5,1293.2,104.8,1292.4z"/>
	<path id="path47" fill="#FEFEE9" stroke="#333" stroke-width="1.8425" stroke-linejoin="round" stroke-miterlimit="3.8637" d="
		M133.4,1265.6c-0.7,2.4-4,2-6,2.4c0-3.1,3.8-4.6,6.1-2.4H133.4z"/>
	<path id="path49" fill="#FEFEE9" stroke="#333" stroke-width="1.8425" stroke-linejoin="round" stroke-miterlimit="3.8637" d="
		M121.5,1268.8c-2.2,1.5-6.8,2.4-9.4,1.6c0.9-1.8,3.2-1.7,4.8-2.7c1.3-0.8,8.3-1,4.5,1.4L121.5,1268.8z"/>
	<path id="path51" fill="#FEFEE9" stroke="#333" stroke-width="1.8425" stroke-linejoin="round" stroke-miterlimit="3.8637" d="
		M105.3,1267.8c-1.6,0.2-3.9,2-5.4,0.4C100.7,1267,106.1,1265.1,105.3,1267.8z"/>
	<path id="path53" fill="#FEFEE9" stroke="#333" stroke-width="1.8425" stroke-linejoin="round" stroke-miterlimit="3.8637" d="
		M117.2,1254.6c1.6,2.4,2.6,6.7,1.7,9.5c-1.5,4.8-4.4,0.6-5.8,0.2c-1.7,0.8-1.1,2.9-3.4,1.9c0.2-1.1-0.9-7.3-1.7-8.2
		c-4-3-6.4,8-10.8,6.6c-0.6-8,16.8-15.5,20.4-9.4L117.2,1254.6z"/>
	<path id="path55" fill="#FEFEE9" stroke="#333" stroke-width="1.8425" stroke-linejoin="round" stroke-miterlimit="3.8637" d="
		M112.1,1249.6c-0.7,0.4-1.5,0.3-1.8-0.3c0.6-0.4,1.2-0.8,1.7-1.2C112.1,1248.3,112.4,1249.2,112.1,1249.6
		C111.7,1249.8,112.4,1249.2,112.1,1249.6z"/>
	<path id="path57" fill="#FEFEE9" stroke="#333" stroke-width="1.8425" stroke-linejoin="round" stroke-miterlimit="3.8637" d="
		M138.3,1205.6c0.4,2.1,1,4.3,1.2,6.6c2,2.3,3.4,4.9,4,8c-2.2-0.6-2.9,1.9-5.2-0.9c-1.8-2.2-4.3-2.1-6.2-4.5
		c-1.2-2.8,3-7.9,5.5-10.6C137.8,1204.6,138.3,1205.4,138.3,1205.6z"/>
	<path id="path59" fill="#FEFEE9" stroke="#333" stroke-width="1.8425" stroke-linejoin="round" stroke-miterlimit="3.8637" d="
		M683.3,796c-1.2,0-2.3-0.3-3.4-0.9c1-1.4,4.1-0.8,5.5,0.1c-1.1,0.9-2.4,0.6-4,0.6L683.3,796z"/>
	<path id="path61" fill="#FEFEE9" stroke="#333" stroke-width="1.8425" stroke-linejoin="round" stroke-miterlimit="3.8637" d="
		M739.5,755.1c2.1-2.5-0.5-2.1-1.5-1.7c-0.9-0.8-1.4-4.1,0.1-4.6c0.8,0.2,4.6,5.4,5.4,3.2c0.2-0.6-3-3.8-3.1-5.2
		c-0.1-1.3,1-6.6,1.9-7c0.5,1.6,0.4-2.2,0.9,2.1c0.2,0,0.5,0.1,0.7,0.1c4.2-6.7,2,0.4,3.2,2.8c1.2-0.9,3.8-0.5,4.8-2.5
		c-0.8,0.1-1.9,0.2-2.6-0.2c2.8-1.4,3.7-4.5,4.2-7.5c2,1.5,0.4,4.6,0,6.5c-0.4,1.9,0.8,2.2-0.7,4c-1.5,1.7-1.1,5.2-2.4,6.4
		c-0.4,0.5-1.3-0.3-1.8-0.2c-0.5,0-0.9,0.3-1.1,0.9c-0.8,1.6-1.8,1.1-3.2,2c-0.6,0.4-8.8,7.3-6,1.9l-0.3,0.6
		C738.2,756,738.8,755.4,739.5,755.1C739.9,754.5,738.8,755.4,739.5,755.1z"/>
	<path id="path63" fill="#FEFEE9" stroke="#333" stroke-width="1.8425" stroke-linejoin="round" stroke-miterlimit="3.8637" d="
		M746.8,768.2c0.7-0.8,1.5-1.4,2.8-0.8C751.6,769.2,747,770.6,746.8,768.2z"/>
	<path id="path65" fill="#FEFEE9" stroke="#333" stroke-width="1.8425" stroke-linejoin="round" stroke-miterlimit="3.8637" d="
		M755.2,742.3c0.2-0.7-0.4-0.9,0.4-1.4c0.4,1.2,1-0.3,0.1,2.2C754.8,743,755.3,742.7,755.2,742.3z"/>
	<path id="path69" fill="#FEFEE9" stroke="#333" stroke-width="1.8425" stroke-linejoin="round" stroke-miterlimit="3.8637" d="
		M762.6,763.2c-0.3,0.2,1.6-8.4,2.4-3C765.2,762,764.5,765.6,762.6,763.2z"/>
	<path id="path71" fill="#FEFEE9" stroke="#333" stroke-width="1.8425" stroke-linejoin="round" stroke-miterlimit="3.8637" d="
		M778.5,784.8c0.8-1.5,0.2-2.2,1.6-2.4c0.4,1.5-0.1,2.6-1.4,3.3c-0.3-0.7,0.2-1.3,0.1-1.5L778.5,784.8z"/>
	<path id="path73" fill="#FEFEE9" stroke="#333" stroke-width="1.8425" stroke-linejoin="round" stroke-miterlimit="3.8637" d="
		M773.6,790.4c2.4-0.8,2.6-1.7,5.3-2c1.1-0.1,2.5-1.2,3.2-2c0.4-0.4,2.3-4.5,3-2.2c0.8,2.8,3-0.8,3.6-1.1c4.1-2.7-2.6-2.1-3.1-3.8
		c0.8-0.4,6.5-3.3,6.7-2.2c0.3,1.9-0.6,8.5-2.1,9.6c-1.5,0.2-9.1,0-9.1,2.7c0,1.2-6.1,0.8-6.8,0.5c0.2-0.1,0.7-0.4,0.9-0.6
		L773.6,790.4z"/>
	<path id="path75" fill="#FEFEE9" stroke="#333" stroke-width="1.8425" stroke-linejoin="round" stroke-miterlimit="3.8637" d="
		M833.8,751.1c0.7-1.3,5.3-8.2,6.4-4.1c0.4,1.9-4.8,5.5-6.6,5.7c-0.3-0.8-0.1-1.2,0.6-1.9L833.8,751.1z"/>
	
		<path id="polygon77" fill="#FEFEE9" stroke="#333" stroke-width="1.8425" stroke-linejoin="round" stroke-miterlimit="3.8637" d="
		M676.5,986c1.7-0.8,1.5,0.5-0.1,0H676.5z"/>
	<path id="path91" fill="#FEFEE9" stroke="#333" stroke-width="1.8425" stroke-linejoin="round" stroke-miterlimit="3.8637" d="
		M917.1,306.8c-1.4-1.1-0.2,0-1.2-2.2c-1.7-0.7-3.6-2.1-0.5-3.1c1.3,0.1,7,7.2,1.4,5.4L917.1,306.8z"/>
	<path id="path95" fill="#FEFEE9" stroke="#333" stroke-width="1.8425" stroke-linejoin="round" stroke-miterlimit="3.8637" d="
		M890,250.5C893,250.9,889.4,251.2,890,250.5C890,250.5,889.9,250.6,890,250.5z"/>
	<path id="path97" fill="#FEFEE9" stroke="#333" stroke-width="1.8425" stroke-linejoin="round" stroke-miterlimit="3.8637" d="
		M891.7,274c-3.4-0.5-0.1-2.6-3-4.3c-1.4,2.2-3.1,1.8-3.2-1.1c-0.3-5.8,0-0.6-3.6-2.5c-0.9-4-0.3-0.7-1.8-1.6c-2,0.4-7-3.8-6-5.9
		c0.4,0.4,2.4,2.9,2.9,2.7c0.8-1.7,3.3-7.7,0-8c-2,0.7-3.7-1.9-1.3-2.1c2.7-0.2,4.3-0.7,2.1-2.8c-2.7-2.7,1.4-4.7,3.7-4.4
		c1.4,1.1,0.8,2.9,2,3.9c0.7,0.6,2.1,0.1,2.2,1.3c0.1,1.9-3,0.3-1,3c1.9,2.5,4.9,2,7.3,3.7c-0.9,3.6-5.2,5.1-1.4,8.7
		c2.7,2.6,5.7,6.4,2.4,9.8c-0.5-0.2-0.9-0.4-1.4-0.6L891.7,274z"/>
	<path id="path99" fill="#FEFEE9" stroke="#333" stroke-width="1.8425" stroke-linejoin="round" stroke-miterlimit="3.8637" d="
		M854.2,261c-4.1,0-0.4-6.5,2.5-5.6c0.4,1.3,2.3,1.9,2.3,3.2C859,260.6,855.8,261.9,854.2,261C854.2,260.9,854.2,261,854.2,261z"/>
	<path id="path101" fill="#FEFEE9" stroke="#333" stroke-width="1.8425" stroke-linejoin="round" stroke-miterlimit="3.8637" d="
		M863.1,331.2c-1.4-1.5-0.4-6.5,2-5.8c0.3,1.2,1.5,9.5-2.2,5.4L863.1,331.2z"/>
	<path id="path103" fill="#FEFEE9" stroke="#333" stroke-width="1.8425" stroke-linejoin="round" stroke-miterlimit="3.8637" d="
		M860.2,324.7l-0.3,0.4c-0.4-0.7-3.1-1.3-3.8-0.6c-1.9,1.8-4.2-0.8-6-0.7c0.6-1.1-0.2-2.2-1-3.4c-0.8,0.4-1.9,1.8-2.9,1.7
		c-1.4-1.2,0.1-3.9,1.3-4.4c2.2,2.2,3.6-0.8,4.8-0.1c0.5,0.3,2.4,4.8,3.8,1.2c0.4-1,5.3-4.9,6.3-5c-0.9,1.9,2.1,1.7,1.6,3.6
		c-0.8,1.1-2.2,0.8-2.9,2.1C861.7,321.6,862.9,323.8,860.2,324.7z"/>
	<path id="path105" fill="#FEFEE9" stroke="#333" stroke-width="1.8425" stroke-linejoin="round" stroke-miterlimit="3.8637" d="
		M837.9,317.3c-0.9-3,2.6-3,2.7,0.6c0,1.4-1.2,2.3-2.2,2.7c-0.2-1.1-0.4-2.2-0.6-3.3C837.8,317.3,837.8,317.3,837.9,317.3z"/>
	<path id="path107" fill="#FEFEE9" stroke="#333" stroke-width="1.8425" stroke-linejoin="round" stroke-miterlimit="3.8637" d="
		M833.8,320.4c-1.6-1.7,0.4-3.1,2.2-2.6c2.1,0.6-0.3,4-2,3.8C833.3,321,833.3,320.6,833.8,320.4z"/>
	<path id="path109" fill="#FEFEE9" stroke="#333" stroke-width="1.8425" stroke-linejoin="round" stroke-miterlimit="3.8637" d="
		M837.1,300.5c0.7,0.4,1.3,0.6,0.6,1.8c-0.2,0-0.5-0.1-0.7-0.1C837,301.7,837,301.1,837.1,300.5z"/>
	<path id="path111" fill="#FEFEE9" stroke="#333" stroke-width="1.8425" stroke-linejoin="round" stroke-miterlimit="3.8637" d="
		M833.2,283c0.1-1.1-2-3.7-0.2-4.7c2-0.8,3.2,1.6,3.7,3c0.6,1.7,1,3.1-0.5,3.8c-1,0.5-3.6,1-4.5,0.3
		C831.8,284.7,832.6,283.4,833.2,283C833.2,282.5,832.6,283.4,833.2,283z"/>
	<path id="path115" fill="#FEFEE9" stroke="#333" stroke-width="1.8425" stroke-linejoin="round" stroke-miterlimit="3.8637" d="
		M779.9,156c-1-0.9-0.9-1.5,0.5-1.9c0.4,1,0.6,1.5-0.1,2.2c-0.6-0.2-0.5-0.5-0.8-1L779.9,156z"/>
	
		<path id="polygon117" fill="#FEFEE9" stroke="#333" stroke-width="1.8425" stroke-linejoin="round" stroke-miterlimit="3.8637" d="
		M776.4,156.3c0-0.4-0.6-0.4-0.3-1.1c0.2,0,0.5-0.1,0.7-0.1c0.1,0.6-0.2,0.9-0.2,1.4c-0.2-0.1-0.8-0.8-0.7-0.8L776.4,156.3z"/>
	<path id="path119" fill="#FEFEE9" stroke="#333" stroke-width="1.8425" stroke-linejoin="round" stroke-miterlimit="3.8637" d="
		M773.8,157.1l-0.7-0.1c0.5,0,0.4-0.8,1.2-0.2c-0.1,0.2-0.1,0.4-0.2,0.6c-0.4,0-0.8,0-1.2-0.3H773.8z"/>
	<path id="path121" fill="#FEFEE9" stroke="#333" stroke-width="1.8425" stroke-linejoin="round" stroke-miterlimit="3.8637" d="
		M754.6,132.9c-2.7,0.3-1.4-3.1,0.3-2.4c1.5,0.6,0.1,2.7-1.4,2.1L754.6,132.9z"/>
	<path id="path125" fill="#C6ECFF" stroke="#333" stroke-width="1.8425" stroke-linejoin="round" stroke-miterlimit="3.8637" d="
		M160,1290c1.6,4.4,0.5,8.2-3.4,10.9c-3.2,2.2,0.2,2.6,1.4,4.4c1.9,2.8-1.9,4.3-3.7,5.6c-0.5-2.5-1.4-6.2-1.1-8.9
		c0.4-2.8,4.1-4.1,4.9-6.9c0.3-1.1-0.4-7.8,0.1-7.9c1.6-0.4,2.1,2.2,1.9,3.4L160,1290z"/>
	<path id="path127" fill="#C6ECFF" stroke="#333" stroke-width="1.8425" stroke-linejoin="round" stroke-miterlimit="3.8637" d="
		M161.6,1276.8c0.2,1.6,1.9,2.9,2.5,4.9c1.1,3.6,4.1,1.9,6.9,3.5c2.2,1.2,11.8,7.3,8.7,10.4c-0.4-0.2-0.9-0.4-1.3-0.7
		c-1.3,1-0.8,0.3-2.5,0.9c-1.5,1.9-3,5.3-5.9,5.6c-1.3-3.1,4.3-4.7,4.3-8.1c0-3.3-2.5-6.3-5.7-7.2c-1.9-0.5-3.8,0.6-5.4-0.8
		c-1-1.5-0.6-3.3-1.8-4.8c-1.2-1.4-1.8-3.9,0.1-4.7c0.2,0.6,0.4,1.2,0.6,1.8L161.6,1276.8z"/>
	<path id="path129" fill="#C6ECFF" stroke="#333" stroke-width="1.8425" stroke-linejoin="round" stroke-miterlimit="3.8637" d="
		M189.1,1276.5c-1.9,2.9-6,8-9.8,7.5c-3.3-0.4-5.5-5.4-3.8-7.8c2,1.5,2.4,4.9,5.2,5.3c1.4-0.2,1.8-1.9,2.6-2.7
		c0.4,0.2,10-7.9,5.7-1.9L189.1,1276.5z"/>
	<path id="path131" fill="#C6ECFF" stroke="#333" stroke-width="1.8425" stroke-linejoin="round" stroke-miterlimit="3.8637" d="
		M224.7,1189.5c-1.1,3.4-2.1,12.3-5.5,13.9c-2.6,1.2-2.1,2.4-2.5,5c-1.8,1.1-2.4,2.7-1.3,4.4c1.2,1.9-0.7,2.6-1.2,4.2
		c-1.1,3-2.4,12.3-5.4,12.8c-3.3,0.6-0.5,4-3.5,4.9c-3.6,0.1,0-5.7,0.4-6.5c-2.2-2.3-9.4-0.5-12.3-2.3c-1.7-1.1-3.3-4.1-5.6-3.1
		c-1.8,0.8-3.9,0.5-4.5-1.5c3,0.5,3.2-1.6,5.7-2c3-0.4,4.1,2.9,6.1,4.3c5,3.4,13.6,3.3,13.8-3.8c0.1-3.7-1.9-6-3.9-8.9
		c-1.3-1.9-5.2-5.9-7.7-5.5c-1.7,0.2-7.1,2.1-8-0.4c-0.6-1.7,6.7-0.7,7.4-0.8c-1.2-2.5-1.9-6.5,1.6-3.4c2.7,2.4,6.3,8.5,10.8,6.2
		c3.6-1.8,9-3.3,4.4-7.6c-2.3-2.2-5.6-7.6-5.1-10.7c1,0.5,1.2,1,1.7,2c1.1,2.2,2,3,3.3,4.9c0.8,1.1,1.4,2.8,2.5,3.6
		c1.8,1.3,2.6-4.5,3.7-5.4c0.8-0.7,1.6-3.8,1.8-5c0.3-2-2.5-3.6-2.1-4.8c0.3-1.1,6.9-1.2,8.2-0.4c-0.9,0.5-1.7,0.8-2.7,1.3
		c-2,1-0.2,3.8-0.5,5.5L224.7,1189.5z"/>
	<path id="path133" fill="#C6ECFF" stroke="#333" stroke-width="1.8425" stroke-linejoin="round" stroke-miterlimit="3.8637" d="
		M197.3,1242.5c1.7,3,2.3,2.5,0.7,5.9c-1.2,0.7-1.8-0.2-1.9-1.4c-0.1-2.5-1.9-2.3-3.2-1.5c1.4,3-1.6,6.4-2.5,2.6
		c-1.8-0.8-3.5-1.6-5.2-2.5c-2.8,0.4-2.4,4.9-5.9,4.6c-0.4-2.1,3.9-3.8,2.4-6c-3-0.9-4.8,0.3-7.7-0.3c0.6-0.3-6,2.1-2.6-0.1
		c1.1-0.7,2-1.4,3.4-1.5c3.9-0.4,0.8-1.7,3-3.5c1-0.8,2,2.2,2.9,2.8c1.4,0.4,3.6-1.5,5.4-1.5c1.3,0,2.3,0.2,3.5,0.6
		c2.3,0.9,0.7-2,2.8-2.3c2.3-0.3,6.9-0.6,7.5,2.1c-1.9,0.2-5,0.4-1.6,3.1L197.3,1242.5z"/>
	<path id="path135" fill="#C6ECFF" stroke="#333" stroke-width="1.8425" stroke-linejoin="round" stroke-miterlimit="3.8637" d="
		M266.9,1174.4c-0.3,3.4,3.1,4.2,3.1,7.5c0,3.3,0.6,6.7,1.7,9.8c1.1,3.4,2.2,5.6,5.9,4.7c4.7-1.1,9.3-1.5,13.5-3.8
		c4.3-2.3,5.3-2.5,3,1.5c-0.2,0.4,3.7,5.3,4.3,5.8c1.7,1.5,1.3,3.9,0.5,5.7c-1.3,2.9-1.2,4.6-0.5,7.7c0.2,0.9,2.7,11.8-1.5,9.5
		c0.3,0.2-1.2-8.9-1.4-10.2c-0.3-1.6-1.5-2.4-1.7-3.8c-0.2-0.9,1.6-2.9,1.5-4.6c-0.1-1.4-3.3-7.7-4.1-8c-2.3,0.2-3.2,1.2-4.6,2.9
		c-2.2,2.9-4.6,1.1-7.7,1.8c-9.7,2.2-11.1-8.9-14.8-15.3c-1.9-3.3,0.6-6.2-0.7-9.3c-0.5-1.2-0.5-2.4-0.4-3.7c0.2-0.1,2.2-5.9,2.4-5
		C265.9,1170.6,267.1,1170.8,266.9,1174.4C266.8,1174.9,267,1172,266.9,1174.4z"/>
	<path id="path137" fill="#C6ECFF" stroke="#333" stroke-width="1.8425" stroke-linejoin="round" stroke-miterlimit="3.8637" d="
		M238.5,1126.6c0.3,1.1,2.6,11.5,0.7,10c-1.4-1.4-3.8-11.1-2.5-12.9c1.2,0.5,1.8,2.6,1.9,3.8L238.5,1126.6z"/>
	<path id="path139" fill="#C6ECFF" stroke="#333" stroke-width="1.8425" stroke-linejoin="round" stroke-miterlimit="3.8637" d="
		M337,1113.6c0,1.9-1.2,3.9-1.1,5.7c0.1,1.2,0.9,1.8,1,3c0.1,3.2-1,7.4-1.3,10.6c-0.3,2.9-0.2,4.8-2.2,7c-1.4,1.5-3,2.9-3.6,5
		c-1.5,4.7,3.2,7.9,1.8,2.5c-0.9-3.7,3.9,1.6,3.1,4c-0.4,1.2-2.1,0.9-2.5,2.2c-0.3,0.9,0.8,3.3-0.9,3.3c-1.8-1.5-1.5-4.2-3.7-5.1
		c-2.4-1-3.1,1.6-5.5,1.6c-0.9-0.5-3.8-0.3-3.6-1.7c1.8-1.5,4.8,0,6.2-2.4c-0.1-0.1,0.9-5.8,1.2-7.2c1-4.4,5.7-4.2,5.3-9.4
		c-0.4-5,0.7-9.2,2-14.1c0.5-1.8,2.2-6.6,1.7-7.7c0.6,0.3,4.2,1.7,2,3.5L337,1113.6z"/>
	<path id="path141" fill="#C6ECFF" stroke="#333" stroke-width="1.8425" stroke-linejoin="round" stroke-miterlimit="3.8637" d="
		M358.3,1120.7c-0.4,3.1-4.5,6.5-5.9,9.5c-0.9,2-2.9,3.7-4.1,5.8c-1.3,2.4-0.1,5.9,0,8.5c0,1.4-1.4,5.3-3.3,2.5
		c-0.5-1.4-0.1-3-0.2-4.5c-0.3-3.5-1-6.7-0.8-10.4c-2.2-1.9-3.2-3.3,1-3.2c3.2,0.1,7.5-2.9,8.8-5.9c1.1-2.5,1-3.8,4.2-4.2
		c0.7,0.6,1.1,1.3,0.3,2.3L358.3,1120.7z"/>
	<path id="path143" fill="#C6ECFF" stroke="#333" stroke-width="1.8425" stroke-linejoin="round" stroke-miterlimit="3.8637" d="
		M397.5,1102.1c0.2,2.3-0.9,5,0.6,7.1c1.1,1.6,5,2.1,6.8,3.4c-2.6,0.8-8.2,1.6-10.3-1c-1.6-2-3.4-8-2.2-10.6
		C393.8,1101.2,396.5,1100.9,397.5,1102.1C397.6,1102.7,397.1,1101.6,397.5,1102.1z"/>
	<path id="path145" fill="#C6ECFF" stroke="#333" stroke-width="1.8425" stroke-linejoin="round" stroke-miterlimit="3.8637" d="
		M420.4,1065.8c1.6,2.8-0.5,5.7,1.6,8.5c1.5,2,1.9,5.5,2.8,8.1c0.6,1.7-0.4,3.3,0.1,4.9c1.2,0.7,2.1,1.5,2.4,2.8
		c-2.1,2.9,1.5,9.3-2.1,10.2c-2,0.5-6.6,3.9-5.7-1.2c0.8-4.1,0.3-7.1,0.4-11.1c4-2.6-0.6-10.6-1.9-13.2c-1.1-2.3-1.4-4.9-1.2-7.4
		C416.9,1066.1,419.2,1063.7,420.4,1065.8C420.5,1066,419.9,1065,420.4,1065.8z"/>
	<path id="path147" fill="#C6ECFF" stroke="#333" stroke-width="1.8425" stroke-linejoin="round" stroke-miterlimit="3.8637" d="
		M455.4,1057c-1.7,3.3,2.3,5.9,1.2,8.6c-1.5,3.6,0.5,7.7-0.8,11.3c-0.3,0.2-6.8,4.9-6.4,3.2c0.3-1.3,2-2.9,1.7-4.2
		c-2.4-1.7-0.1-3.9-0.7-6c-5.9-1,0.9-2.3,0.8-4.6c-0.1-2.4,1.1-4.7,1.4-7.1C453.2,1053.9,455.2,1057.4,455.4,1057
		C455.1,1057.5,455.7,1056.4,455.4,1057z"/>
	<path id="path149" fill="#C6ECFF" stroke="#333" stroke-width="1.8425" stroke-linejoin="round" stroke-miterlimit="3.8637" d="
		M538,1004.8c0.4,1.9,0.5,2.8,2.4,3c1.2,0.1,1.9,2,2.6,2.9c0.1,2.4,2.3,2.4,3.4,3.6c-3.5,1.1-7.2-2.7-9.4-5.1
		c-1.6-1.9-2.2-3.9-1.4-6.4c0.8,0.4,3.1,1.2,2.6,2.7L538,1004.8z"/>
	<path id="path151" fill="#C6ECFF" stroke="#333" stroke-width="1.8425" stroke-linejoin="round" stroke-miterlimit="3.8637" d="
		M532.5,940.3c-1.3-0.9-2.5-0.9-3.8-1.6c-0.1-1.9,4-5.2,5.6-4.9c1.7,0.3,0,2.9,1.7,3.1c1.6,0.2,2.1-0.9,2,1
		C536.9,938.8,534.3,942.2,532.5,940.3z"/>
	<path id="path153" fill="#C6ECFF" stroke="#333" stroke-width="1.8425" stroke-linejoin="round" stroke-miterlimit="3.8637" d="
		M655.9,856.6c1.7-4.4-3.4-5.5,2.2-5.2c2.5,0.1-0.3,7-3.1,7.2c0.7-0.7,1-1.6,1.1-2.5L655.9,856.6z"/>
	<path id="path155" fill="#C6ECFF" stroke="#333" stroke-width="1.8425" stroke-linejoin="round" stroke-miterlimit="3.8637" d="
		M635.7,858.8c-0.4-2.9-1.1-5.3-1.9-7.9c3.5,0.2,4.9,7.1,5.2,9.6c-3,1.2-2.6-0.6-3.3-2.1C635.7,858.6,635.7,858.7,635.7,858.8z"/>
	<path id="path157" fill="#C6ECFF" stroke="#333" stroke-width="1.8425" stroke-linejoin="round" stroke-miterlimit="3.8637" d="
		M859,794.4c0.6-2.3,0.5-4.9,2.7-6.2c1.2-0.7,3.1-0.9,4.1-1.9c1.2-1.1,2.9-3.8,4.9-3c2.3,0.9,3.6,2.6,1.1,4.7
		c-0.6,0.5-2.2,1.8-3,1.8c-1.7,1.9-3.9,0.1-5.8,1.3c-2,1.2-1.6,5.9-4.5,4.9c0.5-0.9,0.8-1.9,0.9-3L859,794.4z"/>
	<path id="path159" fill="#C6ECFF" stroke="#333" stroke-width="1.8425" stroke-linejoin="round" stroke-miterlimit="3.8637" d="
		M1021.8,534.6c0-0.4-0.6-8.1,2.3-4.6c1.5-3.4,1.8-2.3,3.9-1.1c2-1.2-1-3,1-4.5c1.8,1.4,3,5.5,6.1,3.3c1.1,0.8-0.7,6.8-1.2,6.9
		c-1.1,0.2-2.4-1.7-4-1.5c-2.6,0.3-2.1-1.4-3.9-1.2c-1.4,0.2-4.4,7.2-4.4,1.7L1021.8,534.6z"/>
	<path id="path161" fill="#C6ECFF" stroke="#333" stroke-width="1.8425" stroke-linejoin="round" stroke-miterlimit="3.8637" d="
		M911.5,547.7c1.2-0.7,1.4-3.2,1.1-4.3c0.9-1.1,2.5-3.5,3-4.9c0.9-2.2,3.1-6.9-0.6-8.1c-1.5,1.1-1.5,3.2-4.1,2.8
		c-1-0.5-1.3-2.7-0.9-3.7c1.2-3.2,2.3-5.9,3.7-9c0.7-0.6,6.8-2.6,7.5-1.9c0.7,0.6-0.6,1.9,1.1,1.6c0.9-3.3,4.6-2.4,3.7,1.2
		c-0.8,2.9,1.7,0.9,2.2,0.2c2.6-4,3.2,6,6.6,4.6c1.4-0.6,2.1-5.3,4.1-3.9c2,1.4,0.5,5.2,2,7.4c2.7,4.1-8.6,11.5-11.4,11.9
		c-1.7,0.2-1.8,1.3-2.5,2.6c-1,1.7-1.3-0.7-2.9,0.3c-1.2,0.7-5-1.4-3.4,1.5c2,3.5-5.6,2.1-6.9,3.1c-2.6,1.9-3.9-0.5-1.9-2.4
		L911.5,547.7z"/>
	<path id="path163" fill="#C6ECFF" stroke="#333" stroke-width="1.8425" stroke-linejoin="round" stroke-miterlimit="3.8637" d="
		M867.7,392.7c-3.4,0.4-2.9,0.4-3.2-2.6c-1.5-1.6-2.7-0.2-2.7-3.5c2-0.6,1.6,1.1,3.4-0.6c1.4,0.4,0-0.8,1.5,1.3
		c1.3,1.8,4.5,5.9-0.3,5.3L867.7,392.7z"/>
	<path id="path165" fill="#C6ECFF" stroke="#333" stroke-width="1.8425" stroke-linejoin="round" stroke-miterlimit="3.8637" d="
		M970.3,472.5c-0.8-1-2.2-1.2-3.2-1.8c2.8-2.6,3.7-3.6,8.1-3.5c5.9,0.1,1.9,2.9,0.5,6.1c-1.5,3.4-1.7,0.2-2.3-0.5
		c-0.9-1.2-2,0.9-3.3-0.3L970.3,472.5z"/>
	<path id="path167" fill="#C6ECFF" stroke="#333" stroke-width="1.8425" stroke-linejoin="round" stroke-miterlimit="3.8637" d="
		M969.9,464.9c-0.4-1.4,3.4-7.8,5.6-6.3c0.6,2.2-2.3,1.4-1.9,4C973.9,465.2,972.7,465.4,969.9,464.9z"/>
	<path id="path169" fill="#C6ECFF" stroke="#333" stroke-width="1.8425" stroke-linejoin="round" stroke-miterlimit="3.8637" d="
		M957.6,461.5c-0.3-2.3-4-3.5-2.4-6.3c1-1.9,6.6-1.9,8.2-1.4C967.2,457.2,958.4,466.3,957.6,461.5z"/>
	<path id="path171" fill="#C6ECFF" stroke="#333" stroke-width="1.8425" stroke-linejoin="round" stroke-miterlimit="3.8637" d="
		M971.6,456.1c-1.9-1.8-5.8,0.2-5.9-3.1c1,0.3,2.3,0.5,3.2-0.4c1.8-1.9,5.6,0.6,7.7,1.1C982.5,454.9,973,456.5,971.6,456.1z"/>
	<path id="path173" fill="none" stroke="#646464" stroke-width="1.9843" stroke-linejoin="round" stroke-miterlimit="3.8637" d="
		M823.3,367.9c3.1,1.8,4.8,0.6,7.9-0.2c2.8-0.7,4.8,3,7.9,1c1.3-0.8,1.6-3.2,2.8-4c2.5-1.8,2-0.3,5.1,0.2c3.7,0.7,12.4-1.7,14.3-4.6
		c2.5-3.8,8.3-4.5,12.3-5.1"/>
	<path id="path175" fill="none" stroke="#646464" stroke-width="1.9843" stroke-linejoin="round" stroke-miterlimit="3.8637" d="
		M802.5,262.7c0.7-1.9,1.3-5.2,3.1-6.5c1.5-1.1,3.7-0.6,4.7-2.5c0.6-1.1,1.6-2.2,2.5-3.1"/>
	<path id="path177" fill="none" stroke="#646464" stroke-width="1.9843" stroke-linejoin="round" stroke-miterlimit="3.8637" d="
		M684.7,798.4c2.7,3.8,6.2,8.2,11,9.5"/>
	<path id="path179" fill="none" stroke="#646464" stroke-width="1.9843" stroke-linejoin="round" stroke-miterlimit="3.8637" d="
		M695.7,807.9c-0.9,1.9-0.2,3.1-1.7,4.8c-1.1,1.2-3.1,2.2-2.2,3.6c0.5,0.7,3.5,3.5,3.4,4.1c-0.1,0.8-9.6,1.1-10.3,1
		c-1.2-0.1-1.2,5-3.7,6c-0.1,0-3.2,2.9-3.1,2.7c-1.3,2.8-3.5,0.3-3.3,3.9c0.2,3.6-7.2,11.7-11,9.8c-0.3,1.6,0.2,2.4,1,3.6
		c0.8,1-2.4,2.9-3.2,3.6c-2.4,2.1-0.5,6.1-4.2,7.9c4.9,2.9-3.1,5.3-4.2,6.5c-0.4,0.5-2.4,5-2.5,5.7c-0.2,3.4-3.2,1.1-4.4,2.2
		c-0.5,0.5,0.1,5.9-0.1,7"/>
	<path id="path181" fill="none" stroke="#646464" stroke-width="1.9843" stroke-linejoin="round" stroke-miterlimit="3.8637" d="
		M646.4,880.3c-1.8,0.9-3.5,1.2-3.6-1.2c-1.1,0.7-2.3,1.5-3.6,2c-1.5,0.7-0.2,2.4-0.9,3.4c-2.3,3-0.3,5.5-2.4,7.8
		c-1.3,1.4-4.2,1.1-6,2.8c-1.7,1.6-2.2,3.2-4.8,3.6"/>
	<path id="path183" fill="none" stroke="#646464" stroke-width="1.9843" stroke-linejoin="round" stroke-miterlimit="3.8637" d="
		M602.1,742.1c0.8,0.9,3,2.4,2.5,3.7c-0.6,1.6-1.4,4.3-1.1,5.8c4.8-5.1,4.2,9.3,9.4,6.4c1.5-0.9,3.8,0.6,3.9,2.2
		c0.2,2.9-3.9,2.8-5,3.7c-0.8,0.7-2.1,2.5-1.2,3.3c0.6,0.6,1.3,1.3,1.7,2c0.3,0.5-1.5,1.6-1,2c1.5,1.2,2.6-0.5,3.2-1.6
		c1.8-3.6,2.5-0.7,4.9-0.9c1-0.1,1.4-1.6,2.3-1.6c1.2,0,3,0.2,4.2,0.4c1.9,0.3-1.9,4.5,0.2,4.3c2.1-0.2,2.9,1.2,1.8,3.2
		c0.3-0.6,3.6,1.2,4.1,1.9c0.7,1.1,2,1.8,2.6,2.9c1.2,2,1.9,2.9,2.8,5c0.7,1.5,3-0.7,4.1,0c3,2,0.1,3-1.7,5.2
		c-0.9,1.2-11.1,2.2-5.2,5.5c1.2,0.7-0.8,9.2-1.4,9.2c-0.1,0-4.7,3.1-5.2,3.5c-0.8,0.6-4.8-0.4-4.9-1.8c-0.9,0.7-1.8,1.5-3,1.5
		c-2.2,0,0.9,2.2,0.9,2.3c-0.8,2.1-1.1,5.2-3.9,6.4c-1.1,0.5-3.5,0.9-4,2.1c-0.5,1.1,2.2,3.4,0,4.6c-1.3,0.7-0.5,1.9-0.4,3.3
		c0.2,2.8-3.8,2.2-3.2,4.6c0.4,1.7-2.6-0.2-2.7-0.2c-2.1,0.3-1.7,1.4-1.9,2.9c0.4,0.3,0.7,0.5,1.1,0.8c0.1,0.6-0.6,1.3-0.6,1.9
		c-0.2,2.5,1.3,1.8-1.8,1.4c-0.8-0.1-3.4,0.2-3.9,0.8c-0.8,0.9-1.5-0.4-2.2,0c-0.5,0.3,0.3,0.9-0.6,1.3c-1.1,0.5-4.9,6.5-3.3,7.4
		c1.4,0.7,1.2,8.7,0,8.9c-1.3,0.2-0.1,2.2-1.1,2.5c-3.4,1.1-0.1,1.4-1.3,3.2c-1,1.7-1.8,1.4-1.7,3.3c0,0.6,1.4,0.2,1.3,1.5
		c0,0.2,0.2,2.5,0.4,2.8c0.8,1.5,3.9,0.4,3.7,1.9c-0.3,2.9-1,2.9-0.1,5.7c0.5,0.3,1,0.6,1.5,0.7c0.2,0.6-0.8,1.9,0.1,2.5
		c2.4,1.6,5.1-2.6,6.6,0.9c1.4,3.1,4.8,3.2,8,3.4c4.8,0.2,1.9,4.2,3.4,7.2c0.9,1.7-1.4,1.9,0.3,4.5c0.7,1-0.6,1.7,0.2,2
		c0.9,0.5,1.9,0.9,2.8,1.4c4.2,2,3.6-2,7.2-1.5"/>
	<path id="path185" fill="none" stroke="#646464" stroke-width="1.9843" stroke-linejoin="round" stroke-miterlimit="3.8637" d="
		M767.2,864.5c-3.3-3-8.5-1-11.4-3.2c-3.2-2.5-5.9-0.6-9.8,1.1c-1.2,0.5-2.3,1.1-3.5,1.6c-3.3,1.3-1.7-3.7-4.1-4.1
		c-3.7-0.7-2.8,2.9-4.1,4.4c-1.6,1.9-4.3,2.4-5.9,4.5c-0.8,1.1-2.4,1.4-3.7,1.9c-2.1,0.8-2.8,3.1-4.6,4.4c-0.9,0.7-5,0.8-5.2,1.4
		c-0.5,2.1-1.1,4.3-1.4,6.4c-0.3,1.7,2,5.3,0.7,6.1c-1,0.6-2.9,2.1-3.8,2.6c-3,1.5-6.8,1.4-9.8,3c-3.7,1.9-7.1,5.1-10.6,7.4
		c-4.8,3.2,0.1,1.9,0.7,4.5c0.5,1.9-3,5.1-4,6.4c-1.3,1.5-1.6,3.6-3.4,4.1c-1.6,0.4-4.1,0.5-5.4,1.6c-3.1,2.5-6.5-2.2-7.1-5.1
		c-0.8-3.4-4.9-3.2-5.5-6.6c-0.6-4.1-1-3.4-4.5-4.2c-3.2-0.8-3.8-1.3-2.5-4.1c1.7-3.6-2-1.6-2.6-4.8c-0.6-3.2-0.8-4.1-3-6.6
		c-1.2-1.4-4.1,0.8-5.1-1.1c-0.9-1.9-1-3.3-1.2-5.4"/>
	<path id="path187" fill="none" stroke="#646464" stroke-width="1.9843" stroke-linejoin="round" stroke-miterlimit="3.8637" d="
		M726.2,777.2c-0.8,2.1-1,4.3-1.4,6.5c-0.3,1.7-4.1,3.2-5.6,4.1c-3.3,1.9-6.2,3.3-8.9,6.1c-1.5,1.5-0.5,2.6-1.5,4.3
		c-1.1,2-2.4,1.9-4.2,3.1c-1.8,1.2-2.2,3.2-3.9,4.5c-1.6,1.2-3.4,0.8-5,2.2"/>
	<path id="path189" fill="none" stroke="#646464" stroke-width="1.9843" stroke-linejoin="round" stroke-miterlimit="3.8637" d="
		M988.4,709.1c-2.8,0.1-4.1-0.9-6.2-2.5l-0.5,1.7c-1.6-0.8-3.1-1.7-4.7-2.5c-1.1,3.4-5-0.1-6.5-1.4c-0.7-0.6-3.6-2.7-3-3.7
		c1.6-2.4,1.1-1.6,0.5-4.2c-0.4-1.5,2.5-3.4,1.5-4.6c-1.4-1.6-1.7-1.7-1.6-3.8c0.2-3.6-1.3-4.2,0.2-8c1-2.4-2.1-3.3-3.7-4.7
		c-0.7-0.6-2.9-1.8-2.5-2.7c0.8-2,1.4-2.1-0.5-3.2c-3-1.7-9.2-12-14.1-6.2c-1.3-1.8-3.4-3.3-1.8-5c2.5-2.6-0.1-5.9,1.4-9.1
		c2.1-4.5,3.7-11.5,4.1-16.4c0.3-2.8,0.7-4.2,2-6.7c0.3-0.7,1.4-1.6,0.9-2.2c-0.8-0.9-2.7-2.1-1.9-3.2c3.1-4.2-2.9-3.4-2.1-7.3
		c0.7-3.6,3.5-5.4,3.9-9.1c-2.3,0.2-3.1-1.8-4.4-3.4c-0.5-0.6-0.1-1.3,0.1-2.1c0.3-1.4-1.4-2.2-1.4-3.7c0-2.1,0.1-5-2.6-4.3
		c-1.9,0.5-4.4,0.2-3.4-2.4c2,1.2,2.5-0.7,3.9-1.9c0.4-0.4,2-0.3,2.2-0.8c0.7-1.8-1.2-1.7-1.2-3.3c0-2.8-1.8-4.7-0.3-7.1
		c0.7-1.1,2.7-4.1-0.2-3.3c-2.9,0.9,0.1-2.3,0-2.7c-0.8-2.4-0.2-0.8,1.1-2c0.3-0.3-1.4-3.5-1.6-4c-0.6-2.1,5.9-7.4,7.3-6.3
		c-0.7-0.6-5.4-0.6-2.2-2.8c1.8-1.2,2.8-3.2,4.5-4.6c3.5-2.8,4.8-4.3,4.2-8.8c-0.2-1.6,0.1-2.2,1.9-1.6c4.4,1.5,1.7,1,3.9,4.6
		c0.9,1.6,3.1,3.4,4.3,4.7c1.6,1.5,3.3,2.6,5.4,3.2c1.7,0.5,1.7-1.4,1.3-2.4c-0.7-1.9,0.4-2.4,1.6-4c0.8-1-1.9-2-1.2-3.2
		c1-1.7,1.5-3.2,3.3-4c2.8-1.2,6.6-4,2.8-6.6c-2.4-1.6,2.3-2.2,3.4-1.9c1.8,0.5,2.3,1.3,2.4,3.3c1.5-1.2,2.8-0.8,4.5-0.6
		c1,0.1,3.3,1.8,3.2,2.3c-0.2,2.5,1.9,2.6,2.4,0.3c0.4-1.9-0.4-3.3-0.1-5.2c0.3-2,1.2-4.4,1.2-6.4c0-1.8,2.7-1.4,4-3
		c1.7-2.2,2.3-4.2,5.3-1.8c0.5,0.4,4.6-1.6,4.8-2.1c-0.2,0.3-0.5,0.6-0.8,0.9c0.6-0.2,4.2-1.5,4.2-1.7c-0.6,2.5,0,2.9,2.4,3.9
		c3.1,1.3,3.3,1.1,6-1.1c2.7-2.2,4.5-12.3,9.7-6.8c0.4-6.3,4.7-3,8.4-1.4c3.7,1.6,6.9,4.1,10.2,6.2l0.8-6.7
		c3.3,2.8,7.2,3.8,11.5,4.8c-0.3,2.4-2.5,4-3.6,6.1c1.3,0.2,4.2,0.5,4.7,1.9c0.6,1.7-0.1,4.1,0.8,5.5c1,1.4,2.6,1.1,3.2,1.9
		c0.8,1.1,1.1,3.3,1.6,4.7c1-0.9,3.8-2.4,5.1-1.1c0.2,0.2-0.2,5.1-0.2,5.6l2.8-1.6l0.3,2.6c3.9-4.4,2.2,3.3,2.2,5
		c2-0.5,5.5-1.8,5.3,1.2c2.3-1.1,4.6,0.6,6.2-1.9c0.4,2.2,2.1,3.1,4.2,3.3c-1.7,3.4-1,3.3,2.3,4.7"/>
	<path id="path191" fill="none" stroke="#646464" stroke-width="1.9843" stroke-linejoin="round" stroke-miterlimit="3.8637" d="
		M827.3,644.2c-0.6-3,1.4-1.4,2.5-3c0.4-0.6,0.2-1.8,0.6-2.5c0.6-1,2.2-0.3,2.8-1.1c0.4-0.4,0.4-2.1,0.5-2.6c0.2-1.1,1-0.2,1.7-0.8
		c1-1,4.2-1.8,4.7-2.3c1.7-2-0.4-6,1.1-7.8c0.7-0.9,2.9-0.6,3.9-0.9c0.8-0.2-0.5-5.7-0.1-6.9c0.2-0.7-0.1-1.1-0.3-1.9
		c-0.6-2.7,0.6-2.7,1.4-4.8c0.2-0.6-1.5-5.9-1.9-6.9c-0.7-1.8-3.9-1.2-4.5-2.6c-0.8-2-1.6-4-2.4-6c-1.3-3.3-0.1-1.6,0.3-4.1
		c0.6-3.2,0.1-4.3-3.9-5.1c-3.2-0.6-0.9-1.5-3.1-3.7c-1.6-1.6-3.1-3.9-4.3-0.9c-1.5-1.9-0.8-4.5-0.8-6.9c0-1.2-3.4-2.7-4.4-3.4
		c-0.4-0.3,0-3.9-0.3-4.8c-0.3-1.3-1.1-2.5-1.4-3.8c-0.5-2.1,2.2-2.4,3.2-3.7c2.2-2.8,0.7-2.3,3.9-2.3c3.9,0,1-3.9,0.6-5.4
		c-0.3-1.5-0.1-3.1-0.4-4.7c-0.8-3.5,1.4-0.1,2.3-1.2c0.9-1.1-1.8-2-1.7-2.6c0.1-0.9,1.4-1.2,1.7-1.9c0.4-0.9-0.2-1.9,0.2-2.8
		c0.2-0.5,3.5,1,2.4-1.2c-2.9-5.8-2-9.4,0.9-14.6c-0.1,0.2,3.6-1.5,3.1-1.5c2,0.2,2.2-1.3,4.3-1.2c0.7,0,1.7,0.5,1.8-0.4
		c0.2-2.4,1.1-2.6,1.9-4.9c0.6-1.6,0-3.7-0.1-5.4c3.2-0.2,5.5-0.4,8.5-1.4c1.5-0.5,1.5-1.8,2.6-2.5c0.7-0.4,2.1,0.9,3.1-0.9
		c3.1,4.1,13.7,1.7,15.2-3.3c2.2,3.2,1.7-3,3.2-3.9c0.3-0.2,4,4.8,5.2,1.9c1.6-3.8,4.8-9.4,8.5-11.4c0.1,3.5,3.9,0.5,6.1,0.5
		c1.3,0,1.9,2.1,3,2.3c1,0.2,2.8-0.8,3.7-1.1c1.2,5.1,4.6,13.4-1.4,17.2c-2.2,1.4-1.9,4.6-3,6.9c-0.7,1.4-1.7,2-2.3,3.7
		c-0.2,0.7-1.9,2.4-1.9,2.7c-0.6,3.6,2.7,3.8,3.9,5.7c1.8,3-1.2,5.3-1.6,8.3c-0.3,2.3,2.8,3.1,1.6,6.5c-1,2.7-0.7,3.8,0,6.6
		c3.2-1.1,5.8-1.3,9.2-0.9c-1.4,2-0.7,4.5-2.2,6.3c-0.8,1-4.6,0.4-2,2.3c-1.9,1.9,0.8,2.6,1.5,4.3c1.4,2.9-0.8,6-2.1,8.5
		c-1.6,3.1-3.5,9.3-6.5,11.3c2.3,2.8,9.3,1.5,12.8,2.3c4.4,1,9.1,1.9,12.1-1c1.9-1.8,2.1-0.8,2.4-3.3c0.2-1.4,2.8-1.4,2.5-2.9
		c-0.4-2.4,0.6-2.4,2.6-3c3.2-0.9,9.7-14,11.3-13.3c0.6,0.3,0.7,3,2.2,3.8c1.3,0.7,2.4,1.9,3.3,3"/>
	<path id="path193" fill="none" stroke="#646464" stroke-width="1.9843" stroke-linejoin="round" stroke-miterlimit="3.8637" d="
		M832.6,520.7c-2.9-2.8-2.8-2.8-6.9-2.3c-4.2,0.5-8.4,0-12.5-0.7"/>
	<path id="path195" fill="none" stroke="#646464" stroke-width="1.9843" stroke-linejoin="round" stroke-miterlimit="3.8637" d="
		M855.3,738.3c1.9,0.8,4.4,1.4,6.1,2.6c0.7,0.5-0.6,1.8,0.6,2c4.3,0.5,0.3,2.8,0.7,3.5c0.5,1,8.1,3.1,8.7,2.4
		c1.4-1.7,3.3-2.7,5.5-1.5c0.1-3.2,1.3-2.9,3.9-2.8c1,0,1,0.8,1.9,1.3c2.1,1.2,3.1-2.2,4-3.3c1-1.3,5.6,0.8,7.2,1.3
		c1.3,0.4,0,1.8,1.1,1.8c1,0,2.1-0.2,2.9,0.3c2.2,1.3,3.5,1.7,5.3-0.8c0.5-0.7,0.9-0.2,1.8-0.6c1.4-0.6,0.5-3.3,1.7-3.4
		c5.6-0.4,9,1.9,5.6,7.5c2.3,1.1,4.5,3.3,5.4-0.3c2.1,2,3.5-1.7,4.8,1.9c2.7-2.5,2.4-2.4,5.3,0c0.7-2.2,0.9-4.2,2.8-5.6
		c1.2-0.9,4.5-1.9,5.6-1.1c2.7,2,3.8-1,4.9-3c1.4-2.5,4.1-0.7,6.1,0.3c0-5.2,10,0.5,12.4,1.2"/>
	<path id="path197" fill="none" stroke="#646464" stroke-width="1.9843" stroke-linejoin="round" stroke-miterlimit="3.8637" d="
		M1038.7,508.1c0.8-1.3,1.6-2.6,2.4-3.9c1.2-1.9,1.8,0.3,2.9-2.3c0.9-2,1.9,0,1.7-2.9c-0.2-2.2-0.3-4.5-0.5-6.7
		c-0.2-2.4,16.3-7.9,17.8-9.4c1.6-1.6,3.2-5.6,2.9-7.9c-0.2-1.5-0.5-3.9,1.2-4.4c0.7-0.2,1.6,0.4,2,0.2c1.1-0.4,0.3-1.2,1.8-1.2
		c3.3,0,4.3-3.5,6.5-4.6c2.7-1.3,1.7-0.7,3-3.3c0.8-1.6,1.9-2.2,3.7-2.6c-1.4-1.9-0.8-5-1.8-7.4c-1.2-2.8,2.3-1.8,3.8-0.8
		c4.1,2.8,7.4,6.4,12,9c2.3-6.5,4.6-13,7-19.4c0.9-2.4,1.5-6.7,3.5-8.5c2.9-2.7,5.9-5.4,8.8-8.1c-0.6-0.3-2.6-2.5-3.1-2.5
		c-1.1-0.1-3.5,1.9-4.5,2.5c-1.8-2-0.2-2.9-0.3-5c-0.1-1.4,1-2.7,0.9-4.2c-0.1-1.5-1.3-2.7-1.4-4.1c-0.4-3.5,8.8-3.3,11.1-3.4
		c-0.9-2.1-0.9-4.4-1.1-6.7"/>
	<path id="path199" fill="none" stroke="#646464" stroke-width="1.9843" stroke-linejoin="round" stroke-miterlimit="3.8637" d="
		M959.3,539.5c0-2.4-0.9-6.6,0.4-8.7c2.6-3.9,5.1-7.8,7.7-11.7c2.5-3.7,4.9-7.5,7.4-11.2c1.8-2.7,2.6-3.8,3.4-7.1
		c0.9-3.8,1.8-7.4,1.9-11.3c0.1-1.3-1.8-3.1-2.6-4.1c-0.4-0.6-1.5-0.4-1.9-0.9c-0.5-0.7,0.8-1.8-0.1-2.4c-2.3-1.7-2.2,0.1-3.8-0.6
		c-2-0.8-3.1-2.5-4.6-4.2c-2.4-2.7-5-5.1-7.7-7.4c-3.1,6.5-5.4-4.9-9.8,0.6c-1-1.6-1.9-3.1-2.9-4.7c-0.8-1.4-2.4,0-2.7-1.1
		c-1.3-4.1,0.1-9.3-1.7-12.9c-1.9-3.7-4.9-3.3-7.9-4.8c0.8,0.4-2.4-3.6-2.1-2.7c-0.6-2.2-1.8-4,1.4-4.4c-0.5-0.9-1.3-1-0.8-2
		c0.8-1.6-1.7-0.8-2-1.9c-0.8-2.5,0.6-5-3-5.6c3.2-4.6,0-8.5-2-12.9c-0.4-0.9-0.9-1.8-1.3-2.7c-0.6-1.2-1.7-1.1-1.8-1.3
		c-0.9-1.6,0-4.2-0.6-5.3c-0.7-1.1-2.7-3.5-2.6-4.9c0.1-1.3,1.8-1.6,1.5-3.2c-0.1-0.6-1.7-2.4-1.7-2.2c-0.1-6.1,3.6-0.3,7.3-1.7
		c0-2.1-5.5-4.7-0.1-5.5c1.7-0.3,1.1-6.2,3.5-7.2"/>
	<path id="path201" fill="none" stroke="#646464" stroke-width="1.9843" stroke-linejoin="round" stroke-miterlimit="3.8637" d="
		M625.1,898.6c-1.1,3.1-2.1,6.2-3.2,9.3c-0.6,1.9-5.9,2.1-7.7,2.5c-2.9,0.7-2.6,3.6-4.9,5c-4.1,2.6-7.1,6.1-10.2,9.9
		c-1.8,2.2-4.9,3.2-6,5.9c-2.1,5.2-2.3,4.7-7.8,5.5c-6.4,0.9-8.4,3.4-11.7,8.4c-1.6,2.5-8.1,9.7-10.9,9.9c-3.3,0.2-5.7,4-5.9,7.5
		c-0.3,7.9-9,0.9-13.8,3.5c-2.1,1.2-7-2.6-8.7-0.6c-1,1.3-2.1,3.7-3.6,4.5c-2.3,1.2-4.5-1.6-7.1-0.6c-4.7,1.8-6.5,5.8-7.6,10.3
		c-1.1,4.5-10.1,4.1-13,6.5c-2.9,2.4-9.1,17.8-13,10.4c-4.1,3.4-7.3,6.6-10.7,10.5c-1.6,1.8-6,1.1-8.1,1.9c-1.6,0.6-1.5,3.2-3.8,3.6
		c-2.1,0.3-1.9,2-1.9,3.5c0,1.9-4.1,4.4-5.6,5.5c-2,1.6-3.9-2.5-5.9-2c-1.6,0.4-3.2,1-4.7,1.6c-1.7,0.7-4.9,5-6.5,6.5
		c-3.1,3-6.4,0.8-9.9,2c-6,1.9-10.4,6.2-15.7,9.6c-2.3,1.5-0.6,5.1-3.2,7.5c-1.4,1.3-2.8,2.8-4.3,4c-2,1.6-1.7,4.6-3.2,6.5
		c-4.2,5.3-10.5,6.5-14.8,11.3c-3.3,3.6-6.6,7-10.4,10.2"/>
	<path id="path203" fill="none" stroke="#646464" stroke-width="1.9843" stroke-linejoin="round" stroke-miterlimit="3.8637" d="
		M510.5,1179.9c-7.4-1.4-14.9-2.8-22.3-4.6c-4.1-1-6.7-0.1-10.9-0.1c-2.6,0-9.3,0.1-11.3,1.6c-1.7,1.3-0.7,4.6-3.3,5
		c-0.8,0.1-2.3,1.5-3.3,1.9c-5.9,2.2-8.6,9.7-14.5,12.4c-3.5,1.6-6.2-8.1-5.2-10.3c1.4-3.2,1.5-3.5,0.2-6.6c-1.1-2.7-2.2-3.2-5-2.1
		c-3.9,1.5-8.2,3.6-12.4,3.8c-2.5,0.1-4.9-1-6.4-2.9c-1.8-2.2-6.2-5.5-6.9-8c-1.4-5.6-2.9-10.8-4.5-16.3c-2.3-8-9.9,1.3-13.8-3.1
		c-1.5-1.7-1.2-3.7-2-5.8c-1.8-4.5-2.6,1.8-3.9,2.2c-0.5,0.1-4.7-2-5-2.5c-1.3-2.5,2-5.1,0.2-7.3c-1.8-2.1-1.6-2-0.4-4.5
		c0.7-1.6-2.7-1.3-3.5-1c-7.4,3.2-4.3-7-3.1-10.7c0.9-2.6-0.9-5.2-0.2-7.8c0.6-2.3,1.1-3.9-0.5-5.7c-3-3.5,0-5.1,2.2-8.6
		c1.1-1.8,4.7-10.7,6-10.8c2.5-0.3,0.6-7.6,0.5-9"/>
	<path id="path205" fill="none" stroke="#646464" stroke-width="1.9843" stroke-linejoin="round" stroke-miterlimit="3.8637" d="
		M343.6,1360.6c-2-2.3-5.6-0.7-7.2-2.8c-2.8-3.8,2.5-4.5,4.8-7.7c-3.9-0.4-7.3-3.1-6.7-7.1c0.2-1.5,2-1.4,1.4-3.6
		c-0.6-2.1-1.9-1.6-3-2.9c-0.8-1-2.9-0.2-1.7-3.1c0.6-1.6,4.3-3.6,5.4-5.4c0.7-1.2,0.7-3.1,0.3-4.3c-0.7-2,1.6-2.5,1.4-4.4
		c-0.7-4.7-6.5-9.1-4-13.7c1.3-2.3,2-3.6,1-6.3c-1.2-2.9-5-1.3-7-3.4c-1.3-1.3-3.1-5.9-0.6-6.8c0.3-0.1,2.2-7.5,2.1-7.9
		c-1-3.7-2.5-4-5.5-3.2c-3.8,1.1-3.7-0.9-1.8-2.7c2.3-2.1-3.5-8.4-2.3-12.5c2.1-6.7,8.1-10.1,9.8-17.4c0.8-3.4,0.8-8.8,4-10.3
		c1.1-0.5,3.5-0.7,4-1.7c0.5-1.1,1.1-2.2,1.5-3.3c1.2-2.9-1.7-0.9-3-1.9c-2.4-1.7-2.4-5.4-5.5-5.8c-2.9-0.4-2.5-3.6-3.3-5.7
		c-1-3-7.9,4.8-9,5.8c-2.2,2-10.4,20.4-13.1,11.8c-2.1,2.5-4.6,0.6-6.6-1.1c-1.3-1.1-0.4-5-0.4-6.7c-2.5,0.8-4.2-1.4-6-2.8
		c-2.1-1.6-0.3-5.8-1.6-8.4c-1.3-2.5-4.5-2-4.4,1.2c0.1,1.8-4.1,2.2-5.3,4.2c-1.6,2.6-13.4,2-16.4,2.1c-3.7,0.2-5.4,0.4-6.5-3.2
		c-0.6-2-0.6-8.1-1.9-9.1c-2.7-1.9-5.9-5.1-4.9-8.9c0.6-2.2,3.6-2.8,4.4-5.5c1.3-4.3,1.6-5.3-3.2-5c-2.1,0.1-6-3.6-7.5-5.2
		c-0.6-0.6,0-1.9-0.8-2.4c-0.8-0.5-2.7-1.3-3.2-2.1c-0.7-1.2-1.6-6-1.4-7.7c0.5-3.4-0.3-4.9,3.2-4.9c1.5,0,4-7.1,4.2-8.5
		c-4.2,2.7-0.9-12.4,0.8-14.6c1.4-1.9,1-6.9,2.8-7.9c3.6-2,3.3-4.3,8.1-4.3c3.2,0,6.4-0.1,9.6-0.1c2.5,0,5.1-3.1,7.5-3.9
		c4.9-1.7,8.1-1.6,12.2-5.4c2.3-2.1,4.4,0.2,6.8,1.3c1-4.3,2.1-2.7,5.4-4.7c4.2-2.5,3.8-2.8,4-7.8c0.1-3.1,2.4-5.3,5.1-7.3
		c1.8-1.4,4-0.5,5.7-1.6c1.5-1-1-3.4,2.2-2.8c-0.5-1-1-2.7,0.1-3c2.2-0.6,1.6-1.7,3.2-2.5c3.1-1.5,6.7-0.9,9.8-2.7
		c3.5-2,2.4,0.3,4.9,1.1c2,0.7,6,0.7,7.9-0.2c2.2-1.1,1-3.7,3.7-4c2.6-0.3,1.4,2.1,3.4,3.5c3.4,2.3,4.9,1,7.9-1.2
		c0.7-0.5,1-2.3,1.8-2.4c1.3-0.2,3.1-0.1,4.3-0.5c1.7-0.6,0.7-1.8,3.2-2c5.5-0.5,3.4-0.5,4.8-5.1c0.7-2.4-0.5-2.6,2.2-2.5
		c2,0.1,4.1-0.2,6.2-0.3"/>
	<path id="path207" fill="none" stroke="#646464" stroke-width="1.9843" stroke-linejoin="round" stroke-miterlimit="3.8637" d="
		M238,1110.2c3.2,0.4,5,3,8.5,2.2c2.5-0.6,4.7-2.4,7.4-1.6c2.6,0.7,2,2.3,5.1,2.3c2.2,0,2.8,0.7,2.8,3.3c0,3,8.6,4.9,1.5,6.8
		c-2.3,0.6-3,7.1-4.5,9.7"/>
</g>
</svg>
