<svg xmlns="http://www.w3.org/2000/svg" version="1.2" baseProfile="tiny" x="0" y="0" width="500" height="500" viewBox="0" xml:space="preserve"><ellipse fill-rule="evenodd" fill="#FFFFFF" cx="248.3" cy="249" rx="242.5" ry="242.5"/><path fill-rule="evenodd" d="M96.9 158.2c17.9-1.8 38.8 11.1 21.9 25.6 -9.4 8.2-29.9 7.1-35.8-4.2C75.9 165.9 89.7 161.8 96.9 158.2zM136.5 197.3c5.2-1.4 26.7 17.9 32.9 30.7 5.1 10.5 0 24.8-9.7 26.1 -1.3-0.1-2.3-0.6-3.3-1.8 -2.4-7.3-0.1-13.7-1.9-21.7 -0.7-2-1.9-3.3-3.5-3.7 -13.9-2.3-35 11.8-27.2 26.8 8.5 8.8 17 17.5 25.5 26.3 2.2 3.2 4.8 10.5 3.9 16.3 -5 34-56.8 10.5-71.1-0.1 -0.6 1.9-1.8 3.3-3.3 4.7 -6.2 7.9-9.8 15-20.4 18 -20 5.6-32.2-19.3-28.6-36.8 3.3-15.9 29.7-72.7 40.8-78.7 9-3.2 23.9 5.7 25.3 14.3 -10.9 18-47.4 64.3-43.8 87.5 0.5 1.4 1.9 1.3 3.8 0.5 7.6-3.8 18-9.8 22.3-16.6 -2.5-6.5-4.1-8.4-4.2-16.6 0.5-0.9 0.9-1 1.8-1.4 6.3-0.1 9.9 5.9 12.4 6.2 2.6 0.3 0.9 0.9 4.6-2.4 1.7-2 2.7-2.7 4.4-4.7 1 1-3.5 6-4.3 8.3 -0.5 1.5-2.2 3.5-2.2 3.5s33.9 25.9 39.9 13.4c0.9-5.5-20.8-22-25.1-28.2 -16.7-23.7-1.6-53 13-64.1C123.7 199.4 130.1 197 136.5 197.3zM218.2 193c15.3 3.1 26.6 18.5 32.8 31.4 5 10.6 1.1 24.8-8.6 26 -3.1-0.3-3.4-0.5-4.5-1.7 -2.3-4.4 0.4-11.5-1.8-22.4 -0.8-1.3-1.7-2.1-3.3-2.4 -13.7-3.2-33.9 10-28.2 24.3 5.8 14.5 48.9 36.1 22.3 58.2 -22.3 18.5-86.8-16.2-69.6-38.9 1.1-1.5 11.4-0.8 14.7 3.2 1 1.6 3.8 13.8 5.8 16.3 3.8 5.4 29 15.5 34.2 4.8 0.9-5.5-20.7-22.1-24.9-28.2 -16.5-23.7-2.5-55 13.5-64.1C206 196.4 211.3 194.5 218.2 193zM419.1 185.9c20.4-0.8 32.5 29.2 24.4 47.2 -9.2 20.5-37 40.5-66.4 41.9 0 0.4-2.5 3-2.5 3.4 -4.1 5.4 1.4 7.4 2.9 11.8 23.4 15.5 56.8-19.2 66.3-31.6 0.6 0.2 1.3 0.4 1.9 0.6 2.8 0.7 2.7 0.7 4 3 0.3 1.7 0.6 3.4 0.9 5.1 -17.5 32.9-67.5 61.6-93.6 15.6 -3.1 3.5-6.2 7-9.3 10.6 -5.9 4.5-11.9 9-17.8 13.5 -19.1 8.8-29.4-8.8-30.7-25.9 -8.6 7.8-13.6 20.8-24.9 25.8 -16.4 7.3-30.5-17.5-28.8-32.4 2.2-19.7 34.2-64.9 46.8-77.7 11.1-0.8 19.8 4.8 23.6 12.5 -1 12.4-17.8 23.4-24 32.5 -5.2 8.8-10.4 17.5-15.6 26.2 -2.8 5.2-12.1 18.3-5 24.4 16.7-8.5 47.7-60.2 58.9-78 4.3-6.8 8.7-13.7 13.1-20.6 9.3-4.6 21.2 7.6 22 16.4 -5.2 7.1-10.4 14.2-15.5 21.3 -6.5 11.4-13.1 22.8-19.6 34.1 -3.2 6.2-11.8 17.2-6.9 26.4 26.5-2.1 32.4-29.7 42.9-47.4C379.8 221.6 394 200.2 419.1 185.9zM422.4 217.4c-5.1 0.3-29.6 19.8-36.5 38.8 1.2-0.1 2.5-0.1 3.8-0.2 16.1-7.1 31-20.8 36.6-37.5 -0.2-0.4-0.5-0.8-0.7-1.3C424.5 217.3 423.4 217.3 422.4 217.4zM463.4 270.6c24.2-2.3 12.8 33.9-4.9 33.2 -1.9-1.2-3.9-2.4-5.8-3.5C447.5 286.6 455.2 277.4 463.4 270.6z"/></svg>