<?xml version="1.0" encoding="utf-8"?>
<!-- Generator: Adobe Illustrator 16.0.0, SVG Export Plug-In . SVG Version: 6.00 Build 0)  -->
<!DOCTYPE svg PUBLIC "-//W3C//DTD SVG 1.1 Tiny//EN" "http://www.w3.org/Graphics/SVG/1.1/DTD/svg11-tiny.dtd">
<svg version="1.1" baseProfile="tiny" id="Layer_1" xmlns="http://www.w3.org/2000/svg" xmlns:xlink="http://www.w3.org/1999/xlink"
	 x="0px" y="0px" width="831.848px" height="358.599px" viewBox="0 0 831.848 358.599" xml:space="preserve">
<g id="YGJFmM_1_">
	<g>    
    <!-- Residential & Commercial -->
		<path fill="#BBA2BB" d="M-3.553,360.608c0-52.535,0-105.07,0-157.607c0.393-0.328,0.822-0.598,1.285-0.816
			c5-0.865,10.1-0.832,15.048-0.287c14.771,1.631,29.278-0.057,43.875-2.062c13.163-1.811,26.271-5.109,39.698-3.732
			c12.177,1.248,24.442,1.119,36.585,2.676c2.709,0.348,5.411,0.611,8.134,0.514c14.29-0.51,28.541,0.822,42.818,0.861
			c1.642,0.004,3.247,0.279,4.828,0.73c37.159,10.635,74.633,20.059,112.438,28.051c22.907,4.844,45.562,10.621,68.301,16.125
			c11.332,2.744,23.047,4.078,34.456,6.586c23.73,5.215,47.618,3.082,71.488,2.451c7.47-0.197,14.91-0.961,22.407-0.947
			c49.666,0.092,99.337,0.406,148.998-0.133c19.127-0.209,38.32-0.795,57.395-2.893c0.677-0.074,1.355-0.156,2.034-0.146
			c21.898,0.305,43.705-2.062,65.63-1.916c17.083,0.115,34.215-1.104,51.309-2.084c1.904-0.109,3.813-0.232,5.707-0.004
			c1.454,0.178,3.103,0.225,3.354,2.262c0.022,36.289,0.006,72.574,0.001,108.861c-0.001,1.211,0.21,2.449-0.283,3.627
			c-1.206,1.111-2.728,1.119-4.222,1.188c-1.631,0.074-3.266,0.039-4.897,0.039c-272.433,0-544.864,0.002-817.295-0.033
			C2.481,361.917-0.767,362.713-3.553,360.608z"/>
    
    <!-- Industrial consumption -->
		<path fill-rule="evenodd" fill="#88869F" d="M831.896,247.909c-2.921-1.715-6.198-1.064-9.107-0.611
			c-3.672,0.57-7.29,0.512-10.938,0.613c-24.279,0.682-48.55,1.57-72.84,1.986c-11.174,0.191-22.484,0.496-33.65,1.461
			c-15.668,1.355-31.374,1.352-47.027,2.391c-19.839,1.318-39.666,0.518-59.494,0.637c-36.464,0.221-72.955-0.771-109.384,0.373
			c-22.112,0.697-44.21,1.203-66.325,1.312c-8.6,0.041-16.675-3.086-25.077-4.355c-16.666-2.518-33.184-6.023-49.424-10.529
			c-11.466-3.18-23.009-6.188-34.626-8.457c-17.628-3.445-35.129-7.377-52.569-11.588c-19.947-4.814-39.853-9.834-59.645-15.244
			c-10.333-2.824-20.556-4.615-31.375-4.842c-10.162-0.215-20.389,0.328-30.5-0.619c-13.045-1.219-26.144-1.512-39.188-2.871
			c-7.75-0.809-15.686-0.883-23.544,0.484c-9.29,1.617-18.684,2.627-27.989,4.162c-9.817,1.619-19.719,2.186-29.57,1.457
			c-7.463-0.551-14.902-0.492-22.351-0.715c-1.166-3.453,0.371-7.117-0.824-10.568c0-0.816,0-1.633,0-2.449
			c0.799-1.393,0.394-2.914,0.4-4.369c0.061-13.383-0.033-26.766,0.06-40.147c0.519-1.167,1.634-1.355,2.691-1.564
			c12.416-2.462,24.655-5.705,37.029-8.347c12.808-2.735,25.886-3.288,38.859-4.644c18.655-1.951,37.304-4.032,55.993-5.569
			c9.584-0.789,19.301-0.844,28.932,0.339c1.218,0.15,2.442,0.241,3.665,0.198c20.819-0.732,41.257,3.004,61.585,6.393
			c15.633,2.605,30.732,8.202,45.979,12.773c23.583,7.071,46.608,16.088,70.657,21.481c23.205,5.205,44.489,15.172,65.972,24.74
			c5.181,2.309,9.834,2.676,15.258,0.631c24.979-9.414,50.482-17.115,76.491-23.232c9.765-2.295,19.594-3.025,29.491-3.551
			c45.257-2.41,90.558-1.381,135.843-1.744c20.377-0.164,40.738-1.607,61.08-2.672c17.539-0.92,35.074-0.672,52.577-1.494
			c16.436-0.771,32.913,0.176,49.31-1.514c1.45-0.15,2.988-0.576,4.345,0.443c0,29.943,0,59.887,0,89.828
			C832.404,248.284,832.148,248.282,831.896,247.909z"/>
    
    <!-- Auxillary Loads -->
		<path fill-rule="evenodd" fill="#A46D6D" d="M-3.553,84.591c10.496-2.45,21.018-4.795,31.481-7.376
			c13.943-3.439,28.255-4.42,42.411-6.337c15.508-2.099,31.023-4.197,46.429-6.855c13.652-2.356,27.303-1.388,40.934-1.249
			c5.347,0.055,10.791,0.653,16.176,0.518c8.565-0.214,16.743,2.071,25.06,3.401c9.613,1.537,19.206,3.287,28.717,5.358
			c11.607,2.528,22.745,6.717,33.999,10.446c10.434,3.457,20.73,7.324,31.088,11.01c20.434,7.793,40.815,15.721,61.55,22.708
			c18.847,6.351,36.984,14.472,54.979,22.881c3.612,1.688,6.715,1.958,10.477,0.51c26.32-10.135,53.381-17.877,80.79-24.427
			c4.498-1.075,9.098-1.776,13.751-1.559c8.718,0.408,17.38-1.548,26.075-0.772c16.711,1.49,33.443,0.591,50.164,0.665
			c8.002,0.036,16.037-1.408,24.027-0.606c11.419,1.146,22.84,0.755,34.249,0.623c21.471-0.247,42.962-0.748,64.388-1.855
			c16.553-0.855,33.099-1.663,49.659-2.372c10.476-0.45,20.946-0.07,31.388-0.683c9.222-0.542,18.481-0.318,27.674-1.383
			c2.46-0.285,4.874,0,7.292,0.512c1.755,0.372,2.943,1.241,3.459,2.974c0,10.344,0,20.688,0,31.032
			c-4.583,2.168-9.623,1.757-14.38,1.848c-14.273,0.271-28.561,0.675-42.809,1.216c-17.389,0.66-34.792,0.258-52.175,1.364
			c-19.115,1.216-38.235,2.324-57.414,2.682c-24.874,0.466-49.739,1.502-74.625,1.434c-7.887-0.021-15.731-1.188-23.64-0.821
			c-19.138,0.887-38.292,1.4-57.424,2.433c-4.809,0.26-9.333,1.84-13.955,2.946c-23.582,5.64-46.807,12.472-69.336,21.485
			c-7.244,2.898-13.868,3.07-21.121-0.629c-9.189-4.688-18.902-8.373-28.283-12.719c-9.6-4.447-19.855-6.713-30.005-9.186
			c-24.4-5.946-47.559-15.596-71.377-23.255c-23.289-7.489-46.67-14.39-71.016-18.345c-24.69-4.011-49.336-3.495-74.052-3.382
			c-9.614,0.044-19.236,1.507-28.806,2.794c-12.398,1.667-24.907,2.159-37.333,3.548c-14.582,1.629-29.258,2.424-43.448,6.743
			c-7.146,2.175-14.583,3.329-21.832,5.189c-1.051,0.27-2.132,0.5-3.187-0.046C-3.553,112.901-3.553,98.747-3.553,84.591z"/>
    
    <!-- Transmission Loss -->
		<path fill-rule="evenodd" fill="#DA6C6D" d="M-3.553,127.056c7.029-2.456,14.445-3.451,21.546-5.535
			c16.205-4.756,32.865-5.937,49.522-7.751c12.337-1.344,24.744-1.835,37.056-3.701c17.572-2.662,35.356-2.626,53.13-2.74
			c17.817-0.114,35.285,2.026,52.841,4.764c30.553,4.766,59.45,14.938,88.346,25.288c17.726,6.35,35.596,12.299,53.962,16.48
			c14.257,3.245,27.5,8.987,40.709,14.946c6.058,2.732,12.037,5.652,18.172,8.199c5.379,2.232,10.455-0.131,15.331-2.008
			c19.989-7.691,40.396-13.928,61.098-19.453c15.631-4.171,31.26-5.765,47.36-5.826c12.838-0.049,25.697-1.975,38.562-1.339
			c13.579,0.671,27.16,1.07,40.725,0.623c14.801-0.487,29.624-0.183,44.389-0.931c9.373-0.474,18.773,0.249,28.06-0.72
			c14.57-1.52,29.214-1.256,43.764-2.506c5.708-0.49,11.375-0.662,17.052-0.591c16.715,0.21,33.398-0.865,50.104-1.087
			c11.477-0.152,23.002-0.695,34.489-1.414c0,5.444,0,10.888,0,16.332c-4.436,1.451-9.184,1.461-13.632,1.441
			c-20.932-0.092-41.828,1.521-62.762,1.031c-16.551-0.387-33.028,1.527-49.568,1.959c-11.053,0.289-22.166,0.852-33.251,1.357
			c-36.84,1.682-73.713-0.357-110.523,1.012c-16.477,0.611-33.068,0.467-49.447,2.389c-13.51,1.586-26.512,6.121-39.736,9.357
			c-17.616,4.311-34.414,11.145-51.574,16.848c-3.798,1.262-7.036,1.883-10.708,0.361c-15.985-6.627-31.305-14.914-47.847-20.109
			c-13.373-4.197-27.107-7.234-40.545-11.24c-14.494-4.322-28.77-9.372-43.251-13.737c-17.96-5.413-35.938-10.82-54.101-15.481
			c-8.424-2.162-17.299-2.572-25.975-3.742c-20.982-2.829-42.092-3.366-63.218-3.242c-10.531,0.062-20.924,2.089-31.395,2.944
			c-6.197,0.506-12.338,1.417-18.527,1.892c-10.216,0.784-20.38,2.318-30.574,3.002c-18.747,1.258-36.477,7.123-54.691,10.752
			c-1.319,0.263-2.709,0.169-4.066,0.241c-0.316,0.305-0.591,0.271-0.824-0.102C-3.553,139.033-3.553,133.044-3.553,127.056z"/>
      
    <!-- Root Top Solar system -->
		<path fill-rule="evenodd" fill="#84CCAE" d="M832.664,110.723c-3.534-2.892-7.668-2.62-11.813-2.209
			c-0.93,0.092-1.853,0.591-2.758,0.539c-9.646-0.558-19.221,0.902-28.854,0.919c-15.332,0.026-30.675,0.211-45.992,0.824
			c-16.748,0.67-33.434,2.325-50.229,2.648c-9.334,0.179-18.74-0.254-28.033,0.643c-13.979,1.349-27.952,0.456-41.923,0.644
			c-5.525,0.074-11.042-1.125-16.608-0.739c-17.223,1.195-34.471,0.624-51.708,0.885c-5.584,0.085-11.06-0.82-16.609-0.914
			c-23.273-0.393-45.71,3.763-68.053,10.284c-17.876,5.216-35.301,11.565-52.867,17.586c-1.921,0.659-3.53,0.753-5.403-0.162
			c-27.198-13.283-55.461-23.853-84.124-33.5c-11.957-4.024-23.701-8.809-34.944-14.664c9.718,2.019,18.945,5.718,28.483,8.373
			c18.172,5.057,36.616,9.14,54.487,15.27c4.236,1.453,8.493,2.851,12.74,4.274c7.86,2.176,15.54,4.921,23.199,7.691
			c3.612,1.306,6.808,1.063,10.196-0.539c11.309-5.349,22.798-10.315,34.377-15.03c10.944-4.457,22.015-8.654,33.371-12.01
			c0.651-0.192,1.34-0.307,1.945-0.603c16.477-8.058,34.589-7.736,52.157-10.11c13.861-1.872,27.812-3.181,41.774-3.804
			c9.914-0.443,19.752-1.713,29.667-2.013c15.21-0.459,30.357-1.856,45.494-3.349c21.231-2.093,42.424-4.557,63.581-7.282
			c17.663-2.274,35.42-3.373,53.131-5.034c11.491-1.078,22.99-2.178,34.468-3.449c5.67-0.628,11.372-0.97,17.017-1.841
			c1.386-0.214,2.719-0.042,3.831,0.94C832.664,80.236,832.664,95.48,832.664,110.723z"/>
      
    <!-- Energy Efficiency -->
		<path fill-rule="evenodd" fill="#8ABFE7" d="M832.664,64.993c-9.418,0.916-18.838,1.806-28.253,2.753
			c-9.41,0.947-18.807,2.056-28.226,2.908c-14.403,1.304-28.852,2.032-43.208,3.937c-12.454,1.652-24.969,2.854-37.453,4.285
			c-13.686,1.569-27.354,3.294-41.057,4.716c-8.07,0.837-16.187,1.24-24.286,1.799c-15.79,1.09-31.569,2.416-47.377,3.135
			c-10.424,0.474-20.77,1.584-31.124,2.637c-14.243,1.447-28.459,3.179-42.663,4.982c-2.922,0.371-5.826,1.363-8.587,2.453
			c-17.39,6.864-35.432,11.977-52.531,19.616c-9.664,4.317-19.358,8.566-29.053,12.815c-0.845,0.37-1.953,0.947-2.666,0.686
			c-9.254-3.398-19.086-5.253-27.727-10.29c6.707-0.588,13.251,0.819,19.795,1.828c6.377,0.982,12.316,0.574,18.142-2.517
			c26.669-14.151,54.132-26.638,82.056-38.063c9.542-3.904,19.88-5.453,29.928-7.802c22.861-5.343,45.887-9.874,68.969-14.118
			c23.847-4.385,47.778-8.332,71.564-13.018c20.178-3.976,40.47-7.343,60.562-11.813c13.177-2.932,26.644-4.555,39.964-6.855
			c16.405-2.833,32.793-5.769,49.192-8.631c1.327-0.231,2.691-0.243,4.039-0.356C832.664,35.05,832.664,50.021,832.664,64.993z"/>

		<path fill-rule="evenodd" fill="#978297" d="M832.664,363.059c-1.186-0.451-0.651-1.549-0.889-2.357
			c0.024-33.797,0.046-67.594,0.073-101.393c0.003-3.799,0.03-7.6,0.047-11.4c0.256,0.004,0.513,0.006,0.769,0.006
			C832.664,286.295,832.664,324.678,832.664,363.059z"/>
      
		<path fill-rule="evenodd" fill="#8C8BA3" d="M-3.553,145.021c0.275,0.034,0.55,0.067,0.824,0.102
			c-0.002,13.534,0.011,27.069-0.031,40.603c-0.004,1.422,0.54,3.012-0.793,4.211C-3.553,174.963-3.553,159.993-3.553,145.021z"/>
      
		<path fill-rule="evenodd" fill="#8C8BA3" d="M-3.553,192.385c1.794,3.404,0.346,7.062,0.824,10.568
			c-0.274,0.016-0.549,0.031-0.824,0.047C-3.553,199.463-3.553,195.924-3.553,192.385z"/>
	</g>
</g>
<text transform="matrix(1 0 0 1 770.7842 17.6284)" fill="#FFFFFF" font-family="'ProximaNova-Bold'" font-size="11">v</text>
<text transform="matrix(1 0 0 1 780.5078 17.6284)" fill="#FFFFFF" font-family="'ProximaNova-Bold'" font-size="11">(</text>
<text transform="matrix(1 0 0 1 785.9746 17.6284)" fill="#FFFFFF" font-family="'ProximaNova-Bold'" font-size="11">G</text>
<text transform="matrix(1 0 0 1 796.0176 17.6284)" fill="#FFFFFF" font-family="'ProximaNova-Bold'" font-size="11">W</text>
<text transform="matrix(1 0 0 1 808.3164 17.6284)" fill="#FFFFFF" font-family="'ProximaNova-Bold'" font-size="11">H</text>
<text transform="matrix(1 0 0 1 818.5566 17.6284)" fill="#FFFFFF" font-family="'ProximaNova-Bold'" font-size="11">)</text>
<text transform="matrix(1 0 0 1 779.6172 39.6284)" fill="#FFFFFF" font-family="'ProximaNova-Semibold'" font-size="11">2</text>
<text transform="matrix(1 0 0 1 786.1621 39.6284)" fill="#FFFFFF" font-family="'ProximaNova-Semibold'" font-size="11">4</text>
<text transform="matrix(1 0 0 1 792.542 39.6284)" fill="#FFFFFF" font-family="'ProximaNova-Semibold'" font-size="11">0</text>
<text transform="matrix(1 0 0 1 799.0537 39.6284)" fill="#FFFFFF" font-family="'ProximaNova-Semibold'" font-size="11">,</text>
<text transform="matrix(1 0 0 1 801.4736 39.6284)" fill="#FFFFFF" font-family="'ProximaNova-Semibold'" font-size="11">0</text>
<text transform="matrix(1 0 0 1 808.2607 39.6284)" fill="#FFFFFF" font-family="'ProximaNova-Semibold'" font-size="11">0</text>
<text transform="matrix(1 0 0 1 815.0479 39.6284)" fill="#FFFFFF" font-family="'ProximaNova-Semibold'" font-size="11">0</text>
<text transform="matrix(1 0 0 1 779.2109 127.6284)" fill="#FFFFFF" font-family="'ProximaNova-Semibold'" font-size="11">2</text>
<text transform="matrix(1 0 0 1 785.7559 127.6284)" fill="#FFFFFF" font-family="'ProximaNova-Semibold'" font-size="11">0</text>
<text transform="matrix(1 0 0 1 792.543 127.6284)" fill="#FFFFFF" font-family="'ProximaNova-Semibold'" font-size="11">0</text>
<text transform="matrix(1 0 0 1 799.0547 127.6284)" fill="#FFFFFF" font-family="'ProximaNova-Semibold'" font-size="11">,</text>
<text transform="matrix(1 0 0 1 801.4746 127.6284)" fill="#FFFFFF" font-family="'ProximaNova-Semibold'" font-size="11">0</text>
<text transform="matrix(1 0 0 1 808.2617 127.6284)" fill="#FFFFFF" font-family="'ProximaNova-Semibold'" font-size="11">0</text>
<text transform="matrix(1 0 0 1 815.0488 127.6284)" fill="#FFFFFF" font-family="'ProximaNova-Semibold'" font-size="11">0</text>
<text transform="matrix(1 0 0 1 781.752 215.6284)" fill="#FFFFFF" font-family="'ProximaNova-Semibold'" font-size="11">1</text>
<text transform="matrix(1 0 0 1 785.9316 215.6284)" fill="#FFFFFF" font-family="'ProximaNova-Semibold'" font-size="11">6</text>
<text transform="matrix(1 0 0 1 792.543 215.6284)" fill="#FFFFFF" font-family="'ProximaNova-Semibold'" font-size="11">0</text>
<text transform="matrix(1 0 0 1 799.0547 215.6284)" fill="#FFFFFF" font-family="'ProximaNova-Semibold'" font-size="11">,</text>
<text transform="matrix(1 0 0 1 801.4746 215.6284)" fill="#FFFFFF" font-family="'ProximaNova-Semibold'" font-size="11">0</text>
<text transform="matrix(1 0 0 1 808.2617 215.6284)" fill="#FFFFFF" font-family="'ProximaNova-Semibold'" font-size="11">0</text>
<text transform="matrix(1 0 0 1 815.0488 215.6284)" fill="#FFFFFF" font-family="'ProximaNova-Semibold'" font-size="11">0</text>
<text transform="matrix(1 0 0 1 781.8174 303.6284)" fill="#FFFFFF" font-family="'ProximaNova-Semibold'" font-size="11">1</text>
<text transform="matrix(1 0 0 1 785.9971 303.6284)" fill="#FFFFFF" font-family="'ProximaNova-Semibold'" font-size="11">2</text>
<text transform="matrix(1 0 0 1 792.542 303.6284)" fill="#FFFFFF" font-family="'ProximaNova-Semibold'" font-size="11">0</text>
<text transform="matrix(1 0 0 1 799.0537 303.6284)" fill="#FFFFFF" font-family="'ProximaNova-Semibold'" font-size="11">,</text>
<text transform="matrix(1 0 0 1 801.4736 303.6284)" fill="#FFFFFF" font-family="'ProximaNova-Semibold'" font-size="11">0</text>
<text transform="matrix(1 0 0 1 808.2607 303.6284)" fill="#FFFFFF" font-family="'ProximaNova-Semibold'" font-size="11">0</text>
<text transform="matrix(1 0 0 1 815.0479 303.6284)" fill="#FFFFFF" font-family="'ProximaNova-Semibold'" font-size="11">0</text>
<text transform="matrix(1 0 0 1 8.2798 351.3862)" fill="#FFFFFF" font-family="'ProximaNova-Bold'" font-size="10">2</text>
<text transform="matrix(1 0 0 1 16.2798 351.3862)" fill="#FFFFFF" font-family="'ProximaNova-Bold'" font-size="10">0</text>
<text transform="matrix(1 0 0 1 24.4795 351.3862)" fill="#FFFFFF" font-family="'ProximaNova-Bold'" font-size="10">0</text>
<text transform="matrix(1 0 0 1 32.6797 351.3862)" fill="#FFFFFF" font-family="'ProximaNova-Bold'" font-size="10">6</text>
<text transform="matrix(1 0 0 1 40.96 351.3862)" fill="#FFFFFF" font-family="'ProximaNova-Bold'" font-size="10">	</text>
<text transform="matrix(1 0 0 1 50.2803 351.3862)" fill="#FFFFFF" font-family="'ProximaNova-Bold'" font-size="10">	</text>
<text transform="matrix(1 0 0 1 84.2803 351.3862)" fill="#FFFFFF" font-family="'ProximaNova-Bold'" font-size="10">	</text>
<text transform="matrix(1 0 0 1 120.2803 351.3862)" fill="#FFFFFF" font-family="'ProximaNova-Bold'" font-size="10"> </text>
<text transform="matrix(1 0 0 1 124.8501 351.3862)" fill="#FFFFFF" font-family="'ProximaNova-Bold'" font-size="10">2</text>
<text transform="matrix(1 0 0 1 132.8501 351.3862)" fill="#FFFFFF" font-family="'ProximaNova-Bold'" font-size="10">0</text>
<text transform="matrix(1 0 0 1 141.0503 351.3862)" fill="#FFFFFF" font-family="'ProximaNova-Bold'" font-size="10">0</text>
<text transform="matrix(1 0 0 1 149.2505 351.3862)" fill="#FFFFFF" font-family="'ProximaNova-Bold'" font-size="10">9</text>
<text transform="matrix(1 0 0 1 157.3306 351.3862)" fill="#FFFFFF" font-family="'ProximaNova-Bold'" font-size="10">	</text>
<text transform="matrix(1 0 0 1 192.2808 351.3862)" fill="#FFFFFF" font-family="'ProximaNova-Bold'" font-size="10">	</text>
<text transform="matrix(1 0 0 1 228.2808 351.3862)" fill="#FFFFFF" font-family="'ProximaNova-Bold'" font-size="10">	</text>
<text transform="matrix(1 0 0 1 264.2808 351.3862)" fill="#FFFFFF" font-family="'ProximaNova-Bold'" font-size="10">2</text>
<text transform="matrix(1 0 0 1 272.2808 351.3862)" fill="#FFFFFF" font-family="'ProximaNova-Bold'" font-size="10">0</text>
<text transform="matrix(1 0 0 1 280.4805 351.3862)" fill="#FFFFFF" font-family="'ProximaNova-Bold'" font-size="10">1</text>
<text transform="matrix(1 0 0 1 286.5903 351.3862)" fill="#FFFFFF" font-family="'ProximaNova-Bold'" font-size="10">2</text>
<text transform="matrix(1 0 0 1 294.5903 351.3862)" fill="#FFFFFF" font-family="'ProximaNova-Bold'" font-size="10">	</text>
<text transform="matrix(1 0 0 1 300.2808 351.3862)" fill="#FFFFFF" font-family="'ProximaNova-Bold'" font-size="10">	</text>
<text transform="matrix(1 0 0 1 336.2808 351.3862)" fill="#FFFFFF" font-family="'ProximaNova-Bold'" font-size="10">	</text>
<text transform="matrix(1 0 0 1 372.2803 351.3862)" fill="#FFFFFF" font-family="'ProximaNova-Bold'" font-size="10"> </text>
<text transform="matrix(1 0 0 1 376.8506 351.3862)" fill="#FFFFFF" font-family="'ProximaNova-Bold'" font-size="10"> </text>
<text transform="matrix(1 0 0 1 381.4199 351.3862)" fill="#FFFFFF" font-family="'ProximaNova-Bold'" font-size="10"> </text>
<text transform="matrix(1 0 0 1 385.9902 351.3862)" fill="#FFFFFF" font-family="'ProximaNova-Bold'" font-size="10"> </text>
<text transform="matrix(1 0 0 1 390.5596 351.3862)" fill="#FFFFFF" font-family="'ProximaNova-Bold'" font-size="10"> </text>
<text transform="matrix(1 0 0 1 395.1299 351.3862)" fill="#FFFFFF" font-family="'ProximaNova-Bold'" font-size="10">2</text>
<text transform="matrix(1 0 0 1 403.1299 351.3862)" fill="#FFFFFF" font-family="'ProximaNova-Bold'" font-size="10">0</text>
<text transform="matrix(1 0 0 1 411.3291 351.3862)" fill="#FFFFFF" font-family="'ProximaNova-Bold'" font-size="10">1</text>
<text transform="matrix(1 0 0 1 417.4395 351.3862)" fill="#FFFFFF" font-family="'ProximaNova-Bold'" font-size="10">5</text>
<text transform="matrix(1 0 0 1 425.5195 351.3862)" fill="#FFFFFF" font-family="'ProximaNova-Bold'" font-size="10">	</text>
<text transform="matrix(1 0 0 1 444.2803 351.3862)" fill="#FFFFFF" font-family="'ProximaNova-Bold'" font-size="10">	</text>
<text transform="matrix(1 0 0 1 480.2803 351.3862)" fill="#FFFFFF" font-family="'ProximaNova-Bold'" font-size="10">	</text>
<text transform="matrix(1 0 0 1 516.2803 351.3862)" fill="#FFFFFF" font-family="'ProximaNova-Bold'" font-size="10"> </text>
<text transform="matrix(1 0 0 1 520.8506 351.3862)" fill="#FFFFFF" font-family="'ProximaNova-Bold'" font-size="10">2</text>
<text transform="matrix(1 0 0 1 528.8506 351.3862)" fill="#FFFFFF" font-family="'ProximaNova-Bold'" font-size="10">0</text>
<text transform="matrix(1 0 0 1 537.0498 351.3862)" fill="#FFFFFF" font-family="'ProximaNova-Bold'" font-size="10">1</text>
<text transform="matrix(1 0 0 1 543.1602 351.3862)" fill="#FFFFFF" font-family="'ProximaNova-Bold'" font-size="10">8</text>
<text transform="matrix(1 0 0 1 551.2197 351.3862)" fill="#FFFFFF" font-family="'ProximaNova-Bold'" font-size="10">	</text>
<text transform="matrix(1 0 0 1 552.2803 351.3862)" fill="#FFFFFF" font-family="'ProximaNova-Bold'" font-size="10">	</text>
<text transform="matrix(1 0 0 1 588.2803 351.3862)" fill="#FFFFFF" font-family="'ProximaNova-Bold'" font-size="10">	</text>
<text transform="matrix(1 0 0 1 624.2803 351.3862)" fill="#FFFFFF" font-family="'ProximaNova-Bold'" font-size="10"> </text>
<text transform="matrix(1 0 0 1 628.8496 351.3862)" fill="#FFFFFF" font-family="'ProximaNova-Bold'" font-size="10"> </text>
<text transform="matrix(1 0 0 1 633.4199 351.3862)" fill="#FFFFFF" font-family="'ProximaNova-Bold'" font-size="10"> </text>
<text transform="matrix(1 0 0 1 637.9893 351.3862)" fill="#FFFFFF" font-family="'ProximaNova-Bold'" font-size="10"> </text>
<text transform="matrix(1 0 0 1 642.5596 351.3862)" fill="#FFFFFF" font-family="'ProximaNova-Bold'" font-size="10"> </text>
<text transform="matrix(1 0 0 1 647.1289 351.3862)" fill="#FFFFFF" font-family="'ProximaNova-Bold'" font-size="10">2</text>
<text transform="matrix(1 0 0 1 655.1289 351.3862)" fill="#FFFFFF" font-family="'ProximaNova-Bold'" font-size="10">0</text>
<text transform="matrix(1 0 0 1 663.3291 351.3862)" fill="#FFFFFF" font-family="'ProximaNova-Bold'" font-size="10">2</text>
<text transform="matrix(1 0 0 1 671.3291 351.3862)" fill="#FFFFFF" font-family="'ProximaNova-Bold'" font-size="10">1</text>
<text transform="matrix(1 0 0 1 677.4395 351.3862)" fill="#FFFFFF" font-family="'ProximaNova-Bold'" font-size="10">	</text>
<text transform="matrix(1 0 0 1 696.2803 351.3862)" fill="#FFFFFF" font-family="'ProximaNova-Bold'" font-size="10"> </text>
<text transform="matrix(1 0 0 1 700.8496 351.3862)" fill="#FFFFFF" font-family="'ProximaNova-Bold'" font-size="10">	</text>
<text transform="matrix(1 0 0 1 732.2803 351.3862)" fill="#FFFFFF" font-family="'ProximaNova-Bold'" font-size="10">	</text>
<text transform="matrix(1 0 0 1 768.2803 351.3862)" fill="#FFFFFF" font-family="'ProximaNova-Bold'" font-size="10"> </text>
<text transform="matrix(1 0 0 1 772.8496 351.3862)" fill="#FFFFFF" font-family="'ProximaNova-Bold'" font-size="10">2</text>
<text transform="matrix(1 0 0 1 780.8496 351.3862)" fill="#FFFFFF" font-family="'ProximaNova-Bold'" font-size="10">0</text>
<text transform="matrix(1 0 0 1 789.0498 351.3862)" fill="#FFFFFF" font-family="'ProximaNova-Bold'" font-size="10">2</text>
<text transform="matrix(1 0 0 1 797.0498 351.3862)" fill="#FFFFFF" font-family="'ProximaNova-Bold'" font-size="10">3</text>
</svg>
