<?xml version="1.0" encoding="utf-8"?>
<!-- Generator: Adobe Illustrator 16.0.0, SVG Export Plug-In . SVG Version: 6.00 Build 0)  -->
<!DOCTYPE svg PUBLIC "-//W3C//DTD SVG 1.1 Tiny//EN" "http://www.w3.org/Graphics/SVG/1.1/DTD/svg11-tiny.dtd">
<svg version="1.1" baseProfile="tiny" id="Layer_1" xmlns="http://www.w3.org/2000/svg" xmlns:xlink="http://www.w3.org/1999/xlink"
	 x="0px" y="0px" width="623.622px" height="595.275px" viewBox="0 0 623.622 595.275" xml:space="preserve">
<g id="AOBG4l_1_">
	<g>
		<g>
			<path fill="rgba(0,0,0,0)" d="M311.612,13.373c101.809,0,203.618,0.022,305.428-0.095c3.41-0.004,4.082,0.668,4.08,4.078
				c-0.106,187.519-0.106,375.039,0,562.559c0.002,3.407-0.668,4.079-4.08,4.077c-203.618-0.105-407.236-0.105-610.854,0
				c-3.41,0.001-4.083-0.666-4.081-4.076c0.106-187.521,0.106-375.041,0-562.56c-0.002-3.409,0.668-4.082,4.08-4.078
				C107.995,13.395,209.803,13.373,311.612,13.373z"/>
			<path fill-rule="evenodd" fill="#DBE7F6" d="M250.328,370.82c-9.188,6.88-19.738,10.535-30.819,12.857
				c-1.582,0.331-3.438,0.383-4.938-0.119c-4.035-1.352-7.184,0.31-9.992,2.688c-5.212,4.414-10.739,8.213-17.27,10.399
				c-2.734,0.916-4.5,2.615-4.833,5.638c-0.389,3.526-2.208,6.535-4.169,9.306c-1.878,2.651-4.929,4.359-8.143,3.613
				c-2.943-0.685-5.664-0.745-8.203,0.504c-4.409,2.172-9.001,0.884-13.294,0.473c-3.513-0.336-6.456,0.415-9.593,1.221
				c-4.207,1.081-8.205,3.09-12.65,3.093c-3.987,0.003-6.121,2.123-6.967,5.748c-0.837,3.587-2.986,5.122-6.662,5.398
				c-3.493,0.262-5.283,3.442-7.261,5.765c-3.877,4.552-8.841,6.768-14.473,6.984c-6.415,0.247-13.16,1.235-19.112-1.979
				c-5.141-2.777-9.422-6.787-15.85-7.406c-2.571-0.248-2.87-4.772-3.062-7.776c-0.182-2.826,2.044-2.236,3.688-2.812
				c3.596-1.259,5.229-4.957,4.508-7.781c-1.788-7.012-2.079-13.858-1.511-21.006c0.167-2.099-2.526-4.464-4-6.646
				c-5.047-7.473-10.779-14.514-13.788-23.228c-0.674-1.952-0.769-3.865-1.017-5.815c-1.288-10.147-7.687-17.402-14.181-24.496
				c-1.518-1.659-3.499-3.546-3.265-5.297c0.952-7.129-4.728-10.509-8.02-15.12c-2.879-4.033-1.904-8.303,3-9.962
				c2.12-0.717,2.874-7.952,0.605-10.307c-4.812-4.996-8.293-10.934-12.485-16.334c-5.035-6.487-4.2-13.062-1.849-19.532
				c1.879-5.172,1.645-10.072-0.388-14.488c-2.125-4.619,0.015-8.318,0.675-12.387c0.168-1.042,1.17-1.53,2.305-1.479
				c1.578,0.072,1.432,1.415,1.991,2.367c0.999,1.703-0.275,5.213,2.608,5.059c2.544-0.136,2.26-3.359,2.582-5.328
				c0.809-4.945,3.138-8.677,7.785-10.64c5.951-2.513,9.076-7.69,12.998-12.376c5.295-6.329,12.191-10.582,21.144-9.874
				c3.586,0.283,7.12-0.612,9.293-3.551c2.591-3.503,5.998-4.941,10.018-5.565c2.203-0.342,4.289-0.98,5.247-3.223
				c1.957-4.581,5.722-4.89,9.859-4.272c4.061,0.606,7.035-2.256,10.455-3.458c10.282-3.61,18.903-9.333,21.72-21.035
				c1.221-5.075,6.067-7.54,9.413-11.07c1.227-1.294,2.817-1.8,0.236-4.368c-4.943-4.919-3.479-12.486,2.075-17.214
				c1.664-1.416,2.829-3.387,4.195-5.036c2.886-3.486,3.947-3.921,6.668,0.016c2.522,3.65,4.829,7.449,7.478,11.565
				c0.572-1.729,0.613-3.29,1.414-4.029c3.464-3.198,2.989-5.712-0.267-8.912c-2.274-2.235-0.041-4.551,2.59-6.175
				c4.723-2.915,9.359,2.25,13.671-1.053c-0.232-0.974-2.273-0.229-2.11-0.861c1.015-3.947-0.267-6.774-2.456-10.254
				c-2.261-3.594,3.204-4.499,5.1-6.601c1.656-1.837,3.589-0.04,4.729,2.461c1.9-3.42-0.464-9.399,6.884-7.711
				c-3.387-0.89-4.287-3.292-4.487-5.134c-0.189-1.747,2.352-2.419,3.848-3.357c1.969-1.233,4.184-0.891,6.313-0.706
				c1.16,0.101,2.799,0.687,2.854-0.828c0.144-3.931,2.593-6.818,5.698-6.629c4.584,0.279,6.384-3.994,10.078-4.501
				c3.979-0.548,7.951-0.379,11.224,2.36c3.478,2.911,5.042,7.711,9.594,9.658c0.885,0.378,0.56,1.767,0.189,2.748
				c-0.784,2.072-0.723,4.175,0.039,7.384c0.755-2.505,0.602-5.044,3.458-4.408c0.6,0.134,1.643-0.229,1.455-0.937
				c-0.965-3.625,0.543-4.477,3.81-3.737c3.37,0.764,6.643,1.54,5.66,6.236c-0.1,0.477-0.012,0.993-0.011,1.492
				c1.569,1.754,1.548,3.931,1.551,6.071c0.01,7.247,0.115,14.494-0.028,21.74c-1.019,22.872,0.799,45.708,1.162,68.561
				c0.131,8.236,0.235,16.541,0.749,24.791c1.298,20.809,1.321,41.663,2.391,62.475c0.203,0.603,0.335,1.223,0.414,1.852
				c-0.419,14.989,0.753,29.954,1.396,44.901c0.388,9.005-0.007,18.093,1.322,27.062c0.243,0.924,0.376,1.861,0.38,2.814
				c0.038,5.293,0.039,10.587,0.012,15.88C251.697,367.169,251.822,369.197,250.328,370.82z"/>
			<path fill-rule="evenodd" fill="#F5FAFD" d="M390.872,111.939c3.946,1.149,7.947,2.143,11.822,3.494
				c3.604,1.257,7.038,2.804,7.649,7.415c0.311,2.339,2.96,2.568,4.573,3.409c5.926,3.088,11.9,7.074,18.904,2.546
				c0.959-0.62,2.424-1.139,2.71-2.014c2.894-8.846,10.304-15.934,10.149-25.952c-0.003-0.164-0.005-0.353,0.067-0.489
				c4.462-8.287,3.312-17.507,4.449-26.351c0.142-1.099,0.042-2.111-0.597-2.786c-2.565-2.71-1.346-5.581-0.311-8.272
				c1.203-3.133,3.612-5.695,1.562-9.668c-1.068-2.073,1.665-3.509,3.635-3.711c3.785-0.39,2.209-1.879,0.812-3.22
				c-4.401-4.223-4.712-5.388,0.381-7.656c4.054-1.805,2.213-5.233,2.819-7.41c0.92-3.296,2.448-6.742,2.229-10.517
				c-0.204-3.522,2.979-2.275,4.856-2.351c2.819-0.113,6.072-0.134,6.758,3.465c0.677,3.555,0.843,7.241,0.876,10.873
				c0.019,2.177,0.613,3.108,2.816,2.808c2.811-0.382,2.884,1.028,1.703,2.88c-1.32,2.072-1.57,3.239,0.708,5.323
				c1.588,1.453,3.667,4.025,2.752,7.359c-0.661,2.406,2.568,3.647,2.545,6.673c-0.045,5.92-0.193,11.936,1.706,17.837
				c1.676,5.207,3.081,6.186,7.707,3.354c4.288-2.625,6.118-1.8,8.521,2.929c1.063,2.095,2.855,4.71,4.837,5.278
				c5.561,1.595,4.995,6.202,4.271,9.439c-0.646,2.891,0.408,5,0.571,7.466c0.26,3.917,1.543,7.687,0.798,11.789
				c-0.522,2.882,1.855,5.106,3.857,7.15c6.033,6.158,7.717,13.375,4.982,21.549c-1.419,4.239,4.151,18.013,8.028,20.232
				c3.671,2.103,7.307,4.206,11.37,5.474c1.387,0.433,2.62,1.659,2.482,2.838c-0.486,4.15,2.432,5.789,5.278,6.639
				c4.326,1.291,6.388,5.604,10.554,6.984c1.057,0.351,2.666,1.736,2.122,3.038c-2.093,5.015,0.882,8.292,3.987,11.037
				c3.929,3.471,3.561,8.484,5.05,12.676c1.084,3.052,2.104,6.933,1.073,10.682c-0.572,2.081,1.264,2.713,2.886,3.299
				c2.357,0.853,2.37-0.643,2.446-2.247c0.06-1.224,0.876-1.687,2.026-1.661c1.249,0.027,1.418,0.982,1.91,1.887
				c1.679,3.088,4.195,5.687,7.44,6.765c2.925,0.973,2.754,2.367,1.826,4.407c-0.761,1.675-0.954,3.479-1.438,5.191
				c-1.674,5.902,3.563,8.319,5.827,12.151c1.697,2.873,3.683,5.646,7.509,6.632c2.319,0.598,3.822,2.542,3.852,5.632
				c0.037,3.969,4.251,5.266,6.185,7.921c1.66,2.278-0.692,7.026,4.214,8.129c1.201,0.271,1.679,1.305,1.068,2.283
				c-1.94,3.115-0.283,5.992,0.297,8.984c1.224,6.32,0.131,12.519-1.448,18.617c-0.581,2.245-1.937,4.686-0.472,6.621
				c3.31,4.373,2.946,9.28,2.962,14.211c-2.046,2.942-5.036,3.513-8.31,3.187c-1.977-0.197-3.904-0.946-5.873-1.012
				c-3.814-0.127-7.372,0.396-8.277,5.144c-0.469,2.455-2.028,3.533-4.586,3.63c-3.297,0.124-9.553-2.097-11.933-4.546
				c-6.209-6.387-19.659-8.175-27.114-3.341c-3.322,2.155-6.761,2.608-10.451,2.003c-24.716-4.052-49.648-6.25-74.572-8.401
				c-10.713-0.926-21.439-1.994-32.208-2.293c-1.971-0.054-4.033,0.055-5.51-1.691c-0.805-1.327-1.094-2.835-0.934-4.298
				c1.063-9.674,0.216-19.483,1.976-29.095c2.829-15.456,1.527-17.289-14.146-17.458c-8.451-0.091-16.821-0.768-25.178-1.858
				c-1.786-0.233-3.646-0.328-5.151-1.556c-1.916-2.596-1.36-5.475-0.98-8.339c0.355-1.445,0.701-2.884,0.652-4.397
				c-0.562-17.526,1.114-35.021,0.897-52.525c-0.174-14.066,0.562-28.102,1.341-42.091c0.884-15.876,0.396-31.722,0.786-47.575
				c0.024-0.993,0.062-1.986,0.332-2.953C389.999,112.899,390.362,112.369,390.872,111.939z"/>
			<path fill-rule="evenodd" fill="#D1D7E5" d="M390.872,111.939c-0.023,0.342-0.047,0.685-0.069,1.026
				c-1.093,5.383-0.881,10.912-0.804,16.283c0.367,25.036-1.468,50.005-1.854,75.017c-0.288,18.716-0.812,37.432-0.819,56.155
				c0,0.982,0.156,2.002-0.471,2.888c0.012,2.637,0.023,5.274,0.035,7.911c-0.242,0.224-0.483,0.447-0.724,0.673
				c-2.356,1.127-4.883,0.744-7.344,0.746c-36.789,0.027-73.579,0.009-110.368,0.029c-4.625,0.002-9.244-0.19-13.854,0.76
				c-2.364,0.488-4.97,0.677-7.207-0.902c-0.393-0.56-0.563-1.185-0.527-1.865c0.732-13.885-1.047-27.704-1.091-41.578
				c-0.041-12.686-0.468-25.406-1.196-38.045c-0.59-10.231,0.208-20.479-0.833-30.617c-1.423-13.871-0.506-27.731-0.875-41.59
				c-0.018-0.677-0.124-1.308-0.499-1.88c-0.005-9.303-0.009-18.605-0.014-27.907c3.126-0.833,4.816-6.203,9.245-2.919
				c0.832-3.267,4.448-3.644,6.583-5.938c-1.961-0.792-5.498,1.311-4.641-3.132c0.217-1.129-1.193-0.298-1.877-0.216
				c-2.539,0.304-3.518-1.623-4.16-3.385c-0.635-1.74,0.26-2.691,2.231-3.554c2.826-1.237,4.065-4.307,3.95-7.287
				c-0.114-2.933,0.855-3.953,3.636-4.71c2.512-0.683,6.42-1.542,2.649-5.864c-1.46-1.675,3.915-8.461,6.111-7.498
				c3.133,1.375,3.707-3.206,6.657-2.033c0.734,0.292,1.162-3.589,1.166-4.345c0.022-4.328,2.942-3.137,4.693-2.724
				c5.717,1.352,11.342,0.714,16.959-0.201c3.622-0.59,7.016-1.597,5.843-6.728c-0.548-2.398,1.368-4.454,2.639-6.113
				c1.292-1.687,3.55-2,5.181,0.69c2.449,4.04,5.951,5.366,10.876,4.488c2.08-0.371,4.631,1.758,6.927,2.836
				c0.568,0.267,0.966,1.242,1.464,1.26c5.532,0.2,10.985,0.439,15.456,4.469c0.609,0.549,2.225-0.079,2.406-1.137
				c0.471-2.735,2.977-2.104,3.798-1.576c2.608,1.679,6.668,0.286,8.207,4.645c0.845,2.391,3.434,1.502,5.072-0.585
				c0.869-1.106,1.331-3.236,3.005-2.958c2.351,0.392,4.654,1.348,6.825,2.384c0.901,0.431,0.92,2.261,0.134,2.571
				c-2.808,1.107-4.908,4.395-5.329,5.822c-1.733,5.887-6.644,6.365-10.803,8.551c-2.359,1.241-1.983,4.623-0.874,6.3
				c2.812,4.248,0.176,7.175-1.865,10.07c-2.147,3.046-5.045,5.794-5.65,9.491c-0.84,5.123,4.604,4.683,7.152,6.777
				c2.631,2.164,5.755,3.771,7.864,6.529c4.733,6.188,12.587,6.454,18.788,9.861C386.683,105.087,389.134,108.022,390.872,111.939z"
				/>
			<path fill-rule="evenodd" fill="#CEDDF2" d="M386.891,271.219c14.616,1.011,29.229,2.074,43.854,2.984
				c2.539,0.158,3.042,1.405,2.939,3.508c-0.23,4.764-0.032,9.489-0.814,14.295c-1.825,11.223-1.709,22.636-2.145,33.986
				c0.021,0.304,0.04,0.607,0.064,0.911c-1.421,6.326-1.161,12.853-1.419,19.215c-0.603,14.84-1.793,29.647-2.503,44.478
				c-0.353,7.343-2.274,14.635-1.749,22.104c-1.562,13.035-1.363,26.207-3.631,39.22c-1.32,7.583-0.314,15.457-0.306,23.2
				c0.018,2.192,0.265,4.439-1.455,6.224c-4.384,0.622-7.161-0.407-8.932-5.27c-1.483-4.071-6.739-6.225-7.34-11.26
				c-0.116-0.967-0.776-2.09-0.47-2.854c4.047-10.094-0.694-17.176-7.774-23.604c-2.005-1.82-3.773-2.44-6.122-0.698
				c-1.725,1.278-4.188,1.637-5.521,0.224c-1.776-1.884,0.819-3.058,1.84-4.376c2.809-3.626,3.425-10.114,0.9-13.701
				c-1.383-1.964-1.688-4.271-2.894-6.505c-3.58,3.95-2.683,9.341-4.774,13.646c-0.854,1.756-0.738,4.403-4.249,3.014
				c-3.005-1.19-2.834-2.803-1.647-4.957c1.093-1.984,1.288-4.081,1.148-6.252c-0.375-5.886,0.761-11.189,5.559-15.204
				c0.588-0.492,1.392-1.67,1.194-2.013c-2.461-4.271,2.948-8.581-0.338-12.725c-0.801,1.251-0.543,3.369-2.598,4.043
				c-0.73,0.239-1.75,0.923-1.855,1.537c-1.463,8.56-9.782,10.051-14.911,14.84c-3.836,3.583-6.842,8.082-10.023,12.319
				c-0.965,1.286-1.191,3.329-3.387,2.88c-1.968-0.403-2.237-2.191-2.513-3.851c-0.351-2.107-0.638-4.229-1.087-6.316
				c-0.836-3.887-1.667-7.785-5.168-10.382c-0.933-0.691-1.485-1.697-1.812-2.884c-0.916-3.336-1.692-6.287-6.345-6.948
				c-2.069-0.294-6.697-2.936-2.845-7.299c0.389-0.439,0.323-1.871-0.094-2.328c-1.762-1.925-4.591-2.421-5.901-5.238
				c-1.345-2.889-4.148-2.622-6.925-1.567c-1.378,0.522-2.894,0.204-4.219-0.8c-3.094-2.344-6.153-4.643-10.159-1.351
				c-1.163,0.955-2.447-0.331-3.416-1.281c-3.501-3.432-7.757-5.565-12.342-7.119c-0.757-0.257-1.812-0.806-2.298-0.511
				c-7.311,4.446-15.692,0.86-23.312,3.16c-2.115,0.639-4.403,1.573-6.794,1.053c-1.792-2.728-0.68-5.782-0.967-8.678
				c-0.434-4.377,0.934-8.892-0.997-13.157c-0.004-0.672-0.008-1.345-0.013-2.017c-0.203-0.443-0.484-0.851-0.459-1.383
				c0.633-13.487-0.685-26.946-1.313-40.376c-0.482-10.294,0.077-20.642-1.206-30.898c-0.003-0.329-0.007-0.658-0.011-0.987
				c0.283-0.15,0.565-0.301,0.848-0.451c39.804-1.672,79.631-0.865,119.45-1.06c4.645-0.023,9.256,0.812,13.909,0.494
				c1.792-0.123,3.688,0.327,5.262-0.969L386.891,271.219z"/>
			<path fill-rule="evenodd" fill="#D3E0F3" d="M430.726,325.993c17.837,0.303,35.561,2.108,53.289,3.897
				c10.985,1.109,21.997,1.952,32.975,3.134c7.69,0.828,15.418,1.652,22.984,3.19c5.172,1.052,9.71,1.261,13.846-2.479
				c4.782-4.325,10.963-2.639,15.366-0.999c3.512,1.307,8.184,1.037,11.006,4.646c1.894,2.42,4.747,4.163,4.409,8.193
				c1.986-3.071,4.107-4.398,7.583-2.871c2.493,1.096,3.155-1.201,3.313-3.025c0.136-1.561-0.966-3.933,1.169-4.201
				c2.923-0.367,5.214-3.264,8.442-1.952c4.719,1.917,9.359,1.793,13.919-0.522c1.507,5.172,1.941,10.285-1.578,14.863
				c-4.107,5.345-3.562,12.754-7.623,17.863c-4.479,5.633-3.78,12.674-6.474,18.706c-1.835,4.109-4.311,7.723-7.393,10.996
				c-1.751,1.858-3.79,3.671-2.944,6.82c0.549,2.041-1.246,2.576-2.672,2.801c-6.803,1.072-9.995,6.813-14.565,10.847
				c-5.774,5.099-6.954,12.971-11.877,18.73c-1.786,2.09-3.111,6.26-4.677,9.254c-1.834,3.506-4.625,6.835-7.282,9.928
				c-1.857,2.16-2.861,4.404-3.498,6.881c-1.031,4.014-2.301,7.896-4.083,11.643c-0.88,1.849-1.627,3.561-0.956,6.017
				c1.143,4.187-0.666,5.379-5.079,3.997c-5.97-3.234-11.562-7.027-16.804-11.344c-1.076-1.324-1.968-2.756-2.519-4.382
				c-0.777-2.035-0.791-4.188-0.978-6.317c-0.321-3.643-2.399-5.425-5.967-4.95c-10.448,1.39-19.99-1.423-29.209-5.935
				c-2.134-0.576-4.372-1.562-5.51,1.512c-3.18,2.77-5.523,2.395-8.473-1.986c-2.314-3.437-4.845-6.604-7.961-9.312
				c-1.416-1.424-2.297-3.347-4.121-4.396c-1.329-0.907-1.817-2.182-1.925-3.77c-0.255-3.765-2.846-5.364-6.063-4.724
				c-4.188,0.835-5.778-1.284-6.793-4.537c-1.92-6.158-2.061-6.346-8.51-6.013c-1.533,0.08-2.942,0.059-4.171-0.978
				c-1.209-1.363-3.173-1.287-4.541-2.37c-0.355-0.467-0.516-0.983-0.491-1.568c0.907-13.986,2.479-27.906,3.017-41.921
				c0.519-13.506,1.484-27.001,2.562-40.48c0.077-0.965,0.256-1.974,0.805-2.84L430.726,325.993z"/>
			<path fill-rule="evenodd" fill="#D7EFF6" d="M461.589,438.542c4.644,3.179,6.76,8.568,10.779,12.306
				c1.66,1.544,2.981,2.06,4.167-0.373c1.078-3.387,3.524-2.688,5.968-1.996c3.528-1.246,4.849,2.878,7.846,3.167
				c7.022,0.678,13.485,3.845,21.123,2.407c6.709-1.263,7.958,2.044,7.895,7.58c-0.02,1.688,0.146,3.296,1.011,4.776
				c-1.401,2.364,0.807,2.926,1.997,3.995c4.896,4.545,11.609,6.664,15.951,11.943c-0.181,4.703-2.448,6.695-7.176,5.699
				c-6.299-1.326-12.704-0.43-19.007-1.292c-1.922-0.264-3.286,1.402-4.017,2.4c-4.648,6.347-10.511,8.781-18.436,10.144
				c-4.974,0.855-6.652-2.103-9.918-2.867c-0.24-0.056-0.324-0.622-0.584-0.77c-3.149-1.794,1.643-4.366-0.432-5.794
				c-1.685-1.158-4.691-0.416-4.379-4.014c0.106-1.215-0.905-3.919-2.24-2.86c-1.89,1.497-5.887,0.27-5.812,4.103
				c0.023,1.21-0.217,1.749-1.281,2.232c-1.339,0.608-2.641,1.348-3.846,2.193c-9.591,6.73-9.818,7.031-18.764-0.251
				c-3.684-2.999-8.578-2.37-11.922-5.491c-0.108-0.102-0.381-0.199-0.451-0.142c-6.081,4.889-6.833-3.009-10.334-4.294
				c0.002-1.995,0.006-3.99,0.008-5.986c1.317-4.691,0.565-9.526,0.638-14.253c0.127-8.278,1.642-16.397,2.08-24.639
				c0.406-7.66,0.65-15.397,1.835-23.024c0.146-0.266,0.291-0.531,0.438-0.797c0.328-0.002,0.658-0.003,0.988-0.003
				c1.19,0.933,3.255,0.11,3.978,1.98c1.886,1.535,3.786,0.045,5.666-0.026c4.383-0.166,6.942,1.307,7.541,6.108
				c0.362,2.906,0.767,6.777,6.001,4.237c2.703-1.312,7.619,3.35,7.17,6.476c-0.24,1.676,0.218,2.465,1.516,3.127
				C459.262,435.535,459.068,438.396,461.589,438.542z"/>
			<path fill-rule="evenodd" fill="#DCE8F6" d="M509.418,545.116c0.477,4.859-1.171,9.254-4.535,13.515
				c-1.994,2.525-2.428,6.285-3.544,9.497c-0.847,2.432-1.559,5.127-4.976,2.672c-0.735-0.528-1.794-1.073-2.142-0.37
				c-1.617,3.262-4.081,5.657-6.618,8.207c-1.702,1.711-2.661,3.751-5.41,3.026c-2.136-0.562-4.704,0.923-5.787-3.411
				c-0.735-2.942-5.867-4.667-7.329-8.362c-1.103-2.787-4.202-5.909,0.418-8.556c0.752-0.43,1.175-1.42,0.491-2.131
				c-2.209-2.294-1.911-5.625-3.456-8.106c-2.444-3.926-3.384-8.104-2.923-12.619c0.207-2.032-1.184-5.029,1.125-5.87
				c2.575-0.94,5.482-1.077,8.391,0.948c4.909,3.42,9.967,8.578,16.401,6.415c4.629-1.556,9.333-1.471,13.904-2.759
				c5.811-1.634,5.962-1.179,5.989,4.977C509.421,543.018,509.418,543.845,509.418,545.116z"/>
			<path fill-rule="evenodd" fill="#C2D6EF" d="M250.341,348.932c2.078,0.927,1.991,2.768,1.984,4.605
				c-0.021,5.743-0.016,11.487-0.021,17.229c-0.659,0.018-1.318,0.035-1.977,0.054C250.333,363.524,250.336,356.228,250.341,348.932
				z"/>
			<path fill-rule="evenodd" fill="#BDC9E1" d="M242.372,116.95c1.099,0.817,0.974,2.016,0.978,3.168
				c0.007,1.989-0.027,3.978,0.007,5.966c0.326,19.348,0.25,38.714,1.111,58.039c0.86,19.304,1.259,38.621,2.131,57.909
				c0.456,10.081,0.377,20.146,0.74,30.212c0.349,0.215,0.464,0.429,0.347,0.642c-0.116,0.212-0.233,0.319-0.351,0.319
				c0,0,0.003,0.064,0.003,0.064c-0.903-0.678-0.998-1.657-0.99-2.671c0.086-10.745-0.685-21.477-0.822-32.198
				c-0.197-15.383-1.042-30.747-1.478-46.11c-0.305-10.729,0.241-21.533-0.845-32.19
				C241.737,145.702,242.815,131.326,242.372,116.95z"/>
			<path fill-rule="evenodd" fill="#C2D6EF" d="M247.35,274.258c0.9,0.675,1.02,1.651,0.973,2.658
				c-0.515,11.033,0.89,22.012,0.956,33.021c0.075,12.338,1.749,24.624,1.049,36.979c-0.912-0.667-1.048-1.646-0.982-2.65
				c0.704-10.876-0.925-21.674-1.106-32.528C248.031,299.245,246.976,286.769,247.35,274.258z"/>
			<path fill-rule="evenodd" fill="#CCD3E4" d="M386.854,263.308c-0.002-16.561-0.528-33.141,0.11-49.676
				c1.092-28.229,1.771-56.453,2.138-84.698c0.066-5.198-0.421-10.827,1.7-15.968c0.011,13.416,0.632,26.865-0.105,40.24
				c-1.238,22.433-1.365,44.881-2.148,67.31c-0.439,12.555-0.217,25.102-0.727,37.641
				C387.752,259.898,388.49,261.842,386.854,263.308z"/>
			<path fill-rule="evenodd" fill="#B6C5E0" d="M247.336,273.206c0.001-0.32,0.003-0.641,0.003-0.961
				c46.477-2.135,92.98-0.484,139.468-0.959c-0.8,3.321-3.543,1.982-5.333,1.876c-32.134-1.919-64.298-0.842-96.438-0.725
				C272.488,272.481,259.914,273.339,247.336,273.206z"/>
			<path fill-rule="evenodd" fill="#BED2ED" d="M430.675,326.038c-0.96,12.783-2.049,25.558-2.839,38.351
				c-0.579,9.378-0.563,18.792-1.195,28.165c-0.454,6.705-0.49,13.472-1.915,20.092l-0.016-0.006
				c-0.328,0.438-0.655,0.46-0.981-0.002c-0.439-12.217,2.299-24.182,2.886-36.317c0.319-6.578,0.592-13.176,0.847-19.736
				c0.331-8.563,1.758-17.083,1.257-25.681C428.608,329.009,429.157,327.312,430.675,326.038z"/>
			<path fill-rule="evenodd" fill="#BFD9F1" d="M423.729,412.638c0.327,0.002,0.654,0.003,0.981,0.002
				c-0.965,12.119-1.997,24.233-2.866,36.359c-0.507,7.062-0.724,14.146-1.134,21.215c-0.102,1.742,0.671,3.685-0.975,5.146
				c-0.781-14.973,1.426-29.741,2.772-44.587C423.053,424.767,423.483,418.694,423.729,412.638z"/>
			<path fill-rule="evenodd" fill="#FFFFFF" d="M535.95,442.805c0.935-0.153,1.546,0.409,2.111,1.003
				c0.656,0.688,0.756,1.244-0.174,1.947c-2.002,1.513-2.142,3.906-2.547,6.129c-0.173,0.945,0.001,2.125-1.286,2.311
				c-1.667,0.241-1.619-1.268-2.002-2.261C530.598,448.149,532.803,443.01,535.95,442.805z"/>
			<path fill-rule="evenodd" fill="#C0DAF2" d="M482.503,448.479c-2.232-0.062-4.511-0.261-5.968,1.996
				C477.098,445.551,479.883,447.259,482.503,448.479z"/>
			<path fill-rule="evenodd" fill="#C0DAF2" d="M461.589,438.542c-3.188,0.521-2.956-2.377-4.004-3.997
				C460.106,434.69,459.697,437.767,461.589,438.542z"/>
			<path fill-rule="evenodd" fill="#C0DAF2" d="M522.374,470.404c-2.263-0.534-4.124-1.269-1.997-3.995
				C520.229,468.147,521.826,469.015,522.374,470.404z"/>
			<path fill-rule="evenodd" fill="#C0DAF2" d="M429.691,414.623c-1.326-0.66-2.652-1.32-3.978-1.98
				C427.271,412.838,429.373,411.944,429.691,414.623z"/>
		</g>
	</g>
	<g id="zhTmyB_1_">
	</g>
	<path id="path479" fill="none" stroke="#FFFFFF" stroke-width="1.175" stroke-linecap="round" stroke-linejoin="round" d="
		M512.594,523.157l0.371-0.658l-1.6-0.189l-2.162-4.135l0.189,0.752l-0.189-0.283l-0.092,0.283l0.092-0.852l-0.281-0.189l-0.85,0.66
		l-0.471-0.281l0.189,0.564l-0.471,0.848l-1.312,0.561l0.561,0.852l0.941-0.092l0.191,1.412l-0.752,0.467l1.123,0.473v1.031
		l0.189-0.379l0.379,0.379l0.281,1.791l-0.189,0.561l0.66,0.754h0.85l0.842-0.754l0.941,0.381l0.75-0.287l-0.182-0.186l-0.379,0.281
		l0.189-0.469l-0.471-0.568h0.471l0.371,0.756l-0.279-2.168l-0.189,0.758h-0.941l1.131-0.758L512.594,523.157z"/>
	<path id="path481" fill="none" stroke="#FFFFFF" stroke-width="1.175" stroke-linecap="round" stroke-linejoin="round" d="
		M506.477,563.046l-0.756-0.371l-0.092-0.473l0.848-0.098l0.373,0.941H506.477z"/>
	<path id="path483" fill="none" stroke="#FFFFFF" stroke-width="1.175" stroke-linecap="round" stroke-linejoin="round" d="
		M501.584,569.349l0.844-1.221l-0.752-0.189l1.039-1.502l0.561,0.373l0.471,1.129l-0.281,0.281l-0.848-0.184v1.033L501.584,569.349z
		"/>
	<path id="path487" fill="none" stroke="#FFFFFF" stroke-width="1.175" stroke-linecap="round" stroke-linejoin="round" d="
		M473.451,533.979l0.85-0.381l0.373,1.131l2.26,0.754l-0.092,0.658l1.125,1.031l1.789,0.658l2.443,1.791l1.039,0.189v0.373
		l0.092-0.471l1.223,0.281l0.098,0.568l0.09-0.379h1.223l1.039-0.66l0.281,1.32l-0.281,0.85l0.373-0.568l0.189,0.939l0.098-0.842
		l-0.287-0.287l0.379-0.652l-0.471,0.092v-0.283l0.752-0.189l0.566-0.658l0.373,0.098l0.471-0.471l0.941,0.652l0.189,0.76
		l-0.66,0.371l0.66-0.189l0.09,0.85h0.289l-0.189-0.564l0.281,0.186l0.279-0.373l0.568,0.471l-0.379,0.752l0.379-0.562h0.373
		l-0.842-0.939h-0.66l-0.379-1.412l1.32-0.471l0.939,0.184l0.941-0.652l1.314,0.369l0.469,0.381l-0.281,0.373l2.072-1.412
		l0.189,0.289l0.561-0.191l0.568,1.314l0.562-0.092l1.131-0.75l1.223-1.693l1.031-0.379l0.379,0.848l0.658-0.098l0.191,0.471
		l0.842,0.189l0.66-0.379l-0.189,0.379h0.379l-0.281-0.189l1.312-1.6L506.1,535.2l0.941,0.189l0.279,0.561h0.57l0.469,1.039
		l0.562,0.184l-0.281,0.098l0.373-0.281l0.471,0.471l0.848,2.443l0.471,0.281l-0.941,0.941l0.094-0.471l-0.562,0.379l0.469,0.189
		l-1.031,2.254l0.373,0.379l-0.092,0.75l0.66,0.094l-0.471,0.66l-0.287-0.373l-0.184,0.562l-0.758,0.092l0.66,0.287l0.939-0.85
		l0.283,0.09l-1.223,1.412l-0.373,1.412l-0.379-0.092l0.379,0.189l-0.098,0.561l-0.189-0.279l0.568,1.6l-0.66,1.693v1.318
		l-0.75,1.314l0.561,1.51l-1.033,1.971l0.844,1.223l-0.752,1.039l0.66,0.281l-0.189,0.66l-0.941,0.939l-0.371-0.85l0.654-0.66
		l-0.373-0.561l0.66-0.471l-0.66-0.281l-0.189-0.848l-0.85-0.191l1.318-1.031l-0.469-0.568l0.092-0.279l-0.281,0.377l0.189,0.562
		l-0.281,0.279l-0.379-0.469l-0.373,0.848l0.092-0.281l0.189,0.281l-0.85,0.473l1.602,0.471l-1.973-0.092l-0.098,1.033l-1.033,1.129
		l-0.379,1.129l-1.033,0.473l0.373,0.281l0.471-0.754l0.379,0.094v0.66l-0.66,0.842l-0.092,0.566l0.281,0.281l-0.189,1.033
		l-0.941,0.568l-0.281-0.75l-0.09,0.561l-0.471,0.189l0.752,0.941l-0.281,0.371l0.281,0.471l-0.381-0.184l0.281,0.562l-0.281,0.852
		l-1.031,0.75l-0.098,1.129l-0.184-0.469l-0.85,1.123l1.131,0.379v-0.379l-0.471-0.182l0.471-0.473h0.373l0.098,0.562l0.471-0.09
		l0.09,1.689l-1.129,0.943l0.471,1.504l-0.373,0.566h0.66l-0.758,0.842l0.471,0.568l-1.314-0.66l-0.189-1.51l-0.281,0.76h0.281
		l-0.092,0.842l-0.66-0.188l-0.377,0.85l-1.131-1.412l-0.092-0.561l0.85-0.66l-1.131-0.191l-0.189-1.41l0.85-0.283l0.184-0.939
		l0.568,0.281l-0.379,0.941l0.189,0.379l0.189-0.189v0.471l1.031,0.469l0.189-0.469l0.092,0.469l0.287-0.566l0.654-0.092
		l-1.033-0.281l0.281-0.379l-0.471-0.373h0.471l0.189-0.379l-0.562-0.092v-0.758l-0.469,0.189l-0.568-0.371l-0.564,0.182
		l-0.377-0.182l0.471-0.473h-0.941l0.098-1.51l-0.568,0.191l-0.092-0.471l-0.098,0.562l-0.184-0.373l-0.469,0.281l-0.379-0.852
		l0.09,0.381l-0.279,0.092l0.469,0.758l0.471-0.189v0.281l1.131,0.379l-0.562-0.189l-0.85,0.371l-0.281,0.85l0.375,0.85
		l-0.283,0.092l0.189,0.281l0.189-0.373l0.092,0.471l-0.471,0.562l-1.41,0.281l-0.092-1.223l0.189-0.189l0.09,1.037l0.562,0.094
		l0.191-0.752l-0.373-0.379l0.373-0.66l0.279,0.1l-0.09-0.281l-0.562-0.098l-0.381,0.469l0.092-0.844l-0.652-0.287l0.184-0.469
		l-0.842-0.844v-0.85l-0.852-0.562l-0.469,0.373l0.568-0.184l0.469,0.564l0.283,0.379l-0.283,0.469l0.654,0.281l0.287,1.783
		l-0.568,0.85l-0.09,1.32h-0.381l-0.188-0.941l-0.283,0.279l-0.188,0.754l0.471,0.279l-0.654,0.568l-0.189,1.883l-0.752,0.842
		l-1.51-0.939l0.471-0.562l-0.189-0.658l-0.469,0.939l-0.941-0.658l0.287-1.225l-0.471,0.562v0.848l1.031,0.852l0.281,0.842
		l-0.469,0.568l-0.281-0.377l-0.852,0.188l0.943,0.473l-0.562,0.84v0.662h-1.031l-0.191-0.562l-0.189,0.562l0.752,0.189l0.189,0.471
		l-0.752-0.092v0.561l0.471-0.377l-0.379,0.756l-0.562,0.184l-0.098-0.562l-0.279,0.662v0.467l0.377-0.188v0.471l-1.41,0.66
		l0.189-0.379l-0.379-0.373l-1.32,0.471l-0.092-0.662l-0.379,0.096v-0.375l-0.654-0.471l-0.188-1.6l-0.281,0.66l0.373,0.561
		l-0.844-0.469l-0.379,0.279l-0.941-0.092l-0.752-0.469l-0.658,0.373l-0.189-0.752l-0.471-0.191l-0.471,0.76l-0.562-0.76
		l-0.568,0.852l-0.373-0.281l-0.658,0.561l0.189-1.881l-0.568-1.412l-0.562-0.09l0.752-0.381l0.098,0.662v-1.131l1.123,0.85
		l-0.182-0.473l0.842,0.191l0.1,0.842v-0.373l0.182,0.281l0.287-0.568l0.471,0.189v0.379l0.281-1.037h-0.66v-0.562l-0.85,0.85
		l-0.373-0.287l-0.098-0.654l-0.182,0.562h-0.66l-0.471-0.85l0.189-0.941l-0.57-0.471l0.283-0.371l-0.283,0.09l0.1,0.941
		l-0.85,0.379l0.191,0.279l0.559-0.379v0.66l-0.75,0.283l-0.377-0.184l0.188-0.381l-0.373-0.279l-0.098-1.223l-0.469-0.188
		l-0.189-1.512l-0.373,0.1l-0.379-0.471l0.281-0.66l-0.473-0.281l-0.469-1.221l-1.223,0.184l0.098-0.754l-0.377-0.748l-0.66-2.352
		l0.279-0.852l-0.279-1.125l-0.373-0.098l-0.287-0.75l-0.562-0.092l0.66-0.658l-0.568-0.941l0.289-1.51l-0.381-1.783l0.281-0.852
		l-0.471-1.408l0.66,0.279l0.281,1.318h0.85l-0.1,0.662l1.412,1.223l0.1,2.441l0.188-1.412l-0.287-0.09l0.57-0.281l0.369,0.562
		l-0.182-0.373l0.752-1.131l-0.57,0.189l0.191-0.189l-0.373-0.658l-0.188,0.658l-0.191-0.75l-1.033-1.322l-0.287-1.789l-0.279-0.092
		l0.098,0.471l-0.66,0.379l0.189,0.471l-0.758-0.189l0.758-1.98l-0.287-1.691l-2.725-5.076l-0.568-0.189v-0.568l0.66-0.562
		l-0.66,0.092l-0.471-2.162l-1.123-1.973l0.561-0.752l-0.941-2.352l0.191-3.393h-0.471l-0.281-0.75l0.469-0.66l-0.285-0.561
		l0.658-0.57l0.381,0.189l0.469-0.939l0.191-1.504l-0.381-0.85l0.189-0.75l0.562-0.471l0.379,1.691l0.281-0.471l0.658,0.281
		l0.092,0.66l0.1-0.373l0.939,0.561l0.752-0.279l0.373,0.844l0.379-0.092l0.471,0.752l0.188-0.189l0.092,0.471l0.66-0.281
		l-0.471-0.562l0.941,0.373l0.85-0.281l-0.568,0.379h0.568l0.184-1.602l0.566,0.941l-0.658,0.562l0.092,0.566l0.098-0.75
		l0.189,1.031L473.451,533.979z"/>
	<path id="path495" fill="none" stroke="#FFFFFF" stroke-width="1.175" stroke-linecap="round" stroke-linejoin="round" d="
		M454.916,517.136l-0.469-1.412l0.566-1.312l-0.098-2.168l1.131-0.754l0.098-1.221l0.471-0.189l1.881,1.691l-0.379,2.543
		l0.379,0.281l-0.471,0.939l0.373,0.756l-0.092,0.754l-0.471,1.131l-2.26,1.031l-0.373,0.752l-0.568-0.752l-0.188-0.941l0.469-0.09
		V517.136z"/>
	<path id="path569" fill="none" stroke="#FFFFFF" stroke-width="1.175" stroke-linecap="round" stroke-linejoin="round" d="
		M372.691,444.979l-1.221-1.32l-2.072-0.471l-1.223,0.943l-1.881-0.283l-1.221,0.371l-1.039-0.469l-1.883,0.758l-0.371-1.41
		l-1.229-0.57l-0.654-1.129l0.473-0.654l0.09-1.412l3.012-1.037l4.045-0.371l1.031-0.76l2.354-0.752l1.979,0.381l0.562-0.281
		l0.379,0.281l1.502-0.57v0.57l-0.471,0.09l-0.371,0.568l1.033,0.373l-0.943,1.221l1.322,0.287l1.5-0.189l0.283,0.564l-0.752,0.748
		l0.092,0.662l0.758-0.281l-0.758-0.279l0.287-0.383l1.123,0.102l0.758-1.23h0.373l1.508,0.471l0.471,0.939l0.654,0.102l0.1,0.75
		l-1.412,1.033l-1.791-0.844l-2.254-0.189l-1.883,0.939l-0.189,1.691L372.691,444.979z"/>
	<path id="path719" fill="none" stroke="#FFFFFF" stroke-width="1.175" stroke-linecap="round" stroke-linejoin="round" d="
		M196.009,74.296l-0.379-0.47l-0.184,0.47l0.092-0.562l-0.379,0.47l-0.281-0.188v0.47l-0.373-0.189l0.281-0.562l0.281,0.092
		l-0.092-0.562l-0.758,0.092l-0.183-0.281l0.281-0.568h-0.472l0.66-0.281l-0.098-0.751l-0.752,0.751l0.38-0.843l-0.66,0.092
		l1.222-0.849l-0.379-0.373l-1.032,0.281l1.411-0.562l-0.66-0.288l-1.221,1.131l0.751-0.941l-0.562-0.189l0.658-0.752l-1.318,0.471
		l0.379-0.471h-0.379l0.092-0.47l-0.471,0.85l-0.471-0.38l-0.471,0.19l1.32,0.94l0.379-0.189l-0.379,0.752l0.28,0.47l-0.47-0.091
		l-0.092-0.85l-0.471-0.092l-0.281,0.281l0.562,0.471l-0.379,0.189l-0.092-0.379l-0.28,0.94v-0.751l-0.471-0.562l-0.19,0.189
		l0.661,1.411l0.28,0.183l1.222-0.372l1.13,1.131l-0.378,0.183l0.286,0.379l-0.469,0.94l-1.229,0.471l0.568,1.601l-1.32,0.843
		h-0.372l0.183,0.379l0.471-0.092l0.568,1.974l-0.752-0.092v0.843l-0.659-0.843l-0.751,0.373l-0.189,0.659l0.562,1.131l-0.188,0.28
		l-0.184-0.28l0.092,0.562l-0.38-0.281l-0.091,0.281l0.379-0.372l-0.189-0.379l-1.223-0.751l0.281-0.38l-0.379-0.28l0.379-0.189
		l-0.568-0.562l0.758-0.379l-0.189-0.372l-0.752,0.471l0.184-0.471l-0.28-0.189l-0.373,0.66l-0.568,0.092l0.188-0.562l-0.279-0.379
		l0.279-0.189l-0.469-0.092l-0.092,0.843l-1.229,3.482l0.758-2.725l-0.568-0.94l0.098-0.471l-0.287,0.281l0.287-0.471L185.28,77.4
		l0.471-0.471l-0.184-0.372l1.033,0.092l-0.092-0.379l-0.379,0.098l0.471-0.751l-0.471,0.372l-0.941-1.032l-0.092,0.471l-0.189-0.66
		l-0.567,0.092l0.188,0.47l-0.28-0.28l-0.28,0.28l0.372,0.189l-0.281,0.752l0.379,0.471l-0.189,0.47l0.562,0.287l-0.47,2.065
		l0.378,0.189l-0.659,0.568l0.47,0.183l-1.13,0.099l0.47-0.85h-1.123l0.092,0.751l-0.471-0.372l0.189,0.562l-0.471,0.281l0.19,0.471
		l-0.471-0.184l0.183,0.941l-0.281-0.85l-0.28,0.47l0.189-0.659l-0.281-0.752l-1.038,1.32l0.379-0.85l-0.099-1.031l-0.372,0.28
		l0.092,0.751l-0.281-0.092l-0.092,0.373l-0.379-0.373v0.281l-0.751,0.471l0.189,0.66l0.372-0.189l0.66,0.47l-1.032,0.092v0.568
		l-0.471-0.471l-0.379,0.092v0.94l-0.189-0.378l-0.372,0.188l0.183,0.66l-0.471-0.28l-0.28,0.28l0.47,0.752h0.568l-0.287,0.85
		l0.471,0.372l0.568-0.562l-0.099,0.562l0.758-0.281l0.281,0.379l0.092-0.281l0.098,0.372h0.281l-0.568,0.379l0.098,0.562
		l-0.66-0.562l-0.091,0.373l-0.189-0.183l-0.94,0.94l0.372-0.189l0.287,0.281l0.562-0.471v0.66l0.85-0.471l-0.471,0.372l0.184,0.379
		l0.758-0.28l0.281,0.372l0.189-0.281l0.562,0.568l0.092-1.13l0.287,0.941l0.94-0.38l-1.698,0.94l-0.092,0.38l0.471-0.099
		l0.189,0.288l-0.85,0.471l1.79,0.28l0.843,0.562l-0.28-0.281l-1.412,0.281l-0.562-0.373l-0.751,0.184l0.183,0.47l-0.372-0.47
		l0.092,0.379l-0.752-0.379v-0.752l-0.189,0.281l-0.66-0.183l-1.123,1.032l-0.66-1.032l0.092-0.85l-0.373-0.19l-0.098,0.569
		l-0.471,0.092l0.189-0.471l-0.47-0.092l0.562-0.85l-0.94,0.19l-0.281-0.19v0.941l0.568,0.659l-0.287,0.66l-0.281-0.379
		l-0.562,0.752l-1.131-0.373l-1.319,1.032l0.098,0.379l1.032-0.287l-0.562,0.47l0.28,0.189l-0.189,0.66l0.379-0.281l-0.189,0.562
		l1.032-0.941l-0.092-0.372l0.562,0.281l-0.091-0.281l0.378-0.47l0.092,0.562l0.281-0.85l0.281,0.288l0.287-0.288l0.281,0.379
		l-0.941,1.13l-0.568-0.47l-0.751,0.47l-0.092,0.19h0.471l-0.471,0.183l0.28,0.471l-0.378-0.281l-0.562,0.66h0.379l-0.098,0.471
		l0.379-0.189l-0.281,0.28l0.752,0.189l1.411-1.312l0.189,0.372l0.751,0.189l-0.098-0.85l0.287,0.288l0.092-0.288l-0.189,1.229
		l1.039-0.288l-1.039,0.471l-0.281,1.602l3.104,2.162l-2.725-1.784l-0.659,0.189l0.091,0.653l-0.189-0.183l-0.091,0.47h-0.379
		l0.098-0.94l-0.379,0.471v-0.287h-0.66l0.758-0.562l-0.471-0.66l-0.287,0.38l-0.091-0.66l-0.472,0.091l0.092-0.372l-0.941-0.379
		l-0.091,0.379l-0.66-0.098l0.19-1.032l-0.379,0.471l-0.654-0.471l-0.47,1.032l-0.38-0.092l0.66-0.751l-0.379-0.379l-0.281,0.28
		l0.19-0.28l-0.47,0.098v-0.47l-0.282,0.47l-0.379-0.47l-0.188,0.843l0.47-0.092l0.189,0.372l-0.751,0.098l0.092,0.562l0.751-0.281
		v0.281h0.659l-1.222,0.751v0.941l0.379,0.188l-0.189,0.38l-0.47-0.189l-0.189-0.85l-0.19,1.698l-0.188-0.379l-0.562,0.379v-0.379
		l-0.47,0.092l-0.66-0.562l-1.13,0.659l0.758-0.281l0.281,0.562l-0.569-0.281l-0.183,0.562l-0.758,0.28l0.287,0.471l-0.379,0.85
		l0.281-0.562l0.098,0.281l0.373-0.189l-0.281,0.471l0.379,0.471l-0.471,0.378l-0.287-0.659l-0.092,0.843l-0.471-0.471l-0.189,0.379
		h0.379l0.19,0.85l0.372-0.098h-0.66l0.66,2.73l0.189-0.47l0.281,0.28l0.189-1.13l0.091,0.85l0.471,0.47l-0.092,1.032l0.19-0.372
		l0.371,0.091l-0.183,1.222l1.595-3.292l1.319-1.131l-0.471,0.66l0.661-0.189l0.091-0.562l-0.091,0.562l1.032,0.287l-0.844,0.184
		l-0.471,0.758l0.184,0.372l-0.562-0.47l-0.751,0.751l0.281,0.47l-0.281,0.85l0.562,0.19l-0.752-0.099l-0.189,0.47l0.379,0.471
		l-0.379-0.091l0.281,1.502l0.379-0.091v-0.562l0.189,0.373h0.372l-0.843,0.568l-0.568-0.098l-0.562,0.94l0.379,0.47l0.562-0.091
		l-0.94,0.372l0.281-0.372l-0.373-0.281l-0.099,0.281v-0.568l-0.842-0.843l0.281-0.471l-0.66-0.189v1.973h0.188l-0.849-0.091
		l-0.281,0.752l0.562,0.28l-0.373,0.758l0.373,0.372l-0.184,0.752l0.653,0.287l2.731-0.941l-0.19,0.282h1.791l1.973,1.13l1.51-0.098
		l0.751-1.223l0.471,0.472l-0.379-0.093l-0.751,0.844l-1.412,0.568l0.189-0.288l-1.509-0.562l-4.796,0.751l-1.13-1.032l-0.752,1.313
		l0.85-0.183l0.562,1.222l1.031,0.091l-0.28,0.098l0.379,0.471l-0.66-0.568l-0.379,0.098v0.653l0.379,0.099l-0.379-0.099l0.098,0.38
		l-0.188-0.281l-0.281,0.47l0.189-1.038l-0.471-1.032l-1.039,0.471l-1.312-0.092h1.032l0.379-0.471l-0.099-0.379L163.08,114
		l-0.562-1.039l-0.287,0.19l0.287-0.373l-0.287-0.568l-0.94-0.373h-1.313l-0.281-0.286l-0.379,0.188l-1.503-0.843l0.092,0.373
		l0.751,0.281l-0.189,0.188l1.131,0.471l-0.281,0.281l-0.379-0.471l-0.752,0.38l0.941,1.221l0.568,0.189l-0.94-0.189l0.372,0.66
		l-0.28-0.189l-0.563-0.562h0.472l-1.32-1.039l0.562,0.849l-0.562-0.091l0.379,0.183l-0.379-0.092l0.281,1.223l-0.562-0.189
		l0.19,0.659l-0.66-1.502l0.751,0.189l-0.281-0.759l-0.47-0.183l-0.281,0.373l-1.601-1.223h0.66l-0.099-0.28l0.568,0.372
		l-0.757-1.222l0.568,0.568v-0.287l0.47,0.098l-0.47-0.281l0.28-0.287l-1.79-0.843l0.471,0.471h-0.281l0.189,0.189l-0.281-0.288
		v0.66l-0.28-0.66l-0.66,0.471l-0.471-0.183l0.281,0.47l-0.38-0.379l-0.47,0.092l0.758,1.039l-0.94-0.941l-0.287,0.189l0.098,0.562
		h0.66l-0.569,0.092l0.471,0.188l-0.189,0.189l0.758,0.281l-0.849-0.189l0.28,0.189l-0.372,0.379l-0.287-0.281l-0.092,0.281
		l0.94,0.66l0.471-0.098l-0.281-0.562l1.131,0.751l0.28-0.188l0.189,0.849h0.281h-0.94v0.189l-0.099-0.379l-0.47,0.092l0.849,0.85
		h0.66l-1.509,0.189l-0.092,0.28l-0.38-0.562h-1.123l0.843,0.47l-1.41-0.188l2.632,0.842l0.099,0.38l-1.222,0.188l1.222,0.281
		l-1.04,0.092l-2.063-0.751l-0.189,0.098l0.562,0.653L150,116.633l0.758,0.19l0.751,1.313l0.092-0.562l0.47,0.091l-0.28-0.47
		l1.031-0.183l0.759,0.47h-0.759l0.38,0.562l-0.189-0.38l-0.562,0.19l-0.189,0.378l0.379,0.373l-1.131,0.288v0.371h1.973
		l1.039,1.131l0.471-0.379l0.019,0.379l0.475,0.599l-0.121,0.434l0.568,0.471l0.092-0.471v0.471l0.281,0.189l-0.471-0.189v0.568
		l0.751,0.562l1.32-0.94l0.941-0.189l-0.38-1.032l0.471,0.471l0.189-0.562l-0.189,0.373l0.379,0.189l-0.379,0.188v0.562
		l-1.974,1.789l0.85,0.093l-0.379,0.28l0.471,0.66h0.28l-0.372,0.189l-0.758-0.562l-0.562,0.184l0.47,1.039h0.471l-0.471,0.091
		l0.281,1.039l0.94,1.032l0.569-0.091l0.28,1.124l-0.379-0.941l-0.659,0.189l-0.941-0.562l-1.881-2.162l-0.373,0.652l-0.189-0.562
		l-0.281,0.093l-0.189-0.844l0.379,0.092l-0.568-0.28l-0.471,0.378l0.38,0.281h-0.38l-0.091-0.752l-0.569,1.125l0.38,1.038
		l1.79,1.882l-0.85-0.471l0.281,0.66l-0.562-0.568l-0.19,2.45l-0.47,0.562l-0.092,0.751l0.562,0.281l-0.562-0.091v0.378l0.653,1.124
		l-0.092,1.412l-0.378,0.188l0.098,0.379v-1.79l-0.569,0.099l0.472-0.288l-0.472-0.372l-0.652,0.189l0.281-0.941l-1.412-1.509
		l-0.28-0.372l-0.85,0.091l0.281-0.188L150,129.334l-0.843-1.502l-0.751-0.661l-0.19,0.19l-0.189-1.51l-0.751-1.032l-1.223-0.568
		l-0.378,0.099l0.659-1.223l-0.47-0.939l-0.568-0.19l0.189,0.372l-0.372-0.28l-0.19-0.751l0.471-0.281l0.092-0.85l-0.471,0.47
		l-0.471-0.188v-0.562l-0.092,0.562l-0.379-0.092l-0.28-1.131l-0.281-0.28l-0.471,0.66v-0.569l-0.659-0.372l0.85-1.13h-0.66
		l0.372-0.562l-0.183-0.38l0.471-0.281l0.47,0.373l0.562-0.751l-0.38,0.189l-0.652-0.562l0.28-0.189l-0.28-0.379l0.28-0.372
		l-1.13,0.843l-0.752-0.092l-0.379,0.94l0.098,0.844l-0.757,0.47l0.471,0.287l-0.373-0.188l-1.039,1.032l0.288-0.562l-0.759,1.032
		l-0.28,1.51l0.379,0.47l0.28-0.287l-0.091,0.66l0.94,0.659l-0.758-0.47l0.099,0.38l-0.19-0.288l-0.379,0.288l0.099-0.38
		l-0.379,0.562l-1.692,0.569l-0.379-0.569h-0.562l-0.38,0.851l0.38,0.28l-0.38-0.092l-0.183,0.562l1.222,1.881l-1.509-0.188
		l-0.562-0.844v1.412l-0.562,0.188l0.373-0.85l-0.66,0.471l-0.941,0.752l0.568,0.28l-0.47-0.091l-1.692,1.79l0.184,0.562
		l0.568-0.471l-0.189,0.281h0.47l-0.562,0.189l0.562,0.189l-0.66-0.098l-0.47,0.287l-0.562,1.412l-0.568,0.47l-0.281,1.594
		l0.099,3.581l1.032,1.882l0.091,1.313h0.66l-0.66,0.28l0.379,2.822l-0.562,0.66l0.654,0.568l0.568-1.319l0.091,0.378l1.601,0.092
		l0.379,0.281l0.092,1.882l-0.85,1.319l-1.594,0.66l-0.287,1.032l-0.093-0.471l-0.939,1.412l-1.033,0.378l-0.659,1.222l-1.039,0.844
		l-1.313,0.758l-0.471-0.471l-0.379,0.183l-0.372,0.66l0.183,0.379l0.287-0.281l-0.287,0.654l-0.183-0.472l-0.66,1.229h0.372
		l-0.653,0.092l1.033,0.562l0.189,0.758l-0.66,0.372l-0.189,0.568h-0.66l-0.281,0.372l-0.751-0.188l-0.091,0.287l-0.19-0.287
		l0.092,0.659l0.568,0.379v1.131l-0.098-0.288l-0.66,1.039l-0.28,1.313l0.378-0.184l-0.751,0.184l0.183,0.471l-0.653,1.228
		l-0.098,1.032l-2.633,4.612l-1.692,2.163l-4.044,3.385l-11.669,6.115l-3.764,0.751l-2.261,0.94l-1.032-0.189l0.092,0.38
		l-0.184-0.19l-0.378,0.282l0.28,0.097l-0.28,0.85l-0.562,0.183l0.281-0.843l-0.568,0.281h0.287l-0.379,0.66l-1.691,1.032
		l0.189-0.281l-1.699-1.032l-0.281,0.281l-0.66-0.281l-0.751,0.464l0.099-0.464l-3.104-0.287l-0.188,1.038l0.843,0.281l-0.843-0.189
		l-0.38-0.562l-0.751-0.281l-0.379,1.032l-1.313,0.562l-0.189,1.51l-1.411,1.881l0.38,0.562l-0.472-0.38l-0.47,0.66l0.653,0.189
		l-1.503,0.091l-0.379,0.288l0.379,0.281l-0.28,0.091l-0.099-0.47l-0.372,0.659l-0.189,0.092l0.189-0.372l-0.752,0.659h-0.471
		l0.281-0.188l-0.281,0.09l0.184-0.188l-0.281-0.281l-1.032,0.281l0.66,0.099l-0.471,0.28l0.562-0.092l-0.562,0.184l0.562,0.098
		l-0.378,0.281l-0.281-0.379l0.098,0.47l-0.659-0.842l-0.281,0.562l0.092-0.562l-0.471,0.372l0.091,0.379l-0.372-0.379l-0.098,0.568
		l-0.843-0.189l-0.281,0.47l-0.66-0.188l-0.098,0.47l-0.28-0.189v-0.562l-0.941,0.47l0.379,0.092l-0.85,0.098v0.373l-0.66-0.092
		l-0.28,0.471l-0.372-0.941l-2.542,2.634l-1.039,0.47v0.752l0.471,0.189l0.098-0.281l0.092,0.281l-0.843,0.098l-0.098,0.653
		l-0.562-0.372l-0.099,0.281l0.288,0.091l-1.698,1.699l0.378,0.28l-0.47-0.189l-1.13,0.66l-0.189-0.471l-0.092,0.562l-0.189-0.373
		l-0.281,0.654l-0.092-0.562l-0.378,0.189l0.281-0.471l-0.844,0.373l0.183,0.471l-0.562,0.098v0.372l-0.092-0.372l-1.6,0.562
		l-0.19,0.66l-0.091-0.47l-0.568,0.09l-0.092,0.85l-0.281-0.751l-0.287,0.751l-0.372-0.188l0.372-0.092v-0.379l-2.254-0.19
		l-0.379-0.47l-0.092,0.38l0.189-0.562l-0.378-0.099l0.28-0.47l-0.373-0.66l-0.758,1.13l-0.562-0.47l-0.751,0.94l-0.099-0.372
		l-0.752,0.28l-0.842,1.313h-1.509l-0.844-0.653l0.941-2.64l-0.85,0.189l-0.379,0.941l0.287-0.092l-0.758,0.94l0.288,0.092
		l-1.791,1.601l0.472,0.19l-0.152,0.271l-0.979,0.108l0.19,0.28l-1.32,0.183l0.38,0.288l-0.38-0.19l0.099,0.471l-0.471,0.562
		l-0.752,0.28l0.281,0.287l-1.038-0.188l-1.692,1.312h-0.66l0.189-0.371l-0.843-0.281l-0.189,0.94l0.471-0.098l-0.471,0.378v1.313
		l-2.921,1.601l-0.842,1.04l-0.19-0.19l-1.032,2.353l-0.189,0.751h0.281l-0.751,0.092v0.378l-0.379-0.28v0.28l-0.189-0.28
		l-0.184,0.66l-0.568-0.099l-0.189,0.751l-0.372-0.182v0.562l-0.66,0.189l0.28,0.47l-0.47-0.098l-0.189,0.379l0.287,0.092
		l-0.287,0.287l-0.092-0.379l-0.47,0.751l0.189,0.19l-0.752,0.47v1.411l-0.098-0.378l-0.281-0.092l0.281,0.47l-0.372-0.28v0.562
		l-0.19-0.659l-0.28,0.757l-0.099-0.287l-0.561,0.098l-0.19,0.281l0.379,0.092l-1.131,0.568l0.19,0.281l-0.288-0.19l-1.222,0.472
		l-0.092-0.281v0.47l-0.751,0.189l0.281,0.281l-0.47-0.281l-0.569,0.752l0.288,0.28l-0.38,0.099l-0.378-0.568l-1.033,1.13h-1.13
		l-0.562,0.94l-0.19-0.562l-0.378,0.751l0.098-0.379l-0.569,0.569l0.19,0.091l-2.254,1.32l-0.471,0.652l0.092,0.568v-0.568
		l-0.562,0.288v1.124h0.281l-0.568,0.379l-0.092,1.319l-0.188-0.189l-0.19,0.471v-0.281l-0.47,1.032l-0.373-0.47l0.189-0.281
		l-0.47-0.099l-0.19,0.288l0.844,0.751l-0.471,0.19l0.098,0.28l0.281-0.189l-0.281,0.562l0.281,0.471h-0.471l0.281,0.471
		l-0.941,0.189l0.85,0.94l-0.28-0.28l-0.471,0.091l0.471,0.66h-0.569l0.379,0.379l-0.47,0.091l0.562,0.281l-0.093,0.288l0.373,0.372
		l-0.653-0.471l-0.471,0.568l0.751,0.373l-0.849,0.28l0.379,0.471h-0.379l0.379,0.568l-0.471,0.281l0.471,0.379h-0.379l-0.281,0.94
		l-0.281-0.379v0.659l-0.47-1.411h-0.66l-0.751,0.562l-0.189,0.941l-0.66,0.379l-0.372-0.379l-0.38,0.47l0.281-0.47l-0.372-1.412
		l0.372-0.28H9.354l0.751-0.941l-0.098-0.849l-0.562,0.189l-0.47,0.849l0.189-1.601l-1.039-1.601l0.379-5.174l0.562-0.941
		l-0.471-0.471l-1.124,0.66l-1.319,1.32L5.4,230.094l-1.039,6.396L3.519,238l-0.379,2.071l-0.843,1.123l0.751,1.321l-0.098,1.032
		l1.229,0.188l1.784,3.293l0.28,1.509l-0.183,0.843l-0.758,0.753l0.94,2.82l0.19,3.202l-0.281,0.941l-1.882,2.071L3.8,261.422
		l-0.562,0.567l-0.099,1.131l-0.47,0.94l0.189,1.882l-0.562,0.752l0.653,2.353l-0.653,0.844l0.941,4.33l3.854,3.764l0.379,1.032
		l0.562,0.098l-0.471,0.373l-0.092-0.373l-0.099,0.653l0.569,0.287l0.092,0.653l0.188-0.28l0.471,0.568l-0.28,0.562l0.28,1.222
		l1.222,1.411l1.601,0.752l0.281,1.229l0.379,0.092l-0.189-0.281l0.562,0.66l1.221,2.443l1.699,1.6l0.562,1.41l2.163,1.314
		l-0.372,0.379l0.372,0.66l1.79,0.371l-0.189,2.07l0.751,0.662l-1.411-0.092l1.13,1.41l-0.091,0.281l-0.471-0.471l0.653,1.412
		l-0.281,0.189l-0.188-0.66l-0.373,1.221l1.131,2.262l-0.471,1.123l-0.471,0.098v0.471l-1.13,1.131l-1.882-1.791l-0.281-0.848
		h-0.287v-0.654l-0.471,0.092v-0.562l0.379,0.373l-0.379-0.752l0.099-1.033l-0.568-0.189l-0.562-2.73H14.24l0.19,0.471l-0.373-0.471
		l0.562,1.791l-0.85,2.254l-0.372,0.66l-0.379-0.281l-0.47,0.189l-0.844-2.633l0.471-0.568l0.092-2.254l-0.66-0.287l-0.189-1.221
		l-1.882-0.943l-0.653-1.312l-0.758-0.098l-0.752-1.783l-0.842,2.064v1.791l1.032,0.848l-0.562-0.939l0.091-0.758l0.19,0.098
		l0.188,2.07l0.941,0.562l0.183,1.221l0.758,0.281l0.653,2.451h0.85l-0.19,0.09l1.131,1.039l0.189,0.652l2.163,0.473l1.13,1.037
		l0.471,2.443l-0.66,1.412l0.28,0.568l-0.47-0.189l-0.092,0.66l-0.659-0.379l-0.38,0.658l0.189,0.562v-0.469l-0.562-0.281
		l0.189,0.562l-0.189-0.184l-0.189,0.371h0.281l-0.092,0.471l-0.098-0.279l-0.562,0.279l-0.091-1.221l-0.379,0.281l-0.471-2.445
		l0.092,1.221l-0.281-0.748l-0.189,1.221l0.66,0.939l-0.471,0.564v-0.752l-0.092,0.469l-0.28-0.842l-0.099,0.471l-0.189-0.191
		l0.189-1.6l-0.471-0.471l-0.188-1.973l-0.562-1.131H9.444l-0.188,0.562l0.751,0.85l-0.183,1.6l0.183,0.471H9.536l-0.092-2.449
		l-1.222-2.822H7.844l-0.189-0.562l0.099,0.842H7.472l-0.099-1.121l-0.751-1.412l0.85,3.385l-0.379-0.094l-0.189,1.596l1.131,1.6
		h-0.38l-0.371-1.129l-0.472,0.287l0.19-0.568l-0.568-1.131l-0.66-3.666l-0.281,0.281l0.379,3.574L5.4,303.476L3.8,303.194
		l2.163,2.072l0.568,1.691l4.887,3.672l3.764,3.855l4.521,5.736l2.162,3.293l1.314,3.201l0.098-1.129l0.189,0.75l-0.758,3.014
		l1.79,4.232l1.222,1.131l1.32,0.561l2.162,2.449l1.691,1.414l1.693,2.631l0.287,1.783l-0.471,0.381l0.562,0.09l0.562,1.32
		l4.143,3.482l1.13,2.162l1.783,3.855v3.293l0.85,2.822l0.189,2.641l-0.098,0.842l1.039,1.602l0.091,1.318l0.568,0.092l0.281,0.562
		l-0.281,0.76l0.471,0.279l0.752,2.254l-0.099,0.568l0.66,0.66v0.469l2.07,3.295l0.092,0.65l0.659,0.289l1.602,1.883l2.822,4.984
		l0.94,0.939l0.471-0.096l-0.379,0.285l4.233,5.738l1.04,3.014l0.091,2.443l0.568-0.662l-0.189-0.471h0.66l0.372-0.75h0.568
		l-0.568,0.189l0.379,1.031l0.471-0.281l-0.471,0.471l-0.281-0.66l-0.379,0.471l-0.47-0.184l-0.562,0.846l0.842,2.16l-0.189,1.32
		l-0.842,0.189l1.031,0.939l-0.28,0.752l0.562,0.562l0.189,1.131l-0.189,1.32l-0.372-0.471l-0.751,1.502l-0.189,1.221l2.352,6.586
		l0.471,4.051l0.188-1.879l0.281,1.781l-0.47,0.471l-0.471-0.188l-0.941,3.762l-1.881,2.449l-2.261,0.562l-1.131-0.281l-0.843-0.941
		l-1.13-0.377l0.562,1.699l-0.562,1.221l0.66,1.602l-0.099,1.219l0.941,3.953l0.94,1.414v1.033l1.979,1.787l0.372-0.758l-0.562-0.75
		l1.131-0.66l-0.752,0.848l0.092,0.381l1.222-0.471h1.411l4.894,1.973l0.562-0.281l-0.472,0.371l4.613,3.393l1.033,1.881
		l2.352-0.188l3.109,0.939l0.843-0.471l-0.659-0.381l0.287-0.369l1.784,1.129l-2.163,0.184l1.79,1.039l0.562-0.281l1.601,0.752
		l0.752-0.568l0.752-0.094l-0.661-0.379l0.38-0.371h0.372l-0.183,0.564l0.66-0.281l1.123,0.561l0.849-0.094l0.38-0.75h2.162
		l0.751,0.371l0.373-0.842l2.071,0.189l-0.091-0.469h0.47l1.974,0.939l0.94-0.287l0.94,0.758l0.38-0.096l-0.099-1.133l0.471-0.473
		l1.411,0.1l1.79,0.844h0.752l0.28-0.562l0.66,0.092l-0.373-0.373l-0.849,0.191l-0.38-0.758v0.758l-0.94-0.471l0.099-0.381h0.842
		l0.19-0.75l-0.373-0.848h0.653l-0.091-0.562l0.188,1.129l-0.378,0.373l0.471,0.189h0.94l0.849-0.752h0.752l0.471,0.562l0.189-0.752
		l-0.66-0.381v-0.369l2.071-1.131l1.032,0.279l0.188-0.469l-0.378-0.189l-0.092-0.564l0.562-1.689l3.581-2.072l0.653-0.941
		l-0.653-0.471l0.281-0.75l0.939-0.75l1.033-0.1l-0.941-0.842l0.661,0.279l2.352-0.469l2.26,0.371l0.092,0.568h0.471l0.379-0.471
		l-0.098-1.037l0.751-0.184l0.47,0.561l0.569-0.469l-0.471-0.562l0.28-0.85l0.941-0.092v0.471l0.281,0.092l1.039-0.562l-1.039-0.377
		l-0.281-1.131l-0.562,0.096l0.562-0.096l0.85-2.445l0.653-1.129l1.698-1.131l0.471-1.031l1.313-0.381v-0.561l0.189,0.09
		l-0.189,0.381l0.567,0.09l0.752-0.842l0.471-0.189l1.222,0.371l1.692-0.561l2.73,0.469l1.692-1.031l-0.092-0.377l0.471-0.283
		l3.195-0.379l0.751-0.75h1.979l1.411-0.564l1.032,0.473l0.281-0.66h0.941l0.47-0.568l1.039-0.184h2.542l1.502,1.033l0.66-0.752
		l1.411,0.658l1.503-0.658l0.098-0.66l1.222-0.279l1.222,0.939l0.85,2.162l1.411-0.281l0.092-0.469l0.85,0.189l-0.19-0.85
		l1.13-0.941l1.314,0.092l0.751,0.469l0.568-0.371l0.373,0.471l0.287-0.471l-0.189-0.379l0.372-0.373l1.882-0.188l0.47-0.379
		l0.759,0.566l1.691-0.848l0.373,0.188l0.47-0.568l1.601,0.568l0.569,0.752l-0.189,0.471l0.47,0.281l-0.098,0.471l1.698-0.752
		l1.033-1.602h1.502l0.941,0.473l0.471-0.943l0.849-0.189l0.281-0.561l1.411-1.033l-0.281-0.568l0.281-1.031l1.319-1.223
		l-0.098-0.566l1.411-0.943l0.379-3.48l1.13-4.045l1.412-1.973l2.352-1.412l3.953-0.941l1.881-0.848l2.725-2.543l1.039-0.371
		l2.822-1.98l3.195-1.312l3.953-3.672l1.973-1.312l1.699-0.289l1.881-0.939l2.914,0.658l4.143,0.189l7.709-1.031l4.234-1.32
		l2.639-1.412l4.984-1.502l3.293-1.51l5.176-2.541l4.514-3.006l15.144-2.352l4.045-0.379l7.623,0.379l3.012-1.229l2.164-1.412
		l8.559,3.863l5.084,3.664l1.973,1.881h1.979l1.223-0.561l0.752,0.471l-0.562-0.562l0.182-0.379l0.943-0.66l2.17,0.379l1.221-0.188
		l3.291,2.07l0.191,0.561l0.371-0.371l0.752,0.371l1.229,1.223l-0.189,0.568l0.371-0.66l1.412,0.66l0.568-0.473l1.691,0.283
		l0.562-0.379l0.66,0.471l-0.281-0.752h-0.752l0.66-0.092l-0.85,0.092l0.189-0.371h-0.279h0.75l0.092-0.662l0.66,0.471l-0.092,0.371
		l0.373-0.18l0.379,0.561l0.561-0.561l0.1-0.852l1.031,0.189l0.092,0.562l-0.373,0.189l0.66,0.189l-0.189,0.752l1.223,0.092
		l0.092,1.037l0.758-0.566l1.881,2.541l-0.287,0.75l-0.941-0.467l-0.184,2.537l0.654-0.088l0.379-0.752l1.033,0.182l0.658-0.842
		l0.66,0.188l0.471-0.285l0.939,0.469l1.223,1.699l0.381,1.973l-1.131,1.691h-0.283l0.094-0.75l-0.471-0.281h0.75l-2.352-0.189
		l1.131,1.975l-1.131,1.229l0.287,0.369l0.562-0.279l0.379,0.561l0.561-0.281l0.283,0.57l-0.189,0.842H326.5l0.373,0.754
		l0.377-0.375l0.471,0.094l0.473,1.881l1.031,0.85l0.379-0.85l-1.32-1.131l0.191-1.031l0.189,0.85l0.939,0.939l0.189,0.75
		l1.221-0.467l1.975,1.031l0.566,0.658l0.473-0.281l-0.473-0.188l0.186-0.562l-0.654,0.184l-0.568-0.562l0.568-0.379l1.504,0.66
		l0.279,0.848l-0.941,0.092l2.072,1.693l0.85,3.111l-0.471,1.971l0.654,0.189l4.422,4.234l1.223,2.352l0.098,1.785l-0.57,0.469
		l0.943,0.662l0.471,1.318l0.188,2.631l0.379,0.379l0.092,0.943l-0.281,0.371l0.189,1.32l0.471,0.189l-0.281-0.189l0.281-0.75
		l-0.379-0.287l0.098-0.473l0.184,0.66l0.471-0.092l-0.182,1.223l0.562,0.189l-0.381-0.379l0.189-0.189l0.752,0.471l-2.066,0.469
		l0.471-0.279l-0.568-0.092l-0.09-0.752l-0.752-0.469l0.281-0.473h0.471l-1.883-0.469l-0.189-1.131l-0.941,1.223l-0.471,1.502
		l0.471,0.098l0.471-0.658l1.031-0.092l1.322,1.312l0.092,0.658l-0.373,0.381h0.75l1.414,1.031l2.068,2.822l-0.096,0.66h0.939
		l0.379-1.318l1.033-0.092l0.939,0.371v0.76l1.131,0.469l0.281,0.939l0.758-0.377l-0.568-2.354l0.75-0.941l-0.09-0.939l-0.379-0.092
		l-0.092,0.943l-0.281-0.57l-0.85,0.85l-1.6,0.092l0.848-0.941l0.281,0.281l0.471-0.373l-0.562-0.658l0.092-0.852l0.281-0.75
		l0.85,0.469l-0.09-0.561l-0.662-0.379h0.281l0.381-1.033l0.652-0.379l0.658,0.189l0.1-0.561l0.469-0.098l0.471,1.039l0.373-1.23
		l-0.281-0.842l0.471-0.191l-0.281-0.75l1.785-1.039l1.41-2.062l0.471-1.791l3.109-2.162l0.281-0.754l5.266-2.352l0.189-0.287
		l-0.562-0.184l-0.287,0.654l-0.471-0.09l-0.09-0.473l0.752-0.469l0.188-0.562l0.66,0.092l-0.189,0.281l0.471,0.098l-0.092,0.469
		l2.443-0.566l0.752-0.471l1.51-3.104l0.652-0.562l1.51-5.174l1.314-0.758l1.508-2.354l1.973,0.85l-0.371-1.318l0.654-0.473
		l0.285-2.533l-0.85-0.758l0.281-4.234l0.189,1.791h0.662l-0.283,0.85l0.654,0.561l-0.184,0.941l1.312,1.131l-0.561,0.281
		l0.561,3.762l1.133,0.752l0.377,0.941l-0.568,1.318l-0.09-0.658l-0.852,0.379l-0.373,0.561l-0.285-0.379l-0.654,0.379l-0.188,0.562
		l-0.1-0.373l-0.281,0.75l0.381,0.281h-0.568l0.568,1.131h0.469l-0.189,1.223l0.939,1.883l-0.092,0.75l0.562,0.098l-0.281,0.281
		l-0.377-0.281l-0.281,1.225l-0.281-0.094l0.471-0.568l-0.752,0.189l-4.141,4.611l0.377,0.754l-1.51,1.412l0.57,0.658l-0.662,1.504
		l-1.129,0.09l0.752,1.51v1.221l-0.471,1.602l-0.471,0.092l-0.471,0.941l0.281,0.377l0.287-0.75l0.471,0.182l-0.189,1.322
		l0.471,1.408l-1.039,5.268l-1.031,0.758l-1.414-1.039l-2.352,0.379l-1.318-0.471l-0.75,1.783l-0.562,0.473l0.469,0.939l-0.379,0.85
		l-0.75,0.85l-0.562,0.092l-0.379,0.939l0.85,0.943l0.842-0.191l0.941-1.031l2.352,0.279l0.941-1.221l1.32,0.09l0.373-0.658
		l1.037-0.471l1.691,0.379l1.131,0.941h0.562l1.223-0.941l-0.373-0.939h-0.281l0.752-0.281l0.752-3.014l0.848-1.41l0.754-2.824
		l-0.473-0.379l0.189-1.41l0.562-1.412l1.318-1.312l0.092-1.98l1.223-1.689l0.939,1.689l-0.279,0.662l0.516,0.098l0.613,0.75
		l0.471,2.822l0.941,0.752l0.373,1.131l0.568,0.279l0.561,1.693l1.131,0.75l0.381,1.51l-0.289-0.279l-0.281,0.279l-0.092-0.279
		l-0.281,0.561l0.281-1.318l-0.471,0.189l-0.189,1.41l0.471,3.014l-0.75,1.408l-0.568,3.953l-1.412,0.662l-1.502,1.783l-1.033,0.281
		l-1.131,1.41l0.092,0.469l1.32,0.662l1.221-0.371l3.385,0.182l1.23-0.752l0.371-0.842l1.131-0.57l2.352,0.941l-0.941-0.66
		l0.941,0.471l0.09-0.281l0.381,0.568l0.562-0.098l3.389,2.824l2.256,2.16l0.379,0.939l0.281-0.088l-0.189,0.469l0.469,0.379
		l-0.182-0.66l0.371,0.373l1.322,1.791l0.469,1.598l0.562,0.475l-0.191,0.09l0.941,2.541l-2.064-4.234l-2.451-3.383l-4.893-4.803
		l-1.412-0.471l2.262,1.602l3.293,3.201l2.352,3.104l2.164,3.953l1.6,4.326l0.85,4.041l-0.471,2.264l-0.848,0.939l-1.693,1.031
		l0.941,1.223v0.848l0.66,0.941l-0.189,0.564l-0.57-0.184l-0.09,0.469l3.201,5.457l0.652-0.189l0.941,0.941l-0.092,0.85l1.783,1.971
		l1.32,3.203l0.281-0.471l-0.471-0.473l-0.562-1.789v-0.562h0.381l0.75,2.066l0.092,1.131l-0.562,0.098l0.471,0.939l3.385,2.535
		l2.354-0.184l2.26,0.373l2.254,1.602l1.98,1.973l0.75,1.41l-0.471,0.85l0.471,0.379l0.469-0.568l1.133,0.568l0.182,0.754
		l0.568-0.754l0.66,0.371l0.373-0.279l-0.562-1.221l1.131-0.848l1.031-0.191l2.443,0.658l2.543,2.072l1.318,0.191l0.469-0.57
		l1.414-0.092l1.221,1.033l0.562-0.092l4.332,3.953l0.373-0.098l-0.184-0.471l0.184,0.658l1.697,0.381l1.123,0.75l1.602,1.883
		l1.691-0.092l0.85,0.561l0.941,1.414h0.66l1.602-1.133l0.279-0.75l2.543-0.943l2.822-3.102h0.842l0.471-0.568l1.6-0.561
		l1.223-1.131l1.412-0.562l0.939,0.189v-0.471v0.373l0.568-0.189l0.941,0.471l0.652-0.184l0.381-0.379l-0.752-0.092l0.842-0.85
		l0.189,0.381l0.379-0.76l-0.281-1.031l-0.758-0.191l-1.121,0.662l-1.041,0.09l-0.658-0.752l-0.184,0.57l-0.66-0.289v-0.652
		l0.844-0.758l-0.092,0.471l0.85-0.092l0.371,0.283l0.189-0.754l4.045-1.693l0.379-0.848l0.752-0.189l0.377,0.287v-0.471
		l0.281-0.096l0.66,0.375l0.562,2.445l0.379-0.09l0.373,0.561l0.188,2.07l-1.41,1.133l-0.66,1.598l-1.033,0.564l-1.408,0.279
		l-2.164-1.41l2.254,2.449l0.568,1.223h1.973l0.281-0.85l1.131-0.66l1.41,0.471l-0.561-0.654h0.469l-0.189-1.32l0.373,0.092
		l0.66-1.41h0.941l-0.373,0.189l0.281,0.189l0.281-0.281l1.32,0.092l0.561,0.379l0.379,1.131l-0.189,0.652l0.471,0.287l-0.189,0.654
		l-0.471,0.471l-1.318-0.373l0.096,1.602l-1.037,0.279l0.098,0.283l1.41,0.467l1.412,2.445l1.881-0.654l1.131,0.281l0.182,0.844
		l-0.469-0.652l-0.941-0.381l1.51,2.445l0.471,2.352l1.033-0.373l0.096-0.66l0.562-0.471l1.791,1.031l-0.568-0.939v-0.371
		l0.471,0.188l1.037,3.195l-0.285,0.281l0.939,0.85l0.189,0.471l-0.373,0.471l0.562,0.844l0.752-0.094l0.189-1.031h0.658v-0.66
		l-0.568-0.191l1.041-1.689l0.09-1.975l-0.471-0.379l-0.469,1.223l-1.693,0.75l-0.092-1.783h-0.568l-0.469-1.131l0.658-0.75
		l0.66-0.098v0.379l1.131-0.471l0.562,0.848l1.221-0.469l0.85,0.373v-0.373h0.371v0.373l0.1-0.373l0.842-0.098l0.098-0.373
		l0.191,0.281l-0.289,0.189l0.66,0.092l0.281-0.379l0.85,0.287v-0.568l0.658-0.279l1.033,0.188l0.379-0.279l-0.658,0.652l11.1-8.65
		l2.92-1.602l2.443-0.66l-1.881-0.09l-0.379,0.469l-0.562,0.092v0.279l1.975-0.561l-2.354,0.561l-0.842,0.662l0.371-0.752
		l-2.162,1.412l-1.6,0.189l0.287-0.85l0.842-0.279l-0.373,0.371l0.752,0.098l1.502-1.131l0.471,0.092l-0.188-0.281l0.568-0.189
		l-0.471-0.092l0.658,0.092v-0.561l-0.469-0.092l0.842-0.471l-0.941,0.373l-0.188-0.66l0.188,0.379l0.66-0.379l0.941,0.287
		l0.752,0.941l0.279-0.379l1.131,0.279l1.883-0.189l-0.189-0.752l0.379,0.473l0.379-0.562l0.279,0.281l-0.75,0.561l3.475-0.471
		l5.176,0.85l1.131-0.379l4.141,0.379l1.602,0.189l0.562,0.561l1.129-0.371l1.785,0.281l0.471-0.471l-0.092-0.471l0.092,0.471
		l2.35-0.75l1.602-1.699l-0.09-0.561l-0.283-0.471l-0.469,0.09l0.469-0.182l-0.568-0.473l0.852,0.184l-0.1,0.57l0.379-0.1
		l0.092-0.471h0.568l-0.471,0.57l0.189,0.189l-0.568,0.469l2.822-0.377l0.379-1.225l-0.188-1.221l0.469-0.85l-0.281-0.848
		l0.752-0.562l0.752,0.471l-0.375-0.852l0.092-1.311l-0.848-0.852l-0.844,0.281l0.471-0.09l-0.379-0.564h0.568l0.184-0.469
		l0.189,0.184l0.281-0.654l-0.281-0.189l0.379-0.941h-0.66l0.281-0.098l0.189-0.939l-0.471,0.377l-0.092-0.471l0.842,0.283
		l0.57-1.883l-0.473-0.189l0.654,0.189l0.379-1.412l1.602-2.352l0.471-2.633l1.412-2.07v-0.941l-0.85,0.098l0.85-0.098l0.469-1.973
		l-0.279-0.66l-0.471,0.09l0.373-0.561l0.377,0.658l0.562-1.221l0.281-1.41l-0.941-0.188l0.098-0.191l0.66,0.279l0.184-0.561
		l0.566-0.189l-0.188-0.562l0.75,0.373l0.191-1.033l-0.281-1.129l-0.66-0.379l1.693,0.66l0.469-0.66v-0.654h0.379l1.502-1.697
		v-1.125l0.943-0.85l-0.092-0.471l0.092,0.281l0.75-0.469v-0.752l-0.281-0.379l1.318-0.754l-0.188-0.467l1.031-0.375v-0.379
		l1.32,0.092l0.092,0.662l0.939-0.375l0.189-0.756l-0.561,0.098l-0.379-0.379l0.189-0.75l-0.379-0.943l0.098,0.281l1.031-0.662
		l0.471,0.291v-0.379l0.189,0.939l-0.379,0.754l0.379,0.377l0.562-0.471l0.287-1.039l-0.568,0.098l-0.189-1.221l-0.373,0.281
		l0.092-0.473h0.379l-0.098-0.658l-0.471,0.189l0.189,0.281h-0.75l0.561-0.189l-0.182-0.752l-0.758-0.469h-0.844l1.693,0.281
		l1.41-1.506l0.281,0.281l0.85-1.791l-0.189-0.84l0.941-0.281l-0.381-0.189v-0.943l-0.939,0.281l-0.092-0.281l0.379-0.658
		l0.652-0.281l0.471,0.189l-0.371,0.844l0.842-0.66l-0.471-0.842l0.189,0.189l0.189-0.943l0.562-0.471l0.098-0.848l1.223-1.502
		l2.914-1.883v-0.287l-1.125,0.098l0.094-0.568h-0.473l0.752-0.182l-0.092,0.469l0.562-0.189v0.281l0.379-0.469l0.842-0.092v-0.471
		l-0.652,0.281l-0.189-0.471l-0.379,0.66l-0.471-0.758l-0.842,0.188l0.371-0.373l-0.471-0.189l0.471-0.189l-0.092,0.283l0.471-0.094
		l0.281,0.375l0.281-0.186l-0.092,0.373l0.66-1.221l1.031,1.412l0.471-0.564l0.562-2.26l-0.281,0.562l-0.941-0.373l-0.469,0.191
		l0.279-0.381l-0.652,0.281l0.281-0.189l-0.189-0.373l0.469,0.092l-0.469-0.279l1.41,0.658l0.379-0.379l-0.287-0.371l-0.281,0.182
		l0.189-0.562l-0.379-0.281l0.379,0.094l0.379,0.848l0.094-0.279l0.377,0.371l0.184-0.189l-0.281-0.371l0.568-0.754l-0.189-0.467
		l0.844-1.51v-0.662l-0.562,1.32l-0.471-0.377l0.752-1.125l-1.412,0.182v0.57l-0.189-0.381v0.473l-0.281-0.373l-0.471,0.281
		l0.85-0.471l-0.189-0.281l0.752-0.1l-0.471-0.189l0.379-0.371l-0.471-0.098v-0.562l0.752,0.379v0.752l0.189-0.281l0.562,0.09
		l0.75-0.561l-0.371-1.039l0.371-0.471v0.379l0.379-0.096l-0.469,0.568l0.561,0.279l-0.561,0.189l-0.094,0.75l1.596-0.75
		l-0.189-0.568l1.412-1.691l-0.092-0.281l-0.379,0.471l-0.283-0.189l-0.09-0.471h0.373l-0.283-0.371l0.852-0.662l0.66,0.189
		l-0.758,1.125l1.037-0.652l0.092-0.76l0.941-0.75l0.941-1.693l-0.281-0.092l2.633-2.449h-0.562l0.189-0.471l-0.66-0.471
		l0.562,0.279l0.098-0.279v0.381l0.191-0.473l-0.479-0.379l0.566,0.281l0.094-0.471l0.469,0.098l-0.65,1.504l0.65-0.752l1.131-0.471
		l2.732-0.471l0.561,0.281l1.131-0.75l0.092-0.471h-1.412l-0.279-0.561l-0.189,0.842l-1.693,0.281l1.502-0.562l-0.75-0.381
		l-1.131,0.381l0.098-0.662l0.281,0.471l0.658-0.471l-0.75-0.658l0.184-0.281l0.287,0.471l0.752-0.562l-0.189,0.471h0.561
		l0.191,0.373l0.279-0.562l-0.182,0.471l0.469,0.279l0.562-0.371l0.562,0.371l0.189-0.658v0.658h-0.471l0.848,0.471v-0.842
		l1.414-0.758l0.842-0.941l3.293-1.031l-0.281-0.66l0.752-1.131l-0.281-0.75l0.85-1.314l-0.471-0.66l-0.568,0.191l0.471,0.652
		l-0.281,0.188l-0.092,1.602l-0.471,0.092l0.092-0.652l-0.562-0.658l0.471-0.57l-0.379-0.471l-0.189,0.287l-0.371-0.66l-0.281,0.66
		l0.182-0.758l-0.471-0.182l0.852,0.279l0.561,0.191l0.189-0.662l0.471,0.471l1.039-1.691l0.371-1.037l-0.281-0.094l0.381,0.094
		l1.783-1.977l1.318-0.377l-0.098-0.752l2.072-2.443l-0.373-0.098l0.562-1.033l1.602-1.508l-0.189-0.844l1.221-1.791v-1.41
		l0.471-1.033l1.6-1.691l-0.281-1.039l1.033-1.131l-0.092-0.752l-0.85-0.188l-0.092-0.941l0.092-1.691l0.66-1.223l0.562-2.73
		l2.352-2.725v-0.941l1.229-1.51l0.184-1.881l1.508-1.973l0.844-2.914l0.66-0.941l0.471-1.979l0.469-0.473l0.379-1.502l-0.939-1.221
		l0.66,0.279l0.279,0.662l0.281-1.041l-0.379-0.371l0.098-0.85l2.164-2.352l-0.281-0.473l0.471-1.129l2.441-2.541l-0.842-0.184
		l0.842,0.184l0.381-0.471v-1.125l1.031-2.352l-0.658-0.189l-0.562-1.789l0.281,0.098l1.221-4.613l-0.182-1.504l-0.189,0.941
		l0.09-1.129h-0.371l-0.66-0.66l-0.098-0.66l-0.283,0.1l0.283-0.189l-0.283-3.855l0.381-1.412l-0.568-0.287l-0.092-1.412
		l-0.562-0.752v-1.129l0.373-0.184l-0.471-0.658l0.281-0.57h-0.471l-0.184-0.939l-0.189,0.287l-0.66-0.189l-0.09-1.32l-0.66,0.379
		l-0.66,0.189l0.85-0.379l0.373-0.939l-1.033-0.66l-0.189-0.941l-0.562,0.098l0.654-0.189l-0.092-0.752l0.281,0.562l0.471,0.092
		l0.281-0.842v-0.379l-1.125-0.094v-1.221l0.184,0.471l0.471-0.66l1.229-0.379l-0.471-0.189l-0.287-1.031l-0.281,0.092l0.189-0.473
		l-0.471-0.09l0.092-0.281l0.379,0.189l-0.281-0.662l0.562-0.469l-0.189,1.223l1.129,2.26l0.66-0.471l-0.752-3.391l0.283-1.223
		l-0.471,1.223l-0.562,0.189l0.562-0.189l0.279-1.223h0.471l0.098-2.16l-1.32-1.131l0.85,0.377l0.184-1.979l0.85-2.443h-1.223
		l0.562-0.098l0.281-2.535l2.541-4.801l-0.561,0.281l-0.66-0.473l-0.281-1.973l-0.471-0.279l0.373,0.371l-0.471,0.379l0.188,0.66
		l-0.188,0.373l-0.471-0.184l0.471,0.564l-0.373,0.088l-0.379,0.852l-0.279-0.471l0.658-0.562l-0.189-0.568l-0.562,0.098
		l0.752-0.098v-0.562l-0.568-0.098l0.471,0.098l0.098-0.66l-0.471-0.561l-0.568,0.092v0.281l-0.09-0.473l-0.281,0.381l0.281-0.381
		h0.658l0.092-0.373l-0.66-0.287l-0.471-0.75l0.289-0.281l-0.758-0.281l0.287-0.379l0.471,0.189l-0.471-2.162l0.471-0.098
		l-0.289-0.281l0.568,0.098v-0.568l-0.568,0.1l0.381,0.092l0.561-0.66l-0.561,0.098l0.561-0.287l0.189,0.189l0.379-0.562
		l-1.789,0.844l-1.412-0.092l1.412-0.092l0.568-0.85h0.562l-0.662-0.379l0.471,0.098l0.379,0.372v-2.633l-0.939-0.189l-0.191-0.653
		l-0.469,0.372l-1.975-0.66l-0.568-1.221l-0.939-0.19l-0.189,0.38l0.189-0.471l-0.281-0.092l1.32,0.183l0.279-0.28l-1.129-1.601
		l-0.281,0.097l0.281-0.097l-0.752-1.882l0.189-0.653l-0.568,0.182l0.66-0.37l-0.189-1.791l-0.752-1.222H611l-0.189,0.659h-0.377
		l0.096,0.661l-0.188-0.661h0.377l0.092-1.039l-1.318-0.371l-1.223-1.51l0.379,0.47l-0.281-0.183l-0.758,0.373l0.379,0.281h-0.562
		l0.844-0.654l-1.221-1.698l-0.092,0.66l0.092-0.66l-0.562-1.223l-0.379,0.19l0.281-0.281l-0.844-1.692l-0.287-3.201l-0.752-1.691
		l-0.658,1.13l0.469-0.758h-0.561l-0.66-1.032l-0.662-0.19l0.662,0.099l-0.471-1.51l0.281-0.281l-0.373-0.28l-0.471,1.313
		l-0.098-0.752l0.469-0.281l-1.311-0.94l-0.568-0.092l-0.094,0.562l0.471-0.09v0.469l0.562,0.472l0.1,0.28l-0.281-0.099l0.182,0.661
		l-0.654-0.843l-0.939-0.568l-0.379,0.568l0.379,0.372l-0.287-0.28l-0.281,0.659l-0.279-1.131l-0.562-0.188l-0.289,0.47
		l-0.281-0.842l-0.092,1.032l-0.377-1.032l0.279-0.19l-0.75-1.411h-0.281l-0.281-1.319l-0.568,0.659l0.189-1.032l-1.881-1.039
		l-0.373-0.751l0.184-0.75l-0.281,0.188l-0.281-0.758l0.281-0.183l-0.471-0.287h0.379l-1.039-0.752l-0.373-1.313v0.941h-0.279
		l0.182-0.759l-0.562-0.372l-0.09,0.751l-0.568,0.188l0.279,0.282l-0.371-0.282l-0.098,1.131l-0.281-1.131l-0.844-1.128l0.471,0.09
		v-0.28l-1.227-0.94l1.037,0.188l0.281-0.379l-0.75-1.41l-0.191-1.503l-0.377-0.19v-0.28l0.469,0.28l0.66-0.842l-0.092-0.66
		l-0.752-0.379h0.373l0.098-0.66l-0.658-0.562l0.75-2.913l-0.279,0.562l0.279-0.94l-0.471,0.379l-0.189-0.758l1.131,0.379
		l-0.092-0.94l1.123-3.293l-0.842-0.752l0.189-2.071l-0.379-0.091l0.281,0.562l-0.66,0.66l0.189,0.751l-0.66-0.092l-0.281-0.567
		l0.568,0.47v-1.313l-0.658,0.092l0.188-0.281l-0.469-1.221l0.371,0.28l0.098-0.28l0.562,0.842l0.66-1.13l-0.939-0.471l-0.191-1.411
		l-0.377,0.288l0.285,0.561l-0.188,0.85l-0.098-0.47l-0.471,0.28l0.188-0.378l0.283-0.092l-0.654-0.471l0.471-0.098l-0.287-0.562
		l0.287,0.28l0.184-0.372l-1.316-0.66l-0.658,1.411l0.379,0.562l-0.379-0.19l0.092,0.288l0.758,0.47l-0.85-0.287l1.031,1.039
		l-0.469-0.379l-0.281,0.099l1.41,0.94l-0.09,0.372l-0.381-0.281v0.379l-0.189-0.758l-0.652-0.183l0.471,1.692l0.654,0.189h-0.562
		l0.279,0.653l-0.939-1.692l-0.562,0.471l0.189-0.373l-0.379-0.379l0.379,0.092l-0.85-0.752l0.283,0.941l-0.283-0.843l-0.561-0.099
		l-0.57-0.939l-1.502-1.223v-0.379l-1.32-0.28l-0.561-0.66l0.281-0.562l-0.471-0.47v-0.751l-0.85-0.85l-0.092-1.131l-0.561-0.562
		l-1.512,0.85l-0.842,2.253l0.842,0.282l-0.939,0.097l1.32,5.175l0.379,0.471l-0.85-0.66l-0.379-1.503l-1.125-1.038l-1.037-2.071
		l-0.471,0.758l-1.693,1.032l0.189,0.189l-0.568-0.098l-0.652,1.228l0.469-1.41l0.936-0.568l0.189-1.223l-0.189-0.751l-0.652,0.373
		l-0.66-0.373l-0.562,0.751l0.373-0.189l-0.189-0.471h1.131l-0.375-1.032l-1.037-0.098l-0.562,0.66l-0.379-0.189l1.693-0.843
		l-0.562-1.509l-0.281,0.097l0.373-0.379l-0.562-1.783l0.189-0.758l-0.85-1.881l0.281-1.412h-0.562l0.473-0.281l-0.381-0.372
		l-0.092-1.038l0.473-0.189l-0.191-0.184l0.568,0.471l0.092-0.287l-0.469-0.281l-0.094-1.314l1.033-1.508l-0.379-0.281l-0.471,0.751
		l-0.09-0.47h-0.564l-0.287-0.373l0.379-0.758l-0.75,0.189l-0.1-0.562l-0.75,0.372l-0.092,0.47v-0.751l-0.379-0.281h0.568
		l0.092-0.751l0.561,0.189v-0.287l-1.031-0.471h0.842l-0.09-2.063h-0.471l-0.281-0.569l-1.223,1.131l0.373-0.66l-0.471-0.092
		l0.66-0.568l-0.373-0.653l-0.469,0.092l0.371-0.189l0.281,0.28l0.287-1.221l-0.758-0.19h0.85l0.092,0.379l0.287-1.319h-0.379
		l-0.469-0.751l-0.191-0.562l-0.371-0.19l-0.191,0.562l-0.379-1.032l-1.031,0.092l-0.379,0.379l0.189-0.94l0.281,0.092l-0.281-0.472
		h0.752l-0.373-0.561l-0.471,0.188l-0.758-0.751l-0.652,0.184l-0.379-0.654l-0.941,0.654l0.189-1.313l-0.752-0.19l0.184-0.378h0.66
		l-1.691-1.504v-0.659l-0.662,0.099l0.852-0.66l-1.412-1.79l0.561,0.379l0.752-1.039l-0.471-1.124l1.32,0.843l0.66-0.47v-0.471
		l0.279,1.411l0.473,0.568l1.221,0.281l-0.66-0.85l0.471-0.189l-0.184-0.183h-0.379l-0.561-0.759l0.092-0.653l-0.281-0.188
		l0.371-0.471l-1.123-1.222l0.561-0.099l-0.377-0.189v-0.653l-0.373-0.098l-0.379,0.659l-0.844-0.091l0.184-0.66l-0.373,0.092
		v-0.373l0.373-0.757l-0.562,0.658l-0.09-0.841l-0.191,0.841l-0.469-0.188l0.371-0.562l-0.652,0.281l0.281-0.562l-0.471,0.092
		v-1.882l-0.568,0.471l-1.125-0.752l-0.287,0.941l0.758,0.28l-0.939,0.568l0.652,0.092l-0.844-0.189l-0.096,0.379l-0.184-0.098
		l-0.1-0.373l-1.031-0.188l0.092-0.19l-1.031-1.032l0.279-0.189l-0.85-0.66l0.189-0.371l0.473,0.09l-0.092-0.848l-0.381,0.097
		l-0.281-0.568l-1.129-0.281l0.189,0.38l-0.752-0.471l-0.379-1.13l-1.6,0.568l-0.752-0.189l-0.66-0.759l0.189,0.478l-0.562-0.947
		l-0.189-2.064l-0.379-0.568l-1.123-0.183l-0.189,1.123l0.471,1.131l0.371,0.098l-0.279,0.092l-1.785-0.471l-1.229-1.882
		l-0.279,0.281l0.189-0.562l-1.412-1.13l0.848,0.85l0.754,0.372l0.09-0.562l-1.031-0.379l0.941-0.091l-0.189-0.85l-0.564-0.28
		l0.564,0.189v-0.379l-0.281-0.843l-0.471,0.183l0.373-0.092l-0.094-0.281l-0.75-1.222l-0.941-2.639l-0.379-0.281l0.941,1.692
		l-0.373,0.568l-2.07-0.568l-1.039,0.568l-0.092-0.471l-0.939-0.281l-0.281,0.471l0.092-0.568h-0.471l-0.189,0.751l-0.184-1.123
		l-1.039-1.699l0.379-0.653l-0.66-1.319l0.092,0.471l-1.031,1.502l-1.32-0.183l-0.562-0.568l-0.279,0.098l0.188-0.471l-0.756-0.287
		l-0.184-0.94l-1.98-0.183l-3.012-2.261l-2.912-3.953l1.502-3.764l-0.471-0.092l0.471-0.379l-0.094-0.659l-0.188-0.281l0.471,0.098
		l-0.092-0.568l-0.281-0.188l-0.098,0.287l-0.281-0.471l-0.379,0.092l0.287,0.379l-0.471-0.759l-0.568-0.091l-0.371,0.379
		l0.279-0.568l-0.471-0.189l0.281-0.091l-0.189-0.38l-0.471,0.189l-0.281-1.692v0.66l-1.879-2.92l-0.191-1.411l0.568-1.313
		l-0.287-0.19l0.287,0.19l0.471-0.85l-0.471-0.189l0.471,0.098l0.281-0.849l0.092,0.28l0.471-0.183v-1.229l0.469-0.751l-0.469-1.313
		l0.469-0.188l-0.189-1.131l0.85-0.941l-0.189-0.85l-0.371,0.569l-0.471-0.189l0.371,0.189l0.379-0.66l-0.939-1.503l0.279-1.979
		l-1.031-1.313l-0.758-3.391l-0.844-1.313l0.191-1.131l1.031-1.69l-0.562-0.569l-0.287,0.569l-0.471,0.09l-0.373-0.659l-1.221,0.85
		l-0.287-0.379l0.287-0.471l-0.379-0.189l-0.469-1.222l-0.562-0.471l-0.191-0.66l-1.41-1.031l-1.51-2.542l-0.092-1.131l-0.939-0.372
		l0.188-2.071l0.562-0.94l-0.562-0.189l1.223,0.098l-0.752-1.789l0.752-1.602l-1.031-2.542l-0.941-0.183l0.562-1.601l-0.379-0.568
		l0.287-1.411l-0.758-1.411l0.189-1.222l-1.693-1.032l0.941,0.188l0.189-0.567l-0.379-0.66h-0.941h0.66l1.033-1.784l-0.184-0.47
		l1.221-0.66l-0.279-0.94l-0.471,0.562l-0.758-0.092l-0.281-1.881l-0.471-0.471l0.471,0.281l0.66-1.313l1.32-1.229l-0.1-0.562
		h-1.129l-0.941-1.411l0.189-0.752l-1.973-0.281l-0.281-0.47l-0.287,0.372v-0.471l-0.562,0.189l-0.471-0.94l-0.941-0.471v-1.032
		l-0.469-0.287l-0.189-0.941l-1.783-0.372l-0.289-0.85l-1.594-0.092l-1.039-1.41v-0.752l0.66-1.13l-1.031-0.098l0.281-1.693
		l-1.32-1.783h-0.471l-0.562,1.124l-0.85,0.471l0.189,0.188l-0.469-0.091l-0.85,0.471l-1.033-0.19l-1.031-0.94l-0.379,0.092v1.13
		l-0.471,1.04l-2.26,1.502l-1.314-0.092l-0.281,0.562l-0.189-0.659l-1.131-0.281l-0.848-0.66l-0.943-1.502l-0.65-2.634l-0.191-3.391
		l-1.037-0.94l-0.373-1.692l-1.041-1.79l0.662-2.822l0.566-0.843l-0.756-0.099h0.658l0.283-1.973l-0.283-0.85l-0.842-0.843
		l0.092-2.542l-0.281-0.85v-3.384l0.844-1.502l-1.031,0.28l-0.562-0.28l-0.852,0.561l0.281,0.661l-0.469,0.372v-0.372l-0.562-0.189
		l0.373-0.19l-0.471-0.189l0.098-1.124l1.221-2.541l-0.379-0.189l0.66-0.85l-2.07-1.221l-0.562-1.033l-0.561,0.281l0.652-0.47
		l-0.092-1.32l-0.379-0.471l-1.123-0.751h-0.758l0.189,0.281l-0.471-0.471l-0.281,0.379l-0.379-0.379l0.379-2.823l-0.562-0.751
		l0.562,0.379l1.691-2.73l0.66,0.098l0.189-0.379l-0.471-0.281l-0.66,0.372l-0.377-1.032l-0.844-0.47l-1.131,0.66l-0.941-0.098
		l-1.973-1.785l0.184-3.39l-0.471-2.915l0.758-1.319l-0.379-1.124l-0.752-0.849v-3.482l-1.129-2.163l-0.752,0.189l-0.379,0.562
		l0.379-0.94l-0.469-0.281l-0.852,0.189l0.471-0.752l-0.471-0.659v0.28l-0.562-0.28l-0.279,0.372l0.371,0.941l-0.561-0.471
		l-0.281,0.471l-1.32,0.47l1.033-0.372l0.379-1.974l0.471-0.098l1.131-1.411l-0.852-0.373l-0.469-0.758l-0.562,0.471l-1.223-0.091
		l-0.66,1.881l-1.221,1.222l-1.791,0.092l0.281,0.568l-0.752-0.471l0.281-0.189l-1.312,0.752l0.281,2.071l0.189-0.562l-0.287,0.941
		l0.189,0.372l0.189-0.372l-0.092,0.47l-0.85,1.595l0.189,2.45l-0.66,1.411l-0.561,1.13v0.372h-0.189l-0.57,1.979l-0.092,0.184
		l-0.377,1.13l0.098,0.281l1.602-0.091l-0.381,0.562l-1.6-0.184l-0.844,3.195l0.092,0.281l0.379-0.184l-0.287,0.281l0.66,0.28
		l0.379,0.85l0.469-0.94h0.752h-0.658l-0.373,1.503l-1.229-0.661l-0.373,0.661l0.281,1.13l-0.752,0.372l0.66-0.47l-0.85-2.725
		l0.381-0.471l-0.568-0.098l-0.471,0.471l-1.975,3.952l0.471,0.189l0.471-0.47l-0.281,0.28l0.562,0.379l-0.562-0.098l-0.189,0.287
		l0.092-0.287l-0.941-0.092l-2.254,5.455l0.562,0.38l1.131-0.38V45.04h-0.752l0.471-1.601l-0.189,0.281l0.471,0.379l1.221-0.098
		l-1.221,0.659l1.129,0.562l0.941,1.13l1.033-0.373l0.281,0.281l0.75-0.47l0.66,0.562l-0.842-0.092l-0.381,0.372l-0.188-0.28
		l-1.223,0.85l0.941,0.372l0.658,1.039l0.941-0.189l-0.281,0.091l0.281,0.189l-1.131,0.281l0.471,2.731l-0.85-1.319l0.1-1.784
		l-0.662-0.751l-0.561,0.183v-0.471l-1.32,2.921l-1.6,1.032l-0.281-0.189l-0.562,0.757l-0.287,0.654l0.568,0.94v1.979l1.131,1.692
		l-0.76,1.32l0.289,0.183l0.652-0.562h0.471l-0.941,0.562l1.039,0.757l-0.377-0.097l0.189,0.66l-0.381-0.472l-0.279,0.189
		l0.189-0.47l-0.752,0.28l-0.379-0.378l-1.691,2.64l-1.412,5.357l-0.092,1.319l1.973,2.73l0.379,1.784l-0.379-0.092l0.094,1.503
		l-1.414,3.574l0.941,6.402l0.758,1.313l0.471,1.979l-0.756,1.124l0.188,0.758L450.5,90.48l-0.098,0.092l-0.754,2.162l-0.09,0.379
		l-1.412,3.202l-1.41,6.017l-0.289,0.38l0.852,2.724l-1.32,2.071l-1.033,3.104l-0.189,0.287l0.098,1.223l-0.658,1.221l-0.57,0.562
		l-0.471,1.698l-0.09,0.092l-1.789,1.79l-0.186-0.099l-0.469,1.511l-1.699,1.782l-0.184,0.752h0.373l-0.66,2.261l-0.182,0.379
		l-0.758,3.103l-1.031,1.412l-2.164,0.751l-1.691,1.223l-0.471,0.098l-1.98,0.94l0.098-0.379l-1.412,0.562l-2.26,0.189h-0.379
		l-1.881,0.281l-1.504-0.281l-0.752-0.562l-0.377-0.94l-1.602-0.569l-0.281-0.47l-1.031,0.098l-0.473-0.47l-1.219-0.281l-0.568-0.66
		l-0.191,0.562l-0.092-0.843l-0.75-0.38l-1.131-1.319l-0.471,0.287l0.092-0.379l-0.471-0.28l-1.973-0.19l-1.031-0.849l-1.223-2.254
		l-0.287-1.791l0.287-0.939l-1.039-0.472l-0.85-1.032v-0.659l-4.605-1.411l-2.072-1.319l-2.443,0.188l-1.98-0.843h-0.371h-0.098
		l-2.824-1.229v-0.091l-0.842-0.379l-4.424-4.515l0.189-0.092l-1.508-2.162l-0.184,0.47l-0.098-1.038l-3.012-1.223h-0.184
		l-2.07-0.47l-1.883-1.131l-0.469-0.843l-0.281,0.471l-0.191-0.379l0.473-0.281l-0.281-0.189l-0.381-0.092l0.381,0.092l-0.287,0.189
		l-1.125-0.94l-1.227-0.281l-1.412-1.411l0.098,0.281l-0.379-0.099l-0.471-0.183l-0.752,0.372l0.662,0.568l-0.191,0.281
		l-1.221-0.659l-0.379,0.378l0.281-0.378l-0.654-0.281l-0.941,0.372l0.092-0.562l-0.658,0.85l-0.562-0.378l-0.381,0.189l0.381-0.281
		l-0.281-0.38l0.371-0.091l0.283-0.287l-0.654-0.471l0.371,0.189l-0.09-0.373l-0.57-0.097l0.189-0.472h-0.562l-1.129-0.939
		l-0.658,0.188l0.279-0.379l-1.881-1.313l-0.281-0.47l-1.312-0.471l-0.287,0.372v-0.562l-0.844-0.85l-0.381-2.162l-0.75-0.189
		l0.281-0.281L360.65,90.2l-2.162-1.412l-1.32-0.47l0.189-0.189l-2.072-1.791l-1.789-1.13l-0.561,0.189l-0.379-0.843l-0.562,0.653
		l0.281-0.843l-0.371-0.281l-1.133-0.098l-0.379,0.568l0.281-0.659l-1.594-1.039l-0.758-1.124l-0.373,0.372l0.281-0.562
		l-0.562-1.601l-0.379-0.091h0.379l-0.189-1.321l-0.75-0.189l0.561-0.091l0.66,0.471l0.562-0.85l1.51-0.562l-0.287-0.38l0.287-1.13
		l0.939-1.222l0.281-1.032l1.033-0.098v-0.653l0.939-1.51l-0.469-0.562l0.75,0.189l1.98-1.411h0.752l-0.473-0.471l0.564-2.823
		l0.566-0.757l-0.098-0.471l0.189,0.471l0.66-0.941l0.471-2.443l1.031-1.691l-0.939-0.099l0.189,0.47l-1.314,1.131h-0.658
		l-0.57-0.562v-0.281l0.76-0.379l-0.189-0.28l-0.57,0.091l-0.182-0.752l-0.66-0.562l0.66-0.47l-0.1-1.98l0.662-0.281l0.561,0.752
		v-0.471l0.471,0.099l0.189-0.66l-0.75,0.092l-0.092-0.66l-0.66-0.281l0.471-1.313l0.658-0.568l0.281,0.752l0.189-1.033l0.654-0.28
		l0.471,1.601l0.189-1.32h0.471l0.279-1.319l0.76-0.47l-0.191,1.411l0.752,1.319l-0.281-0.751l0.66,0.091l0.281-0.659l0.471,0.098
		l0.09-0.659l-0.561-0.562l0.471,0.092l0.189-0.379l0.471,0.757l0.561-0.188v-0.568l-0.377-0.281l0.658-1.032l0.568,0.373
		l-0.189,1.41l0.562,1.319l-0.373,0.472h-0.66l0.189,0.378l-0.379,0.373l0.379,0.47l1.033-1.411l0.75-0.372v0.471h0.381l0.188-1.319
		l0.562-0.471l0.281,0.28l0.568-1.691l-0.469-0.092v-0.568l-0.568-0.471l-0.375,0.379l-0.469-0.568l1.312,0.189l0.379-0.471
		l0.092,0.85l0.281,0.092l0.566-0.941l0.281,0.941l0.662-0.281l-0.471-0.94l-1.602-0.562l0.189-0.568l-0.66-0.092l-0.562-0.569
		l0.184-0.751l-0.371-0.471l1.221,0.568l-0.189-0.849l0.379-0.281l0.842,0.843l-0.279-0.183l-0.092,0.562l0.66,0.47l-0.191-1.973
		l0.373-0.471l1.133,0.281l-0.283-0.752l0.191-0.568l0.842-0.941h0.377l-0.188-0.371l-0.66,0.183l0.66-0.562l-0.373-0.092
		l0.184-0.098l-0.184-0.843l1.123-0.287v0.66l-0.562,0.567L371,41.748l0.189-0.569l2.064-2.162l1.039-0.281l0.279-0.47h-1.031
		l0.373-0.38l-0.189-0.66l-0.471-0.091l0.1-0.562l-0.852-0.66h-0.658l-0.562-0.94l-1.691,0.47l-0.098,0.373l0.469-0.281
		l-0.092,0.659l0.189-0.562l0.189,0.562l0.471-0.28l0.184,0.373l-0.184,0.567l-0.471-0.098l-0.287,0.379l-0.842-0.19l-0.098-0.658
		l-0.846-0.654l-0.279-0.85l0.092-1.13l-0.379-0.091l-0.562-1.51l-0.85,0.189l0.287,0.281l-0.658-0.471l0.279-0.562l1.791-0.659
		l-0.287-0.751l0.189,0.47l-0.281,0.281l-0.471-0.092l-0.658,0.66l-0.752-0.287l-0.191,0.47l-0.279-0.183l-1.32,1.692l-0.281-0.19
		l-0.939,0.281l-0.943,1.131l0.1,0.379l-0.85,0.183l0.092,0.471l0.848-0.091l0.092,0.47h1.51v-0.281l0.752,0.941l0.562-0.281
		l-0.941,0.471l0.189,0.183l-0.562,0.568l-0.377,1.692l-1.225,1.222l-1.129-0.281l-0.092-0.378l-1.131,0.287l-0.379-0.472
		l-0.75,1.124v-0.562l-0.752-0.189l0.662-0.94l-0.943,0.28l1.131-1.594l-0.188-0.471l0.279,0.092l0.561-0.941h-0.84l-0.191,0.471
		l-0.66,0.092l-0.562-0.94l0.844-0.653l1.131-2.071l-0.752,0.471v0.47l-0.66,0.562h-0.75l-0.379,0.661l-0.092-0.661l-1.412,0.752
		l-0.471,0.471v0.94l-0.281-0.47l-0.658,0.658l-1.131-1.502l0.189-0.941l1.318-1.038l1.502-1.692l0.943-0.091l0.471-0.568
		l-4.326,1.509l-1.699,1.503l0.287-0.471l-0.568-0.659l-0.371-0.093l-1.131,0.941l-0.66-0.189l0.189-0.28l-0.941-0.092l-1.037,0.751
		v0.562l-1.412,0.471l1.508,0.941l0.752-0.66l-0.189,0.66l-1.129,0.281l-0.281-0.654h-1.693l1.133,1.124l-0.191,0.188l-0.752-0.561
		l-0.189,0.189l-0.279-0.66l-1.602,0.66l-1.223-1.98l-0.85-0.372l-0.658,0.372l0.287-0.28l-0.379-0.189l-0.66,0.189l-0.092-0.751
		v-0.752l-0.66-0.189l0.092,0.28l-0.471-1.032l-0.371-0.188l0.279-0.568l-0.469-0.184l-1.033,0.281l-0.379,0.752l-1.129,0.751
		l0.189,0.568l-0.473-0.568l-1.41,0.379l-1.221-0.19l-1.223-0.47l-1.039-1.032l-0.66,0.091l0.189,0.85l-1.033,0.654l-0.098,1.13
		l-0.562,0.568l0.473-0.568l-0.379-0.562l0.566-1.32l-0.279-0.66l-0.471-0.092v-0.378l0.471-0.092l-0.85-1.032l-1.131,0.653
		l0.283-0.562l-0.754-0.85l-2.07,1.319l0.098-0.379h-0.752l-0.568-0.653l-0.188-0.568l1.881-1.222l-0.373-0.471l-0.939,0.189
		l-0.381-0.47h-0.75l0.279,0.188l-1.221,0.843l-1.129-0.188l0.281,0.287l-0.943,0.843h-0.469v-0.471h-0.654l-0.848,1.222
		l0.377-2.064l-1.229,0.752l-0.371-0.471l-0.568,0.091l-0.092-0.843l-0.562,0.752l-0.848-0.098v-0.751l0.658-0.092l-0.281-0.471
		l-1.41,0.751l-1.883-0.659l-1.318-2.542l0.092-0.471l-2.725-3.194l-0.852,0.189l0.752,0.751l-0.279,0.751l-0.842-0.562
		l-1.883,2.163l-1.039-0.099l-0.562-0.653l-0.189-1.038l-1.32-1.222l-0.75-0.281l0.189-0.568l-0.379,0.098l0.287-0.471l-0.939-0.94
		l-0.471,0.092l-0.473,1.319l-0.379-0.098l0.189-1.411l-0.85-1.595l-0.279,0.941l-0.941,0.091l0.379,1.692l-1.699-2.443
		l-0.842-0.189l1.129,1.79l-0.469,1.692l0.373-0.379l0.658,0.66l-0.189,0.47l-0.66-0.189l0.287,1.039l-0.379-0.379l-0.09,0.47
		l-0.473-0.659l0.186-1.032l-0.281-0.379l-0.281,0.85l-0.379-0.379l0.189-1.974l-0.471,0.281l-0.188-0.85l-0.475,0.379l-0.842-1.313
		l-0.469,0.184l0.469,0.659l-0.566,0.092l0.377,0.758l-0.377,0.092v0.47l-0.562,0.092l-0.752-1.313l-0.098,0.941l-0.281-0.471
		l-0.371,0.281l-0.473-0.189l0.752,1.13l-1.039-0.189l0.098,0.471l-0.66,0.098v0.281l1.322-0.099l0.279-0.28l1.504,0.379
		l-0.471,0.751l0.941-0.28l0.279,0.47l-0.842,0.372l0.471,0.288l0.75-0.189l-0.281,0.471l0.752-0.19l0.379,0.281l-0.469,0.752
		l0.561,0.757l0.752,0.281l0.189-0.47l0.377,0.092l1.504-1.033l1.223,0.092l0.85-0.471l1.691,0.281l0.562,0.379l0.658-0.751
		l0.281,0.188l-0.184,0.281h0.562h-0.471l0.092,0.281l-0.561-0.092l-0.281,0.471l0.373,0.281l0.848-0.568l0.283,0.379l-0.375-0.281
		l-0.658,0.659l1.312,0.092l-0.184,0.092l0.281,0.379l-1.039,0.189l0.379,0.281l0.852-0.092l-1.414-0.098l1.223,1.038l1.131-0.47
		l0.092-0.471l-0.189,0.843l0.941-0.281v0.379l0.281-0.098l-0.373,0.098v0.752h-0.281l0.281-0.281h-0.941l-0.281,0.94l-1.037,1.124
		l0.848,0.471l0.281,1.039h0.85l-0.941,0.281l-0.379,3.103l0.941,0.568l0.092-0.47l0.287,0.94l1.123,0.28l-2.725-0.47l-0.85-0.659
		l-0.75,0.751l-1.223,0.378l-0.379,0.941l0.57,1.601l-0.291,0.562l-1.219-2.261l-1.131,0.379l-0.281,0.66l-0.189-1.411l-0.373-0.19
		l-2.918,2.162l0.285,0.38l-2.541-0.66l-0.66-0.94l-2.443,1.13l-4.803,0.189l-1.221-0.379l-1.131-1.13l-0.092-1.692l-0.568-0.849
		l-0.941,2.822l0.289,0.287l-0.471,0.184l-0.941-1.124l-0.941,0.47l0.092-0.659l-0.85,0.189l-0.371-0.38l-0.752,0.66l0.561,0.844
		l-0.189,1.6l0.189-0.28l0.473,0.379l-0.473,0.091l0.473,0.19l-0.189,0.751l-0.092-0.471l-2.354-0.471l-0.939,0.85v0.562
		l-0.471-0.093l0.373,0.373l-0.283,0.568l0.471,0.183l0.379-0.47l0.662,0.379l-0.191,0.379l0.752-0.288v0.85l0.85,0.189l0.092,0.373
		l-0.471-0.373l-0.471,0.281l-0.281-0.751l-0.279,0.562l-0.1-0.471l-0.75-0.091l0.75,0.843l-0.373-0.092l0.092,0.471l1.223,0.28
		l0.379,1.039l-0.189,0.184l-0.562-0.941l-0.85-0.091l0.281,1.13l-0.281-0.66l-0.281,0.281v-0.66l-0.281,0.287l0.281-0.471
		l-0.469-0.757l-0.381,0.098l0.283,0.471h-0.373v-0.85l-0.379,0.189l-0.092,1.222l-0.098-1.032l-0.752,0.471l0.66-0.66l0.092-1.222
		l-0.844,0.94l0.66-1.509l-2.541-0.941l-0.66,0.38l0.85,0.659l-0.758,0.281l0.379,0.751l-0.281-0.091l-0.379,1.13l0.098,0.562
		l0.471-0.281l0.281,0.562l-0.379,0.098l-0.092,0.752l-0.098-0.66l-0.562-0.092v0.281l0.66,0.843l0.66-0.28l0.844,0.379v0.28
		l0.469-0.379l-0.373,0.471l0.941-0.092l-0.287,0.092l0.287,0.189l-0.469-0.189l-0.289,0.659l-0.092-0.47l-1.031-0.372l0.281,0.653
		l-0.281,0.47l0.09-0.751l-0.561-0.092l-0.379,0.373l0.189-0.373h-0.471v-0.28l-0.66,0.091L266,45.131l-0.373-0.189l0.191-0.94
		l-0.471,0.189l0.182-0.281l-0.561-0.379l-0.379-0.092l-0.471,0.562h-0.281l0.098,0.28l0.471,0.85l-1.229-1.032l0.098,2.352
		l-0.379,1.503l-1.502,1.032l-0.66-0.092l-0.189-0.562h-0.281l-0.66,0.372l-0.189,0.569l0.287,0.562l-0.377,2.914l0.75,0.189
		l1.221,1.692l1.23,0.568l0.279,0.843l-0.848-0.562l-0.562,0.091l-1.32,1.881l-2.725,1.602l-1.319-0.28l-0.279-1.223l-0.471,0.66
		l0.189,0.372h-1.131l0.281,1.038l-0.66,1.784l-0.189,1.79l0.189,0.19l0.281-0.568l0.379,0.378l-0.281-0.281l-0.189,0.562
		l-1.312,1.32l-0.1,0.562l0.562,0.471v1.13l-1.691,1.131l-0.752-0.568l0.281,0.849l-0.471,0.941l0.85,0.372l-0.85-0.281
		l-0.281-0.659v1.979l-0.189,0.281v-0.752l-0.371,0.843l0.182-0.751l0.189-0.281l-0.66-0.379l0.471-0.653l-0.182-0.758l-0.289,0.287
		l-0.652-0.287l0.652,1.319l-0.371-0.091l-0.471,1.222l-0.85,0.751l0.098,0.85l-0.752,0.843l-0.189,1.601l0.844,0.092l0.85,1.319
		l0.379-0.379l-0.287-0.562l0.379,0.751l0.471-0.562l-0.281,0.659l0.561,0.752l0.85,0.189h0.654l0.66-0.941l-0.562,1.033
		l0.842,0.091l2.072-0.94l0.189-0.373l0.092,0.66l-0.562-0.098l-0.562,0.66l0.092,0.378h0.471l-1.502,0.752l-0.098,0.28h0.379h-0.66
		l-0.66,0.472h0.85l-0.752,0.188l0.373,0.471l0.85-0.568l-0.379,0.471l0.568,0.098l0.09,0.562l-0.189-0.562l-0.842,0.373
		l1.031,0.757l0.752-0.47l0.098,0.372l0.562-1.032l-0.189,0.281l0.189,0.379l-0.941,0.751l0.281,0.373l1.131-0.373l0.66-0.66
		l1.129-0.189l-0.568-0.188l-0.281-0.654h0.379h-0.287l0.098,0.373l0.373-0.092l-0.184,0.19l0.562,0.561l0.47-0.378l0.189-0.751
		l-0.281-0.093l0.373,0.281l0.098-0.379l-0.659,1.411l0.659,0.379l-0.567,0.092l-0.373-0.562l-1.229,0.471l1.229,1.032l-0.287,0.099
		l-0.752-0.85l-0.469,0.189l0.189,0.47l-0.381,1.791l0.191-1.98l-0.941,0.569l0.098-0.288l-0.471-0.281l-0.939,0.281l-0.471-0.092
		v0.281l-0.471-0.562l-0.289,0.28v0.66l0.949,0.373l-0.287,0.758l0.469,0.183l-0.281,0.471l0.191-0.471l-0.471-0.183l0.279-0.758
		l-0.279-0.184l-0.752,0.281l-0.098,0.941l0.379,0.188l-0.379-0.098v0.379l0.279,0.562l0.57-0.092l-0.471,0.28v0.562l0.75,0.94
		l-1.789,0.471l-0.092,0.471l0.562,0.379l-0.562-0.092l-0.281-0.568l0.844-0.751l-0.471-0.092l0.471-0.189l-1.223-1.319
		l-0.471,0.098l-0.09,0.562l0.371-0.94l-0.842-1.223l-1.51-0.378v0.47l0.758,0.38l0.562,1.13l-0.373,0.281l0.281-0.281l-0.471-0.941
		l-0.941-0.568l-0.471-1.032h-1.41l0.092,0.471l0.658,0.373l0.381-0.184l0.182,0.28l-0.182-0.28l-0.568,0.28l-0.562-0.28
		l-0.189,0.471l0.373,0.47l-0.654-0.849l0.092,1.601l0.941,0.372l-0.562,0.189l-0.379,0.38l0.279,0.561l1.23,0.099l0.279,0.372
		l-0.758-0.372l-0.561,0.28l-0.373-0.379l-0.189,1.039v-0.47l-0.189,0.372l0.281,0.568l-0.471,0.843l0.189,0.281l-0.281-0.281
		l0.562-0.843l-0.562-0.66l-0.471,1.313l-0.85,0.287l0.189,0.752l-0.279-0.752l0.75-0.379l-0.092-0.28l-0.098,0.28l0.189-0.562
		l0.66-1.319l-1.131-1.601l-0.377-0.281l-0.184,0.562l0.184-1.503l-0.654-0.751l-0.287,0.189l0.568,0.372l-0.379-0.28l-0.471,0.28
		l0.281,0.471l-0.373,0.379l0.184-1.222l-0.281-0.379l-4.607-0.562l-0.098,0.751l-0.09-0.751l-0.752-0.66l-1.412-0.098l0.66,0.47
		l-1.51-0.751l-0.469,0.281l0.098,0.188l-0.471-0.188l-2.17,0.758l1.98,1.124l-0.471,0.097l0.471,0.373l-0.379,0.287l0.568,0.653
		l0.281-0.28l-0.1,0.94l0.381,0.38l-2.262-2.542l0.568,1.601l0.941,0.372l0.189,0.471l-0.189-0.372h-0.66l0.281,0.471l-0.281-0.19
		v0.281l0.092,0.47l-0.471-0.091l-0.842-0.94l-0.281,0.28l-0.1-0.379l0.662,1.79l-0.281-0.562l-0.381,0.653l0.281-0.373l-0.281-0.47
		l-0.371,0.47l0.092-0.567l-0.85-1.313v0.751l-0.281-0.28l-0.471,0.28l0.471-0.562l-0.66,0.372l-0.561,1.222v0.471l0.848,1.039
		l-0.469-0.379l0.09,0.568l0.562,0.281l-0.092,0.28l-0.471-0.471v0.562l1.504,2.169l0.189,2.162l0.281,0.471h0.658l-0.561,0.372
		l-0.471-0.28l-0.568-2.633l-2.535-2.542l-0.471,1.039l0.562,0.653l0.092,0.85h-0.184l-0.189,1.6l-0.66,1.131l0.189,0.183
		l-1.222,0.19l0.751-0.66l0.562-1.313l-0.471-1.411l-0.94-0.379l0.94,0.189l0.471-0.379v-1.974l-0.562-1.411l0.562-0.379v-2.064
		l0.568-1.228h-0.85v0.287v-0.471l1.883-0.379l-0.281-1.601l-0.66-0.281l1.222,0.281l-0.092-0.752h-0.94l-1.32-1.129l-0.281,0.28
		v-0.471l-1.319-0.94l-0.562,0.758l-0.379-0.758l0.287-0.562l-1.13-0.94l-0.471,0.28l0.372-0.47l-0.183-0.562l-0.758,0.471
		l0.099-0.94l-0.661-0.189l-0.188-0.562l-0.471,0.373l0.471-0.66l-1.504-1.503l-0.47-1.032l-1.979-1.319l-0.562,0.281l0.189-0.562
		l-0.471,0.092l0.19-0.372h-0.38l-0.189,0.372l-0.091-0.372l-0.281,0.091l0.092-1.131l-0.66-0.562v-0.379l-0.372,0.471l-0.85-1.032
		l-0.562,0.189l0.47,0.471l-0.287,0.28l0.471,0.562l0.379-0.188l-0.281,0.188l-0.85-0.28l0.19-0.281l-0.849-0.28l-0.184-0.66
		l-0.568,0.092l-0.373,1.13l-0.379-0.379l0.092-0.751l-0.751,1.41l-0.472-0.091l0.099-0.471l-0.47-0.379l0.091-0.659l-0.659,0.379
		l0.28-1.223l-0.562,0.281v-0.751l-0.189,0.47l-0.092-0.281l-0.379,0.093l0.281-0.38l-0.373-0.091l-0.098-0.471l-0.092,0.28
		l-0.562-0.751l-0.85,0.092l0.562,0.379l-0.281,0.189l-0.842-0.379l-0.471,0.189l0.653,0.66h-0.562l-0.189,0.372l-0.373-0.752
		l-1.229,0.38l1.039,2.352l0.562-0.098l1.13,0.94l0.379-0.183l-0.659,0.372l-0.941-0.28l-0.189,0.28l-1.131-0.28l0.099,0.28
		l-0.569,0.189l-0.371-0.379v0.85l0.371,0.189l0.471-0.471l0.099,0.66l-0.471,0.281l-0.099,0.94l-0.371,0.281l-0.19-0.66
		l-0.751-0.28l0.184,1.6l-0.281,0.373l-0.471-0.092l0.189,1.131l-0.379-0.281l-0.471,0.281v-1.791l-0.752,0.281l-0.371-0.372
		l0.281-0.94l-0.66,0.562l-0.379-0.189l0.66-0.843l-0.189-0.66l1.319-1.222l0.188,0.189l-0.659-0.379l-0.659,0.562l-0.189,0.66
		l-0.752,0.099v-0.288l-0.842,0.568v0.66h-0.941l0.183,0.751l-0.471,0.092l-0.281,0.751l1.131,0.85l-0.85,0.189L196.009,74.296z"/>
	<path id="path9199" fill="none" stroke="#FFFFFF" stroke-width="1.175" stroke-linecap="round" stroke-linejoin="round" d="
		M537.428,442.247l-0.471-0.379l-4.795,2.641l-0.098,1.221l-0.943,1.785l0.1,1.6l-0.471,1.039l0.371,0.371l-0.09,0.381"/>
	<path id="path9201" fill="none" stroke="#FFFFFF" stroke-width="1.175" stroke-linecap="round" stroke-linejoin="round" d="
		M531.031,450.905l0.658,1.312l0.562-0.652l-0.279,1.504l0.848,1.6l1.125,0.562l0.379-0.662"/>
	<path id="path9203" fill="none" stroke="#FFFFFF" stroke-width="1.175" stroke-linecap="round" stroke-linejoin="round" d="
		M534.324,454.569l0.471-0.469l0.562-2.535l-0.092-1.881l0.848,0.182l0.373-1.596"/>
	<path id="path9205" fill="none" stroke="#FFFFFF" stroke-width="1.175" stroke-linecap="round" stroke-linejoin="round" d="
		M536.486,448.271l-0.092-0.756l0.373-0.754"/>
	<path id="path9207" fill="none" stroke="#FFFFFF" stroke-width="1.175" stroke-linecap="round" stroke-linejoin="round" d="
		M536.768,446.761l1.51-1.129l1.41,0.568l0.66-0.379"/>
	<path id="path9209" fill="none" stroke="#FFFFFF" stroke-width="1.175" stroke-linecap="round" stroke-linejoin="round" d="
		M540.348,445.821l0.09-0.371l-1.691-0.758l-0.279-0.941l-0.471,0.098l-0.098-1.129l-0.471-0.473"/>
	<path id="path9107" fill="none" stroke="#FFFFFF" stroke-width="1.175" stroke-linecap="round" stroke-linejoin="round" d="
		M424.436,412.046l0.092-0.096"/>
	<path id="path9111" fill="none" stroke="#FFFFFF" stroke-width="1.175" stroke-linecap="round" stroke-linejoin="round" d="
		M424.436,412.046l0.092-0.096"/>
	<path id="path9113" fill="none" stroke="#FFFFFF" stroke-width="1.175" stroke-linecap="round" stroke-linejoin="round" d="
		M390.377,110.515l-4.045,161.913"/>
	<path id="path9115" fill="none" stroke="#FFFFFF" stroke-width="1.175" stroke-linecap="round" stroke-linejoin="round" d="
		M386.332,272.428l46.473,2.26l-2.914,51.366"/>
	<path id="path9117" fill="none" stroke="#FFFFFF" stroke-width="1.175" stroke-linecap="round" stroke-linejoin="round" d="
		M429.891,326.054l52.594,4.043l33.303,3.393l33.496,4.043l0.752-0.471"/>
	<path id="path9119" fill="none" stroke="#FFFFFF" stroke-width="1.175" stroke-linecap="round" stroke-linejoin="round" d="
		M550.035,337.062l0.658-0.379l0.752-1.594h0.752l1.412-0.941"/>
	<path id="path9121" fill="none" stroke="#FFFFFF" stroke-width="1.175" stroke-linecap="round" stroke-linejoin="round" d="
		M553.609,334.147l2.352-1.227l0.379,0.287l1.221-1.602l0.752-0.098"/>
	<path id="path9123" fill="none" stroke="#FFFFFF" stroke-width="1.175" stroke-linecap="round" stroke-linejoin="round" d="
		M558.312,331.509l1.32,0.098l1.221,1.221"/>
	<path id="path9125" fill="none" stroke="#FFFFFF" stroke-width="1.175" stroke-linecap="round" stroke-linejoin="round" d="
		M560.854,332.827l0.752-0.379l2.07,0.191l0.562,0.379l1.602-0.281"/>
	<path id="path9127" fill="none" stroke="#FFFFFF" stroke-width="1.175" stroke-linecap="round" stroke-linejoin="round" d="
		M565.84,332.737l2.352-0.379l0.85,0.469l1.221-0.379l1.602,2.17l1.221,0.373"/>
	<path id="path9129" fill="none" stroke="#FFFFFF" stroke-width="1.175" stroke-linecap="round" stroke-linejoin="round" d="
		M573.084,334.991h0.562v0.281l0.658-0.184l0.752,0.471l1.883-0.471l1.691,1.221h0.473l0.377,0.846l1.223,0.566l0.189,1.691
		l0.842-0.188l1.791,1.508l0.562,0.844l-0.184,0.848"/>
	<path id="path9131" fill="none" stroke="#FFFFFF" stroke-width="1.175" stroke-linecap="round" stroke-linejoin="round" d="
		M583.904,342.425l-0.189,1.596l0.471,0.85l-0.189,0.377l1.221,0.471l1.883-1.6v-0.85l0.848-1.031l1.504-0.189l1.412-0.844
		l0.566,1.691l0.473-0.098l0.371,0.289l0.379-0.85l0.941,0.469l1.312-0.189"/>
	<path id="path9133" fill="none" stroke="#FFFFFF" stroke-width="1.175" stroke-linecap="round" stroke-linejoin="round" d="
		M594.906,342.517l0.66-0.658l-0.281-0.281l0.752-1.883l0.471-0.371l-0.092-0.471l-0.85-0.66v-1.131l-0.471-0.66l0.189-0.561
		l0.379-0.189v0.379l0.471,0.09l0.941-0.848l1.412-0.373l0.842,0.373l1.6-1.223l1.131,0.281l0.561-0.562l0.1-0.561l0.373,0.092
		l0.379-0.562l0.658-0.098"/>
	<path id="path9135" fill="none" stroke="#FFFFFF" stroke-width="1.175" stroke-linecap="round" stroke-linejoin="round" d="
		M604.131,332.64l0.471,0.281l-0.287,0.66l0.66,0.75l0.75-1.123l0.289,0.842l1.502,1.131l0.85-0.092l0.842-0.568l2.164,0.85"/>
	<path id="path9137" fill="none" stroke="#FFFFFF" stroke-width="1.175" stroke-linecap="round" stroke-linejoin="round" d="
		M611.371,335.37l1.51,0.561l0.371-0.658l0.758-0.281l0.184-0.752l0.85,0.471l0.752-0.471l1.131,0.471l2.07-1.221l0.75,0.469
		l0.283-0.189"/>
	<path id="path9139" fill="none" stroke="#FFFFFF" stroke-width="1.175" stroke-linecap="round" stroke-linejoin="round" d="
		M247.091,273.088l34.62-1.131l34.621-0.562l34.34,0.188l35.66,0.844"/>
	<path id="path9141" fill="none" stroke="#FFFFFF" stroke-width="1.175" stroke-linecap="round" stroke-linejoin="round" d="
		M247.091,273.088l-3.195-92.764l-2.639-97.753"/>
	<path id="path9143" fill="none" stroke="#FFFFFF" stroke-width="1.175" stroke-linecap="round" stroke-linejoin="round" d="
		M247.091,273.088l4.045,97.463"/>
	<path id="path9145" fill="none" stroke="#FFFFFF" stroke-width="1.175" stroke-linecap="round" stroke-linejoin="round" d="
		M424.436,412.046l-0.189,0.092l-0.281-0.848l-4.986,69.811"/>
	<path id="path9147" fill="none" stroke="#FFFFFF" stroke-width="1.175" stroke-linecap="round" stroke-linejoin="round" d="
		M542.318,483.831l-22.391-15.242h-1.221l0.471-1.131l0.652-0.281l0.941-1.41l-0.184-0.66l-0.941-0.473l0.094-1.221"/>
	<path id="path9149" fill="none" stroke="#FFFFFF" stroke-width="1.175" stroke-linecap="round" stroke-linejoin="round" d="
		M519.74,463.413l0.09-0.562l-1.031-1.41l0.469-1.129l-0.279-0.191l0.469-2.912l-0.469-0.191"/>
	<path id="path9151" fill="none" stroke="#FFFFFF" stroke-width="1.175" stroke-linecap="round" stroke-linejoin="round" d="
		M518.988,457.017l-0.189-0.85l0.379-0.561l-0.941-0.098l-0.189-0.941h-0.471"/>
	<path id="path9153" fill="none" stroke="#FFFFFF" stroke-width="1.175" stroke-linecap="round" stroke-linejoin="round" d="
		M517.576,454.567l-2.162-1.504l-1.602,0.662l-0.752-0.281l0.471,0.371l-0.471,0.281l-0.658-1.123l-0.66,0.182l-0.658-0.279
		l-0.754,0.85"/>
	<path id="path9155" fill="none" stroke="#FFFFFF" stroke-width="1.175" stroke-linecap="round" stroke-linejoin="round" d="
		M510.33,453.726l-0.09,0.561l-0.662,0.381l-0.279-0.381l-1.98-0.279l-0.281-0.662l-1.129,1.693l-1.314-0.652l-0.096,0.561
		l-0.373-0.189"/>
	<path id="path9157" fill="none" stroke="#FFFFFF" stroke-width="1.175" stroke-linecap="round" stroke-linejoin="round" d="
		M504.125,454.757l-0.66-0.564l-0.66,0.193l-0.283-0.57h-0.75l-0.189-0.66l-0.66,0.189l-0.85-0.842v-0.471h-0.652"/>
	<path id="path9159" fill="none" stroke="#FFFFFF" stroke-width="1.175" stroke-linecap="round" stroke-linejoin="round" d="
		M499.42,452.032l-0.287,0.281l-0.562-0.658l-0.189,0.561l-0.842-0.561l-1.039,1.408l-0.373-0.469l-0.568,0.281l-0.281-0.473"/>
	<path id="path9161" fill="none" stroke="#FFFFFF" stroke-width="1.175" stroke-linecap="round" stroke-linejoin="round" d="
		M495.277,452.403l-0.189-0.188l-1.131,0.379v-0.379l-0.652-0.094l0.09-0.279l-0.658,0.279l-0.752-0.561l-0.85,0.281l-0.371-0.85"/>
	<path id="path9163" fill="none" stroke="#FFFFFF" stroke-width="1.175" stroke-linecap="round" stroke-linejoin="round" d="
		M490.764,450.993l-0.941-0.281l-0.941,0.471l-0.379-0.561l-0.75-0.191l-0.281-0.566h-0.281l-0.66-0.752l0.092-0.373l-0.373,0.184
		l-0.379-1.123l-0.85-0.1"/>
	<path id="path9165" fill="none" stroke="#FFFFFF" stroke-width="1.175" stroke-linecap="round" stroke-linejoin="round" d="
		M485.02,447.7l-2.162,0.752l-1.223-0.371l-0.189-0.381l-1.312,0.1l-0.379-0.473l-0.752,0.094l-1.508,0.379l-0.373,1.689"/>
	<path id="path9167" fill="none" stroke="#FFFFFF" stroke-width="1.175" stroke-linecap="round" stroke-linejoin="round" d="
		M477.121,449.489l-0.471,0.473l0.66,1.5l-0.568,0.1l-1.131-0.471l-0.562,0.652"/>
	<path id="path9169" fill="none" stroke="#FFFFFF" stroke-width="1.175" stroke-linecap="round" stroke-linejoin="round" d="
		M475.049,451.743l-0.75,0.473l-0.752-0.373v-0.469l-0.471,0.088l0.092-0.561l-0.471,0.189l-0.189-0.469l-0.279,0.469v-0.756h-0.473
		l-0.188-0.471l-0.66-0.375l-0.092-0.566"/>
	<path id="path9171" fill="none" stroke="#FFFFFF" stroke-width="1.175" stroke-linecap="round" stroke-linejoin="round" d="
		M470.816,448.923l-1.223-1.123l0.092-0.76l-0.373-0.471"/>
	<path id="path9173" fill="none" stroke="#FFFFFF" stroke-width="1.175" stroke-linecap="round" stroke-linejoin="round" d="
		M469.312,446.569l0.092-0.652l-0.379-0.469l-0.75-0.291l0.098-0.279l-0.471,0.191l-0.66-1.223l-1.039-0.85l-0.281-0.844
		l-0.842-0.848l-0.568,0.189"/>
	<path id="path9175" fill="none" stroke="#FFFFFF" stroke-width="1.175" stroke-linecap="round" stroke-linejoin="round" d="
		M464.512,441.495l-0.281-1.133l-1.504-0.469l-0.566-0.752l-0.752-0.279l0.092-0.57h-0.752l-0.281-0.471l-0.66,0.471l-1.031-1.031"
		/>
	<path id="path9177" fill="none" stroke="#FFFFFF" stroke-width="1.175" stroke-linecap="round" stroke-linejoin="round" d="
		M458.775,437.261l0.471-1.039l-0.281-0.752l0.281-0.371l-1.6-0.098l-0.191-0.564h-0.752l-0.09-0.939l-0.568-0.752v-1.699"/>
	<path id="path9179" fill="none" stroke="#FFFFFF" stroke-width="1.175" stroke-linecap="round" stroke-linejoin="round" d="
		M456.045,431.046l-0.092-0.752l0.279-0.09"/>
	<path id="path9181" fill="none" stroke="#FFFFFF" stroke-width="1.175" stroke-linecap="round" stroke-linejoin="round" d="
		M456.232,430.204l-0.092-1.039l0.562-0.652v-0.941l-1.031-0.098l-0.379-0.373l0.379-0.287h-0.66l-0.098-0.471l-0.752-0.281v-0.281
		l-0.189,0.281l-0.281-0.471l-0.281,0.189l0.092-0.379l-0.281,0.289l-0.281-0.381l-0.279,0.381l-0.189-0.289v0.289l-0.562-0.57"/>
	<path id="path9183" fill="none" stroke="#FFFFFF" stroke-width="1.175" stroke-linecap="round" stroke-linejoin="round" d="
		M451.908,425.12h-0.287l-0.092,0.379l-0.66-0.848l-0.561,0.469l-0.381-0.279l0.189-0.66l-1.129-0.66l0.379-0.654l-0.471,0.184
		l0.092,0.289"/>
	<path id="path9185" fill="none" stroke="#FFFFFF" stroke-width="1.175" stroke-linecap="round" stroke-linejoin="round" d="
		M448.988,423.339l-0.471-0.1v0.469l-0.752-0.188l-0.189,0.939l0.281,0.381l-0.471,0.09l0.189,0.76l-0.279,0.281l-0.191-0.381
		l-0.66,0.1l0.379,0.652l-0.379,0.287l-1.691-0.85l0.379-1.32l-0.66,0.1l0.191-0.57l-0.381-0.09l0.098-0.85"/>
	<path id="path9187" fill="none" stroke="#FFFFFF" stroke-width="1.175" stroke-linecap="round" stroke-linejoin="round" d="
		M444.381,423.05l-1.229-1.031l0.473-0.092l-0.283-0.098l0.283-0.373h-0.473l0.379-0.285l-0.469-0.186l0.09-1.229l0.76-1.033
		l-1.602-0.279l0.092-0.471l-0.752,0.092l0.189-1.693l-0.281-0.471l-0.758-0.188"/>
	<path id="path9189" fill="none" stroke="#FFFFFF" stroke-width="1.175" stroke-linecap="round" stroke-linejoin="round" d="
		M440.801,415.714l-0.182-0.471l-0.471,0.471l-0.471-0.092l-0.098-0.752l-0.66-0.1l0.189-0.471l-0.373,0.1l0.092,0.371l-0.561-0.279
		l-0.189,0.379l-0.379-0.285l-0.191,0.285l-0.371-0.471l-0.381,0.371l-1.971-0.842l-0.281,0.371l-0.189-0.371l-1.039,0.371
		l-0.184,0.57l-0.568-0.1l0.281,0.57"/>
	<path id="path9191" fill="none" stroke="#FFFFFF" stroke-width="1.175" stroke-linecap="round" stroke-linejoin="round" d="
		M432.805,415.341l-0.281,0.281l-0.752-0.189l-0.379,0.379l-0.092-1.041l-0.75,0.191l-1.131-1.131l-0.562,0.469v-0.469l-0.85-0.562
		l-0.188,0.092v-0.371l-0.562-0.098l-0.281,0.469l-0.189-0.279l-0.281,0.09V412.7l-1.51,0.1l-0.092-0.473l-0.188,0.373l-0.281-0.654
		"/>
	<path id="path9195" fill="none" stroke="#FFFFFF" stroke-width="1.175" stroke-linecap="round" stroke-linejoin="round" d="
		M429.891,326.054l-5.455,85.992"/>
</g>
<g>
</g>
<g>
</g>
<g>
</g>
<g>
</g>
<g>
</g>
<g>
</g>
</svg>
