<?xml version="1.0" encoding="utf-8"?>
<!-- Generator: Adobe Illustrator 16.0.0, SVG Export Plug-In . SVG Version: 6.00 Build 0)  -->
<!DOCTYPE svg PUBLIC "-//W3C//DTD SVG 1.1//EN" "http://www.w3.org/Graphics/SVG/1.1/DTD/svg11.dtd">
<svg version="1.1" id="Layer_1" xmlns="http://www.w3.org/2000/svg" xmlns:xlink="http://www.w3.org/1999/xlink" x="0px" y="0px"
	 width="555.287px" height="352.301px" viewBox="0 0 555.287 352.301" enable-background="new 0 0 555.287 352.301"
	 xml:space="preserve">
<g>
	<defs>
		<rect id="SVGID_1_" width="555.287" height="352.301"/>
	</defs>
	<clipPath id="SVGID_2_">
		<use xlink:href="#SVGID_1_"  overflow="visible"/>
	</clipPath>
	<g clip-path="url(#SVGID_2_)">
		<defs>
			<rect id="SVGID_3_" width="555.287" height="352.301"/>
		</defs>
		<clipPath id="SVGID_4_">
			<use xlink:href="#SVGID_3_"  overflow="visible"/>
		</clipPath>
		<g opacity="0.9" clip-path="url(#SVGID_4_)">
			<g>
				<defs>
					<rect id="SVGID_5_" x="-1" y="320.252" width="28.932" height="41.049"/>
				</defs>
				<clipPath id="SVGID_6_">
					<use xlink:href="#SVGID_5_"  overflow="visible"/>
				</clipPath>
				<path clip-path="url(#SVGID_6_)" fill="#174993" d="M11.679,329.44c4.288,1.037,9.253,3.888,9.253,13.218
					c0,9.331-9.93,11.404-13.541,8.294c-3.61-3.109-9.478-7.774-6.641-14.514C2.716,331.771,7.391,328.403,11.679,329.44"/>
			</g>
		</g>
		<g clip-path="url(#SVGID_4_)">
			<g>
				<defs>
					<rect id="SVGID_7_" x="514.625" y="151.114" width="38.514" height="34.27"/>
				</defs>
				<clipPath id="SVGID_8_">
					<use xlink:href="#SVGID_7_"  overflow="visible"/>
				</clipPath>
				<path clip-path="url(#SVGID_8_)" fill="#9ED5E6" d="M542.919,165.017c0,0-0.39,6.719-6.84,6.971
					c-6.45,0.251-8.061-4.213-7.988-7.026c0.073-2.812,4.178-7.536,10.561-4.854C543.122,161.301,542.919,165.017,542.919,165.017"
					/>
			</g>
		</g>
		<g clip-path="url(#SVGID_4_)">
			<g>
				<defs>
					<rect id="SVGID_9_" x="369.309" y="144.296" width="114.765" height="105.519"/>
				</defs>
				<clipPath id="SVGID_10_">
					<use xlink:href="#SVGID_9_"  overflow="visible"/>
				</clipPath>
				<path clip-path="url(#SVGID_10_)" fill="#D41F6C" d="M386.311,210.104c0,0-4.213-35.725,29.551-43.01
					c33.764-7.287,46.424,14.725,48.663,29.594s-14.985,43.521-51.134,35.307C388.712,229.848,386.311,210.104,386.311,210.104"/>
			</g>
		</g>
		<g clip-path="url(#SVGID_4_)">
			<g>
				<defs>
					<rect id="SVGID_11_" x="506.723" y="19.097" width="57.564" height="46.471"/>
				</defs>
				<clipPath id="SVGID_12_">
					<use xlink:href="#SVGID_11_"  overflow="visible"/>
				</clipPath>
				<path clip-path="url(#SVGID_12_)" fill="#FABAA6" d="M538.737,26.097c-16.018,0-20.911,9.125-22.69,17.006
					s4.002,16.474,12.012,20.086c2.133,0.961,4.145,1.379,6.042,1.379c8.388,0,14.519-8.173,18.872-13.584
					C558.312,44.348,554.753,26.097,538.737,26.097"/>
			</g>
		</g>
		<g clip-path="url(#SVGID_4_)">
			<g>
				<defs>
					<rect id="SVGID_13_" x="153.209" y="-7" width="285.708" height="264.494"/>
				</defs>
				<clipPath id="SVGID_14_">
					<use xlink:href="#SVGID_13_"  overflow="visible"/>
				</clipPath>
				<path clip-path="url(#SVGID_14_)" fill="#3BA1BC" d="M206.056,35.322c30.072-15.221,62.825-27.644,105.177-34.156
					c22.022-2.344,58.123-5.048,95.412,34.156c37.29,39.203,25.486,104.016-5.316,159.137
					c-30.804,55.12-75.579,63.519-97.878,61.844c-22.301-1.676-77.525-1.401-126.069-78.883
					C141.825,107.277,175.984,50.541,206.056,35.322"/>
			</g>
		</g>
		<path clip-path="url(#SVGID_4_)" fill="#FFFFFF" d="M364.019,163.966c0.331,0.315,1.556,1.291,3.641,1.291
			c2.333,0,3.807-1.572,3.807-3.277c0-2.135-1.854-3.094-3.459-3.74c-1.341-0.546-1.952-1.075-1.952-1.853
			c0-0.53,0.513-1.159,1.456-1.159c0.909,0,2.168,0.828,2.3,0.911c0.199,0.132,0.447,0,0.579-0.199l0.629-0.943
			c0.116-0.166,0.065-0.447-0.1-0.546c-0.331-0.249-1.621-1.109-3.31-1.109c-2.631,0-3.723,1.704-3.723,3.177
			c0,1.953,1.555,2.946,3.11,3.575c1.391,0.562,2.103,1.142,2.103,1.986c0,0.711-0.646,1.274-1.506,1.274
			c-1.076,0-2.416-0.977-2.499-1.026c-0.149-0.116-0.431-0.116-0.563,0.116l-0.596,1.026
			C363.786,163.734,363.869,163.817,364.019,163.966 M354.603,158.786v-3.293h2.698c0.877,0,1.638,0.728,1.638,1.605
			c0,0.927-0.761,1.688-1.638,1.688H354.603z M352.435,164.777c0,0.165,0.133,0.314,0.314,0.314h1.522
			c0.166,0,0.314-0.149,0.314-0.314v-4.22h1.838l2.2,4.385c0.033,0.067,0.116,0.149,0.265,0.149h1.737
			c0.281,0,0.397-0.264,0.281-0.479l-2.267-4.204c1.439-0.579,2.449-1.82,2.449-3.343c0-1.969-1.621-3.558-3.607-3.558h-4.733
			c-0.182,0-0.314,0.149-0.314,0.315V164.777z M341.381,164.777c0,0.165,0.132,0.314,0.314,0.314h6.735
			c0.182,0,0.313-0.149,0.313-0.314v-1.357c0-0.165-0.132-0.314-0.313-0.314h-4.899v-2.896h4.088c0.165,0,0.314-0.133,0.314-0.315
			v-1.373c0-0.166-0.149-0.315-0.314-0.315h-4.088v-2.714h4.899c0.182,0,0.313-0.149,0.313-0.314v-1.357
			c0-0.166-0.132-0.315-0.313-0.315h-6.735c-0.183,0-0.314,0.149-0.314,0.315V164.777z M334.877,164.777
			c0,0.165,0.149,0.314,0.314,0.314h1.539c0.166,0,0.314-0.149,0.314-0.314v-10.955c0-0.166-0.148-0.315-0.314-0.315h-1.539
			c-0.165,0-0.314,0.149-0.314,0.315V164.777z M323.476,163.072v-7.562h1.887c2.151,0,3.723,1.621,3.723,3.773
			c0,2.168-1.571,3.789-3.723,3.789H323.476z M321.341,164.777c0,0.165,0.133,0.314,0.298,0.314h3.922
			c3.193,0,5.809-2.598,5.809-5.808c0-3.178-2.615-5.776-5.809-5.776h-3.922c-0.165,0-0.298,0.149-0.298,0.315V164.777z
			 M311.66,164.777c0,0.165,0.132,0.314,0.314,0.314h6.057c0.182,0,0.314-0.149,0.314-0.314v-1.357c0-0.165-0.133-0.314-0.314-0.314
			h-4.22v-9.284c0-0.166-0.149-0.315-0.314-0.315h-1.522c-0.183,0-0.314,0.149-0.314,0.315V164.777z M298.586,159.316
			c0-2.085,1.705-3.823,3.79-3.823s3.807,1.738,3.807,3.823s-1.722,3.79-3.807,3.79S298.586,161.401,298.586,159.316
			 M296.436,159.316c0,3.31,2.631,5.941,5.94,5.941c3.311,0,5.958-2.631,5.958-5.941s-2.647-5.974-5.958-5.974
			C299.066,153.342,296.436,156.006,296.436,159.316 M286.374,163.966c0.331,0.315,1.556,1.291,3.642,1.291
			c2.333,0,3.806-1.572,3.806-3.277c0-2.135-1.854-3.094-3.459-3.74c-1.34-0.546-1.953-1.075-1.953-1.853
			c0-0.53,0.514-1.159,1.457-1.159c0.91,0,2.167,0.828,2.3,0.911c0.198,0.132,0.447,0,0.579-0.199l0.629-0.943
			c0.116-0.166,0.066-0.447-0.099-0.546c-0.331-0.249-1.622-1.109-3.31-1.109c-2.632,0-3.725,1.704-3.725,3.177
			c0,1.953,1.557,2.946,3.112,3.575c1.39,0.562,2.101,1.142,2.101,1.986c0,0.711-0.645,1.274-1.506,1.274
			c-1.075,0-2.416-0.977-2.499-1.026c-0.147-0.116-0.43-0.116-0.562,0.116l-0.597,1.026
			C286.143,163.734,286.226,163.817,286.374,163.966 M273.565,164.777c0,0.165,0.133,0.314,0.315,0.314h1.522
			c0.166,0,0.315-0.149,0.315-0.314v-5.279l3.823-5.511c0.133-0.215,0-0.48-0.265-0.48h-1.705c-0.132,0-0.215,0.083-0.265,0.149
			l-2.647,3.806l-2.648-3.806c-0.05-0.066-0.132-0.149-0.265-0.149h-1.688c-0.265,0-0.397,0.265-0.265,0.48l3.773,5.527V164.777z
			 M262.479,164.777c0,0.165,0.133,0.314,0.315,0.314h6.056c0.182,0,0.315-0.149,0.315-0.314v-1.357
			c0-0.165-0.133-0.314-0.315-0.314h-4.22v-9.284c0-0.166-0.148-0.315-0.314-0.315h-1.522c-0.182,0-0.315,0.149-0.315,0.315V164.777
			z M252.797,164.777c0,0.165,0.133,0.314,0.315,0.314h6.057c0.182,0,0.314-0.149,0.314-0.314v-1.357
			c0-0.165-0.132-0.314-0.314-0.314h-4.22v-9.284c0-0.166-0.149-0.315-0.315-0.315h-1.522c-0.182,0-0.315,0.149-0.315,0.315V164.777
			z M246.294,164.777c0,0.165,0.149,0.314,0.315,0.314h1.539c0.165,0,0.314-0.149,0.314-0.314v-10.955
			c0-0.166-0.149-0.315-0.314-0.315h-1.539c-0.166,0-0.315,0.149-0.315,0.315V164.777z M232.246,164.777
			c0,0.165,0.148,0.314,0.314,0.314h1.539c0.182,0,0.314-0.149,0.314-0.314v-4.567h5.395v4.567c0,0.165,0.133,0.314,0.315,0.314
			h1.522c0.166,0,0.315-0.149,0.315-0.314v-10.955c0-0.166-0.149-0.315-0.315-0.315h-1.522c-0.182,0-0.315,0.149-0.315,0.315v4.385
			h-5.395v-4.385c0-0.166-0.132-0.315-0.314-0.315h-1.539c-0.166,0-0.314,0.149-0.314,0.315V164.777z M223.606,158.869v-3.326h1.92
			c0.927,0,1.705,0.695,1.705,1.605c0,0.976-0.778,1.721-1.705,1.721H223.606z M221.456,164.777c0,0.165,0.132,0.314,0.314,0.314
			h1.523c0.165,0,0.314-0.149,0.314-0.314v-3.889h2.069c2.019,0,3.69-1.671,3.69-3.723c0-2.003-1.671-3.658-3.707-3.658h-3.889
			c-0.182,0-0.314,0.149-0.314,0.315V164.777z"/>
		<path clip-path="url(#SVGID_4_)" fill="#FFFFFF" d="M352.203,140.454c0,0.165,0.133,0.314,0.314,0.314h1.522
			c0.166,0,0.314-0.149,0.314-0.314v-5.279l3.823-5.511c0.132-0.215,0-0.48-0.265-0.48h-1.705c-0.132,0-0.215,0.083-0.265,0.149
			l-2.647,3.806l-2.648-3.806c-0.05-0.066-0.133-0.149-0.265-0.149h-1.688c-0.266,0-0.397,0.265-0.266,0.48l3.773,5.527V140.454z
			 M333.951,140.388c-0.034,0.231,0.099,0.38,0.313,0.38h1.489c0.149,0,0.282-0.132,0.298-0.248l0.96-6.272h0.05l2.93,6.504
			c0.05,0.099,0.132,0.182,0.28,0.182h0.299c0.148,0,0.248-0.083,0.28-0.182l2.896-6.504h0.05l0.977,6.272
			c0.033,0.116,0.165,0.248,0.314,0.248h1.506c0.215,0,0.347-0.149,0.298-0.38l-1.953-11.121c-0.017-0.133-0.115-0.248-0.298-0.248
			h-0.265c-0.149,0-0.231,0.066-0.281,0.165l-3.641,7.811h-0.049l-3.642-7.811c-0.05-0.099-0.148-0.165-0.281-0.165h-0.265
			c-0.182,0-0.282,0.115-0.298,0.248L333.951,140.388z M324.732,136.813l1.622-3.641h0.051l1.654,3.641H324.732z M321.191,140.768
			h1.44c0.264,0,0.413-0.165,0.479-0.331l0.811-1.787h4.948l0.811,1.787c0.116,0.232,0.232,0.331,0.48,0.331h1.439
			c0.248,0,0.381-0.215,0.281-0.43l-5.097-11.137c-0.049-0.1-0.116-0.182-0.281-0.182h-0.166c-0.149,0-0.231,0.082-0.281,0.182
			l-5.146,11.137C320.811,140.553,320.944,140.768,321.191,140.768 M311.362,140.454c0,0.165,0.132,0.314,0.313,0.314h6.736
			c0.182,0,0.313-0.149,0.313-0.314v-1.357c0-0.166-0.132-0.315-0.313-0.315h-4.899v-2.896h4.088c0.165,0,0.314-0.132,0.314-0.314
			v-1.374c0-0.165-0.149-0.314-0.314-0.314h-4.088v-2.714h4.899c0.182,0,0.313-0.149,0.313-0.315v-1.357
			c0-0.165-0.132-0.314-0.313-0.314h-6.736c-0.182,0-0.313,0.149-0.313,0.314V140.454z M301.185,134.463v-3.293h2.697
			c0.878,0,1.639,0.728,1.639,1.605c0,0.927-0.761,1.688-1.639,1.688H301.185z M299.017,140.454c0,0.165,0.132,0.314,0.314,0.314
			h1.522c0.165,0,0.314-0.149,0.314-0.314v-4.22h1.837l2.201,4.385c0.033,0.066,0.116,0.149,0.265,0.149h1.738
			c0.281,0,0.396-0.265,0.281-0.48l-2.268-4.203c1.44-0.579,2.449-1.82,2.449-3.343c0-1.969-1.622-3.558-3.608-3.558h-4.732
			c-0.183,0-0.314,0.149-0.314,0.314V140.454z M285.53,134.993c0,3.309,2.665,5.941,5.974,5.941c1.473,0,2.896-0.513,4.021-1.606
			c0.115-0.115,0.149-0.331,0.017-0.446l-1.026-1.059c-0.099-0.1-0.28-0.116-0.414,0c-0.694,0.562-1.539,0.943-2.53,0.943
			c-2.119,0-3.707-1.754-3.707-3.823c0-2.085,1.571-3.856,3.689-3.856c0.927,0,1.854,0.364,2.548,0.977
			c0.134,0.132,0.298,0.132,0.414,0l1.01-1.043c0.133-0.132,0.133-0.331-0.017-0.463c-1.125-1.01-2.333-1.539-4.005-1.539
			C288.195,129.019,285.53,131.683,285.53,134.993 M267.674,140.454c0,0.165,0.149,0.314,0.315,0.314h1.539
			c0.182,0,0.314-0.149,0.314-0.314v-4.568h5.395v4.568c0,0.165,0.133,0.314,0.315,0.314h1.522c0.166,0,0.314-0.149,0.314-0.314
			v-10.956c0-0.165-0.148-0.314-0.314-0.314h-1.522c-0.182,0-0.315,0.149-0.315,0.314v4.386h-5.395v-4.386
			c0-0.165-0.132-0.314-0.314-0.314h-1.539c-0.166,0-0.315,0.149-0.315,0.314V140.454z M259.615,140.454
			c0,0.165,0.149,0.314,0.315,0.314h1.539c0.165,0,0.314-0.149,0.314-0.314v-9.284h2.532c0.182,0,0.315-0.149,0.315-0.315v-1.357
			c0-0.165-0.133-0.314-0.315-0.314h-7.231c-0.182,0-0.315,0.149-0.315,0.314v1.357c0,0.166,0.133,0.315,0.315,0.315h2.531V140.454z
			 M251.557,140.454c0,0.165,0.149,0.314,0.314,0.314h1.539c0.166,0,0.315-0.149,0.315-0.314v-10.956
			c0-0.165-0.149-0.314-0.315-0.314h-1.539c-0.165,0-0.314,0.149-0.314,0.314V140.454z M237.507,140.702
			c0.033,0.132,0.165,0.232,0.298,0.232h0.265c0.165,0,0.231-0.083,0.281-0.182l2.929-7.497h0.083l2.962,7.497
			c0.033,0.099,0.132,0.182,0.281,0.182h0.265c0.133,0,0.265-0.1,0.298-0.232l3.128-11.121c0.066-0.231-0.066-0.397-0.298-0.397
			h-1.523c-0.132,0-0.264,0.116-0.297,0.232l-1.688,6.603h-0.067l-2.647-6.818c-0.034-0.1-0.116-0.182-0.282-0.182h-0.298
			c-0.165,0-0.248,0.082-0.281,0.182l-2.631,6.818h-0.066l-1.721-6.603c-0.034-0.116-0.166-0.232-0.298-0.232h-1.523
			c-0.232,0-0.364,0.166-0.298,0.397L237.507,140.702z"/>
		<path clip-path="url(#SVGID_4_)" fill="#FFFFFF" d="M394.271,111.717c-0.979-0.576-1.952-1.152-2.918-1.728
			c0.42-0.653,1.377-1.75,2.871-3.291c1.276-1.323,2.132-2.467,2.568-3.432c-0.031-0.42-0.35-0.63-0.957-0.63
			c-0.218,0-0.42,0.039-0.607,0.117c-0.685,0.809-1.377,1.61-2.078,2.404c-0.824,0.95-1.556,1.712-2.193,2.288
			c0.031-1.245-0.07-2.926-0.303-5.043c-0.017-0.186-0.134-0.322-0.352-0.408c-0.218-0.085-0.428-0.159-0.63-0.222
			c-0.202,0.032-0.397,0.063-0.584,0.094c-0.249,0.062-0.358,0.186-0.326,0.373c0.217,1.214,0.326,2.646,0.326,4.295
			c0,0.545-0.015,1.358-0.046,2.44c-0.032,1.082-0.047,1.895-0.047,2.439c0,1.51,0.093,2.825,0.279,3.946
			c0.062,0.404,0.297,0.677,0.701,0.817c0.046,0.108,0.163,0.163,0.351,0.163c0.171,0,0.303-0.031,0.396-0.093
			c0.326-0.14,0.49-0.397,0.49-0.771c0-0.109-0.016-0.288-0.047-0.537c-0.031-0.248-0.047-0.435-0.047-0.56
			c-0.031-1.074-0.07-1.898-0.116-2.474c2.194,1.307,3.812,2.287,4.855,2.941c0.094,0.062,0.179,0.093,0.257,0.093
			s0.19-0.038,0.339-0.116c0.146-0.078,0.268-0.117,0.361-0.117c0.047,0,0.102,0.008,0.163,0.023c0.124-0.373,0.188-0.607,0.188-0.7
			c0-0.14-0.047-0.249-0.14-0.327C396.28,113.062,395.361,112.401,394.271,111.717 M386.825,111.415
			c-0.141-0.25-0.365-0.375-0.678-0.375c-0.093,0-0.236,0.016-0.431,0.047c-0.195,0.031-0.331,0.046-0.409,0.046
			c-0.342,0.172-0.895,0.522-1.657,1.051c-0.7,0.467-1.269,0.794-1.704,0.98c-0.031-1.276,0.03-3.186,0.187-5.731
			c0.156-2.544,0.21-4.455,0.164-5.731c-0.094-0.435-0.436-0.654-1.028-0.654c-0.311,0-0.567,0.102-0.77,0.304
			c0.062,0.702,0.093,1.45,0.093,2.245c0,1.153-0.116,3.032-0.35,5.635c-0.202,2.447-0.288,4.357-0.257,5.728
			c0.016,0.016,0.163,0.21,0.443,0.585c0.188,0.28,0.39,0.421,0.607,0.421c0.093,0,0.187-0.024,0.279-0.071
			c0.81-0.359,1.735-0.915,2.778-1.665c1.79-1.282,2.7-1.931,2.731-1.947C387.012,112.049,387.012,111.76,386.825,111.415
			 M374.873,110.76c-0.638,0.856-1.299,1.284-1.984,1.284c-0.296,0-0.662-0.319-1.097-0.957c-0.312-0.467-0.467-1.035-0.467-1.705
			c0-0.98,0.271-1.704,0.816-2.171c0.031-0.031,0.07-0.046,0.117-0.046c0.062,0,0.194,0.07,0.397,0.21
			c0.201,0.14,0.356,0.187,0.467,0.14c0.171-0.062,0.412-0.272,0.723-0.63c0.28-0.312,0.515-0.467,0.701-0.467
			c0.062,0,0.132,0.015,0.21,0.046c0.498,0.219,0.801,0.896,0.91,2.031C375.745,109.196,375.479,109.951,374.873,110.76
			 M377.768,108.799c0-0.747-0.271-1.642-0.816-2.685c-0.312-0.591-0.84-1.011-1.587-1.26c-0.95-0.311-1.533-0.561-1.751-0.747
			c-0.219-0.187-0.452-0.281-0.701-0.281c-0.436,0-0.896,0.242-1.377,0.724c-0.42,0.405-0.778,0.887-1.074,1.448
			c-0.686,1.323-1.027,2.56-1.027,3.711c0,1.043,0.305,1.891,0.91,2.545c0.903,0.965,1.798,1.447,2.686,1.447
			c0.201,0,0.404-0.023,0.606-0.07c1.681-0.389,2.98-1.618,3.899-3.688C377.689,109.601,377.768,109.219,377.768,108.799
			 M366.096,100.722c-0.312,0-0.529,0.109-0.654,0.326c-0.436,0.701-0.832,1.588-1.189,2.662c-0.312,0.918-0.623,1.844-0.934,2.778
			c-0.344-0.794-0.693-1.588-1.052-2.381c-0.42-0.934-0.825-1.697-1.214-2.288c-0.56-0.171-0.855-0.257-0.887-0.257
			c-0.187,0-0.377,0.074-0.572,0.222c-0.193,0.148-0.291,0.307-0.291,0.478c0,0.078,0.023,0.156,0.07,0.234
			c0.777,1.37,1.719,3.533,2.824,6.49c-0.482,1.245-0.966,2.49-1.447,3.735c-0.529,1.463-0.817,2.762-0.864,3.898
			c-0.015,0.234,0.129,0.456,0.433,0.666s0.587,0.299,0.852,0.268c0.529,0,0.817-0.272,0.864-0.817c0.015-0.14,0.015-0.467,0-0.98
			c0-0.374,0.039-0.685,0.116-0.934c0.389-1.245,1.269-3.51,2.639-6.794c1.167-2.816,1.968-5.104,2.404-6.863
			C366.896,100.87,366.531,100.722,366.096,100.722 M349.008,100.348c-0.327-0.358-0.817-0.537-1.471-0.537
			c-0.342,0-0.693,0.086-1.05,0.257c-0.779,0.374-1.378,0.989-1.799,1.844c-0.373,0.747-0.56,1.596-0.56,2.545
			c0,1.152,0.502,2.688,1.506,4.61c1.003,1.923,1.505,3.389,1.505,4.401c0,0.716-0.163,1.416-0.489,2.101
			c-0.078,0.171-0.233,0.264-0.468,0.28c-0.232,0.015-0.381,0.062-0.442,0.14c-0.234,0.264-0.352,0.49-0.352,0.677
			c0,0.311,0.234,0.568,0.701,0.77c0.124,0.047,0.257,0.07,0.397,0.07c0.356,0,0.762-0.163,1.214-0.49
			c0.56-0.42,0.91-0.763,1.05-1.027c0.42-0.794,0.63-1.618,0.63-2.475c0-1.042-0.373-2.311-1.12-3.805
			c-1.121-2.241-1.712-3.447-1.773-3.618c-0.141-0.389-0.21-0.809-0.21-1.261c0-1.214,0.42-2.241,1.26-3.081
			c0.094-0.094,0.187-0.14,0.279-0.14c0.017,0,0.133,0.031,0.351,0.093c0.141,0.047,0.272,0.039,0.396-0.023
			c0.452-0.234,0.678-0.506,0.678-0.817C349.241,100.69,349.163,100.52,349.008,100.348 M340.884,101.749
			c-0.42,0-0.716,0.187-0.887,0.56c-0.109,0.234-0.202,0.654-0.28,1.261c-0.078,0.607-0.172,1.019-0.28,1.237
			c-0.374,0.778-0.709,1.852-1.004,3.221c-0.374,1.806-0.623,2.911-0.747,3.315c-0.374,1.214-0.887,2.187-1.541,2.918
			c-0.249-0.918-0.389-1.54-0.42-1.867c-0.047-0.638-0.069-1.346-0.069-2.124c0-0.732,0.039-1.922,0.116-3.572
			c0.062-1.541,0.085-2.708,0.07-3.502c-0.172-0.093-0.347-0.183-0.526-0.268c-0.179-0.086-0.346-0.129-0.501-0.129
			c-0.746,0-1.12,0.483-1.12,1.448c0,1.12,0.008,1.603,0.022,1.447c-0.218,1.79-0.326,3.253-0.326,4.389
			c0,1.976,0.295,3.696,0.888,5.159c0.342,0.871,0.862,1.315,1.563,1.331c0.793,0.015,1.494-0.39,2.102-1.214
			c0.965-1.292,1.617-2.724,1.961-4.296c0.107-0.513,0.513-1.992,1.214-4.435c0.513-1.821,0.823-3.276,0.933-4.366
			C341.818,101.919,341.429,101.749,340.884,101.749 M328.208,110.76c-0.638,0.856-1.299,1.284-1.984,1.284
			c-0.296,0-0.662-0.319-1.097-0.957c-0.312-0.467-0.467-1.035-0.467-1.705c0-0.98,0.271-1.704,0.816-2.171
			c0.031-0.031,0.07-0.046,0.117-0.046c0.062,0,0.194,0.07,0.397,0.21c0.202,0.14,0.356,0.187,0.467,0.14
			c0.171-0.062,0.412-0.272,0.723-0.63c0.28-0.312,0.515-0.467,0.701-0.467c0.062,0,0.132,0.015,0.21,0.046
			c0.498,0.219,0.801,0.896,0.91,2.031C329.08,109.196,328.814,109.951,328.208,110.76 M331.103,108.799
			c0-0.747-0.271-1.642-0.816-2.685c-0.312-0.591-0.84-1.011-1.587-1.26c-0.95-0.311-1.533-0.561-1.751-0.747
			c-0.219-0.187-0.452-0.281-0.701-0.281c-0.436,0-0.896,0.242-1.377,0.724c-0.42,0.405-0.778,0.887-1.074,1.448
			c-0.685,1.323-1.027,2.56-1.027,3.711c0,1.043,0.305,1.891,0.911,2.545c0.902,0.965,1.797,1.447,2.685,1.447
			c0.201,0,0.404-0.023,0.606-0.07c1.682-0.389,2.98-1.618,3.899-3.688C331.025,109.601,331.103,109.219,331.103,108.799
			 M320.038,103.079c-0.017-0.031-0.017-0.14,0-0.326c0-0.156-0.023-0.234-0.07-0.234c-0.032,0-0.078,0.024-0.14,0.07
			c-0.296-0.171-0.592-0.257-0.888-0.257c-0.374,0-0.639,0.149-0.794,0.444c0.031,0.389,0.048,0.786,0.048,1.191
			c0,1.042-0.13,2.614-0.387,4.715c-0.256,2.101-0.385,3.681-0.385,4.739c0,0.607,0.031,1.183,0.094,1.728
			c0.062,0.544,0.429,0.832,1.098,0.863c0.467,0.016,0.77-0.194,0.909-0.63c-0.015-0.389-0.022-0.786-0.022-1.191
			c0-1.089,0.109-2.699,0.327-4.832c0.218-2.132,0.327-3.727,0.327-4.785c0-0.483-0.017-0.95-0.048-1.401
			C320.077,103.158,320.053,103.125,320.038,103.079 M315.533,100.395c-0.359-0.265-0.755-0.397-1.191-0.397
			c-1.012,0-1.984,0.56-2.918,1.681c-1.603,1.93-2.404,4.272-2.404,7.026c0,0.514,0.031,1.043,0.094,1.588
			c0.187,1.759,0.318,2.763,0.396,3.011c0.108,0.343,0.276,0.705,0.502,1.086s0.447,0.751,0.665,1.109
			c0.871,1.416,1.681,2.342,2.428,2.778c0.42,0.171,0.731,0.272,0.935,0.303c0.186,0.047,0.36-0.031,0.524-0.233
			c0.163-0.203,0.245-0.428,0.245-0.677s-0.125-0.444-0.374-0.584c-0.232-0.093-0.466-0.195-0.699-0.303
			c-0.561-0.327-1.035-0.872-1.425-1.634c-0.155-0.312-0.412-0.965-0.77-1.961c-0.437-1.214-0.654-2.506-0.654-3.876
			c0-2.91,0.871-5.283,2.615-7.12c0.171-0.186,0.622-0.35,1.354-0.49c0.561-0.109,0.841-0.373,0.841-0.794
			C315.696,100.644,315.641,100.473,315.533,100.395 M305.821,103.079c-0.016-0.031-0.016-0.14,0-0.326
			c0-0.156-0.023-0.234-0.07-0.234c-0.031,0-0.078,0.024-0.14,0.07c-0.297-0.171-0.592-0.257-0.888-0.257
			c-0.373,0-0.638,0.149-0.794,0.444c0.031,0.389,0.047,0.786,0.047,1.191c0,1.042-0.128,2.614-0.385,4.715
			s-0.385,3.681-0.385,4.739c0,0.607,0.031,1.183,0.093,1.728c0.062,0.544,0.428,0.832,1.097,0.863
			c0.468,0.016,0.771-0.194,0.911-0.63c-0.016-0.389-0.023-0.786-0.023-1.191c0-1.089,0.108-2.699,0.327-4.832
			c0.218-2.132,0.326-3.727,0.326-4.785c0-0.483-0.016-0.95-0.047-1.401C305.86,103.158,305.837,103.125,305.821,103.079
			 M301.059,111.415c-0.14-0.25-0.364-0.375-0.677-0.375c-0.093,0-0.237,0.016-0.431,0.047c-0.195,0.031-0.331,0.046-0.409,0.046
			c-0.342,0.172-0.896,0.522-1.657,1.051c-0.701,0.467-1.269,0.794-1.705,0.98c-0.031-1.276,0.031-3.186,0.188-5.731
			c0.155-2.544,0.21-4.455,0.164-5.731c-0.095-0.435-0.437-0.654-1.028-0.654c-0.312,0-0.568,0.102-0.771,0.304
			c0.062,0.702,0.094,1.45,0.094,2.245c0,1.153-0.116,3.032-0.351,5.635c-0.202,2.447-0.288,4.357-0.257,5.728
			c0.017,0.016,0.164,0.21,0.444,0.585c0.187,0.28,0.389,0.421,0.606,0.421c0.094,0,0.188-0.024,0.28-0.071
			c0.81-0.359,1.735-0.915,2.778-1.665c1.79-1.282,2.7-1.931,2.73-1.947C301.246,112.049,301.246,111.76,301.059,111.415
			 M292.259,103.009c0-0.077-0.032-0.202-0.094-0.373c-0.062-0.171-0.102-0.288-0.116-0.35c-0.561-0.327-1.051-0.49-1.471-0.49
			c-0.109,0-0.203,0.008-0.28,0.023c-0.763,0.187-1.526,0.381-2.288,0.583c-0.872,0.234-1.595,0.499-2.171,0.794
			c-0.498,0.203-0.996,0.405-1.494,0.607c-0.529,0.265-0.802,0.623-0.816,1.074c-0.017,0.483,0.411,0.809,1.283,0.98
			c-0.094,1.354-0.155,2.094-0.187,2.218c-0.031,0.125-0.16,0.245-0.385,0.362c-0.227,0.117-0.348,0.245-0.362,0.385
			c-0.047,0.28,0.147,0.568,0.584,0.864c-0.14,1.074-0.14,2.288,0,3.642c0.046,0.467,0.248,0.887,0.607,1.26
			c0.356,0.374,0.754,0.615,1.189,0.724c1.385,0.358,3.02,0.506,4.902,0.444c0.249-0.016,0.439-0.129,0.571-0.339
			c0.133-0.21,0.176-0.439,0.13-0.689c-0.141-0.747-0.429-1.073-0.864-0.98c-0.093,0-0.21,0.058-0.351,0.175
			c-0.14,0.117-0.272,0.175-0.396,0.175c-1.806,0.078-3.074-0.14-3.805-0.654c-0.125-0.264-0.188-0.622-0.188-1.073
			c0-0.669,0.148-1.58,0.444-2.732c0.435-0.171,1.019-0.264,1.751-0.28c0.871-0.015,1.47-0.062,1.797-0.14
			c0.187,0.016,0.342-0.047,0.467-0.187c0.188-0.202,0.295-0.311,0.327-0.327c0.108-0.062,0.163-0.147,0.163-0.256
			c0-0.094-0.109-0.296-0.327-0.607c-0.311-0.187-0.685-0.28-1.12-0.28c-0.233,0-0.6,0.039-1.097,0.116
			c-0.499,0.078-0.864,0.117-1.099,0.117c-0.325,0-0.614-0.047-0.862-0.14c0.062-1.401,0.163-2.303,0.303-2.708
			c0.576-0.233,1.424-0.506,2.545-0.817c1.12-0.311,1.968-0.584,2.544-0.817C292.204,103.234,292.259,103.134,292.259,103.009
			 M279.513,107.981c0,1.587-0.88,3.26-2.638,5.019c-0.047-2.91-0.016-5.665,0.093-8.264c1.525,0.747,2.358,1.611,2.498,2.591
			C279.497,107.545,279.513,107.764,279.513,107.981 M281.45,108.401c0-0.965-0.373-2-1.12-3.105
			c-0.234-0.342-0.537-0.669-0.911-0.98c-1.432-1.183-2.801-1.915-4.108-2.195c-0.203,0.016-0.405,0.039-0.607,0.07
			c-0.265,0.032-0.436,0.14-0.514,0.327c-0.031,0.078-0.046,0.156-0.046,0.234c0,0.171,0.101,0.358,0.303,0.56
			c0.327,0.342,0.498,0.522,0.514,0.537c0.077,0.84,0.116,1.766,0.116,2.778c0,0.763-0.031,1.899-0.093,3.408
			c-0.062,1.51-0.093,2.646-0.093,3.408c0,0.747,0.023,1.448,0.07,2.101c0.062,0.14,0.167,0.242,0.315,0.304
			c0.147,0.062,0.283,0.117,0.408,0.163c0.125,0.047,0.234,0.07,0.327,0.07c0.187,0,0.374-0.101,0.56-0.303
			c0.187-0.203,0.358-0.397,0.514-0.584c0.467-0.28,0.988-0.778,1.563-1.494c0.482-0.591,0.966-1.19,1.447-1.797
			c0.218-0.249,0.421-0.584,0.607-1.004c0.14-0.358,0.288-0.716,0.443-1.074C281.349,109.375,281.45,108.899,281.45,108.401
			 M261.818,110.76c-0.638,0.856-1.3,1.284-1.984,1.284c-0.296,0-0.662-0.319-1.098-0.957c-0.311-0.467-0.466-1.035-0.466-1.705
			c0-0.98,0.272-1.704,0.817-2.171c0.031-0.031,0.07-0.046,0.116-0.046c0.062,0,0.195,0.07,0.397,0.21
			c0.202,0.14,0.358,0.187,0.467,0.14c0.171-0.062,0.412-0.272,0.724-0.63c0.28-0.312,0.513-0.467,0.7-0.467
			c0.062,0,0.132,0.015,0.21,0.046c0.498,0.219,0.802,0.896,0.911,2.031C262.689,109.196,262.425,109.951,261.818,110.76
			 M264.713,108.799c0-0.747-0.273-1.642-0.817-2.685c-0.312-0.591-0.841-1.011-1.588-1.26c-0.949-0.311-1.533-0.561-1.751-0.747
			c-0.218-0.187-0.451-0.281-0.7-0.281c-0.436,0-0.895,0.242-1.377,0.724c-0.421,0.405-0.779,0.887-1.074,1.448
			c-0.685,1.323-1.027,2.56-1.027,3.711c0,1.043,0.303,1.891,0.91,2.545c0.903,0.965,1.798,1.447,2.685,1.447
			c0.202,0,0.404-0.023,0.607-0.07c1.68-0.389,2.98-1.618,3.898-3.688C264.635,109.601,264.713,109.219,264.713,108.799
			 M257.523,100.021c0.046-0.233-0.07-0.35-0.351-0.35c-0.373-0.047-0.84,0-1.4,0.14c-0.763,0.203-1.237,0.312-1.424,0.327
			c-0.639,0.171-1.307,0.257-2.008,0.257c-0.7,0-1.323-0.094-1.867-0.28c-0.67,0.361-1.681,0.612-3.035,0.753
			c-1.541,0.141-2.56,0.298-3.058,0.471c-0.109,0.125-0.164,0.243-0.164,0.353c0,0.016,0.094,0.228,0.28,0.635
			c0.483,0.408,1.106,0.612,1.868,0.612c0.327,0,0.918-0.062,1.774-0.186c0.747-0.109,1.331-0.148,1.751-0.117
			c0.015,1.12-0.047,2.747-0.187,4.879c-0.14,2.226-0.21,3.852-0.21,4.879c0,0.638,0.015,1.245,0.047,1.821
			c0.031,0.451,0.194,0.86,0.49,1.225c0.296,0.366,0.669,0.557,1.121,0.572c0.233,0.016,0.388-0.101,0.466-0.35
			c0.047-0.156,0.063-0.381,0.047-0.677c-0.031-0.949-0.047-1.914-0.047-2.895c0-2.583,0.156-5.812,0.467-9.688
			c2.506-0.404,4.264-0.731,5.276-0.98c0.389-0.093,0.654-0.42,0.794-0.98C258.153,100.161,257.943,100.021,257.523,100.021
			 M243.143,100.512c-0.047-0.016-0.195-0.055-0.444-0.117c-0.187-0.047-0.35-0.07-0.49-0.07c-0.405,0-0.63,0.156-0.677,0.467
			c-0.498,4.186-0.864,7.315-1.097,9.384c-0.576-1.058-1.214-2.606-1.915-4.645c-0.731-2.132-1.346-3.673-1.844-4.623
			c-0.513-0.42-0.903-0.614-1.167-0.583c-0.56,0-0.848,0.171-0.864,0.513c-0.031,0.405-0.195,2.491-0.49,6.257
			c-0.187,2.474-0.28,4.537-0.28,6.186c0,0.949,0.023,1.86,0.07,2.731c0.015,0.265,0.031,0.522,0.047,0.771
			c0.046,0.311,0.171,0.498,0.373,0.56c0.062,0.031,0.21,0.101,0.444,0.21c0.171,0.093,0.311,0.14,0.42,0.14
			c0.124,0,0.241-0.055,0.35-0.163c0.28-0.172,0.412-0.483,0.397-0.934c-0.062-1.23-0.093-2.436-0.093-3.618
			c0-2.459,0.132-4.801,0.396-7.027c0.031-0.218,0.101-0.327,0.21-0.327c0.047,0,0.086,0.047,0.117,0.14
			c1.479,4.155,2.716,7.206,3.712,9.151c0.327,0.654,0.731,0.981,1.214,0.981c0.249,0,0.47-0.094,0.665-0.281
			c0.195-0.186,0.284-0.404,0.269-0.653c-0.032-0.529-0.047-1.066-0.047-1.611c0-1.665,0.132-3.743,0.397-6.233
			c0.202-2.101,0.412-4.194,0.63-6.28C243.399,100.683,243.298,100.574,243.143,100.512 M230.653,103.079
			c-0.015-0.031-0.015-0.14,0-0.326c0-0.156-0.023-0.234-0.07-0.234c-0.031,0-0.078,0.024-0.14,0.07
			c-0.296-0.171-0.591-0.257-0.887-0.257c-0.373,0-0.638,0.149-0.794,0.444c0.031,0.389,0.047,0.786,0.047,1.191
			c0,1.042-0.128,2.614-0.385,4.715s-0.385,3.681-0.385,4.739c0,0.607,0.031,1.183,0.093,1.728c0.062,0.544,0.428,0.832,1.097,0.863
			c0.467,0.016,0.771-0.194,0.911-0.63c-0.016-0.389-0.024-0.786-0.024-1.191c0-1.089,0.109-2.699,0.327-4.832
			c0.218-2.132,0.327-3.727,0.327-4.785c0-0.483-0.016-0.95-0.047-1.401C230.692,103.158,230.669,103.125,230.653,103.079
			 M213.869,108.985c0.062-1.152,0.007-3.16-0.164-6.023c1.089,0.451,1.65,0.677,1.681,0.677c0.607,0.358,0.872,0.848,0.794,1.47
			C216.024,106.387,215.254,107.678,213.869,108.985 M218.071,105.296c0-0.591-0.164-1.12-0.49-1.587
			c-1.028-1.448-2.553-2.335-4.576-2.662c-0.732-0.108-1.214-0.124-1.447-0.046c-0.187,0-0.32,0.249-0.397,0.747
			c0.077,0.031,0.171,0.148,0.28,0.35s0.225,0.28,0.35,0.233c0.14,1.012,0.21,2.125,0.21,3.339c0,0.84-0.047,2.077-0.14,3.711
			c-0.093,1.635-0.14,2.864-0.14,3.689c0,1.245,0.078,2.373,0.233,3.385c0.031,0.202,0.179,0.373,0.444,0.513l0.654,0.351
			c0.498-0.53,0.747-1.323,0.747-2.382c0-0.28-0.024-0.719-0.07-1.318c-0.047-0.599-0.07-1.047-0.07-1.343
			c0-0.42,0.031-0.785,0.093-1.097c0.451-0.078,0.902-0.295,1.354-0.654l1.074-1.073c0.42-0.421,0.926-1.269,1.517-2.545
			C217.946,106.348,218.071,105.811,218.071,105.296 M208.033,103.079c-0.016-0.031-0.016-0.14,0-0.326
			c0-0.156-0.024-0.234-0.07-0.234c-0.032,0-0.078,0.024-0.14,0.07c-0.296-0.171-0.592-0.257-0.888-0.257
			c-0.373,0-0.638,0.149-0.793,0.444c0.031,0.389,0.046,0.786,0.046,1.191c0,1.042-0.128,2.614-0.385,4.715
			c-0.257,2.101-0.385,3.681-0.385,4.739c0,0.607,0.031,1.183,0.093,1.728c0.062,0.544,0.428,0.832,1.098,0.863
			c0.467,0.016,0.77-0.194,0.91-0.63c-0.016-0.389-0.023-0.786-0.023-1.191c0-1.089,0.108-2.699,0.327-4.832
			c0.217-2.132,0.326-3.727,0.326-4.785c0-0.483-0.015-0.95-0.046-1.401C208.071,103.158,208.048,103.125,208.033,103.079
			 M200.819,107.981c0,1.587-0.879,3.26-2.638,5.019c-0.046-2.91-0.015-5.665,0.094-8.264c1.525,0.747,2.358,1.611,2.498,2.591
			C200.804,107.545,200.819,107.764,200.819,107.981 M202.757,108.401c0-0.965-0.374-2-1.121-3.105
			c-0.233-0.342-0.536-0.669-0.91-0.98c-1.432-1.183-2.801-1.915-4.109-2.195c-0.202,0.016-0.404,0.039-0.607,0.07
			c-0.264,0.032-0.435,0.14-0.513,0.327c-0.032,0.078-0.047,0.156-0.047,0.234c0,0.171,0.101,0.358,0.304,0.56
			c0.326,0.342,0.498,0.522,0.513,0.537c0.078,0.84,0.117,1.766,0.117,2.778c0,0.763-0.031,1.899-0.093,3.408
			c-0.063,1.51-0.094,2.646-0.094,3.408c0,0.747,0.024,1.448,0.07,2.101c0.062,0.14,0.167,0.242,0.315,0.304
			s0.284,0.117,0.409,0.163c0.124,0.047,0.233,0.07,0.327,0.07c0.186,0,0.373-0.101,0.56-0.303c0.187-0.203,0.358-0.397,0.514-0.584
			c0.466-0.28,0.988-0.778,1.564-1.494c0.482-0.591,0.964-1.19,1.447-1.797c0.218-0.249,0.42-0.584,0.607-1.004
			c0.14-0.358,0.288-0.716,0.444-1.074C202.656,109.375,202.757,108.899,202.757,108.401"/>
	</g>
</g>
</svg>
