<?xml version="1.0" encoding="utf-8"?>
<!-- Generated by IcoMoon.io -->
<!DOCTYPE svg PUBLIC "-//W3C//DTD SVG 1.1//EN" "http://www.w3.org/Graphics/SVG/1.1/DTD/svg11.dtd">
<svg version="1.1" xmlns="http://www.w3.org/2000/svg" xmlns:xlink="http://www.w3.org/1999/xlink" width="40" height="32" viewBox="0 0 40 32">
<path fill="#333333" d="M9.223 3.901v24.204c0 0.556 0.451 1.008 1.008 1.008 0.557 0 1.009-0.451 1.009-1.008v-24.204c0-0.557-0.451-1.009-1.009-1.009-0.556 0-1.008 0.45-1.008 1.009zM14.591 15.237c-0.022 0.019-0.048 0.024-0.069 0.045-0.23 0.229-0.31 0.543-0.266 0.843 0.006 0.050 0.015 0.093 0.027 0.141 0.036 0.124 0.097 0.241 0.183 0.348 0.026 0.033 0.026 0.077 0.057 0.108 0.020 0.020 0.045 0.024 0.065 0.042l5.011 5c0.391 0.391 1.028 0.391 1.419 0s0.391-1.025 0-1.416l-3.344-3.336h11.719c0.557 0 1.010-0.453 1.010-1.009 0-0.557-0.453-1.008-1.010-1.008h-11.719l3.344-3.337c0.391-0.392 0.391-1.026 0-1.417s-1.028-0.391-1.419 0l-5.007 4.997z"></path>
</svg>
