<?xml version="1.0" encoding="utf-8"?>
<!-- Generated by IcoMoon.io -->
<!DOCTYPE svg PUBLIC "-//W3C//DTD SVG 1.1//EN" "http://www.w3.org/Graphics/SVG/1.1/DTD/svg11.dtd">
<svg version="1.1" xmlns="http://www.w3.org/2000/svg" xmlns:xlink="http://www.w3.org/1999/xlink" width="24" height="32" viewBox="0 0 24 32">
<path fill="#333333" d="M22.549 14.88h-21.162c-0.486 0-0.881 0.395-0.881 0.882s0.395 0.882 0.881 0.882h21.162c0.487 0 0.881-0.396 0.881-0.882s-0.394-0.882-0.881-0.882zM11.302 11.953c0.015 0.018 0.020 0.040 0.037 0.057 0.026 0.026 0.065 0.027 0.095 0.051 0.094 0.074 0.194 0.128 0.304 0.159 0.042 0.012 0.079 0.020 0.122 0.023 0.262 0.037 0.535-0.032 0.738-0.233 0.017-0.017 0.022-0.041 0.039-0.059l3.489-3.497c0.342-0.343 0.342-0.897 0-1.24s-0.896-0.343-1.239 0l-2.035 2.042v-5.837c0-0.487-0.396-0.883-0.882-0.883s-0.882 0.396-0.882 0.883v5.837l-2.035-2.042c-0.342-0.343-0.897-0.343-1.239 0s-0.342 0.897 0 1.24l3.49 3.499zM12.636 19.573c-0.016-0.018-0.021-0.042-0.039-0.059-0.201-0.201-0.475-0.271-0.738-0.233-0.043 0.004-0.080 0.012-0.122 0.023-0.109 0.032-0.211 0.084-0.304 0.159-0.028 0.022-0.067 0.023-0.095 0.051-0.017 0.017-0.021 0.039-0.037 0.057l-3.491 3.498c-0.342 0.343-0.342 0.897 0 1.24s0.897 0.343 1.239 0l2.035-2.042v5.837c0 0.487 0.396 0.883 0.882 0.883s0.882-0.396 0.882-0.883v-5.837l2.035 2.042c0.343 0.343 0.897 0.343 1.239 0s0.342-0.897 0-1.24l-3.488-3.496z"></path>
</svg>
