<?xml version="1.0" encoding="utf-8"?>
<!-- Generated by IcoMoon.io -->
<!DOCTYPE svg PUBLIC "-//W3C//DTD SVG 1.1//EN" "http://www.w3.org/Graphics/SVG/1.1/DTD/svg11.dtd">
<svg version="1.1" xmlns="http://www.w3.org/2000/svg" xmlns:xlink="http://www.w3.org/1999/xlink" width="24" height="32" viewBox="0 0 24 32">
<path fill="#333333" d="M23.695 23.407h-22.996c-0.507 0-0.92 0.413-0.92 0.921s0.413 0.92 0.92 0.92h22.996c0.508 0 0.92-0.413 0.92-0.92s-0.411-0.921-0.92-0.921zM11.040 20.352c0.017 0.019 0.022 0.044 0.040 0.062 0.21 0.21 0.496 0.282 0.77 0.243 0.046-0.004 0.084-0.013 0.128-0.024 0.114-0.033 0.22-0.088 0.316-0.166 0.030-0.024 0.071-0.024 0.099-0.053 0.018-0.018 0.022-0.040 0.039-0.059l4.561-4.569c0.357-0.358 0.357-0.937 0-1.295s-0.935-0.358-1.292 0l-3.044 3.050v-10.689c0-0.508-0.412-0.921-0.919-0.921s-0.921 0.412-0.921 0.921v10.689l-3.043-3.050c-0.358-0.358-0.936-0.358-1.293 0s-0.357 0.937 0 1.295l4.559 4.567z"></path>
</svg>
