<?xml version="1.0" encoding="utf-8"?>
<!-- Generated by IcoMoon.io -->
<!DOCTYPE svg PUBLIC "-//W3C//DTD SVG 1.1//EN" "http://www.w3.org/Graphics/SVG/1.1/DTD/svg11.dtd">
<svg version="1.1" xmlns="http://www.w3.org/2000/svg" xmlns:xlink="http://www.w3.org/1999/xlink" width="38" height="32" viewBox="0 0 38 32">
<path fill="#333333" d="M31.871 5.411h-24.204c-0.556 0-1.008 0.452-1.008 1.008 0 0.557 0.452 1.009 1.008 1.009h24.204c0.557 0 1.009-0.452 1.009-1.009 0-0.556-0.45-1.008-1.009-1.008zM20.535 10.779c-0.019-0.022-0.024-0.048-0.045-0.069-0.229-0.23-0.543-0.31-0.843-0.266-0.050 0.006-0.093 0.015-0.141 0.027-0.124 0.036-0.241 0.097-0.348 0.183-0.033 0.026-0.077 0.026-0.108 0.057-0.020 0.020-0.024 0.045-0.042 0.065l-5 5.011c-0.391 0.391-0.391 1.028 0 1.419s1.025 0.391 1.416 0l3.336-3.344v11.719c0 0.557 0.453 1.010 1.009 1.010 0.557 0 1.008-0.453 1.008-1.010v-11.719l3.337 3.344c0.392 0.391 1.026 0.391 1.417 0s0.391-1.028 0-1.418l-4.997-5.007z"></path>
</svg>
