<?xml version="1.0" encoding="utf-8"?>
<!-- Generated by IcoMoon.io -->
<!DOCTYPE svg PUBLIC "-//W3C//DTD SVG 1.1//EN" "http://www.w3.org/Graphics/SVG/1.1/DTD/svg11.dtd">
<svg version="1.1" xmlns="http://www.w3.org/2000/svg" xmlns:xlink="http://www.w3.org/1999/xlink" width="35" height="32" viewBox="0 0 35 32">
<path fill="#333333" d="M19.187 27.158v-22.79c0-0.524-0.425-0.949-0.95-0.949s-0.95 0.425-0.95 0.949v22.79c0 0.525 0.426 0.949 0.95 0.949s0.95-0.424 0.95-0.949zM22.339 15.046c-0.020 0.016-0.043 0.022-0.061 0.039-0.028 0.028-0.030 0.070-0.055 0.102-0.080 0.101-0.138 0.209-0.171 0.328-0.013 0.045-0.022 0.085-0.025 0.131-0.039 0.283 0.034 0.576 0.251 0.794 0.019 0.019 0.044 0.024 0.064 0.042l3.766 3.757c0.369 0.368 0.966 0.368 1.336 0s0.369-0.965 0-1.334l-2.199-2.191h6.286c0.525 0 0.951-0.426 0.951-0.95s-0.426-0.95-0.951-0.95h-6.286l2.199-2.191c0.369-0.368 0.369-0.966 0-1.334s-0.966-0.368-1.336 0l-3.768 3.758zM14.133 16.483c0.020-0.018 0.045-0.023 0.064-0.042 0.217-0.217 0.291-0.512 0.251-0.794-0.004-0.046-0.013-0.087-0.025-0.131-0.034-0.117-0.091-0.227-0.171-0.328-0.024-0.031-0.025-0.072-0.055-0.102-0.019-0.019-0.042-0.023-0.061-0.039l-3.767-3.759c-0.369-0.368-0.966-0.368-1.336 0s-0.369 0.966 0 1.334l2.199 2.191h-6.286c-0.525 0-0.951 0.426-0.951 0.95s0.426 0.95 0.951 0.95h6.286l-2.199 2.191c-0.369 0.369-0.369 0.966 0 1.334s0.966 0.368 1.336 0l3.765-3.756z"></path>
</svg>
