<?xml version="1.0" encoding="utf-8"?>
<!-- Generated by IcoMoon.io -->
<!DOCTYPE svg PUBLIC "-//W3C//DTD SVG 1.1//EN" "http://www.w3.org/Graphics/SVG/1.1/DTD/svg11.dtd">
<svg version="1.1" xmlns="http://www.w3.org/2000/svg" xmlns:xlink="http://www.w3.org/1999/xlink" width="32" height="32" viewBox="0 0 32 32">
<path fill="#333333" d="M26.062 8.78c0-1.444-1.437-1.444-1.437-1.444h-17.25c0 0-1.437 0-1.437 1.444v1.444h20.124v-1.444zM21.749 4.448h-11.499c0 0-1.437 0-1.437 1.444h14.374c0-1.444-1.438-1.444-1.438-1.444zM28.935 10.224c-0.851-0.855-0.851-0.855-0.851-0.855v2.299h-24.171v-2.299c0 0 0 0-0.851 0.855s-1.46 1.084-1.116 2.889c0.339 1.798 1.99 11.66 2.234 12.995 0.27 1.464 1.757 1.444 1.757 1.444h20.124c0 0 1.487 0.020 1.757-1.444 0.245-1.334 1.895-11.197 2.235-12.995 0.342-1.805-0.267-2.035-1.119-2.889zM21.749 18.022c0 0 0 1.444-1.438 1.444h-8.622c-1.437 0-1.437-1.444-1.437-1.444v-2.888h2.013v2.31h7.47v-2.31h2.016v2.888z"></path>
</svg>
