<?xml version="1.0" encoding="utf-8"?>
<!-- Generated by IcoMoon.io -->
<!DOCTYPE svg PUBLIC "-//W3C//DTD SVG 1.1//EN" "http://www.w3.org/Graphics/SVG/1.1/DTD/svg11.dtd">
<svg version="1.1" xmlns="http://www.w3.org/2000/svg" xmlns:xlink="http://www.w3.org/1999/xlink" width="25" height="32" viewBox="0 0 25 32">
<path fill="#333333" d="M10.278 25.623q1.17 0.493 2.156 0.493 2.017 0 3.326-0.631t1.878-1.74q0.585-1.078 0.585-2.787 0-1.755-0.631-2.771-0.893-1.447-2.171-1.94-1.232-0.493-3.803-0.493-1.139 0-1.555 0.154v2.217l-0.015 2.664 0.046 4.157q0 0.231 0.185 0.677zM10.063 14.137q0.662 0.108 1.678 0.108 2.694 0 4.065-1.001t1.37-3.449q0-1.724-1.309-2.879-1.293-1.155-3.926-1.155-0.801 0-2.002 0.2 0 0.677 0.031 1.186 0.108 1.878 0.092 4.296l-0.015 1.509q0 0.662 0.015 1.186zM1.733 27.825l0.031-1.447q0.693-0.139 1.047-0.185 1.186-0.185 1.894-0.477 0.262-0.416 0.323-0.785 0.139-1.016 0.139-2.987l-0.031-7.652q-0.077-3.942-0.139-6.22-0.015-1.34-0.169-1.678-0.015-0.062-0.185-0.185-0.277-0.185-1.062-0.231-0.462-0.031-1.755-0.2l-0.062-1.278 4.003-0.092 5.851-0.2 0.693-0.015q0.077 0 0.216-0.008t0.216-0.008q0.015 0 0.331 0.008t0.624 0.008h1.139q1.355 0 2.941 0.416 0.662 0.2 1.478 0.601 0.878 0.447 1.571 1.17 0.677 0.724 1.001 1.601t0.323 1.878q0 1.078-0.493 1.971t-1.463 1.617q-0.4 0.308-2.31 1.186 2.725 0.631 4.111 2.248 1.417 1.632 1.417 3.634 0 1.17-0.447 2.479-0.323 0.955-1.093 1.802-1.016 1.109-2.156 1.663-1.124 0.554-3.126 0.924-1.263 0.231-3.049 0.169l-3.033-0.062q-1.293-0.031-4.588 0.169-0.508 0.046-4.188 0.169z"></path>
</svg>
