<?xml version="1.0" encoding="utf-8"?>
<!-- Generated by IcoMoon.io -->
<!DOCTYPE svg PUBLIC "-//W3C//DTD SVG 1.1//EN" "http://www.w3.org/Graphics/SVG/1.1/DTD/svg11.dtd">
<svg version="1.1" xmlns="http://www.w3.org/2000/svg" xmlns:xlink="http://www.w3.org/1999/xlink" width="32" height="32" viewBox="0 0 32 32">
<path fill="#333333" d="M7.769 25.603c0 1.514 1.229 2.744 2.744 2.744 1.516 0 2.744-1.229 2.744-2.744s-1.228-2.744-2.744-2.744c-1.514 0-2.744 1.229-2.744 2.744zM21.487 25.603c0 1.514 1.229 2.744 2.744 2.744 1.516 0 2.744-1.229 2.744-2.744s-1.228-2.744-2.744-2.744c-1.514 0-2.744 1.229-2.744 2.744zM12.635 19.117l15.184-4.338c0.289-0.084 0.527-0.398 0.527-0.7v-7.545h-19.342v-2.332c0-0.302-0.246-0.549-0.549-0.549h-4.253c-0.302 0-0.549 0.247-0.549 0.549v2.195h2.665l2.7 12.424 0.261 1.294v2.058c0 0.302 0.247 0.549 0.547 0.549h17.972c0.3 0 0.547-0.247 0.547-0.549v-2.058h-15.43c-1.576 0-1.609-0.617-0.281-0.999z"></path>
</svg>
