<?xml version="1.0" encoding="utf-8"?>
<!-- Generated by IcoMoon.io -->
<!DOCTYPE svg PUBLIC "-//W3C//DTD SVG 1.1//EN" "http://www.w3.org/Graphics/SVG/1.1/DTD/svg11.dtd">
<svg version="1.1" xmlns="http://www.w3.org/2000/svg" xmlns:xlink="http://www.w3.org/1999/xlink" width="32" height="32" viewBox="0 0 32 32">
<path fill="#333333" d="M25.691 22.773l-6.778-6.804 6.793-6.716c0.279-0.279 0.279-0.734 0-1.012l-1.932-1.942c-0.134-0.134-0.315-0.207-0.506-0.207s-0.372 0.077-0.506 0.207l-6.762 6.695-6.773-6.69c-0.134-0.134-0.315-0.207-0.506-0.207s-0.372 0.077-0.506 0.207l-1.927 1.942c-0.279 0.279-0.279 0.734 0 1.012l6.793 6.716-6.773 6.798c-0.134 0.134-0.212 0.315-0.212 0.506s0.072 0.372 0.212 0.506l1.932 1.942c0.139 0.14 0.32 0.212 0.506 0.212 0.181 0 0.367-0.067 0.506-0.212l6.747-6.778 6.752 6.773c0.14 0.14 0.32 0.212 0.506 0.212 0.181 0 0.367-0.067 0.506-0.212l1.932-1.942c0.134-0.134 0.212-0.315 0.212-0.506-0.005-0.186-0.083-0.367-0.217-0.501z"></path>
</svg>
