<?xml version="1.0" encoding="utf-8"?>
<!-- Generated by IcoMoon.io -->
<!DOCTYPE svg PUBLIC "-//W3C//DTD SVG 1.1//EN" "http://www.w3.org/Graphics/SVG/1.1/DTD/svg11.dtd">
<svg version="1.1" xmlns="http://www.w3.org/2000/svg" xmlns:xlink="http://www.w3.org/1999/xlink" width="32" height="32" viewBox="0 0 32 32">
<path fill="#333333" d="M26.616 8.152c-4.482-2.98-9.515-4.010-15.483-2.3-4.658 1.336-8.928 6.634-9.259 11.171-0.391 5.364 3.788 9.958 11.145 9.951 7.933-0.009 10.902-3.818 10.969-4.975 0.065-1.158-3.096-3.298-1.061-5.499 2.549-2.757 4.817-0.407 6.192-0.739 1.375-0.329 2.071-4.564-2.502-7.608zM17.412 21.607c-1.2 0-2.173-0.97-2.173-2.166 0-1.197 0.973-2.166 2.173-2.166s2.172 0.969 2.172 2.166c-0.001 1.196-0.972 2.166-2.172 2.166z"></path>
</svg>
