<?xml version="1.0" encoding="utf-8"?>
<!-- Generated by IcoMoon.io -->
<!DOCTYPE svg PUBLIC "-//W3C//DTD SVG 1.1//EN" "http://www.w3.org/Graphics/SVG/1.1/DTD/svg11.dtd">
<svg version="1.1" xmlns="http://www.w3.org/2000/svg" xmlns:xlink="http://www.w3.org/1999/xlink" width="32" height="32" viewBox="0 0 32 32">
<path fill="#333333" d="M29.571 12.266l-10.751-2.879-1.882-7.021c-0.157-0.586-0.786-0.929-1.404-0.762l-13.104 3.51c-0.618 0.165-0.991 0.775-0.835 1.362l4.663 17.403c0.157 0.586 0.786 0.928 1.402 0.762l5.217-1.398-0.712 2.654c-0.157 0.588 0.215 1.197 0.833 1.363l11.711 3.138c0.618 0.165 1.246-0.176 1.404-0.762l4.29-16.008c0.157-0.586-0.215-1.197-0.833-1.362zM3.92 6.805l11.305-3.027 4.186 15.621-11.306 3.027-4.185-15.621zM24.201 28.223l-9.841-2.692 0.774-2.892 5.633-1.509c0.618-0.166 0.992-0.775 0.835-1.363l-2.178-8.125 8.586 2.355-3.809 14.226z"></path>
</svg>
