<?xml version="1.0" encoding="utf-8"?>
<!-- Generated by IcoMoon.io -->
<!DOCTYPE svg PUBLIC "-//W3C//DTD SVG 1.1//EN" "http://www.w3.org/Graphics/SVG/1.1/DTD/svg11.dtd">
<svg version="1.1" xmlns="http://www.w3.org/2000/svg" xmlns:xlink="http://www.w3.org/1999/xlink" width="18" height="32" viewBox="0 0 18 32">
<path fill="#333333" d="M2.060 23.221l1.586-2.079q0.108-0.154 0.354-0.185 0.231-0.031 0.37 0.139l0.031 0.031q1.74 1.524 3.742 1.925 0.57 0.123 1.139 0.123 1.247 0 2.194-0.662t0.947-1.878q0-0.431-0.231-0.816t-0.516-0.647-0.901-0.577-1.016-0.493-1.232-0.5q-0.601-0.246-0.947-0.385t-0.947-0.408-0.962-0.477-0.87-0.547-0.824-0.654-0.67-0.754-0.547-0.893-0.323-1.024-0.131-1.201q0-2.125 1.509-3.726t3.926-2.063v-2.772q0-0.2 0.146-0.346t0.346-0.146h2.079q0.216 0 0.354 0.139t0.139 0.354v2.71q0.878 0.092 1.701 0.354t1.34 0.516 0.978 0.577 0.601 0.447 0.231 0.216q0.262 0.277 0.077 0.585l-1.247 2.248q-0.123 0.231-0.354 0.246-0.216 0.046-0.416-0.108-0.046-0.046-0.223-0.185t-0.601-0.408-0.901-0.493-1.147-0.4-1.316-0.177q-1.463 0-2.387 0.662t-0.924 1.709q0 0.4 0.131 0.739t0.454 0.639 0.608 0.508 0.862 0.477 0.932 0.416 1.078 0.423q0.816 0.308 1.247 0.485t1.17 0.539 1.162 0.654 0.955 0.77 0.816 0.978 0.485 1.178 0.2 1.447q0 2.356-1.532 4.057t-3.98 2.102v2.695q0 0.216-0.139 0.354t-0.354 0.139h-2.079q-0.2 0-0.346-0.146t-0.146-0.346v-2.695q-1.016-0.139-1.963-0.477t-1.563-0.685-1.139-0.739-0.716-0.577-0.269-0.277q-0.262-0.323-0.031-0.631z"></path>
</svg>
