<?xml version="1.0" encoding="utf-8"?>
<!-- Generated by IcoMoon.io -->
<!DOCTYPE svg PUBLIC "-//W3C//DTD SVG 1.1//EN" "http://www.w3.org/Graphics/SVG/1.1/DTD/svg11.dtd">
<svg version="1.1" xmlns="http://www.w3.org/2000/svg" xmlns:xlink="http://www.w3.org/1999/xlink" width="32" height="32" viewBox="0 0 32 32">
<path fill="#333333" d="M5.892 12.823c-1.754 0-3.177 1.422-3.177 3.177s1.422 3.177 3.177 3.177 3.177-1.422 3.177-3.177c0-1.754-1.422-3.177-3.177-3.177zM16 12.823c-1.754 0-3.177 1.422-3.177 3.177s1.422 3.177 3.177 3.177 3.175-1.422 3.175-3.177c0-1.754-1.421-3.177-3.175-3.177zM26.108 12.823c-1.754 0-3.177 1.422-3.177 3.177s1.422 3.177 3.177 3.177 3.177-1.422 3.177-3.177c0-1.754-1.422-3.177-3.177-3.177z"></path>
</svg>
