<?xml version="1.0" encoding="utf-8"?>
<!-- Generated by IcoMoon.io -->
<!DOCTYPE svg PUBLIC "-//W3C//DTD SVG 1.1//EN" "http://www.w3.org/Graphics/SVG/1.1/DTD/svg11.dtd">
<svg version="1.1" xmlns="http://www.w3.org/2000/svg" xmlns:xlink="http://www.w3.org/1999/xlink" width="31" height="32" viewBox="0 0 31 32">
<path fill="rgb(68, 68, 68)" d="M25.868 8.055q0.431 0.431 0.739 1.17t0.308 1.355v17.738q0 0.616-0.431 1.047t-1.047 0.431h-20.694q-0.616 0-1.047-0.431t-0.431-1.047v-24.636q0-0.616 0.431-1.047t1.047-0.431h13.796q0.616 0 1.355 0.308t1.17 0.739zM19.032 4.298v5.789h5.789q-0.154-0.447-0.339-0.631l-4.819-4.819q-0.185-0.185-0.631-0.339zM24.945 27.825v-15.767h-6.405q-0.616 0-1.047-0.431t-0.431-1.047v-6.405h-11.825v23.65h19.708zM9.178 14.522q0-0.216 0.139-0.354t0.354-0.139h10.84q0.216 0 0.354 0.139t0.139 0.354v0.985q0 0.216-0.139 0.354t-0.354 0.139h-10.84q-0.216 0-0.354-0.139t-0.139-0.354v-0.985zM20.51 17.971q0.216 0 0.354 0.139t0.139 0.354v0.985q0 0.216-0.139 0.354t-0.354 0.139h-10.84q-0.216 0-0.354-0.139t-0.139-0.354v-0.985q0-0.216 0.139-0.354t0.354-0.139h10.84zM20.51 21.913q0.216 0 0.354 0.139t0.139 0.354v0.985q0 0.216-0.139 0.354t-0.354 0.139h-10.84q-0.216 0-0.354-0.139t-0.139-0.354v-0.985q0-0.216 0.139-0.354t0.354-0.139h10.84z"></path>
</svg>
