<?xml version="1.0" encoding="utf-8"?>
<!-- Generated by IcoMoon.io -->
<!DOCTYPE svg PUBLIC "-//W3C//DTD SVG 1.1//EN" "http://www.w3.org/Graphics/SVG/1.1/DTD/svg11.dtd">
<svg version="1.1" xmlns="http://www.w3.org/2000/svg" xmlns:xlink="http://www.w3.org/1999/xlink" width="32" height="32" viewBox="0 0 32 32">
<path fill="#333333" d="M23.74 4.413h-15.48c-2.116 0-3.847 1.731-3.847 3.847v15.48c0 2.116 1.731 3.847 3.847 3.847h15.48c2.116 0 3.847-1.731 3.847-3.847v-15.48c0-2.116-1.731-3.847-3.847-3.847zM11.831 14.552h8.337c0.158 0.454 0.244 0.941 0.244 1.448 0 2.433-1.98 4.413-4.413 4.413s-4.413-1.98-4.413-4.413c0-0.507 0.086-0.994 0.244-1.448zM24.69 14.553v8.689c0 0.797-0.652 1.448-1.448 1.448h-14.484c-0.797 0-1.448-0.652-1.448-1.448v-8.69h2.266c-0.105 0.466-0.161 0.951-0.161 1.448 0 3.631 2.954 6.586 6.586 6.586s6.586-2.954 6.586-6.586c0-0.498-0.056-0.982-0.161-1.448l2.266 0.001zM24.69 9.482c0 0.398-0.326 0.724-0.724 0.724h-1.448c-0.398 0-0.724-0.326-0.724-0.724v-1.448c0-0.398 0.326-0.724 0.724-0.724h1.448c0.398 0 0.724 0.326 0.724 0.724v1.448z"></path>
</svg>
