<?xml version="1.0" encoding="utf-8"?>
<!-- Generated by IcoMoon.io -->
<!DOCTYPE svg PUBLIC "-//W3C//DTD SVG 1.1//EN" "http://www.w3.org/Graphics/SVG/1.1/DTD/svg11.dtd">
<svg version="1.1" xmlns="http://www.w3.org/2000/svg" xmlns:xlink="http://www.w3.org/1999/xlink" width="26" height="32" viewBox="0 0 26 32">
<path fill="#333333" d="M21.906 6.917c1.845 2.555 2.98 5.677 2.98 9.083s-1.135 6.529-2.98 9.083l-0.993-0.71c1.703-2.342 2.768-5.251 2.768-8.374s-1.064-6.032-2.768-8.374zM18.074 22.812l-0.993-0.71c1.277-1.703 2.058-3.832 2.058-6.103s-0.781-4.4-2.058-6.103l0.993-0.71c1.419 1.916 2.271 4.258 2.271 6.812s-0.852 4.896-2.271 6.812zM14.739 20.542l-0.923-0.71c0.852-1.064 1.277-2.413 1.277-3.832s-0.426-2.768-1.277-3.832l0.923-0.71c0.993 1.277 1.561 2.839 1.561 4.542s-0.568 3.264-1.561 4.542zM6.294 13.161l4.967-3.974v13.625l-4.967-3.974h-4.116v-5.677h4.116z"></path>
</svg>
