<?xml version="1.0" encoding="utf-8"?>
<!-- Generated by IcoMoon.io -->
<!DOCTYPE svg PUBLIC "-//W3C//DTD SVG 1.1//EN" "http://www.w3.org/Graphics/SVG/1.1/DTD/svg11.dtd">
<svg version="1.1" xmlns="http://www.w3.org/2000/svg" xmlns:xlink="http://www.w3.org/1999/xlink" width="32" height="32" viewBox="0 0 32 32">
<path fill="#333333" d="M21.256 11.081l-7.8 7.856-2.95-2.95-1.113 1.113 3.5 3.5c0.156 0.156 0.369 0.281 0.556 0.281s0.394-0.125 0.55-0.275l8.356-8.4-1.1-1.125z"></path>
<path fill="#333333" d="M13.45 21.038c-0.213 0-0.462-0.122-0.667-0.327l-3.611-3.61 1.333-1.333 2.95 2.95 7.801-7.857 1.319 1.349-8.467 8.512c-0.1 0.096-0.364 0.319-0.658 0.319zM9.615 17.1l3.389 3.39c0.143 0.143 0.318 0.235 0.446 0.235 0.123 0 0.292-0.088 0.441-0.23l8.246-8.289-0.881-0.901-7.799 7.855-2.95-2.95-0.892 0.892z"></path>
<path fill="#333333" d="M16 3c-7.181 0-13 5.819-13 13s5.819 13 13 13 13-5.819 13-13-5.819-13-13-13zM16 27.919c-6.569 0-11.919-5.344-11.919-11.919 0-6.569 5.344-11.919 11.919-11.919 6.569 0 11.919 5.344 11.919 11.919 0 6.569-5.35 11.919-11.919 11.919z"></path>
<path fill="#333333" d="M16 29.156c-1.776 0-3.5-0.348-5.122-1.034-1.567-0.663-2.974-1.611-4.182-2.819s-2.157-2.615-2.819-4.182c-0.686-1.622-1.034-3.345-1.034-5.122s0.348-3.5 1.034-5.122c0.663-1.567 1.611-2.974 2.819-4.182s2.615-2.157 4.182-2.819c1.622-0.686 3.345-1.034 5.122-1.034s3.5 0.348 5.122 1.034c1.567 0.663 2.974 1.611 4.182 2.819s2.157 2.615 2.819 4.182c0.686 1.622 1.034 3.345 1.034 5.122s-0.348 3.5-1.034 5.122c-0.663 1.567-1.611 2.974-2.819 4.182s-2.615 2.157-4.182 2.819c-1.622 0.686-3.345 1.034-5.122 1.034zM16 3.156c-1.734 0-3.417 0.34-5 1.009-1.529 0.647-2.903 1.573-4.082 2.752s-2.105 2.553-2.752 4.082c-0.67 1.583-1.009 3.266-1.009 5s0.34 3.417 1.009 5c0.647 1.529 1.573 2.903 2.752 4.083s2.553 2.105 4.082 2.752c1.583 0.67 3.266 1.009 5 1.009s3.417-0.339 5-1.009c1.529-0.647 2.903-1.573 4.083-2.752s2.105-2.553 2.752-4.083c0.67-1.583 1.009-3.266 1.009-5s-0.339-3.417-1.009-5c-0.647-1.529-1.573-2.903-2.752-4.082s-2.553-2.105-4.083-2.752c-1.583-0.67-3.266-1.009-5-1.009zM16 28.075c-6.658 0-12.075-5.417-12.075-12.075s5.417-12.075 12.075-12.075 12.075 5.417 12.075 12.075-5.417 12.075-12.075 12.075zM16 4.237c-6.486 0-11.762 5.277-11.762 11.762s5.277 11.762 11.762 11.762 11.762-5.277 11.762-11.762-5.277-11.762-11.762-11.762z"></path>
</svg>
