<?xml version="1.0" encoding="utf-8"?>
<!-- Generated by IcoMoon.io -->
<!DOCTYPE svg PUBLIC "-//W3C//DTD SVG 1.1//EN" "http://www.w3.org/Graphics/SVG/1.1/DTD/svg11.dtd">
<svg version="1.1" xmlns="http://www.w3.org/2000/svg" xmlns:xlink="http://www.w3.org/1999/xlink" width="32" height="32" viewBox="0 0 32 32">
<path fill="#333333" d="M16 2.133c-7.66 0-13.867 6.207-13.867 13.867s6.207 13.867 13.867 13.867c7.66 0 13.867-6.207 13.867-13.867s-6.207-13.867-13.867-13.867zM16 28.713c-7.007 0-12.713-5.7-12.713-12.713 0-7.007 5.7-12.713 12.713-12.713 7.007 0 12.713 5.7 12.713 12.713 0 7.007-5.707 12.713-12.713 12.713z"></path>
<path fill="#333333" d="M16 5.333c-5.893 0-10.667 4.773-10.667 10.667s4.773 10.667 10.667 10.667c5.893 0 10.667-4.773 10.667-10.667s-4.773-10.667-10.667-10.667z"></path>
</svg>
