<?xml version="1.0" encoding="utf-8"?>
<!-- Generator: Adobe Illustrator 16.0.0, SVG Export Plug-In . SVG Version: 6.00 Build 0)  -->
<!DOCTYPE svg PUBLIC "-//W3C//DTD SVG 1.1//EN" "http://www.w3.org/Graphics/SVG/1.1/DTD/svg11.dtd">
<svg version="1.1" id="Layer_1" xmlns="http://www.w3.org/2000/svg" xmlns:xlink="http://www.w3.org/1999/xlink" x="0px" y="0px"
	 width="32px" height="32px" viewBox="0 0 32 32" enable-background="new 0 0 32 32" xml:space="preserve">
<g>
	<path display="none" d="M12.198,23.58l-0.702,0.689l4.511,4.444l4.511-4.444l-0.701-0.689l-3.312,3.257V12.179h-0.993v14.658
		L12.198,23.58z"/>
	<path d="M16.007,28.964c-0.063,0-0.127-0.024-0.175-0.072l-4.511-4.444c-0.048-0.047-0.075-0.111-0.075-0.178
		c0-0.067,0.027-0.132,0.075-0.179l0.702-0.689c0.098-0.096,0.253-0.096,0.351,0l2.888,2.839V12.179c0-0.138,0.112-0.25,0.25-0.25
		h0.993c0.138,0,0.25,0.112,0.25,0.25V26.24l2.888-2.839c0.096-0.096,0.254-0.096,0.35,0l0.701,0.689
		c0.048,0.048,0.075,0.111,0.075,0.179c0,0.066-0.026,0.131-0.074,0.178l-4.511,4.444C16.134,28.939,16.07,28.964,16.007,28.964z"/>
</g>
<g>
	<path display="none" d="M24.67,10.454c0-0.073,0.012-0.139,0.012-0.212c0-3.845-3.203-6.957-7.072-6.957
		c-2.791,0-5.194,1.623-6.32,3.96c-0.49-0.242-1.035-0.381-1.623-0.381C7.874,6.864,6.39,8.275,6.1,9.97
		c-2.131,0.728-3.669,2.628-3.669,4.989c0,2.973,2.428,5.4,5.425,5.4h5.54v-0.969H7.904c-2.476,0-4.493-2.01-4.493-4.461
		c0-1.901,1.223-3.481,3.039-4.099l0.509-0.17l0.091-0.527c0.218-1.29,1.338-2.349,2.658-2.349c0.418,0,0.829,0.097,1.205,0.285
		l0.817,0.406l0.394-0.823c1.005-2.083,3.155-3.427,5.474-3.427c3.348,0,6.108,2.591,6.108,5.909c0,0.793-0.013,1.217-0.013,1.217
		l0.92,0.006c2.223,0.03,3.973,1.816,3.973,4.02c0,2.198-1.804,4.002-4.025,4.014l-0.194,0.006H18.48v0.97h6.115
		c2.725,0,4.959-2.252,4.959-4.971C29.555,12.67,27.412,10.46,24.67,10.454L24.67,10.454z"/>
	<path d="M24.596,20.616H18.48c-0.138,0-0.25-0.112-0.25-0.25v-0.97c0-0.138,0.112-0.25,0.25-0.25l6.072-0.006
		c2.089-0.011,3.783-1.699,3.783-3.764c0-2.085-1.637-3.742-3.726-3.77l-0.919-0.006c-0.067,0-0.131-0.028-0.178-0.077
		c-0.047-0.048-0.072-0.113-0.07-0.181c0-0.002,0.013-0.424,0.013-1.21c0-3.12-2.628-5.659-5.858-5.659
		c-2.226,0-4.286,1.29-5.249,3.285l-0.394,0.823c-0.029,0.061-0.081,0.106-0.144,0.128c-0.064,0.022-0.132,0.018-0.193-0.013
		l-0.817-0.406c-0.343-0.171-0.711-0.258-1.094-0.258c-1.168,0-2.205,0.92-2.412,2.14l-0.091,0.528
		c-0.016,0.091-0.08,0.166-0.167,0.195l-0.509,0.17c-1.742,0.593-2.868,2.109-2.868,3.862c0,2.322,1.903,4.211,4.243,4.211h5.492
		c0.138,0,0.25,0.112,0.25,0.25v0.969c0,0.138-0.112,0.25-0.25,0.25h-5.54c-3.129,0-5.675-2.535-5.675-5.65
		c0-2.332,1.447-4.348,3.7-5.177c0.38-1.816,1.982-3.168,3.785-3.168c0.521,0,1.028,0.102,1.508,0.304
		c1.243-2.367,3.742-3.883,6.436-3.883c4.027,0,7.305,3.216,7.322,7.176c2.753,0.139,4.873,2.368,4.873,5.184
		C29.805,18.274,27.468,20.616,24.596,20.616z"/>
</g>
</svg>
