<?xml version="1.0" encoding="utf-8"?>
<!-- Generated by IcoMoon.io -->
<!DOCTYPE svg PUBLIC "-//W3C//DTD SVG 1.1//EN" "http://www.w3.org/Graphics/SVG/1.1/DTD/svg11.dtd">
<svg version="1.1" xmlns="http://www.w3.org/2000/svg" xmlns:xlink="http://www.w3.org/1999/xlink" width="32" height="32" viewBox="0 0 32 32">
<path fill="#333333" d="M16.007 28.964c-0.063 0-0.127-0.024-0.175-0.072l-4.511-4.444c-0.048-0.047-0.075-0.111-0.075-0.178s0.027-0.132 0.075-0.179l0.702-0.689c0.098-0.096 0.253-0.096 0.351 0l2.888 2.839v-14.062c0-0.138 0.112-0.25 0.25-0.25h0.993c0.138 0 0.25 0.112 0.25 0.25v14.061l2.888-2.839c0.096-0.096 0.254-0.096 0.35 0l0.701 0.689c0.048 0.048 0.075 0.111 0.075 0.179 0 0.066-0.026 0.131-0.074 0.178l-4.511 4.444c-0.050 0.048-0.114 0.073-0.177 0.073z"></path>
<path fill="#333333" d="M24.596 20.616h-6.116c-0.138 0-0.25-0.112-0.25-0.25v-0.97c0-0.138 0.112-0.25 0.25-0.25l6.072-0.006c2.089-0.011 3.783-1.699 3.783-3.764 0-2.085-1.637-3.742-3.726-3.77l-0.919-0.006c-0.067 0-0.131-0.028-0.178-0.077s-0.072-0.113-0.070-0.181c0-0.002 0.013-0.424 0.013-1.21 0-3.12-2.628-5.659-5.858-5.659-2.226 0-4.286 1.29-5.249 3.285l-0.394 0.823c-0.029 0.061-0.081 0.106-0.144 0.128s-0.132 0.018-0.193-0.013l-0.817-0.406c-0.343-0.171-0.711-0.258-1.094-0.258-1.168 0-2.205 0.92-2.412 2.14l-0.091 0.528c-0.016 0.091-0.080 0.166-0.167 0.195l-0.509 0.17c-1.742 0.593-2.868 2.109-2.868 3.862 0 2.322 1.903 4.211 4.243 4.211h5.492c0.138 0 0.25 0.112 0.25 0.25v0.969c0 0.138-0.112 0.25-0.25 0.25h-5.54c-3.129 0-5.675-2.535-5.675-5.65 0-2.332 1.447-4.348 3.7-5.177 0.38-1.816 1.982-3.168 3.785-3.168 0.521 0 1.028 0.102 1.508 0.304 1.243-2.367 3.742-3.883 6.436-3.883 4.027 0 7.305 3.216 7.322 7.176 2.753 0.139 4.873 2.368 4.873 5.184 0.002 2.881-2.335 5.223-5.207 5.223z"></path>
</svg>
