<?xml version="1.0" encoding="utf-8"?>
<!-- Generated by IcoMoon.io -->
<!DOCTYPE svg PUBLIC "-//W3C//DTD SVG 1.1//EN" "http://www.w3.org/Graphics/SVG/1.1/DTD/svg11.dtd">
<svg version="1.1" xmlns="http://www.w3.org/2000/svg" xmlns:xlink="http://www.w3.org/1999/xlink" width="32" height="32" viewBox="0 0 32 32">
<path fill="#333333" d="M6.4 3.787v24.427c0 0.327 0.26 0.587 0.587 0.587h18.027c0.327 0 0.587-0.26 0.587-0.587v-24.427c0-0.327-0.26-0.587-0.587-0.587h-18.027c-0.327 0-0.587 0.26-0.587 0.587zM16 28.107c-0.5 0-0.907-0.4-0.907-0.9s0.407-0.907 0.907-0.907c0.493 0 0.9 0.407 0.9 0.907 0.007 0.5-0.4 0.9-0.9 0.9zM8.533 6.84c0-0.233 0.18-0.44 0.4-0.44h14.080c0.227 0 0.453 0.207 0.453 0.44v18.347c0 0.233-0.227 0.42-0.453 0.42h-14.080c-0.227 0-0.4-0.187-0.4-0.42v-18.347z"></path>
</svg>
