<?xml version="1.0" encoding="utf-8"?>
<!-- Generated by IcoMoon.io -->
<!DOCTYPE svg PUBLIC "-//W3C//DTD SVG 1.1//EN" "http://www.w3.org/Graphics/SVG/1.1/DTD/svg11.dtd">
<svg version="1.1" xmlns="http://www.w3.org/2000/svg" xmlns:xlink="http://www.w3.org/1999/xlink" width="32" height="32" viewBox="0 0 32 32">
<path fill="#333333" d="M21.134 2.347h-10.268c-0.932 0-1.692 0.761-1.692 1.7v23.915c0 0.932 0.761 1.692 1.692 1.692h10.261c0.932 0 1.692-0.761 1.692-1.692v-23.915c0.007-0.939-0.754-1.7-1.685-1.7zM14.862 4.9c0-0.149 0.121-0.277 0.277-0.277h1.728c0.149 0 0.277 0.121 0.277 0.277v0.021c0 0.149-0.121 0.277-0.277 0.277h-1.728c-0.149 0-0.277-0.121-0.277-0.277v-0.021zM14.009 4.622c0.156 0 0.284 0.128 0.284 0.284s-0.128 0.284-0.284 0.284-0.284-0.128-0.284-0.284c0-0.156 0.128-0.284 0.284-0.284zM16 28.523c-0.633 0-1.145-0.512-1.145-1.145s0.512-1.145 1.145-1.145c0.633 0 1.145 0.512 1.145 1.145s-0.519 1.145-1.145 1.145zM21.689 25.102h-11.378v-18.204h11.378v18.204z"></path>
</svg>
