<?xml version="1.0" encoding="utf-8"?>
<!-- Generated by IcoMoon.io -->
<!DOCTYPE svg PUBLIC "-//W3C//DTD SVG 1.1//EN" "http://www.w3.org/Graphics/SVG/1.1/DTD/svg11.dtd">
<svg version="1.1" xmlns="http://www.w3.org/2000/svg" xmlns:xlink="http://www.w3.org/1999/xlink" width="18" height="32" viewBox="0 0 18 32">
<path fill="#333333" d="M0.653 28.702l0.282-1.409q0.066-0.017 1.277-0.332 1.26-0.315 1.923-0.647 0.481-0.614 0.68-1.675l0.448-2.305 0.929-4.444 0.199-1.061q0.133-0.73 0.282-1.401t0.265-1.111 0.207-0.771 0.149-0.506 0.058-0.191l0.481-2.603 0.265-1.045 0.365-2.239 0.133-0.829v-0.63q-0.68-0.365-2.388-0.464-0.464-0.033-0.63-0.066l0.315-1.708 5.256 0.232q0.647 0.033 1.21 0.033 1.094 0 3.548-0.149 0.547-0.033 1.128-0.075t0.597-0.041q-0.033 0.315-0.099 0.63-0.116 0.481-0.216 0.846-0.912 0.315-1.807 0.514-1.061 0.265-1.675 0.514-0.199 0.514-0.398 1.459-0.149 0.73-0.216 1.36-0.73 3.3-1.094 5.074l-1.011 5.157-0.63 2.62-0.713 3.897-0.199 0.746q-0.033 0.116 0.017 0.448 1.061 0.249 1.973 0.348 0.597 0.083 1.094 0.166-0.017 0.481-0.116 0.962-0.116 0.514-0.149 0.68-0.298 0-0.381 0.017-0.398 0.033-0.696 0.033-0.149 0-0.464-0.050-0.315-0.066-2.404-0.282l-3.283-0.033q-0.68-0.017-2.885 0.182-1.227 0.116-1.625 0.149z"></path>
</svg>
