<?xml version="1.0" encoding="utf-8"?>
<!-- Generated by IcoMoon.io -->
<!DOCTYPE svg PUBLIC "-//W3C//DTD SVG 1.1//EN" "http://www.w3.org/Graphics/SVG/1.1/DTD/svg11.dtd">
<svg version="1.1" xmlns="http://www.w3.org/2000/svg" xmlns:xlink="http://www.w3.org/1999/xlink" width="32" height="32" viewBox="0 0 32 32">
<path fill="#333333" d="M8.68 23.32q0 1.144-0.801 1.944t-1.944 0.801-1.944-0.801-0.801-1.944 0.801-1.944 1.944-0.801 1.944 0.801 0.801 1.944zM8.68 16q0 1.144-0.801 1.944t-1.944 0.801-1.944-0.801-0.801-1.944 0.801-1.944 1.944-0.801 1.944 0.801 0.801 1.944zM28.811 21.948v2.745q0 0.186-0.136 0.322t-0.322 0.136h-17.386q-0.186 0-0.322-0.136t-0.136-0.322v-2.745q0-0.186 0.136-0.322t0.322-0.136h17.386q0.186 0 0.322 0.136t0.136 0.322zM8.68 8.68q0 1.144-0.801 1.944t-1.944 0.801-1.944-0.801-0.801-1.944 0.801-1.944 1.944-0.801 1.944 0.801 0.801 1.944zM28.811 14.627v2.745q0 0.186-0.136 0.322t-0.322 0.136h-17.386q-0.186 0-0.322-0.136t-0.136-0.322v-2.745q0-0.186 0.136-0.322t0.322-0.136h17.386q0.186 0 0.322 0.136t0.136 0.322zM28.811 7.307v2.745q0 0.186-0.136 0.322t-0.322 0.136h-17.386q-0.186 0-0.322-0.136t-0.136-0.322v-2.745q0-0.186 0.136-0.322t0.322-0.136h17.386q0.186 0 0.322 0.136t0.136 0.322z"></path>
</svg>
