<?xml version="1.0" encoding="utf-8"?>
<!-- Generated by IcoMoon.io -->
<!DOCTYPE svg PUBLIC "-//W3C//DTD SVG 1.1//EN" "http://www.w3.org/Graphics/SVG/1.1/DTD/svg11.dtd">
<svg version="1.1" xmlns="http://www.w3.org/2000/svg" xmlns:xlink="http://www.w3.org/1999/xlink" width="32" height="32" viewBox="0 0 32 32">
<path fill="#333333" d="M8.070 27.148q0 1.232-0.839 1.94t-2.086 0.708q-1.632 0-2.648-1.016l0.878-1.355q0.754 0.693 1.632 0.693 0.447 0 0.778-0.223t0.331-0.654q0-0.985-1.617-0.862l-0.4-0.862q0.123-0.154 0.5-0.67t0.654-0.831 0.57-0.593v-0.015q-0.246 0-0.747 0.015t-0.747 0.015v0.816h-1.632v-2.34h5.127v1.355l-1.463 1.771q0.785 0.185 1.247 0.754t0.462 1.355zM8.101 17.494v2.448h-5.574q-0.092-0.554-0.092-0.831 0-0.785 0.362-1.432t0.87-1.047 1.016-0.731 0.87-0.67 0.362-0.693q0-0.385-0.223-0.593t-0.608-0.208q-0.708 0-1.247 0.893l-1.309-0.908q0.369-0.785 1.101-1.224t1.624-0.439q1.124 0 1.894 0.639t0.77 1.732q0 0.77-0.524 1.409t-1.155 0.993-1.163 0.778-0.547 0.808h1.955v-0.924h1.617zM29.796 22.405v2.956q0 0.2-0.146 0.346t-0.346 0.146h-18.723q-0.2 0-0.346-0.146t-0.146-0.346v-2.956q0-0.216 0.139-0.354t0.354-0.139h18.723q0.2 0 0.346 0.146t0.146 0.346zM8.117 8.563v1.524h-5.158v-1.524h1.648q0-0.631 0.008-1.878t0.008-1.863v-0.185h-0.031q-0.123 0.262-0.77 0.831l-1.093-1.17 2.094-1.955h1.632v6.22h1.663zM29.796 14.522v2.956q0 0.2-0.146 0.346t-0.346 0.146h-18.723q-0.2 0-0.346-0.146t-0.146-0.346v-2.956q0-0.216 0.139-0.354t0.354-0.139h18.723q0.2 0 0.346 0.146t0.146 0.346zM29.796 6.638v2.956q0 0.2-0.146 0.346t-0.346 0.146h-18.723q-0.2 0-0.346-0.146t-0.146-0.346v-2.956q0-0.2 0.146-0.346t0.346-0.146h18.723q0.2 0 0.346 0.146t0.146 0.346z"></path>
</svg>
