<?xml version="1.0" encoding="utf-8"?>
<!-- Generated by IcoMoon.io -->
<!DOCTYPE svg PUBLIC "-//W3C//DTD SVG 1.1//EN" "http://www.w3.org/Graphics/SVG/1.1/DTD/svg11.dtd">
<svg version="1.1" xmlns="http://www.w3.org/2000/svg" xmlns:xlink="http://www.w3.org/1999/xlink" width="32" height="32" viewBox="0 0 32 32">
<path fill="#333333" d="M16 29.916c0 0-8.856-10.121-8.856-18.976s8.856-8.856 8.856-8.856 8.856 0 8.856 8.856-8.856 18.976-8.856 18.976zM22.206 9.763c-0.291-1.546-1.152-2.874-2.347-3.802-0.081-0.065-0.154-0.137-0.239-0.197-0.187-0.133-0.395-0.238-0.598-0.349-0.171-0.095-0.331-0.199-0.512-0.278-0.177-0.077-0.368-0.123-0.554-0.183-0.216-0.071-0.423-0.156-0.651-0.202-0.421-0.087-0.855-0.137-1.302-0.137 0 0-0.001 0-0.003 0-0.003 0-0.004 0-0.006 0-0.44 0-0.869 0.047-1.284 0.132-0.829 0.167-1.57 0.496-2.22 0.935-0.010 0.006-0.020 0.010-0.029 0.016-0.269 0.183-0.511 0.395-0.746 0.616-0.071 0.066-0.149 0.121-0.216 0.19-0.158 0.163-0.291 0.344-0.431 0.521-0.12 0.153-0.25 0.299-0.358 0.463-0.072 0.115-0.127 0.239-0.194 0.358-0.134 0.239-0.271 0.477-0.374 0.734-0.039 0.096-0.058 0.199-0.092 0.297-0.096 0.278-0.194 0.557-0.25 0.853-0.080 0.397-0.123 0.803-0.123 1.211 0 6.325 6.325 15.181 6.325 15.181s6.325-8.856 6.325-15.181c0-0.393-0.040-0.788-0.119-1.177zM12.205 10.94c0-2.096 1.699-3.795 3.795-3.795s3.795 1.699 3.795 3.795-1.699 3.795-3.795 3.795-3.795-1.699-3.795-3.795z"></path>
</svg>
