<?xml version="1.0" encoding="utf-8"?>
<!-- Generated by IcoMoon.io -->
<!DOCTYPE svg PUBLIC "-//W3C//DTD SVG 1.1//EN" "http://www.w3.org/Graphics/SVG/1.1/DTD/svg11.dtd">
<svg version="1.1" xmlns="http://www.w3.org/2000/svg" xmlns:xlink="http://www.w3.org/1999/xlink" width="32" height="32" viewBox="0 0 32 32">
<path fill="#333333" d="M24.231 12.218h-0.823c-0.303 0-0.549 0.247-0.549 0.549v3.782c0 1.834-1.445 4.939-6.859 4.939s-6.859-3.104-6.859-4.939v-3.782c0-0.302-0.248-0.549-0.549-0.549h-0.823c-0.302 0-0.549 0.247-0.549 0.549v3.782c0 3.069 2.255 6.351 7.408 6.804v3.622h-3.568c-0.3 0-0.547 0.247-0.547 0.549v1.646c0 0.302 0.247 0.549 0.547 0.549h9.877c0.303 0 0.549-0.247 0.549-0.549v-1.646c0-0.303-0.247-0.549-0.549-0.549h-3.565v-3.622c5.154-0.453 7.408-3.737 7.408-6.804v-3.782c0-0.302-0.247-0.549-0.549-0.549zM16 18.744c3.22 0 4.115-1.322 4.115-2.195v-4.331h-8.231v4.331c0 0.872 0.896 2.195 4.115 2.195zM20.115 4.477c0-0.874-0.896-2.195-4.115-2.195s-4.115 1.321-4.115 2.195v5.821h8.231v-5.821z"></path>
</svg>
