<?xml version="1.0" encoding="utf-8"?>
<!-- Generated by IcoMoon.io -->
<!DOCTYPE svg PUBLIC "-//W3C//DTD SVG 1.1//EN" "http://www.w3.org/Graphics/SVG/1.1/DTD/svg11.dtd">
<svg version="1.1" xmlns="http://www.w3.org/2000/svg" xmlns:xlink="http://www.w3.org/1999/xlink" width="32" height="32" viewBox="0 0 32 32">
<path fill="#333333" d="M21.598 1.56h-11.197c-1.622 0-2.947 1.326-2.947 2.947v22.986c0 1.62 1.326 2.947 2.947 2.947h11.197c1.622 0 2.947-1.327 2.947-2.947v-22.986c0-1.622-1.326-2.947-2.947-2.947zM16 29.262c-1.138 0-2.062-0.66-2.062-1.474s0.924-1.474 2.062-1.474c1.139 0 2.062 0.66 2.062 1.474s-0.923 1.474-2.062 1.474zM22.188 24.84h-12.377v-19.449h12.377v19.449z"></path>
</svg>
