<?xml version="1.0" encoding="utf-8"?>
<!-- Generated by IcoMoon.io -->
<!DOCTYPE svg PUBLIC "-//W3C//DTD SVG 1.1//EN" "http://www.w3.org/Graphics/SVG/1.1/DTD/svg11.dtd">
<svg version="1.1" xmlns="http://www.w3.org/2000/svg" xmlns:xlink="http://www.w3.org/1999/xlink" width="32" height="32" viewBox="0 0 32 32">
<path fill="#333333" d="M4.175 16q0-2.802 1.239-5.281t3.487-4.157q0.662-0.493 1.47-0.385t1.286 0.77q0.493 0.647 0.377 1.455t-0.762 1.301q-1.509 1.139-2.333 2.787t-0.824 3.511q0 1.601 0.624 3.056t1.686 2.517 2.517 1.686 3.056 0.624 3.056-0.624 2.517-1.686 1.686-2.517 0.624-3.056q0-1.863-0.824-3.511t-2.333-2.787q-0.647-0.493-0.762-1.301t0.377-1.455q0.477-0.662 1.293-0.77t1.463 0.385q2.248 1.678 3.487 4.157t1.239 5.281q0 2.402-0.939 4.588t-2.525 3.772-3.772 2.525-4.588 0.939-4.588-0.939-3.772-2.525-2.525-3.772-0.939-4.588zM14.029 14.029v-9.854q0-0.801 0.585-1.386t1.386-0.585 1.386 0.585 0.585 1.386v9.854q0 0.801-0.585 1.386t-1.386 0.585-1.386-0.585-0.585-1.386z"></path>
</svg>
