<?xml version="1.0" encoding="utf-8"?>
<!-- Generated by IcoMoon.io -->
<!DOCTYPE svg PUBLIC "-//W3C//DTD SVG 1.1//EN" "http://www.w3.org/Graphics/SVG/1.1/DTD/svg11.dtd">
<svg version="1.1" xmlns="http://www.w3.org/2000/svg" xmlns:xlink="http://www.w3.org/1999/xlink" width="32" height="32" viewBox="0 0 32 32">
<path fill="#333333" d="M26.288 11.118l-2.954-8.138c-0.218-0.601-0.859-0.918-1.428-0.71l-19.634 7.167c-0.57 0.207-0.858 0.862-0.64 1.463l3.115 8.58v-4.599c0-2.075 1.658-3.762 3.698-3.762h5.188l6.188-4.344 3.581 4.344h2.887zM29.34 13.723h-20.895c-0.607 0-1.1 0.518-1.1 1.158v13.604c0 0.638 0.492 1.158 1.1 1.158h20.895c0.608 0 1.1-0.518 1.1-1.158v-13.605c0-0.638-0.492-1.157-1.1-1.157zM27.745 26.748h-17.321v-2.482l2.664-6.202 3.998 4.963 3.75-3.844 4.822-1.74 2.087 4.653v4.653z"></path>
</svg>
