<?xml version="1.0" encoding="utf-8"?>
<!-- Generated by IcoMoon.io -->
<!DOCTYPE svg PUBLIC "-//W3C//DTD SVG 1.1//EN" "http://www.w3.org/Graphics/SVG/1.1/DTD/svg11.dtd">
<svg version="1.1" xmlns="http://www.w3.org/2000/svg" xmlns:xlink="http://www.w3.org/1999/xlink" width="32" height="32" viewBox="0 0 32 32">
<path fill="#333333" d="M26.35 23.501l-5.184-5.184c0.782-1.285 1.232-2.792 1.232-4.406 0-4.686-4.062-8.748-8.749-8.748-4.686 0-8.486 3.8-8.486 8.486 0 4.687 4.061 8.749 8.748 8.749 1.558 0 3.018-0.422 4.273-1.156l5.212 5.213c0.512 0.51 1.337 0.51 1.846 0l1.294-1.292c0.509-0.51 0.324-1.152-0.185-1.661zM7.775 13.649c0-3.244 2.63-5.875 5.874-5.875 3.246 0 6.137 2.892 6.137 6.137s-2.63 5.875-5.875 5.875-6.136-2.892-6.136-6.137z"></path>
</svg>
