<?xml version="1.0" encoding="utf-8"?>
<!-- Generated by IcoMoon.io -->
<!DOCTYPE svg PUBLIC "-//W3C//DTD SVG 1.1//EN" "http://www.w3.org/Graphics/SVG/1.1/DTD/svg11.dtd">
<svg version="1.1" xmlns="http://www.w3.org/2000/svg" xmlns:xlink="http://www.w3.org/1999/xlink" width="32" height="32" viewBox="0 0 32 32">
<path fill="#333333" d="M22.686 11.623h1.693v2.771l4.746-4.875-4.746-4.77v3.164h-1.693c-4.846 0-7.582 3.627-9.996 6.826-2.168 2.877-4.043 5.59-7.066 5.59h-2.748v3.709h2.748c4.846 0 7.582-3.855 9.996-7.055 2.168-2.877 4.037-5.361 7.066-5.361zM9.977 13.744c0.205-0.27 0.416-0.545 0.627-0.826 0.516-0.68 1.055-1.4 1.641-2.115-1.734-1.635-3.826-2.842-6.621-2.842h-2.748v3.709c0 0 0.779-0.035 2.748 0 1.904 0.041 3.1 0.826 4.354 2.074zM24.379 20.359h-1.693c-1.846 0-3.264-0.926-4.582-2.303-0.129 0.176-0.264 0.352-0.398 0.527-0.58 0.768-1.201 1.594-1.887 2.408 1.781 1.752 3.938 3.076 6.867 3.076h1.693v3.182l4.746-4.77-4.746-4.875v2.754z"></path>
</svg>
