<?xml version="1.0" encoding="utf-8"?>
<!-- Generated by IcoMoon.io -->
<!DOCTYPE svg PUBLIC "-//W3C//DTD SVG 1.1//EN" "http://www.w3.org/Graphics/SVG/1.1/DTD/svg11.dtd">
<svg version="1.1" xmlns="http://www.w3.org/2000/svg" xmlns:xlink="http://www.w3.org/1999/xlink" width="32" height="32" viewBox="0 0 32 32">
<path fill="#333333" d="M8.533 16.827v5.973c0 0.46 0.3 0.933 0.76 0.933h1.907v3.467c0 0.887 0.713 1.6 1.6 1.6s1.6-0.713 1.6-1.6v-3.467h3.267v3.467c0 0.5 0.227 0.947 0.587 1.24 0.26 0.227 0.607 0.36 0.98 0.36 0.007 0 0.013 0 0.020 0s0.007 0 0.013 0c0.887 0 1.6-0.713 1.6-1.6v-3.467h1.84c0.467 0 0.76-0.473 0.76-0.927v-11.073h-14.933v5.093z"></path>
<path fill="#333333" d="M26.133 10.667c-0.887 0-1.6 0.713-1.6 1.6v6.4c0 0.887 0.713 1.6 1.6 1.6s1.6-0.713 1.6-1.6v-6.4c0-0.887-0.713-1.6-1.6-1.6z"></path>
<path fill="#333333" d="M5.867 10.667c-0.887 0-1.6 0.713-1.6 1.6v6.4c0 0.887 0.713 1.6 1.6 1.6s1.6-0.713 1.6-1.6v-6.4c0-0.887-0.713-1.6-1.6-1.6z"></path>
<path fill="#333333" d="M19.68 4.873l1.233-1.46c0.027-0.033-0.013-0.107-0.087-0.167-0.073-0.053-0.16-0.067-0.18-0.027l-1.28 1.52c-0.907-0.36-2.013-0.587-3.373-0.587-1.367-0.007-2.48 0.213-3.387 0.567l-1.267-1.493c-0.027-0.033-0.107-0.027-0.18 0.027s-0.113 0.12-0.087 0.167l1.22 1.44c-3.213 1.393-3.693 4.813-3.76 5.813h14.907c-0.060-1.007-0.533-4.38-3.76-5.8zM12.72 8.193c-0.493 0-0.9-0.4-0.9-0.887s0.4-0.887 0.9-0.887c0.493 0 0.9 0.4 0.9 0.887s-0.4 0.887-0.9 0.887zM19.28 8.193c-0.493 0-0.9-0.4-0.9-0.887s0.4-0.887 0.9-0.887c0.493 0 0.9 0.4 0.9 0.887s-0.407 0.887-0.9 0.887z"></path>
</svg>
