<?xml version="1.0" encoding="utf-8"?>
<!-- Generated by IcoMoon.io -->
<!DOCTYPE svg PUBLIC "-//W3C//DTD SVG 1.1//EN" "http://www.w3.org/Graphics/SVG/1.1/DTD/svg11.dtd">
<svg version="1.1" xmlns="http://www.w3.org/2000/svg" xmlns:xlink="http://www.w3.org/1999/xlink" width="32" height="32" viewBox="0 0 32 32">
<path fill="#333333" d="M21.518 8.74c-2.389 0-3.399 1.173-5.063 1.173-1.707 0-3.008-1.166-5.077-1.166-2.027 0-4.188 1.273-5.561 3.442-1.927 3.058-1.6 8.818 1.522 13.724 1.116 1.756 2.61 3.726 4.565 3.748 0.014 0 0.021 0 0.036 0 1.7 0 2.204-1.145 4.544-1.159 0.014 0 0.021 0 0.036 0 2.304 0 2.766 1.152 4.459 1.152 0.014 0 0.021 0 0.036 0 1.956-0.021 3.527-2.204 4.644-3.954 0.804-1.259 1.102-1.892 1.721-3.314-4.516-1.764-5.241-8.348-0.775-10.873-1.365-1.756-3.278-2.773-5.084-2.773v0z"></path>
<path fill="#333333" d="M20.992 2.347c-1.422 0.1-3.079 1.031-4.053 2.247-0.882 1.102-1.607 2.738-1.323 4.324 0.036 0 0.071 0 0.114 0 1.515 0 3.065-0.939 3.968-2.14 0.875-1.145 1.536-2.766 1.294-4.43v0z"></path>
</svg>
