<?xml version="1.0" encoding="utf-8"?>
<!-- Generated by IcoMoon.io -->
<!DOCTYPE svg PUBLIC "-//W3C//DTD SVG 1.1//EN" "http://www.w3.org/Graphics/SVG/1.1/DTD/svg11.dtd">
<svg version="1.1" xmlns="http://www.w3.org/2000/svg" xmlns:xlink="http://www.w3.org/1999/xlink" width="32" height="32" viewBox="0 0 32 32">
<path fill="#333333" d="M5.378 10.739c2.523-2.166 4.517-3.88 9.923-0.823 2.598 1.469 4.693 2.020 6.437 2.020 3.054 0 5.032-1.7 6.744-3.168 0.611-0.524 0.69-1.456 0.176-2.078s-1.424-0.703-2.035-0.179c-2.523 2.167-4.515 3.88-9.925 0.823-7.145-4.036-10.492-1.161-13.181 1.149-0.609 0.524-0.689 1.454-0.176 2.076s1.425 0.705 2.036 0.179zM26.622 13.886c-2.523 2.166-4.515 3.88-9.925 0.823-7.143-4.036-10.491-1.161-13.179 1.148-0.611 0.524-0.69 1.456-0.176 2.078s1.424 0.703 2.035 0.179c2.523-2.167 4.517-3.88 9.923-0.825 2.598 1.469 4.693 2.022 6.437 2.022 3.054 0 5.032-1.7 6.744-3.17 0.611-0.524 0.69-1.454 0.176-2.076-0.513-0.624-1.424-0.703-2.035-0.179zM26.622 21.261c-2.523 2.166-4.515 3.88-9.925 0.823-7.143-4.036-10.492-1.162-13.179 1.148-0.611 0.524-0.69 1.456-0.176 2.078s1.424 0.703 2.035 0.179c2.524-2.167 4.517-3.879 9.925-0.825 2.598 1.469 4.693 2.022 6.437 2.022 3.054 0 5.032-1.7 6.744-3.17 0.611-0.523 0.69-1.454 0.176-2.076s-1.425-0.705-2.036-0.179z"></path>
</svg>
