<?xml version="1.0" encoding="utf-8"?>
<!-- Generated by IcoMoon.io -->
<!DOCTYPE svg PUBLIC "-//W3C//DTD SVG 1.1//EN" "http://www.w3.org/Graphics/SVG/1.1/DTD/svg11.dtd">
<svg version="1.1" xmlns="http://www.w3.org/2000/svg" xmlns:xlink="http://www.w3.org/1999/xlink" width="32" height="32" viewBox="0 0 32 32">
<path fill="#333333" d="M12.823 19.279l-5.776-2.312v1.955l5.776 2.312v-1.955zM12.823 13.28l-5.776-2.31v1.955l5.776 2.31v-1.955zM28.362 3.252c-0.396-0.269-0.901-0.323-1.346-0.146l-11.016 4.407-11.016-4.407c-0.445-0.178-0.949-0.123-1.346 0.146-0.396 0.269-0.634 0.716-0.634 1.196v18.483c0 0.591 0.36 1.121 0.907 1.341l11.527 4.611c0 0 0.237 0.077 0.28 0.085 0.094 0.017 0.188 0.027 0.282 0.027 0.092 0 0.188-0.010 0.28-0.029 0.043-0.009 0.28-0.087 0.28-0.087l11.526-4.609c0.55-0.219 0.91-0.749 0.91-1.34v-18.483c0-0.479-0.238-0.927-0.634-1.196zM14.556 26.042l-9.242-3.697v-16.184l9.242 3.698v16.183zM26.686 22.346l-9.242 3.697v-16.184l9.242-3.698v16.186zM24.953 16.968l-5.777 2.312v1.955l5.777-2.312v-1.955zM24.953 10.969l-5.777 2.31v1.955l5.777-2.31v-1.955z"></path>
</svg>
