<?xml version="1.0" encoding="utf-8"?>
<!-- Generated by IcoMoon.io -->
<!DOCTYPE svg PUBLIC "-//W3C//DTD SVG 1.1//EN" "http://www.w3.org/Graphics/SVG/1.1/DTD/svg11.dtd">
<svg version="1.1" xmlns="http://www.w3.org/2000/svg" xmlns:xlink="http://www.w3.org/1999/xlink" width="32" height="32" viewBox="0 0 32 32">
<path fill="#333333" d="M27.895 21.948v1.699q0 0.345-0.252 0.597t-0.597 0.252h-22.092q-0.345 0-0.597-0.252t-0.252-0.597v-1.699q0-0.345 0.252-0.597t0.597-0.252h22.092q0.345 0 0.597 0.252t0.252 0.597zM22.797 16.85v1.699q0 0.345-0.252 0.597t-0.597 0.252h-16.994q-0.345 0-0.597-0.252t-0.252-0.597v-1.699q0-0.345 0.252-0.597t0.597-0.252h16.994q0.345 0 0.597 0.252t0.252 0.597zM26.196 11.752v1.699q0 0.345-0.252 0.597t-0.597 0.252h-20.392q-0.345 0-0.597-0.252t-0.252-0.597v-1.699q0-0.345 0.252-0.597t0.597-0.252h20.392q0.345 0 0.597 0.252t0.252 0.597zM21.098 6.654v1.699q0 0.345-0.252 0.597t-0.597 0.252h-15.294q-0.345 0-0.597-0.252t-0.252-0.597v-1.699q0-0.345 0.252-0.597t0.597-0.252h15.294q0.345 0 0.597 0.252t0.252 0.597z"></path>
</svg>
