<?xml version="1.0" encoding="utf-8"?>
<!-- Generated by IcoMoon.io -->
<!DOCTYPE svg PUBLIC "-//W3C//DTD SVG 1.1//EN" "http://www.w3.org/Graphics/SVG/1.1/DTD/svg11.dtd">
<svg version="1.1" xmlns="http://www.w3.org/2000/svg" xmlns:xlink="http://www.w3.org/1999/xlink" width="32" height="32" viewBox="0 0 32 32">
<path fill="#333333" d="M23.726 4.413h-15.45c-2.125 0-3.863 1.738-3.863 3.863v15.449c0 2.126 1.738 3.863 3.863 3.863h15.45c2.124 0 3.861-1.737 3.861-3.863v-15.449c-0-2.124-1.737-3.863-3.861-3.863zM20.972 23.076c-0.682 0.321-1.302 0.547-1.856 0.678-0.554 0.129-1.153 0.194-1.797 0.194-0.731 0-1.163-0.092-1.724-0.276-0.561-0.185-1.041-0.45-1.437-0.789-0.397-0.342-0.672-0.706-0.825-1.091s-0.23-0.944-0.23-1.675v-5.608h-2.172v-2.265c0.628-0.204 1.356-0.496 1.803-0.877 0.449-0.382 0.808-0.839 1.079-1.373 0.272-0.533 0.458-1.214 0.56-2.038h2.274v3.699h3.697v2.854h-3.697v4.1c0 0.928-0.012 1.463 0.086 1.726 0.098 0.262 0.342 0.533 0.609 0.69 0.354 0.212 0.758 0.318 1.214 0.318 0.81 0 1.615-0.263 2.416-0.789v2.522z"></path>
</svg>
