<?xml version="1.0" encoding="utf-8"?>
<!-- Generated by IcoMoon.io -->
<!DOCTYPE svg PUBLIC "-//W3C//DTD SVG 1.1//EN" "http://www.w3.org/Graphics/SVG/1.1/DTD/svg11.dtd">
<svg version="1.1" xmlns="http://www.w3.org/2000/svg" xmlns:xlink="http://www.w3.org/1999/xlink" width="27" height="32" viewBox="0 0 27 32">
<path fill="#333333" d="M3.421 6.378q-0.529-0.029-0.643-0.057l-0.043-1.258q0.186-0.014 0.572-0.014 0.858 0 1.601 0.057 1.887 0.1 2.373 0.1 1.23 0 2.402-0.043 1.659-0.057 2.087-0.071 0.801 0 1.23-0.029l-0.014 0.2 0.029 0.915v0.129q-0.858 0.129-1.773 0.129-0.858 0-1.13 0.357-0.186 0.2-0.186 1.887 0 0.186 0.007 0.465t0.007 0.365l0.014 3.274 0.2 4.003q0.086 1.773 0.729 2.888 0.5 0.844 1.373 1.315 1.258 0.672 2.531 0.672 1.487 0 2.731-0.4 0.801-0.257 1.415-0.729 0.686-0.515 0.929-0.915 0.515-0.801 0.758-1.63 0.3-1.044 0.3-3.274 0-1.13-0.050-1.83t-0.157-1.751-0.193-2.28l-0.057-0.844q-0.071-0.958-0.343-1.258-0.486-0.5-1.101-0.486l-1.43 0.029-0.2-0.043 0.029-1.23h1.201l2.931 0.143q1.087 0.043 2.802-0.143l0.257 0.029q0.086 0.543 0.086 0.729 0 0.1-0.057 0.443-0.643 0.172-1.201 0.186-1.044 0.157-1.13 0.243-0.214 0.214-0.214 0.586 0 0.1 0.021 0.386t0.021 0.443q0.114 0.272 0.315 5.662 0.086 2.788-0.214 4.346-0.214 1.087-0.586 1.744-0.543 0.929-1.601 1.759-1.072 0.815-2.602 1.272-1.558 0.472-3.646 0.472-2.388 0-4.060-0.658-1.701-0.672-2.559-1.744-0.872-1.087-1.187-2.788-0.229-1.144-0.229-3.389v-4.761q0-2.688-0.243-3.045-0.357-0.515-2.102-0.558zM24.696 26.523v-0.915q0-0.2-0.129-0.329t-0.329-0.129h-21.046q-0.2 0-0.329 0.129t-0.129 0.329v0.915q0 0.2 0.129 0.329t0.329 0.129h21.046q0.2 0 0.329-0.129t0.129-0.329z"></path>
</svg>
