<?xml version="1.0" encoding="utf-8"?>
<!-- Generated by IcoMoon.io -->
<!DOCTYPE svg PUBLIC "-//W3C//DTD SVG 1.1//EN" "http://www.w3.org/Graphics/SVG/1.1/DTD/svg11.dtd">
<svg version="1.1" xmlns="http://www.w3.org/2000/svg" xmlns:xlink="http://www.w3.org/1999/xlink" width="32" height="32" viewBox="0 0 32 32">
<path fill="#333333" d="M22.96 22.423c-3.559-1.297-4.697-2.391-4.697-4.735 0-1.406 1.087-0.947 1.564-3.523 0.198-1.069 1.158-0.017 1.343-2.456 0-0.972-0.524-1.214-0.524-1.214s0.267-1.44 0.371-2.546c0.127-1.38-0.797-4.944-5.738-4.944-4.94 0-5.867 3.564-5.737 4.944 0.104 1.106 0.371 2.546 0.371 2.546s-0.526 0.241-0.526 1.214c0.183 2.439 1.144 1.388 1.341 2.456 0.478 2.576 1.565 2.117 1.565 3.523 0 2.344-1.138 3.438-4.697 4.735-3.572 1.3-5.891 2.627-5.891 3.532 0 0.904 0 3.040 0 3.040h27.147c0 0 0-2.136 0-3.040s-2.32-2.231-5.892-3.532z"></path>
</svg>
