<?xml version="1.0" encoding="utf-8"?>
<!-- Generated by IcoMoon.io -->
<!DOCTYPE svg PUBLIC "-//W3C//DTD SVG 1.1//EN" "http://www.w3.org/Graphics/SVG/1.1/DTD/svg11.dtd">
<svg version="1.1" xmlns="http://www.w3.org/2000/svg" xmlns:xlink="http://www.w3.org/1999/xlink" width="32" height="32" viewBox="0 0 32 32">
<path fill="#333333" d="M19.344 5.36c0-1.847-1.497-3.344-3.344-3.344s-3.344 1.497-3.344 3.344 1.497 3.344 3.344 3.344c1.847 0 3.344-1.497 3.344-3.344zM19.344 16c0-1.847-1.497-3.344-3.344-3.344s-3.344 1.497-3.344 3.344 1.497 3.343 3.344 3.343c1.847 0 3.344-1.496 3.344-3.343zM19.344 26.64c0-1.847-1.497-3.344-3.344-3.344s-3.344 1.497-3.344 3.344 1.497 3.344 3.344 3.344c1.847 0 3.344-1.497 3.344-3.344z"></path>
</svg>
