<?xml version="1.0" encoding="utf-8"?>
<!-- Generator: Adobe Illustrator 16.0.0, SVG Export Plug-In . SVG Version: 6.00 Build 0)  -->
<!DOCTYPE svg PUBLIC "-//W3C//DTD SVG 1.1 Tiny//EN" "http://www.w3.org/Graphics/SVG/1.1/DTD/svg11-tiny.dtd">
<svg version="1.1" baseProfile="tiny" id="Layer_1" xmlns="http://www.w3.org/2000/svg" xmlns:xlink="http://www.w3.org/1999/xlink"
	 x="0px" y="0px" width="686.767px" height="148.639px" viewBox="0 0 686.767 148.639" xml:space="preserve">
<g>
	<path fill="#FFFFFF" stroke="#457747" stroke-miterlimit="10" d="M506.455,52.409c0-10.964,8.249-18.362,18.947-18.362
		c7.771,0,12.294,4.205,14.796,8.675l-6.493,3.193c-1.49-2.874-4.684-5.163-8.303-5.163c-6.493,0-11.177,4.95-11.177,11.656
		s4.684,11.656,11.177,11.656c3.619,0,6.812-2.289,8.303-5.163l6.493,3.14c-2.502,4.417-7.025,8.729-14.796,8.729
		C514.704,70.771,506.455,63.319,506.455,52.409z"/>
	<path fill="#FFFFFF" stroke="#457747" stroke-miterlimit="10" d="M579.524,70.132l-2.234-6.014h-15.223l-2.234,6.014h-8.569
		l13.679-35.5h9.473l13.679,35.5H579.524z M569.679,42.19l-5.535,15.275h11.07L569.679,42.19z"/>
	<path fill="#FFFFFF" stroke="#457747" stroke-miterlimit="10" d="M601.713,70.132v-35.5h7.61v28.847h15.01v6.653H601.713z"/>
	<path fill="#FFFFFF" stroke="#457747" stroke-miterlimit="10" d="M670.952,70.132v-25.6l-10.006,25.6h-3.3l-10.006-25.6v25.6
		h-7.558v-35.5h10.592l8.621,22.194l8.623-22.194h10.645v35.5H670.952z"/>
	<path fill="#FFFFFF" stroke="#457747" stroke-miterlimit="10" d="M530.35,100.304c0-11.23,8.516-18.362,18.947-18.362
		c7.345,0,11.976,3.726,14.636,7.93l-6.227,3.406c-1.65-2.501-4.684-4.63-8.409-4.63c-6.493,0-11.177,4.95-11.177,11.656
		s4.684,11.656,11.177,11.656c3.14,0,6.067-1.384,7.505-2.714v-4.258h-9.367v-6.6h16.924v13.625
		c-3.619,4.045-8.675,6.653-15.062,6.653C538.865,118.666,530.35,111.48,530.35,100.304z"/>
	<path fill="#FFFFFF" stroke="#457747" stroke-miterlimit="10" d="M581.012,103.816V82.527h7.664v21.076
		c0,4.95,2.874,8.356,8.356,8.356c5.481,0,8.303-3.406,8.303-8.356V82.527h7.717v21.289c0,8.782-5.216,14.849-16.02,14.849
		C586.228,118.666,581.012,112.598,581.012,103.816z"/>
	<path fill="#FFFFFF" stroke="#457747" stroke-miterlimit="10" d="M638.912,118.027V89.18h-10.378v-6.653h28.314v6.653h-10.326
		v28.847H638.912z"/>
</g>
<g>
	<path fill="#FFFFFF" stroke="#457747" stroke-miterlimit="10" d="M261.178,51.864c0-11.086,8.342-18.567,19.159-18.567
		c7.857,0,12.432,4.251,14.961,8.772l-6.566,3.229c-1.507-2.906-4.736-5.22-8.396-5.22c-6.565,0-11.302,5.005-11.302,11.786
		c0,6.781,4.736,11.786,11.302,11.786c3.66,0,6.889-2.314,8.396-5.22l6.566,3.175c-2.529,4.467-7.104,8.826-14.961,8.826
		C269.52,70.431,261.178,62.896,261.178,51.864z"/>
	<path fill="#FFFFFF" stroke="#457747" stroke-miterlimit="10" d="M335.072,69.785l-2.26-6.082H317.42l-2.261,6.082h-8.665
		l13.831-35.896h9.58l13.831,35.896H335.072z M325.116,41.531l-5.597,15.446h11.194L325.116,41.531z"/>
	<path fill="#FFFFFF" stroke="#457747" stroke-miterlimit="10" d="M357.516,69.785V33.889h7.696v29.169h15.177v6.727H357.516z"/>
	<path fill="#FFFFFF" stroke="#457747" stroke-miterlimit="10" d="M427.534,69.785V43.899l-10.118,25.886h-3.337l-10.117-25.886
		v25.886h-7.643V33.889h10.71l8.719,22.442l8.718-22.442h10.764v35.896H427.534z"/>
	<path fill="#FFFFFF" stroke="#457747" stroke-miterlimit="10" d="M262.443,118.223V82.327h18.89c6.835,0,10.333,4.359,10.333,9.149
		c0,4.467-2.798,7.535-6.189,8.234c3.875,0.592,6.889,4.305,6.889,8.772c0,5.436-3.552,9.741-10.44,9.741H262.443z M283.862,92.821
		c0-2.207-1.614-3.768-4.198-3.768h-9.58v7.535h9.58C282.248,96.588,283.862,95.135,283.862,92.821z M284.562,107.406
		c0-2.26-1.614-4.09-4.574-4.09h-9.903v8.181h9.903C282.84,111.496,284.562,109.989,284.562,107.406z"/>
	<path fill="#FFFFFF" stroke="#457747" stroke-miterlimit="10" d="M307.167,100.302c0-10.817,7.912-18.567,18.783-18.567
		c10.817,0,18.729,7.75,18.729,18.567s-7.911,18.567-18.729,18.567C315.079,118.869,307.167,111.119,307.167,100.302z
		 M336.821,100.302c0-6.727-4.251-11.786-10.871-11.786c-6.673,0-10.925,5.059-10.925,11.786c0,6.673,4.252,11.786,10.925,11.786
		C332.569,112.088,336.821,106.975,336.821,100.302z"/>
	<path fill="#FFFFFF" stroke="#457747" stroke-miterlimit="10" d="M360.826,118.223V82.327h14.154
		c11.248,0,19.052,7.158,19.052,17.921c0,10.871-7.804,17.975-18.997,17.975H360.826z M386.228,100.248
		c0-6.297-3.875-11.194-11.193-11.194h-6.566v22.442h6.512C382.084,111.496,386.228,106.383,386.228,100.248z"/>
	<path fill="#FFFFFF" stroke="#457747" stroke-miterlimit="10" d="M418.09,118.223v-14.692l-13.777-21.204h8.718l8.88,14.37
		l8.88-14.37h8.665l-13.724,21.204v14.692H418.09z"/>
</g>
<g>
	<path fill="#FFFFFF" stroke="#457747" stroke-miterlimit="10" d="M6.051,51.813c0-11.118,8.365-18.62,19.213-18.62
		c7.88,0,12.467,4.264,15.004,8.797l-6.584,3.238c-1.511-2.914-4.75-5.235-8.419-5.235c-6.584,0-11.333,5.019-11.333,11.819
		s4.749,11.819,11.333,11.819c3.67,0,6.908-2.32,8.419-5.235l6.584,3.184c-2.537,4.479-7.124,8.851-15.004,8.851
		C14.416,70.433,6.051,62.877,6.051,51.813z"/>
	<path fill="#FFFFFF" stroke="#457747" stroke-miterlimit="10" d="M80.15,69.785l-2.267-6.099H62.448l-2.267,6.099h-8.689
		l13.87-35.998h9.607L88.84,69.785H80.15z M70.166,41.451l-5.613,15.49h11.226L70.166,41.451z"/>
	<path fill="#FFFFFF" stroke="#457747" stroke-miterlimit="10" d="M102.654,69.785V33.787h7.718v29.252h15.22v6.746H102.654z"/>
	<path fill="#FFFFFF" stroke="#457747" stroke-miterlimit="10" d="M172.868,69.785v-25.96l-10.146,25.96h-3.346l-10.146-25.96v25.96
		h-7.664V33.787h10.74l8.743,22.505l8.743-22.505h10.794v35.998H172.868z"/>
	<path fill="#FFFFFF" stroke="#457747" stroke-miterlimit="10" d="M43.345,118.356v-25.96l-10.146,25.96h-3.346l-10.146-25.96v25.96
		h-7.664V82.358h10.74l8.743,22.505l8.743-22.505h10.794v35.998H43.345z"/>
	<path fill="#FFFFFF" stroke="#457747" stroke-miterlimit="10" d="M68.979,118.356V82.358h7.664v35.998H68.979z"/>
	<path fill="#FFFFFF" stroke="#457747" stroke-miterlimit="10" d="M119.385,118.356l-17.162-23.477v23.477h-7.664V82.358h7.88
		l16.677,22.613V82.358h7.664v35.998H119.385z"/>
	<path fill="#FFFFFF" stroke="#457747" stroke-miterlimit="10" d="M144.695,118.356V82.358h14.194
		c11.28,0,19.105,7.178,19.105,17.972c0,10.902-7.826,18.026-19.052,18.026H144.695z M170.169,100.331
		c0-6.315-3.886-11.226-11.226-11.226h-6.584v22.506h6.531C166.013,111.61,170.169,106.483,170.169,100.331z"/>
</g>
<g>
	<path fill="#457747" d="M459.733,83.02v-1.782l14.035-7.091l-14.035-7.163v-1.782l15.926,8.254v1.345L459.733,83.02z"/>
	<path fill="#457747" d="M474.86,83.02v-1.782l14.035-7.091l-14.035-7.163v-1.782l15.926,8.254v1.345L474.86,83.02z"/>
</g>
<g>
	<path fill="#457747" d="M202.565,83.02v-1.782l14.036-7.091l-14.036-7.163v-1.782l15.926,8.254v1.345L202.565,83.02z"/>
	<path fill="#457747" d="M217.692,83.02v-1.782l14.036-7.091l-14.036-7.163v-1.782l15.926,8.254v1.345L217.692,83.02z"/>
</g>
<g>
</g>
<g>
</g>
<g>
</g>
<g>
</g>
<g>
</g>
<g>
</g>
<g>
</g>
<g>
</g>
<g>
</g>
<g>
</g>
<g>
</g>
<g>
</g>
<g>
</g>
<g>
</g>
<g>
</g>
</svg>
