<?xml version="1.0" encoding="utf-8"?>
<!-- Generator: Adobe Illustrator 18.1.1, SVG Export Plug-In . SVG Version: 6.00 Build 0)  -->
<svg version="1.1" id="Layer_1" xmlns="http://www.w3.org/2000/svg" xmlns:xlink="http://www.w3.org/1999/xlink" x="0px" y="0px"
	 viewBox="37 322.4 686.8 148.6" enable-background="new 37 322.4 686.8 148.6" xml:space="preserve">
<g>
	<path fill="#FFFFFF" stroke="#457747" stroke-miterlimit="10" d="M68.2,421.4c0-11.2,8.5-18.4,18.9-18.4c7.3,0,12,3.7,14.6,7.9
		l-6.2,3.4c-1.7-2.5-4.7-4.6-8.4-4.6c-6.5,0-11.2,4.9-11.2,11.7c0,6.7,4.7,11.7,11.2,11.7c3.1,0,6.1-1.4,7.5-2.7v-4.3h-9.4v-6.6
		h16.9v13.6c-3.6,4-8.7,6.7-15.1,6.7C76.8,439.8,68.2,432.6,68.2,421.4z"/>
	<path fill="#FFFFFF" stroke="#457747" stroke-miterlimit="10" d="M118.9,424.9v-21.3h7.7v21.1c0,4.9,2.9,8.4,8.4,8.4
		c5.5,0,8.3-3.4,8.3-8.4v-21.1h7.7v21.3c0,8.8-5.2,14.8-16,14.8C124.1,439.8,118.9,433.7,118.9,424.9z"/>
	<path fill="#FFFFFF" stroke="#457747" stroke-miterlimit="10" d="M176.8,439.1v-28.8h-10.4v-6.7h28.3v6.7h-10.3v28.8H176.8z"/>
</g>
<g>
	<path fill="#FFFFFF" stroke="#457747" stroke-miterlimit="10" d="M294.4,439.5v-35.9h18.9c6.8,0,10.3,4.4,10.3,9.1
		c0,4.5-2.8,7.5-6.2,8.2c3.9,0.6,6.9,4.3,6.9,8.8c0,5.4-3.6,9.7-10.4,9.7C313.9,439.5,294.4,439.5,294.4,439.5z M315.9,414.1
		c0-2.2-1.6-3.8-4.2-3.8h-9.6v7.5h9.6C314.2,417.9,315.9,416.5,315.9,414.1z M316.6,428.7c0-2.3-1.6-4.1-4.6-4.1h-9.9v8.2h9.9
		C314.8,432.8,316.6,431.3,316.6,428.7z"/>
	<path fill="#FFFFFF" stroke="#457747" stroke-miterlimit="10" d="M339.2,421.6c0-10.8,7.9-18.6,18.8-18.6
		c10.8,0,18.7,7.8,18.7,18.6c0,10.8-7.9,18.6-18.7,18.6C347.1,440.2,339.2,432.4,339.2,421.6z M368.8,421.6
		c0-6.7-4.3-11.8-10.9-11.8c-6.7,0-10.9,5.1-10.9,11.8c0,6.7,4.3,11.8,10.9,11.8C364.6,433.4,368.8,428.3,368.8,421.6z"/>
	<path fill="#FFFFFF" stroke="#457747" stroke-miterlimit="10" d="M392.8,439.5v-35.9H407c11.2,0,19.1,7.2,19.1,17.9
		c0,10.9-7.8,18-19,18H392.8z M418.2,421.6c0-6.3-3.9-11.2-11.2-11.2h-6.6v22.4h6.5C414.1,432.8,418.2,427.7,418.2,421.6z"/>
	<path fill="#FFFFFF" stroke="#457747" stroke-miterlimit="10" d="M450.1,439.5v-14.7l-13.8-21.2h8.7l8.9,14.4l8.9-14.4h8.7
		l-13.7,21.2v14.7H450.1z"/>
</g>
<g>
	<path fill="#FFFFFF" stroke="#457747" stroke-miterlimit="10" d="M572,439.1v-26l-10.1,26h-3.3l-10.1-26v26h-7.7v-36h10.7l8.7,22.5
		l8.7-22.5h10.8v36H572z"/>
	<path fill="#FFFFFF" stroke="#457747" stroke-miterlimit="10" d="M597.6,439.1v-36h7.7v36H597.6z"/>
	<path fill="#FFFFFF" stroke="#457747" stroke-miterlimit="10" d="M648,439.1l-17.2-23.5v23.5h-7.7v-36h7.9l16.7,22.6v-22.6h7.7v36
		H648z"/>
	<path fill="#FFFFFF" stroke="#457747" stroke-miterlimit="10" d="M673.3,439.1v-36h14.2c11.3,0,19.1,7.2,19.1,18
		c0,10.9-7.8,18-19.1,18H673.3z M698.8,421c0-6.3-3.9-11.2-11.2-11.2H681v22.5h6.5C694.6,432.3,698.8,427.2,698.8,421z"/>
</g>
<g>
	<path fill="#457747" d="M487.7,407.4v-1.8l14-7.1l-14-7.2v-1.8l15.9,8.3v1.3L487.7,407.4z"/>
	<path fill="#457747" d="M502.9,407.4v-1.8l14-7.1l-14-7.2v-1.8l15.9,8.3v1.3L502.9,407.4z"/>
</g>
<g>
	<path fill="#457747" d="M239.6,407.4v-1.8l14-7.1l-14-7.2v-1.8l15.9,8.3v1.3L239.6,407.4z"/>
	<path fill="#457747" d="M254.7,407.4v-1.8l14-7.1l-14-7.2v-1.8l15.9,8.3v1.3L254.7,407.4z"/>
</g>
<g>
	<path fill="#FFFFFF" stroke="#457747" stroke-miterlimit="10" d="M47.5,392.9v-21.7H58c3.8,0,5.8,2.6,5.8,5.5c0,2.7-1.6,4.6-3.4,5
		c2.2,0.4,3.8,2.6,3.8,5.3c0,3.3-2,5.9-5.8,5.9H47.5z M59.4,377.6c0-1.3-0.9-2.3-2.3-2.3h-5.3v4.6h5.3
		C58.5,379.9,59.4,379,59.4,377.6z M59.8,386.4c0-1.4-0.9-2.5-2.5-2.5h-5.5v4.9h5.5C58.8,388.9,59.8,388,59.8,386.4z"/>
	<path fill="#FFFFFF" stroke="#457747" stroke-miterlimit="10" d="M84.2,392.9l-1.3-3.7h-8.6l-1.3,3.7h-4.8l7.7-21.7h5.3l7.7,21.7
		H84.2z M78.6,375.8l-3.1,9.3h6.2L78.6,375.8z"/>
	<path fill="#FFFFFF" stroke="#457747" stroke-miterlimit="10" d="M93.7,392.9v-21.7H98v17.6h8.5v4.1H93.7z"/>
	<path fill="#FFFFFF" stroke="#457747" stroke-miterlimit="10" d="M126.1,392.9l-1.3-3.7h-8.6l-1.3,3.7h-4.8l7.7-21.7h5.3l7.7,21.7
		H126.1z M120.6,375.8l-3.1,9.3h6.2L120.6,375.8z"/>
	<path fill="#FFFFFF" stroke="#457747" stroke-miterlimit="10" d="M149.6,392.9l-9.5-14.2v14.2h-4.3v-21.7h4.4l9.3,13.6v-13.6h4.3
		v21.7H149.6z"/>
	<path fill="#FFFFFF" stroke="#457747" stroke-miterlimit="10" d="M159.7,382.1c0-6.7,4.6-11.2,10.7-11.2c4.4,0,6.9,2.6,8.3,5.3
		l-3.7,2c-0.8-1.8-2.6-3.2-4.7-3.2c-3.7,0-6.3,3-6.3,7.1s2.6,7.1,6.3,7.1c2,0,3.8-1.4,4.7-3.2l3.7,1.9c-1.4,2.7-4,5.3-8.3,5.3
		C164.4,393.3,159.7,388.8,159.7,382.1z"/>
	<path fill="#FFFFFF" stroke="#457747" stroke-miterlimit="10" d="M184.3,392.9v-21.7h14.2v4.1h-9.9v4.6h9.7v4.1h-9.7v4.9h9.9v4.1
		H184.3z"/>
	<path fill="#FFFFFF" stroke="#457747" stroke-miterlimit="10" d="M204.8,392.9v-21.7h7.9c6.3,0,10.6,4.3,10.6,10.8
		c0,6.6-4.4,10.9-10.6,10.9H204.8z M219,382.1c0-3.8-2.2-6.8-6.2-6.8h-3.7v13.6h3.6C216.7,388.9,219,385.8,219,382.1z"/>
</g>
<g>
	<path fill="#FFFFFF" stroke="#457747" stroke-miterlimit="10" d="M292.8,392.9v-21.7h10.5c3.8,0,5.8,2.6,5.8,5.5
		c0,2.7-1.6,4.6-3.4,5c2.2,0.4,3.8,2.6,3.8,5.3c0,3.3-2,5.9-5.8,5.9H292.8z M304.7,377.6c0-1.3-0.9-2.3-2.3-2.3h-5.3v4.6h5.3
		C303.8,379.9,304.7,379,304.7,377.6z M305.1,386.4c0-1.4-0.9-2.5-2.5-2.5h-5.5v4.9h5.5C304.2,388.9,305.1,388,305.1,386.4z"/>
	<path fill="#FFFFFF" stroke="#457747" stroke-miterlimit="10" d="M329.5,392.9l-1.3-3.7h-8.6l-1.3,3.7h-4.8l7.7-21.7h5.3l7.7,21.7
		H329.5z M324,375.8l-3.1,9.3h6.2L324,375.8z"/>
	<path fill="#FFFFFF" stroke="#457747" stroke-miterlimit="10" d="M339,392.9v-21.7h4.3v17.6h8.5v4.1H339z"/>
	<path fill="#FFFFFF" stroke="#457747" stroke-miterlimit="10" d="M371.5,392.9l-1.3-3.7h-8.6l-1.3,3.7h-4.8l7.7-21.7h5.3l7.7,21.7
		H371.5z M365.9,375.8l-3.1,9.3h6.2L365.9,375.8z"/>
	<path fill="#FFFFFF" stroke="#457747" stroke-miterlimit="10" d="M395,392.9l-9.5-14.2v14.2h-4.3v-21.7h4.4l9.3,13.6v-13.6h4.3
		v21.7H395z"/>
	<path fill="#FFFFFF" stroke="#457747" stroke-miterlimit="10" d="M405.1,382.1c0-6.7,4.6-11.2,10.7-11.2c4.4,0,6.9,2.6,8.3,5.3
		l-3.7,2c-0.8-1.8-2.6-3.2-4.7-3.2c-3.7,0-6.3,3-6.3,7.1s2.6,7.1,6.3,7.1c2,0,3.8-1.4,4.7-3.2l3.7,1.9c-1.4,2.7-4,5.3-8.3,5.3
		C409.7,393.3,405.1,388.8,405.1,382.1z"/>
	<path fill="#FFFFFF" stroke="#457747" stroke-miterlimit="10" d="M429.7,392.9v-21.7h14.2v4.1h-9.9v4.6h9.7v4.1h-9.7v4.9h9.9v4.1
		H429.7z"/>
	<path fill="#FFFFFF" stroke="#457747" stroke-miterlimit="10" d="M450.1,392.9v-21.7h7.9c6.3,0,10.6,4.3,10.6,10.8
		c0,6.6-4.3,10.9-10.6,10.9H450.1z M464.3,382.1c0-3.8-2.2-6.8-6.2-6.8h-3.7v13.6h3.6C462,388.9,464.3,385.8,464.3,382.1z"/>
</g>
<g>
	<path fill="#FFFFFF" stroke="#457747" stroke-miterlimit="10" d="M535.7,392.9v-21.7h10.5c3.8,0,5.8,2.6,5.8,5.5
		c0,2.7-1.6,4.6-3.4,5c2.2,0.4,3.8,2.6,3.8,5.3c0,3.3-2,5.9-5.8,5.9H535.7z M547.7,377.6c0-1.3-0.9-2.3-2.3-2.3H540v4.6h5.3
		C546.8,379.9,547.7,379,547.7,377.6z M548.1,386.4c0-1.4-0.9-2.5-2.5-2.5H540v4.9h5.5C547.1,388.9,548.1,388,548.1,386.4z"/>
	<path fill="#FFFFFF" stroke="#457747" stroke-miterlimit="10" d="M572.4,392.9l-1.3-3.7h-8.6l-1.3,3.7h-4.8l7.7-21.7h5.3l7.7,21.7
		H572.4z M566.9,375.8l-3.1,9.3h6.2L566.9,375.8z"/>
	<path fill="#FFFFFF" stroke="#457747" stroke-miterlimit="10" d="M582,392.9v-21.7h4.3v17.6h8.5v4.1H582z"/>
	<path fill="#FFFFFF" stroke="#457747" stroke-miterlimit="10" d="M614.4,392.9l-1.3-3.7h-8.6l-1.3,3.7h-4.8l7.7-21.7h5.3l7.7,21.7
		H614.4z M608.9,375.8l-3.1,9.3h6.2L608.9,375.8z"/>
	<path fill="#FFFFFF" stroke="#457747" stroke-miterlimit="10" d="M637.9,392.9l-9.5-14.2v14.2h-4.3v-21.7h4.4l9.3,13.6v-13.6h4.3
		v21.7H637.9z"/>
	<path fill="#FFFFFF" stroke="#457747" stroke-miterlimit="10" d="M648,382.1c0-6.7,4.7-11.2,10.7-11.2c4.4,0,6.9,2.6,8.3,5.3
		l-3.7,2c-0.8-1.8-2.6-3.2-4.7-3.2c-3.7,0-6.3,3-6.3,7.1s2.6,7.1,6.3,7.1c2,0,3.8-1.4,4.7-3.2l3.7,1.9c-1.4,2.7-4,5.3-8.3,5.3
		C652.7,393.3,648,388.8,648,382.1z"/>
	<path fill="#FFFFFF" stroke="#457747" stroke-miterlimit="10" d="M672.6,392.9v-21.7h14.2v4.1h-9.9v4.6h9.7v4.1h-9.7v4.9h9.9v4.1
		H672.6z"/>
	<path fill="#FFFFFF" stroke="#457747" stroke-miterlimit="10" d="M693.1,392.9v-21.7h7.9c6.3,0,10.6,4.3,10.6,10.8
		c0,6.6-4.4,10.9-10.6,10.9H693.1z M707.2,382.1c0-3.8-2.2-6.8-6.2-6.8h-3.7v13.6h3.6C704.9,388.9,707.2,385.8,707.2,382.1z"/>
</g>
</svg>
