<?xml version="1.0" encoding="utf-8"?>
<!-- Generator: Adobe Illustrator 16.0.0, SVG Export Plug-In . SVG Version: 6.00 Build 0)  -->
<!DOCTYPE svg PUBLIC "-//W3C//DTD SVG 1.1 Tiny//EN" "http://www.w3.org/Graphics/SVG/1.1/DTD/svg11-tiny.dtd">
<svg version="1.1" baseProfile="tiny" id="Layer_1" xmlns="http://www.w3.org/2000/svg" xmlns:xlink="http://www.w3.org/1999/xlink"
	 x="0px" y="0px" width="224.505px" height="221.739px" viewBox="0 0 224.505 221.739" xml:space="preserve">
<path fill="#FFFFFF" d="M108.838,35.874c0,0,0.61,28.243-11.845,32.907c-12.462,4.665-58.078,15.07-63.878,37.176
	c0,0-19.761,44.378,35.998,67.664c0,0,15.239,7.833,23.374,6.403c8.13-1.431,5.597-2.371,13.807-0.167
	c8.216,2.202,12.586,1.114,25.111-0.543c12.52-1.656,17.489-4.276,21.896-3.746c4.403,0.537,30.424-15.774,34.53-29.341
	c4.104-13.565,13.93-52.705-28.437-66.233c0,0-27.026-1.3-30.464-15.042c-3.434-13.743-3.729-35.083-3.729-35.083
	S111.853,30.16,108.838,35.874"/>
<path fill="#067E3F" d="M99.717,166.053c0,0-13.083-39.306,6.357-83.654C106.074,82.399,61.82,126.682,99.717,166.053"/>
<path fill="#067E3F" d="M126.478,88.866c0,0,26.622,48.407,9.805,83.934C136.283,172.8,169.732,135.656,126.478,88.866"/>
<path fill="#067E3F" d="M70.45,90.076c0,0-36.465,27.164-16.163,65.657C54.287,155.733,43.469,120.173,70.45,90.076"/>
<path fill="#067E3F" d="M170.419,96.08c0,0,13.913,33.609,9.146,45.644C179.566,141.724,191.729,113.623,170.419,96.08"/>
<g>
</g>
<g>
</g>
<g>
</g>
<g>
</g>
<g>
</g>
<g>
</g>
<g>
</g>
<g>
</g>
<g>
</g>
<g>
</g>
<g>
</g>
<g>
</g>
<g>
</g>
<g>
</g>
<g>
</g>
</svg>
