<?xml version="1.0" encoding="utf-8"?>
<!-- Generator: Adobe Illustrator 16.0.0, SVG Export Plug-In . SVG Version: 6.00 Build 0)  -->
<!DOCTYPE svg PUBLIC "-//W3C//DTD SVG 1.1 Tiny//EN" "http://www.w3.org/Graphics/SVG/1.1/DTD/svg11-tiny.dtd">
<svg version="1.1" baseProfile="tiny" id="Layer_1" xmlns="http://www.w3.org/2000/svg" xmlns:xlink="http://www.w3.org/1999/xlink"
	 x="0px" y="0px" width="224.505px" height="221.739px" viewBox="0 0 224.505 221.739" xml:space="preserve">
<path fill="#FFFFFF" d="M50.536,57.486c0.775-0.258,1.516-0.561,2.302-0.761c0.918-0.237,1.477-0.668,1.804-1.358
	c0.135-0.289,0.467-0.576,0.816-0.747c1.26-0.632,2.512-1.258,3.273-2.287c0.416-0.566,1.007-0.895,1.893-0.921
	c0.219-0.005,0.5-0.093,0.641-0.216c0.833-0.727,1.595-1.508,2.456-2.221c1.21-1.002,2.467-1.965,3.735-2.926
	c1.565-1.185,3.149-2.345,4.736-3.508c0.242-0.179,0.547-0.308,0.822-0.458c2.327-1.266,4.61-2.587,7.003-3.785
	c1.582-0.792,3.311-1.421,4.989-2.108c1.907-0.773,3.799-1.565,5.74-2.284c1.939-0.71,3.939-1.332,5.911-1.995
	c1.307-0.437,2.575-0.974,3.925-1.303c3.224-0.787,6.524-1.348,9.869-1.784c2.784-0.361,5.499-0.082,8.221,0.171
	c2.861,0.271,5.705,0.663,8.527,1.105c1.072,0.169,2.062,0.616,3.075,0.956c0.836,0.279,1.656,0.577,2.464,0.895
	c0.479,0.187,0.979,0.392,1.353,0.673c1.227,0.905,2.614,1.601,4.159,2.135c2.146,0.737,3.866,1.923,5.665,3.029
	c1.261,0.764,2.559,1.493,3.906,2.161c0.572,0.284,1.293,0.426,1.975,0.544c1.667,0.295,3.032,1.034,4.357,1.779
	c1.369,0.769,2.646,1.637,3.895,2.516c2.915,2.047,5.451,4.345,7.586,6.888c0.356,0.426,0.791,0.718,1.396,0.929
	c0.319,0.113,0.621,0.345,0.792,0.582c0.634,0.89,1.349,1.703,2.454,2.311c0.912,0.503,0.885,0.529,0.352,1.419
	c-1.022-0.442-2.3-0.524-3.092-1.282c-1.402-1.331-2.749-2.708-4.175-4.021c-1.87-1.737-3.663-3.526-5.93-4.992
	c-0.413-0.269-0.814-0.561-1.155-0.879c-0.759-0.706-1.728-1.2-2.717-1.703c-0.501-0.258-0.958-0.592-1.327-0.958
	c-0.677-0.664-1.639-0.863-2.832-1.166c0.241,0.374,0.335,0.663,0.566,0.847c2.262,1.8,4.565,3.559,6.805,5.364
	c3.069,2.479,5.936,5.087,8.422,7.927c0.197,0.227,0.424,0.452,0.671,0.652c1.557,1.234,2.233,2.819,2.986,4.367
	c0.507,1.029,0.936,2.082,1.497,3.095c0.198,0.355,0.66,0.64,1.034,0.932c0.759,0.592,0.671,1.116-0.281,1.492
	c-0.219,0.082-0.439,0.163-0.803,0.303c-0.792-1.142-1.546-2.253-2.321-3.358c-0.588-0.834-1.216-1.65-1.81-2.479
	c-0.506-0.711-1.084-1.403-1.464-2.146c-0.918-1.784-2.558-3.153-4.246-4.511c-0.452-0.363-0.853-0.76-1.238-1.171
	c-2.034-2.155-4.032-4.337-6.105-6.477c-0.545-0.563-1.276-1.037-2.008-1.468c-1.023-0.598-1.76-1.342-2.299-2.203
	c-0.424-0.674-1.084-1.171-1.843-1.624c-0.875-0.521-1.7-1.092-2.526-1.658c-1.104-0.766-2.249-1.479-3.564-2.061
	c-1.776-0.787-3.53-1.637-5.181-2.577c-3.124-1.779-6.706-2.779-10.343-3.755c-2.117-0.576-4.301-0.679-6.473-0.911
	c-1.557-0.168-3.125-0.319-4.682-0.384c-0.756-0.026-1.518,0.189-2.283,0.25c-1.854,0.145-3.707,0.263-5.561,0.403
	c-0.383,0.026-0.759,0.103-1.13,0.179c-1.645,0.329-3.29,0.658-4.935,0.998c-0.344,0.068-0.709,0.15-1.004,0.3
	c-2.8,1.429-5.795,2.571-8.859,3.65c-1.788,0.629-3.449,1.466-5.154,2.221c-1.295,0.577-2.569,1.174-3.859,1.755
	c-0.17,0.082-0.349,0.169-0.542,0.216c-1.747,0.427-3.215,1.187-4.563,2.108c-0.388,0.258-0.822,0.505-1.29,0.668
	c-2.088,0.716-3.565,1.914-4.775,3.353c-0.354,0.423-0.801,0.845-1.332,1.142c-2.693,1.487-4.978,3.271-6.893,5.329
	c-0.132,0.143-0.267,0.308-0.451,0.374c-1.972,0.706-3.482,1.864-5.094,2.922c-1.205,0.792-2.49,1.508-3.752,2.247
	c-0.979,0.566-1.452,0.474-1.963-0.368C50.698,57.768,50.643,57.671,50.536,57.486"/>
<path fill="none" stroke="#FFFFFF" stroke-width="0.5" stroke-miterlimit="10" d="M50.536,57.486
	c0.775-0.258,1.516-0.561,2.302-0.761c0.918-0.237,1.477-0.668,1.804-1.358c0.135-0.289,0.467-0.576,0.816-0.747
	c1.26-0.632,2.512-1.258,3.273-2.287c0.416-0.566,1.007-0.895,1.893-0.921c0.219-0.005,0.5-0.093,0.641-0.216
	c0.833-0.727,1.595-1.508,2.456-2.221c1.21-1.002,2.467-1.965,3.735-2.926c1.565-1.185,3.149-2.345,4.736-3.508
	c0.242-0.179,0.547-0.308,0.822-0.458c2.327-1.266,4.61-2.587,7.003-3.785c1.582-0.792,3.311-1.421,4.989-2.108
	c1.907-0.773,3.799-1.565,5.74-2.284c1.939-0.71,3.939-1.332,5.911-1.995c1.307-0.437,2.575-0.974,3.925-1.303
	c3.224-0.787,6.524-1.348,9.869-1.784c2.784-0.361,5.499-0.082,8.221,0.171c2.861,0.271,5.705,0.663,8.527,1.105
	c1.072,0.169,2.062,0.616,3.075,0.956c0.836,0.279,1.656,0.577,2.464,0.895c0.479,0.187,0.979,0.392,1.353,0.673
	c1.227,0.905,2.614,1.601,4.159,2.135c2.146,0.737,3.866,1.923,5.665,3.029c1.261,0.764,2.559,1.493,3.906,2.161
	c0.572,0.284,1.293,0.426,1.975,0.544c1.667,0.295,3.032,1.034,4.357,1.779c1.369,0.769,2.646,1.637,3.895,2.516
	c2.915,2.047,5.451,4.345,7.586,6.888c0.356,0.426,0.791,0.718,1.396,0.929c0.319,0.113,0.621,0.345,0.792,0.582
	c0.634,0.89,1.349,1.703,2.454,2.311c0.912,0.503,0.885,0.529,0.352,1.419c-1.022-0.442-2.3-0.524-3.092-1.282
	c-1.402-1.331-2.749-2.708-4.175-4.021c-1.87-1.737-3.663-3.526-5.93-4.992c-0.413-0.269-0.814-0.561-1.155-0.879
	c-0.759-0.706-1.728-1.2-2.717-1.703c-0.501-0.258-0.958-0.592-1.327-0.958c-0.677-0.664-1.639-0.863-2.832-1.166
	c0.241,0.374,0.335,0.663,0.566,0.847c2.262,1.8,4.565,3.559,6.805,5.364c3.069,2.479,5.936,5.087,8.422,7.927
	c0.197,0.227,0.424,0.452,0.671,0.652c1.557,1.234,2.233,2.819,2.986,4.367c0.507,1.029,0.936,2.082,1.497,3.095
	c0.198,0.355,0.66,0.64,1.034,0.932c0.759,0.592,0.671,1.116-0.281,1.492c-0.219,0.082-0.439,0.163-0.803,0.303
	c-0.792-1.142-1.546-2.253-2.321-3.358c-0.588-0.834-1.216-1.65-1.81-2.479c-0.506-0.711-1.084-1.403-1.464-2.146
	c-0.918-1.784-2.558-3.153-4.246-4.511c-0.452-0.363-0.853-0.76-1.238-1.171c-2.034-2.155-4.032-4.337-6.105-6.477
	c-0.545-0.563-1.276-1.037-2.008-1.468c-1.023-0.598-1.76-1.342-2.299-2.203c-0.424-0.674-1.084-1.171-1.843-1.624
	c-0.875-0.521-1.7-1.092-2.526-1.658c-1.104-0.766-2.249-1.479-3.564-2.061c-1.776-0.787-3.53-1.637-5.181-2.577
	c-3.124-1.779-6.706-2.779-10.343-3.755c-2.117-0.576-4.301-0.679-6.473-0.911c-1.557-0.168-3.125-0.319-4.682-0.384
	c-0.756-0.026-1.518,0.189-2.283,0.25c-1.854,0.145-3.707,0.263-5.561,0.403c-0.383,0.026-0.759,0.103-1.13,0.179
	c-1.645,0.329-3.29,0.658-4.935,0.998c-0.344,0.068-0.709,0.15-1.004,0.3c-2.8,1.429-5.795,2.571-8.859,3.65
	c-1.788,0.629-3.449,1.466-5.154,2.221c-1.295,0.577-2.569,1.174-3.859,1.755c-0.17,0.082-0.349,0.169-0.542,0.216
	c-1.747,0.427-3.215,1.187-4.563,2.108c-0.388,0.258-0.822,0.505-1.29,0.668c-2.088,0.716-3.565,1.914-4.775,3.353
	c-0.354,0.423-0.801,0.845-1.332,1.142c-2.693,1.487-4.978,3.271-6.893,5.329c-0.132,0.143-0.267,0.308-0.451,0.374
	c-1.972,0.706-3.482,1.864-5.094,2.922c-1.205,0.792-2.49,1.508-3.752,2.247c-0.979,0.566-1.452,0.474-1.963-0.368
	C50.698,57.768,50.643,57.671,50.536,57.486z"/>
<path fill="#FFFFFF" d="M62.107,39.227c-0.528-0.992-0.316-1.505,0.376-2c0.913-0.668,1.793-1.439,2.591-2.284
	c0.396-0.421,0.564-1.137,0.87-1.692c0.167-0.313,0.371-0.734,0.624-0.821c2.586-0.916,4.8-2.758,7.229-4.058
	c0.608-0.324,1.307-0.41,1.964-0.587c0.368-0.097,0.822-0.026,1.1-0.258c2.473-2.061,5.231-3.348,8.067-4.442
	c1.947-0.75,3.897-1.519,5.874-2.15c1.109-0.355,2.275-0.416,3.414-0.647c0.421-0.086,0.883-0.166,1.237-0.426
	c1.188-0.889,2.514-0.958,3.843-1.044c1.972-0.129,3.949-0.171,5.908-0.417c0.847-0.103,1.645-0.645,2.486-0.926
	c0.371-0.124,0.823-0.231,1.164-0.097c1.939,0.735,3.917,0.905,5.919,0.874c3.499-0.047,6.969,0.287,10.363,1.332
	c1.166,0.355,2.277,0.921,3.422,1.368c0.286,0.108,0.61,0.242,0.891,0.19c1.981-0.395,3.867,0.052,5.732,0.813
	c0.374,0.155,0.809,0.237,1.204,0.195c1.898-0.2,3.725,0.305,5.539,0.792c0.897,0.242,1.755,0.869,2.547,1.477
	c1.42,1.079,2.91,1.944,4.539,2.426c2.954,0.866,5.479,2.866,8.175,4.403c2.161,1.234,4.037,2.871,5.73,4.866
	c0.121,0.145,0.227,0.313,0.446,0.637c-0.291,0-0.474,0.069-0.566-0.011c-3.449-2.96-7.63-3.811-11.442-5.734
	c-2.85-1.445-5.804-2.571-8.708-3.882c-0.688-0.308-1.358-0.721-1.985-1.182c-1.711-1.231-3.504-1.895-5.533-1.853
	c-1.706,0.038-3.433-0.058-5.127-0.366c-0.918-0.163-1.821-0.766-2.629-1.369c-0.914-0.681-1.716-0.918-2.656-0.131
	c-0.226,0.194-0.639,0.2-0.941,0.137c-3.801-0.797-7.597-1.698-11.415-2.4c-1.193-0.221-2.451,0.092-3.678,0.128
	c-1.848,0.061-3.688,0.087-5.536,0.158c-0.451,0.016-0.918,0.092-1.342,0.269c-1.474,0.621-2.923,1.342-4.404,1.923
	c-0.607,0.237-1.301,0.351-1.938,0.271c-1.054-0.129-2.01-0.066-2.924,0.679c-1.141,0.926-2.388,1.534-3.823,1.292
	c-0.188-0.032-0.457,0.016-0.575,0.163c-0.896,1.105-2.033,1.071-3.155,0.921c-0.946-0.124-1.655,0.242-2.197,1.116
	c-1.07,1.74-2.55,2.516-4.286,2.808c-1.538,0.264-2.918,0.998-4.241,2.011c-1.504,1.158-3.154,1.977-4.874,2.664
	c-1.329,0.526-2.517,1.574-3.757,2.413C64.45,37.571,63.29,38.403,62.107,39.227"/>
<path fill="none" stroke="#FFFFFF" stroke-width="0.5" stroke-miterlimit="10" d="M62.107,39.227c-0.528-0.992-0.316-1.505,0.376-2
	c0.913-0.668,1.793-1.439,2.591-2.284c0.396-0.421,0.564-1.137,0.87-1.692c0.167-0.313,0.371-0.734,0.624-0.821
	c2.586-0.916,4.8-2.758,7.229-4.058c0.608-0.324,1.307-0.41,1.964-0.587c0.368-0.097,0.822-0.026,1.1-0.258
	c2.473-2.061,5.231-3.348,8.067-4.442c1.947-0.75,3.897-1.519,5.874-2.15c1.109-0.355,2.275-0.416,3.414-0.647
	c0.421-0.086,0.883-0.166,1.237-0.426c1.188-0.889,2.514-0.958,3.843-1.044c1.972-0.129,3.949-0.171,5.908-0.417
	c0.847-0.103,1.645-0.645,2.486-0.926c0.371-0.124,0.823-0.231,1.164-0.097c1.939,0.735,3.917,0.905,5.919,0.874
	c3.499-0.047,6.969,0.287,10.363,1.332c1.166,0.355,2.277,0.921,3.422,1.368c0.286,0.108,0.61,0.242,0.891,0.19
	c1.981-0.395,3.867,0.052,5.732,0.813c0.374,0.155,0.809,0.237,1.204,0.195c1.898-0.2,3.725,0.305,5.539,0.792
	c0.897,0.242,1.755,0.869,2.547,1.477c1.42,1.079,2.91,1.944,4.539,2.426c2.954,0.866,5.479,2.866,8.175,4.403
	c2.161,1.234,4.037,2.871,5.73,4.866c0.121,0.145,0.227,0.313,0.446,0.637c-0.291,0-0.474,0.069-0.566-0.011
	c-3.449-2.96-7.63-3.811-11.442-5.734c-2.85-1.445-5.804-2.571-8.708-3.882c-0.688-0.308-1.358-0.721-1.985-1.182
	c-1.711-1.231-3.504-1.895-5.533-1.853c-1.706,0.038-3.433-0.058-5.127-0.366c-0.918-0.163-1.821-0.766-2.629-1.369
	c-0.914-0.681-1.716-0.918-2.656-0.131c-0.226,0.194-0.639,0.2-0.941,0.137c-3.801-0.797-7.597-1.698-11.415-2.4
	c-1.193-0.221-2.451,0.092-3.678,0.128c-1.848,0.061-3.688,0.087-5.536,0.158c-0.451,0.016-0.918,0.092-1.342,0.269
	c-1.474,0.621-2.923,1.342-4.404,1.923c-0.607,0.237-1.301,0.351-1.938,0.271c-1.054-0.129-2.01-0.066-2.924,0.679
	c-1.141,0.926-2.388,1.534-3.823,1.292c-0.188-0.032-0.457,0.016-0.575,0.163c-0.896,1.105-2.033,1.071-3.155,0.921
	c-0.946-0.124-1.655,0.242-2.197,1.116c-1.07,1.74-2.55,2.516-4.286,2.808c-1.538,0.264-2.918,0.998-4.241,2.011
	c-1.504,1.158-3.154,1.977-4.874,2.664c-1.329,0.526-2.517,1.574-3.757,2.413C64.45,37.571,63.29,38.403,62.107,39.227z"/>
<path fill="#FFFFFF" d="M50.753,57.86c0,0-1.881,4.09,1.472,1.998c3.344-2.095,10.746-3.626,11.45-5.303
	c0.704-1.682,2.816-3.369,3.875-4.542c1.059-1.182,4.761-2.735,6.874-4.74c2.112-2.008,11.788-4.105,14.882-6.429
	c3.086-2.321,11.896-4.84,18.065-5.94c6.166-1.105,15.503-2.785,21.847,0.75c6.343,3.542,11.431,5.556,14.258,7.837
	c2.834,2.279,2.602,1.1,9.852,8.688c7.25,7.585,15.184,14.112,15.827,15.049c0.638,0.932,0.329,1.974,1.139,1.666
	c0.808-0.308,0.055-2.727,0.055-2.727l-3.587-6.598l-8.339-8.08l-9.026-7.572c0,0-17.934-10.583-20.062-11.195
	c-2.134-0.622-18.882-1.897-18.882-1.897l-13.796,3.09l-17.699,6.929L68.785,45.72L50.753,57.86z"/>
<path fill="none" stroke="#FFFFFF" stroke-width="0.5" stroke-miterlimit="10" d="M50.753,57.86c0,0-1.881,4.09,1.472,1.998
	c3.344-2.095,10.746-3.626,11.45-5.303c0.704-1.682,2.816-3.369,3.875-4.542c1.059-1.182,4.761-2.735,6.874-4.74
	c2.112-2.008,11.788-4.105,14.882-6.429c3.086-2.321,11.896-4.84,18.065-5.94c6.166-1.105,15.503-2.785,21.847,0.75
	c6.343,3.542,11.431,5.556,14.258,7.837c2.834,2.279,2.602,1.1,9.852,8.688c7.25,7.585,15.184,14.112,15.827,15.049
	c0.638,0.932,0.329,1.974,1.139,1.666c0.808-0.308,0.055-2.727,0.055-2.727l-3.587-6.598l-8.339-8.08l-9.026-7.572
	c0,0-17.934-10.583-20.062-11.195c-2.134-0.622-18.882-1.897-18.882-1.897l-13.796,3.09l-17.699,6.929L68.785,45.72L50.753,57.86z"
	/>
<path fill="#FFFFFF" d="M146.083,39.972c0,0,3.69-0.921,7.244,0.766c3.554,1.682,7.063,5.812,7.063,5.812l4.945,3.292l4.054,4.711
	v1.187"/>
<path fill="none" stroke="#FFFFFF" stroke-width="0.5" stroke-miterlimit="10" d="M146.083,39.972c0,0,3.69-0.921,7.244,0.766
	c3.554,1.682,7.063,5.812,7.063,5.812l4.945,3.292l4.054,4.711v1.187"/>
<path fill="#FFFFFF" d="M62.481,37.224c0,0,1.966-6.506,7.544-8.953c5.57-2.453,12.25-4.938,12.25-4.938s9.062-5.982,13.057-6.019
	c3.993-0.039,12.685-0.939,12.685-0.939s7.047-0.895,7.987,0c0.936,0.9,9.131,3.203,9.131,3.203l4.312,1.558l11.156-0.487
	c0,0,1.562,0.174,5.473,3.369c3.923,3.192,11.107,7.229,11.107,7.229l2.128,2.964l-15.837-8.127l-21.128-5.435l-17.141-2.247
	l-14.341,4.932l-8.083,3.547L62.481,37.224z"/>
<path fill="none" stroke="#FFFFFF" stroke-width="0.5" stroke-miterlimit="10" d="M62.481,37.224c0,0,1.966-6.506,7.544-8.953
	c5.57-2.453,12.25-4.938,12.25-4.938s9.062-5.982,13.057-6.019c3.993-0.039,12.685-0.939,12.685-0.939s7.047-0.895,7.987,0
	c0.936,0.9,9.131,3.203,9.131,3.203l4.312,1.558l11.156-0.487c0,0,1.562,0.174,5.473,3.369c3.923,3.192,11.107,7.229,11.107,7.229
	l2.128,2.964l-15.837-8.127l-21.128-5.435l-17.141-2.247l-14.341,4.932l-8.083,3.547L62.481,37.224z"/>
<path fill="#FFFFFF" d="M174.362,168.965c0,0,1.883-4.09-1.474-2c-3.345,2.1-10.749,3.626-11.452,5.3
	c-0.704,1.685-2.817,3.369-3.873,4.548c-1.062,1.18-4.759,2.732-6.87,4.737c-2.113,2.011-11.795,4.105-14.886,6.433
	c-3.086,2.32-11.893,4.837-18.064,5.938c-6.167,1.105-15.507,2.79-21.85-0.748c-6.342-3.543-11.428-5.558-14.255-7.837
	c-2.833-2.279-2.602-1.101-9.852-8.69c-7.25-7.58-15.18-14.106-15.824-15.049c-0.641-0.932-0.333-1.974-1.144-1.669
	c-0.803,0.311-0.049,2.731-0.049,2.731l3.581,6.597l8.345,8.079l9.021,7.574c0,0,17.936,10.58,20.064,11.19
	c2.137,0.621,18.882,1.9,18.882,1.9l13.797-3.09l17.695-6.927l10.177-6.874L174.362,168.965z"/>
<path fill="none" stroke="#FFFFFF" stroke-width="0.5" stroke-miterlimit="10" d="M174.362,168.965c0,0,1.883-4.09-1.474-2
	c-3.345,2.1-10.749,3.626-11.452,5.3c-0.704,1.685-2.817,3.369-3.873,4.548c-1.062,1.18-4.759,2.732-6.87,4.737
	c-2.113,2.011-11.795,4.105-14.886,6.433c-3.086,2.32-11.893,4.837-18.064,5.938c-6.167,1.105-15.507,2.79-21.85-0.748
	c-6.342-3.543-11.428-5.558-14.255-7.837c-2.833-2.279-2.602-1.101-9.852-8.69c-7.25-7.58-15.18-14.106-15.824-15.049
	c-0.641-0.932-0.333-1.974-1.144-1.669c-0.803,0.311-0.049,2.731-0.049,2.731l3.581,6.597l8.345,8.079l9.021,7.574
	c0,0,17.936,10.58,20.064,11.19c2.137,0.621,18.882,1.9,18.882,1.9l13.797-3.09l17.695-6.927l10.177-6.874L174.362,168.965z"/>
<path fill="#FFFFFF" d="M162.629,184.966c0,0-1.964,6.506-7.542,8.954c-5.566,2.452-12.25,4.937-12.25,4.937
	s-9.06,5.979-13.054,6.021c-4,0.037-12.69,0.938-12.69,0.938s-7.044,0.895-7.984,0c-0.935-0.9-9.132-3.2-9.132-3.2l-4.315-1.559
	l-11.153,0.484c0,0-1.56-0.174-5.474-3.369c-3.922-3.188-11.104-7.231-11.104-7.231l-2.129-2.958l15.834,8.127l21.129,5.432
	l17.138,2.248l14.346-4.933l8.082-3.548L162.629,184.966z"/>
<path fill="none" stroke="#FFFFFF" stroke-width="0.5" stroke-miterlimit="10" d="M162.629,184.966c0,0-1.964,6.506-7.542,8.954
	c-5.566,2.452-12.25,4.937-12.25,4.937s-9.06,5.979-13.054,6.021c-4,0.037-12.69,0.938-12.69,0.938s-7.044,0.895-7.984,0
	c-0.935-0.9-9.132-3.2-9.132-3.2l-4.315-1.559l-11.153,0.484c0,0-1.56-0.174-5.474-3.369c-3.922-3.188-11.104-7.231-11.104-7.231
	l-2.129-2.958l15.834,8.127l21.129,5.432l17.138,2.248l14.346-4.933l8.082-3.548L162.629,184.966z"/>
<path fill="#FFFFFF" d="M126.291,112.868c0.484-1.095,1.442-3.127,1.634-3.935c0.203-0.809,0.44-2.541-0.148-4.016
	c-0.6-1.473-2.778-5.386-3.692-7.223c-0.913-1.834-1.821-3.321-2.761-3.984c-0.936-0.658-3.95-2.706-5.298-2.958
	c-1.347-0.253-3.911-0.55-5.729-0.324c-1.826,0.227-6.023,1.079-7.572,1.719c-1.554,0.642-5.108,2.54-5.256,6.398
	c-0.146,3.86,1.557,11.863,1.466,13.885c-0.096,2.026,0.759,3.78,2.074,6.394c1.312,2.615,6.1,10.379,9.074,13.026
	c2.968,2.653,3.661,3.395,4.976,4.127c1.315,0.727,4.725,2.252,5.93,3.137c1.199,0.88,2.91,0.484,4.901,0.221
	c1.986-0.268,4.186-0.268,6.244-3.053c2.057-2.779,5.714-7.379,6.215-8.91c0.506-1.532,1.343-5.954,2.185-7.385
	c0.847-1.428,0.835-3.159,1.133-1.779c0.302,1.39,0.187,4.722-0.621,6.705c-0.804,1.979-2.899,6.032-3.516,6.885
	c-0.61,0.854-2.701,3.043-3.372,3.812c-0.671,0.758-1.667,2.531-2.289,3.432c-0.622,0.896-1.931,3.095-8.097,2.779
	c0,0-2.976,0.663-6.827-1.8c-3.861-2.464-7.066-4.838-8.061-5.79c-0.999-0.948-8.455-7.801-10.749-14.465
	c-2.286-6.656-3.729-11.027-3.344-12.56c0.382-1.528-1.224-8.784,0.354-11.129c1.571-2.337,2.201-4.151,5.845-5.73
	c3.639-1.584,8.777-4.382,12.479-3.54c3.697,0.84,5.896,1.94,8.28,4.048c2.376,2.108,4.669,5.396,5.813,7.503
	c1.145,2.105,3.438,7.249,2.817,9.522c-0.616,2.276-1.656,4.711-2.333,5.635c0,0-3.972,7.745-7.146,3.41
	c-3.179-4.329-7.759-7.082-6.684-10.266c1.084-3.182,4.566-5.631,4.714-3.83c0.154,1.8-1.667,1.661-1.964,3.25
	c-0.308,1.593,0.358,3.023,1.162,4.047C118.931,111.148,125.102,115.541,126.291,112.868"/>
<path fill="none" stroke="#FFFFFF" stroke-width="0.5" stroke-miterlimit="10" d="M126.291,112.868
	c0.484-1.095,1.442-3.127,1.634-3.935c0.203-0.809,0.44-2.541-0.148-4.016c-0.6-1.473-2.778-5.386-3.692-7.223
	c-0.913-1.834-1.821-3.321-2.761-3.984c-0.936-0.658-3.95-2.706-5.298-2.958c-1.347-0.253-3.911-0.55-5.729-0.324
	c-1.826,0.227-6.023,1.079-7.572,1.719c-1.554,0.642-5.108,2.54-5.256,6.398c-0.146,3.86,1.557,11.863,1.466,13.885
	c-0.096,2.026,0.759,3.78,2.074,6.394c1.312,2.615,6.1,10.379,9.074,13.026c2.968,2.653,3.661,3.395,4.976,4.127
	c1.315,0.727,4.725,2.252,5.93,3.137c1.199,0.88,2.91,0.484,4.901,0.221c1.986-0.268,4.186-0.268,6.244-3.053
	c2.057-2.779,5.714-7.379,6.215-8.91c0.506-1.532,1.343-5.954,2.185-7.385c0.847-1.428,0.835-3.159,1.133-1.779
	c0.302,1.39,0.187,4.722-0.621,6.705c-0.804,1.979-2.899,6.032-3.516,6.885c-0.61,0.854-2.701,3.043-3.372,3.812
	c-0.671,0.758-1.667,2.531-2.289,3.432c-0.622,0.896-1.931,3.095-8.097,2.779c0,0-2.976,0.663-6.827-1.8
	c-3.861-2.464-7.066-4.838-8.061-5.79c-0.999-0.948-8.455-7.801-10.749-14.465c-2.286-6.656-3.729-11.027-3.344-12.56
	c0.382-1.528-1.224-8.784,0.354-11.129c1.571-2.337,2.201-4.151,5.845-5.73c3.639-1.584,8.777-4.382,12.479-3.54
	c3.697,0.84,5.896,1.94,8.28,4.048c2.376,2.108,4.669,5.396,5.813,7.503c1.145,2.105,3.438,7.249,2.817,9.522
	c-0.616,2.276-1.656,4.711-2.333,5.635c0,0-3.972,7.745-7.146,3.41c-3.179-4.329-7.759-7.082-6.684-10.266
	c1.084-3.182,4.566-5.631,4.714-3.83c0.154,1.8-1.667,1.661-1.964,3.25c-0.308,1.593,0.358,3.023,1.162,4.047
	C118.931,111.148,125.102,115.541,126.291,112.868z"/>
<path fill="#FFFFFF" d="M132.579,111.623c2.426-1.603,1.826-10.225,1.742-13.067c-0.071-2.84-6.292-11.001-8.932-13.656
	c-2.641-2.653-7.482-3.369-11.954-5.029s-2.302-0.485-8.779,0.426c-6.48,0.911-9.668,4.435-12.679,7.135
	c-3.014,2.694-3.111,7.498-3.111,9.524c0,2.021,1.268,15.34,1.46,17.614c0.195,2.279,2.134,6.574,3.012,10.459
	c0.875,3.874,2.714,3.874,4.562,5.306c1.849,1.432,4.033,6.601,6.607,8.348c2.569,1.747,5.633,4.632,11.848,6.407
	c6.217,1.763,12.141,0.33,15.254-0.343c3.103-0.674,10.584-9.106,12.608-11.38c2.029-2.274,6.622-11.569,7.079-12.986
	c0.463-1.413,0.534-3.516,0.318-6.241c-0.22-2.732-0.482-4.625,0.446-7.493c0.93-2.872-1.32-8.596-1.419-8.936
	c-0.099-0.334-1.21-6.695-1.749-8.933c-0.534-2.237-5.81-8.035-5.81-8.035c-0.061-0.137-0.104-0.255-0.137-0.358
	c-0.501-1.544,1.127,0.179,1.271,0.806c0.159,0.673,4.24,3.492,5.913,6.542c1.661,3.05,3.251,5.584,3.778,8.78
	c0.523,3.189,1.354,4.938,1.14,7.493c-0.22,2.556-0.039,3.487-0.341,5.087c-0.303,1.6-0.776,6.984-0.183,9.34
	c0.6,2.363-3.592,11.627-5.099,14.543c-1.519,2.916-12.272,12.043-14.357,13.36c-2.085,1.311-11.541,3.126-16.266,2.979
	c-4.725-0.137-10.218-3.974-13.444-5.132c-3.234-1.163-5.638-5.58-7.319-7.301c-1.678-1.727-6.527-7.695-8.161-10.695
	c-1.634-3.001-3.234-7.209-4.472-11.698c-1.247-4.49-1.203-7.922,0-11.28c1.193-3.358,0.033-8.021,0.877-13.412
	c0.844-5.396,4.04-6.162,7.147-7.837c3.111-1.669,7.188-4.312,15.045-5.206c7.861-0.89,15.589,4.311,17.415,5.461
	c1.832,1.153,4.78,4.263,6.414,6.295c1.64,2.031,4.764,9.5,5.243,12.32c0.479,2.826-2.113,12.58-2.002,13.546
	c0,0-1.035,13.138-5.425,14.728c-4.384,1.589-10.374,4.916-16.609-2.316c-6.235-7.242-8.202-14.043-8.202-15.349
	c0-1.305,1.815-4.197,3.782-1.734c1.963,2.456,2.527,5.355,5.126,9.556c2.591,4.201,5.766,8.828,10.612,6.222
	C129.668,122.877,132.579,111.623,132.579,111.623"/>
<path fill="none" stroke="#FFFFFF" stroke-width="0.5" stroke-miterlimit="10" d="M132.579,111.623
	c2.426-1.603,1.826-10.225,1.742-13.067c-0.071-2.84-6.292-11.001-8.932-13.656c-2.641-2.653-7.482-3.369-11.954-5.029
	s-2.302-0.485-8.779,0.426c-6.48,0.911-9.668,4.435-12.679,7.135c-3.014,2.694-3.111,7.498-3.111,9.524
	c0,2.021,1.268,15.34,1.46,17.614c0.195,2.279,2.134,6.574,3.012,10.459c0.875,3.874,2.714,3.874,4.562,5.306
	c1.849,1.432,4.033,6.601,6.607,8.348c2.569,1.747,5.633,4.632,11.848,6.407c6.217,1.763,12.141,0.33,15.254-0.343
	c3.103-0.674,10.584-9.106,12.608-11.38c2.029-2.274,6.622-11.569,7.079-12.986c0.463-1.413,0.534-3.516,0.318-6.241
	c-0.22-2.732-0.482-4.625,0.446-7.493c0.93-2.872-1.32-8.596-1.419-8.936c-0.099-0.334-1.21-6.695-1.749-8.933
	c-0.534-2.237-5.81-8.035-5.81-8.035c-0.061-0.137-0.104-0.255-0.137-0.358c-0.501-1.544,1.127,0.179,1.271,0.806
	c0.159,0.673,4.24,3.492,5.913,6.542c1.661,3.05,3.251,5.584,3.778,8.78c0.523,3.189,1.354,4.938,1.14,7.493
	c-0.22,2.556-0.039,3.487-0.341,5.087c-0.303,1.6-0.776,6.984-0.183,9.34c0.6,2.363-3.592,11.627-5.099,14.543
	c-1.519,2.916-12.272,12.043-14.357,13.36c-2.085,1.311-11.541,3.126-16.266,2.979c-4.725-0.137-10.218-3.974-13.444-5.132
	c-3.234-1.163-5.638-5.58-7.319-7.301c-1.678-1.727-6.527-7.695-8.161-10.695c-1.634-3.001-3.234-7.209-4.472-11.698
	c-1.247-4.49-1.203-7.922,0-11.28c1.193-3.358,0.033-8.021,0.877-13.412c0.844-5.396,4.04-6.162,7.147-7.837
	c3.111-1.669,7.188-4.312,15.045-5.206c7.861-0.89,15.589,4.311,17.415,5.461c1.832,1.153,4.78,4.263,6.414,6.295
	c1.64,2.031,4.764,9.5,5.243,12.32c0.479,2.826-2.113,12.58-2.002,13.546c0,0-1.035,13.138-5.425,14.728
	c-4.384,1.589-10.374,4.916-16.609-2.316c-6.235-7.242-8.202-14.043-8.202-15.349c0-1.305,1.815-4.197,3.782-1.734
	c1.963,2.456,2.527,5.355,5.126,9.556c2.591,4.201,5.766,8.828,10.612,6.222C129.668,122.877,132.579,111.623,132.579,111.623z"/>
<path fill="#FFFFFF" d="M145.604,102.017c0,0-0.165-8.943-1.386-12.172c-1.228-3.227-4.115-8.94-5.216-10.925
	c-1.099-1.982-11.431-14.93-25.468-14.417c-14.039,0.51-14.137,2.748-15.861,3.34c-1.725,0.6-3.919,3.706-6.761,4.566
	c-2.838,0.863-5.468,4.35-6.183,5.769c-0.715,1.411-2.644,3.945-4.406,5.798c-1.763,1.855-5.812,5.99-6.343,8.43
	c0,0-5.671,13.609-3.435,20.735c2.242,7.13,2.189,14.151,4.321,18.042c2.123,3.895,3.254,7.08,3.785,7.585
	c0.528,0.51,3.688,8.316,7.311,10.285c3.628,1.969,5.971,6.006,9.374,6.458s1.763-1.016,5.578,1.742
	c3.812,2.759,15.064,6.774,18.876,6.812c3.802,0.042,9.841-0.18,11.964-1.78c2.13-1.599,7.262-5.415,9.209-6.842
	c1.947-1.432,2.895-2.658,4.643-3.353c1.743-0.695,0.984,0.089,2.827-1.68c1.843-1.758,5.237-5.147,7.768-10.295
	c2.53-5.138,2.486-6.791,2.233-10.686c-0.259-3.896-0.336-6.553-0.021-7.99c0.323-1.442,1.122-4.655,0.835-8.972
	c-0.285-4.319-1.793-11.201-2.65-10.785c-0.858,0.421-1.832,1.095-1.387,6.49c0.435,5.395,0.456,11.298,0.528,15.425
	c0.065,4.126,0.33,13.854-8.39,21.938c-8.718,8.085-15.302,13.928-20.243,13.97c-4.945,0.042-6.7-1.348-11.275-2.448
	c-4.58-1.095-11.352-3.184-13.948-4.963c-2.602-1.784-7.52-4.938-9.126-6.559c-1.606-1.621-5.192-6.559-6.675-8.812
	c-1.48-2.242-8.573-9.843-8.573-20.378s-0.022-22.917,3.347-25.881c3.367-2.958,12.773-17.446,21.759-19.975
	c8.985-2.527,11.28-0.505,14.36-0.166c3.086,0.334,5.022,1.966,7.574,2.537c2.558,0.576,3.103,1.137,5.358,3.881
	c2.255,2.737,6.034,5.314,7.981,10.462c1.948,5.147,4.171,4.905,4.538,8.742C142.799,99.785,145.351,107.654,145.604,102.017"/>
<path fill="none" stroke="#FFFFFF" stroke-width="0.5" stroke-miterlimit="10" d="M145.604,102.017c0,0-0.165-8.943-1.386-12.172
	c-1.228-3.227-4.115-8.94-5.216-10.925c-1.099-1.982-11.431-14.93-25.468-14.417c-14.039,0.51-14.137,2.748-15.861,3.34
	c-1.725,0.6-3.919,3.706-6.761,4.566c-2.838,0.863-5.468,4.35-6.183,5.769c-0.715,1.411-2.644,3.945-4.406,5.798
	c-1.763,1.855-5.812,5.99-6.343,8.43c0,0-5.671,13.609-3.435,20.735c2.242,7.13,2.189,14.151,4.321,18.042
	c2.123,3.895,3.254,7.08,3.785,7.585c0.528,0.51,3.688,8.316,7.311,10.285c3.628,1.969,5.971,6.006,9.374,6.458
	s1.763-1.016,5.578,1.742c3.812,2.759,15.064,6.774,18.876,6.812c3.802,0.042,9.841-0.18,11.964-1.78
	c2.13-1.599,7.262-5.415,9.209-6.842c1.947-1.432,2.895-2.658,4.643-3.353c1.743-0.695,0.984,0.089,2.827-1.68
	c1.843-1.758,5.237-5.147,7.768-10.295c2.53-5.138,2.486-6.791,2.233-10.686c-0.259-3.896-0.336-6.553-0.021-7.99
	c0.323-1.442,1.122-4.655,0.835-8.972c-0.285-4.319-1.793-11.201-2.65-10.785c-0.858,0.421-1.832,1.095-1.387,6.49
	c0.435,5.395,0.456,11.298,0.528,15.425c0.065,4.126,0.33,13.854-8.39,21.938c-8.718,8.085-15.302,13.928-20.243,13.97
	c-4.945,0.042-6.7-1.348-11.275-2.448c-4.58-1.095-11.352-3.184-13.948-4.963c-2.602-1.784-7.52-4.938-9.126-6.559
	c-1.606-1.621-5.192-6.559-6.675-8.812c-1.48-2.242-8.573-9.843-8.573-20.378s-0.022-22.917,3.347-25.881
	c3.367-2.958,12.773-17.446,21.759-19.975c8.985-2.527,11.28-0.505,14.36-0.166c3.086,0.334,5.022,1.966,7.574,2.537
	c2.558,0.576,3.103,1.137,5.358,3.881c2.255,2.737,6.034,5.314,7.981,10.462c1.948,5.147,4.171,4.905,4.538,8.742
	C142.799,99.785,145.351,107.654,145.604,102.017z"/>
<path fill="#FFFFFF" d="M63.71,91.21c2.14-5.259,9.981-12.58,13.254-15.178c3.273-2.603,12.493-10.488,20.598-13.862
	c8.1-3.368,7.572-1.568,16.189-2.392c8.611-0.832,16.813,2.505,20.966,4.676c4.148,2.172,13.812,11.609,15.408,13.917
	c1.591,2.313,3.867,4.598,3.867,4.598s7.542,9.735,7.685,11.83c0.133,2.103,2.327,5.418,2.74,7.208
	c0.417,1.782,0.164,13.446,0,15.462c-0.159,2.017,2.327,7.074,2.212,10.675c-0.122,3.6-1.53,11.243-2.472,13.043
	c-0.939,1.79-7.623,16.602-10.831,17.644c-3.206,1.037-20.479,9.391-23.813,11.453c-3.338,2.063-8.532,4.138-14.34,3.358
	c-5.82-0.778-10.54-2.684-14.715-4.379c-4.175-1.7-9.121-4.484-14.346-6.054c-5.228-1.567-21.096-12.111-23.282-20.664
	c-2.184-8.549-3.639-21.965-2.641-26.548c0.996-4.581,2.641-14.551,2.924-15.78c0.281-1.229-2.063-1.521-3.246-0.168
	c-1.188,1.348-5.886,38.147-2.478,45.485c3.408,7.338,7.52,14.507,14.803,18.013c7.278,3.489,29.594,14.17,33.707,14.506
	c4.112,0.338,25.37-0.226,29.363-2.7c3.994-2.474,20.794-12.812,23.021-14.164c2.238-1.348,9.912-9.596,10.336-13.706
	c0.436-4.116,3.466-18.497,1.678-21.729c-1.787-3.232-2.932-5.222-3.433-8.285c-0.506-3.062,0.913-14.962-1.177-19.699
	s-12.745-25.113-20.436-29.866s-22.086-12.925-31.245-12.138c-9.162,0.787-23.632,5.669-32.887,13.475
	c-9.255,7.803-12.426,11.295-14.137,13.135c-1.708,1.837-3.601,2.788-3.837,4.887c-0.236,2.108-2.682,3.945-1.059,3.945H63.71z"/>
<path fill="none" stroke="#FFFFFF" stroke-width="0.5" stroke-miterlimit="10" d="M63.71,91.21
	c2.14-5.259,9.981-12.58,13.254-15.178c3.273-2.603,12.493-10.488,20.598-13.862c8.1-3.368,7.572-1.568,16.189-2.392
	c8.611-0.832,16.813,2.505,20.966,4.676c4.148,2.172,13.812,11.609,15.408,13.917c1.591,2.313,3.867,4.598,3.867,4.598
	s7.542,9.735,7.685,11.83c0.133,2.103,2.327,5.418,2.74,7.208c0.417,1.782,0.164,13.446,0,15.462
	c-0.159,2.017,2.327,7.074,2.212,10.675c-0.122,3.6-1.53,11.243-2.472,13.043c-0.939,1.79-7.623,16.602-10.831,17.644
	c-3.206,1.037-20.479,9.391-23.813,11.453c-3.338,2.063-8.532,4.138-14.34,3.358c-5.82-0.778-10.54-2.684-14.715-4.379
	c-4.175-1.7-9.121-4.484-14.346-6.054c-5.228-1.567-21.096-12.111-23.282-20.664c-2.184-8.549-3.639-21.965-2.641-26.548
	c0.996-4.581,2.641-14.551,2.924-15.78c0.281-1.229-2.063-1.521-3.246-0.168c-1.188,1.348-5.886,38.147-2.478,45.485
	c3.408,7.338,7.52,14.507,14.803,18.013c7.278,3.489,29.594,14.17,33.707,14.506c4.112,0.338,25.37-0.226,29.363-2.7
	c3.994-2.474,20.794-12.812,23.021-14.164c2.238-1.348,9.912-9.596,10.336-13.706c0.436-4.116,3.466-18.497,1.678-21.729
	c-1.787-3.232-2.932-5.222-3.433-8.285c-0.506-3.062,0.913-14.962-1.177-19.699s-12.745-25.113-20.436-29.866
	s-22.086-12.925-31.245-12.138c-9.162,0.787-23.632,5.669-32.887,13.475c-9.255,7.803-12.426,11.295-14.137,13.135
	c-1.708,1.837-3.601,2.788-3.837,4.887c-0.236,2.108-2.682,3.945-1.059,3.945H63.71z"/>
<path fill="#FFFFFF" d="M55.349,78.638c0,0,23.494-27.226,39.937-29.608c16.442-2.376,25.373-6.014,35.241-1.498
	c9.863,4.517,27.405,17.652,30.382,22.32c2.976,4.671,8.613,14.314,9.081,15.338c0.469,1.024,2.586,5.008,2.465,9.535
	c0,0-0.809,9.838,0.006,12.801c0.82,2.966,1.76,7.658,2.464,4.3c0.705-3.354-1.178-11.452,0-16.174
	c1.172-4.716,0.468-8.861-3.993-17.015c-4.467-8.156-10.858-15.352-16.002-19.62c-5.144-4.273-14.771-12.596-22.053-14.391
	c-7.283-1.795-7.377-5.39-16.613-3.369c-9.233,2.021-11.345,2.69-17.22,3.369c-5.87,0.679-13.856,2.037-18.086,5.514
	c-4.23,3.482-19.264,12.569-24.198,19.712c-4.935,7.146-5.87,13.028-4.698,13.904c1.177,0.884,2.112,3.274,2.822,0.055
	C55.585,80.594,55.349,78.638,55.349,78.638"/>
<path fill="none" stroke="#FFFFFF" stroke-width="0.5" stroke-miterlimit="10" d="M55.349,78.638c0,0,23.494-27.226,39.937-29.608
	c16.442-2.376,25.373-6.014,35.241-1.498c9.863,4.517,27.405,17.652,30.382,22.32c2.976,4.671,8.613,14.314,9.081,15.338
	c0.469,1.024,2.586,5.008,2.465,9.535c0,0-0.809,9.838,0.006,12.801c0.82,2.966,1.76,7.658,2.464,4.3
	c0.705-3.354-1.178-11.452,0-16.174c1.172-4.716,0.468-8.861-3.993-17.015c-4.467-8.156-10.858-15.352-16.002-19.62
	c-5.144-4.273-14.771-12.596-22.053-14.391c-7.283-1.795-7.377-5.39-16.613-3.369c-9.233,2.021-11.345,2.69-17.22,3.369
	c-5.87,0.679-13.856,2.037-18.086,5.514c-4.23,3.482-19.264,12.569-24.198,19.712c-4.935,7.146-5.87,13.028-4.698,13.904
	c1.177,0.884,2.112,3.274,2.822,0.055C55.585,80.594,55.349,78.638,55.349,78.638z"/>
<path fill="#FFFFFF" d="M167.03,169.465c0,0,7.009-9.007,8.399-17.055c1.386-8.043-0.533-16.911,0-18.78
	c0.523-1.863,2.526-2.516,2.526,0c0,2.517,3.272,30.708-3.598,35.335"/>
<path fill="none" stroke="#FFFFFF" stroke-width="0.5" stroke-miterlimit="10" d="M167.03,169.465c0,0,7.009-9.007,8.399-17.055
	c1.386-8.043-0.533-16.911,0-18.78c0.523-1.863,2.526-2.516,2.526,0c0,2.517,3.272,30.708-3.598,35.335"/>
<path fill="#FFFFFF" d="M109.095,109.702c0,0,0.456-6.661,0-7.386c-0.457-0.721-4.542,0.869-3.933,7.386
	c0.605,6.516,2.035,8.397,2.035,8.397L109.095,109.702z"/>
<path fill="none" stroke="#FFFFFF" stroke-width="0.5" stroke-miterlimit="10" d="M109.095,109.702c0,0,0.456-6.661,0-7.386
	c-0.457-0.721-4.542,0.869-3.933,7.386c0.605,6.516,2.035,8.397,2.035,8.397L109.095,109.702z"/>
<g>
</g>
<g>
</g>
<g>
</g>
<g>
</g>
<g>
</g>
<g>
</g>
<g>
</g>
<g>
</g>
<g>
</g>
<g>
</g>
<g>
</g>
<g>
</g>
<g>
</g>
<g>
</g>
<g>
</g>
</svg>
