<?xml version="1.0" encoding="utf-8"?>
<!-- Generator: Adobe Illustrator 16.0.0, SVG Export Plug-In . SVG Version: 6.00 Build 0)  -->
<!DOCTYPE svg PUBLIC "-//W3C//DTD SVG 1.1 Tiny//EN" "http://www.w3.org/Graphics/SVG/1.1/DTD/svg11-tiny.dtd">
<svg version="1.1" baseProfile="tiny" id="Layer_1" xmlns="http://www.w3.org/2000/svg" xmlns:xlink="http://www.w3.org/1999/xlink"
	 x="0px" y="0px" width="224.505px" height="221.739px" viewBox="0 0 224.505 221.739" xml:space="preserve">
<path fill="#FFFFFF" d="M104.866,169.088c0,3.869-3.134,7.003-6.999,7.003c-3.866,0-7-3.134-7-7.003c0-3.866,3.134-7.004,7-7.004
	C101.732,162.084,104.866,165.222,104.866,169.088"/>
<path fill="#FFFFFF" d="M199.857,99.366c0,3.88-3.151,7.03-7.028,7.03c-3.883,0-7.03-3.149-7.03-7.03c0-3.88,3.147-7.029,7.03-7.029
	C196.706,92.337,199.857,95.486,199.857,99.366"/>
<path fill="#FFFFFF" d="M36.293,94.517c0,3.867-3.139,6.999-7.004,6.999c-3.861,0-7-3.132-7-6.999c0-3.868,3.138-7.002,7-7.002
	C33.155,87.514,36.293,90.649,36.293,94.517"/>
<path fill="#FFFFFF" d="M129.853,191.227c0,3.865-3.134,7.004-7.004,7.004c-3.861,0-7-3.139-7-7.004s3.139-6.999,7-6.999
	C126.718,184.228,129.853,187.361,129.853,191.227"/>
<path fill="#FFFFFF" d="M166.966,130.139c0,0,1.889,27.222-21.172,32.511c0,0-8.317,4.161-9.073,13.99c0,0-1.893,9.83,18.528,10.206
	c0,0,33.266,4.156,35.534-33.27c0,0,4.912-37.047-14.367-37.047C176.417,116.529,165.074,117.663,166.966,130.139"/>
<path fill="#FFFFFF" d="M40.834,133.122c0,0,18.73,19.837,4.262,38.559c0,0-3.789,8.491,1.863,16.572c0,0,4.777,8.795,20.795-3.865
	c0,0,28.354-17.895,6.362-48.263c0,0-19.71-31.756-34.609-19.521C39.508,116.604,31.457,124.674,40.834,133.122"/>
<line fill="none" stroke="#FFFFFF" stroke-miterlimit="10" x1="105.91" y1="50.286" x2="107.642" y2="59.964"/>
<line fill="none" stroke="#FFFFFF" stroke-miterlimit="10" x1="82.182" y1="61.108" x2="94.292" y2="70.935"/>
<line fill="none" stroke="#FFFFFF" stroke-miterlimit="10" x1="67.224" y1="86.516" x2="89.109" y2="87.563"/>
<line fill="none" stroke="#FFFFFF" stroke-miterlimit="10" x1="81.413" y1="116.041" x2="95.813" y2="103.497"/>
<line fill="none" stroke="#FFFFFF" stroke-miterlimit="10" x1="106.644" y1="131.119" x2="109.428" y2="112.351"/>
<line fill="none" stroke="#FFFFFF" stroke-miterlimit="10" x1="137.878" y1="122.153" x2="125.971" y2="106.396"/>
<line fill="none" stroke="#FFFFFF" stroke-miterlimit="10" x1="154.983" y1="93.56" x2="138.292" y2="92.337"/>
<line fill="none" stroke="#FFFFFF" stroke-miterlimit="10" x1="149.702" y1="72.945" x2="132.451" y2="76.54"/>
<line fill="none" stroke="#FFFFFF" stroke-miterlimit="10" x1="132.907" y1="44" x2="124.974" y2="62.701"/>
<path fill="#FFFFFF" d="M142.348,86.815c-0.224,15.928-13.311,28.657-29.24,28.432c-15.921-0.224-28.653-13.313-28.434-29.241
	c0.228-15.923,13.314-28.653,29.244-28.434C129.844,57.799,142.576,70.888,142.348,86.815"/>
<path fill="#FFFFFF" d="M142.259,38.936c-0.055,3.962-3.312,7.128-7.274,7.075c-3.962-0.055-7.135-3.314-7.08-7.276
	c0.059-3.967,3.316-7.133,7.278-7.076C139.15,31.716,142.314,34.973,142.259,38.936"/>
<path fill="#FFFFFF" d="M161.125,69.606c0,3.962-3.216,7.175-7.178,7.175s-7.177-3.212-7.177-7.175s3.215-7.177,7.177-7.177
	S161.125,65.644,161.125,69.606"/>
<path fill="#FFFFFF" d="M168.301,93.477c0,3.962-3.214,7.174-7.176,7.174c-3.964,0-7.178-3.212-7.178-7.174
	c0-3.962,3.214-7.177,7.178-7.177C165.087,86.3,168.301,89.515,168.301,93.477"/>
<path fill="#FFFFFF" d="M148.208,126.629c-0.056,3.962-3.312,7.126-7.275,7.076c-3.962-0.055-7.135-3.312-7.075-7.274
	c0.055-3.969,3.312-7.135,7.274-7.078C145.098,119.41,148.266,122.667,148.208,126.629"/>
<path fill="#FFFFFF" d="M112.808,136.957c-0.059,3.962-3.316,7.127-7.278,7.072c-3.962-0.051-7.13-3.312-7.076-7.274
	c0.055-3.967,3.312-7.131,7.274-7.076C109.694,129.734,112.863,132.995,112.808,136.957"/>
<path fill="#FFFFFF" d="M84.222,118.555c-0.055,3.962-3.312,7.132-7.274,7.077c-3.962-0.054-7.135-3.314-7.08-7.276
	c0.06-3.966,3.316-7.132,7.279-7.075C81.113,111.335,84.277,114.595,84.222,118.555"/>
<path fill="#FFFFFF" d="M70.324,85.808c-0.055,3.962-3.312,7.128-7.274,7.075c-3.963-0.057-7.135-3.314-7.076-7.276
	c0.055-3.967,3.312-7.133,7.274-7.076C67.215,78.587,70.383,81.846,70.324,85.808"/>
<path fill="#FFFFFF" d="M85.08,57.172c-0.055,3.962-3.312,7.128-7.274,7.078c-3.962-0.057-7.135-3.314-7.076-7.276
	c0.055-3.967,3.312-7.132,7.274-7.078C81.97,49.952,85.139,53.209,85.08,57.172"/>
<path fill="#FFFFFF" d="M112.216,45.69c-0.055,3.962-3.312,7.128-7.274,7.078c-3.963-0.057-7.135-3.314-7.076-7.276
	c0.055-3.966,3.312-7.133,7.274-7.076C109.107,38.471,112.275,41.728,112.216,45.69"/>
<g>
</g>
<g>
</g>
<g>
</g>
<g>
</g>
<g>
</g>
<g>
</g>
<g>
</g>
<g>
</g>
<g>
</g>
<g>
</g>
<g>
</g>
<g>
</g>
<g>
</g>
<g>
</g>
<g>
</g>
</svg>
