<?xml version="1.0" encoding="utf-8"?>
<!-- Generator: Adobe Illustrator 16.0.0, SVG Export Plug-In . SVG Version: 6.00 Build 0)  -->
<!DOCTYPE svg PUBLIC "-//W3C//DTD SVG 1.1 Tiny//EN" "http://www.w3.org/Graphics/SVG/1.1/DTD/svg11-tiny.dtd">
<svg version="1.1" baseProfile="tiny" id="Layer_1" xmlns="http://www.w3.org/2000/svg" xmlns:xlink="http://www.w3.org/1999/xlink"
	 x="0px" y="0px" width="224.505px" height="221.739px" viewBox="0 0 224.505 221.739" xml:space="preserve">
<path fill="#FFFFFF" d="M135.159,39.646c-1.812-1.21-2.295-3.67-1.075-5.487c1.216-1.809,3.674-2.295,5.485-1.069
	c1.815,1.211,2.296,3.668,1.079,5.484C139.431,40.382,136.971,40.866,135.159,39.646"/>
<path fill="#FFFFFF" d="M129.849,54.861c-1.861-1.26-2.358-3.789-1.104-5.652c1.252-1.861,3.776-2.359,5.646-1.111
	c1.867,1.259,2.364,3.782,1.106,5.653C134.248,55.613,131.724,56.108,129.849,54.861"/>
<path fill="#FFFFFF" d="M122.29,74.784c-2.213-1.485-2.803-4.488-1.316-6.7c1.486-2.211,4.477-2.802,6.69-1.318
	c2.217,1.49,2.803,4.486,1.316,6.707C127.497,75.683,124.501,76.273,122.29,74.784"/>
<path fill="#FFFFFF" d="M103.484,68.285c-1.24-0.829-1.571-2.507-0.74-3.748c0.833-1.239,2.516-1.568,3.759-0.734
	c1.235,0.828,1.564,2.507,0.733,3.748C106.405,68.789,104.725,69.125,103.484,68.285"/>
<path fill="#FFFFFF" d="M109.245,95.609c-1.488-0.993-1.883-3.009-0.886-4.501c1.003-1.493,3.016-1.882,4.504-0.887
	c1.489,1.002,1.886,3.021,0.885,4.504C112.748,96.215,110.733,96.609,109.245,95.609"/>
<path fill="#FFFFFF" d="M93.979,85.36c-1.49-0.998-1.883-3.019-0.887-4.498c1.004-1.492,3.015-1.888,4.503-0.894
	c1.488,1.001,1.886,3.017,0.883,4.502C97.481,85.959,95.464,86.354,93.979,85.36"/>
<path fill="#FFFFFF" d="M113.59,111.674c-1.669-1.119-2.116-3.392-0.997-5.06c1.124-1.681,3.395-2.118,5.07-0.993
	c1.67,1.115,2.122,3.383,0.997,5.058C117.532,112.355,115.267,112.798,113.59,111.674"/>
<path fill="#FFFFFF" d="M120.331,195.961c0,4-3.244,7.243-7.244,7.243c-4.004,0-7.245-3.243-7.245-7.243
	c0-4.005,3.241-7.246,7.245-7.246C117.087,188.715,120.331,191.956,120.331,195.961"/>
<path fill="#FFFFFF" d="M105.409,171.949c0,2.034-1.652,3.688-3.687,3.688c-2.038,0-3.694-1.654-3.694-3.688
	c0-2.041,1.656-3.695,3.694-3.695C103.757,168.254,105.409,169.908,105.409,171.949"/>
<path fill="#FFFFFF" d="M138.337,203.204c0,2.718-2.206,4.922-4.926,4.922c-2.72,0-4.92-2.204-4.92-4.922
	c0-2.716,2.201-4.92,4.92-4.92C136.131,198.284,138.337,200.488,138.337,203.204"/>
<path fill="#FFFFFF" d="M87.811,164.119c0,2.888-2.345,5.231-5.233,5.231s-5.234-2.344-5.234-5.231s2.346-5.234,5.234-5.234
	S87.811,161.231,87.811,164.119"/>
<path fill="#FFFFFF" d="M107.697,131.454c-1.482-1.005-1.882-3.023-0.885-4.505c1.001-1.491,3.015-1.883,4.503-0.886
	c1.487,1.003,1.886,3.015,0.885,4.503C111.2,132.057,109.185,132.442,107.697,131.454"/>
<path fill="#FFFFFF" d="M96.233,138.483c0,2.452-1.983,4.432-4.43,4.432c-2.444,0-4.427-1.979-4.427-4.432
	c0-2.449,1.982-4.427,4.427-4.427C94.25,134.057,96.233,136.034,96.233,138.483"/>
<path fill="#FFFFFF" d="M132.871,22.377c0-1.195,0.972-2.165,2.166-2.165c1.194,0,2.164,0.97,2.164,2.165
	c0,1.195-0.969,2.165-2.164,2.165C133.843,24.542,132.871,23.572,132.871,22.377"/>
<path fill="#FFFFFF" d="M115.621,15.906c0-1.198,0.969-2.167,2.167-2.167c1.194,0,2.166,0.969,2.166,2.167
	c0,1.194-0.972,2.165-2.166,2.165C116.59,18.07,115.621,17.1,115.621,15.906"/>
<rect x="-783.125" y="-596.059" fill="none" width="1045.409" height="1205.54"/>
<g>
</g>
<g>
</g>
<g>
</g>
<g>
</g>
<g>
</g>
<g>
</g>
<g>
</g>
<g>
</g>
<g>
</g>
<g>
</g>
<g>
</g>
<g>
</g>
<g>
</g>
<g>
</g>
<g>
</g>
</svg>
