<?xml version="1.0" encoding="utf-8"?>
<!-- Generator: Adobe Illustrator 16.0.0, SVG Export Plug-In . SVG Version: 6.00 Build 0)  -->
<!DOCTYPE svg PUBLIC "-//W3C//DTD SVG 1.1 Tiny//EN" "http://www.w3.org/Graphics/SVG/1.1/DTD/svg11-tiny.dtd">
<svg version="1.1" baseProfile="tiny" id="Layer_1" xmlns="http://www.w3.org/2000/svg" xmlns:xlink="http://www.w3.org/1999/xlink"
	 x="0px" y="0px" width="224.505px" height="221.739px" viewBox="0 0 224.505 221.739" xml:space="preserve">
<path fill="#FFFFFF" d="M84.112,17.365c0,0-8.18,34.396,0,44.271c8.189,9.874,29.621,32.509,26.252,61.89
	c0,0-1.202,33.239-25.531,14.694c0,0-26.484-20.71-36.118,9.384c0,0-5.062,23.125,6.015,48.175h16.62
	c0.231,1.028-7.274-20.403-7.949-30.833c-0.398-6.117,1.305-24.079,10.836-13.002c0,0,16.861,27.696,30.112,32.749
	c0,0,32.269,16.139,49.851-6.977c0,0,26.734-25.291,35.396-69.608c0,0,7.469-67.191-45.028-62.61c0,0-9.394,1.684-16.139,4.821
	c-6.747,3.128-34.202,16.129-30.103-11.808l2.887-21.145H84.112z"/>
<path fill="#067E3F" d="M147.723,158.495c-2.166-1.452-2.739-4.386-1.287-6.542c1.452-2.166,4.378-2.738,6.534-1.287
	c2.164,1.453,2.738,4.377,1.296,6.543C152.813,159.364,149.878,159.939,147.723,158.495"/>
<path fill="#067E3F" d="M127.291,176.688c-1.87-1.259-2.378-3.805-1.12-5.683c1.268-1.869,3.813-2.378,5.683-1.119
	c1.878,1.268,2.377,3.812,1.12,5.682C131.714,177.447,129.168,177.946,127.291,176.688"/>
<path fill="#067E3F" d="M102.536,165.112c-2.637-1.776-3.341-5.349-1.573-7.986c1.777-2.637,5.349-3.341,7.985-1.574
	c2.638,1.776,3.341,5.35,1.573,7.986C108.754,166.186,105.174,166.879,102.536,165.112"/>
<path fill="#067E3F" d="M141.644,131.039c0-1.425,1.156-2.581,2.582-2.581c1.425,0,2.582,1.156,2.582,2.581
	c0,1.435-1.157,2.582-2.582,2.582C142.799,133.621,141.644,132.474,141.644,131.039"/>
<path fill="#067E3F" d="M132.5,108.007c0-2.526,2.045-4.572,4.571-4.572c2.526,0,4.572,2.046,4.572,4.572
	c0,2.525-2.046,4.571-4.572,4.571C134.545,112.578,132.5,110.532,132.5,108.007"/>
<path fill="#067E3F" d="M89.387,29.969c0-1.425,1.156-2.582,2.582-2.582c1.416,0,2.573,1.157,2.573,2.582
	c0,1.425-1.157,2.582-2.573,2.582C90.543,32.551,89.387,31.394,89.387,29.969"/>
<path fill="#067E3F" d="M89.202,52.271c0-0.981,0.786-1.768,1.768-1.768c0.972,0,1.767,0.787,1.767,1.768
	c0,0.972-0.795,1.768-1.767,1.768C89.988,54.038,89.202,53.242,89.202,52.271"/>
<path fill="#067E3F" d="M105.738,70.454c0-1.435,1.157-2.582,2.582-2.582c1.426,0,2.583,1.147,2.583,2.582
	c0,1.426-1.157,2.582-2.583,2.582C106.895,73.036,105.738,71.88,105.738,70.454"/>
<path fill="#067E3F" d="M128.243,83.659c0-1.424,1.158-2.582,2.582-2.582c1.417,0,2.573,1.157,2.573,2.582
	c0,1.434-1.157,2.583-2.573,2.583C129.401,86.242,128.243,85.093,128.243,83.659"/>
<path fill="#067E3F" d="M77.144,144.466c0-1.424,1.157-2.581,2.582-2.581c1.425,0,2.573,1.157,2.573,2.581
	c0,1.426-1.147,2.583-2.573,2.583C78.301,147.049,77.144,145.892,77.144,144.466"/>
<path fill="#067E3F" d="M56.221,147.049c0-1.426,1.157-2.583,2.581-2.583c1.417,0,2.573,1.157,2.573,2.583
	c0,1.424-1.157,2.582-2.573,2.582C57.378,149.631,56.221,148.473,56.221,147.049"/>
<path fill="#067E3F" d="M53.343,170.479c0-0.714,0.574-1.277,1.277-1.277c0.704,0,1.277,0.563,1.277,1.277
	c0,0.703-0.574,1.268-1.277,1.268C53.917,171.747,53.343,171.183,53.343,170.479"/>
<rect x="-166.114" y="-243.885" fill="none" width="368.717" height="425.196"/>
<g>
</g>
<g>
</g>
<g>
</g>
<g>
</g>
<g>
</g>
<g>
</g>
<g>
</g>
<g>
</g>
<g>
</g>
<g>
</g>
<g>
</g>
<g>
</g>
<g>
</g>
<g>
</g>
<g>
</g>
</svg>
