<?xml version="1.0" encoding="utf-8"?>
<!-- Generator: Adobe Illustrator 16.0.0, SVG Export Plug-In . SVG Version: 6.00 Build 0)  -->
<!DOCTYPE svg PUBLIC "-//W3C//DTD SVG 1.1 Tiny//EN" "http://www.w3.org/Graphics/SVG/1.1/DTD/svg11-tiny.dtd">
<svg version="1.1" baseProfile="tiny" id="Layer_1" xmlns="http://www.w3.org/2000/svg" xmlns:xlink="http://www.w3.org/1999/xlink"
	 x="0px" y="0px" width="224.505px" height="221.739px" viewBox="0 0 224.505 221.739" xml:space="preserve">
<polygon fill="#FFFFFF" points="73.029,60.009 90.732,47.142 70.61,38.065 "/>
<path fill="#FFFFFF" d="M169.633,106.68c0,30.358-24.61,54.961-54.961,54.961c-30.356,0-54.967-24.603-54.967-54.961
	c0-30.355,24.61-54.961,54.967-54.961C145.023,51.718,169.633,76.325,169.633,106.68"/>
<path fill="#067E3F" d="M105.12,95.251c0,2.842-2.306,5.15-5.152,5.15c-2.848,0-5.153-2.308-5.153-5.15
	c0-2.846,2.306-5.154,5.153-5.154C102.814,90.097,105.12,92.405,105.12,95.251"/>
<path fill="#067E3F" d="M135.085,95.251c0,2.842-2.308,5.15-5.149,5.15c-2.851,0-5.158-2.308-5.158-5.15
	c0-2.846,2.308-5.154,5.158-5.154C132.778,90.097,135.085,92.405,135.085,95.251"/>
<path fill="none" stroke="#067E3F" stroke-miterlimit="10" d="M146.028,113.196c0,17.32-14.039,31.359-31.355,31.359
	c-17.319,0-31.359-14.039-31.359-31.359"/>
<polygon fill="#FFFFFF" points="103.729,45.611 125.611,45.611 114.672,26.438 "/>
<polygon fill="#FFFFFF" points="56.82,85.074 66.88,65.642 44.823,66.542 "/>
<polygon fill="#FFFFFF" points="173.336,96.973 173.336,118.853 192.51,107.915 "/>
<polygon fill="#FFFFFF" points="156.172,60.009 138.47,47.142 158.592,38.065 "/>
<polygon fill="#FFFFFF" points="175.155,87.625 165.093,68.193 187.149,69.094 "/>
<polygon fill="#FFFFFF" points="55.151,95.737 55.151,117.621 35.98,106.684 "/>
<polygon fill="#FFFFFF" points="155.885,154.099 138.183,166.962 158.305,176.042 "/>
<polygon fill="#FFFFFF" points="125.188,168.492 103.304,168.492 114.242,187.666 "/>
<polygon fill="#FFFFFF" points="172.097,129.029 162.036,148.466 184.091,147.562 "/>
<polygon fill="#FFFFFF" points="72.742,154.099 90.445,166.962 70.323,176.042 "/>
<polygon fill="#FFFFFF" points="53.76,126.479 63.823,145.915 41.764,145.01 "/>
<g>
</g>
<g>
</g>
<g>
</g>
<g>
</g>
<g>
</g>
<g>
</g>
<g>
</g>
<g>
</g>
<g>
</g>
<g>
</g>
<g>
</g>
<g>
</g>
<g>
</g>
<g>
</g>
<g>
</g>
</svg>
