<?xml version="1.0" encoding="utf-8"?>
<!-- Generator: Adobe Illustrator 16.0.0, SVG Export Plug-In . SVG Version: 6.00 Build 0)  -->
<!DOCTYPE svg PUBLIC "-//W3C//DTD SVG 1.1 Tiny//EN" "http://www.w3.org/Graphics/SVG/1.1/DTD/svg11-tiny.dtd">
<svg version="1.1" baseProfile="tiny" id="Layer_1" xmlns="http://www.w3.org/2000/svg" xmlns:xlink="http://www.w3.org/1999/xlink"
	 x="0px" y="0px" width="224.505px" height="221.739px" viewBox="0 0 224.505 221.739" xml:space="preserve">
<path fill="#FFFFFF" d="M126.492,64.677c0,0,14.815-36.866,18.671-39.125c5.182-3.03,10.975,0.588,10.225,5.698
	c-0.381,2.637-21.337,38.314-21.337,38.314L126.492,64.677z"/>
<path fill="#FFFFFF" d="M66.698,82.966l7.486,86.459c0,0,12.648,20.649,41.296,18.068c0,0,33.808-1.808,37.681-17.036l6.971-87.492
	l-10.326,5.16c0,0-3.1,2.325-14.971,1.803C122.962,89.416,66.698,82.966,66.698,82.966"/>
<path fill="#067E3F" d="M72.893,88.126l4.128,1.293l2.066,80.178c0,0-2.321-9.721-2.581-11.786
	C76.248,155.747,72.893,88.126,72.893,88.126"/>
<path fill="#FFFFFF" d="M49.406,71.609l37.685-10.842c0,0,4.646-1.807,11.352-1.546c6.712,0.257,74.591,6.181,74.591,6.181
	s9.037,0.012,0,4.916c-9.035,4.903-26.328,12.649-26.328,12.649s-3.352,2.06-13.677,1.546c-10.322-0.519-83.623-9.292-83.623-9.292
	S45.019,74.449,49.406,71.609"/>
<g>
</g>
<g>
</g>
<g>
</g>
<g>
</g>
<g>
</g>
<g>
</g>
<g>
</g>
<g>
</g>
<g>
</g>
<g>
</g>
<g>
</g>
<g>
</g>
<g>
</g>
<g>
</g>
<g>
</g>
</svg>
