<?xml version="1.0" encoding="utf-8"?>
<!-- Generator: Adobe Illustrator 16.0.0, SVG Export Plug-In . SVG Version: 6.00 Build 0)  -->
<!DOCTYPE svg PUBLIC "-//W3C//DTD SVG 1.1 Tiny//EN" "http://www.w3.org/Graphics/SVG/1.1/DTD/svg11-tiny.dtd">
<svg version="1.1" baseProfile="tiny" id="Layer_1" xmlns="http://www.w3.org/2000/svg" xmlns:xlink="http://www.w3.org/1999/xlink"
	 x="0px" y="0px" width="224.505px" height="221.739px" viewBox="0 0 224.505 221.739" xml:space="preserve">
<path fill="#FFFFFF" d="M133.027,54.905v-9.583h8.688V21.411H89.914v23.912h10.495v7.571c-9.237,1.708-17.806,5.383-25.323,10.542
	l-9.421-8.33L46.787,76.418l8.513,7.536c-7.175,11.164-11.44,24.318-11.77,37.998c-0.928,38.842,32.665,69.223,70.108,70.109
	c38.833,0.944,69.24-32.647,70.109-70.109C182.992,89.881,162.144,63.611,133.027,54.905 M113.638,176.851
	c-30.475,0.726-54.188-25.526-54.895-54.898c-0.725-30.47,25.514-54.196,54.895-54.892c30.489-0.724,54.202,25.512,54.895,54.892
	C167.805,152.436,144.126,176.122,113.638,176.851"/>
<polygon fill="#FFFFFF" points="116.449,86.226 110.741,86.226 110.741,128.857 110.711,128.944 137.274,138.453 139.211,133.104 
	116.449,124.937 "/>
<path fill="#FFFFFF" d="M113.374,81.2c2.249,0,4.068-1.831,4.068-4.082c0-2.251-1.82-4.081-4.068-4.081
	c-2.257,0-4.075,1.83-4.075,4.081C109.299,79.369,111.117,81.2,113.374,81.2"/>
<path fill="#FFFFFF" d="M113.374,163.261c-2.257,0-4.075,1.815-4.075,4.082c0,2.255,1.818,4.076,4.075,4.076
	c2.249,0,4.068-1.821,4.068-4.076C117.442,165.076,115.622,163.261,113.374,163.261"/>
<path fill="#FFFFFF" d="M84.348,93.209c1.593-1.585,1.593-4.174,0-5.765c-1.583-1.59-4.16-1.59-5.763,0
	c-1.588,1.591-1.588,4.18,0,5.765C80.188,94.814,82.764,94.814,84.348,93.209"/>
<path fill="#FFFFFF" d="M142.386,151.246c-1.578,1.596-1.578,4.174,0,5.765c1.602,1.581,4.161,1.581,5.776,0
	c1.572-1.591,1.572-4.169,0-5.765C146.547,149.651,143.988,149.651,142.386,151.246"/>
<path fill="#FFFFFF" d="M158.483,118.153c-2.249,0-4.085,1.836-4.085,4.087c0,2.246,1.836,4.057,4.085,4.057
	c2.256,0,4.064-1.811,4.064-4.057C162.547,119.989,160.739,118.153,158.483,118.153"/>
<path fill="#FFFFFF" d="M68.261,118.153c-2.256,0-4.084,1.836-4.084,4.087c0,2.246,1.828,4.057,4.084,4.057
	c2.239,0,4.069-1.811,4.069-4.057C72.33,119.989,70.5,118.153,68.261,118.153"/>
<path fill="#FFFFFF" d="M142.573,87.645c-1.583,1.571-1.583,4.16,0,5.75c1.592,1.595,4.185,1.595,5.757,0
	c1.61-1.591,1.61-4.18,0-5.75C146.757,86.05,144.165,86.05,142.573,87.645"/>
<path fill="#FFFFFF" d="M78.778,151.437c-1.591,1.591-1.591,4.175,0,5.771c1.598,1.591,4.157,1.591,5.772,0
	c1.583-1.596,1.583-4.18,0-5.771C82.935,149.842,80.376,149.842,78.778,151.437"/>
<g>
</g>
<g>
</g>
<g>
</g>
<g>
</g>
<g>
</g>
<g>
</g>
<g>
</g>
<g>
</g>
<g>
</g>
<g>
</g>
<g>
</g>
<g>
</g>
<g>
</g>
<g>
</g>
<g>
</g>
</svg>
