<?xml version="1.0" encoding="utf-8"?>
<!-- Generator: Adobe Illustrator 16.0.0, SVG Export Plug-In . SVG Version: 6.00 Build 0)  -->
<svg version="1.2" baseProfile="tiny" id="Layer_1" xmlns="http://www.w3.org/2000/svg" xmlns:xlink="http://www.w3.org/1999/xlink"
	 x="0px" y="0px" width="752px" height="154px" viewBox="0 0 752 154" xml:space="preserve">
<g>
	<path fill="none" stroke="#000000" stroke-width="3" d="M26.12,96.96V53.28H9.92v-11.4h62.8v11.4h-35.2v61.8c0,0-6.52,0-11.28,0
		L26.12,96.96z"/>
	<path fill="none" stroke="#000000" stroke-width="3" d="M110,41.88v71.52H98.6V79.56H73.04v35.28h-0.12c-7.34,0-5.83,0-11.28,0
		c-0.36,0,0.12-17.52,0.12-17.88h-0.12v-55.2l11.52,0.12v26.28H98.6V41.88H110z"/>
	<path fill="none" stroke="#000000" stroke-width="3" d="M153.56,41.88v11.4h-22.2v15h17.04v11.4h-17.04V102h24.84
		c0,6.67,0,3.75,0,11.16v0.24h-36.24V41.88H153.56z"/>
	<path fill="none" stroke="#000000" stroke-width="3" d="M247.88,42v11.28h-39v14.88h15.24v11.4h-15.24v35.4h-0.24
		c-7.05,0-7.89,0.12-11.16,0.12v-18h-0.12V42H247.88z"/>
	<path fill="none" stroke="#000000" stroke-width="3" d="M248.36,41.96h0.24v71.44h-11.4V41.96
		C241.82,41.96,241.17,41.96,248.36,41.96z"/>
	<path fill="none" stroke="#000000" stroke-width="3" d="M300.44,39.72c7,0,4.06,0,11.28,0v75.96L270.8,70.2v43.2h-11.4V40.32
		l40.92,45.48L300.44,39.72z"/>
	<path fill="none" stroke="#000000" stroke-width="3" d="M330.67,115.07c-7,0-5.51,0-12.59,0h-0.24l30.72-75.12l30,73.56h-12.48
		l-5.88-14.88h-23.4L330.67,115.07z M355.75,87.24l-7.2-18.6l-7.32,18.6H355.75z"/>
	<path fill="none" stroke="#000000" stroke-width="3" d="M384.67,39.72c7.33,0,11.4,0.12,11.4,0.12v62.28h22.56v11.4h-33.96V39.72z"
		/>
	<path fill="none" stroke="#000000" stroke-width="3" d="M509.35,114.11l-13.8-40.32l-14.04,40.56l-26.04-72.48h12.12l13.68,37.8
		l14.28-40.44l14.28,40.32l14.42-39.4c7.36-0.21,4.9,0.04,11.98-0.2h0.24l-2.76,7.56L509.35,114.11z"/>
	<path fill="none" stroke="#000000" stroke-width="3" d="M557.47,111.23c-4.32-1.8-8.16-4.56-11.52-7.92
		c-3.36-3.36-5.88-7.32-7.68-11.64c-1.92-4.44-2.88-9.36-2.88-14.28c0-4.92,0.96-9.72,2.88-14.16c1.8-4.32,4.32-8.28,7.68-11.64
		c3.36-3.36,7.2-6.12,11.52-7.92c4.44-1.92,9.24-2.88,14.16-2.88s9.72,0.96,14.16,2.88c4.32,1.8,8.16,4.56,11.52,7.92
		c3.36,3.36,5.88,7.32,7.68,11.64c1.92,4.44,2.88,9.24,2.88,14.16c0,4.92-0.96,9.84-2.88,14.28c-1.8,4.32-4.32,8.28-7.68,11.64
		c-3.36,3.36-7.2,6.12-11.52,7.92c-4.44,1.92-9.24,2.88-14.16,2.88S561.91,113.15,557.47,111.23z M546.79,77.4
		c0,13.68,11.16,25.2,24.84,25.2s24.84-11.52,24.84-25.2c0-13.68-11.16-25.08-24.84-25.08S546.79,63.72,546.79,77.4z"/>
	<path fill="none" stroke="#000000" stroke-width="3" d="M615.55,97.08v-55.2L635.23,42c6,0,11.64,2.28,15.84,6.48
		c4.2,4.2,6.6,9.96,6.6,15.96c0,6-2.4,11.64-6.6,15.84c-3.36,3.36-7.92,5.52-12.48,6.24l21.72,27.12h-14.64l-18.72-23.28l-0.12,24.6
		c-6.91,0-6.91,0.12-11.28,0.12V97.08z M627.07,53.4v18.72c2.04,2.04,5.04,3.36,8.16,3.36c6.12,0,11.04-4.92,11.04-11.04
		c0-6.12-4.92-11.04-11.04-11.04H627.07z"/>
	<path fill="none" stroke="#000000" stroke-width="3" d="M666.91,43.68l0.36-0.12c4.44-1.92,9.24-2.76,14.16-2.76
		s9.72,0.6,14.16,2.52c4.32,1.8,8.16,4.32,11.52,7.68c3.36,3.36,6,7.2,7.8,11.52c1.92,4.44,2.76,9.48,2.76,14.4
		s-0.84,9.96-2.76,14.4c-1.8,4.32-4.44,8.16-7.8,11.52c-3.36,3.36-7.2,6-11.52,7.8c-4.08,1.8-8.88,2.64-13.32,2.76h-15.48
		L666.91,43.68z M681.43,102c13.68,0,24.84-11.4,24.84-25.08c0-13.68-11.16-25.2-24.84-25.2c-0.96,0-1.92,0.12-2.88,0.24V102h2.28
		H681.43z"/>
	<path fill="none" stroke="#000000" stroke-width="3" d="M731.35,63.24c4.8,0,7.2,2.52,7.2,7.32s-2.4,7.2-7.2,7.2
		s-7.32-2.4-7.32-7.2S726.55,63.24,731.35,63.24z M731.35,86.04c4.8,0,7.2,2.52,7.2,7.32s-2.4,7.2-7.2,7.2s-7.32-2.4-7.32-7.2
		S726.55,86.04,731.35,86.04z"/>
</g>
<g>
</g>
<g>
</g>
<g>
</g>
<g>
</g>
<g>
</g>
<g>
</g>
</svg>
