<?xml version="1.0" encoding="utf-8"?>
<!-- Generator: Adobe Illustrator 16.0.0, SVG Export Plug-In . SVG Version: 6.00 Build 0)  -->
<!DOCTYPE svg PUBLIC "-//W3C//DTD SVG 1.1 Tiny//EN" "http://www.w3.org/Graphics/SVG/1.1/DTD/svg11-tiny.dtd">
<svg version="1.1" baseProfile="tiny" id="Layer_1" xmlns="http://www.w3.org/2000/svg" xmlns:xlink="http://www.w3.org/1999/xlink"
	 x="0px" y="0px" width="101.923px" height="233.128px" viewBox="0 0 101.923 233.128" xml:space="preserve">
<g>
	<path fill="none" d="M45.113,143.322c0.282,0.057,0.235-0.211,0.235-0.211s-0.121-1.051-0.607-1.229
		c-0.24-0.087-0.775,0.041-1.059,0.183c-0.283,0.141-0.925,0.379-0.671,0.548C43.267,142.783,44.124,143.125,45.113,143.322z"/>
	<path fill="none" d="M22.335,152.716c-1.045,1.484-2.246,4.323-2.684,6.612c-0.057,0.254,0.084,0.226,0.31,0.042
		c0.227-0.183,2.925-3.136,4.535-5.749c0.37-0.601,0.794-1.251,1.048-1.653c-0.108-0.245-0.271-0.416-0.327-0.469
		C24.713,151.02,23.171,151.531,22.335,152.716z"/>
	<path fill="none" d="M41.436,152.928c1.064-0.424,3.403-3.885,3.918-6.428c0.094-0.522,0.123-0.678,0-0.664
		c0,0-1.385-0.013-2.096-0.212c-0.308-0.085-0.335-0.113-0.392-0.028c-0.113,0.198-2.204,2.636-2.095,5.623
		C40.856,152.264,40.946,153.14,41.436,152.928z"/>
	<path fill="none" d="M69.493,164.506c1.268-0.914,4.041-3.568,5.504-6.428c1.727-2.923,1.691-5.552,1.637-6.147
		c-0.055-0.594-0.418-0.194-0.418-0.194s-3.182,3.252-5.107,6.113c-1.926,2.86-3.365,7.048-3.365,7.048s-0.123,0.312-0.051,0.381
		C68.187,165.458,68.989,164.875,69.493,164.506z"/>
	<path fill="none" d="M33.743,188.318c2.176-3.531,2.487-7.486,2.882-11.064c0.396-3.579-0.085-9.773-0.085-9.773
		c-0.056-0.606-0.339-0.409-0.593,0.637c-0.254,1.045-0.735,1.384-1.088,1.554s-0.493,0.226-0.607,0.564
		c-0.678,1.498-2.006,7.149-2.261,11.727c-0.254,4.577,0.791,5.877,0.989,6.356C33.178,188.799,33.461,188.77,33.743,188.318z"/>
	<path fill="none" d="M67.648,220.238c0.017,2.56,1.717,2.623,2.905,1.721c4.673-3.913,6-10.618,6-10.618
		c-2.324,0.72-4.315,1.854-5.727,3.126C69.415,215.738,67.634,217.68,67.648,220.238z"/>
	<path fill="none" d="M78.831,193.084c-0.192,0.146-0.346,0.306-0.863,0.364c-0.518,0.06-0.967-0.271-1.039-0.648
		c-0.074-0.377-1.526,0.564-2.618,2.297c-1.091,1.731-2.454,7.946,0.171,6.886c3.734-1.596,4.488-8.6,4.497-8.684
		C78.979,193.299,79.021,192.939,78.831,193.084z"/>
	<path fill="#3BA1BC" d="M15.765,183.712c1.95-0.283,3.9-2.007,5.397-4.691c-0.141,2.826-0.565,7.036-1.13,11.304
		c-0.565,4.266-1.158,9.013-1.045,12.347c0.056,1.851,0.904,1.313,1.158,1.159c0.113-0.085,0.254,0.395,0.367,0.593
		s0.453,0.113,0.65-0.141c0.198-0.255,0.707-0.707,0.904-0.877c0.199-0.17,0.255-0.311,0.227-0.621
		c-0.028-0.312-0.34-2.092,0.084-5.566c0.424-3.476,1.413-9.55,1.78-11.755c0.368-2.204,1.215-7.261,1.583-9.606
		c0.367-2.345,1.441-7.402,1.582-8.336c0.141-0.932,0.504-2.027-0.452-2.698c-0.759-0.53-1.352-0.504-1.921-0.466
		c-0.766,0.051-1.268,0.621-1.724,2.373c-0.515,1.978-1.481,5.681-3.919,9.07c-2.439,3.391-3.286,4.281-3.286,4.281
		s-0.198,0.239-0.255,0.069c-0.056-0.169-0.706-4.407-0.282-7.176c0.424-2.769,0.565-3.363,0.565-3.363s0.113-0.932-0.311-1.187
		c-0.693-0.415-3.108-1.949-3.927-0.113c-0.82,1.837-0.933,8.661-0.311,11.698C12.121,183.047,13.816,183.995,15.765,183.712z"/>
	<path fill="#3BA1BC" d="M34.534,191.229c2.204-0.678,4.352-4.944,5.002-8.821c0.649-3.877,0.706-12.003,0.649-13.655
		c-0.056-1.653,0-2.67-0.593-3.857c-0.594-1.187-1.611-1.498-2.289-1.724s-1.61,0-2.345,0.226c-0.735,0.227-1.441,0.283-2.006,0.51
		c-0.928,0.353-1.272,1.242-1.272,1.242s-0.462,0.637-2.401,8.279c-2.021,7.964-0.961,14.438,0,15.879
		C30.239,190.749,32.33,191.908,34.534,191.229z M31.991,181.961c0.255-4.577,1.583-10.229,2.261-11.727
		c0.114-0.339,0.254-0.395,0.607-0.564s0.834-0.509,1.088-1.554c0.254-1.046,0.537-1.243,0.593-0.637c0,0,0.481,6.194,0.085,9.773
		c-0.395,3.578-0.706,7.533-2.882,11.064c-0.282,0.452-0.565,0.481-0.763,0C32.782,187.838,31.737,186.539,31.991,181.961z"/>
	<path fill="#3BA1BC" d="M56.585,172.633c0.451-3.18,1.609-8.236,2.316-10.864s1.555-4.268,1.668-4.606s-0.934-0.763-1.328-0.96
		c-0.396-0.198-0.65-0.085-0.764,0c-0.113,0.084-0.226,0.197-0.594,0.184c-0.367-0.015-0.96,0.636-2.628,6.005
		c-1.667,5.368-1.978,10.172-2.739,13.731c-0.764,3.561-3.193,8.109-3.505,8.589c-0.311,0.481-0.424,0-0.424,0
		s-0.593-1.863-0.96-4.803c-0.368-2.938-0.1-8.646,0.014-11.373c0.113-2.727,1.116-7.486,1.426-8.123
		c0.312-0.636,0.438-1.017,0.369-1.173c-0.072-0.155-0.891-0.339-1.597-0.479c-1.371-0.27-2.077-0.015-2.487,0.564
		c-0.834,1.201-1.369,6.4-1.652,12.362c-0.282,5.962,0.324,10.228,0.961,12.743c0.635,2.515,1.486,3.159,3.531,3.319
		c2.718,0.212,3.646-0.903,5.098-3.722C54.489,181.697,56.133,175.812,56.585,172.633z"/>
	<path fill="#3BA1BC" d="M61.383,182.765c2.515,0.073,2.597-1.995,2.892-4.121c0.297-2.127,1.617-7.76,1.793-8.561
		c0.178-0.801,0.375-0.286,0.412-0.073s0.854,3.568,1.648,5.597c0.795,2.028,3.318,4.963,7.495,4.704
		c4.685-0.273,7.493-3.336,8.017-3.916c0.524-0.58,0.262-0.799,0.094-0.917c-0.166-0.117-0.272-0.36-0.365-0.646
		c-0.274-0.826-1.648,0.382-1.648,0.382s-4.13,3.354-7.441,1.909c-3.312-1.442-3.912-8.709-3.974-9.063
		c-0.062-0.355,0.067-0.422,0.198-0.56c0.333-0.316,2.749-2.458,5.547-5.678c4.652-5.503,4.684-9.883,4.049-11.596
		c-0.633-1.712-3.109-2.724-5.275-1.48s-5.571,5.55-5.85,5.909c-0.277,0.361-0.544,0.807-0.43,0.215
		c0.113-0.591,0.438-2.702,0.436-3.705c-0.002-1.004-1.384-1.109-1.384-1.109s-1.034-0.279-1.762,0.013
		c-0.729,0.292-1.093,1.608-1.185,2.397c-0.091,0.789-1.881,11.439-2.177,13.523c-0.295,2.084-1.679,10.159-1.797,10.877
		s-0.874,3.666-0.791,4.841C59.967,182.884,61.383,182.765,61.383,182.765z M67.743,164.898c0,0,1.439-4.188,3.365-7.048
		c1.926-2.861,5.107-6.113,5.107-6.113s0.363-0.399,0.418,0.194c0.055,0.596,0.09,3.225-1.637,6.147
		c-1.463,2.859-4.236,5.514-5.504,6.428c-0.504,0.368-1.307,0.951-1.801,0.772C67.62,165.21,67.743,164.898,67.743,164.898z"/>
	<path fill="#3BA1BC" d="M40.405,212.324c0.634,3.403,4.03,4.143,6.323,1.605c1.125-1.246,1.58-2.334,1.58-2.334
		s0.055,0.829,0.786,0.906c1.517,0.16,1.813-1.571,1.962-2.18c0.495-2.278,1.164-6.85,1.227-8.036
		c0.062-1.188-0.668-1.726-1.707-1.543c-0.887,0.154-0.976,0.998-0.976,0.998s-0.206,1.161-0.243,1.499
		c-0.035,0.337-0.809,6.079-3.93,9.256c-1.334,1.21-2.379,0.376-2.739-1.438c-0.388-1.954,0.918-7.12,1.131-9.143
		c0.213-2.024-1.475-2.063-2.26-1.646c-1.049,0.559-2.279,2.489-3.169,3.657c0.415-2.33,2.033-5.85,3.443-8.969
		c0.931-2.061,1.207-2.657,1.5-3.422c0.293-0.766,0.703-1.951-0.146-2.246s-1.723-0.192-2.186,0.254
		c-0.201,0.193-0.58,1.189-0.7,1.517c-0.119,0.329-2.634,7.579-3.532,10.184c-0.899,2.604-3.013,8.974-3.66,10.525
		c-0.646,1.552-2.17,6.804-4.062,6.889c-2.044-0.016-1.872-3.299-1.751-4.991s0.767-5.588,0.856-5.891
		c0.089-0.304,0.132-0.44,0.132-0.44s5.313-3.064,5.555-3.21c0.243-0.145,0.585-0.433,0.658-0.854
		c0.083-0.475-0.829-0.912-1.079-0.967c-0.249-0.055-0.608-0.032-1.429,0.361c-0.822,0.392-2.559,1.238-2.831,1.394
		c-0.272,0.156-0.288,0.179-0.233-0.071c0.393-2.118,1.661-5.949,1.941-6.961c0.343-1.243-0.315-1.558-0.617-1.66
		c-0.823-0.271-1.541-0.198-2.087,1.282c-0.695,1.887-2.382,7.502-2.382,7.502s-0.461,1.685-0.535,1.848
		c-0.074,0.162-0.316,0.308-0.677,0.497c-3.461,1.97-5.511,3.129-5.919,3.501c-0.408,0.373-0.085,1.079,0.442,1.357
		c0.585,0.311,1.337,0.084,2.39-0.474c1.051-0.543,2.044-1.063,2.857-1.503c0.076-0.05-2.169,6.515-3.256,8.745
		c-1.086,2.229-1.73,2.943-2.343,3.376c-0.614,0.433-0.883,1.643,0.241,1.761s2.192-0.582,2.872-1.646
		c0.68-1.065,2.259-4.593,2.687-5.969c-0.067,3.475,0.984,5.006,2.874,5.719c1.973,0.744,4.16-1.73,4.47-2.656
		c-0.074,0.703,0.037,1.388,0.913,1.499c1.29,0.164,1.697-1.189,1.882-1.738c0.35-1.027,1.298-4.011,2.184-6.759
		c0.885-2.749,2.701-5.59,3.129-6.284c0.428-0.692,0.712-0.529,0.674-0.306C40.478,206.677,39.938,209.813,40.405,212.324z"/>
	<path fill="#3BA1BC" d="M51.591,194.662c-0.807-0.452-1.721-0.108-2.176,0.759c-0.455,0.865,0.006,1.691,0.006,1.691
		s0.574,1.178,1.934,0.516C52.714,196.964,52.398,195.116,51.591,194.662z"/>
	<path fill="#3BA1BC" d="M93.577,203.889c-0.516,0.032-1.637,0.425-1.802,0.379c-0.166-0.046,0.415-0.439-0.771-0.251
		c-4.592,0.711-9.619,2.597-10.117,2.744c-0.498,0.146-0.389-0.099-0.389-0.099s1.846-14.032,1.969-15.213
		c0.123-1.18-0.521-1.424-1.363-1.52c-0.955-0.102-1.371,0.878-1.371,0.878s-0.477-0.877-1.684-1.004
		c-1.996-0.21-3.561,0.624-5.039,2.258c-2.25,2.487-2.91,6.135-3.35,10.322c-3.382,4.416-3.953,0.903-4.007-1.53
		c-0.052-2.435,0.75-6.909-0.776-7.737c-1.529-0.828-3.143,0.867-3.885,1.724c-0.744,0.854-1.744,2.22-2.123,2.735
		c-0.043,0.06,0.131-0.609,0.088-0.559c0.258-1.649-1.553-1.207-2.129-0.669c-0.441,0.41-0.863,1.302-1.223,3.068
		c-0.424,2.075-1.854,9.788-1.854,9.788s-0.135,1.281,1.205,1.251c1.338-0.029,1.768-1.148,1.912-1.701
		c1.521-7.555,4.379-10.58,5.571-11.933c1.558-1.653,0.631,2.921,0.752,5.279c0.187,3.642,1.522,5.949,3.886,5.382
		c1.398-0.336,3.829-3.319,3.829-3.319s0.573,0.629,2.039,0.825c3.316,0.349,5.321-2.509,5.321-2.509s-0.706,4.795-0.792,5.07
		c-0.035,0.168-0.152,0.197-0.152,0.197c-11.761,4.589-12.348,9.019-12.907,11.914c-0.561,2.896,1.291,6.467,4.379,6.28
		c5.662-0.343,9.99-11.621,10.463-13.418s0.707-2.396,0.707-2.396s4.871-2.016,7.684-2.828s5.646-1.577,6.365-2.71
		C94.501,203.821,94.091,203.859,93.577,203.889z M70.554,221.958c-1.188,0.902-2.889,0.839-2.905-1.721
		c-0.015-2.558,1.767-4.5,3.179-5.771c1.411-1.272,3.402-2.406,5.727-3.126C76.554,211.34,75.227,218.045,70.554,221.958z
		 M78.979,193.299c-0.009,0.084-0.763,7.088-4.497,8.684c-2.625,1.061-1.262-5.154-0.171-6.886c1.092-1.732,2.544-2.674,2.618-2.297
		c0.072,0.377,0.521,0.708,1.039,0.648c0.518-0.059,0.671-0.218,0.863-0.364C79.021,192.939,78.979,193.299,78.979,193.299z"/>
	<path fill="#3BA1BC" d="M27.068,155.849c0.07,0.471,0.247,2.767,2.896,4.215c2.649,1.447,5.224-1.308,8.156-6.217
		c0.212,0.529,1.13,2.179,3.461,2.179c2.049,0.036,5.583-2.744,7.243-10.515c2.155-0.883,4.627-2.67,5.369-3.8
		c0.394-0.552,0.462-1.002,0.192-1.286c-0.117-0.123-0.404-0.212-0.617-0.282c-0.334-0.111-0.291-0.565-1.316,0.212
		c-2.536,1.837-3.807,2.33-3.807,2.33s-0.866-2.345-2.787-3.22c-1.922-0.876-6.33,1.328-6.669,1.864
		c-0.339,0.537,0.17,1.413,0.65,2.006c-0.876,1.243-2.086,2.771-2.369,7.573c-1.328,2.316-4.44,6.075-5.881,6.696
		c-0.791,0.34-1.38-1.195-1.437-2.552c-0.056-1.355,0.895-6.688,3.047-10.672c2.153-3.983,3.815-7.205,4.154-9.211
		c0.084-0.622,0-0.876-0.368-1.187c-0.367-0.312-1.356-0.764-2.147-0.565c-0.791,0.197-1.724,1.921-2.458,3.984
		c-0.735,2.062-1.865,5.819-2.798,7.486c-0.671,1.201-2.049,3.775-2.728,4.975c-0.211-0.638-0.825-1.677-2.839-1.254
		c-1.963,0.396-5.003,2.059-6.766,6.686c-1.695,5.015-0.918,6.075,0.53,6.852c1.448,0.777,3.496,0.671,5.086-1.165
		c1.589-1.837,4.142-5.852,4.142-5.852S26.997,155.379,27.068,155.849z M43.683,142.065c0.283-0.142,0.818-0.27,1.059-0.183
		c0.486,0.178,0.607,1.229,0.607,1.229s0.047,0.268-0.235,0.211c-0.989-0.197-1.847-0.539-2.102-0.709
		C42.757,142.444,43.399,142.206,43.683,142.065z M42.867,145.596c0.056-0.085,0.084-0.057,0.392,0.028
		c0.711,0.199,2.096,0.212,2.096,0.212c0.123-0.014,0.094,0.142,0,0.664c-0.516,2.543-2.854,6.004-3.918,6.428
		c-0.49,0.212-0.58-0.664-0.664-1.709C40.663,148.232,42.754,145.794,42.867,145.596z M24.496,153.622
		c-1.61,2.613-4.308,5.566-4.535,5.749c-0.226,0.184-0.367,0.212-0.31-0.042c0.438-2.289,1.639-5.128,2.684-6.612
		c0.836-1.186,2.378-1.696,2.882-1.217c0.056,0.053,0.219,0.224,0.327,0.469C25.29,152.371,24.866,153.021,24.496,153.622z"/>
	<path fill="#3BA1BC" d="M63.503,54.987c11.819-5.157,12.933-12.866,13.631-15.941c0.699-3.076,0.461-9.497-6.586-14.943
		c-7.047-5.447-15.842-8.444-22.088-4.06c-6.247,4.384-6.623,9.477-6.754,12.598c0.025,6.044,1.076,10.872,2.572,15.384
		S52.977,58.484,63.503,54.987z"/>
</g>
<g>
</g>
<g>
</g>
<g>
</g>
<g>
</g>
<g>
</g>
<g>
</g>
</svg>
