<?xml version="1.0" encoding="utf-8"?>
<!-- Generator: Adobe Illustrator 16.0.0, SVG Export Plug-In . SVG Version: 6.00 Build 0)  -->
<!DOCTYPE svg PUBLIC "-//W3C//DTD SVG 1.1 Tiny//EN" "http://www.w3.org/Graphics/SVG/1.1/DTD/svg11-tiny.dtd">
<svg version="1.1" baseProfile="tiny" id="Layer_1" xmlns="http://www.w3.org/2000/svg" xmlns:xlink="http://www.w3.org/1999/xlink"
	 x="0px" y="0px" width="392.308px" height="51.282px" viewBox="0 0 392.308 51.282" xml:space="preserve">
<g>
	<path fill="none" d="M239.507,20.436c-0.064-0.014-0.139-0.021-0.213-0.028C239.367,20.415,239.443,20.421,239.507,20.436z"/>
	<path fill="none" d="M175.491,19.447c0.008,0.012,0.017,0.027,0.024,0.042C175.507,19.474,175.499,19.459,175.491,19.447z"/>
	<path fill="none" d="M106.352,25.176c0,0.871,0.6,1.479,1.458,1.479c1.101,0,1.977-0.698,2.298-1.168v-1.648
		c-0.28-0.161-0.885-0.332-1.752-0.332C107.12,23.507,106.352,24.146,106.352,25.176z"/>
	<path fill="none" d="M144.413,32.85c1.348,0,2.802-0.758,2.802-1.983c0-0.139-0.044-1.353-1.584-1.353h-2.33
		c-0.051,0.014-1.396,0.406-1.396,1.604C141.905,32.105,142.983,32.85,144.413,32.85z"/>
	<path fill="none" d="M197.893,20.506c0.073,0.032,0.138,0.073,0.197,0.118C198.03,20.579,197.966,20.537,197.893,20.506z"/>
	<path fill="none" d="M240.319,21.269c-0.003-0.01-0.006-0.02-0.009-0.029C240.313,21.249,240.316,21.259,240.319,21.269z"/>
	<path fill="none" d="M239.725,20.506c0.073,0.031,0.137,0.072,0.196,0.118C239.861,20.579,239.798,20.537,239.725,20.506z"/>
	<path fill="none" d="M87.21,20.399c-1.372,0-2.477,0.96-2.633,2.286h4.973C89.479,21.424,88.431,20.399,87.21,20.399z"/>
	<path fill="none" d="M240.2,20.943c-0.005-0.009-0.012-0.016-0.017-0.025C240.188,20.928,240.195,20.935,240.2,20.943z"/>
	<path fill="none" d="M236.635,25.176c0,0.871,0.6,1.479,1.458,1.479c1.102,0,1.977-0.698,2.299-1.168v-1.648
		c-0.279-0.161-0.885-0.332-1.753-0.332C237.402,23.507,236.635,24.146,236.635,25.176z"/>
	<path fill="none" d="M109.917,20.942c-0.003-0.006-0.008-0.011-0.011-0.017C109.909,20.931,109.913,20.936,109.917,20.942z"/>
	<path fill="none" d="M33.178,26.55c1.524,0,2.718-1.342,2.718-3.055c0-0.802-0.279-1.554-0.787-2.116
		c-0.51-0.564-1.196-0.875-1.932-0.875s-1.421,0.311-1.931,0.875c-0.508,0.562-0.787,1.313-0.787,2.116
		C30.459,25.208,31.653,26.55,33.178,26.55z"/>
	<path fill="none" d="M216.169,26.55c1.524,0,2.719-1.342,2.719-3.055c0-0.802-0.279-1.554-0.787-2.116
		c-0.51-0.564-1.196-0.875-1.932-0.875s-1.422,0.311-1.932,0.875c-0.508,0.562-0.787,1.313-0.787,2.116
		C213.45,25.208,214.645,26.55,216.169,26.55z"/>
	<path fill="none" d="M168.467,21.168c0.004-0.03,0.011-0.06,0.019-0.09C168.478,21.108,168.471,21.138,168.467,21.168z"/>
	<path fill="none" d="M110.036,21.266c-0.002-0.008-0.005-0.015-0.007-0.023C110.031,21.25,110.034,21.258,110.036,21.266z"/>
	<path fill="none" d="M109.224,20.436c-0.064-0.014-0.139-0.021-0.213-0.028C109.084,20.415,109.159,20.421,109.224,20.436z"/>
	<path fill="none" d="M169.479,20.441c-0.092,0.007-0.176,0.018-0.253,0.034C169.303,20.458,169.39,20.449,169.479,20.441z"/>
	<path fill="none" d="M109.442,20.506c0.073,0.031,0.136,0.072,0.195,0.117C109.578,20.579,109.515,20.537,109.442,20.506z"/>
	<path fill="none" d="M168.662,20.762c-0.039,0.042-0.072,0.085-0.099,0.13C168.59,20.847,168.623,20.804,168.662,20.762z"/>
	<path fill="none" d="M175.306,19.335c0.032,0.004,0.062,0.012,0.086,0.024C175.367,19.347,175.338,19.339,175.306,19.335z"/>
	<path fill="none" d="M168.997,20.542c-0.076,0.03-0.142,0.065-0.199,0.104C168.855,20.607,168.923,20.573,168.997,20.542z"/>
	<path fill="none" d="M144.392,25.101c1.249,0,2.088-0.94,2.088-2.34c0-1.4-0.839-2.341-2.088-2.341
		c-1.292,0-2.193,0.962-2.193,2.341C142.199,24.139,143.101,25.101,144.392,25.101z"/>
	<path fill="none" d="M179.88,25.64c0.494-0.55,0.766-1.304,0.766-2.124c0-0.828-0.245-1.591-0.69-2.15
		c-0.481-0.605-1.154-0.925-1.944-0.925c-1.307,0-2.082,0.96-2.13,1.021v4.316c0.067,0.054,0.928,0.729,2.025,0.729
		C178.677,26.508,179.377,26.2,179.88,25.64z"/>
	<path fill="none" d="M340.276,25.05c0,0.63,0.44,1.092,1.092,1.092c0.672,0,1.323-0.567,1.449-0.819v-1.154
		c0,0-0.567-0.252-1.177-0.252C340.822,23.916,340.276,24.378,340.276,25.05z"/>
	<path fill="none" d="M194.803,25.176c0,0.871,0.6,1.479,1.458,1.479c1.102,0,1.977-0.698,2.298-1.168v-1.648
		c-0.279-0.161-0.884-0.332-1.752-0.332C195.57,23.507,194.803,24.146,194.803,25.176z"/>
	<path fill="none" d="M314.909,23.495c0-1.176-0.903-2.12-2.016-2.12c-1.135,0-2.017,0.944-2.017,2.12
		c0,1.197,0.882,2.163,2.017,2.163C314.006,25.658,314.909,24.692,314.909,23.495z"/>
	<path fill="none" d="M197.675,20.436c-0.065-0.015-0.14-0.021-0.214-0.029C197.535,20.415,197.611,20.421,197.675,20.436z"/>
	<path fill="none" d="M61.926,20.399c-1.372,0-2.477,0.96-2.633,2.286h4.973C64.194,21.424,63.147,20.399,61.926,20.399z"/>
	<path fill="none" d="M260.583,23.517c0-1.176-0.798-2.142-1.953-2.142c-1.07,0-1.596,0.84-1.722,1.28v2.521
		c0,0,0.588,0.482,1.638,0.482C259.722,25.658,260.583,24.692,260.583,23.517z"/>
	<path fill="none" d="M198.368,20.943c-0.004-0.008-0.01-0.014-0.014-0.021C198.358,20.929,198.363,20.935,198.368,20.943z"/>
	<path fill="none" d="M48.928,20.399c-1.372,0-2.477,0.96-2.633,2.286h4.973C51.196,21.424,50.149,20.399,48.928,20.399z"/>
	<path fill="none" d="M198.487,21.267c-0.002-0.009-0.005-0.017-0.007-0.025C198.482,21.25,198.484,21.258,198.487,21.267z"/>
	<path fill="#D41F6C" d="M275.724,13.437c-0.798,0-1.428,0.651-1.428,1.449s0.63,1.449,1.428,1.449c0.819,0,1.471-0.651,1.471-1.449
		S276.543,13.437,275.724,13.437z"/>
	<path fill="#D41F6C" d="M274.884,19.316c-0.21,0-0.398,0.168-0.398,0.399v7.602c0,0.21,0.188,0.399,0.398,0.399h1.743
		c0.21,0,0.399-0.189,0.399-0.399v-7.602c0-0.231-0.189-0.399-0.399-0.399H274.884z"/>
	<path fill="#D41F6C" d="M266.379,13.017h-1.785c-0.21,0-0.399,0.189-0.399,0.399v13.901c0,0.21,0.189,0.399,0.399,0.399h1.743
		c0.314,0,0.441-0.168,0.441-0.399v-4.452c0.209-0.86,0.861-1.49,1.826-1.49c1.008,0,1.66,0.734,1.66,1.89v4.053
		c0,0.21,0.168,0.399,0.398,0.399h1.701c0.21,0,0.398-0.189,0.398-0.399v-4.032c0-2.12-1.092-4.179-3.759-4.179
		c-0.987,0-1.806,0.378-2.226,0.693v-6.384C266.778,13.206,266.589,13.017,266.379,13.017z"/>
	<path fill="#D41F6C" d="M281.079,27.717c0.21,0,0.398-0.189,0.398-0.399V13.416c0-0.21-0.188-0.399-0.398-0.399h-1.764
		c-0.211,0-0.399,0.189-0.399,0.399v13.901c0,0.21,0.188,0.399,0.399,0.399H281.079z"/>
	<path fill="#D41F6C" d="M295.883,19.316h-1.68c-0.252,0-0.399,0.021-0.504,0.231l-2.101,4.746h-0.021l-2.121-4.746
		c-0.063-0.126-0.168-0.231-0.356-0.231h-1.891c-0.314,0-0.482,0.273-0.357,0.546l3.424,7.267l-2.982,6.32
		c-0.146,0.294,0.042,0.567,0.357,0.567h1.806c0.168,0,0.294-0.126,0.356-0.252l6.427-13.902
		C296.388,19.59,296.219,19.316,295.883,19.316z"/>
	<path fill="#D41F6C" d="M256.509,34.017c0.379,0,0.504-0.147,0.504-0.399v-6.152c0.295,0.168,1.051,0.462,1.869,0.462
		c2.268,0,4.158-1.933,4.158-4.41c0-2.415-1.743-4.41-4.053-4.41c-1.365,0-2.395,0.735-2.709,1.155l-0.273-0.693
		c-0.062-0.168-0.21-0.252-0.357-0.252h-0.818c-0.21,0-0.398,0.168-0.398,0.399v13.901c0,0.21,0.188,0.399,0.398,0.399H256.509z
		 M256.908,22.655c0.126-0.44,0.651-1.28,1.722-1.28c1.155,0,1.953,0.966,1.953,2.142s-0.861,2.142-2.037,2.142
		c-1.05,0-1.638-0.482-1.638-0.482V22.655z"/>
	<path fill="#D41F6C" d="M285.53,27.717c0.21,0,0.398-0.189,0.398-0.399V13.416c0-0.21-0.188-0.399-0.398-0.399h-1.764
		c-0.211,0-0.399,0.189-0.399,0.399v13.901c0,0.21,0.188,0.399,0.399,0.399H285.53z"/>
	<path fill="#D41F6C" d="M337.105,26.204c0-0.944-0.799-1.742-1.743-1.742c-0.945,0-1.723,0.798-1.723,1.742
		c0,0.945,0.777,1.723,1.723,1.723C336.307,27.927,337.105,27.149,337.105,26.204z"/>
	<path fill="#D41F6C" d="M304.808,21.375c0.588,0,1.113,0.294,1.449,0.672c0.146,0.126,0.336,0.23,0.525,0.062l0.966-0.924
		c0.21-0.146,0.252-0.399,0.104-0.588c-0.797-0.966-1.806-1.491-3.107-1.491c-2.352,0-4.473,1.933-4.473,4.41
		c0,2.52,2.078,4.41,4.451,4.41c1.491,0,2.604-0.651,3.318-1.765c0.146-0.21,0.062-0.42-0.146-0.588l-0.903-0.776
		c-0.168-0.126-0.378-0.084-0.525,0.062c-0.378,0.357-0.776,0.798-1.68,0.798c-1.134,0-2.037-0.944-2.037-2.142
		C302.75,22.341,303.674,21.375,304.808,21.375z"/>
	<path fill="#D41F6C" d="M297.604,27.927c0.945,0,1.744-0.777,1.744-1.723c0-0.944-0.799-1.742-1.744-1.742
		c-0.944,0-1.722,0.798-1.722,1.742C295.883,27.149,296.66,27.927,297.604,27.927z"/>
	<path fill="#D41F6C" d="M354.661,19.316h-1.596c-0.337,0-0.463,0.084-0.463,0.399v4.368c-0.126,0.756-0.798,1.574-1.68,1.574
		c-0.966,0-1.533-0.692-1.533-1.806v-4.137c0-0.231-0.188-0.399-0.398-0.399h-1.723c-0.21,0-0.398,0.168-0.398,0.399v4.074
		c0,2.142,0.945,4.137,3.549,4.137c1.659,0,2.437-0.882,2.814-1.218l0.252,0.692c0.062,0.168,0.188,0.315,0.398,0.315h0.777
		c0.21,0,0.398-0.189,0.398-0.399v-7.602C355.06,19.484,354.871,19.316,354.661,19.316z"/>
	<path fill="#D41F6C" d="M337.966,25.05c0,1.785,1.155,2.877,2.835,2.877c1.302,0,2.079-0.63,2.562-1.071l0.252,0.567
		c0.104,0.23,0.21,0.294,0.356,0.294h0.756c0.21,0,0.399-0.189,0.399-0.399v-4.557c0-2.289-0.609-3.654-3.234-3.654
		c-1.344,0-2.688,0.336-2.855,0.399c-0.189,0.062-0.357,0.21-0.294,0.524l0.188,1.093c0.042,0.272,0.189,0.462,0.483,0.378
		c0.483-0.147,1.575-0.315,2.352-0.315c0.777,0,1.113,0.378,1.093,1.449c0,0-0.693-0.231-1.533-0.231
		C339.184,22.403,337.966,23.559,337.966,25.05z M342.817,24.168v1.154c-0.126,0.252-0.777,0.819-1.449,0.819
		c-0.651,0-1.092-0.462-1.092-1.092c0-0.672,0.546-1.134,1.364-1.134C342.25,23.916,342.817,24.168,342.817,24.168z"/>
	<path fill="#D41F6C" d="M317.198,23.495c0-2.372-1.932-4.389-4.305-4.389s-4.306,2.017-4.306,4.389
		c0,2.415,1.933,4.432,4.306,4.432S317.198,25.91,317.198,23.495z M310.877,23.495c0-1.176,0.882-2.12,2.017-2.12
		c1.112,0,2.016,0.944,2.016,2.12c0,1.197-0.903,2.163-2.016,2.163C311.759,25.658,310.877,24.692,310.877,23.495z"/>
	<path fill="#D41F6C" d="M330.343,27.717h1.702c0.23,0,0.398-0.189,0.398-0.399v-4.011c0-2.205-0.987-4.2-3.675-4.2
		c-1.513,0-2.604,0.924-2.961,1.302c-0.692-0.84-1.533-1.302-2.73-1.302c-1.49,0-2.457,0.84-2.813,1.239l-0.295-0.798
		c-0.041-0.126-0.168-0.231-0.356-0.231h-0.777c-0.209,0-0.398,0.168-0.398,0.399v7.602c0,0.21,0.189,0.399,0.398,0.399h1.702
		c0.21,0,0.398-0.189,0.398-0.399v-4.62c0.209-0.566,0.714-1.322,1.765-1.322c1.069,0,1.553,0.692,1.553,1.784v4.158
		c0,0.21,0.168,0.399,0.399,0.399h1.574c0.211,0,0.399-0.189,0.399-0.399v-4.263c0-0.378-0.021-0.798-0.021-0.798
		s0.547-0.882,1.764-0.882c1.051,0,1.576,0.692,1.576,1.784v4.158C329.945,27.527,330.113,27.717,330.343,27.717z"/>
	<path fill="#0C3454" d="M39.499,27.705h0.651c0.203,0,0.387-0.185,0.387-0.388l0.002-5.612c0.007-0.012,0.714-1.183,2.299-1.183
		c0.327,0,0.648,0.091,0.824,0.169c0.081,0.032,0.149,0.048,0.209,0.048c0.128,0,0.22-0.075,0.28-0.23l0.252-0.713
		c0.043-0.122,0.033-0.229-0.03-0.319c-0.229-0.324-1.076-0.359-1.429-0.359c-1.717,0-2.503,1.097-2.511,1.108l-0.014,0.021
		l-0.007-0.024l-0.168-0.609c-0.039-0.173-0.174-0.285-0.346-0.285h-0.399c-0.203,0-0.387,0.185-0.387,0.388v7.602
		C39.112,27.521,39.296,27.705,39.499,27.705z"/>
	<path fill="#0C3454" d="M33.178,27.915c2.298,0,4.167-1.982,4.167-4.42c0-1.153-0.43-2.245-1.212-3.076
		c-0.79-0.839-1.839-1.301-2.956-1.301c-2.298,0-4.167,1.963-4.167,4.377C29.011,25.933,30.88,27.915,33.178,27.915z M31.229,21.364
		c0.515-0.57,1.207-0.884,1.948-0.884c0.742,0,1.434,0.314,1.948,0.884c0.512,0.566,0.793,1.323,0.793,2.131
		c0,1.726-1.205,3.078-2.742,3.078s-2.742-1.352-2.742-3.078C30.436,22.687,30.718,21.93,31.229,21.364z"/>
	<path fill="#0C3454" d="M47.132,25.774c-0.52-0.52-0.841-1.212-0.883-1.9l0-0.012h6.061c0.189,0,0.347-0.149,0.367-0.347
		c0.022-0.155,0.042-0.424,0.042-0.566c0-2.22-1.594-3.831-3.79-3.831c-1.207,0-2.245,0.453-3.002,1.311
		c-0.711,0.805-1.102,1.902-1.102,3.087c0,1.201,0.391,2.303,1.102,3.103c0.753,0.848,1.791,1.295,3.002,1.295
		c1.374,0,2.518-0.519,3.08-0.963c0.132-0.097,0.199-0.178,0.209-0.256c0.012-0.087-0.042-0.165-0.127-0.273
		c-0.066-0.087-0.125-0.169-0.186-0.251c-0.055-0.076-0.111-0.151-0.171-0.232c-0.065-0.089-0.124-0.129-0.192-0.129
		c-0.082,0-0.176,0.055-0.306,0.131c-0.024,0.014-0.049,0.028-0.075,0.043c-0.698,0.425-1.38,0.632-2.085,0.632
		C48.364,26.615,47.674,26.316,47.132,25.774z M46.271,22.696c0.151-1.344,1.269-2.32,2.657-2.32c1.237,0,2.297,1.041,2.364,2.321
		l0,0.012h-5.023L46.271,22.696z"/>
	<path fill="#0C3454" d="M49.662,27.873c-0.148,0.02-0.301,0.033-0.457,0.041C49.362,27.906,49.515,27.892,49.662,27.873z"/>
	<path fill="#0C3454" d="M50.527,27.688c-0.104,0.031-0.211,0.058-0.321,0.084C50.317,27.747,50.424,27.719,50.527,27.688z"/>
	<path fill="#0C3454" d="M51.245,27.418c-0.044,0.021-0.092,0.041-0.138,0.061C51.154,27.459,51.201,27.439,51.245,27.418z"/>
	<path fill="#0C3454" d="M51.825,27.097c-0.022,0.015-0.046,0.03-0.07,0.045C51.779,27.127,51.802,27.112,51.825,27.097z"/>
	<path fill="#0C3454" d="M21.94,19.765c0.084-0.05,0.17-0.092,0.256-0.137C22.109,19.673,22.019,19.718,21.94,19.765z"/>
	<path fill="#0C3454" d="M22.81,19.354c0.078-0.028,0.156-0.053,0.234-0.077C22.964,19.301,22.886,19.326,22.81,19.354z"/>
	<path fill="#0C3454" d="M21.473,21.943c0.031,0.22,0.049,0.441,0.058,0.663C21.521,22.373,21.502,22.151,21.473,21.943z"/>
	<path fill="#0C3454" d="M23.476,19.166c0.042-0.007,0.083-0.008,0.124-0.014C23.559,19.158,23.517,19.159,23.476,19.166z"/>
	<path fill="#0C3454" d="M21.185,20.297c0.135-0.11,0.271-0.214,0.409-0.31C21.42,20.107,21.289,20.211,21.185,20.297z"/>
	<path fill="#0C3454" d="M25.631,19.387c0.018,0.007,0.033,0.019,0.051,0.026C25.664,19.405,25.649,19.395,25.631,19.387z"/>
	<path fill="#0C3454" d="M26.623,20.153c0.028,0.036,0.051,0.079,0.078,0.117C26.674,20.231,26.651,20.189,26.623,20.153z"/>
	<path fill="#0C3454" d="M26.961,20.71c0.015,0.032,0.025,0.068,0.04,0.101C26.987,20.778,26.976,20.743,26.961,20.71z"/>
	<path fill="#0C3454" d="M26.181,19.711c0.033,0.026,0.061,0.057,0.093,0.084C26.241,19.768,26.214,19.737,26.181,19.711z"/>
	<path fill="#0C3454" d="M24.001,20.502c1.244,0,1.902,0.825,1.902,2.385v4.431c0,0.203,0.185,0.388,0.387,0.388h0.672
		c0.203,0,0.387-0.185,0.387-0.388v-4.431c0-2.501-1.091-3.769-3.243-3.769c-1.007,0-2.102,0.472-3.083,1.33
		c-0.019,0.016-0.032,0.027-0.039,0.033l-0.01,0.008l-0.007-0.011c-0.559-0.902-1.46-1.359-2.678-1.359
		c-1.718,0-2.711,1.098-2.721,1.109l-0.014,0.016l-0.195-0.671c-0.042-0.167-0.145-0.244-0.325-0.244h-0.399
		c-0.203,0-0.387,0.185-0.387,0.388v7.602c0,0.203,0.185,0.388,0.387,0.388h0.651c0.203,0,0.387-0.185,0.387-0.388l0.002-5.613
		c0.009-0.012,0.923-1.202,2.403-1.202c1.312,0,2.006,0.825,2.006,2.385v4.431c0,0.203,0.185,0.388,0.387,0.388h0.672
		c0.203,0,0.387-0.185,0.387-0.388v-4.431c0-0.404-0.034-0.795-0.104-1.195l-0.001-0.006l0.046-0.043
		C21.806,21.33,22.691,20.502,24.001,20.502z"/>
	<path fill="#0C3454" d="M43.968,20.729c-0.012,0.005-0.024,0.01-0.037,0.013C43.944,20.74,43.956,20.734,43.968,20.729z"/>
	<path fill="#0C3454" d="M216.169,27.915c2.298,0,4.167-1.982,4.167-4.42c0-2.414-1.869-4.377-4.167-4.377
		c-1.116,0-2.166,0.462-2.956,1.301c-0.781,0.831-1.212,1.923-1.212,3.076C212.001,25.933,213.87,27.915,216.169,27.915z
		 M214.22,21.364c0.516-0.57,1.207-0.884,1.949-0.884s1.434,0.314,1.949,0.884c0.511,0.566,0.793,1.323,0.793,2.131
		c0,1.726-1.205,3.078-2.742,3.078s-2.742-1.352-2.742-3.078C213.427,22.687,213.709,21.93,214.22,21.364z"/>
	<path fill="#0C3454" d="M229.209,20.71c0.015,0.032,0.025,0.069,0.04,0.102C229.234,20.778,229.224,20.743,229.209,20.71z"/>
	<path fill="#0C3454" d="M226.354,19.118c-1.72,0-2.921,1.099-2.933,1.11l-0.014,0.013l-0.005-0.018l-0.188-0.651
		c-0.043-0.167-0.146-0.244-0.326-0.244h-0.399c-0.202,0-0.387,0.185-0.387,0.388v7.602c0,0.203,0.185,0.388,0.387,0.388h0.652
		c0.202,0,0.387-0.185,0.387-0.388v-5.611l0.003-0.003c0.012-0.012,1.155-1.201,2.718-1.201c1.226,0,1.901,0.847,1.901,2.385v4.431
		c0,0.203,0.185,0.388,0.388,0.388h0.672c0.202,0,0.387-0.185,0.387-0.388v-4.431c0-1.17-0.239-2.079-0.711-2.703
		C228.35,19.477,227.498,19.118,226.354,19.118z"/>
	<path fill="#0C3454" d="M144.087,26.359c-0.112-0.007-0.222-0.015-0.323-0.029C143.866,26.344,143.974,26.353,144.087,26.359z"/>
	<path fill="#0C3454" d="M137.222,22.887v4.431c0,0.203,0.185,0.388,0.387,0.388h0.672c0.203,0,0.387-0.185,0.387-0.388v-4.431
		c0-2.501-1.091-3.769-3.243-3.769c-1.718,0-2.92,1.099-2.932,1.11l-0.014,0.013l-0.005-0.018l-0.189-0.651
		c-0.042-0.167-0.145-0.244-0.325-0.244h-0.399c-0.203,0-0.387,0.185-0.387,0.388v7.602c0,0.203,0.185,0.388,0.387,0.388h0.651
		c0.203,0,0.387-0.185,0.387-0.388v-5.611l0.003-0.003c0.011-0.012,1.156-1.201,2.717-1.201
		C136.546,20.502,137.222,21.349,137.222,22.887z"/>
	<path fill="#0C3454" d="M138.28,20.71c0.015,0.032,0.025,0.068,0.04,0.101C138.306,20.778,138.295,20.743,138.28,20.71z"/>
	<path fill="#0C3454" d="M228.429,19.711c0.033,0.026,0.061,0.057,0.093,0.084C228.489,19.768,228.462,19.737,228.429,19.711z"/>
	<path fill="#0C3454" d="M227.879,19.386c0.019,0.008,0.033,0.019,0.052,0.027C227.912,19.405,227.897,19.395,227.879,19.386z"/>
	<path fill="#0C3454" d="M228.871,20.153c0.028,0.037,0.052,0.079,0.078,0.117C228.923,20.231,228.899,20.189,228.871,20.153z"/>
	<path fill="#0C3454" d="M154.661,13.448c-0.547,0-0.976,0.438-0.976,0.996c0,0.538,0.438,0.976,0.976,0.976
		c0.559,0,0.996-0.428,0.996-0.976C155.657,13.886,155.22,13.448,154.661,13.448z"/>
	<path fill="#0C3454" d="M137.942,20.153c0.028,0.036,0.051,0.079,0.078,0.117C137.993,20.231,137.97,20.189,137.942,20.153z"/>
	<path fill="#0C3454" d="M141.623,29.301l0.009,0.002v0.079l-0.023,0.014c-0.988,0.587-1.195,1.375-1.195,1.932
		c0,0.746,0.339,1.442,0.957,1.96c0.722,0.606,1.781,0.926,3.064,0.926c1.192,0,2.3-0.371,3.119-1.044
		c0.773-0.636,1.216-1.491,1.216-2.346c0-0.856-0.314-1.554-0.909-2.02c-0.549-0.43-1.32-0.656-2.229-0.656h-3.024
		c-0.806,0-1.167-0.523-1.167-1.041c0-0.837,0.922-1.266,0.931-1.27l0.006-0.003l0.006,0.004c0.006,0.005,0.664,0.522,1.988,0.522
		c1.027,0,1.915-0.368,2.566-1.064c0.613-0.655,0.95-1.541,0.95-2.494c0-1.634-0.931-2.336-0.94-2.343l-0.021-0.015l0.025-0.005
		l1.134-0.23c0.137-0.02,0.222-0.195,0.222-0.346v-0.356c0-0.225-0.163-0.388-0.387-0.388h-3.549c-1.034,0-1.928,0.384-2.585,1.112
		c-0.615,0.68-0.953,1.594-0.953,2.573c0,1.221,0.663,2.084,0.67,2.092l0.008,0.011l-0.011,0.006
		c-0.014,0.008-1.401,0.835-1.401,2.405C140.099,28.48,140.92,29.113,141.623,29.301z M143.297,29.491l0.003,0h2.331
		c1.562,0,1.608,1.235,1.608,1.376c0,1.239-1.467,2.007-2.826,2.007c-1.443,0-2.532-0.754-2.532-1.755
		C141.881,29.885,143.283,29.495,143.297,29.491z M144.392,20.396c1.263,0,2.111,0.95,2.111,2.364c0,1.414-0.849,2.363-2.111,2.363
		c-1.305,0-2.217-0.972-2.217-2.363C142.175,21.369,143.087,20.396,144.392,20.396z"/>
	<path fill="#0C3454" d="M143.231,26.227c-0.039-0.011-0.081-0.021-0.117-0.032C143.151,26.206,143.192,26.216,143.231,26.227z"/>
	<path fill="#0C3454" d="M123.384,19.387c0.018,0.007,0.033,0.019,0.051,0.026C123.417,19.405,123.402,19.395,123.384,19.387z"/>
	<path fill="#0C3454" d="M124.376,20.153c0.028,0.036,0.051,0.079,0.078,0.117C124.427,20.231,124.404,20.189,124.376,20.153z"/>
	<path fill="#0C3454" d="M123.934,19.711c0.033,0.026,0.061,0.057,0.093,0.084C123.994,19.768,123.967,19.737,123.934,19.711z"/>
	<path fill="#0C3454" d="M114.845,19.328h-0.651c-0.203,0-0.387,0.185-0.387,0.388v7.602c0,0.203,0.185,0.388,0.387,0.388h0.651
		c0.203,0,0.388-0.185,0.388-0.388v-7.602C115.232,19.513,115.048,19.328,114.845,19.328z"/>
	<path fill="#0C3454" d="M137.5,19.711c0.033,0.026,0.061,0.057,0.092,0.084C137.561,19.768,137.533,19.737,137.5,19.711z"/>
	<path fill="#0C3454" d="M114.488,13.448c-0.547,0-0.975,0.438-0.975,0.996c0,0.538,0.438,0.976,0.975,0.976
		c0.559,0,0.997-0.428,0.997-0.976C115.484,13.886,115.047,13.448,114.488,13.448z"/>
	<path fill="#0C3454" d="M239.629,20.475C239.628,20.475,239.628,20.475,239.629,20.475
		C239.628,20.475,239.628,20.475,239.629,20.475z"/>
	<path fill="#0C3454" d="M136.95,19.387c0.018,0.007,0.033,0.019,0.05,0.026C136.982,19.405,136.968,19.395,136.95,19.387z"/>
	<path fill="#0C3454" d="M128.411,19.328h-0.651c-0.203,0-0.387,0.185-0.387,0.388v7.602c0,0.203,0.185,0.388,0.387,0.388h0.651
		c0.203,0,0.387-0.185,0.387-0.388v-7.602C128.798,19.513,128.614,19.328,128.411,19.328z"/>
	<path fill="#0C3454" d="M128.054,13.448c-0.547,0-0.975,0.438-0.975,0.996c0,0.538,0.438,0.976,0.975,0.976
		c0.559,0,0.997-0.428,0.997-0.976C129.05,13.886,128.613,13.448,128.054,13.448z"/>
	<path fill="#0C3454" d="M124.714,20.71c0.015,0.032,0.025,0.068,0.04,0.101C124.74,20.778,124.729,20.743,124.714,20.71z"/>
	<path fill="#0C3454" d="M123.656,22.887v4.431c0,0.203,0.185,0.388,0.387,0.388h0.672c0.203,0,0.387-0.185,0.387-0.388v-4.431
		c0-2.501-1.091-3.769-3.243-3.769c-1.718,0-2.92,1.099-2.932,1.11l-0.014,0.013l-0.005-0.018l-0.189-0.651
		c-0.042-0.167-0.145-0.244-0.325-0.244h-0.399c-0.203,0-0.388,0.185-0.388,0.388v7.602c0,0.203,0.185,0.388,0.388,0.388h0.651
		c0.203,0,0.387-0.185,0.387-0.388v-5.611l0.003-0.003c0.011-0.012,1.155-1.201,2.717-1.201
		C122.98,20.502,123.656,21.349,123.656,22.887z"/>
	<path fill="#0C3454" d="M206.661,25.962c0.001,0,0.002-0.001,0.003-0.001C206.663,25.961,206.662,25.962,206.661,25.962z"/>
	<path fill="#0C3454" d="M198.203,20.692c0.062,0.063,0.105,0.147,0.151,0.23c0.004,0.007,0.01,0.013,0.014,0.021
		c0.046,0.088,0.082,0.19,0.112,0.299c0.002,0.008,0.004,0.016,0.007,0.025c0.095,0.359,0.125,0.814,0.117,1.389l0,0.016
		l-0.015-0.004c-0.009-0.003-0.891-0.272-1.782-0.272c-2.034,0-3.348,1.092-3.348,2.781c0,1.613,1.057,2.739,2.571,2.739
		c1.245,0,2.099-0.592,2.596-1.088l0.014-0.014l0.006,0.019l0.168,0.566c0.062,0.186,0.119,0.307,0.346,0.307h0.399
		c0.203,0,0.387-0.185,0.387-0.388v-4.662c0-1.329-0.163-2.158-0.528-2.689c-0.398-0.579-1.074-0.848-2.127-0.848
		c-1.681,0-2.903,0.539-2.914,0.544c-0.226,0.1-0.295,0.238-0.226,0.448l0.168,0.525c0.069,0.207,0.202,0.278,0.384,0.203
		c0.198-0.077,1.251-0.463,2.524-0.463c0.092,0,0.154,0.023,0.234,0.031c0.074,0.007,0.149,0.014,0.214,0.029
		c0.078,0.018,0.151,0.041,0.217,0.07c0.074,0.031,0.138,0.073,0.197,0.118C198.124,20.65,198.172,20.661,198.203,20.692z
		 M198.58,25.497c-0.323,0.475-1.207,1.182-2.319,1.182c-0.872,0-1.481-0.618-1.481-1.503c0-1.044,0.777-1.692,2.027-1.692
		c0.878,0,1.49,0.175,1.77,0.339l0.006,0.003L198.58,25.497z"/>
	<path fill="#0C3454" d="M184.921,19.328h-0.651c-0.203,0-0.387,0.185-0.387,0.388v7.602c0,0.203,0.185,0.388,0.387,0.388h0.651
		c0.203,0,0.387-0.185,0.387-0.388v-7.602C185.308,19.513,185.124,19.328,184.921,19.328z"/>
	<path fill="#0C3454" d="M239.825,27.351c-0.036,0.023-0.075,0.045-0.112,0.068C239.751,27.396,239.789,27.374,239.825,27.351z"/>
	<path fill="#0C3454" d="M174.799,34.005h0.651c0.203,0,0.388-0.185,0.388-0.388v-6.408l0.019,0.015
		c0.008,0.007,0.874,0.69,2.239,0.69c1.108,0,2.128-0.451,2.874-1.27c0.739-0.812,1.146-1.917,1.146-3.108
		c0-2.478-1.738-4.419-3.958-4.419c-1.489,0-2.419,0.87-2.428,0.878l-0.013,0.012l-0.006-0.017l-0.147-0.398
		c-0.017-0.042-0.033-0.074-0.05-0.105c-0.008-0.014-0.016-0.03-0.024-0.042c-0.029-0.043-0.061-0.07-0.099-0.088
		c-0.024-0.012-0.054-0.02-0.086-0.024c-0.021-0.003-0.041-0.007-0.066-0.007h-0.441c-0.203,0-0.387,0.185-0.387,0.388v13.901
		C174.412,33.82,174.596,34.005,174.799,34.005z M175.861,21.452c0.008-0.01,0.796-1.034,2.151-1.034
		c0.797,0,1.476,0.323,1.962,0.934c0.449,0.563,0.696,1.332,0.696,2.165c0,0.825-0.274,1.584-0.772,2.139
		c-0.507,0.564-1.213,0.875-1.99,0.875c-1.146,0-2.035-0.731-2.044-0.738l-0.004-0.003L175.861,21.452z"/>
	<path fill="#0C3454" d="M196.685,27.863c-0.139,0.025-0.285,0.042-0.437,0.05C196.4,27.904,196.545,27.888,196.685,27.863z"/>
	<path fill="#0C3454" d="M184.564,13.448c-0.547,0-0.976,0.438-0.976,0.996c0,0.538,0.438,0.976,0.976,0.976
		c0.559,0,0.996-0.428,0.996-0.976C185.56,13.886,185.123,13.448,184.564,13.448z"/>
	<path fill="#0C3454" d="M192.54,20.729c-0.012,0.005-0.024,0.01-0.037,0.013C192.516,20.74,192.528,20.734,192.54,20.729z"/>
	<path fill="#0C3454" d="M197.797,20.475c0,0-0.001,0-0.001,0C197.796,20.475,197.796,20.475,197.797,20.475z"/>
	<path fill="#0C3454" d="M197.99,27.353c-0.033,0.021-0.068,0.042-0.103,0.062C197.922,27.394,197.957,27.374,197.99,27.353z"/>
	<path fill="#0C3454" d="M197.406,27.655c-0.089,0.037-0.184,0.069-0.28,0.1C197.223,27.725,197.316,27.692,197.406,27.655z"/>
	<path fill="#0C3454" d="M155.018,19.328h-0.651c-0.203,0-0.387,0.185-0.387,0.388v7.602c0,0.203,0.185,0.388,0.387,0.388h0.651
		c0.203,0,0.387-0.185,0.387-0.388v-7.602C155.405,19.513,155.221,19.328,155.018,19.328z"/>
	<path fill="#0C3454" d="M188.071,27.705h0.651c0.203,0,0.388-0.185,0.388-0.388l0.002-5.612c0.007-0.012,0.714-1.183,2.298-1.183
		c0.327,0,0.64,0.087,0.824,0.169c0.081,0.032,0.149,0.048,0.209,0.048c0.128,0,0.22-0.075,0.279-0.23l0.252-0.713
		c0.043-0.122,0.033-0.229-0.03-0.319c-0.229-0.324-1.076-0.359-1.429-0.359c-1.716,0-2.502,1.097-2.51,1.108l-0.014,0.02
		l-0.007-0.023l-0.168-0.609c-0.039-0.173-0.174-0.285-0.346-0.285h-0.399c-0.203,0-0.387,0.185-0.387,0.388v7.602
		C187.684,27.521,187.868,27.705,188.071,27.705z"/>
	<path fill="#0C3454" d="M206.778,25.972c0.013,0.004,0.024,0.008,0.036,0.014C206.803,25.98,206.791,25.976,206.778,25.972z"/>
	<path fill="#0C3454" d="M206.677,19.328h-2.448v-2.385c0-0.21-0.167-0.387-0.366-0.387l-0.671,0.042
		c-0.203,0-0.388,0.184-0.388,0.387v2.343h-1.083c-0.225,0-0.387,0.163-0.387,0.388v0.462c0,0.213,0.173,0.387,0.387,0.387h1.083
		v5.052c0,1.419,0.321,2.299,1.92,2.299c0.991,0,2.112-0.521,2.409-0.712c0.243-0.155,0.277-0.279,0.144-0.51l-0.315-0.525
		c-0.066-0.107-0.124-0.2-0.246-0.2c-0.064,0-0.145,0.025-0.242,0.078c-0.223,0.12-0.983,0.464-1.539,0.464
		c-0.478,0-0.705-0.153-0.705-1.021v-4.926h2.448c0.213,0,0.387-0.173,0.387-0.387v-0.462
		C207.063,19.491,206.901,19.328,206.677,19.328z"/>
	<path fill="#0C3454" d="M163.829,22.887v4.431c0,0.203,0.185,0.388,0.387,0.388h0.672c0.203,0,0.388-0.185,0.388-0.388v-4.431
		c0-2.501-1.091-3.769-3.244-3.769c-1.718,0-2.92,1.099-2.932,1.11l-0.014,0.013l-0.005-0.018l-0.189-0.651
		c-0.042-0.167-0.145-0.244-0.325-0.244h-0.399c-0.203,0-0.387,0.185-0.387,0.388v7.602c0,0.203,0.185,0.388,0.387,0.388h0.651
		c0.203,0,0.387-0.185,0.387-0.388v-5.611l0.003-0.003c0.011-0.012,1.156-1.201,2.717-1.201
		C163.153,20.502,163.829,21.349,163.829,22.887z"/>
	<path fill="#0C3454" d="M164.888,20.711c0.015,0.031,0.025,0.066,0.039,0.098C164.913,20.777,164.902,20.742,164.888,20.711z"/>
	<path fill="#0C3454" d="M164.107,19.711c0.032,0.025,0.059,0.055,0.09,0.082C164.167,19.767,164.14,19.736,164.107,19.711z"/>
	<path fill="#0C3454" d="M64.822,27.098c-0.021,0.015-0.045,0.029-0.068,0.044C64.777,27.126,64.8,27.112,64.822,27.098z"/>
	<path fill="#0C3454" d="M163.557,19.387c0.017,0.007,0.032,0.018,0.048,0.025C163.589,19.404,163.575,19.394,163.557,19.387z"/>
	<path fill="#0C3454" d="M209.848,19.328h-0.651c-0.202,0-0.387,0.185-0.387,0.388v7.602c0,0.203,0.185,0.388,0.387,0.388h0.651
		c0.203,0,0.388-0.185,0.388-0.388v-7.602C210.235,19.513,210.051,19.328,209.848,19.328z"/>
	<path fill="#0C3454" d="M168.563,20.892c0.027-0.045,0.06-0.088,0.099-0.13c0.039-0.042,0.084-0.08,0.136-0.116
		c0.057-0.039,0.124-0.074,0.199-0.104c0.068-0.028,0.146-0.049,0.229-0.067c0.077-0.016,0.161-0.027,0.253-0.034
		c0.062-0.005,0.106-0.023,0.175-0.023c0.771,0,1.677,0.5,1.686,0.505c0.057,0.032,0.124,0.048,0.194,0.048
		c0.168,0,0.321-0.089,0.399-0.233l0.168-0.336c0.121-0.22,0.064-0.511-0.122-0.635c-0.458-0.314-1.309-0.649-2.325-0.649
		c-1.948,0-2.655,1.299-2.655,2.173c0,1.407,1.232,2.131,2.387,2.699c1.253,0.625,1.855,0.958,1.855,1.69
		c0,0.61-0.554,1.02-1.377,1.02c-1.062,0-1.972-0.731-1.981-0.738c-0.089-0.057-0.184-0.087-0.273-0.087
		c-0.118,0-0.219,0.054-0.277,0.147c-0.025,0.041-0.063,0.114-0.104,0.19c-0.065,0.122-0.139,0.259-0.189,0.335
		c-0.062,0.143,0.004,0.347,0.103,0.425c0.523,0.404,1.374,0.942,2.723,0.942c0.805,0,1.546-0.258,2.087-0.727
		c0.508-0.439,0.799-1.036,0.799-1.634c0-1.533-1.333-2.171-2.744-2.846l-0.083-0.04c-0.826-0.402-1.478-0.72-1.478-1.398
		c0-0.034,0.017-0.067,0.021-0.102c0.004-0.03,0.011-0.06,0.019-0.09C168.503,21.013,168.527,20.953,168.563,20.892z"/>
	<path fill="#0C3454" d="M209.491,13.448c-0.547,0-0.976,0.438-0.976,0.996c0,0.538,0.438,0.976,0.976,0.976
		c0.559,0,0.996-0.428,0.996-0.976C210.487,13.886,210.05,13.448,209.491,13.448z"/>
	<path fill="#0C3454" d="M171.831,20.876c-0.004,0.003-0.007,0.008-0.011,0.011C171.824,20.884,171.827,20.88,171.831,20.876z"/>
	<path fill="#0C3454" d="M171.686,20.954c-0.017,0.006-0.034,0.01-0.051,0.014C171.652,20.964,171.668,20.96,171.686,20.954z"/>
	<path fill="#0C3454" d="M167.684,25.874c0.037,0.006,0.073,0.021,0.11,0.036C167.756,25.894,167.72,25.88,167.684,25.874z"/>
	<path fill="#0C3454" d="M164.55,20.154c0.027,0.035,0.05,0.076,0.076,0.113C164.6,20.23,164.578,20.189,164.55,20.154z"/>
	<path fill="#0C3454" d="M89.525,27.419c-0.043,0.02-0.088,0.039-0.133,0.058C89.438,27.458,89.482,27.439,89.525,27.419z"/>
	<path fill="#0C3454" d="M90.106,27.098c-0.021,0.015-0.045,0.029-0.068,0.044C90.061,27.126,90.084,27.112,90.106,27.098z"/>
	<path fill="#0C3454" d="M81.582,19.328h-2.448v-2.385c0-0.21-0.167-0.387-0.366-0.387l-0.672,0.042
		c-0.203,0-0.388,0.184-0.388,0.387v2.343h-1.083c-0.225,0-0.387,0.163-0.387,0.388v0.462c0,0.213,0.173,0.387,0.387,0.387h1.083
		v5.052c0,1.419,0.321,2.299,1.92,2.299c0.991,0,2.112-0.521,2.409-0.712c0.213-0.136,0.294-0.252,0.144-0.51l-0.315-0.525
		c-0.067-0.107-0.125-0.2-0.247-0.2c-0.064,0-0.143,0.025-0.242,0.078c-0.223,0.12-0.984,0.464-1.539,0.464
		c-0.477,0-0.705-0.153-0.705-1.021v-4.926h2.448c0.214,0,0.387-0.173,0.387-0.387v-0.462
		C81.969,19.491,81.807,19.328,81.582,19.328z"/>
	<path fill="#0C3454" d="M81.568,25.961L81.568,25.961L81.568,25.961z"/>
	<path fill="#0C3454" d="M81.683,25.971c0.013,0.004,0.025,0.009,0.037,0.015C81.708,25.98,81.695,25.976,81.683,25.971z"/>
	<path fill="#0C3454" d="M87.944,27.873c-0.148,0.02-0.3,0.033-0.456,0.041C87.644,27.906,87.796,27.893,87.944,27.873z"/>
	<path fill="#0C3454" d="M248.493,25.962c0,0,0.001,0,0.002,0C248.494,25.961,248.493,25.962,248.493,25.962z"/>
	<path fill="#0C3454" d="M97.538,20.729c-0.012,0.005-0.024,0.01-0.037,0.013C97.514,20.74,97.526,20.734,97.538,20.729z"/>
	<path fill="#0C3454" d="M73.446,22.887v4.431c0,0.203,0.185,0.388,0.387,0.388h0.672c0.203,0,0.387-0.185,0.387-0.388v-4.431
		c0-2.501-1.091-3.769-3.243-3.769c-1.718,0-2.92,1.099-2.932,1.11l-0.014,0.013l-0.005-0.018l-0.189-0.651
		c-0.042-0.167-0.145-0.244-0.325-0.244h-0.399c-0.203,0-0.387,0.185-0.387,0.388v7.602c0,0.203,0.185,0.388,0.387,0.388h0.651
		c0.203,0,0.387-0.185,0.387-0.388v-5.611l0.003-0.003c0.011-0.012,1.155-1.201,2.717-1.201
		C72.77,20.502,73.446,21.349,73.446,22.887z"/>
	<path fill="#0C3454" d="M88.808,27.689c-0.102,0.031-0.208,0.057-0.316,0.083C88.601,27.746,88.706,27.719,88.808,27.689z"/>
	<path fill="#0C3454" d="M85.414,25.774c-0.52-0.52-0.841-1.212-0.882-1.9l-0.001-0.012h6.06c0.189,0,0.347-0.149,0.367-0.347
		c0.022-0.155,0.042-0.424,0.042-0.566c0-2.22-1.593-3.831-3.789-3.831c-1.207,0-2.245,0.453-3.002,1.311
		c-0.711,0.805-1.102,1.902-1.102,3.087c0,1.201,0.391,2.303,1.102,3.103c0.753,0.848,1.792,1.295,3.002,1.295
		c1.374,0,2.518-0.519,3.08-0.963c0.132-0.097,0.199-0.178,0.209-0.256c0.012-0.087-0.042-0.165-0.127-0.273
		c-0.063-0.084-0.121-0.163-0.178-0.241c-0.058-0.079-0.116-0.158-0.179-0.242c-0.065-0.089-0.124-0.129-0.192-0.129
		c-0.082,0-0.176,0.055-0.306,0.131c-0.024,0.014-0.049,0.028-0.075,0.043c-0.698,0.425-1.38,0.632-2.085,0.632
		C86.646,26.615,85.956,26.316,85.414,25.774z M84.553,22.696c0.151-1.344,1.269-2.32,2.657-2.32c1.237,0,2.297,1.041,2.363,2.321
		l0.001,0.012h-5.023L84.553,22.696z"/>
	<path fill="#0C3454" d="M63.525,27.688c-0.103,0.031-0.21,0.058-0.319,0.084C63.315,27.747,63.422,27.719,63.525,27.688z"/>
	<path fill="#0C3454" d="M62.66,27.873c-0.148,0.02-0.301,0.033-0.457,0.041C62.36,27.906,62.512,27.892,62.66,27.873z"/>
	<path fill="#0C3454" d="M60.13,25.774c-0.52-0.52-0.841-1.212-0.882-1.9l-0.001-0.012h6.061c0.189,0,0.347-0.149,0.367-0.347
		c0.022-0.155,0.042-0.424,0.042-0.566c0-2.22-1.594-3.831-3.79-3.831c-1.207,0-2.245,0.453-3.002,1.311
		c-0.711,0.805-1.102,1.902-1.102,3.087c0,1.201,0.391,2.303,1.102,3.103c0.753,0.848,1.791,1.295,3.002,1.295
		c1.374,0,2.518-0.519,3.08-0.963c0.132-0.097,0.199-0.178,0.21-0.256c0.012-0.087-0.045-0.168-0.128-0.273
		c-0.063-0.084-0.121-0.163-0.178-0.242c-0.058-0.079-0.116-0.158-0.179-0.242c-0.065-0.089-0.124-0.129-0.192-0.129
		c-0.082,0-0.176,0.055-0.306,0.131c-0.024,0.014-0.049,0.028-0.075,0.043c-0.698,0.425-1.38,0.632-2.085,0.632
		C61.362,26.615,60.672,26.316,60.13,25.774z M59.269,22.696c0.151-1.344,1.269-2.32,2.657-2.32c1.237,0,2.297,1.041,2.363,2.321
		l0.001,0.012h-5.023L59.269,22.696z"/>
	<path fill="#0C3454" d="M73.174,19.387c0.018,0.007,0.033,0.019,0.051,0.026C73.207,19.405,73.192,19.395,73.174,19.387z"/>
	<path fill="#0C3454" d="M93.069,27.705h0.651c0.203,0,0.388-0.185,0.388-0.388l0.002-5.612c0.007-0.012,0.714-1.183,2.298-1.183
		c0.328,0,0.648,0.091,0.824,0.169c0.081,0.032,0.149,0.048,0.209,0.048c0.128,0,0.22-0.075,0.279-0.23l0.252-0.713
		c0.043-0.122,0.033-0.229-0.03-0.319c-0.229-0.324-1.076-0.359-1.429-0.359c-1.716,0-2.503,1.097-2.511,1.108l-0.014,0.021
		l-0.007-0.024l-0.168-0.609c-0.039-0.173-0.174-0.285-0.346-0.285h-0.399c-0.203,0-0.387,0.185-0.387,0.388v7.602
		C92.682,27.521,92.866,27.705,93.069,27.705z"/>
	<path fill="#0C3454" d="M64.242,27.419c-0.044,0.021-0.09,0.04-0.136,0.06C64.152,27.458,64.199,27.439,64.242,27.419z"/>
	<path fill="#0C3454" d="M73.724,19.711c0.033,0.026,0.061,0.057,0.093,0.084C73.784,19.768,73.757,19.737,73.724,19.711z"/>
	<path fill="#0C3454" d="M74.504,20.71c0.015,0.032,0.025,0.068,0.04,0.101C74.53,20.778,74.519,20.743,74.504,20.71z"/>
	<path fill="#0C3454" d="M74.166,20.153c0.028,0.036,0.051,0.079,0.078,0.117C74.217,20.231,74.194,20.189,74.166,20.153z"/>
	<path fill="#0C3454" d="M248.608,25.972c0.013,0.004,0.025,0.008,0.036,0.015C248.634,25.98,248.621,25.976,248.608,25.972z"/>
	<path fill="#0C3454" d="M248.508,19.328h-2.448v-2.385c0-0.21-0.167-0.387-0.365-0.387l-0.671,0.042
		c-0.204,0-0.389,0.184-0.389,0.387v2.343h-1.083c-0.225,0-0.387,0.163-0.387,0.388v0.462c0,0.213,0.174,0.387,0.387,0.387h1.083
		v5.052c0,1.419,0.321,2.299,1.92,2.299c0.99,0,2.112-0.521,2.409-0.712c0.213-0.136,0.293-0.252,0.143-0.51l-0.314-0.525
		c-0.067-0.107-0.126-0.2-0.247-0.2c-0.064,0-0.144,0.025-0.241,0.078c-0.224,0.12-0.985,0.464-1.539,0.464
		c-0.478,0-0.705-0.153-0.705-1.021v-4.926h2.448c0.214,0,0.388-0.173,0.388-0.387v-0.462
		C248.896,19.491,248.732,19.328,248.508,19.328z"/>
	<path fill="#0C3454" d="M108.234,27.863c-0.139,0.025-0.285,0.042-0.437,0.05C107.949,27.904,108.095,27.888,108.234,27.863z"/>
	<path fill="#0C3454" d="M108.956,27.655c-0.09,0.038-0.185,0.07-0.283,0.101C108.771,27.725,108.866,27.692,108.956,27.655z"/>
	<path fill="#0C3454" d="M103.469,25.962c0.001,0,0.002,0,0.002,0C103.471,25.961,103.47,25.962,103.469,25.962z"/>
	<path fill="#0C3454" d="M109.541,27.352c-0.035,0.022-0.073,0.044-0.109,0.066C109.469,27.396,109.506,27.374,109.541,27.352z"/>
	<path fill="#0C3454" d="M239.239,27.655c-0.091,0.038-0.187,0.07-0.284,0.101C239.054,27.725,239.148,27.692,239.239,27.655z"/>
	<path fill="#0C3454" d="M240.034,20.691c0.062,0.062,0.104,0.146,0.149,0.227c0.005,0.009,0.012,0.016,0.017,0.025
		c0.045,0.087,0.08,0.188,0.11,0.296c0.003,0.01,0.006,0.02,0.009,0.029c0.095,0.359,0.124,0.813,0.116,1.387v0.016l-0.015-0.004
		c-0.01-0.003-0.891-0.272-1.782-0.272c-2.034,0-3.349,1.092-3.349,2.781c0,1.613,1.058,2.739,2.572,2.739
		c1.243,0,2.098-0.592,2.596-1.088l0.014-0.014l0.005,0.019l0.168,0.566c0.06,0.18,0.119,0.307,0.347,0.307h0.398
		c0.203,0,0.388-0.185,0.388-0.388v-4.662c0-1.329-0.163-2.158-0.528-2.689c-0.397-0.579-1.074-0.848-2.127-0.848
		c-1.681,0-2.903,0.539-2.914,0.544c-0.226,0.1-0.295,0.238-0.226,0.448l0.168,0.525c0.07,0.207,0.2,0.278,0.385,0.203
		c0.198-0.077,1.25-0.463,2.524-0.463c0.092,0,0.154,0.023,0.234,0.031c0.074,0.007,0.148,0.014,0.213,0.028
		c0.078,0.018,0.152,0.042,0.218,0.07c0.073,0.031,0.137,0.073,0.196,0.118C239.955,20.649,240.004,20.661,240.034,20.691z
		 M240.413,25.497c-0.323,0.475-1.208,1.182-2.32,1.182c-0.872,0-1.481-0.618-1.481-1.503c0-1.044,0.777-1.692,2.027-1.692
		c0.879,0,1.491,0.175,1.771,0.339l0.006,0.003L240.413,25.497z"/>
	<path fill="#0C3454" d="M109.752,20.692c0.063,0.064,0.107,0.149,0.153,0.233c0.003,0.006,0.008,0.011,0.011,0.017
		c0.046,0.088,0.083,0.191,0.113,0.301c0.002,0.008,0.004,0.015,0.007,0.023c0.095,0.359,0.125,0.814,0.117,1.39l0,0.016
		l-0.015-0.004c-0.009-0.003-0.891-0.272-1.782-0.272c-2.034,0-3.348,1.092-3.348,2.781c0,1.613,1.057,2.739,2.571,2.739
		c1.244,0,2.098-0.592,2.596-1.088l0.014-0.014l0.006,0.019l0.168,0.566c0.062,0.186,0.119,0.307,0.346,0.307h0.399
		c0.203,0,0.387-0.185,0.387-0.388v-4.662c0-1.329-0.163-2.158-0.528-2.689c-0.398-0.579-1.074-0.848-2.127-0.848
		c-1.681,0-2.903,0.539-2.914,0.544c-0.226,0.101-0.295,0.238-0.225,0.448l0.168,0.525c0.051,0.153,0.136,0.231,0.252,0.231
		c0.04,0,0.084-0.009,0.131-0.028c0.198-0.077,1.251-0.463,2.524-0.463c0.092,0,0.154,0.023,0.235,0.031
		c0.074,0.007,0.148,0.014,0.213,0.028c0.078,0.018,0.152,0.042,0.218,0.07c0.073,0.031,0.136,0.073,0.195,0.117
		C109.672,20.649,109.721,20.661,109.752,20.692z M110.129,25.497c-0.323,0.475-1.208,1.182-2.319,1.182
		c-0.873,0-1.482-0.618-1.482-1.503c0-1.044,0.777-1.692,2.028-1.692c0.878,0,1.49,0.175,1.77,0.339l0.006,0.003L110.129,25.497z"/>
	<path fill="#0C3454" d="M103.484,19.328h-2.447v-2.385c0-0.21-0.168-0.387-0.367-0.387l-0.671,0.042
		c-0.203,0-0.388,0.184-0.388,0.387v2.343h-1.083c-0.225,0-0.387,0.163-0.387,0.388v0.462c0,0.213,0.173,0.387,0.387,0.387h1.083
		v5.052c0,1.419,0.321,2.299,1.921,2.299c0.99,0,2.111-0.521,2.408-0.712c0.214-0.136,0.294-0.252,0.144-0.51l-0.315-0.525
		c-0.066-0.107-0.124-0.2-0.246-0.2c-0.064,0-0.144,0.025-0.243,0.078c-0.222,0.12-0.981,0.464-1.539,0.464
		c-0.477,0-0.704-0.153-0.704-1.021v-4.926h2.447c0.214,0,0.387-0.173,0.387-0.387v-0.462
		C103.871,19.491,103.708,19.328,103.484,19.328z"/>
	<path fill="#0C3454" d="M238.518,27.863c-0.14,0.025-0.286,0.042-0.438,0.05C238.232,27.904,238.378,27.888,238.518,27.863z"/>
	<path fill="#0C3454" d="M109.346,20.475c0,0-0.001,0-0.001,0C109.345,20.475,109.345,20.475,109.346,20.475z"/>
	<path fill="#0C3454" d="M103.586,25.972c0.012,0.004,0.025,0.008,0.036,0.015C103.611,25.98,103.598,25.976,103.586,25.972z"/>
	<path fill="#0C3454" d="M184.921,19.305h-0.651c-0.215,0-0.411,0.196-0.411,0.411v7.602c0,0.215,0.196,0.411,0.411,0.411h0.651
		c0.215,0,0.411-0.196,0.411-0.411v-7.602C185.332,19.501,185.136,19.305,184.921,19.305z M185.308,27.317
		c0,0.203-0.185,0.388-0.387,0.388h-0.651c-0.203,0-0.387-0.185-0.387-0.388v-7.602c0-0.203,0.185-0.388,0.387-0.388h0.651
		c0.203,0,0.387,0.185,0.387,0.388V27.317z"/>
	<path fill="#0C3454" d="M169.655,20.441c0.765,0,1.666,0.497,1.675,0.502c0.06,0.033,0.13,0.051,0.205,0.051
		c0.036,0,0.065-0.019,0.1-0.027c0.018-0.004,0.034-0.008,0.051-0.014c0.049-0.017,0.093-0.036,0.134-0.067
		c0.004-0.003,0.007-0.007,0.011-0.011c0.046-0.038,0.094-0.073,0.124-0.127l0.168-0.336c0.125-0.23,0.066-0.535-0.13-0.665
		c-0.46-0.316-1.317-0.654-2.337-0.654c-1.965,0-2.679,1.313-2.679,2.196c0,1.42,1.239,2.148,2.4,2.719
		c1.244,0.621,1.842,0.952,1.842,1.669c0,0.596-0.544,0.996-1.354,0.996c-1.054,0-1.958-0.725-1.967-0.733
		c-0.034-0.021-0.068-0.019-0.104-0.033c-0.037-0.015-0.074-0.029-0.11-0.036c-0.024-0.004-0.049-0.023-0.073-0.023
		c-0.126,0-0.234,0.058-0.297,0.159c-0.025,0.042-0.062,0.111-0.105,0.191c-0.064,0.121-0.138,0.258-0.189,0.335
		c-0.067,0.156,0.002,0.369,0.109,0.454c0.525,0.407,1.381,0.948,2.737,0.948c0.81,0,1.557-0.26,2.103-0.733
		c0.513-0.444,0.807-1.046,0.807-1.652c0-1.547-1.402-2.218-2.758-2.867l-0.082-0.04c-0.818-0.398-1.465-0.713-1.465-1.377
		C168.47,20.869,168.781,20.441,169.655,20.441z M168.467,21.168c-0.004,0.034-0.021,0.067-0.021,0.102
		c0,0.678,0.652,0.996,1.478,1.398l0.083,0.04c1.411,0.675,2.744,1.313,2.744,2.846c0,0.599-0.291,1.195-0.799,1.634
		c-0.542,0.469-1.283,0.727-2.087,0.727c-1.349,0-2.2-0.538-2.723-0.942c-0.098-0.079-0.164-0.282-0.103-0.425
		c0.051-0.077,0.125-0.214,0.189-0.335c0.041-0.077,0.08-0.149,0.104-0.19c0.059-0.094,0.16-0.147,0.277-0.147
		c0.089,0,0.184,0.03,0.273,0.087c0.009,0.007,0.918,0.738,1.981,0.738c0.823,0,1.377-0.41,1.377-1.02
		c0-0.731-0.602-1.064-1.855-1.69c-1.155-0.568-2.387-1.292-2.387-2.699c0-0.874,0.707-2.173,2.655-2.173
		c1.016,0,1.867,0.335,2.325,0.649c0.187,0.124,0.243,0.415,0.122,0.635l-0.168,0.336c-0.078,0.144-0.231,0.233-0.399,0.233
		c-0.071,0-0.138-0.017-0.194-0.048c-0.009-0.005-0.915-0.505-1.686-0.505c-0.069,0-0.113,0.019-0.175,0.023
		c-0.09,0.007-0.176,0.017-0.253,0.034c-0.083,0.018-0.161,0.039-0.229,0.067c-0.074,0.031-0.142,0.065-0.199,0.104
		c-0.052,0.036-0.097,0.074-0.136,0.116c-0.039,0.042-0.072,0.084-0.099,0.13c-0.036,0.061-0.06,0.121-0.077,0.186
		C168.479,21.108,168.471,21.138,168.467,21.168z"/>
	<path fill="#0C3454" d="M155.018,19.305h-0.651c-0.215,0-0.411,0.196-0.411,0.411v7.602c0,0.215,0.196,0.411,0.411,0.411h0.651
		c0.215,0,0.411-0.196,0.411-0.411v-7.602C155.429,19.501,155.233,19.305,155.018,19.305z M155.405,27.317
		c0,0.203-0.185,0.388-0.387,0.388h-0.651c-0.203,0-0.387-0.185-0.387-0.388v-7.602c0-0.203,0.185-0.388,0.387-0.388h0.651
		c0.203,0,0.387,0.185,0.387,0.388V27.317z"/>
	<path fill="#0C3454" d="M184.564,13.425c-0.56,0-0.999,0.448-0.999,1.02c0,0.551,0.448,0.999,0.999,0.999
		c0.572,0,1.02-0.439,1.02-0.999C185.583,13.873,185.136,13.425,184.564,13.425z M184.564,15.42c-0.538,0-0.976-0.438-0.976-0.976
		c0-0.559,0.428-0.996,0.976-0.996c0.559,0,0.996,0.438,0.996,0.996C185.56,14.992,185.123,15.42,184.564,15.42z"/>
	<path fill="#0C3454" d="M164.216,27.729h0.672c0.215,0,0.411-0.196,0.411-0.411v-4.431c0-0.833-0.132-1.518-0.373-2.078
		c-0.014-0.032-0.024-0.067-0.039-0.098c-0.075-0.162-0.166-0.307-0.262-0.444c-0.026-0.037-0.049-0.078-0.076-0.113
		c-0.105-0.135-0.225-0.252-0.353-0.361c-0.031-0.026-0.058-0.057-0.09-0.082c-0.152-0.117-0.321-0.215-0.502-0.299
		c-0.017-0.008-0.031-0.018-0.048-0.025c-0.431-0.188-0.935-0.292-1.525-0.292c-1.628,0-2.795,0.982-2.934,1.104l-0.184-0.633
		c-0.044-0.175-0.157-0.261-0.347-0.261h-0.399c-0.215,0-0.411,0.196-0.411,0.411v7.602c0,0.215,0.196,0.411,0.411,0.411h0.651
		c0.215,0,0.411-0.196,0.411-0.411v-5.602c0.067-0.069,1.186-1.19,2.697-1.19c1.211,0,1.878,0.838,1.878,2.361v4.431
		C163.805,27.532,164.001,27.729,164.216,27.729z M159.206,21.707v5.611c0,0.203-0.185,0.388-0.387,0.388h-0.651
		c-0.203,0-0.387-0.185-0.387-0.388v-7.602c0-0.203,0.185-0.388,0.387-0.388h0.399c0.18,0,0.283,0.077,0.325,0.244l0.189,0.651
		l0.005,0.018l0.014-0.013c0.012-0.011,1.214-1.11,2.932-1.11c2.152,0,3.244,1.268,3.244,3.769v4.431
		c0,0.203-0.185,0.388-0.388,0.388h-0.672c-0.203,0-0.387-0.185-0.387-0.388v-4.431c0-1.538-0.676-2.385-1.902-2.385
		c-1.562,0-2.706,1.189-2.717,1.201L159.206,21.707z"/>
	<path fill="#0C3454" d="M137.609,27.729h0.672c0.215,0,0.411-0.196,0.411-0.411v-4.431c0-0.833-0.132-1.516-0.372-2.076
		c-0.014-0.033-0.025-0.069-0.04-0.101c-0.075-0.161-0.165-0.304-0.26-0.441c-0.027-0.038-0.05-0.081-0.078-0.117
		c-0.104-0.133-0.224-0.25-0.35-0.358c-0.031-0.027-0.06-0.058-0.092-0.084c-0.151-0.117-0.319-0.214-0.5-0.298
		c-0.018-0.008-0.033-0.019-0.05-0.026c-0.431-0.188-0.935-0.292-1.525-0.292c-1.628,0-2.795,0.982-2.934,1.104l-0.184-0.633
		c-0.044-0.175-0.157-0.261-0.347-0.261h-0.399c-0.215,0-0.411,0.196-0.411,0.411v7.602c0,0.215,0.196,0.411,0.411,0.411h0.651
		c0.215,0,0.411-0.196,0.411-0.411v-5.602c0.067-0.069,1.186-1.19,2.697-1.19c1.211,0,1.878,0.838,1.878,2.361v4.431
		C137.198,27.532,137.394,27.729,137.609,27.729z M132.599,21.707v5.611c0,0.203-0.185,0.388-0.387,0.388h-0.651
		c-0.203,0-0.387-0.185-0.387-0.388v-7.602c0-0.203,0.185-0.388,0.387-0.388h0.399c0.18,0,0.283,0.077,0.325,0.244l0.189,0.651
		l0.005,0.018l0.014-0.013c0.012-0.011,1.214-1.11,2.932-1.11c2.152,0,3.243,1.268,3.243,3.769v4.431
		c0,0.203-0.185,0.388-0.387,0.388h-0.672c-0.203,0-0.387-0.185-0.387-0.388v-4.431c0-1.538-0.676-2.385-1.902-2.385
		c-1.562,0-2.706,1.189-2.717,1.201L132.599,21.707z"/>
	<path fill="#0C3454" d="M128.411,19.305h-0.651c-0.215,0-0.411,0.196-0.411,0.411v7.602c0,0.215,0.196,0.411,0.411,0.411h0.651
		c0.215,0,0.411-0.196,0.411-0.411v-7.602C128.822,19.501,128.626,19.305,128.411,19.305z M128.798,27.317
		c0,0.203-0.185,0.388-0.387,0.388h-0.651c-0.203,0-0.387-0.185-0.387-0.388v-7.602c0-0.203,0.185-0.388,0.387-0.388h0.651
		c0.203,0,0.387,0.185,0.387,0.388V27.317z"/>
	<path fill="#0C3454" d="M140.075,27.317c0,1.171,0.824,1.811,1.533,2.004v0.048l-0.012,0.007c-0.997,0.593-1.207,1.389-1.207,1.952
		c0,0.753,0.343,1.456,0.965,1.978c0.726,0.61,1.791,0.932,3.079,0.932c1.198,0,2.311-0.373,3.133-1.05
		c0.778-0.64,1.225-1.502,1.225-2.364c0-0.863-0.317-1.568-0.918-2.038c-0.553-0.433-1.329-0.662-2.244-0.662h-3.024
		c-0.79,0-1.144-0.511-1.144-1.018c0-0.787,0.831-1.208,0.911-1.247c0.039,0.03,0.301,0.195,0.74,0.334
		c0.036,0.011,0.078,0.021,0.117,0.032c0.157,0.044,0.331,0.076,0.532,0.104c0.102,0.014,0.211,0.022,0.323,0.029
		c0.099,0.006,0.177,0.025,0.284,0.025c1.034,0,1.927-0.371,2.583-1.072c0.616-0.659,0.956-1.55,0.956-2.51
		c0-1.513-0.794-2.234-0.93-2.346l1.109-0.226c0.149-0.021,0.241-0.208,0.241-0.369v-0.356c0-0.238-0.173-0.411-0.411-0.411h-3.549
		c-1.041,0-1.94,0.387-2.602,1.12c-0.618,0.684-0.959,1.604-0.959,2.588c0,1.157,0.592,1.995,0.667,2.096
		C141.345,24.981,140.075,25.809,140.075,27.317z M141.5,24.912l0.011-0.006l-0.008-0.011c-0.007-0.008-0.67-0.872-0.67-2.092
		c0-0.979,0.338-1.893,0.953-2.573c0.657-0.728,1.551-1.112,2.585-1.112h3.549c0.225,0,0.387,0.163,0.387,0.388v0.356
		c0,0.151-0.084,0.326-0.222,0.346l-1.134,0.23l-0.025,0.005l0.021,0.015c0.009,0.007,0.94,0.709,0.94,2.343
		c0,0.954-0.337,1.839-0.95,2.494c-0.652,0.696-1.539,1.064-2.566,1.064c-1.324,0-1.981-0.518-1.988-0.522l-0.006-0.004
		l-0.006,0.003c-0.009,0.004-0.931,0.433-0.931,1.27c0,0.518,0.361,1.041,1.167,1.041h3.024c0.91,0,1.681,0.227,2.229,0.656
		c0.595,0.465,0.909,1.164,0.909,2.02c0,0.855-0.443,1.71-1.216,2.346c-0.819,0.673-1.927,1.044-3.119,1.044
		c-1.283,0-2.342-0.32-3.064-0.926c-0.617-0.518-0.957-1.214-0.957-1.96c0-0.557,0.207-1.345,1.195-1.932l0.023-0.014v-0.079
		l-0.009-0.002c-0.703-0.188-1.524-0.821-1.524-1.984C140.099,25.747,141.486,24.92,141.5,24.912z"/>
	<path fill="#0C3454" d="M154.661,13.425c-0.56,0-0.999,0.448-0.999,1.02c0,0.551,0.448,0.999,0.999,0.999
		c0.572,0,1.02-0.439,1.02-0.999C155.681,13.873,155.233,13.425,154.661,13.425z M154.661,15.42c-0.538,0-0.976-0.438-0.976-0.976
		c0-0.559,0.428-0.996,0.976-0.996c0.559,0,0.996,0.438,0.996,0.996C155.657,14.992,155.22,15.42,154.661,15.42z"/>
	<path fill="#0C3454" d="M188.722,27.729c0.215,0,0.411-0.196,0.411-0.411v-5.603c0.038-0.062,0.742-1.168,2.277-1.168
		c0.324,0,0.642,0.09,0.815,0.167c0.084,0.034,0.156,0.05,0.218,0.05c0.023,0,0.039-0.016,0.061-0.021
		c0.013-0.003,0.024-0.008,0.037-0.013c0.085-0.032,0.157-0.092,0.204-0.212l0.252-0.714c0.046-0.129,0.035-0.243-0.033-0.34
		c-0.235-0.333-1.091-0.369-1.448-0.369c-1.603,0-2.401,0.952-2.515,1.099l-0.162-0.586c-0.041-0.184-0.186-0.303-0.368-0.303
		h-0.399c-0.215,0-0.411,0.196-0.411,0.411v7.602c0,0.215,0.196,0.411,0.411,0.411H188.722z M187.684,19.716
		c0-0.203,0.185-0.388,0.387-0.388h0.399c0.171,0,0.307,0.112,0.346,0.285l0.168,0.609l0.007,0.023l0.014-0.02
		c0.008-0.011,0.794-1.108,2.51-1.108c0.354,0,1.201,0.035,1.429,0.359c0.063,0.09,0.074,0.197,0.03,0.319l-0.252,0.713
		c-0.06,0.155-0.151,0.23-0.279,0.23c-0.06,0-0.128-0.016-0.209-0.048c-0.184-0.082-0.497-0.169-0.824-0.169
		c-1.584,0-2.292,1.171-2.298,1.183l-0.002,5.612c0,0.203-0.185,0.388-0.388,0.388h-0.651c-0.203,0-0.387-0.185-0.387-0.388V19.716z
		"/>
	<path fill="#0C3454" d="M220.359,23.495c0-1.159-0.433-2.257-1.219-3.092c-0.794-0.844-1.849-1.309-2.972-1.309
		s-2.179,0.465-2.973,1.309c-0.786,0.835-1.219,1.933-1.219,3.092c0,2.45,1.881,4.443,4.191,4.443S220.359,25.945,220.359,23.495z
		 M216.169,19.118c2.298,0,4.167,1.963,4.167,4.377c0,2.438-1.869,4.42-4.167,4.42c-2.299,0-4.168-1.982-4.168-4.42
		c0-1.153,0.431-2.245,1.212-3.076C214.003,19.58,215.053,19.118,216.169,19.118z"/>
	<path fill="#0C3454" d="M228.538,27.729h0.672c0.215,0,0.41-0.196,0.41-0.411v-4.431c0-0.833-0.132-1.516-0.371-2.075
		c-0.015-0.033-0.025-0.069-0.04-0.102c-0.075-0.16-0.164-0.304-0.26-0.44c-0.026-0.038-0.05-0.08-0.078-0.117
		c-0.104-0.133-0.224-0.25-0.35-0.358c-0.032-0.027-0.06-0.058-0.093-0.084c-0.151-0.117-0.318-0.214-0.498-0.297
		c-0.019-0.008-0.033-0.019-0.052-0.027c-0.431-0.188-0.935-0.292-1.524-0.292c-1.629,0-2.796,0.982-2.935,1.104l-0.184-0.633
		c-0.045-0.178-0.155-0.261-0.348-0.261h-0.399c-0.215,0-0.41,0.196-0.41,0.411v7.602c0,0.215,0.195,0.411,0.41,0.411h0.652
		c0.215,0,0.41-0.196,0.41-0.411v-5.602c0.067-0.069,1.186-1.19,2.697-1.19c1.211,0,1.878,0.838,1.878,2.361v4.431
		C228.127,27.532,228.323,27.729,228.538,27.729z M229.597,22.887v4.431c0,0.203-0.185,0.388-0.387,0.388h-0.672
		c-0.203,0-0.388-0.185-0.388-0.388v-4.431c0-1.538-0.676-2.385-1.901-2.385c-1.562,0-2.706,1.189-2.718,1.201l-0.003,0.003v5.611
		c0,0.203-0.185,0.388-0.387,0.388h-0.652c-0.202,0-0.387-0.185-0.387-0.388v-7.602c0-0.203,0.185-0.388,0.387-0.388h0.399
		c0.18,0,0.283,0.077,0.326,0.244l0.188,0.651l0.005,0.018l0.014-0.013c0.012-0.011,1.213-1.11,2.933-1.11
		c1.144,0,1.995,0.358,2.531,1.066C229.357,20.808,229.597,21.717,229.597,22.887z"/>
	<path fill="#0C3454" d="M235.267,25.176c0,1.626,1.067,2.763,2.596,2.763c0.079,0,0.143-0.021,0.218-0.025
		c0.151-0.009,0.298-0.025,0.438-0.05c0.154-0.028,0.298-0.062,0.438-0.107c0.098-0.031,0.193-0.063,0.284-0.101
		c0.172-0.071,0.328-0.149,0.474-0.236c0.037-0.023,0.076-0.044,0.112-0.068c0.246-0.16,0.468-0.329,0.635-0.494l0.163,0.548
		c0.061,0.184,0.126,0.324,0.368,0.324h0.398c0.215,0,0.411-0.196,0.411-0.411v-4.662c0-2.309-0.427-3.561-2.679-3.561
		c-1.686,0-2.913,0.542-2.924,0.547c-0.148,0.066-0.334,0.187-0.237,0.476l0.168,0.526c0.073,0.217,0.22,0.295,0.414,0.217
		c0.197-0.077,1.247-0.461,2.517-0.461c0.223,0,0.41,0.024,0.568,0.075c0,0,0,0,0.001,0c0.157,0.051,0.285,0.128,0.389,0.233
		c0.344,0.348,0.406,0.998,0.395,1.932c-0.119-0.035-0.942-0.269-1.773-0.269C236.591,22.371,235.267,23.472,235.267,25.176z
		 M239.507,20.436c-0.063-0.015-0.14-0.021-0.213-0.028c-0.08-0.008-0.143-0.031-0.234-0.031c-1.274,0-2.326,0.386-2.524,0.463
		c-0.185,0.075-0.314,0.004-0.385-0.203l-0.168-0.525c-0.069-0.21,0-0.348,0.226-0.448c0.011-0.005,1.233-0.544,2.914-0.544
		c1.053,0,1.729,0.269,2.127,0.848c0.365,0.531,0.528,1.361,0.528,2.689v4.662c0,0.203-0.185,0.388-0.388,0.388h-0.398
		c-0.228,0-0.287-0.127-0.347-0.307l-0.168-0.566l-0.005-0.019l-0.014,0.014c-0.498,0.497-1.353,1.088-2.596,1.088
		c-1.515,0-2.572-1.126-2.572-2.739c0-1.689,1.314-2.781,3.349-2.781c0.892,0,1.772,0.269,1.782,0.272l0.015,0.004v-0.016
		c0.008-0.573-0.021-1.028-0.116-1.387c-0.003-0.01-0.006-0.02-0.009-0.029c-0.03-0.107-0.065-0.209-0.11-0.296
		c-0.005-0.009-0.012-0.016-0.017-0.025c-0.045-0.081-0.088-0.165-0.149-0.227c-0.03-0.031-0.079-0.042-0.113-0.068
		c-0.06-0.045-0.123-0.086-0.196-0.118C239.659,20.477,239.585,20.454,239.507,20.436z"/>
	<path fill="#0C3454" d="M245.693,16.534l-0.671,0.042c-0.219,0-0.411,0.192-0.411,0.41v2.319h-1.06c-0.237,0-0.41,0.173-0.41,0.411
		v0.462c0,0.226,0.185,0.41,0.41,0.41h1.06v5.028c0,0.562,0.04,1.198,0.338,1.65s0.823,0.672,1.605,0.672
		c0.996,0,2.123-0.525,2.421-0.716c0.221-0.141,0.31-0.269,0.15-0.541l-0.314-0.526c-0.047-0.074-0.101-0.132-0.167-0.169
		c-0.011-0.006-0.023-0.011-0.036-0.015c-0.021-0.008-0.036-0.026-0.063-0.026c-0.014,0-0.035,0.014-0.05,0.016
		c-0.001,0-0.002,0-0.002,0c-0.06,0.009-0.12,0.021-0.201,0.064c-0.222,0.12-0.979,0.461-1.527,0.461
		c-0.462,0-0.682-0.149-0.682-0.997v-4.902h2.425c0.227,0,0.411-0.184,0.411-0.41v-0.462c0-0.238-0.173-0.411-0.411-0.411h-2.425
		v-2.361C246.083,16.721,245.905,16.533,245.693,16.534z M248.896,20.178c0,0.213-0.174,0.387-0.388,0.387h-2.448v4.926
		c0,0.868,0.228,1.021,0.705,1.021c0.554,0,1.315-0.344,1.539-0.464c0.098-0.053,0.177-0.078,0.241-0.078
		c0.121,0,0.18,0.093,0.247,0.2l0.314,0.525c0.15,0.257,0.07,0.374-0.143,0.51c-0.297,0.19-1.419,0.712-2.409,0.712
		c-1.599,0-1.92-0.879-1.92-2.299v-5.052h-1.083c-0.213,0-0.387-0.173-0.387-0.387v-0.462c0-0.225,0.162-0.388,0.387-0.388h1.083
		v-2.343c0-0.203,0.185-0.387,0.389-0.387l0.671-0.042c0.198,0,0.365,0.177,0.365,0.387v2.385h2.448
		c0.225,0,0.388,0.163,0.388,0.388V20.178z"/>
	<path fill="#0C3454" d="M128.054,13.425c-0.56,0-0.999,0.448-0.999,1.02c0,0.551,0.448,0.999,0.999,0.999
		c0.572,0,1.02-0.439,1.02-0.999C129.074,13.873,128.625,13.425,128.054,13.425z M128.054,15.42c-0.538,0-0.975-0.438-0.975-0.976
		c0-0.559,0.428-0.996,0.975-0.996c0.559,0,0.997,0.438,0.997,0.996C129.05,14.992,128.613,15.42,128.054,15.42z"/>
	<path fill="#0C3454" d="M209.848,19.305h-0.651c-0.215,0-0.41,0.196-0.41,0.411v7.602c0,0.215,0.195,0.411,0.41,0.411h0.651
		c0.215,0,0.411-0.196,0.411-0.411v-7.602C210.259,19.501,210.062,19.305,209.848,19.305z M210.235,27.317
		c0,0.203-0.185,0.388-0.388,0.388h-0.651c-0.202,0-0.387-0.185-0.387-0.388v-7.602c0-0.203,0.185-0.388,0.387-0.388h0.651
		c0.203,0,0.388,0.185,0.388,0.388V27.317z"/>
	<path fill="#0C3454" d="M203.862,16.534l-0.671,0.042c-0.215,0-0.411,0.196-0.411,0.41v2.319h-1.06
		c-0.238,0-0.411,0.173-0.411,0.411v0.462c0,0.226,0.184,0.41,0.411,0.41h1.06v5.028c0,0.562,0.041,1.198,0.338,1.65
		c0.298,0.452,0.823,0.672,1.606,0.672c0.996,0,2.123-0.525,2.42-0.716c0.221-0.141,0.311-0.268,0.151-0.541l-0.315-0.525
		c-0.046-0.074-0.1-0.133-0.166-0.17c-0.012-0.006-0.023-0.01-0.036-0.014c-0.021-0.008-0.036-0.026-0.063-0.026
		c-0.014,0-0.036,0.014-0.051,0.016c-0.001,0-0.002,0-0.003,0.001c-0.059,0.009-0.119,0.021-0.2,0.063
		c-0.221,0.12-0.977,0.461-1.527,0.461c-0.462,0-0.682-0.149-0.682-0.997v-4.902h2.424c0.226,0,0.41-0.184,0.41-0.41v-0.462
		c0-0.238-0.173-0.411-0.41-0.411h-2.424v-2.361C204.252,16.721,204.074,16.533,203.862,16.534z M207.063,20.178
		c0,0.213-0.174,0.387-0.387,0.387h-2.448v4.926c0,0.868,0.228,1.021,0.705,1.021c0.555,0,1.316-0.344,1.539-0.464
		c0.098-0.053,0.178-0.078,0.242-0.078c0.122,0,0.18,0.093,0.246,0.2l0.315,0.525c0.134,0.231,0.1,0.355-0.144,0.51
		c-0.297,0.19-1.418,0.712-2.409,0.712c-1.599,0-1.92-0.879-1.92-2.299v-5.052h-1.083c-0.214,0-0.387-0.173-0.387-0.387v-0.462
		c0-0.225,0.163-0.388,0.387-0.388h1.083v-2.343c0-0.203,0.185-0.387,0.388-0.387l0.671-0.042c0.199,0,0.366,0.177,0.366,0.387
		v2.385h2.448c0.225,0,0.387,0.163,0.387,0.388V20.178z"/>
	<path fill="#0C3454" d="M193.435,25.176c0,1.626,1.067,2.763,2.595,2.763c0.079,0,0.143-0.021,0.218-0.025
		c0.151-0.009,0.297-0.025,0.437-0.05c0.156-0.028,0.301-0.063,0.441-0.108c0.096-0.03,0.19-0.062,0.28-0.1
		c0.175-0.072,0.333-0.151,0.481-0.241c0.035-0.021,0.07-0.041,0.103-0.062c0.248-0.16,0.47-0.33,0.638-0.496l0.163,0.548
		c0.063,0.189,0.126,0.324,0.368,0.324h0.399c0.215,0,0.411-0.196,0.411-0.411v-4.662c0-2.309-0.427-3.561-2.679-3.561
		c-1.686,0-2.913,0.542-2.924,0.547c-0.148,0.066-0.334,0.187-0.237,0.476l0.168,0.525c0.073,0.217,0.219,0.296,0.414,0.217
		c0.197-0.077,1.246-0.461,2.516-0.461c0.223,0,0.411,0.024,0.568,0.075c0,0,0.001,0,0.001,0c0.158,0.051,0.286,0.127,0.39,0.233
		c0.343,0.348,0.406,0.997,0.394,1.932c-0.119-0.035-0.942-0.269-1.774-0.269C194.759,22.371,193.435,23.472,193.435,25.176z
		 M197.675,20.436c-0.064-0.015-0.141-0.021-0.214-0.029c-0.081-0.008-0.143-0.031-0.234-0.031c-1.273,0-2.326,0.386-2.524,0.463
		c-0.182,0.075-0.314,0.004-0.384-0.203l-0.168-0.525c-0.07-0.21,0-0.348,0.226-0.448c0.011-0.005,1.233-0.544,2.914-0.544
		c1.053,0,1.729,0.269,2.127,0.848c0.366,0.531,0.528,1.361,0.528,2.689v4.662c0,0.203-0.185,0.388-0.387,0.388h-0.399
		c-0.227,0-0.284-0.122-0.346-0.307l-0.168-0.566l-0.006-0.019l-0.014,0.014c-0.497,0.497-1.351,1.088-2.596,1.088
		c-1.514,0-2.571-1.126-2.571-2.739c0-1.689,1.314-2.781,3.348-2.781c0.891,0,1.773,0.269,1.782,0.272l0.015,0.004l0-0.016
		c0.008-0.575-0.021-1.03-0.117-1.389c-0.002-0.009-0.005-0.017-0.007-0.025c-0.03-0.108-0.066-0.211-0.112-0.299
		c-0.004-0.008-0.01-0.014-0.014-0.021c-0.045-0.083-0.088-0.167-0.151-0.23c-0.03-0.031-0.079-0.042-0.113-0.068
		c-0.06-0.045-0.124-0.086-0.197-0.118C197.827,20.477,197.753,20.454,197.675,20.436z"/>
	<path fill="#0C3454" d="M209.491,13.425c-0.561,0-0.999,0.448-0.999,1.02c0,0.551,0.448,0.999,0.999,0.999
		c0.571,0,1.02-0.439,1.02-0.999C210.511,13.873,210.062,13.425,209.491,13.425z M209.491,15.42c-0.538,0-0.976-0.438-0.976-0.976
		c0-0.559,0.429-0.996,0.976-0.996c0.559,0,0.996,0.438,0.996,0.996C210.487,14.992,210.05,15.42,209.491,15.42z"/>
	<path fill="#0C3454" d="M175.45,34.028c0.215,0,0.411-0.196,0.411-0.411v-6.36c0.133,0.099,0.972,0.682,2.235,0.682
		c1.115,0,2.141-0.454,2.891-1.277c0.743-0.817,1.153-1.926,1.153-3.124c0-2.491-1.749-4.442-3.981-4.442
		c-1.404,0-2.314,0.769-2.431,0.874l-0.141-0.383c-0.083-0.207-0.148-0.281-0.347-0.281h-0.441c-0.215,0-0.411,0.196-0.411,0.411
		v13.901c0,0.215,0.196,0.411,0.411,0.411H175.45z M174.412,19.716c0-0.203,0.185-0.388,0.387-0.388h0.441
		c0.025,0,0.044,0.004,0.066,0.007c0.032,0.004,0.062,0.012,0.086,0.024c0.038,0.018,0.07,0.045,0.099,0.088
		c0.008,0.012,0.017,0.027,0.024,0.042c0.017,0.031,0.033,0.062,0.05,0.105l0.147,0.398l0.006,0.017l0.013-0.012
		c0.009-0.009,0.939-0.878,2.428-0.878c2.219,0,3.958,1.941,3.958,4.419c0,1.192-0.407,2.296-1.146,3.108
		c-0.746,0.819-1.766,1.27-2.874,1.27c-1.365,0-2.231-0.684-2.239-0.69l-0.019-0.015v6.408c0,0.203-0.185,0.388-0.388,0.388h-0.651
		c-0.203,0-0.387-0.185-0.387-0.388V19.716z"/>
	<path fill="#0C3454" d="M90.98,23.518c0.022-0.155,0.042-0.426,0.042-0.569c0-1.072-0.383-2.051-1.077-2.756
		c-0.697-0.708-1.668-1.098-2.735-1.098c-1.214,0-2.258,0.457-3.02,1.319c-0.715,0.81-1.108,1.911-1.108,3.103
		c0,1.207,0.394,2.314,1.108,3.118c0.757,0.853,1.802,1.304,3.02,1.304c0.097,0,0.183-0.02,0.278-0.025
		c0.156-0.008,0.308-0.021,0.456-0.041c0.191-0.026,0.371-0.058,0.548-0.101c0.108-0.026,0.214-0.052,0.316-0.083
		c0.211-0.064,0.402-0.133,0.584-0.211c0.044-0.02,0.09-0.038,0.133-0.058c0.195-0.091,0.363-0.182,0.512-0.278
		c0.023-0.015,0.047-0.029,0.068-0.044c0.063-0.043,0.145-0.085,0.198-0.127c0.137-0.101,0.207-0.187,0.218-0.272
		c0.013-0.096-0.046-0.181-0.132-0.29c-0.063-0.084-0.121-0.163-0.178-0.241c-0.058-0.079-0.116-0.158-0.179-0.242
		c-0.069-0.096-0.134-0.138-0.21-0.138c-0.087,0-0.184,0.056-0.318,0.134c-0.023,0.014-0.048,0.028-0.075,0.043
		c-0.695,0.423-1.373,0.628-2.073,0.628c-0.705,0-1.389-0.296-1.927-0.834c-0.513-0.513-0.831-1.194-0.875-1.872h6.036
		C90.792,23.886,90.959,23.728,90.98,23.518z M89.517,25.94c0.13-0.076,0.225-0.131,0.306-0.131c0.068,0,0.127,0.04,0.192,0.129
		c0.063,0.084,0.121,0.163,0.179,0.242c0.058,0.079,0.115,0.157,0.178,0.241c0.085,0.109,0.14,0.187,0.127,0.273
		c-0.011,0.078-0.077,0.16-0.209,0.256c-0.562,0.445-1.706,0.963-3.08,0.963c-1.211,0-2.25-0.448-3.002-1.295
		c-0.711-0.8-1.102-1.902-1.102-3.103c0-1.186,0.391-2.282,1.102-3.087c0.757-0.858,1.795-1.311,3.002-1.311
		c2.196,0,3.789,1.611,3.789,3.831c0,0.142-0.02,0.412-0.042,0.566c-0.02,0.198-0.178,0.347-0.367,0.347h-6.06l0.001,0.012
		c0.041,0.688,0.362,1.38,0.882,1.9c0.542,0.542,1.232,0.841,1.943,0.841c0.705,0,1.387-0.207,2.085-0.632
		C89.468,25.969,89.493,25.954,89.517,25.94z"/>
	<path fill="#0C3454" d="M65.696,23.518c0.022-0.155,0.042-0.426,0.042-0.569c0-1.072-0.383-2.051-1.077-2.756
		c-0.697-0.708-1.669-1.098-2.736-1.098c-1.214,0-2.258,0.457-3.02,1.319c-0.714,0.81-1.108,1.911-1.108,3.103
		c0,1.207,0.394,2.314,1.108,3.118c0.758,0.853,1.802,1.304,3.02,1.304c0.097,0,0.183-0.02,0.278-0.025
		c0.156-0.008,0.308-0.021,0.457-0.041c0.19-0.026,0.37-0.058,0.546-0.1c0.109-0.026,0.216-0.053,0.319-0.084
		c0.21-0.063,0.4-0.132,0.582-0.21c0.046-0.02,0.092-0.039,0.136-0.06c0.194-0.091,0.362-0.181,0.511-0.277
		c0.023-0.015,0.047-0.029,0.068-0.044c0.063-0.043,0.145-0.085,0.198-0.127c0.137-0.101,0.207-0.187,0.218-0.272
		c0.013-0.096-0.046-0.181-0.132-0.29c-0.063-0.084-0.121-0.163-0.178-0.241c-0.058-0.079-0.116-0.158-0.179-0.242
		c-0.069-0.096-0.134-0.138-0.21-0.138c-0.087,0-0.184,0.056-0.318,0.134c-0.023,0.014-0.048,0.028-0.075,0.043
		c-0.695,0.423-1.373,0.628-2.073,0.628c-0.704,0-1.389-0.296-1.926-0.834c-0.513-0.513-0.832-1.195-0.875-1.872h6.036
		C65.508,23.886,65.675,23.728,65.696,23.518z M64.232,25.94c0.13-0.076,0.225-0.131,0.306-0.131c0.068,0,0.127,0.04,0.192,0.129
		c0.063,0.084,0.121,0.163,0.179,0.242c0.058,0.079,0.115,0.157,0.178,0.242c0.083,0.105,0.14,0.186,0.128,0.273
		c-0.011,0.078-0.078,0.16-0.21,0.256c-0.562,0.445-1.706,0.963-3.08,0.963c-1.211,0-2.249-0.448-3.002-1.295
		c-0.711-0.8-1.102-1.902-1.102-3.103c0-1.186,0.391-2.282,1.102-3.087c0.757-0.858,1.795-1.311,3.002-1.311
		c2.196,0,3.79,1.611,3.79,3.831c0,0.142-0.02,0.412-0.042,0.566c-0.02,0.198-0.178,0.347-0.367,0.347h-6.061l0.001,0.012
		c0.041,0.688,0.363,1.38,0.882,1.9c0.542,0.542,1.232,0.841,1.943,0.841c0.705,0,1.387-0.207,2.085-0.632
		C64.184,25.969,64.208,25.954,64.232,25.94z"/>
	<path fill="#0C3454" d="M78.768,16.534l-0.672,0.042c-0.215,0-0.411,0.196-0.411,0.41v2.319h-1.059
		c-0.238,0-0.411,0.173-0.411,0.411v0.462c0,0.226,0.185,0.41,0.411,0.41h1.059v5.028c0,0.562,0.041,1.198,0.338,1.65
		c0.298,0.452,0.823,0.672,1.606,0.672c0.996,0,2.123-0.525,2.421-0.716c0.22-0.141,0.31-0.269,0.15-0.541l-0.315-0.525
		c-0.046-0.074-0.1-0.132-0.166-0.17c-0.012-0.006-0.024-0.011-0.037-0.015c-0.021-0.007-0.036-0.026-0.063-0.026
		c-0.014,0-0.035,0.014-0.05,0.016h0c-0.059,0.009-0.121,0.021-0.202,0.064c-0.222,0.12-0.978,0.461-1.528,0.461
		c-0.461,0-0.681-0.149-0.681-0.997v-4.902h2.424c0.227,0,0.411-0.184,0.411-0.41v-0.462c0-0.238-0.173-0.411-0.411-0.411h-2.424
		v-2.361C79.158,16.721,78.979,16.533,78.768,16.534z M81.969,20.178c0,0.213-0.173,0.387-0.387,0.387h-2.448v4.926
		c0,0.868,0.228,1.021,0.705,1.021c0.555,0,1.316-0.344,1.539-0.464c0.099-0.053,0.178-0.078,0.242-0.078
		c0.122,0,0.18,0.093,0.247,0.2l0.315,0.525c0.15,0.258,0.069,0.374-0.144,0.51c-0.296,0.19-1.418,0.712-2.409,0.712
		c-1.599,0-1.92-0.879-1.92-2.299v-5.052h-1.083c-0.214,0-0.387-0.173-0.387-0.387v-0.462c0-0.225,0.163-0.388,0.387-0.388h1.083
		v-2.343c0-0.203,0.185-0.387,0.388-0.387l0.672-0.042c0.199,0,0.366,0.177,0.366,0.387v2.385h2.448
		c0.225,0,0.387,0.163,0.387,0.388V20.178z"/>
	<path fill="#0C3454" d="M52.698,23.518c0.022-0.155,0.042-0.426,0.042-0.569c0-1.072-0.383-2.051-1.077-2.756
		c-0.697-0.708-1.669-1.098-2.736-1.098c-1.214,0-2.258,0.457-3.02,1.319c-0.714,0.81-1.108,1.911-1.108,3.103
		c0,1.207,0.394,2.314,1.108,3.118c0.758,0.853,1.802,1.304,3.02,1.304c0.097,0,0.183-0.02,0.278-0.025
		c0.156-0.008,0.308-0.021,0.457-0.041c0.19-0.026,0.369-0.058,0.544-0.1c0.11-0.026,0.217-0.053,0.321-0.084
		c0.209-0.063,0.399-0.131,0.58-0.209c0.046-0.02,0.094-0.04,0.138-0.061c0.193-0.09,0.361-0.18,0.51-0.276
		c0.023-0.015,0.048-0.03,0.07-0.045c0.062-0.042,0.145-0.085,0.197-0.127c0.137-0.101,0.207-0.187,0.218-0.272
		c0.013-0.096-0.046-0.181-0.132-0.29c-0.066-0.087-0.126-0.169-0.186-0.251c-0.055-0.076-0.111-0.152-0.171-0.232
		c-0.069-0.096-0.134-0.138-0.21-0.138c-0.087,0-0.184,0.056-0.318,0.134c-0.023,0.014-0.048,0.028-0.075,0.043
		c-0.694,0.423-1.373,0.628-2.073,0.628c-0.705,0-1.389-0.296-1.926-0.834c-0.513-0.513-0.832-1.195-0.875-1.872h6.036
		C52.51,23.886,52.678,23.728,52.698,23.518z M51.234,25.94c0.13-0.076,0.225-0.131,0.306-0.131c0.068,0,0.127,0.04,0.192,0.129
		c0.061,0.081,0.116,0.156,0.171,0.232c0.061,0.083,0.12,0.164,0.186,0.251c0.085,0.109,0.14,0.187,0.127,0.273
		c-0.011,0.078-0.077,0.16-0.209,0.256c-0.562,0.445-1.707,0.963-3.08,0.963c-1.211,0-2.249-0.448-3.002-1.295
		c-0.711-0.8-1.102-1.902-1.102-3.103c0-1.186,0.391-2.282,1.102-3.087c0.757-0.858,1.795-1.311,3.002-1.311
		c2.196,0,3.79,1.611,3.79,3.831c0,0.142-0.02,0.412-0.042,0.566c-0.02,0.198-0.178,0.347-0.367,0.347h-6.061l0,0.012
		c0.042,0.688,0.363,1.38,0.883,1.9c0.542,0.542,1.232,0.841,1.943,0.841c0.705,0,1.387-0.207,2.085-0.632
		C51.186,25.969,51.21,25.954,51.234,25.94z"/>
	<path fill="#0C3454" d="M73.833,27.729h0.672c0.215,0,0.411-0.196,0.411-0.411v-4.431c0-0.833-0.132-1.516-0.372-2.076
		c-0.014-0.033-0.025-0.069-0.04-0.101c-0.075-0.161-0.165-0.304-0.26-0.441c-0.027-0.038-0.05-0.081-0.078-0.117
		c-0.104-0.133-0.224-0.25-0.35-0.358c-0.032-0.027-0.06-0.058-0.093-0.084c-0.151-0.117-0.319-0.214-0.499-0.298
		c-0.018-0.008-0.033-0.019-0.051-0.026c-0.431-0.188-0.935-0.292-1.525-0.292c-1.628,0-2.795,0.982-2.934,1.104l-0.184-0.633
		c-0.044-0.175-0.157-0.261-0.347-0.261h-0.399c-0.215,0-0.411,0.196-0.411,0.411v7.602c0,0.215,0.196,0.411,0.411,0.411h0.651
		c0.215,0,0.411-0.196,0.411-0.411v-5.602c0.067-0.069,1.186-1.19,2.697-1.19c1.211,0,1.878,0.838,1.878,2.361v4.431
		C73.422,27.532,73.618,27.729,73.833,27.729z M68.823,21.707v5.611c0,0.203-0.185,0.388-0.387,0.388h-0.651
		c-0.203,0-0.387-0.185-0.387-0.388v-7.602c0-0.203,0.185-0.388,0.387-0.388h0.399c0.18,0,0.283,0.077,0.325,0.244l0.189,0.651
		l0.005,0.018l0.014-0.013c0.012-0.011,1.214-1.11,2.932-1.11c2.152,0,3.243,1.268,3.243,3.769v4.431
		c0,0.203-0.185,0.388-0.387,0.388h-0.672c-0.203,0-0.387-0.185-0.387-0.388v-4.431c0-1.538-0.676-2.385-1.902-2.385
		c-1.562,0-2.706,1.189-2.717,1.201L68.823,21.707z"/>
	<path fill="#0C3454" d="M26.29,27.729h0.672c0.215,0,0.411-0.196,0.411-0.411v-4.431c0-0.833-0.132-1.516-0.372-2.076
		c-0.014-0.033-0.025-0.069-0.04-0.101c-0.075-0.161-0.165-0.304-0.26-0.441c-0.027-0.038-0.05-0.081-0.078-0.117
		c-0.104-0.133-0.224-0.25-0.35-0.358c-0.032-0.027-0.06-0.058-0.093-0.084c-0.151-0.117-0.319-0.214-0.499-0.298
		c-0.018-0.008-0.033-0.019-0.051-0.026c-0.431-0.188-0.935-0.292-1.525-0.292c-0.166,0-0.336,0.032-0.506,0.058
		c-0.041,0.006-0.082,0.006-0.124,0.014c-0.144,0.026-0.287,0.067-0.432,0.111c-0.078,0.023-0.156,0.048-0.234,0.077
		c-0.206,0.074-0.409,0.167-0.614,0.274c-0.085,0.045-0.171,0.087-0.256,0.137c-0.117,0.069-0.231,0.144-0.346,0.223
		c-0.138,0.096-0.274,0.199-0.409,0.31c-0.058,0.047-0.119,0.083-0.177,0.133c-0.012,0.01-0.021,0.018-0.028,0.024
		c-0.564-0.902-1.469-1.36-2.691-1.36c-1.618,0-2.598,0.969-2.725,1.103l-0.183-0.632c-0.044-0.175-0.158-0.261-0.348-0.261h-0.399
		c-0.215,0-0.411,0.196-0.411,0.411v7.602c0,0.215,0.196,0.411,0.411,0.411h0.651c0.215,0,0.411-0.196,0.411-0.411v-5.603
		c0.052-0.067,0.951-1.189,2.382-1.189c1.297,0,1.983,0.816,1.983,2.361v4.431c0,0.215,0.196,0.411,0.411,0.411h0.672
		c0.215,0,0.411-0.196,0.411-0.411v-4.431c0-0.095-0.021-0.187-0.024-0.28c-0.009-0.222-0.027-0.443-0.058-0.663
		c-0.012-0.083-0.007-0.166-0.022-0.25l0.038-0.035c0.331-0.31,1.211-1.133,2.512-1.133c1.229,0,1.878,0.816,1.878,2.361v4.431
		C25.879,27.532,26.075,27.729,26.29,27.729z M21.428,21.691c0.07,0.4,0.104,0.791,0.104,1.195v4.431
		c0,0.203-0.185,0.388-0.387,0.388h-0.672c-0.203,0-0.387-0.185-0.387-0.388v-4.431c0-1.56-0.694-2.385-2.006-2.385
		c-1.48,0-2.394,1.19-2.403,1.202l-0.002,5.613c0,0.203-0.185,0.388-0.387,0.388h-0.651c-0.203,0-0.387-0.185-0.387-0.388v-7.602
		c0-0.203,0.185-0.388,0.387-0.388h0.399c0.181,0,0.284,0.077,0.325,0.244l0.195,0.671l0.014-0.016
		c0.01-0.011,1.003-1.109,2.721-1.109c1.218,0,2.119,0.458,2.678,1.359l0.007,0.011l0.01-0.008c0.007-0.005,0.02-0.017,0.039-0.033
		c0.981-0.857,2.076-1.33,3.083-1.33c2.152,0,3.243,1.268,3.243,3.769v4.431c0,0.203-0.185,0.388-0.387,0.388H26.29
		c-0.203,0-0.387-0.185-0.387-0.388v-4.431c0-1.56-0.658-2.385-1.902-2.385c-1.31,0-2.195,0.828-2.528,1.14l-0.046,0.043
		L21.428,21.691z"/>
	<path fill="#0C3454" d="M124.043,27.729h0.672c0.215,0,0.411-0.196,0.411-0.411v-4.431c0-0.833-0.132-1.516-0.372-2.076
		c-0.014-0.033-0.025-0.069-0.04-0.101c-0.075-0.161-0.165-0.304-0.26-0.441c-0.027-0.038-0.05-0.081-0.078-0.117
		c-0.104-0.133-0.224-0.25-0.35-0.358c-0.032-0.027-0.06-0.058-0.093-0.084c-0.151-0.117-0.319-0.214-0.499-0.298
		c-0.018-0.008-0.033-0.019-0.051-0.026c-0.431-0.188-0.935-0.292-1.525-0.292c-1.628,0-2.795,0.982-2.934,1.104l-0.184-0.633
		c-0.044-0.175-0.157-0.261-0.347-0.261h-0.399c-0.215,0-0.411,0.196-0.411,0.411v7.602c0,0.215,0.196,0.411,0.411,0.411h0.651
		c0.215,0,0.411-0.196,0.411-0.411v-5.602c0.067-0.069,1.186-1.19,2.697-1.19c1.211,0,1.878,0.838,1.878,2.361v4.431
		C123.632,27.532,123.828,27.729,124.043,27.729z M119.033,21.707v5.611c0,0.203-0.185,0.388-0.387,0.388h-0.651
		c-0.203,0-0.388-0.185-0.388-0.388v-7.602c0-0.203,0.185-0.388,0.388-0.388h0.399c0.18,0,0.283,0.077,0.325,0.244l0.189,0.651
		l0.005,0.018l0.014-0.013c0.012-0.011,1.214-1.11,2.932-1.11c2.152,0,3.243,1.268,3.243,3.769v4.431
		c0,0.203-0.185,0.388-0.387,0.388h-0.672c-0.203,0-0.387-0.185-0.387-0.388v-4.431c0-1.538-0.676-2.385-1.902-2.385
		c-1.562,0-2.706,1.189-2.717,1.201L119.033,21.707z"/>
	<path fill="#0C3454" d="M40.15,27.729c0.215,0,0.411-0.196,0.411-0.411v-5.603c0.038-0.062,0.742-1.168,2.277-1.168
		c0.324,0,0.641,0.09,0.814,0.167c0.084,0.034,0.156,0.05,0.218,0.05c0.023,0,0.039-0.016,0.061-0.021
		c0.013-0.003,0.025-0.008,0.037-0.013c0.085-0.032,0.158-0.092,0.204-0.212l0.252-0.714c0.046-0.129,0.035-0.243-0.033-0.34
		c-0.235-0.333-1.091-0.369-1.448-0.369c-1.603,0-2.401,0.952-2.515,1.099l-0.162-0.586c-0.041-0.184-0.186-0.303-0.368-0.303
		h-0.399c-0.215,0-0.411,0.196-0.411,0.411v7.602c0,0.215,0.196,0.411,0.411,0.411H40.15z M39.112,19.716
		c0-0.203,0.185-0.388,0.387-0.388h0.399c0.171,0,0.307,0.112,0.346,0.285l0.168,0.609l0.007,0.024l0.014-0.021
		c0.008-0.011,0.794-1.108,2.511-1.108c0.354,0,1.201,0.035,1.429,0.359c0.063,0.09,0.074,0.197,0.03,0.319l-0.252,0.713
		c-0.06,0.155-0.151,0.23-0.28,0.23c-0.06,0-0.128-0.016-0.209-0.048c-0.176-0.078-0.497-0.169-0.824-0.169
		c-1.584,0-2.292,1.171-2.299,1.183l-0.002,5.612c0,0.203-0.185,0.388-0.387,0.388h-0.651c-0.203,0-0.387-0.185-0.387-0.388V19.716z
		"/>
	<path fill="#0C3454" d="M37.369,23.495c0-1.159-0.433-2.257-1.219-3.092c-0.794-0.844-1.85-1.309-2.972-1.309
		S31,19.56,30.206,20.403c-0.786,0.835-1.219,1.933-1.219,3.092c0,2.45,1.88,4.443,4.19,4.443S37.369,25.945,37.369,23.495z
		 M33.178,19.118c1.116,0,2.166,0.462,2.956,1.301c0.782,0.831,1.212,1.923,1.212,3.076c0,2.438-1.87,4.42-4.167,4.42
		s-4.167-1.982-4.167-4.42C29.011,21.082,30.88,19.118,33.178,19.118z"/>
	<path fill="#0C3454" d="M100.669,16.534l-0.671,0.042c-0.215,0-0.411,0.196-0.411,0.41v2.319h-1.06
		c-0.238,0-0.411,0.173-0.411,0.411v0.462c0,0.226,0.185,0.41,0.411,0.41h1.06v5.028c0,0.562,0.041,1.198,0.338,1.65
		c0.297,0.452,0.823,0.672,1.606,0.672c0.995,0,2.122-0.525,2.42-0.716c0.221-0.141,0.31-0.269,0.15-0.541l-0.315-0.525
		c-0.046-0.074-0.099-0.132-0.166-0.17c-0.011-0.006-0.023-0.011-0.036-0.015c-0.022-0.008-0.037-0.026-0.064-0.026
		c-0.014,0-0.036,0.014-0.05,0.016c0,0-0.001,0-0.002,0c-0.059,0.009-0.12,0.021-0.201,0.064c-0.221,0.12-0.976,0.461-1.528,0.461
		c-0.461,0-0.68-0.149-0.68-0.997v-4.902h2.423c0.227,0,0.411-0.184,0.411-0.41v-0.462c0-0.238-0.173-0.411-0.411-0.411h-2.423
		v-2.361C101.061,16.721,100.881,16.533,100.669,16.534z M103.871,20.178c0,0.213-0.173,0.387-0.387,0.387h-2.447v4.926
		c0,0.868,0.227,1.021,0.704,1.021c0.557,0,1.316-0.344,1.539-0.464c0.099-0.053,0.178-0.078,0.243-0.078
		c0.123,0,0.18,0.093,0.246,0.2l0.315,0.525c0.151,0.257,0.07,0.374-0.144,0.51c-0.296,0.19-1.418,0.712-2.408,0.712
		c-1.6,0-1.921-0.879-1.921-2.299v-5.052h-1.083c-0.214,0-0.387-0.173-0.387-0.387v-0.462c0-0.225,0.163-0.388,0.387-0.388h1.083
		v-2.343c0-0.203,0.185-0.387,0.388-0.387l0.671-0.042c0.199,0,0.367,0.177,0.367,0.387v2.385h2.447
		c0.225,0,0.387,0.163,0.387,0.388V20.178z"/>
	<path fill="#0C3454" d="M104.984,25.176c0,1.626,1.067,2.763,2.595,2.763c0.079,0,0.143-0.021,0.218-0.025
		c0.152-0.009,0.298-0.025,0.437-0.05c0.155-0.028,0.299-0.063,0.439-0.107c0.098-0.031,0.193-0.063,0.283-0.101
		c0.173-0.072,0.33-0.149,0.476-0.237c0.037-0.022,0.075-0.043,0.109-0.066c0.247-0.161,0.469-0.33,0.637-0.495l0.163,0.548
		c0.063,0.189,0.126,0.324,0.368,0.324h0.399c0.215,0,0.411-0.196,0.411-0.411v-4.662c0-2.309-0.427-3.561-2.679-3.561
		c-1.686,0-2.913,0.542-2.924,0.547c-0.148,0.066-0.333,0.187-0.237,0.476l0.168,0.525c0.072,0.217,0.219,0.296,0.414,0.217
		c0.197-0.077,1.246-0.461,2.516-0.461c0.223,0,0.411,0.024,0.568,0.075c0,0,0.001,0,0.001,0c0.158,0.051,0.286,0.127,0.39,0.233
		c0.344,0.348,0.406,0.998,0.395,1.932c-0.119-0.035-0.943-0.269-1.774-0.269C106.308,22.371,104.984,23.472,104.984,25.176z
		 M109.224,20.436c-0.064-0.015-0.14-0.021-0.213-0.028c-0.081-0.008-0.143-0.031-0.235-0.031c-1.273,0-2.326,0.386-2.524,0.463
		c-0.047,0.019-0.091,0.028-0.131,0.028c-0.116,0-0.201-0.078-0.252-0.231l-0.168-0.525c-0.07-0.21,0-0.348,0.225-0.448
		c0.011-0.005,1.233-0.544,2.914-0.544c1.053,0,1.729,0.269,2.127,0.848c0.365,0.531,0.528,1.361,0.528,2.689v4.662
		c0,0.203-0.185,0.388-0.387,0.388h-0.399c-0.227,0-0.284-0.122-0.346-0.307l-0.168-0.566l-0.006-0.019l-0.014,0.014
		c-0.498,0.497-1.352,1.088-2.596,1.088c-1.514,0-2.571-1.126-2.571-2.739c0-1.689,1.314-2.781,3.348-2.781
		c0.891,0,1.773,0.269,1.782,0.272l0.015,0.004l0-0.016c0.008-0.575-0.022-1.03-0.117-1.39c-0.002-0.008-0.005-0.015-0.007-0.023
		c-0.03-0.109-0.066-0.212-0.113-0.301c-0.003-0.006-0.008-0.011-0.011-0.017c-0.046-0.083-0.09-0.169-0.153-0.233
		c-0.031-0.031-0.08-0.042-0.115-0.069c-0.059-0.045-0.123-0.086-0.195-0.117C109.376,20.478,109.302,20.454,109.224,20.436z"/>
	<path fill="#0C3454" d="M114.488,13.425c-0.56,0-0.999,0.448-0.999,1.02c0,0.551,0.448,0.999,0.999,0.999
		c0.572,0,1.02-0.439,1.02-0.999C115.508,13.873,115.06,13.425,114.488,13.425z M114.488,15.42c-0.538,0-0.975-0.438-0.975-0.976
		c0-0.559,0.428-0.996,0.975-0.996c0.559,0,0.997,0.438,0.997,0.996C115.484,14.992,115.047,15.42,114.488,15.42z"/>
	<path fill="#0C3454" d="M114.845,19.305h-0.651c-0.215,0-0.411,0.196-0.411,0.411v7.602c0,0.215,0.196,0.411,0.411,0.411h0.651
		c0.215,0,0.411-0.196,0.411-0.411v-7.602C115.256,19.501,115.06,19.305,114.845,19.305z M115.232,27.317
		c0,0.203-0.185,0.388-0.388,0.388h-0.651c-0.203,0-0.387-0.185-0.387-0.388v-7.602c0-0.203,0.185-0.388,0.387-0.388h0.651
		c0.203,0,0.388,0.185,0.388,0.388V27.317z"/>
	<path fill="#0C3454" d="M93.72,27.729c0.215,0,0.411-0.196,0.411-0.411v-5.603c0.038-0.062,0.742-1.168,2.277-1.168
		c0.324,0,0.642,0.09,0.815,0.167c0.084,0.034,0.156,0.05,0.218,0.05c0.023,0,0.039-0.016,0.061-0.021
		c0.013-0.003,0.024-0.008,0.037-0.013c0.085-0.032,0.157-0.092,0.204-0.212l0.252-0.714c0.046-0.129,0.035-0.243-0.033-0.34
		c-0.235-0.333-1.091-0.369-1.448-0.369c-1.603,0-2.401,0.952-2.515,1.099l-0.162-0.586c-0.041-0.184-0.186-0.303-0.368-0.303
		h-0.399c-0.215,0-0.411,0.196-0.411,0.411v7.602c0,0.215,0.196,0.411,0.411,0.411H93.72z M92.682,19.716
		c0-0.203,0.185-0.388,0.387-0.388h0.399c0.171,0,0.307,0.112,0.346,0.285l0.168,0.609l0.007,0.024l0.014-0.021
		c0.008-0.011,0.794-1.108,2.511-1.108c0.354,0,1.201,0.035,1.429,0.359c0.063,0.09,0.074,0.197,0.03,0.319l-0.252,0.713
		c-0.06,0.155-0.151,0.23-0.279,0.23c-0.06,0-0.128-0.016-0.209-0.048c-0.176-0.078-0.497-0.169-0.824-0.169
		c-1.584,0-2.292,1.171-2.298,1.183l-0.002,5.612c0,0.203-0.185,0.388-0.388,0.388h-0.651c-0.203,0-0.387-0.185-0.387-0.388V19.716z
		"/>
	<path fill="#0C3454" d="M144.413,32.873c1.359,0,2.826-0.768,2.826-2.007c0-0.141-0.045-1.376-1.608-1.376H143.3l-0.003,0
		c-0.014,0.004-1.416,0.395-1.416,1.627C141.881,32.119,142.97,32.873,144.413,32.873z M143.301,29.514h2.33
		c1.54,0,1.584,1.214,1.584,1.353c0,1.225-1.455,1.983-2.802,1.983c-1.43,0-2.508-0.744-2.508-1.731
		C141.905,29.92,143.25,29.528,143.301,29.514z"/>
	<path fill="#0C3454" d="M144.392,25.124c1.263,0,2.111-0.95,2.111-2.363c0-1.414-0.849-2.364-2.111-2.364
		c-1.305,0-2.217,0.972-2.217,2.364C142.175,24.152,143.087,25.124,144.392,25.124z M144.392,20.42c1.249,0,2.088,0.94,2.088,2.341
		c0,1.399-0.839,2.34-2.088,2.34c-1.292,0-2.193-0.962-2.193-2.34C142.199,21.382,143.101,20.42,144.392,20.42z"/>
	<path fill="#0C3454" d="M33.178,26.573c1.537,0,2.742-1.352,2.742-3.078c0-0.808-0.282-1.565-0.793-2.131
		c-0.514-0.57-1.206-0.884-1.948-0.884c-0.742,0-1.434,0.314-1.948,0.884c-0.512,0.566-0.793,1.323-0.793,2.131
		C30.436,25.221,31.641,26.573,33.178,26.573z M33.178,20.504c0.735,0,1.421,0.311,1.932,0.875c0.507,0.562,0.787,1.313,0.787,2.116
		c0,1.713-1.194,3.055-2.718,3.055s-2.718-1.342-2.718-3.055c0-0.802,0.279-1.554,0.787-2.116
		C31.757,20.815,32.442,20.504,33.178,20.504z"/>
	<path fill="#0C3454" d="M216.169,26.573c1.537,0,2.742-1.352,2.742-3.078c0-0.808-0.282-1.565-0.793-2.131
		c-0.516-0.57-1.207-0.884-1.949-0.884s-1.434,0.314-1.949,0.884c-0.511,0.566-0.793,1.323-0.793,2.131
		C213.427,25.221,214.632,26.573,216.169,26.573z M216.169,20.504c0.735,0,1.422,0.311,1.932,0.875
		c0.508,0.562,0.787,1.313,0.787,2.116c0,1.713-1.194,3.055-2.719,3.055s-2.719-1.342-2.719-3.055c0-0.802,0.279-1.554,0.787-2.116
		C214.747,20.815,215.434,20.504,216.169,20.504z"/>
	<path fill="#0C3454" d="M238.639,23.483c-1.25,0-2.027,0.648-2.027,1.692c0,0.885,0.609,1.503,1.481,1.503
		c1.112,0,1.997-0.707,2.32-1.182l0.002-1.671l-0.006-0.003C240.13,23.659,239.518,23.483,238.639,23.483z M240.392,25.487
		c-0.322,0.471-1.197,1.168-2.299,1.168c-0.858,0-1.458-0.608-1.458-1.479c0-1.03,0.768-1.669,2.004-1.669
		c0.868,0,1.474,0.171,1.753,0.332V25.487z"/>
	<path fill="#0C3454" d="M64.289,22.697c-0.066-1.28-1.126-2.321-2.363-2.321c-1.388,0-2.506,0.976-2.657,2.32l-0.001,0.013h5.023
		L64.289,22.697z M59.292,22.686c0.156-1.326,1.262-2.286,2.633-2.286c1.221,0,2.269,1.024,2.34,2.286H59.292z"/>
	<path fill="#0C3454" d="M108.356,23.483c-1.25,0-2.028,0.648-2.028,1.692c0,0.885,0.609,1.503,1.482,1.503
		c1.112,0,1.997-0.707,2.319-1.182l0.002-1.671l-0.006-0.003C109.846,23.659,109.234,23.483,108.356,23.483z M110.108,25.487
		c-0.322,0.471-1.198,1.168-2.298,1.168c-0.859,0-1.458-0.608-1.458-1.479c0-1.03,0.768-1.669,2.004-1.669
		c0.867,0,1.473,0.171,1.752,0.332V25.487z"/>
	<path fill="#0C3454" d="M89.573,22.697c-0.066-1.28-1.126-2.321-2.363-2.321c-1.388,0-2.506,0.976-2.657,2.32l-0.001,0.013h5.023
		L89.573,22.697z M84.577,22.686c0.156-1.326,1.262-2.286,2.633-2.286c1.221,0,2.269,1.024,2.34,2.286H84.577z"/>
	<path fill="#0C3454" d="M196.807,23.483c-1.25,0-2.027,0.648-2.027,1.692c0,0.885,0.609,1.503,1.481,1.503
		c1.113,0,1.997-0.707,2.319-1.182l0.002-1.671l-0.006-0.003C198.297,23.659,197.685,23.483,196.807,23.483z M198.559,25.487
		c-0.321,0.471-1.197,1.168-2.298,1.168c-0.858,0-1.458-0.608-1.458-1.479c0-1.03,0.768-1.669,2.004-1.669
		c0.868,0,1.473,0.171,1.752,0.332V25.487z"/>
	<path fill="#0C3454" d="M177.907,26.531c0.777,0,1.483-0.311,1.99-0.875c0.498-0.555,0.772-1.314,0.772-2.139
		c0-0.833-0.247-1.602-0.696-2.165c-0.486-0.611-1.165-0.934-1.962-0.934c-1.355,0-2.143,1.024-2.151,1.034l-0.002,4.337
		l0.004,0.003C175.872,25.8,176.761,26.531,177.907,26.531z M175.882,21.463c0.048-0.062,0.823-1.021,2.13-1.021
		c0.79,0,1.462,0.32,1.944,0.925c0.445,0.559,0.69,1.323,0.69,2.15c0,0.819-0.272,1.574-0.766,2.124
		c-0.502,0.56-1.203,0.868-1.973,0.868c-1.097,0-1.958-0.675-2.025-0.729V21.463z"/>
	<path fill="#0C3454" d="M51.292,22.697c-0.066-1.28-1.127-2.321-2.364-2.321c-1.388,0-2.506,0.976-2.657,2.32l-0.001,0.013h5.023
		L51.292,22.697z M46.294,22.686c0.156-1.326,1.262-2.286,2.633-2.286c1.221,0,2.269,1.024,2.34,2.286H46.294z"/>
</g>
<g>
</g>
<g>
</g>
<g>
</g>
<g>
</g>
<g>
</g>
<g>
</g>
</svg>
