<?xml version="1.0" encoding="utf-8"?>
<!-- Generator: Adobe Illustrator 16.0.0, SVG Export Plug-In . SVG Version: 6.00 Build 0)  -->
<!DOCTYPE svg PUBLIC "-//W3C//DTD SVG 1.1 Tiny//EN" "http://www.w3.org/Graphics/SVG/1.1/DTD/svg11-tiny.dtd">
<svg version="1.1" baseProfile="tiny" id="Layer_1" xmlns="http://www.w3.org/2000/svg" xmlns:xlink="http://www.w3.org/1999/xlink"
	 x="0px" y="0px" width="309.261px" height="44.551px" viewBox="0 0 309.261 44.551" xml:space="preserve">
<g>
	<path fill="none" d="M243.404,41.399h2.194c-0.008-0.499-0.339-1.115-1.101-1.115C243.785,40.284,243.433,40.885,243.404,41.399z"
		/>
	<path fill="none" d="M88.67,16.9c0,1.213,0.835,2.06,2.031,2.06c1.534,0,2.753-0.971,3.2-1.625v-2.296
		c-0.388-0.225-1.23-0.462-2.44-0.462C89.74,14.577,88.67,15.467,88.67,16.9z"/>
	<path fill="none" d="M95.726,11.582c0.002,0.015,0.004,0.031,0.006,0.046C95.73,11.612,95.728,11.597,95.726,11.582z"/>
	<path fill="none" d="M250.652,11.617c-1.576,0-2.803,1.314-2.803,2.948c0,1.664,1.227,3.007,2.803,3.007
		c1.547,0,2.802-1.343,2.802-3.007C253.454,12.931,252.199,11.617,250.652,11.617z"/>
	<path fill="none" d="M31.973,8.917c0.049,0.05,0.087,0.114,0.114,0.188C32.061,9.032,32.022,8.969,31.973,8.917z"/>
	<path fill="none" d="M31.694,8.779c0.063,0.009,0.123,0.029,0.177,0.06C31.817,8.808,31.758,8.788,31.694,8.779z"/>
	<path fill="none" d="M26.175,11.512c-0.011-0.045-0.024-0.088-0.037-0.13C26.151,11.424,26.164,11.466,26.175,11.512z"/>
	<path fill="none" d="M91.479,41.944c-0.2-0.276-0.553-0.415-0.92-0.415c-0.484,0-0.823,0.305-0.823,0.733
		c0,0.423,0.339,0.727,0.823,0.727c0.367,0,0.72-0.138,0.92-0.415V41.944z"/>
	<path fill="none" d="M95.518,10.585c0.027,0.087,0.05,0.18,0.073,0.273C95.568,10.764,95.544,10.672,95.518,10.585z"/>
	<path fill="none" d="M23.073,18.96c1.534,0,2.753-0.971,3.199-1.625v-2.296c-0.386-0.225-1.228-0.462-2.44-0.462
		c-1.721,0-2.791,0.89-2.791,2.324C21.042,18.113,21.876,18.96,23.073,18.96z"/>
	<path fill="none" d="M26.008,11.035c-0.023-0.046-0.055-0.083-0.082-0.125C25.953,10.952,25.985,10.989,26.008,11.035z"/>
	<path fill="none" d="M95.18,9.803c0.068,0.114,0.13,0.237,0.187,0.366C95.31,10.038,95.247,9.916,95.18,9.803z"/>
	<path fill="none" d="M28.098,11.583c0.002,0.014,0.003,0.028,0.005,0.042C28.101,11.611,28.1,11.596,28.098,11.583z"/>
	<path fill="none" d="M27.551,9.803c0.068,0.113,0.129,0.235,0.186,0.364C27.681,10.037,27.619,9.916,27.551,9.803z"/>
	<path fill="none" d="M27.89,10.586c0.026,0.086,0.049,0.177,0.071,0.269C27.938,10.763,27.915,10.672,27.89,10.586z"/>
	<path fill="none" d="M67.902,8.916c0.05,0.051,0.088,0.116,0.115,0.191C67.991,9.032,67.953,8.968,67.902,8.916z"/>
	<path fill="none" d="M76.568,40.859c-0.187-0.291-0.588-0.54-1.003-0.54c-0.671,0-1.073,0.553-1.073,1.294
		c0,0.74,0.402,1.286,1.073,1.286c0.415,0,0.816-0.235,1.003-0.525V40.859z"/>
	<path fill="none" d="M72.591,41.944c-0.2-0.276-0.553-0.415-0.92-0.415c-0.484,0-0.823,0.305-0.823,0.733
		c0,0.423,0.339,0.727,0.823,0.727c0.367,0,0.72-0.138,0.92-0.415V41.944z"/>
	<path fill="none" d="M62.847,41.944c-0.201-0.276-0.554-0.415-0.921-0.415c-0.484,0-0.823,0.305-0.823,0.733
		c0,0.423,0.339,0.727,0.823,0.727c0.367,0,0.72-0.138,0.921-0.415V41.944z"/>
	<polygon fill="none" points="46.392,18 46.389,17.998 46.385,17.999 	"/>
	<path fill="none" d="M93.637,11.035c-0.023-0.046-0.055-0.083-0.082-0.125C93.582,10.952,93.613,10.989,93.637,11.035z"/>
	<path fill="none" d="M255.626,40.284c-0.713,0-1.065,0.602-1.094,1.115h2.194C256.72,40.9,256.388,40.284,255.626,40.284z"/>
	<path fill="none" d="M132.588,40.284c-0.712,0-1.065,0.602-1.093,1.115h2.193C133.681,40.9,133.349,40.284,132.588,40.284z"/>
	<path fill="none" d="M80.049,10.257c-1.911,0-3.451,1.34-3.665,3.188h6.922C83.208,11.686,81.75,10.257,80.049,10.257z"/>
	<path fill="none" d="M230.002,40.284c-0.713,0-1.065,0.602-1.094,1.115h2.194C231.096,40.9,230.764,40.284,230.002,40.284z"/>
	<path fill="none" d="M79.569,40.284c-0.712,0-1.065,0.602-1.093,1.115h2.194C80.663,40.9,80.33,40.284,79.569,40.284z"/>
	<path fill="none" d="M227,40.859c-0.186-0.291-0.588-0.54-1.003-0.54c-0.671,0-1.071,0.553-1.071,1.294
		c0,0.74,0.4,1.286,1.071,1.286c0.415,0,0.817-0.235,1.003-0.525V40.859z"/>
	<path fill="none" d="M83.679,17.776c-0.002,0-0.004,0.002-0.007,0.002c0.007,0,0.013,0.001,0.02,0.002
		C83.688,17.78,83.684,17.776,83.679,17.776z"/>
	<path fill="none" d="M208.748,40.284c-0.712,0-1.064,0.602-1.093,1.115h2.193C209.841,40.9,209.51,40.284,208.748,40.284z"/>
	<path fill="none" d="M213.618,40.859c-0.187-0.291-0.588-0.54-1.004-0.54c-0.671,0-1.072,0.553-1.072,1.294
		c0,0.74,0.401,1.286,1.072,1.286c0.416,0,0.817-0.235,1.004-0.525V40.859z"/>
	<path fill="none" d="M67.624,8.779c0.064,0.009,0.124,0.029,0.178,0.06C67.749,8.808,67.689,8.788,67.624,8.779z"/>
	<path fill="none" d="M151.572,9.803c0.068,0.114,0.13,0.237,0.186,0.366C151.702,10.038,151.639,9.916,151.572,9.803z"/>
	<path fill="none" d="M6.943,42.851c1.031,0,1.695-0.803,1.695-1.875c0-1.079-0.664-1.874-1.695-1.874
		c-1.038,0-1.695,0.795-1.695,1.874C5.249,42.048,5.905,42.851,6.943,42.851z"/>
	<path fill="none" d="M127.138,40.284c-0.712,0-1.065,0.602-1.093,1.115h2.194C128.232,40.9,127.9,40.284,127.138,40.284z"/>
	<path fill="none" d="M150.195,11.511c-0.011-0.044-0.024-0.086-0.036-0.128C150.171,11.424,150.185,11.466,150.195,11.511z"/>
	<path fill="none" d="M150.029,11.035c-0.024-0.047-0.056-0.083-0.083-0.126C149.973,10.951,150.005,10.988,150.029,11.035z"/>
	<path fill="none" d="M128.527,15.892c0.552,0.586,1.331,0.908,2.191,0.908c0.852,0,1.581-0.314,2.107-0.908
		c0.523-0.59,0.8-1.403,0.8-2.35c0-0.946-0.276-1.758-0.8-2.349c-0.526-0.594-1.255-0.908-2.107-0.908
		c-0.86,0-1.639,0.323-2.191,0.909c-0.556,0.589-0.862,1.423-0.862,2.349C127.666,14.469,127.971,15.303,128.527,15.892z"/>
	<path fill="none" d="M125.3,24.625c-0.004,0.015-0.009,0.029-0.013,0.044C125.291,24.655,125.296,24.64,125.3,24.625z"/>
	<path fill="none" d="M3.347,40.976c0-0.996-0.629-1.799-1.771-1.799H0.573v3.591h1.003C2.697,42.768,3.347,41.965,3.347,40.976z"/>
	<path fill="none" d="M145.062,16.9c0,1.213,0.835,2.06,2.031,2.06c1.534,0,2.753-0.971,3.199-1.625v-2.296
		c-0.386-0.225-1.228-0.462-2.44-0.462C146.131,14.577,145.062,15.467,145.062,16.9z"/>
	<path fill="none" d="M152.118,11.582c0.002,0.015,0.004,0.031,0.006,0.046C152.122,11.612,152.12,11.597,152.118,11.582z"/>
	<path fill="none" d="M130.748,27.572c1.875,0,3.9-1.056,3.9-2.762c0-0.193-0.062-1.885-2.207-1.885h-3.239
		c-0.062,0.018-1.944,0.562-1.944,2.235C127.258,26.536,128.758,27.572,130.748,27.572z"/>
	<path fill="none" d="M189.335,41.606c0-0.679-0.394-1.287-1.106-1.287s-1.114,0.608-1.114,1.287c0,0.685,0.401,1.293,1.114,1.293
		S189.335,42.291,189.335,41.606z"/>
	<path fill="none" d="M196.051,42.899c0.671,0,1.072-0.554,1.072-1.293c0-0.741-0.401-1.287-1.072-1.287
		c-0.408,0-0.816,0.242-0.996,0.533v1.508C195.234,42.65,195.643,42.899,196.051,42.899z"/>
	<path fill="none" d="M151.91,10.585c0.027,0.087,0.05,0.18,0.073,0.273C151.96,10.764,151.936,10.672,151.91,10.585z"/>
	<path fill="none" d="M114.295,41.606c0,0.685,0.401,1.293,1.114,1.293c0.712,0,1.107-0.608,1.107-1.293
		c0-0.679-0.395-1.287-1.107-1.287C114.696,40.319,114.295,40.927,114.295,41.606z"/>
	<path fill="none" d="M18.071,42.851c1.031,0,1.695-0.803,1.695-1.875c0-1.079-0.664-1.874-1.695-1.874
		c-1.037,0-1.695,0.795-1.695,1.874C16.376,42.048,17.034,42.851,18.071,42.851z"/>
	<polygon fill="none" points="104.651,18 104.648,17.998 104.644,17.999 	"/>
	<path fill="none" d="M175.231,11.617c-1.489,0-2.22,1.168-2.395,1.781v3.502c0,0,0.817,0.672,2.277,0.672
		c1.634,0,2.831-1.343,2.831-2.977C177.945,12.959,176.836,11.617,175.231,11.617z"/>
	<polygon fill="none" points="17.116,18 17.113,17.998 17.109,17.999 	"/>
	<path fill="none" d="M149.028,40.284c-0.713,0-1.066,0.602-1.093,1.115h2.193C150.121,40.9,149.789,40.284,149.028,40.284z"/>
	<path fill="none" d="M101.002,41.606c0,0.685,0.401,1.293,1.114,1.293s1.107-0.608,1.107-1.293c0-0.679-0.394-1.287-1.107-1.287
		S101.002,40.927,101.002,41.606z"/>
	<path fill="none" d="M288.713,16.725c0,0.876,0.613,1.518,1.519,1.518c0.934,0,1.839-0.788,2.014-1.138v-1.606
		c0,0-0.788-0.35-1.635-0.35C289.472,15.148,288.713,15.791,288.713,16.725z"/>
	<path fill="none" d="M28.806,40.056c0-0.52-0.374-0.879-0.921-0.879h-1.21v1.765h1.21C28.432,40.942,28.806,40.575,28.806,40.056z"
		/>
	<path fill="none" d="M165.149,41.606c0,0.685,0.401,1.293,1.114,1.293c0.712,0,1.106-0.608,1.106-1.293
		c0-0.679-0.395-1.287-1.106-1.287C165.551,40.319,165.149,40.927,165.149,41.606z"/>
	<polygon fill="none" points="161.217,18 161.214,17.998 161.21,17.999 	"/>
	<path fill="none" d="M159.658,41.944c-0.2-0.276-0.553-0.415-0.92-0.415c-0.484,0-0.824,0.305-0.824,0.733
		c0,0.423,0.34,0.727,0.824,0.727c0.367,0,0.72-0.138,0.92-0.415V41.944z"/>
	<path fill="none" d="M124.137,40.859c-0.187-0.291-0.588-0.54-1.003-0.54c-0.671,0-1.072,0.553-1.072,1.294
		c0,0.74,0.401,1.286,1.072,1.286c0.415,0,0.816-0.235,1.003-0.525V40.859z"/>
	<path fill="none" d="M93.804,11.511c-0.011-0.045-0.024-0.087-0.037-0.129C93.78,11.424,93.793,11.466,93.804,11.511z"/>
	<path fill="none" d="M174.659,41.944c-0.2-0.276-0.553-0.415-0.92-0.415c-0.485,0-0.824,0.305-0.824,0.733
		c0,0.423,0.339,0.727,0.824,0.727c0.367,0,0.72-0.138,0.92-0.415V41.944z"/>
	<path fill="#F15A31" d="M250.652,8.464c-3.299,0-5.984,2.802-5.984,6.1c0,3.357,2.686,6.159,5.984,6.159
		c3.298,0,5.983-2.802,5.983-6.159C256.636,11.267,253.95,8.464,250.652,8.464z M250.652,17.571c-1.576,0-2.803-1.343-2.803-3.007
		c0-1.634,1.227-2.948,2.803-2.948c1.547,0,2.802,1.314,2.802,2.948C253.454,16.229,252.199,17.571,250.652,17.571z"/>
	<path fill="#F15A31" d="M198.99,4.611c1.138,0,2.043-0.905,2.043-2.014c0-1.109-0.905-2.014-2.043-2.014
		c-1.109,0-1.985,0.905-1.985,2.014C197.005,3.707,197.881,4.611,198.99,4.611z"/>
	<path fill="#F15A31" d="M239.415,11.617c0.817,0,1.547,0.409,2.014,0.934c0.204,0.175,0.468,0.321,0.729,0.088l1.343-1.284
		c0.292-0.205,0.35-0.555,0.146-0.818c-1.109-1.342-2.511-2.072-4.32-2.072c-3.27,0-6.217,2.685-6.217,6.13
		c0,3.502,2.89,6.129,6.188,6.129c2.072,0,3.619-0.905,4.612-2.452c0.204-0.292,0.087-0.583-0.205-0.817l-1.255-1.08
		c-0.233-0.175-0.525-0.117-0.729,0.088c-0.525,0.496-1.08,1.109-2.336,1.109c-1.576,0-2.831-1.314-2.831-2.977
		C236.554,12.959,237.838,11.617,239.415,11.617z"/>
	<path fill="#F15A31" d="M197.822,20.432h2.423c0.292,0,0.554-0.262,0.554-0.554V9.311c0-0.321-0.262-0.554-0.554-0.554h-2.423
		c-0.292,0-0.555,0.233-0.555,0.554v10.567C197.268,20.169,197.53,20.432,197.822,20.432z"/>
	<path fill="#F15A31" d="M227.01,8.756h-2.335c-0.35,0-0.555,0.029-0.701,0.321l-2.918,6.597h-0.029l-2.948-6.597
		c-0.087-0.175-0.233-0.321-0.496-0.321h-2.627c-0.438,0-0.671,0.379-0.496,0.759l4.758,10.099l-4.145,8.787
		c-0.204,0.407,0.058,0.787,0.496,0.787h2.51c0.233,0,0.409-0.175,0.497-0.35l8.931-19.323
		C227.711,9.135,227.477,8.756,227.01,8.756z"/>
	<path fill="#F15A31" d="M181.36,14.594c0-3.357-2.424-6.13-5.634-6.13c-1.897,0-3.327,1.022-3.766,1.605l-0.379-0.963
		c-0.088-0.233-0.292-0.35-0.496-0.35h-1.139c-0.291,0-0.555,0.233-0.555,0.554v19.323c0,0.292,0.264,0.555,0.555,0.555h2.335
		c0.525,0,0.701-0.203,0.701-0.555v-8.552c0.408,0.234,1.459,0.642,2.598,0.642C178.733,20.724,181.36,18.039,181.36,14.594z
		 M175.114,17.571c-1.46,0-2.277-0.672-2.277-0.672v-3.502c0.175-0.613,0.905-1.781,2.395-1.781c1.604,0,2.714,1.343,2.714,2.978
		C177.945,16.229,176.748,17.571,175.114,17.571z"/>
	<path fill="#F15A31" d="M290.961,8.464c-1.869,0-3.737,0.467-3.97,0.555c-0.264,0.087-0.496,0.291-0.409,0.729l0.263,1.518
		c0.059,0.379,0.264,0.642,0.671,0.525c0.672-0.204,2.189-0.437,3.27-0.437s1.547,0.525,1.518,2.014c0,0-0.963-0.321-2.131-0.321
		c-2.977,0-4.67,1.605-4.67,3.677c0,2.481,1.606,3.999,3.941,3.999c1.809,0,2.889-0.876,3.561-1.488l0.35,0.788
		c0.146,0.321,0.293,0.408,0.496,0.408h1.052c0.292,0,0.555-0.262,0.555-0.554v-6.334C295.456,10.361,294.609,8.464,290.961,8.464z
		 M292.245,17.104c-0.175,0.35-1.08,1.138-2.014,1.138c-0.905,0-1.519-0.642-1.519-1.518c0-0.934,0.759-1.576,1.897-1.576
		c0.847,0,1.635,0.35,1.635,0.35V17.104z"/>
	<path fill="#F15A31" d="M229.403,15.907c-1.313,0-2.394,1.109-2.394,2.423c0,1.313,1.08,2.393,2.394,2.393s2.423-1.08,2.423-2.393
		C231.826,17.017,230.717,15.907,229.403,15.907z"/>
	<path fill="#F15A31" d="M308.707,8.756h-2.219c-0.467,0-0.643,0.117-0.643,0.554v6.072c-0.175,1.05-1.108,2.189-2.335,2.189
		c-1.342,0-2.131-0.963-2.131-2.51V9.311c0-0.321-0.262-0.554-0.554-0.554h-2.395c-0.291,0-0.554,0.233-0.554,0.554v5.663
		c0,2.977,1.313,5.75,4.933,5.75c2.307,0,3.387-1.226,3.911-1.693l0.351,0.963c0.088,0.234,0.263,0.438,0.555,0.438h1.08
		c0.292,0,0.554-0.262,0.554-0.554V9.311C309.261,8.989,308.999,8.756,308.707,8.756z"/>
	<path fill="#F15A31" d="M203.426,0.555v19.323c0,0.292,0.264,0.554,0.556,0.554h2.451c0.292,0,0.555-0.262,0.555-0.554V0.555
		c0-0.292-0.263-0.555-0.555-0.555h-2.451C203.689,0,203.426,0.263,203.426,0.555z"/>
	<path fill="#F15A31" d="M182.965,0.555v19.323c0,0.292,0.263,0.554,0.555,0.554h2.424c0.438,0,0.612-0.233,0.612-0.554v-6.188
		c0.292-1.197,1.196-2.073,2.539-2.073c1.401,0,2.307,1.022,2.307,2.627v5.634c0,0.292,0.233,0.554,0.555,0.554h2.364
		c0.292,0,0.554-0.262,0.554-0.554v-5.605c0-2.948-1.517-5.808-5.224-5.808c-1.372,0-2.512,0.525-3.095,0.963V0.555
		c0-0.292-0.263-0.555-0.555-0.555h-2.481C183.228,0,182.965,0.263,182.965,0.555z"/>
	<path fill="#F15A31" d="M209.614,0.555v19.323c0,0.292,0.263,0.554,0.555,0.554h2.451c0.292,0,0.555-0.262,0.555-0.554V0.555
		c0-0.292-0.263-0.555-0.555-0.555h-2.451C209.877,0,209.614,0.263,209.614,0.555z"/>
	<path fill="#F15A31" d="M274.907,20.432h2.365c0.32,0,0.554-0.262,0.554-0.554v-5.575c0-3.065-1.372-5.838-5.108-5.838
		c-2.101,0-3.619,1.284-4.115,1.81c-0.963-1.168-2.131-1.81-3.795-1.81c-2.071,0-3.415,1.167-3.91,1.722l-0.409-1.109
		c-0.059-0.175-0.233-0.321-0.496-0.321h-1.08c-0.292,0-0.554,0.233-0.554,0.554v10.567c0,0.292,0.262,0.554,0.554,0.554h2.364
		c0.292,0,0.555-0.262,0.555-0.554v-6.422c0.292-0.788,0.992-1.839,2.452-1.839c1.488,0,2.16,0.964,2.16,2.481v5.78
		c0,0.292,0.232,0.554,0.554,0.554h2.189c0.291,0,0.555-0.262,0.555-0.554v-5.926c0-0.525-0.029-1.109-0.029-1.109
		s0.759-1.226,2.452-1.226c1.459,0,2.188,0.964,2.188,2.481v5.78C274.353,20.169,274.586,20.432,274.907,20.432z"/>
	<path fill="#F15A31" d="M284.306,18.331c0-1.314-1.108-2.423-2.423-2.423c-1.312,0-2.393,1.109-2.393,2.423
		c0,1.313,1.08,2.393,2.393,2.393C283.197,20.724,284.306,19.644,284.306,18.331z"/>
	<path fill="#FFFFFF" d="M92.876,10.379c-0.028-0.01-0.056-0.019-0.085-0.027C92.82,10.36,92.848,10.369,92.876,10.379z"/>
	<path fill="#FFFFFF" d="M93.168,10.52c-0.014-0.009-0.025-0.02-0.04-0.028C93.143,10.5,93.155,10.511,93.168,10.52z"/>
	<path fill="#FFFFFF" d="M75.72,18.738c-0.14-0.171-0.269-0.351-0.389-0.539C75.451,18.388,75.581,18.567,75.72,18.738z"/>
	<path fill="#FFFFFF" d="M80.96,18.821c0.006-0.001,0.013,0,0.02-0.001C80.974,18.82,80.967,18.82,80.96,18.821z"/>
	<path fill="#FFFFFF" d="M94.73,20.42h0.555c0.284,0,0.542-0.259,0.542-0.543v-6.48c0-0.68-0.031-1.264-0.095-1.77
		c-0.002-0.015-0.003-0.031-0.006-0.046c-0.035-0.265-0.082-0.501-0.135-0.724c-0.023-0.093-0.046-0.186-0.073-0.273
		c-0.045-0.149-0.096-0.287-0.151-0.417c-0.056-0.129-0.118-0.251-0.187-0.366c-0.029-0.048-0.056-0.101-0.087-0.146
		c-0.554-0.806-1.495-1.181-2.96-1.181c-2.336,0-4.037,0.75-4.052,0.757c-0.316,0.141-0.413,0.335-0.315,0.628l0.233,0.73
		c0.097,0.29,0.282,0.389,0.54,0.285c0.388-0.151,1.787-0.643,3.507-0.643c0.628,0,1.059,0.139,1.353,0.437
		c0.065,0.066,0.106,0.159,0.157,0.24c0.027,0.042,0.059,0.078,0.082,0.125c0.052,0.104,0.093,0.224,0.13,0.347
		c0.012,0.042,0.026,0.084,0.037,0.129c0.122,0.493,0.16,1.111,0.15,1.886l0,0.016l-0.015-0.005
		c-0.012-0.003-1.239-0.378-2.478-0.378c-2.83,0-4.658,1.519-4.658,3.871c0,2.244,1.471,3.811,3.578,3.811
		c1.733,0,2.92-0.823,3.611-1.514l0.014-0.014l0.006,0.019l0.234,0.788C94.328,20.242,94.412,20.42,94.73,20.42z M93.922,17.345
		c-0.448,0.659-1.676,1.639-3.221,1.639c-1.209,0-2.055-0.857-2.055-2.083c0-1.448,1.079-2.347,2.814-2.347
		c1.22,0,2.07,0.242,2.458,0.469l0.006,0.003L93.922,17.345z"/>
	<path fill="#FFFFFF" d="M71.642,10.438c0.454,0,0.899,0.127,1.144,0.235c0.113,0.045,0.208,0.067,0.292,0.067
		c0.181,0,0.309-0.106,0.393-0.323l0.35-0.992c0.061-0.171,0.046-0.321-0.042-0.448c-0.318-0.452-1.498-0.5-1.99-0.5
		c-2.388,0-3.482,1.526-3.493,1.542l-0.014,0.021l-0.007-0.024l-0.234-0.846c-0.005-0.022-0.017-0.041-0.024-0.061
		c-0.027-0.076-0.064-0.14-0.115-0.191c-0.03-0.03-0.063-0.055-0.1-0.076c-0.055-0.031-0.114-0.051-0.178-0.06
		c-0.023-0.003-0.044-0.011-0.068-0.011h-0.555c-0.284,0-0.542,0.259-0.542,0.543v10.566c0,0.285,0.258,0.543,0.542,0.543h0.905
		c0.285,0,0.543-0.259,0.543-0.543l0.002-7.799C68.461,12.062,69.443,10.438,71.642,10.438z"/>
	<path fill="#FFFFFF" d="M73.229,10.711c-0.026,0.011-0.053,0.022-0.082,0.028C73.176,10.734,73.203,10.722,73.229,10.711z"/>
	<path fill="#FFFFFF" d="M75.337,11.005c0.118-0.185,0.245-0.361,0.382-0.53C75.582,10.643,75.455,10.82,75.337,11.005z"/>
	<path fill="#FFFFFF" d="M75.095,17.793c-0.103-0.194-0.195-0.395-0.278-0.602C74.899,17.398,74.992,17.599,75.095,17.793z"/>
	<path fill="#FFFFFF" d="M74.34,14.313c0.008-0.22,0.026-0.437,0.054-0.651C74.366,13.876,74.348,14.093,74.34,14.313z"/>
	<path fill="#FFFFFF" d="M80.049,20.711c1.911,0,3.501-0.721,4.283-1.339c0.185-0.135,0.277-0.249,0.292-0.359
		c0.018-0.123-0.059-0.232-0.177-0.385c-0.086-0.115-0.165-0.223-0.244-0.331c-0.082-0.111-0.163-0.222-0.252-0.34
		c-0.087-0.12-0.167-0.173-0.259-0.178c-0.006,0-0.013-0.002-0.02-0.002c-0.113,0.002-0.243,0.077-0.422,0.182
		c-0.032,0.019-0.066,0.039-0.101,0.059c-0.972,0.591-1.919,0.878-2.896,0.878c-0.987,0-1.945-0.415-2.698-1.167
		c-0.722-0.722-1.168-1.684-1.225-2.639l0-0.012h8.418c0.266,0,0.486-0.208,0.514-0.485c0.03-0.208,0.059-0.591,0.059-0.787
		c0-1.483-0.529-2.837-1.489-3.812c-0.964-0.979-2.307-1.518-3.782-1.518c-1.679,0-3.123,0.631-4.176,1.824
		c-0.988,1.12-1.533,2.645-1.533,4.294c0,1.67,0.544,3.203,1.533,4.315C76.92,20.088,78.364,20.711,80.049,20.711z M76.36,13.455
		c0.21-1.866,1.761-3.221,3.689-3.221c1.717,0,3.188,1.445,3.281,3.222l0,0.012h-6.972L76.36,13.455z"/>
	<path fill="#FFFFFF" d="M74.487,13.111c0.043-0.205,0.096-0.405,0.157-0.602C74.583,12.706,74.531,12.907,74.487,13.111z"/>
	<path fill="#FFFFFF" d="M81.655,18.667c0.019-0.005,0.037-0.009,0.056-0.015C81.692,18.658,81.673,18.661,81.655,18.667z"/>
	<path fill="#FFFFFF" d="M74.826,12c0.079-0.194,0.166-0.382,0.262-0.565C74.992,11.617,74.904,11.806,74.826,12z"/>
	<path fill="#FFFFFF" d="M72.997,10.744c-0.007-0.001-0.015-0.004-0.022-0.005C72.982,10.741,72.989,10.743,72.997,10.744z"/>
	<path fill="#FFFFFF" d="M74.649,16.72c-0.065-0.209-0.121-0.424-0.166-0.644C74.529,16.296,74.584,16.511,74.649,16.72z"/>
	<path fill="#FFFFFF" d="M74.395,15.546c-0.028-0.219-0.046-0.442-0.055-0.668C74.348,15.104,74.367,15.327,74.395,15.546z"/>
	<path fill="#FFFFFF" d="M73.354,10.631c-0.001,0.002-0.002,0.005-0.004,0.007C73.352,10.636,73.353,10.633,73.354,10.631z"/>
	<path fill="#FFFFFF" d="M6.748,8.878c0.049,0.019,0.1,0.037,0.146,0.057C6.847,8.916,6.797,8.897,6.748,8.878z"/>
	<path fill="#FFFFFF" d="M7.444,9.2c0.021,0.012,0.044,0.024,0.064,0.036C7.488,9.224,7.466,9.212,7.444,9.2z"/>
	<path fill="#FFFFFF" d="M5.814,8.607c0.109,0.023,0.216,0.047,0.32,0.075C6.031,8.654,5.924,8.63,5.814,8.607z"/>
	<path fill="#FFFFFF" d="M4.8,8.478c0.142,0.007,0.281,0.017,0.417,0.033C5.082,8.495,4.942,8.485,4.8,8.478z"/>
	<path fill="#FFFFFF" d="M16.774,18.107c-0.311,0.167-1.371,0.644-2.137,0.644c-0.66,0-0.975-0.211-0.975-1.413v-6.843h3.398
		c0.299,0,0.542-0.243,0.542-0.542V9.311c0-0.315-0.228-0.543-0.542-0.543h-3.398v-3.31c0-0.294-0.235-0.543-0.514-0.543
		l-0.934,0.059c-0.284,0-0.542,0.258-0.542,0.542v3.252h-1.501c-0.315,0-0.543,0.228-0.543,0.543v0.642
		c0,0.299,0.244,0.542,0.543,0.542h1.501v7.018c0,0.777,0.055,1.655,0.464,2.277c0.408,0.62,1.13,0.921,2.208,0.921
		c1.365,0,2.957-0.736,3.351-0.99c0.34-0.216,0.389-0.39,0.2-0.714l-0.438-0.729c-0.093-0.149-0.174-0.276-0.343-0.278
		c-0.002,0-0.004-0.001-0.007-0.001C17.02,18,16.91,18.035,16.774,18.107z"/>
	<path fill="#FFFFFF" d="M4.773,19.013c-1.476,0-2.739-1.014-2.751-1.024c-0.125-0.08-0.258-0.123-0.382-0.123
		c-0.165,0-0.306,0.076-0.389,0.207c-0.035,0.058-0.088,0.158-0.146,0.265c-0.09,0.168-0.192,0.359-0.263,0.466
		c-0.087,0.201,0.005,0.487,0.144,0.598c0.728,0.562,1.913,1.31,3.788,1.31c1.119,0,2.15-0.359,2.904-1.011
		c0.707-0.612,1.112-1.441,1.112-2.275c0-0.959-0.366-1.722-1.152-2.403c-0.729-0.63-1.757-1.122-2.665-1.556l-0.111-0.054
		c-1.149-0.56-2.056-1.001-2.056-1.941c0-0.57,0.44-1.18,1.676-1.18c1.071,0,2.328,0.696,2.34,0.703
		c0.079,0.044,0.172,0.067,0.271,0.067c0.236,0,0.45-0.125,0.56-0.325l0.234-0.467c0.168-0.309,0.089-0.716-0.171-0.89
		C7.075,8.942,5.891,8.476,4.481,8.476c-2.711,0-3.695,1.808-3.695,3.024c0,1.962,1.714,2.967,3.32,3.755
		c1.739,0.87,2.576,1.333,2.576,2.345C6.682,18.445,5.915,19.013,4.773,19.013z"/>
	<path fill="#FFFFFF" d="M7.548,10.874c-0.024,0.024-0.043,0.052-0.07,0.072C7.505,10.926,7.524,10.897,7.548,10.874z"/>
	<path fill="#FFFFFF" d="M1.563,17.862c0.003,0,0.005-0.002,0.008-0.002C1.568,17.86,1.566,17.861,1.563,17.862z"/>
	<path fill="#FFFFFF" d="M17.187,18.005c0.027,0.008,0.054,0.017,0.077,0.032C17.241,18.023,17.214,18.013,17.187,18.005z"/>
	<path fill="#FFFFFF" d="M7.035,11.07c-0.002,0-0.004-0.001-0.006-0.001C7.031,11.069,7.033,11.07,7.035,11.07z"/>
	<path fill="#FFFFFF" d="M7.323,11.022c-0.039,0.014-0.078,0.024-0.119,0.032C7.245,11.047,7.283,11.037,7.323,11.022z"/>
	<path fill="#FFFFFF" d="M46.05,18.107c-0.311,0.167-1.37,0.644-2.136,0.644c-0.661,0-0.975-0.211-0.975-1.413v-6.843h3.398
		c0.299,0,0.542-0.243,0.542-0.542V9.311c0-0.315-0.228-0.543-0.542-0.543h-3.398v-3.31c0-0.294-0.235-0.543-0.514-0.543
		l-0.934,0.059c-0.284,0-0.542,0.258-0.542,0.542v3.252h-1.501c-0.315,0-0.543,0.228-0.543,0.543v0.642
		c0,0.299,0.244,0.542,0.543,0.542h1.501v7.018c0,0.777,0.055,1.655,0.465,2.277c0.408,0.62,1.13,0.921,2.208,0.921
		c1.365,0,2.956-0.736,3.351-0.99c0.34-0.216,0.389-0.39,0.201-0.714l-0.438-0.729c-0.093-0.149-0.174-0.276-0.344-0.278
		c-0.002,0-0.004-0.001-0.007-0.001C46.295,18,46.186,18.035,46.05,18.107z"/>
	<path fill="#FFFFFF" d="M26.364,19.198l0.014-0.014l0.006,0.019l0.233,0.788c0.084,0.251,0.168,0.43,0.485,0.43h0.555
		c0.284,0,0.542-0.259,0.542-0.543v-6.48c0-0.681-0.031-1.266-0.096-1.772c-0.001-0.014-0.003-0.029-0.005-0.042
		c-0.035-0.266-0.082-0.504-0.137-0.728c-0.022-0.092-0.045-0.183-0.071-0.269c-0.045-0.15-0.097-0.289-0.153-0.419
		c-0.056-0.129-0.117-0.251-0.186-0.364c-0.029-0.049-0.056-0.101-0.087-0.146c-0.554-0.806-1.495-1.181-2.96-1.181
		c-2.336,0-4.038,0.75-4.053,0.757c-0.316,0.142-0.413,0.335-0.315,0.628l0.234,0.73c0.049,0.148,0.15,0.325,0.354,0.325
		c0.057,0,0.119-0.013,0.185-0.04c0.389-0.151,1.79-0.643,3.507-0.643c0.629,0,1.059,0.139,1.353,0.437
		c0.065,0.066,0.106,0.159,0.157,0.239c0.027,0.042,0.059,0.079,0.082,0.125c0.052,0.103,0.093,0.224,0.13,0.347
		c0.013,0.042,0.026,0.085,0.037,0.13c0.122,0.493,0.16,1.11,0.149,1.885l0,0.016l-0.015-0.005
		c-0.012-0.003-1.239-0.378-2.478-0.378c-2.83,0-4.658,1.519-4.658,3.871c0,2.244,1.471,3.811,3.578,3.811
		C24.486,20.711,25.673,19.889,26.364,19.198z M21.018,16.9c0-1.448,1.079-2.347,2.814-2.347c1.223,0,2.071,0.242,2.458,0.469
		l0.006,0.003l-0.002,2.319c-0.448,0.659-1.675,1.639-3.221,1.639C21.863,18.984,21.018,18.127,21.018,16.9z"/>
	<path fill="#FFFFFF" d="M63.069,11.981c-0.016-0.004-0.032-0.009-0.047-0.016C63.038,11.972,63.054,11.977,63.069,11.981z"/>
	<path fill="#FFFFFF" d="M37.299,10.71c-0.026,0.012-0.053,0.023-0.082,0.028C37.246,10.734,37.272,10.722,37.299,10.71z"/>
	<path fill="#FFFFFF" d="M55.797,18.979c1.122,1.118,2.613,1.733,4.199,1.733c1.833,0,3.499-0.914,4.456-2.445
		c0.169-0.283,0.09-0.598-0.201-0.803L63.93,17.23c-0.155-0.113-0.286-0.188-0.42-0.188c-0.135,0-0.271,0.075-0.44,0.245
		c-0.072,0.068-0.143,0.14-0.216,0.212c-0.617,0.614-1.317,1.31-2.886,1.31c-2.167,0-3.865-1.852-3.865-4.215
		c0-1.132,0.399-2.182,1.124-2.956c0.725-0.774,1.709-1.201,2.771-1.201c1.017,0,2.024,0.46,2.695,1.23
		c0.038,0.034,0.074,0.069,0.109,0.104c0.115,0.114,0.214,0.212,0.346,0.212c0.106,0,0.228-0.066,0.374-0.201l0.556-0.467
		c0.262-0.205,0.311-0.55,0.114-0.802c-1.073-1.372-2.435-2.038-4.165-2.038c-1.533,0-3.061,0.65-4.191,1.784
		c-1.167,1.171-1.81,2.721-1.81,4.363C54.024,16.292,54.654,17.839,55.797,18.979z"/>
	<path fill="#FFFFFF" d="M46.463,18.005c0.027,0.008,0.054,0.017,0.077,0.032C46.517,18.022,46.49,18.013,46.463,18.005z"/>
	<path fill="#FFFFFF" d="M37.425,10.631c-0.002,0.002-0.003,0.005-0.005,0.007C37.422,10.636,37.423,10.633,37.425,10.631z"/>
	<path fill="#FFFFFF" d="M37.066,10.744c-0.007,0-0.015-0.003-0.021-0.005C37.052,10.741,37.059,10.743,37.066,10.744z"/>
	<path fill="#FFFFFF" d="M25.543,10.523c-0.015-0.01-0.028-0.022-0.044-0.032C25.515,10.5,25.528,10.513,25.543,10.523z"/>
	<path fill="#FFFFFF" d="M25.249,10.379c-0.028-0.01-0.059-0.02-0.089-0.028C25.19,10.36,25.221,10.369,25.249,10.379z"/>
	<path fill="#FFFFFF" d="M35.712,10.438c0.454,0,0.899,0.127,1.143,0.235c0.113,0.045,0.209,0.067,0.292,0.067
		c0.181,0,0.309-0.106,0.393-0.323l0.35-0.992c0.061-0.17,0.046-0.321-0.042-0.447c-0.319-0.452-1.498-0.501-1.99-0.501
		c-2.389,0-3.483,1.526-3.494,1.542l-0.014,0.021l-0.007-0.024l-0.233-0.846c-0.005-0.023-0.017-0.041-0.024-0.062
		c-0.027-0.075-0.065-0.138-0.114-0.188c-0.03-0.031-0.064-0.057-0.102-0.078c-0.055-0.031-0.114-0.051-0.177-0.06
		c-0.023-0.003-0.044-0.011-0.069-0.011h-0.554c-0.284,0-0.543,0.259-0.543,0.543v10.566c0,0.285,0.259,0.543,0.543,0.543h0.905
		c0.284,0,0.542-0.259,0.542-0.543l0.002-7.799C32.53,12.062,33.513,10.438,35.712,10.438z"/>
	<path fill="#FFFFFF" d="M108.098,20.42h0.905c0.285,0,0.543-0.259,0.543-0.543V9.311c0-0.284-0.259-0.543-0.543-0.543h-0.905
		c-0.284,0-0.542,0.259-0.542,0.543v10.566C107.556,20.162,107.814,20.42,108.098,20.42z"/>
	<path fill="#FFFFFF" d="M127.234,9.865c0.134-0.136,0.275-0.262,0.422-0.379C127.508,9.604,127.367,9.731,127.234,9.865z"/>
	<path fill="#FFFFFF" d="M128.041,9.213c0.134-0.086,0.273-0.164,0.415-0.235C128.312,9.05,128.174,9.128,128.041,9.213z"/>
	<path fill="#FFFFFF" d="M121.099,13.718v6.159c0,0.285,0.259,0.543,0.543,0.543h0.934c0.284,0,0.542-0.259,0.542-0.543v-6.159
		c0-1.627-0.333-2.891-0.99-3.758c-0.746-0.985-1.931-1.484-3.522-1.484c-2.39,0-4.062,1.528-4.078,1.543l-0.014,0.013l-0.005-0.018
		l-0.263-0.905c-0.058-0.233-0.203-0.341-0.456-0.341h-0.555c-0.284,0-0.542,0.259-0.542,0.543v10.566
		c0,0.285,0.258,0.543,0.542,0.543h0.905c0.284,0,0.543-0.259,0.543-0.543V12.08l0.003-0.003c0.016-0.017,1.604-1.667,3.773-1.667
		C120.162,10.409,121.099,11.584,121.099,13.718z"/>
	<path fill="#FFFFFF" d="M128.937,8.771c0.149-0.054,0.302-0.102,0.458-0.141C129.237,8.67,129.085,8.717,128.937,8.771z"/>
	<path fill="#FFFFFF" d="M126.657,10.574c0.086-0.128,0.177-0.252,0.275-0.372C126.834,10.322,126.743,10.445,126.657,10.574z"/>
	<path fill="#FFFFFF" d="M104.309,18.107c-0.311,0.167-1.37,0.644-2.136,0.644c-0.66,0-0.975-0.211-0.975-1.413v-6.843h3.397
		c0.299,0,0.542-0.243,0.542-0.542V9.311c0-0.315-0.228-0.543-0.542-0.543h-3.397v-3.31c0-0.294-0.235-0.543-0.514-0.543
		L99.75,4.974c-0.285,0-0.543,0.258-0.543,0.542v3.252h-1.5c-0.314,0-0.542,0.228-0.542,0.543v0.642
		c0,0.299,0.243,0.542,0.542,0.542h1.5v7.018c0,0.777,0.055,1.655,0.465,2.277c0.408,0.62,1.13,0.921,2.208,0.921
		c1.367,0,2.957-0.736,3.351-0.99c0.341-0.216,0.39-0.39,0.201-0.714l-0.438-0.729c-0.093-0.149-0.174-0.276-0.343-0.278
		c-0.003,0-0.005-0.001-0.007-0.001C104.554,18,104.445,18.035,104.309,18.107z"/>
	<path fill="#FFFFFF" d="M132.891,29.178c-0.208,0.061-0.42,0.113-0.637,0.155C132.472,29.291,132.685,29.239,132.891,29.178z"/>
	<path fill="#FFFFFF" d="M108.507,3.344c0.779,0,1.389-0.597,1.389-1.36c0-0.779-0.61-1.39-1.389-1.39c-0.763,0-1.36,0.61-1.36,1.39
		C107.146,2.734,107.757,3.344,108.507,3.344z"/>
	<path fill="#FFFFFF" d="M133.968,28.759c-0.195,0.097-0.396,0.185-0.604,0.263C133.574,28.943,133.774,28.855,133.968,28.759z"/>
	<path fill="#FFFFFF" d="M149.564,10.523c-0.015-0.01-0.028-0.022-0.044-0.031C149.536,10.501,149.549,10.513,149.564,10.523z"/>
	<path fill="#FFFFFF" d="M149.268,10.379c-0.028-0.01-0.057-0.019-0.086-0.028C149.211,10.36,149.24,10.369,149.268,10.379z"/>
	<path fill="#FFFFFF" d="M125.185,25.453c0,1.037,0.473,2.006,1.331,2.727c1.004,0.844,2.478,1.289,4.262,1.289
		c1.658,0,3.199-0.516,4.338-1.453c1.076-0.884,1.692-2.073,1.692-3.263c0-1.191-0.438-2.164-1.265-2.812
		c-0.764-0.598-1.836-0.914-3.102-0.914h-4.203c-1.117,0-1.617-0.724-1.617-1.442c0-1.161,1.278-1.755,1.291-1.761l0.006-0.003
		l0.006,0.004c0.009,0.007,0.924,0.727,2.766,0.727c1.429,0,2.664-0.512,3.571-1.481c0.852-0.911,1.321-2.143,1.321-3.47
		c0-2.272-1.296-3.25-1.309-3.26l-0.021-0.015l0.025-0.005L135.854,10c0.193-0.027,0.312-0.273,0.312-0.485V9.019
		c0-0.315-0.228-0.543-0.542-0.543h-4.933c-1.438,0-2.682,0.535-3.597,1.547c-0.854,0.945-1.325,2.216-1.325,3.578
		c0,1.7,0.922,2.9,0.932,2.912l0.008,0.011l-0.011,0.006c-0.02,0.012-1.95,1.162-1.95,3.347c0,1.618,1.143,2.499,2.122,2.762
		l0.009,0.002v0.103l-0.006,0.003l-0.029,0.018c-0.816,0.489-1.33,1.114-1.543,1.861c-0.004,0.015-0.009,0.029-0.013,0.044
		C125.22,24.917,125.185,25.178,125.185,25.453z M129.198,22.903l0.003-0.001h3.24c2.167,0,2.23,1.713,2.23,1.908
		c0,1.72-2.037,2.785-3.923,2.785c-2.003,0-3.514-1.047-3.514-2.435C127.234,23.449,129.178,22.908,129.198,22.903z M128.51,11.178
		c0.557-0.59,1.342-0.916,2.208-0.916c0.859,0,1.594,0.317,2.125,0.917c0.527,0.595,0.806,1.413,0.806,2.364
		c0,0.953-0.279,1.77-0.806,2.365c-0.531,0.599-1.266,0.916-2.125,0.916c-0.867,0-1.651-0.325-2.208-0.916
		c-0.56-0.593-0.868-1.434-0.868-2.365C127.642,12.612,127.951,11.772,128.51,11.178z"/>
	<path fill="#FFFFFF" d="M134.935,28.165c-0.174,0.132-0.355,0.254-0.544,0.366C134.582,28.417,134.763,28.294,134.935,28.165z"/>
	<path fill="#FFFFFF" d="M129.905,8.528c0.172-0.025,0.348-0.042,0.527-0.051C130.252,8.486,130.076,8.502,129.905,8.528z"/>
	<path fill="#FFFFFF" d="M161.288,18.005c0.027,0.008,0.054,0.017,0.077,0.032C161.343,18.023,161.315,18.013,161.288,18.005z"/>
	<path fill="#FFFFFF" d="M160.876,18.107c-0.311,0.167-1.368,0.644-2.136,0.644c-0.661,0-0.976-0.211-0.976-1.413v-6.843h3.397
		c0.3,0,0.543-0.243,0.543-0.542V9.311c0-0.315-0.229-0.543-0.543-0.543h-3.397v-3.31c0-0.294-0.235-0.543-0.514-0.543l-0.934,0.059
		c-0.285,0-0.544,0.258-0.544,0.542v3.252h-1.5c-0.315,0-0.543,0.228-0.543,0.543v0.642c0,0.299,0.244,0.542,0.543,0.542h1.5v7.018
		c0,0.776,0.055,1.654,0.466,2.277c0.408,0.62,1.131,0.921,2.209,0.921c1.367,0,2.955-0.736,3.35-0.99
		c0.341-0.216,0.39-0.389,0.201-0.714l-0.438-0.729c-0.093-0.149-0.176-0.276-0.345-0.278c-0.002,0-0.004-0.001-0.007-0.001
		C161.121,18,161.011,18.035,160.876,18.107z"/>
	<path fill="#FFFFFF" d="M151.122,20.42h0.554c0.285,0,0.543-0.259,0.543-0.543v-6.48c0-0.68-0.031-1.264-0.095-1.77
		c-0.002-0.015-0.004-0.031-0.006-0.046c-0.035-0.265-0.082-0.501-0.135-0.724c-0.023-0.093-0.046-0.186-0.073-0.273
		c-0.045-0.149-0.096-0.287-0.152-0.417c-0.056-0.129-0.118-0.251-0.186-0.366c-0.029-0.048-0.056-0.101-0.087-0.146
		c-0.554-0.806-1.495-1.181-2.96-1.181c-2.336,0-4.037,0.75-4.052,0.757c-0.316,0.141-0.413,0.335-0.316,0.628l0.234,0.73
		c0.097,0.29,0.282,0.389,0.54,0.285c0.388-0.151,1.787-0.643,3.506-0.643c0.629,0,1.059,0.139,1.354,0.438
		c0.064,0.065,0.105,0.158,0.156,0.238c0.027,0.043,0.059,0.08,0.083,0.126c0.052,0.103,0.093,0.224,0.13,0.347
		c0.012,0.042,0.025,0.084,0.036,0.128c0.122,0.493,0.16,1.111,0.149,1.886l0,0.016l-0.015-0.005
		c-0.012-0.003-1.239-0.378-2.478-0.378c-2.83,0-4.659,1.519-4.659,3.871c0,2.244,1.472,3.811,3.579,3.811
		c1.734,0,2.921-0.823,3.612-1.514l0.014-0.014l0.006,0.019l0.233,0.788C150.723,20.25,150.804,20.42,151.122,20.42z
		 M150.313,17.345c-0.448,0.659-1.675,1.639-3.221,1.639c-1.209,0-2.055-0.857-2.055-2.083c0-1.448,1.079-2.347,2.814-2.347
		c1.223,0,2.071,0.242,2.458,0.469l0.006,0.003L150.313,17.345z"/>
	<path fill="#FFFFFF" d="M104.722,18.005c0.027,0.008,0.054,0.017,0.077,0.032C104.776,18.023,104.749,18.013,104.722,18.005z"/>
	<path fill="#FFFFFF" d="M131.707,29.418c-0.203,0.025-0.409,0.041-0.617,0.049C131.299,29.459,131.505,29.443,131.707,29.418z"/>
	<path fill="#FFFFFF" d="M126.189,23.225c0.008-0.008,0.016-0.016,0.024-0.022C126.205,23.209,126.197,23.217,126.189,23.225z"/>
	<path fill="#FFFFFF" d="M125.907,12.318c0.03-0.131,0.065-0.261,0.105-0.389C125.973,12.058,125.938,12.187,125.907,12.318z"/>
	<path fill="#FFFFFF" d="M126.212,11.391c0.054-0.124,0.112-0.246,0.175-0.364C126.324,11.145,126.266,11.267,126.212,11.391z"/>
	<path fill="#FFFFFF" d="M125.769,13.33c0.007-0.154,0.021-0.306,0.04-0.457C125.789,13.024,125.776,13.176,125.769,13.33z"/>
	<path fill="#FFFFFF" d="M26.594,19.998c0.087,0.261,0.175,0.446,0.507,0.446h0.555c0.296,0,0.566-0.271,0.566-0.567v-6.48
		c0-1.853-0.228-3.01-0.739-3.753c-0.559-0.812-1.505-1.191-2.979-1.191c-2.342,0-4.048,0.752-4.063,0.76
		c-0.221,0.099-0.458,0.264-0.327,0.656l0.234,0.73c0.099,0.301,0.3,0.408,0.569,0.299c0.387-0.15,1.785-0.641,3.499-0.641
		c0.291,0,0.534,0.033,0.744,0.094c0.03,0.009,0.061,0.019,0.089,0.028c0.09,0.032,0.174,0.067,0.25,0.112
		c0.016,0.009,0.029,0.021,0.044,0.032c0.075,0.048,0.147,0.101,0.209,0.164c0.479,0.485,0.566,1.391,0.549,2.695
		c-0.143-0.042-1.301-0.375-2.47-0.375c-2.844,0-4.682,1.529-4.682,3.894c0,2.257,1.481,3.834,3.602,3.834
		c1.731,0,2.919-0.816,3.615-1.507L26.594,19.998z M19.174,16.9c0-2.352,1.828-3.871,4.658-3.871c1.239,0,2.465,0.375,2.478,0.378
		l0.015,0.005l0-0.016c0.01-0.775-0.028-1.393-0.149-1.885c-0.011-0.045-0.024-0.088-0.037-0.13
		c-0.037-0.123-0.078-0.244-0.13-0.347c-0.023-0.046-0.055-0.083-0.082-0.125c-0.051-0.081-0.092-0.173-0.157-0.239
		c-0.294-0.298-0.724-0.437-1.353-0.437c-1.717,0-3.119,0.492-3.507,0.643c-0.066,0.027-0.128,0.04-0.185,0.04
		c-0.204,0-0.305-0.177-0.354-0.325l-0.234-0.73c-0.098-0.293-0.001-0.487,0.315-0.628c0.016-0.007,1.717-0.757,4.053-0.757
		c1.465,0,2.406,0.375,2.96,1.181c0.031,0.045,0.058,0.098,0.087,0.146c0.067,0.112,0.129,0.233,0.186,0.364
		c0.056,0.13,0.107,0.269,0.153,0.419c0.025,0.085,0.049,0.176,0.071,0.269c0.055,0.223,0.102,0.461,0.137,0.728
		c0.002,0.014,0.003,0.028,0.005,0.042c0.064,0.506,0.096,1.091,0.096,1.772v6.48c0,0.285-0.258,0.543-0.542,0.543h-0.555
		c-0.316,0-0.401-0.178-0.485-0.43l-0.233-0.788l-0.006-0.019l-0.014,0.014c-0.69,0.691-1.877,1.514-3.612,1.514
		C20.645,20.711,19.174,19.145,19.174,16.9z"/>
	<path fill="#FFFFFF" d="M17.917,18.995l-0.438-0.729c-0.061-0.098-0.13-0.175-0.215-0.229c-0.023-0.015-0.05-0.024-0.077-0.032
		c-0.026-0.007-0.042-0.03-0.074-0.03c-0.094,0-0.208,0.037-0.349,0.112c-0.31,0.167-1.365,0.641-2.126,0.641
		c-0.645,0-0.951-0.208-0.951-1.389v-6.819h3.375c0.312,0,0.565-0.254,0.565-0.566V9.311c0-0.328-0.238-0.566-0.565-0.566h-3.375
		V5.458c0-0.307-0.246-0.566-0.538-0.566l-0.934,0.059c-0.296,0-0.565,0.27-0.565,0.565v3.229h-1.478
		c-0.328,0-0.567,0.238-0.567,0.566v0.642c0,0.312,0.254,0.566,0.567,0.566h1.478v6.994c0,0.78,0.056,1.662,0.469,2.29
		c0.413,0.627,1.141,0.932,2.228,0.932c1.387,0,2.951-0.729,3.364-0.994C18.013,19.548,18.136,19.372,17.917,18.995z M17.116,18
		c0.169,0.002,0.25,0.129,0.343,0.278l0.438,0.729c0.189,0.325,0.14,0.499-0.2,0.714c-0.395,0.254-1.986,0.99-3.351,0.99
		c-1.078,0-1.8-0.301-2.208-0.921c-0.409-0.622-0.464-1.5-0.464-2.277v-7.018h-1.501c-0.3,0-0.543-0.243-0.543-0.542V9.311
		c0-0.315,0.229-0.543,0.543-0.543h1.501V5.516c0-0.284,0.258-0.542,0.542-0.542l0.934-0.059c0.279,0,0.514,0.249,0.514,0.543v3.31
		h3.398c0.314,0,0.542,0.228,0.542,0.543v0.642c0,0.299-0.243,0.542-0.542,0.542h-3.398v6.843c0,1.201,0.314,1.413,0.975,1.413
		c0.766,0,1.826-0.477,2.137-0.644c0.136-0.073,0.245-0.108,0.334-0.109c0.001,0,0.003,0,0.004,0C17.114,17.998,17.115,18,17.116,18
		z"/>
	<path fill="#FFFFFF" d="M64.472,18.278c0.176-0.294,0.095-0.621-0.207-0.833l-0.321-0.233c-0.159-0.115-0.293-0.192-0.434-0.192
		c-0.142,0-0.283,0.078-0.457,0.251c-0.072,0.068-0.143,0.14-0.216,0.212c-0.614,0.611-1.311,1.303-2.87,1.303
		c-2.154,0-3.841-1.841-3.841-4.191c0-1.126,0.396-2.171,1.117-2.94c0.72-0.77,1.698-1.193,2.753-1.193
		c1.01,0,2.011,0.457,2.678,1.223c0.039,0.034,0.075,0.07,0.11,0.104c0.08,0.079,0.156,0.138,0.238,0.176
		c0.015,0.007,0.031,0.012,0.047,0.016c0.026,0.008,0.048,0.027,0.077,0.027c0.114,0,0.237-0.066,0.389-0.207l0.555-0.466
		c0.271-0.213,0.322-0.572,0.118-0.834c-1.078-1.377-2.446-2.047-4.183-2.047c-1.539,0-3.073,0.653-4.207,1.792
		c-1.171,1.175-1.817,2.73-1.817,4.379c0,1.675,0.632,3.228,1.78,4.372c1.125,1.122,2.623,1.74,4.215,1.74
		C61.837,20.735,63.51,19.816,64.472,18.278z M60.025,8.476c1.729,0,3.092,0.667,4.165,2.038c0.197,0.252,0.148,0.597-0.114,0.802
		l-0.556,0.467c-0.146,0.135-0.268,0.201-0.374,0.201c-0.132,0-0.231-0.099-0.346-0.212c-0.035-0.035-0.071-0.071-0.109-0.104
		c-0.671-0.771-1.678-1.23-2.695-1.23c-1.062,0-2.045,0.427-2.771,1.201c-0.724,0.774-1.124,1.824-1.124,2.956
		c0,2.363,1.698,4.215,3.865,4.215c1.569,0,2.269-0.696,2.886-1.31c0.073-0.072,0.145-0.144,0.216-0.212
		c0.169-0.169,0.305-0.245,0.44-0.245c0.135,0,0.266,0.075,0.42,0.188l0.321,0.233c0.292,0.205,0.371,0.52,0.201,0.803
		c-0.958,1.531-2.623,2.445-4.456,2.445c-1.586,0-3.077-0.615-4.199-1.733c-1.144-1.14-1.773-2.687-1.773-4.355
		c0-1.642,0.643-3.191,1.81-4.363C56.964,9.126,58.492,8.476,60.025,8.476z"/>
	<path fill="#FFFFFF" d="M4.773,18.989c-1.468,0-2.724-1.008-2.738-1.019c-0.13-0.083-0.267-0.127-0.396-0.127
		c-0.025,0-0.044,0.013-0.068,0.017c-0.003,0-0.005,0.001-0.008,0.002c-0.138,0.021-0.259,0.083-0.332,0.2
		c-0.035,0.058-0.086,0.154-0.146,0.265c-0.09,0.168-0.192,0.358-0.264,0.466c-0.091,0.211,0.005,0.51,0.15,0.626
		c0.73,0.564,1.92,1.315,3.802,1.315c1.125,0,2.162-0.361,2.919-1.017c0.712-0.617,1.121-1.452,1.121-2.292
		c0-0.966-0.369-1.735-1.161-2.42c-0.731-0.633-1.761-1.125-2.669-1.56l-0.111-0.054c-1.141-0.556-2.042-0.995-2.042-1.92
		c0-0.559,0.434-1.156,1.652-1.156c1.064,0,2.317,0.692,2.33,0.7c0.063,0.035,0.141,0.045,0.219,0.054
		c0.002,0,0.003,0.001,0.006,0.001c0.02,0.002,0.036,0.014,0.057,0.014c0.041,0,0.073-0.023,0.112-0.03
		c0.041-0.007,0.081-0.018,0.119-0.032c0.056-0.021,0.107-0.042,0.155-0.077c0.027-0.02,0.046-0.048,0.07-0.072
		c0.042-0.042,0.095-0.073,0.124-0.127l0.234-0.467C8.08,9.961,7.998,9.54,7.727,9.36C7.667,9.318,7.579,9.278,7.508,9.236
		C7.488,9.224,7.465,9.212,7.444,9.2C7.28,9.107,7.1,9.021,6.894,8.935c-0.047-0.02-0.097-0.038-0.146-0.057
		C6.556,8.805,6.355,8.74,6.135,8.682C6.031,8.654,5.923,8.63,5.814,8.607C5.622,8.566,5.425,8.535,5.217,8.511
		C5.081,8.495,4.941,8.485,4.8,8.478C4.691,8.472,4.592,8.453,4.481,8.453c-2.728,0-3.719,1.822-3.719,3.047
		c0,1.975,1.721,2.984,3.333,3.775c1.731,0.866,2.562,1.327,2.562,2.325C6.658,18.431,5.901,18.989,4.773,18.989z M4.106,15.255
		c-1.606-0.788-3.32-1.793-3.32-3.755c0-1.216,0.984-3.024,3.695-3.024c1.41,0,2.594,0.466,3.233,0.903
		c0.261,0.174,0.339,0.581,0.171,0.89l-0.234,0.467c-0.109,0.201-0.324,0.325-0.56,0.325c-0.099,0-0.192-0.023-0.271-0.067
		c-0.012-0.007-1.27-0.703-2.34-0.703c-1.235,0-1.676,0.609-1.676,1.18c0,0.94,0.907,1.382,2.056,1.941l0.111,0.054
		c0.907,0.434,1.936,0.926,2.665,1.556c0.786,0.681,1.152,1.444,1.152,2.403c0,0.833-0.405,1.663-1.112,2.275
		c-0.753,0.652-1.785,1.011-2.904,1.011c-1.875,0-3.06-0.748-3.788-1.31c-0.138-0.111-0.23-0.396-0.144-0.598
		c0.071-0.106,0.173-0.297,0.263-0.466c0.057-0.107,0.111-0.207,0.146-0.265c0.083-0.131,0.224-0.207,0.389-0.207
		c0.125,0,0.257,0.043,0.382,0.123c0.013,0.01,1.275,1.024,2.751,1.024c1.142,0,1.909-0.568,1.909-1.413
		C6.682,16.588,5.845,16.125,4.106,15.255z"/>
	<path fill="#FFFFFF" d="M36.846,10.694c0.077,0.031,0.136,0.035,0.199,0.045c0.007,0.001,0.015,0.004,0.021,0.005
		c0.025,0.003,0.058,0.019,0.081,0.019c0.027,0,0.045-0.02,0.07-0.024c0.029-0.005,0.056-0.017,0.082-0.028
		c0.042-0.019,0.086-0.037,0.121-0.072c0.002-0.002,0.003-0.005,0.005-0.007c0.052-0.054,0.101-0.114,0.137-0.207l0.35-0.992
		c0.063-0.178,0.048-0.336-0.045-0.469c-0.325-0.461-1.513-0.511-2.009-0.511c-2.254,0-3.362,1.354-3.498,1.533l-0.227-0.823
		c-0.057-0.254-0.256-0.418-0.508-0.418h-0.554c-0.296,0-0.566,0.27-0.566,0.566v10.566c0,0.296,0.27,0.567,0.566,0.567h0.905
		c0.296,0,0.565-0.271,0.565-0.567v-7.79c0.045-0.075,1.026-1.626,3.17-1.626C36.163,10.461,36.604,10.586,36.846,10.694z
		 M32.518,19.877c0,0.285-0.258,0.543-0.542,0.543h-0.905c-0.284,0-0.543-0.259-0.543-0.543V9.311c0-0.284,0.259-0.543,0.543-0.543
		h0.554c0.024,0,0.045,0.008,0.069,0.011c0.064,0.009,0.124,0.029,0.177,0.06c0.037,0.021,0.071,0.047,0.102,0.078
		c0.05,0.051,0.088,0.115,0.114,0.188c0.007,0.021,0.019,0.039,0.024,0.062l0.233,0.846l0.007,0.024l0.014-0.021
		c0.011-0.015,1.105-1.542,3.494-1.542c0.492,0,1.671,0.049,1.99,0.501c0.089,0.126,0.104,0.277,0.042,0.447l-0.35,0.992
		c-0.084,0.217-0.212,0.323-0.393,0.323c-0.083,0-0.179-0.022-0.292-0.067c-0.244-0.108-0.689-0.235-1.143-0.235
		c-2.199,0-3.182,1.624-3.192,1.641L32.518,19.877z"/>
	<path fill="#FFFFFF" d="M47.193,18.995l-0.438-0.729c-0.061-0.098-0.13-0.176-0.215-0.229c-0.023-0.015-0.049-0.024-0.077-0.032
		c-0.026-0.007-0.043-0.03-0.074-0.03c-0.094,0-0.208,0.037-0.349,0.112c-0.31,0.167-1.364,0.641-2.125,0.641
		c-0.645,0-0.952-0.208-0.952-1.389v-6.819h3.375c0.312,0,0.566-0.254,0.566-0.566V9.311c0-0.328-0.238-0.566-0.566-0.566h-3.375
		V5.458c0-0.307-0.246-0.566-0.538-0.566l-0.934,0.059c-0.296,0-0.565,0.27-0.565,0.565v3.229h-1.478
		c-0.328,0-0.566,0.238-0.566,0.566v0.642c0,0.312,0.254,0.566,0.566,0.566h1.478v6.994c0,0.78,0.056,1.662,0.469,2.29
		c0.413,0.627,1.141,0.932,2.228,0.932c1.387,0,2.951-0.729,3.363-0.994C47.289,19.548,47.412,19.372,47.193,18.995z M46.392,18
		c0.169,0.002,0.251,0.129,0.344,0.278l0.438,0.729c0.188,0.325,0.14,0.499-0.201,0.714c-0.395,0.254-1.985,0.99-3.351,0.99
		c-1.078,0-1.8-0.301-2.208-0.921c-0.41-0.622-0.465-1.5-0.465-2.277v-7.018h-1.501c-0.299,0-0.543-0.243-0.543-0.542V9.311
		c0-0.315,0.228-0.543,0.543-0.543h1.501V5.516c0-0.284,0.258-0.542,0.542-0.542l0.934-0.059c0.279,0,0.514,0.249,0.514,0.543v3.31
		h3.398c0.314,0,0.542,0.228,0.542,0.543v0.642c0,0.299-0.243,0.542-0.542,0.542h-3.398v6.843c0,1.201,0.314,1.413,0.975,1.413
		c0.766,0,1.826-0.477,2.136-0.644c0.135-0.073,0.245-0.108,0.334-0.109c0.001,0,0.003,0,0.004,0C46.39,17.998,46.391,18,46.392,18z
		"/>
	<path fill="#FFFFFF" d="M108.098,20.444h0.905c0.296,0,0.567-0.271,0.567-0.567V9.311c0-0.296-0.271-0.566-0.567-0.566h-0.905
		c-0.296,0-0.565,0.27-0.565,0.566v10.566C107.532,20.173,107.802,20.444,108.098,20.444z M107.556,9.311
		c0-0.284,0.258-0.543,0.542-0.543h0.905c0.285,0,0.543,0.259,0.543,0.543v10.566c0,0.285-0.259,0.543-0.543,0.543h-0.905
		c-0.284,0-0.542-0.259-0.542-0.543V9.311z"/>
	<path fill="#FFFFFF" d="M84.647,19.017c0.019-0.131-0.06-0.245-0.182-0.402c-0.086-0.115-0.166-0.223-0.244-0.33
		c-0.082-0.111-0.163-0.223-0.252-0.341c-0.096-0.132-0.185-0.191-0.29-0.191c-0.121,0-0.255,0.079-0.44,0.187
		c-0.032,0.019-0.066,0.039-0.102,0.059c-0.479,0.292-0.953,0.507-1.427,0.652c-0.019,0.006-0.037,0.009-0.056,0.015
		c-0.225,0.066-0.449,0.119-0.675,0.153c-0.006,0.001-0.013,0-0.02,0.001c-0.235,0.034-0.47,0.053-0.708,0.053
		c-0.981,0-1.933-0.412-2.681-1.16c-0.715-0.715-1.158-1.666-1.218-2.611h8.394c0.277,0,0.508-0.218,0.536-0.506
		c0.031-0.212,0.06-0.588,0.06-0.79c0-1.489-0.531-2.849-1.496-3.828c-0.968-0.983-2.317-1.525-3.799-1.525
		c-1.686,0-3.136,0.634-4.193,1.833c-0.051,0.058-0.087,0.129-0.136,0.189c-0.137,0.169-0.265,0.346-0.382,0.53
		c-0.089,0.14-0.171,0.282-0.249,0.429c-0.097,0.183-0.184,0.372-0.262,0.565c-0.067,0.167-0.127,0.336-0.182,0.51
		c-0.061,0.197-0.113,0.397-0.157,0.602c-0.038,0.181-0.069,0.364-0.093,0.55c-0.028,0.214-0.046,0.431-0.054,0.651
		c-0.004,0.095-0.023,0.186-0.023,0.281c0,0.097,0.02,0.188,0.023,0.283c0.008,0.226,0.026,0.449,0.055,0.668
		c0.023,0.18,0.053,0.356,0.089,0.531c0.045,0.219,0.101,0.434,0.166,0.644c0.05,0.161,0.105,0.317,0.167,0.471
		c0.083,0.207,0.175,0.408,0.278,0.602c0.074,0.14,0.152,0.274,0.236,0.407c0.12,0.188,0.25,0.367,0.389,0.539
		c0.048,0.06,0.084,0.13,0.135,0.187c1.052,1.184,2.502,1.81,4.193,1.81c1.917,0,3.513-0.725,4.297-1.344
		C84.535,19.252,84.631,19.133,84.647,19.017z M75.873,10.3c1.054-1.193,2.498-1.824,4.176-1.824c1.475,0,2.818,0.539,3.782,1.518
		c0.96,0.975,1.489,2.329,1.489,3.812c0,0.196-0.028,0.579-0.059,0.787c-0.027,0.277-0.248,0.485-0.514,0.485H76.33l0,0.012
		c0.057,0.955,0.503,1.917,1.225,2.639c0.753,0.753,1.711,1.167,2.698,1.167c0.977,0,1.924-0.287,2.896-0.878
		c0.035-0.02,0.069-0.04,0.101-0.059c0.18-0.105,0.31-0.18,0.422-0.182c0.002,0,0.005-0.002,0.007-0.002
		c0.004,0,0.008,0.004,0.013,0.004c0.091,0.005,0.171,0.058,0.259,0.178c0.089,0.119,0.17,0.229,0.252,0.34
		c0.079,0.108,0.158,0.216,0.244,0.331c0.119,0.153,0.195,0.262,0.177,0.385c-0.015,0.11-0.108,0.224-0.292,0.359
		c-0.781,0.618-2.372,1.339-4.283,1.339c-1.685,0-3.129-0.623-4.176-1.802c-0.988-1.112-1.533-2.645-1.533-4.315
		C74.34,12.945,74.884,11.42,75.873,10.3z"/>
	<path fill="#FFFFFF" d="M121.642,20.444h0.934c0.296,0,0.566-0.271,0.566-0.567v-6.159c0-1.632-0.335-2.901-0.995-3.772
		c-0.751-0.991-1.942-1.494-3.541-1.494c-2.285,0-3.915,1.391-4.08,1.538l-0.258-0.887c-0.06-0.241-0.216-0.358-0.478-0.358h-0.555
		c-0.296,0-0.566,0.27-0.566,0.566v10.566c0,0.296,0.27,0.567,0.566,0.567h0.905c0.296,0,0.566-0.271,0.566-0.567v-7.789
		c0.081-0.083,1.641-1.656,3.753-1.656c1.687,0,2.615,1.167,2.615,3.286v6.159C121.075,20.173,121.346,20.444,121.642,20.444z
		 M114.683,12.08v7.797c0,0.285-0.259,0.543-0.543,0.543h-0.905c-0.284,0-0.542-0.259-0.542-0.543V9.311
		c0-0.284,0.258-0.543,0.542-0.543h0.555c0.253,0,0.397,0.108,0.456,0.341l0.263,0.905l0.005,0.018l0.014-0.013
		c0.017-0.015,1.688-1.543,4.078-1.543c1.591,0,2.776,0.499,3.522,1.484c0.657,0.867,0.99,2.131,0.99,3.758v6.159
		c0,0.285-0.258,0.543-0.542,0.543h-0.934c-0.285,0-0.543-0.259-0.543-0.543v-6.159c0-2.134-0.937-3.31-2.639-3.31
		c-2.169,0-3.758,1.651-3.773,1.667L114.683,12.08z"/>
	<path fill="#FFFFFF" d="M162.019,18.995l-0.438-0.729c-0.062-0.098-0.131-0.175-0.216-0.229c-0.023-0.015-0.05-0.024-0.077-0.032
		c-0.026-0.007-0.043-0.03-0.074-0.03c-0.094,0-0.208,0.037-0.35,0.112c-0.309,0.167-1.36,0.641-2.124,0.641
		c-0.646,0-0.952-0.208-0.952-1.389v-6.819h3.374c0.312,0,0.566-0.254,0.566-0.566V9.311c0-0.328-0.238-0.566-0.566-0.566h-3.374
		V5.458c0-0.307-0.246-0.566-0.538-0.566l-0.934,0.059c-0.296,0-0.566,0.27-0.566,0.565v3.229h-1.477
		c-0.328,0-0.566,0.238-0.566,0.566v0.642c0,0.312,0.254,0.566,0.566,0.566h1.477v6.994c0,0.78,0.056,1.662,0.47,2.29
		c0.413,0.627,1.142,0.932,2.229,0.932c1.372,0,2.967-0.739,3.361-0.994C162.114,19.548,162.238,19.373,162.019,18.995z M161.217,18
		c0.169,0.002,0.252,0.129,0.345,0.278l0.438,0.729c0.188,0.325,0.14,0.499-0.201,0.714c-0.395,0.254-1.982,0.99-3.35,0.99
		c-1.078,0-1.801-0.301-2.209-0.921c-0.411-0.623-0.466-1.5-0.466-2.277v-7.018h-1.5c-0.299,0-0.543-0.243-0.543-0.542V9.311
		c0-0.315,0.228-0.543,0.543-0.543h1.5V5.516c0-0.284,0.259-0.542,0.544-0.542l0.934-0.059c0.278,0,0.514,0.249,0.514,0.543v3.31
		h3.397c0.314,0,0.543,0.228,0.543,0.543v0.642c0,0.299-0.243,0.542-0.543,0.542h-3.397v6.843c0,1.201,0.314,1.413,0.976,1.413
		c0.768,0,1.825-0.477,2.136-0.644c0.135-0.073,0.245-0.108,0.334-0.109c0.001,0,0.003,0,0.004,0S161.216,18,161.217,18z"/>
	<path fill="#FFFFFF" d="M109.919,1.984c0-0.792-0.621-1.413-1.413-1.413c-0.776,0-1.384,0.621-1.384,1.413
		c0,0.763,0.621,1.383,1.384,1.383C109.299,3.368,109.919,2.76,109.919,1.984z M108.507,0.595c0.779,0,1.389,0.61,1.389,1.39
		c0,0.763-0.61,1.36-1.389,1.36c-0.75,0-1.36-0.61-1.36-1.36C107.146,1.205,107.744,0.595,108.507,0.595z"/>
	<path fill="#FFFFFF" d="M95.285,20.444c0.296,0,0.566-0.271,0.566-0.567v-6.48c0-1.853-0.228-3.01-0.739-3.753
		c-0.559-0.812-1.505-1.191-2.979-1.191c-2.341,0-4.047,0.752-4.062,0.76c-0.221,0.099-0.458,0.263-0.327,0.656l0.233,0.73
		c0.1,0.301,0.302,0.408,0.57,0.299c0.387-0.15,1.782-0.641,3.499-0.641c0.291,0,0.535,0.033,0.746,0.095
		c0.029,0.009,0.057,0.018,0.085,0.027c0.09,0.032,0.176,0.068,0.253,0.113c0.014,0.008,0.026,0.019,0.04,0.028
		c0.077,0.05,0.149,0.103,0.213,0.167c0.479,0.485,0.566,1.391,0.549,2.694c-0.143-0.042-1.301-0.375-2.47-0.375
		c-2.844,0-4.682,1.529-4.682,3.894c0,2.257,1.481,3.834,3.602,3.834c1.73,0,2.918-0.816,3.614-1.507l0.229,0.77
		c0.086,0.261,0.173,0.446,0.507,0.446H95.285z M94.005,19.184l-0.014,0.014c-0.69,0.691-1.877,1.514-3.611,1.514
		c-2.107,0-3.578-1.567-3.578-3.811c0-2.352,1.828-3.871,4.658-3.871c1.239,0,2.465,0.375,2.478,0.378l0.015,0.005l0-0.016
		c0.01-0.775-0.028-1.393-0.15-1.886c-0.011-0.045-0.024-0.087-0.037-0.129c-0.037-0.124-0.078-0.244-0.13-0.347
		c-0.023-0.046-0.055-0.083-0.082-0.125c-0.051-0.081-0.092-0.174-0.157-0.24c-0.294-0.298-0.724-0.437-1.353-0.437
		c-1.72,0-3.119,0.492-3.507,0.643c-0.258,0.104-0.443,0.005-0.54-0.285l-0.233-0.73c-0.098-0.293-0.001-0.487,0.315-0.628
		c0.016-0.007,1.716-0.757,4.052-0.757c1.466,0,2.406,0.375,2.96,1.181c0.031,0.045,0.058,0.098,0.087,0.146
		c0.067,0.113,0.13,0.235,0.187,0.366c0.056,0.13,0.106,0.268,0.151,0.417c0.026,0.087,0.05,0.179,0.073,0.273
		c0.054,0.222,0.101,0.459,0.135,0.724c0.002,0.015,0.004,0.031,0.006,0.046c0.064,0.506,0.095,1.09,0.095,1.77v6.48
		c0,0.285-0.258,0.543-0.542,0.543H94.73c-0.318,0-0.402-0.178-0.485-0.43l-0.234-0.788L94.005,19.184z"/>
	<path fill="#FFFFFF" d="M151.122,20.444h0.554c0.296,0,0.567-0.271,0.567-0.567v-6.48c0-1.853-0.228-3.01-0.739-3.753
		c-0.559-0.812-1.505-1.191-2.979-1.191c-2.341,0-4.047,0.752-4.062,0.76c-0.221,0.099-0.458,0.263-0.328,0.656l0.234,0.73
		c0.1,0.301,0.301,0.408,0.57,0.299c0.387-0.15,1.782-0.641,3.498-0.641c0.291,0,0.535,0.033,0.746,0.095
		c0.029,0.009,0.058,0.018,0.086,0.028c0.09,0.031,0.176,0.067,0.252,0.112c0.016,0.009,0.029,0.021,0.044,0.031
		c0.075,0.049,0.147,0.101,0.209,0.164c0.479,0.486,0.565,1.392,0.548,2.694c-0.143-0.042-1.301-0.375-2.47-0.375
		c-2.844,0-4.682,1.529-4.682,3.894c0,2.257,1.481,3.834,3.602,3.834c1.731,0,2.919-0.816,3.615-1.507l0.228,0.77
		C150.702,20.259,150.789,20.444,151.122,20.444z M150.397,19.184l-0.014,0.014c-0.69,0.691-1.877,1.514-3.612,1.514
		c-2.107,0-3.579-1.567-3.579-3.811c0-2.352,1.829-3.871,4.659-3.871c1.239,0,2.465,0.375,2.478,0.378l0.015,0.005l0-0.016
		c0.011-0.775-0.027-1.394-0.149-1.886c-0.011-0.044-0.024-0.086-0.036-0.128c-0.037-0.124-0.078-0.244-0.13-0.347
		c-0.024-0.047-0.056-0.084-0.083-0.126c-0.051-0.08-0.092-0.172-0.156-0.238c-0.294-0.298-0.724-0.438-1.354-0.438
		c-1.719,0-3.118,0.492-3.506,0.643c-0.258,0.104-0.443,0.005-0.54-0.285l-0.234-0.73c-0.097-0.293,0-0.487,0.316-0.628
		c0.016-0.007,1.716-0.757,4.052-0.757c1.466,0,2.406,0.375,2.96,1.181c0.031,0.045,0.058,0.098,0.087,0.146
		c0.067,0.113,0.13,0.235,0.186,0.366c0.056,0.13,0.107,0.268,0.152,0.417c0.026,0.087,0.05,0.179,0.073,0.273
		c0.054,0.222,0.101,0.459,0.135,0.724c0.002,0.015,0.004,0.031,0.006,0.046c0.064,0.506,0.095,1.09,0.095,1.77v6.48
		c0,0.285-0.259,0.543-0.543,0.543h-0.554c-0.318,0-0.399-0.17-0.486-0.43l-0.233-0.788L150.397,19.184z"/>
	<path fill="#FFFFFF" d="M105.452,18.995l-0.438-0.729c-0.061-0.098-0.13-0.175-0.215-0.229c-0.023-0.015-0.05-0.024-0.077-0.032
		c-0.026-0.007-0.042-0.03-0.074-0.03c-0.094,0-0.208,0.037-0.35,0.112c-0.31,0.167-1.364,0.641-2.125,0.641
		c-0.645,0-0.951-0.208-0.951-1.389v-6.819h3.374c0.312,0,0.566-0.254,0.566-0.566V9.311c0-0.328-0.238-0.566-0.566-0.566h-3.374
		V5.458c0-0.307-0.246-0.566-0.538-0.566L99.75,4.951c-0.296,0-0.566,0.27-0.566,0.565v3.229h-1.477
		c-0.328,0-0.566,0.238-0.566,0.566v0.642c0,0.312,0.254,0.566,0.566,0.566h1.477v6.994c0,0.78,0.056,1.662,0.469,2.29
		c0.413,0.627,1.141,0.932,2.228,0.932c1.372,0,2.967-0.739,3.363-0.994C105.548,19.548,105.671,19.372,105.452,18.995z M104.651,18
		c0.168,0.002,0.25,0.129,0.343,0.278l0.438,0.729c0.189,0.325,0.14,0.499-0.201,0.714c-0.394,0.254-1.984,0.99-3.351,0.99
		c-1.078,0-1.8-0.301-2.208-0.921c-0.41-0.622-0.465-1.5-0.465-2.277v-7.018h-1.5c-0.299,0-0.542-0.243-0.542-0.542V9.311
		c0-0.315,0.228-0.543,0.542-0.543h1.5V5.516c0-0.284,0.258-0.542,0.543-0.542l0.934-0.059c0.279,0,0.514,0.249,0.514,0.543v3.31
		h3.397c0.314,0,0.542,0.228,0.542,0.543v0.642c0,0.299-0.243,0.542-0.542,0.542h-3.397v6.843c0,1.201,0.314,1.413,0.975,1.413
		c0.766,0,1.826-0.477,2.136-0.644c0.136-0.073,0.245-0.108,0.335-0.109c0.001,0,0.003,0,0.004,0
		C104.649,17.998,104.65,18,104.651,18z"/>
	<path fill="#FFFFFF" d="M26.293,17.345l0.002-2.319l-0.006-0.003c-0.387-0.227-1.235-0.469-2.458-0.469
		c-1.735,0-2.814,0.899-2.814,2.347c0,1.227,0.845,2.083,2.055,2.083C24.618,18.984,25.845,18.003,26.293,17.345z M23.832,14.577
		c1.212,0,2.054,0.238,2.44,0.462v2.296c-0.446,0.654-1.665,1.625-3.199,1.625c-1.196,0-2.031-0.847-2.031-2.06
		C21.042,15.467,22.111,14.577,23.832,14.577z"/>
	<path fill="#FFFFFF" d="M83.33,13.456c-0.092-1.777-1.564-3.222-3.281-3.222c-1.928,0-3.479,1.355-3.689,3.221l-0.001,0.013h6.972
		L83.33,13.456z M76.384,13.444c0.214-1.848,1.754-3.188,3.665-3.188c1.701,0,3.159,1.429,3.257,3.188H76.384z"/>
	<path fill="#FFFFFF" d="M73.229,10.711c0.042-0.019,0.086-0.038,0.121-0.073c0.002-0.002,0.003-0.005,0.004-0.007
		c0.052-0.054,0.102-0.114,0.137-0.207l0.35-0.992c0.063-0.178,0.048-0.336-0.045-0.469c-0.325-0.461-1.513-0.511-2.009-0.511
		c-2.254,0-3.361,1.354-3.497,1.533l-0.228-0.823c-0.056-0.254-0.255-0.418-0.507-0.418h-0.555c-0.296,0-0.566,0.27-0.566,0.566
		v10.566c0,0.296,0.27,0.567,0.566,0.567h0.905c0.296,0,0.567-0.271,0.567-0.567v-7.79c0.045-0.075,1.025-1.626,3.169-1.626
		c0.45,0,0.892,0.125,1.134,0.233c0.077,0.031,0.136,0.035,0.198,0.045c0.007,0.001,0.015,0.004,0.022,0.005
		c0.025,0.003,0.058,0.019,0.081,0.019c0.027,0,0.045-0.02,0.07-0.024C73.177,10.733,73.203,10.722,73.229,10.711z M68.449,19.877
		c0,0.285-0.259,0.543-0.543,0.543h-0.905c-0.284,0-0.542-0.259-0.542-0.543V9.311c0-0.284,0.258-0.543,0.542-0.543h0.555
		c0.024,0,0.045,0.008,0.068,0.011c0.065,0.009,0.125,0.029,0.178,0.06c0.037,0.021,0.07,0.046,0.1,0.076
		c0.051,0.052,0.089,0.116,0.115,0.191c0.007,0.021,0.019,0.039,0.024,0.061l0.234,0.846l0.007,0.024l0.014-0.021
		c0.011-0.015,1.104-1.542,3.493-1.542c0.492,0,1.671,0.049,1.99,0.5c0.089,0.126,0.104,0.277,0.042,0.448l-0.35,0.992
		c-0.084,0.217-0.212,0.323-0.393,0.323c-0.083,0-0.179-0.022-0.292-0.067c-0.244-0.108-0.69-0.235-1.144-0.235
		c-2.199,0-3.181,1.624-3.191,1.641L68.449,19.877z"/>
	<path fill="#FFFFFF" d="M147.852,14.553c-1.735,0-2.814,0.899-2.814,2.347c0,1.227,0.845,2.083,2.055,2.083
		c1.545,0,2.772-0.98,3.221-1.639l0.002-2.319l-0.006-0.003C149.923,14.795,149.075,14.553,147.852,14.553z M150.292,17.335
		c-0.446,0.654-1.665,1.625-3.199,1.625c-1.196,0-2.031-0.847-2.031-2.06c0-1.434,1.069-2.324,2.791-2.324
		c1.212,0,2.054,0.238,2.44,0.462V17.335z"/>
	<path fill="#FFFFFF" d="M130.719,16.824c0.859,0,1.594-0.317,2.125-0.916c0.527-0.595,0.806-1.412,0.806-2.365
		c0-0.952-0.279-1.77-0.806-2.364c-0.531-0.6-1.266-0.917-2.125-0.917c-0.867,0-1.651,0.326-2.208,0.916
		c-0.56,0.594-0.868,1.434-0.868,2.365c0,0.932,0.309,1.772,0.868,2.365C129.067,16.499,129.852,16.824,130.719,16.824z
		 M130.719,10.286c0.852,0,1.581,0.314,2.107,0.908c0.523,0.591,0.8,1.403,0.8,2.349c0,0.947-0.276,1.759-0.8,2.35
		c-0.526,0.594-1.255,0.908-2.107,0.908c-0.861,0-1.639-0.322-2.191-0.908c-0.556-0.589-0.862-1.423-0.862-2.349
		c0-0.925,0.306-1.759,0.862-2.349C129.08,10.608,129.858,10.286,130.719,10.286z"/>
	<path fill="#FFFFFF" d="M130.748,27.595c1.887,0,3.923-1.065,3.923-2.785c0-0.195-0.063-1.908-2.23-1.908h-3.24l-0.003,0.001
		c-0.02,0.005-1.963,0.546-1.963,2.258C127.234,26.548,128.745,27.595,130.748,27.595z M129.202,22.925h3.239
		c2.146,0,2.207,1.691,2.207,1.885c0,1.706-2.024,2.762-3.9,2.762c-1.99,0-3.49-1.036-3.49-2.411
		C127.258,23.487,129.14,22.943,129.202,22.925z"/>
	<path fill="#FFFFFF" d="M134.935,28.165c0.062-0.047,0.135-0.081,0.195-0.131c1.081-0.89,1.701-2.085,1.701-3.281
		c0-1.199-0.441-2.178-1.274-2.83c-0.768-0.601-1.846-0.919-3.116-0.919h-4.203c-1.101,0-1.593-0.712-1.593-1.418
		c0-1.104,1.174-1.691,1.271-1.738c0.081,0.062,1,0.729,2.774,0.729c1.436,0,2.676-0.515,3.587-1.489
		c0.856-0.915,1.328-2.153,1.328-3.486c0-2.129-1.134-3.129-1.299-3.263l1.551-0.316c0.205-0.029,0.331-0.286,0.331-0.507V9.019
		c0-0.328-0.238-0.566-0.565-0.566h-4.933c-0.089,0-0.17,0.021-0.258,0.024c-0.179,0.009-0.354,0.025-0.527,0.051
		c-0.174,0.025-0.344,0.06-0.511,0.102c-0.156,0.04-0.308,0.087-0.458,0.141c-0.165,0.061-0.325,0.129-0.48,0.208
		c-0.142,0.071-0.281,0.149-0.415,0.235c-0.132,0.084-0.26,0.174-0.384,0.273c-0.147,0.117-0.288,0.243-0.422,0.379
		c-0.05,0.051-0.11,0.088-0.158,0.142c-0.054,0.06-0.093,0.132-0.145,0.195c-0.098,0.12-0.188,0.243-0.275,0.372
		c-0.098,0.146-0.188,0.296-0.27,0.453c-0.063,0.119-0.121,0.24-0.175,0.364c-0.076,0.175-0.142,0.354-0.199,0.539
		c-0.04,0.128-0.075,0.257-0.105,0.389c-0.042,0.183-0.075,0.367-0.099,0.555c-0.02,0.15-0.033,0.303-0.04,0.457
		c-0.004,0.091-0.023,0.179-0.023,0.271c0,1.624,0.838,2.794,0.929,2.916c-0.159,0.098-1.951,1.248-1.951,3.36
		c0,1.626,1.146,2.514,2.131,2.782v0.071l-0.023,0.015c-0.241,0.145-0.439,0.3-0.618,0.458c-0.008,0.007-0.016,0.015-0.024,0.022
		c-0.823,0.741-1.028,1.592-1.028,2.228c0,1.045,0.476,2.02,1.34,2.745c1.008,0.847,2.487,1.294,4.277,1.294
		c0.106,0,0.207-0.021,0.312-0.024c0.208-0.008,0.414-0.023,0.617-0.049c0.186-0.021,0.367-0.05,0.547-0.085
		c0.217-0.042,0.429-0.095,0.637-0.155c0.161-0.048,0.318-0.099,0.474-0.156c0.208-0.078,0.409-0.166,0.604-0.263
		c0.145-0.071,0.285-0.146,0.422-0.229C134.58,28.418,134.761,28.296,134.935,28.165z M126.843,22.764l0.029-0.018l0.006-0.003
		v-0.103l-0.009-0.002c-0.979-0.263-2.122-1.144-2.122-2.762c0-2.186,1.931-3.335,1.95-3.347l0.011-0.006l-0.008-0.011
		c-0.01-0.012-0.932-1.212-0.932-2.912c0-1.362,0.47-2.633,1.325-3.578c0.915-1.012,2.158-1.547,3.597-1.547h4.933
		c0.314,0,0.542,0.228,0.542,0.543v0.496c0,0.212-0.119,0.458-0.312,0.485l-1.576,0.321l-0.025,0.005l0.021,0.015
		c0.013,0.01,1.309,0.988,1.309,3.26c0,1.327-0.469,2.559-1.321,3.47c-0.907,0.969-2.142,1.481-3.571,1.481
		c-1.842,0-2.757-0.72-2.766-0.727l-0.006-0.004l-0.006,0.003c-0.013,0.006-1.291,0.6-1.291,1.761c0,0.718,0.5,1.442,1.617,1.442
		h4.203c1.266,0,2.338,0.316,3.102,0.914c0.828,0.648,1.265,1.621,1.265,2.812c0,1.189-0.617,2.379-1.692,3.263
		c-1.139,0.938-2.68,1.453-4.338,1.453c-1.784,0-3.258-0.445-4.262-1.289c-0.858-0.721-1.331-1.689-1.331-2.727
		c0-0.274,0.036-0.535,0.102-0.783c0.004-0.015,0.009-0.029,0.013-0.044C125.513,23.878,126.027,23.253,126.843,22.764z"/>
	<path fill="#FFFFFF" d="M91.461,14.553c-1.735,0-2.814,0.899-2.814,2.347c0,1.227,0.845,2.083,2.055,2.083
		c1.545,0,2.772-0.98,3.221-1.639l0.002-2.319l-0.006-0.003C93.531,14.795,92.681,14.553,91.461,14.553z M93.901,17.335
		c-0.447,0.655-1.666,1.625-3.2,1.625c-1.196,0-2.031-0.847-2.031-2.06c0-1.434,1.069-2.324,2.791-2.324
		c1.21,0,2.053,0.238,2.44,0.462V17.335z"/>
	<path fill="#FFFFFF" d="M81.18,41.647c0-1.003-0.594-1.791-1.604-1.791c-0.954,0-1.645,0.78-1.645,1.75
		c0,1.044,0.711,1.756,1.701,1.756c0.546,0,0.996-0.179,1.327-0.511l-0.248-0.34c-0.263,0.271-0.65,0.423-1.031,0.423
		c-0.719,0-1.162-0.526-1.204-1.156h2.704V41.647z M78.476,41.399c0.028-0.514,0.381-1.115,1.093-1.115
		c0.761,0,1.094,0.616,1.101,1.115H78.476z"/>
	<polygon fill="#FFFFFF" points="95.836,42.325 96.389,41.779 97.592,43.279 98.256,43.279 96.77,41.454 98.25,39.939 
		97.592,39.939 95.836,41.715 95.836,38.667 95.318,38.667 95.318,43.279 95.836,43.279 	"/>
	<path fill="#FFFFFF" d="M77.086,43.279v-4.612h-0.518v1.776c-0.27-0.366-0.678-0.587-1.128-0.587c-0.878,0-1.486,0.69-1.486,1.756
		c0,1.087,0.615,1.75,1.486,1.75c0.471,0,0.879-0.242,1.128-0.58v0.497H77.086z M75.565,42.899c-0.671,0-1.073-0.546-1.073-1.286
		c0-0.741,0.402-1.294,1.073-1.294c0.415,0,0.816,0.249,1.003,0.54v1.515C76.381,42.664,75.98,42.899,75.565,42.899z"/>
	<path fill="#FFFFFF" d="M88.353,43.279v-2.414c0-0.67-0.324-1.009-0.933-1.009c-0.484,0-0.934,0.317-1.121,0.622
		c-0.096-0.347-0.386-0.622-0.898-0.622c-0.491,0-0.941,0.352-1.08,0.566v-0.483h-0.518v3.34h0.518v-2.441
		c0.18-0.27,0.54-0.519,0.879-0.519c0.436,0,0.616,0.27,0.616,0.69v2.27h0.518v-2.448c0.173-0.263,0.54-0.512,0.886-0.512
		c0.429,0,0.616,0.27,0.616,0.69v2.27H88.353z"/>
	<path fill="#FFFFFF" d="M91.997,43.279v-2.295c0-0.811-0.587-1.128-1.293-1.128c-0.546,0-0.975,0.18-1.334,0.553l0.241,0.36
		c0.298-0.319,0.623-0.465,1.024-0.465c0.485,0,0.844,0.257,0.844,0.706v0.602c-0.269-0.312-0.65-0.455-1.107-0.455
		c-0.567,0-1.168,0.352-1.168,1.098c0,0.728,0.601,1.107,1.168,1.107c0.45,0,0.831-0.159,1.107-0.463v0.38H91.997z M90.559,42.989
		c-0.484,0-0.823-0.304-0.823-0.727c0-0.429,0.339-0.733,0.823-0.733c0.367,0,0.72,0.139,0.92,0.415v0.63
		C91.279,42.851,90.926,42.989,90.559,42.989z"/>
	<path fill="#FFFFFF" d="M63.365,43.279v-2.295c0-0.811-0.587-1.128-1.293-1.128c-0.547,0-0.976,0.18-1.335,0.553l0.242,0.36
		c0.297-0.319,0.622-0.465,1.024-0.465c0.484,0,0.844,0.257,0.844,0.706v0.602c-0.27-0.312-0.651-0.455-1.107-0.455
		c-0.568,0-1.169,0.352-1.169,1.098c0,0.728,0.601,1.107,1.169,1.107c0.449,0,0.83-0.159,1.107-0.463v0.38H63.365z M61.926,42.989
		c-0.484,0-0.823-0.304-0.823-0.727c0-0.429,0.339-0.733,0.823-0.733c0.367,0,0.72,0.139,0.921,0.415v0.63
		C62.646,42.851,62.293,42.989,61.926,42.989z"/>
	<path fill="#FFFFFF" d="M3.941,40.976c0-1.308-0.933-2.31-2.365-2.31H0v4.612h1.576C3.008,43.279,3.941,42.291,3.941,40.976z
		 M0.573,39.177h1.003c1.142,0,1.771,0.803,1.771,1.799c0,0.989-0.65,1.792-1.771,1.792H0.573V39.177z"/>
	<path fill="#FFFFFF" d="M6.943,43.362c1.363,0,2.289-1.023,2.289-2.386S8.306,38.59,6.943,38.59c-1.37,0-2.289,1.023-2.289,2.386
		S5.573,43.362,6.943,43.362z M6.943,39.102c1.031,0,1.695,0.795,1.695,1.874c0,1.072-0.664,1.875-1.695,1.875
		c-1.038,0-1.695-0.803-1.695-1.875C5.249,39.897,5.905,39.102,6.943,39.102z"/>
	<path fill="#FFFFFF" d="M26.675,41.446h0.92l1.176,1.833h0.677l-1.244-1.881c0.629-0.056,1.196-0.512,1.196-1.342
		c0-0.852-0.601-1.39-1.445-1.39h-1.854v4.612h0.574V41.446z M26.675,39.177h1.21c0.547,0,0.921,0.359,0.921,0.879
		c0,0.519-0.374,0.886-0.921,0.886h-1.21V39.177z"/>
	<path fill="#FFFFFF" d="M18.071,43.362c1.363,0,2.289-1.023,2.289-2.386s-0.926-2.386-2.289-2.386c-1.37,0-2.289,1.023-2.289,2.386
		S16.701,43.362,18.071,43.362z M18.071,39.102c1.031,0,1.695,0.795,1.695,1.874c0,1.072-0.664,1.875-1.695,1.875
		c-1.037,0-1.695-0.803-1.695-1.875C16.376,39.897,17.034,39.102,18.071,39.102z"/>
	<polygon fill="#FFFFFF" points="13.832,43.279 13.832,41.329 15.643,38.667 14.972,38.667 13.542,40.81 12.11,38.667 
		11.439,38.667 13.258,41.329 13.258,43.279 	"/>
	<path fill="#FFFFFF" d="M196.183,43.362c0.878,0,1.485-0.677,1.485-1.756c0-1.087-0.607-1.75-1.485-1.75
		c-0.472,0-0.887,0.242-1.128,0.58v-0.497h-0.519v4.612h0.519v-1.776C195.324,43.148,195.726,43.362,196.183,43.362z
		 M195.055,40.852c0.18-0.291,0.588-0.533,0.996-0.533c0.671,0,1.072,0.546,1.072,1.287c0,0.739-0.401,1.293-1.072,1.293
		c-0.408,0-0.816-0.249-0.996-0.539V40.852z"/>
	<path fill="#FFFFFF" d="M21.26,38.667v2.822c0,1.134,0.629,1.873,1.881,1.873s1.881-0.732,1.881-1.88v-2.815h-0.574v2.809
		c0,0.844-0.456,1.376-1.307,1.376c-0.851,0-1.308-0.532-1.308-1.376v-2.809H21.26z"/>
	<path fill="#FFFFFF" d="M190.726,39.939v2.358c0,0.727,0.365,1.064,1.064,1.064c0.498,0,0.935-0.262,1.19-0.552v0.469h0.518v-3.34
		h-0.518v2.456c-0.194,0.269-0.581,0.504-0.99,0.504c-0.449,0-0.747-0.172-0.747-0.761v-2.199H190.726z"/>
	<path fill="#FFFFFF" d="M184.487,39.939v3.34h0.518v-2.365c0.152-0.27,0.589-0.533,0.906-0.533c0.083,0,0.146,0.007,0.207,0.021
		V39.87c-0.456,0-0.843,0.256-1.113,0.608v-0.539H184.487z"/>
	<path fill="#FFFFFF" d="M189.881,41.606c0-0.97-0.636-1.75-1.652-1.75c-1.018,0-1.652,0.78-1.652,1.75
		c0,0.968,0.635,1.756,1.652,1.756C189.245,43.362,189.881,42.574,189.881,41.606z M187.114,41.606c0-0.679,0.401-1.287,1.114-1.287
		s1.106,0.608,1.106,1.287c0,0.685-0.394,1.293-1.106,1.293S187.114,42.291,187.114,41.606z"/>
	<path fill="#FFFFFF" d="M56.836,42.941c-0.457,0-0.878-0.223-1.099-0.479l-0.27,0.374c0.339,0.359,0.802,0.525,1.348,0.525
		c0.865,0,1.314-0.449,1.314-1.009c0-1.301-2.068-0.816-2.068-1.551c0-0.297,0.284-0.525,0.741-0.525
		c0.429,0,0.795,0.18,0.996,0.423l0.241-0.36c-0.269-0.27-0.67-0.483-1.237-0.483c-0.796,0-1.245,0.441-1.245,0.961
		c0,1.237,2.068,0.74,2.068,1.549C57.625,42.699,57.348,42.941,56.836,42.941z"/>
	<polygon fill="#FFFFFF" points="33.805,43.279 33.805,39.177 35.271,39.177 35.271,38.667 31.773,38.667 31.773,39.177 
		33.232,39.177 33.232,43.279 	"/>
	<path fill="#FFFFFF" d="M54.458,38.763c-0.186,0-0.345,0.158-0.345,0.353c0,0.193,0.159,0.345,0.345,0.345
		c0.193,0,0.352-0.151,0.352-0.345C54.809,38.921,54.65,38.763,54.458,38.763z"/>
	<path fill="#FFFFFF" d="M68.22,39.939v3.34h0.518v-2.365c0.152-0.27,0.588-0.533,0.906-0.533c0.083,0,0.146,0.007,0.208,0.021
		V39.87c-0.457,0-0.844,0.256-1.114,0.608v-0.539H68.22z"/>
	<path fill="#FFFFFF" d="M67.03,43.362c0.304,0,0.491-0.09,0.623-0.214L67.5,42.76c-0.069,0.076-0.207,0.139-0.352,0.139
		c-0.229,0-0.339-0.18-0.339-0.429v-2.075h0.678v-0.456h-0.678v-0.913h-0.518v0.913h-0.553v0.456h0.553v2.186
		C66.292,43.079,66.541,43.362,67.03,43.362z"/>
	<rect x="54.201" y="39.939" fill="#FFFFFF" width="0.518" height="3.34"/>
	<path fill="#FFFFFF" d="M73.109,43.279v-2.295c0-0.811-0.587-1.128-1.293-1.128c-0.546,0-0.975,0.18-1.334,0.553l0.241,0.36
		c0.298-0.319,0.623-0.465,1.024-0.465c0.485,0,0.844,0.257,0.844,0.706v0.602c-0.269-0.312-0.65-0.455-1.107-0.455
		c-0.567,0-1.168,0.352-1.168,1.098c0,0.728,0.601,1.107,1.168,1.107c0.45,0,0.831-0.159,1.107-0.463v0.38H73.109z M71.671,42.989
		c-0.484,0-0.823-0.304-0.823-0.727c0-0.429,0.339-0.733,0.823-0.733c0.367,0,0.72,0.139,0.92,0.415v0.63
		C72.391,42.851,72.038,42.989,71.671,42.989z"/>
	<rect x="40.958" y="38.667" fill="#FFFFFF" width="0.573" height="4.612"/>
	<path fill="#FFFFFF" d="M49.692,39.102c0.553,0,1.045,0.263,1.335,0.637l0.456-0.284c-0.408-0.505-0.975-0.864-1.791-0.864
		c-1.315,0-2.372,0.954-2.372,2.387c0,1.431,1.057,2.392,2.372,2.392c0.754,0,1.383-0.318,1.811-0.795v-1.666h-2.157v0.511h1.584
		v0.941c-0.228,0.228-0.685,0.498-1.238,0.498c-1.01,0-1.778-0.789-1.778-1.881C47.914,39.876,48.682,39.102,49.692,39.102z"/>
	<polygon fill="#FFFFFF" points="39.877,43.279 39.877,38.667 39.304,38.667 39.304,40.652 36.606,40.652 36.606,38.667 
		36.033,38.667 36.033,43.279 36.606,43.279 36.606,41.163 39.304,41.163 39.304,43.279 	"/>
	<polygon fill="#FFFFFF" points="43.197,38.667 42.61,38.667 42.61,43.279 43.183,43.279 43.183,39.6 45.875,43.279 46.427,43.279 
		46.427,38.667 45.854,38.667 45.854,42.269 	"/>
	<path fill="#FFFFFF" d="M128.75,41.647c0-1.003-0.593-1.791-1.604-1.791c-0.954,0-1.645,0.78-1.645,1.75
		c0,1.044,0.711,1.756,1.701,1.756c0.546,0,0.996-0.179,1.328-0.511l-0.249-0.34c-0.263,0.271-0.65,0.423-1.031,0.423
		c-0.719,0-1.162-0.526-1.204-1.156h2.704V41.647z M126.045,41.399c0.028-0.514,0.381-1.115,1.093-1.115
		c0.762,0,1.094,0.616,1.101,1.115H126.045z"/>
	<rect x="238.073" y="39.939" fill="#FFFFFF" width="0.518" height="3.34"/>
	<path fill="#FFFFFF" d="M171.532,43.279v-2.345c0-0.727-0.366-1.078-1.063-1.078c-0.498,0-0.955,0.29-1.19,0.566v-0.483h-0.518
		v3.34h0.518v-2.441c0.193-0.27,0.581-0.519,0.989-0.519c0.45,0,0.747,0.187,0.747,0.773v2.187H171.532z"/>
	<path fill="#FFFFFF" d="M241.129,40.319c0.347,0,0.629,0.131,0.852,0.436l0.345-0.318c-0.255-0.331-0.615-0.58-1.224-0.58
		c-0.996,0-1.666,0.76-1.666,1.75c0,0.996,0.67,1.756,1.666,1.756c0.608,0,0.969-0.249,1.224-0.58l-0.345-0.318
		c-0.223,0.297-0.505,0.436-0.852,0.436c-0.712,0-1.154-0.554-1.154-1.293C239.975,40.865,240.417,40.319,241.129,40.319z"/>
	<path fill="#FFFFFF" d="M249.72,43.279v-2.345c0-0.727-0.366-1.078-1.065-1.078c-0.498,0-0.955,0.29-1.19,0.566v-0.483h-0.518v3.34
		h0.518v-2.441c0.194-0.27,0.581-0.519,0.99-0.519c0.449,0,0.747,0.187,0.747,0.773v2.187H249.72z"/>
	<path fill="#FFFFFF" d="M252.257,40.319c0.347,0,0.63,0.131,0.852,0.436l0.346-0.318c-0.256-0.331-0.616-0.58-1.225-0.58
		c-0.996,0-1.666,0.76-1.666,1.75c0,0.996,0.67,1.756,1.666,1.756c0.608,0,0.969-0.249,1.225-0.58l-0.346-0.318
		c-0.222,0.297-0.505,0.436-0.852,0.436c-0.712,0-1.154-0.554-1.154-1.293C251.103,40.865,251.545,40.319,252.257,40.319z"/>
	<path fill="#FFFFFF" d="M242.859,41.606c0,1.044,0.711,1.756,1.701,1.756c0.546,0,0.996-0.179,1.328-0.511l-0.249-0.34
		c-0.264,0.271-0.65,0.423-1.031,0.423c-0.719,0-1.162-0.526-1.204-1.156h2.705v-0.131c0-1.003-0.594-1.791-1.604-1.791
		C243.551,39.856,242.859,40.636,242.859,41.606z M245.599,41.399h-2.194c0.028-0.514,0.381-1.115,1.094-1.115
		C245.26,40.284,245.591,40.9,245.599,41.399z"/>
	<rect x="176.215" y="38.667" fill="#FFFFFF" width="0.519" height="4.612"/>
	<path fill="#FFFFFF" d="M175.178,43.279v-2.295c0-0.811-0.588-1.128-1.293-1.128c-0.547,0-0.976,0.18-1.336,0.553l0.242,0.36
		c0.297-0.319,0.623-0.465,1.024-0.465c0.483,0,0.844,0.257,0.844,0.706v0.602c-0.27-0.312-0.649-0.455-1.106-0.455
		c-0.567,0-1.168,0.352-1.168,1.098c0,0.728,0.601,1.107,1.168,1.107c0.449,0,0.829-0.159,1.106-0.463v0.38H175.178z
		 M173.739,42.989c-0.485,0-0.824-0.304-0.824-0.727c0-0.429,0.339-0.733,0.824-0.733c0.367,0,0.72,0.139,0.92,0.415v0.63
		C174.459,42.851,174.106,42.989,173.739,42.989z"/>
	<path fill="#FFFFFF" d="M181.763,39.102c0.553,0,1.044,0.263,1.335,0.637l0.455-0.284c-0.407-0.505-0.975-0.864-1.79-0.864
		c-1.315,0-2.372,0.954-2.372,2.387c0,1.431,1.057,2.392,2.372,2.392c0.754,0,1.383-0.318,1.811-0.795v-1.666h-2.157v0.511H183
		v0.941c-0.228,0.228-0.685,0.498-1.237,0.498c-1.011,0-1.778-0.789-1.778-1.881C179.984,39.876,180.752,39.102,181.763,39.102z"/>
	<path fill="#FFFFFF" d="M257.922,42.967c0,0.207,0.174,0.381,0.381,0.381s0.38-0.174,0.38-0.381s-0.173-0.38-0.38-0.38
		S257.922,42.76,257.922,42.967z"/>
	<rect x="236.518" y="38.667" fill="#FFFFFF" width="0.518" height="4.612"/>
	<path fill="#FFFFFF" d="M238.328,38.763c-0.186,0-0.345,0.158-0.345,0.353c0,0.193,0.159,0.345,0.345,0.345
		c0.194,0,0.354-0.151,0.354-0.345C238.682,38.921,238.522,38.763,238.328,38.763z"/>
	<path fill="#FFFFFF" d="M214.136,43.279v-4.612h-0.518v1.776c-0.27-0.366-0.678-0.587-1.128-0.587c-0.879,0-1.487,0.69-1.487,1.756
		c0,1.087,0.615,1.75,1.487,1.75c0.47,0,0.879-0.242,1.128-0.58v0.497H214.136z M212.614,42.899c-0.671,0-1.072-0.546-1.072-1.286
		c0-0.741,0.401-1.294,1.072-1.294c0.416,0,0.817,0.249,1.004,0.54v1.515C213.432,42.664,213.03,42.899,212.614,42.899z"/>
	<path fill="#FFFFFF" d="M208.812,43.362c0.546,0,0.996-0.179,1.327-0.511l-0.248-0.34c-0.264,0.271-0.65,0.423-1.031,0.423
		c-0.72,0-1.162-0.526-1.204-1.156h2.704v-0.131c0-1.003-0.594-1.791-1.604-1.791c-0.954,0-1.645,0.78-1.645,1.75
		C207.11,42.65,207.821,43.362,208.812,43.362z M208.748,40.284c0.762,0,1.093,0.616,1.101,1.115h-2.193
		C207.684,40.885,208.036,40.284,208.748,40.284z"/>
	<path fill="#FFFFFF" d="M205.166,42.941c-0.457,0-0.879-0.223-1.1-0.479l-0.27,0.374c0.339,0.359,0.802,0.525,1.349,0.525
		c0.865,0,1.313-0.449,1.313-1.009c0-1.301-2.067-0.816-2.067-1.551c0-0.297,0.282-0.525,0.739-0.525c0.43,0,0.797,0.18,0.996,0.423
		l0.242-0.36c-0.269-0.27-0.67-0.483-1.238-0.483c-0.796,0-1.243,0.441-1.243,0.961c0,1.237,2.067,0.74,2.067,1.549
		C205.955,42.699,205.679,42.941,205.166,42.941z"/>
	<path fill="#FFFFFF" d="M203.049,43.279v-3.34h-0.518v2.456c-0.194,0.269-0.581,0.504-0.989,0.504
		c-0.449,0-0.748-0.172-0.748-0.761v-2.199h-0.518v2.358c0,0.727,0.366,1.064,1.064,1.064c0.498,0,0.935-0.262,1.19-0.552v0.469
		H203.049z"/>
	<path fill="#FFFFFF" d="M231.613,41.647c0-1.003-0.594-1.791-1.604-1.791c-0.955,0-1.646,0.78-1.646,1.75
		c0,1.044,0.711,1.756,1.701,1.756c0.546,0,0.996-0.179,1.328-0.511l-0.249-0.34c-0.264,0.271-0.65,0.423-1.031,0.423
		c-0.719,0-1.162-0.526-1.204-1.156h2.705V41.647z M228.908,41.399c0.028-0.514,0.381-1.115,1.094-1.115
		c0.762,0,1.094,0.616,1.101,1.115H228.908z"/>
	<path fill="#FFFFFF" d="M219.731,43.279v-3.34h-0.519v2.456c-0.193,0.269-0.581,0.504-0.989,0.504
		c-0.449,0-0.747-0.172-0.747-0.761v-2.199h-0.519v2.358c0,0.727,0.366,1.064,1.065,1.064c0.498,0,0.934-0.262,1.189-0.552v0.469
		H219.731z"/>
	<path fill="#FFFFFF" d="M232.45,39.939v3.34h0.519v-2.365c0.151-0.27,0.588-0.533,0.905-0.533c0.083,0,0.146,0.007,0.208,0.021
		V39.87c-0.457,0-0.844,0.256-1.113,0.608v-0.539H232.45z"/>
	<path fill="#FFFFFF" d="M257.237,41.647c0-1.003-0.594-1.791-1.604-1.791c-0.954,0-1.646,0.78-1.646,1.75
		c0,1.044,0.711,1.756,1.701,1.756c0.547,0,0.996-0.179,1.328-0.511l-0.249-0.34c-0.264,0.271-0.65,0.423-1.031,0.423
		c-0.719,0-1.162-0.526-1.204-1.156h2.705V41.647z M254.532,41.399c0.028-0.514,0.381-1.115,1.094-1.115
		c0.762,0,1.094,0.616,1.101,1.115H254.532z"/>
	<path fill="#FFFFFF" d="M223.541,43.279v-2.345c0-0.727-0.364-1.078-1.063-1.078c-0.498,0-0.955,0.29-1.19,0.566v-0.483h-0.518
		v3.34h0.518v-2.441c0.194-0.27,0.581-0.519,0.989-0.519c0.45,0,0.748,0.187,0.748,0.773v2.187H223.541z"/>
	<path fill="#FFFFFF" d="M227.519,43.279v-4.612H227v1.776c-0.269-0.366-0.678-0.587-1.127-0.587c-0.879,0-1.486,0.69-1.486,1.756
		c0,1.087,0.614,1.75,1.486,1.75c0.471,0,0.878-0.242,1.127-0.58v0.497H227.519z M225.997,42.899c-0.671,0-1.071-0.546-1.071-1.286
		c0-0.741,0.4-1.294,1.071-1.294c0.415,0,0.817,0.249,1.003,0.54v1.515C226.814,42.664,226.412,42.899,225.997,42.899z"/>
	<path fill="#FFFFFF" d="M163.503,38.763c-0.186,0-0.345,0.158-0.345,0.353c0,0.193,0.159,0.345,0.345,0.345
		c0.193,0,0.353-0.151,0.353-0.345C163.855,38.921,163.696,38.763,163.503,38.763z"/>
	<path fill="#FFFFFF" d="M124.655,43.279v-4.612h-0.518v1.776c-0.27-0.366-0.678-0.587-1.128-0.587c-0.878,0-1.486,0.69-1.486,1.756
		c0,1.087,0.615,1.75,1.486,1.75c0.471,0,0.879-0.242,1.128-0.58v0.497H124.655z M123.134,42.899c-0.671,0-1.072-0.546-1.072-1.286
		c0-0.741,0.401-1.294,1.072-1.294c0.415,0,0.816,0.249,1.003,0.54v1.515C123.95,42.664,123.549,42.899,123.134,42.899z"/>
	<polygon fill="#FFFFFF" points="137.422,42.83 135.542,42.83 137.396,40.333 137.396,39.939 134.878,39.939 134.878,40.395 
		136.717,40.395 134.878,42.878 134.878,43.279 137.422,43.279 	"/>
	<rect x="131.337" y="38.992" fill="#FFFFFF" width="2.51" height="0.331"/>
	<path fill="#FFFFFF" d="M120.678,43.279v-2.345c0-0.727-0.366-1.078-1.064-1.078c-0.498,0-0.955,0.29-1.19,0.566v-0.483h-0.518
		v3.34h0.518v-2.441c0.193-0.27,0.581-0.519,0.989-0.519c0.45,0,0.747,0.187,0.747,0.773v2.187H120.678z"/>
	<rect x="129.587" y="38.667" fill="#FFFFFF" width="0.518" height="4.612"/>
	<path fill="#FFFFFF" d="M164.61,41.606c0,0.968,0.635,1.756,1.653,1.756c1.017,0,1.651-0.788,1.651-1.756
		c0-0.97-0.635-1.75-1.651-1.75C165.245,39.856,164.61,40.636,164.61,41.606z M167.37,41.606c0,0.685-0.395,1.293-1.106,1.293
		c-0.713,0-1.114-0.608-1.114-1.293c0-0.679,0.401-1.287,1.114-1.287C166.976,40.319,167.37,40.927,167.37,41.606z"/>
	<path fill="#FFFFFF" d="M105.802,39.026c0.173,0,0.304,0.068,0.415,0.166l0.214-0.339c-0.207-0.193-0.442-0.255-0.705-0.255
		c-0.595,0-0.968,0.399-0.968,1.085v0.256h-0.553v0.456h0.553v2.884h0.518v-2.884h0.678v-0.456h-0.678v-0.256
		C105.276,39.26,105.463,39.026,105.802,39.026z"/>
	<path fill="#FFFFFF" d="M100.463,41.606c0,0.968,0.636,1.756,1.653,1.756s1.652-0.788,1.652-1.756c0-0.97-0.635-1.75-1.652-1.75
		S100.463,40.636,100.463,41.606z M103.223,41.606c0,0.685-0.394,1.293-1.107,1.293s-1.114-0.608-1.114-1.293
		c0-0.679,0.401-1.287,1.114-1.287S103.223,40.927,103.223,41.606z"/>
	<path fill="#FFFFFF" d="M113.756,41.606c0,0.968,0.636,1.756,1.653,1.756s1.652-0.788,1.652-1.756c0-0.97-0.635-1.75-1.652-1.75
		S113.756,40.636,113.756,41.606z M116.516,41.606c0,0.685-0.395,1.293-1.107,1.293c-0.713,0-1.114-0.608-1.114-1.293
		c0-0.679,0.401-1.287,1.114-1.287C116.121,40.319,116.516,40.927,116.516,41.606z"/>
	<path fill="#FFFFFF" d="M134.199,41.647c0-1.003-0.594-1.791-1.604-1.791c-0.955,0-1.645,0.78-1.645,1.75
		c0,1.044,0.711,1.756,1.701,1.756c0.546,0,0.996-0.179,1.327-0.511l-0.248-0.34c-0.263,0.271-0.65,0.423-1.031,0.423
		c-0.72,0-1.162-0.526-1.204-1.156h2.704V41.647z M131.495,41.399c0.028-0.514,0.381-1.115,1.093-1.115
		c0.761,0,1.093,0.616,1.1,1.115H131.495z"/>
	<polygon fill="#FFFFFF" points="112.891,43.279 112.891,38.667 112.069,38.667 110.63,42.137 109.198,38.667 108.375,38.667 
		108.375,43.279 108.949,43.279 108.949,39.482 110.512,43.279 110.747,43.279 112.318,39.482 112.318,43.279 	"/>
	<path fill="#FFFFFF" d="M156.531,43.279v-2.345c0-0.727-0.366-1.078-1.063-1.078c-0.498,0-0.955,0.29-1.19,0.566v-0.483h-0.518
		v3.34h0.518v-2.441c0.193-0.27,0.581-0.519,0.989-0.519c0.449,0,0.747,0.187,0.747,0.773v2.187H156.531z"/>
	<path fill="#FFFFFF" d="M162.058,43.362c0.305,0,0.49-0.09,0.623-0.214l-0.152-0.388c-0.07,0.076-0.208,0.139-0.353,0.139
		c-0.229,0-0.34-0.18-0.34-0.429v-2.075h0.679v-0.456h-0.679v-0.913h-0.518v0.913h-0.553v0.456h0.553v2.186
		C161.318,43.079,161.567,43.362,162.058,43.362z"/>
	<path fill="#FFFFFF" d="M160.177,43.279v-2.295c0-0.811-0.588-1.128-1.294-1.128c-0.546,0-0.975,0.18-1.334,0.553l0.241,0.36
		c0.297-0.319,0.623-0.465,1.024-0.465c0.483,0,0.844,0.257,0.844,0.706v0.602c-0.27-0.312-0.65-0.455-1.106-0.455
		c-0.567,0-1.169,0.352-1.169,1.098c0,0.728,0.602,1.107,1.169,1.107c0.449,0,0.829-0.159,1.106-0.463v0.38H160.177z
		 M158.738,42.989c-0.484,0-0.824-0.304-0.824-0.727c0-0.429,0.34-0.733,0.824-0.733c0.367,0,0.72,0.139,0.92,0.415v0.63
		C159.458,42.851,159.105,42.989,158.738,42.989z"/>
	<rect x="140.107" y="38.667" fill="#FFFFFF" width="0.573" height="4.612"/>
	<path fill="#FFFFFF" d="M93.036,39.939v3.34h0.517v-2.365c0.153-0.27,0.588-0.533,0.906-0.533c0.083,0,0.146,0.007,0.208,0.021
		V39.87c-0.457,0-0.844,0.256-1.114,0.608v-0.539H93.036z"/>
	<rect x="163.247" y="39.939" fill="#FFFFFF" width="0.519" height="3.34"/>
	<path fill="#FFFFFF" d="M151.994,40.914c0.152-0.27,0.588-0.533,0.906-0.533c0.083,0,0.146,0.007,0.208,0.021V39.87
		c-0.457,0-0.844,0.256-1.114,0.608v-0.539h-0.518v3.34h0.518V40.914z"/>
	<path fill="#FFFFFF" d="M144.511,43.279v-2.345c0-0.727-0.366-1.078-1.064-1.078c-0.499,0-0.955,0.29-1.191,0.566v-0.483h-0.517
		v3.34h0.517v-2.441c0.194-0.27,0.582-0.519,0.99-0.519c0.45,0,0.747,0.187,0.747,0.773v2.187H144.511z"/>
	<path fill="#FFFFFF" d="M150.639,41.647c0-1.003-0.594-1.791-1.604-1.791c-0.955,0-1.646,0.78-1.646,1.75
		c0,1.044,0.712,1.756,1.701,1.756c0.547,0,0.996-0.179,1.328-0.511l-0.249-0.34c-0.263,0.271-0.65,0.423-1.031,0.423
		c-0.719,0-1.162-0.526-1.203-1.156h2.704V41.647z M147.935,41.399c0.027-0.514,0.38-1.115,1.093-1.115
		c0.761,0,1.093,0.616,1.1,1.115H147.935z"/>
	<path fill="#FFFFFF" d="M146.392,43.362c0.305,0,0.491-0.09,0.623-0.214l-0.152-0.388c-0.07,0.076-0.208,0.139-0.353,0.139
		c-0.228,0-0.339-0.18-0.339-0.429v-2.075h0.678v-0.456h-0.678v-0.913h-0.518v0.913H145.1v0.456h0.553v2.186
		C145.653,43.079,145.902,43.362,146.392,43.362z"/>
</g>
</svg>
