<?xml version="1.0" encoding="utf-8"?>
<!-- Generator: Adobe Illustrator 16.0.0, SVG Export Plug-In . SVG Version: 6.00 Build 0)  -->
<!DOCTYPE svg PUBLIC "-//W3C//DTD SVG 1.1 Tiny//EN" "http://www.w3.org/Graphics/SVG/1.1/DTD/svg11-tiny.dtd">
<svg version="1.1" baseProfile="tiny" id="Layer_1" xmlns="http://www.w3.org/2000/svg" xmlns:xlink="http://www.w3.org/1999/xlink"
	 x="0px" y="0px" width="416.667px" height="265.384px" viewBox="0 0 416.667 265.384" xml:space="preserve">
<g>
	<path fill="#F15A31" d="M214.212,130.695c0.067-0.399,0.09-0.754,0.067-1.064c-0.067-0.467-0.261-0.888-0.583-1.266
		c-0.32-0.377-0.837-0.564-1.547-0.564c-0.533,0-0.865,0.166-0.998,0.499c-0.112,0.555-0.167,1.187-0.167,1.896
		c0,0.288,0.032,1.031,0.101,2.229c0.043,0.91,0.043,1.652,0,2.229C212.925,133.28,213.968,131.96,214.212,130.695z"/>
	<path fill="#F15A31" d="M201.567,133.258c-0.111-0.044-0.211-0.066-0.3-0.066c-0.266,0-0.599,0.222-0.998,0.665
		c-0.444,0.511-0.788,0.81-1.032,0.899c-0.155,0.065-0.377,0-0.665-0.2c-0.289-0.2-0.477-0.299-0.566-0.299
		c-0.066,0-0.122,0.021-0.166,0.065c-0.777,0.666-1.165,1.697-1.165,3.095c0,0.954,0.222,1.765,0.666,2.43
		c0.62,0.91,1.142,1.365,1.564,1.365c0.976,0,1.918-0.61,2.828-1.831c0.866-1.153,1.243-2.229,1.132-3.229
		C202.709,134.533,202.277,133.568,201.567,133.258z"/>
	<path fill="#F15A31" d="M329.253,194.845c30.227-54.089,41.81-117.688,5.219-156.156c-36.59-38.47-72.016-35.815-93.625-33.516
		c-41.558,6.39-73.697,18.581-103.206,33.516c-19.542,9.89-40.834,37.65-42.861,75.261c30.167,6.958,37.675,32.387,36.812,49.202
		c-0.414,8.079-5.621,18.27-14.664,26.138c45.718,64.833,95.528,64.682,116.281,66.241
		C255.092,257.174,299.027,248.932,329.253,194.845z M246.868,175.62c0,0.188-0.17,0.357-0.358,0.357h-1.737
		c-0.207,0-0.357-0.169-0.357-0.357v-5.208h-6.152v5.208c0,0.188-0.15,0.357-0.359,0.357h-1.755c-0.188,0-0.358-0.169-0.358-0.357
		v-12.493c0-0.188,0.17-0.358,0.358-0.358h1.755c0.209,0,0.359,0.17,0.359,0.358v5.001h6.152v-5.001c0-0.188,0.15-0.358,0.357-0.358
		h1.737c0.188,0,0.358,0.17,0.358,0.358V175.62z M254.284,175.62c0,0.188-0.17,0.357-0.358,0.357h-1.755
		c-0.189,0-0.359-0.169-0.359-0.357v-12.493c0-0.188,0.17-0.358,0.359-0.358h1.755c0.188,0,0.358,0.17,0.358,0.358V175.62z
		 M255.81,128.766c-0.821,0.332-2.03,0.721-3.629,1.164c-1.596,0.443-2.805,0.832-3.627,1.165c-0.199,0.577-0.344,1.863-0.432,3.859
		c0.354,0.134,0.766,0.2,1.231,0.2c0.333,0,0.854-0.055,1.563-0.166c0.711-0.11,1.231-0.167,1.564-0.167
		c0.621,0,1.152,0.133,1.597,0.4c0.312,0.443,0.466,0.731,0.466,0.865c0,0.154-0.078,0.276-0.232,0.365
		c-0.045,0.022-0.199,0.179-0.467,0.467c-0.176,0.198-0.398,0.287-0.664,0.266c-0.467,0.111-1.32,0.178-2.563,0.2
		c-1.043,0.021-1.875,0.154-2.495,0.398c-0.422,1.643-0.633,2.94-0.633,3.895c0,0.643,0.089,1.152,0.266,1.529
		c1.043,0.732,2.852,1.043,5.426,0.933c0.177,0,0.365-0.083,0.565-0.249c0.199-0.167,0.366-0.25,0.499-0.25
		c0.621-0.133,1.031,0.333,1.23,1.397c0.068,0.355,0.006,0.683-0.182,0.981c-0.189,0.3-0.461,0.46-0.815,0.483
		c-2.685,0.088-5.015-0.122-6.989-0.633c-0.621-0.155-1.188-0.5-1.697-1.031c-0.511-0.533-0.799-1.133-0.865-1.798
		c-0.199-1.93-0.199-3.66,0-5.19c-0.621-0.422-0.898-0.832-0.832-1.232c0.022-0.198,0.194-0.382,0.517-0.549
		c0.321-0.166,0.504-0.338,0.549-0.516c0.044-0.177,0.134-1.231,0.267-3.161c-1.244-0.244-1.854-0.71-1.83-1.398
		c0.021-0.643,0.41-1.152,1.164-1.53c0.709-0.288,1.42-0.576,2.129-0.865c0.822-0.421,1.853-0.798,3.096-1.131
		c1.087-0.288,2.174-0.566,3.261-0.832c0.111-0.022,0.244-0.033,0.4-0.033c0.599,0,1.298,0.232,2.096,0.698
		c0.022,0.089,0.078,0.256,0.167,0.5c0.088,0.244,0.133,0.421,0.133,0.531C256.042,128.511,255.964,128.654,255.81,128.766z
		 M258.837,147.801c0-0.268,0.166-0.588,0.5-0.965c0.088-0.112,0.299-0.179,0.631-0.2c0.334-0.022,0.556-0.156,0.666-0.399
		c0.467-0.976,0.699-1.975,0.699-2.995c0-1.441-0.716-3.533-2.146-6.272c-1.432-2.74-2.146-4.932-2.146-6.573
		c0-1.354,0.266-2.562,0.799-3.627c0.6-1.22,1.453-2.097,2.562-2.629c0.51-0.244,1.009-0.366,1.498-0.366
		c0.931,0,1.63,0.255,2.096,0.765c0.223,0.245,0.333,0.489,0.333,0.732c0,0.444-0.321,0.832-0.965,1.165
		c-0.178,0.089-0.366,0.1-0.565,0.033c-0.312-0.088-0.478-0.133-0.5-0.133c-0.133,0-0.266,0.066-0.398,0.199
		c-1.198,1.198-1.797,2.662-1.797,4.394c0,0.643,0.099,1.242,0.299,1.797c0.088,0.244,0.932,1.963,2.529,5.158
		c1.064,2.13,1.598,3.938,1.598,5.424c0,1.221-0.3,2.396-0.898,3.528c-0.201,0.377-0.699,0.864-1.498,1.464
		c-0.644,0.466-1.221,0.698-1.73,0.698c-0.2,0-0.389-0.033-0.566-0.1C259.171,148.609,258.837,148.243,258.837,147.801z
		 M266.852,175.62c0,0.188-0.151,0.357-0.358,0.357h-6.908c-0.207,0-0.357-0.169-0.357-0.357v-12.493
		c0-0.188,0.15-0.358,0.357-0.358h1.738c0.188,0,0.357,0.17,0.357,0.358v10.587h4.812c0.207,0,0.358,0.17,0.358,0.357V175.62z
		 M277.891,175.62c0,0.188-0.151,0.357-0.358,0.357h-6.906c-0.209,0-0.359-0.169-0.359-0.357v-12.493
		c0-0.188,0.15-0.358,0.359-0.358h1.736c0.188,0,0.357,0.17,0.357,0.358v10.587h4.812c0.207,0,0.358,0.17,0.358,0.357V175.62z
		 M288.204,126.586c0.277-0.212,0.549-0.316,0.815-0.316c0.044,0,0.466,0.122,1.265,0.366c0.555,0.843,1.131,1.93,1.73,3.261
		c0.51,1.132,1.01,2.263,1.498,3.394c0.442-1.33,0.887-2.649,1.33-3.96c0.511-1.529,1.076-2.795,1.697-3.793
		c0.178-0.311,0.488-0.466,0.932-0.466c0.621,0,1.143,0.211,1.564,0.632c-0.621,2.508-1.764,5.77-3.428,9.784
		c-1.952,4.682-3.206,7.909-3.76,9.685c-0.111,0.354-0.166,0.798-0.166,1.331c0.021,0.731,0.021,1.197,0,1.397
		c-0.067,0.776-0.479,1.164-1.232,1.164c-0.377,0.044-0.781-0.083-1.214-0.382c-0.433-0.3-0.638-0.616-0.616-0.949
		c0.066-1.62,0.477-3.472,1.23-5.557c0.688-1.775,1.377-3.55,2.063-5.325c-1.575-4.215-2.917-7.299-4.026-9.251
		c-0.066-0.111-0.1-0.222-0.1-0.333C287.788,127.023,287.927,126.797,288.204,126.586z M287.477,162.769h1.944
		c0.302,0,0.453,0.302,0.302,0.547l-4.358,6.284v6.021c0,0.188-0.171,0.357-0.359,0.357h-1.736c-0.208,0-0.359-0.169-0.359-0.357
		v-6.001l-4.302-6.304c-0.151-0.245,0-0.547,0.302-0.547h1.926c0.15,0,0.244,0.094,0.301,0.17l3.02,4.34l3.02-4.34
		C287.231,162.862,287.325,162.769,287.477,162.769z M285.011,139.847c0.276-0.044,0.481-0.066,0.615-0.066
		c0.443,0,0.766,0.178,0.965,0.535c0.267,0.491,0.267,0.903,0,1.237c-0.045,0.021-1.343,0.946-3.894,2.774
		c-1.487,1.07-2.808,1.861-3.96,2.374c-0.133,0.067-0.266,0.101-0.4,0.101c-0.31,0-0.599-0.2-0.865-0.601
		c-0.398-0.532-0.609-0.81-0.631-0.833c-0.045-1.955,0.076-4.677,0.365-8.166c0.333-3.71,0.499-6.388,0.499-8.031
		c0-1.134-0.045-2.2-0.133-3.2c0.288-0.289,0.653-0.434,1.099-0.434c0.842,0,1.33,0.312,1.463,0.932
		c0.067,1.819-0.01,4.543-0.231,8.17c-0.222,3.628-0.312,6.351-0.267,8.17c0.621-0.267,1.431-0.732,2.43-1.398
		c1.086-0.754,1.874-1.253,2.361-1.497C284.538,139.913,284.732,139.892,285.011,139.847z M270.817,99.779
		c0.422-5.369,0.654-8.342,0.699-8.919c0.021-0.488,0.433-0.732,1.231-0.732c0.377-0.044,0.931,0.233,1.664,0.832
		c0.709,1.354,1.586,3.55,2.629,6.589c0.998,2.907,1.907,5.114,2.728,6.622c0.334-2.95,0.854-7.409,1.564-13.377
		c0.066-0.444,0.389-0.666,0.966-0.666c0.199,0,0.433,0.033,0.698,0.101c0.355,0.089,0.566,0.144,0.633,0.166
		c0.221,0.089,0.366,0.244,0.432,0.466c-0.311,2.973-0.609,5.957-0.897,8.952c-0.378,3.55-0.565,6.512-0.565,8.885
		c0,0.776,0.021,1.542,0.066,2.296c0.021,0.354-0.105,0.666-0.383,0.932c-0.278,0.267-0.594,0.4-0.949,0.4
		c-0.688,0-1.264-0.466-1.73-1.398c-1.42-2.772-3.184-7.122-5.291-13.045c-0.045-0.133-0.1-0.2-0.166-0.2
		c-0.155,0-0.256,0.156-0.299,0.467c-0.379,3.173-0.566,6.512-0.566,10.017c0,1.687,0.044,3.405,0.133,5.158
		c0.021,0.643-0.166,1.087-0.564,1.331c-0.156,0.155-0.322,0.232-0.5,0.232c-0.156,0-0.355-0.066-0.6-0.199
		c-0.332-0.155-0.544-0.256-0.632-0.3c-0.289-0.089-0.466-0.354-0.532-0.799c-0.023-0.354-0.045-0.721-0.066-1.098
		c-0.066-1.243-0.101-2.54-0.101-3.895C270.418,106.246,270.551,103.306,270.817,99.779z M270.284,124.14
		c0.51-0.244,1.01-0.366,1.498-0.366c0.932,0,1.631,0.255,2.096,0.765c0.223,0.245,0.334,0.489,0.334,0.732
		c0,0.444-0.322,0.832-0.966,1.165c-0.178,0.089-0.366,0.1-0.565,0.033c-0.312-0.088-0.478-0.133-0.5-0.133
		c-0.133,0-0.266,0.066-0.398,0.199c-1.197,1.198-1.797,2.662-1.797,4.394c0,0.643,0.1,1.242,0.299,1.797
		c0.09,0.244,0.932,1.963,2.53,5.158c1.063,2.13,1.597,3.938,1.597,5.424c0,1.221-0.3,2.396-0.898,3.528
		c-0.199,0.377-0.698,0.864-1.498,1.464c-0.644,0.466-1.221,0.698-1.73,0.698c-0.199,0-0.388-0.033-0.564-0.1
		c-0.666-0.289-1-0.655-1-1.098c0-0.268,0.168-0.588,0.5-0.965c0.088-0.112,0.3-0.179,0.633-0.2
		c0.333-0.022,0.554-0.156,0.664-0.399c0.467-0.976,0.699-1.975,0.699-2.995c0-1.441-0.715-3.533-2.146-6.272
		c-1.431-2.74-2.147-4.932-2.147-6.573c0-1.354,0.268-2.562,0.799-3.627C268.321,125.549,269.175,124.672,270.284,124.14z
		 M264.146,102.042c0.365-2.995,0.549-5.236,0.549-6.723c0-0.576-0.022-1.143-0.066-1.697c0.221-0.421,0.6-0.632,1.131-0.632
		c0.422,0,0.844,0.122,1.266,0.366c0.088-0.067,0.154-0.101,0.199-0.101c0.066,0,0.1,0.111,0.1,0.333
		c-0.022,0.267-0.022,0.422,0,0.466c0.021,0.066,0.056,0.111,0.1,0.134c0.044,0.644,0.067,1.309,0.067,1.997
		c0,1.509-0.156,3.781-0.466,6.821c-0.312,3.039-0.467,5.336-0.467,6.889c0,0.576,0.012,1.143,0.033,1.696
		c-0.199,0.621-0.632,0.921-1.298,0.899c-0.954-0.045-1.476-0.455-1.563-1.231c-0.09-0.776-0.133-1.598-0.133-2.463
		C263.597,107.289,263.778,105.037,264.146,102.042z M255.942,91.061c0.311,0,0.588,0.1,0.832,0.299
		c0.621,0.532,1.021,1.331,1.197,2.396c0.135,0.91,0.256,1.82,0.366,2.729c1.11,5.235,2.263,9.551,3.461,12.944
		c0.134,0.355,0.2,0.666,0.2,0.933c0,0.443-0.189,0.832-0.566,1.165s-0.632,0.487-0.765,0.466c-1.087-0.2-1.774-1.076-2.063-2.629
		c-0.311-1.687-0.676-3.095-1.098-4.228c-0.755,0.067-1.509,0.135-2.263,0.2c-0.866,0.111-1.543,0.378-2.03,0.799
		c-0.244,0.688-0.566,1.908-0.965,3.66c-0.378,1.62-0.744,2.852-1.1,3.694c-0.176,0.399-0.553,0.51-1.131,0.333
		c-0.731-0.244-1.121-0.577-1.164-0.998c-0.066-0.844,0.178-1.976,0.731-3.396c0.666-1.618,1.032-2.772,1.099-3.461
		c0.021-0.198-0.123-0.421-0.433-0.665c-0.312-0.243-0.466-0.433-0.466-0.565c0-0.111,0.05-0.228,0.15-0.35
		c0.1-0.122,0.332-0.222,0.698-0.3c0.366-0.077,0.571-0.193,0.615-0.349c0.399-1.109,1.032-3.173,1.897-6.19
		c0.731-2.617,1.386-4.626,1.963-6.022C255.244,91.215,255.521,91.061,255.942,91.061z M233.946,91.574
		c0.71-0.246,2.162-0.47,4.359-0.672c1.93-0.201,3.371-0.56,4.325-1.073c0.777,0.266,1.664,0.399,2.663,0.399
		c0.998,0,1.952-0.122,2.862-0.366c0.266-0.022,0.942-0.178,2.03-0.466c0.797-0.2,1.463-0.267,1.996-0.2
		c0.399,0,0.565,0.167,0.498,0.499c0.6,0,0.899,0.2,0.899,0.599c-0.2,0.799-0.577,1.266-1.132,1.398
		c-1.442,0.354-3.949,0.82-7.52,1.397c-0.445,5.524-0.666,10.128-0.666,13.811c0,1.397,0.021,2.773,0.066,4.127
		c0.021,0.421,0,0.743-0.066,0.965c-0.111,0.354-0.334,0.521-0.666,0.499c-0.644-0.022-1.177-0.294-1.598-0.815
		c-0.422-0.521-0.655-1.104-0.699-1.748c-0.044-0.819-0.066-1.685-0.066-2.595c0-1.464,0.101-3.782,0.3-6.955
		c0.2-3.04,0.288-5.357,0.266-6.955c-0.599-0.045-1.431,0.012-2.495,0.166c-1.221,0.178-2.063,0.267-2.529,0.267
		c-1.086,0-1.975-0.291-2.662-0.872c-0.266-0.582-0.399-0.885-0.399-0.906C233.713,91.92,233.791,91.752,233.946,91.574z
		 M224.329,109.962c0.088-0.643,0.145-1.043,0.166-1.198c0.089-1.286,0.145-2.816,0.167-4.593v-3.627
		c0-3.017,0.166-5.557,0.499-7.621c0.221-1.375,1.52-2.007,3.893-1.896c1.198,0.044,2.241,0.643,3.129,1.797
		c0.82,1.063,1.231,2.218,1.231,3.46c0,1.044-0.39,2.086-1.165,3.129c-0.666,0.931-1.486,1.664-2.463,2.196
		c-0.398,0.222-0.6,0.466-0.6,0.731c0,0.289,0.233,0.632,0.699,1.032c0.355,0.288,0.711,0.577,1.065,0.865
		c0.022,0.021,1.241,1.131,3.661,3.328c1.531,1.376,2.617,2.606,3.261,3.693c0.067,0.088,0.101,0.188,0.101,0.3
		c0,0.51-0.533,0.898-1.598,1.164c-1.177-0.909-2.641-2.307-4.393-4.192c-1.953-2.108-3.406-3.572-4.36-4.394
		c-0.065,0.577-0.188,2.086-0.366,4.526c-0.111,1.842-0.311,3.305-0.599,4.393c-0.044,0-0.183,0.056-0.416,0.166
		c-0.233,0.111-0.427,0.145-0.582,0.101c-0.978-0.222-1.464-0.899-1.464-2.03C224.196,110.96,224.24,110.517,224.329,109.962z
		 M220.336,92.258c0.11-0.021,0.243-0.033,0.399-0.033c0.599,0,1.298,0.232,2.096,0.698c0.021,0.089,0.078,0.256,0.167,0.5
		c0.088,0.244,0.133,0.421,0.133,0.532c0,0.178-0.077,0.322-0.233,0.433c-0.82,0.332-2.029,0.722-3.627,1.164
		c-1.598,0.444-2.807,0.832-3.627,1.165c-0.199,0.577-0.345,1.864-0.433,3.86c0.354,0.133,0.765,0.2,1.231,0.2
		c0.332,0,0.854-0.056,1.563-0.166c0.71-0.111,1.231-0.167,1.563-0.167c0.621,0,1.154,0.133,1.599,0.399
		c0.31,0.444,0.465,0.732,0.465,0.865c0,0.155-0.077,0.277-0.233,0.366c-0.043,0.021-0.198,0.178-0.465,0.466
		c-0.178,0.199-0.399,0.288-0.666,0.266c-0.465,0.111-1.319,0.179-2.562,0.2c-1.043,0.022-1.875,0.155-2.496,0.399
		c-0.422,1.642-0.633,2.939-0.633,3.894c0,0.644,0.089,1.153,0.267,1.53c1.043,0.732,2.85,1.043,5.424,0.932
		c0.178,0,0.366-0.083,0.566-0.249c0.199-0.167,0.366-0.25,0.499-0.25c0.621-0.133,1.032,0.333,1.231,1.398
		c0.066,0.354,0.004,0.682-0.184,0.98c-0.189,0.301-0.461,0.461-0.814,0.483c-2.686,0.088-5.014-0.122-6.989-0.632
		c-0.621-0.156-1.187-0.5-1.697-1.032c-0.51-0.533-0.798-1.132-0.864-1.797c-0.201-1.93-0.201-3.661,0-5.191
		c-0.621-0.422-0.898-0.832-0.832-1.231c0.021-0.199,0.193-0.382,0.516-0.549c0.32-0.166,0.504-0.338,0.549-0.517
		c0.044-0.177,0.133-1.23,0.266-3.161c-1.242-0.243-1.852-0.71-1.83-1.397c0.022-0.644,0.41-1.153,1.166-1.531
		c0.709-0.288,1.418-0.576,2.129-0.865c0.82-0.421,1.853-0.798,3.095-1.131C218.161,92.802,219.248,92.524,220.336,92.258z
		 M182.865,99.779c0.421-5.369,0.654-8.342,0.699-8.919c0.022-0.488,0.432-0.732,1.231-0.732c0.377-0.044,0.932,0.233,1.664,0.832
		c0.71,1.354,1.586,3.55,2.629,6.589c0.998,2.907,1.908,5.114,2.729,6.622c0.332-2.95,0.853-7.409,1.564-13.377
		c0.066-0.444,0.388-0.666,0.965-0.666c0.199,0,0.432,0.033,0.699,0.101c0.354,0.089,0.565,0.144,0.632,0.166
		c0.221,0.089,0.366,0.244,0.433,0.466c-0.021,0.196-0.039,0.394-0.059,0.589c0.799-0.197,2.101-0.379,3.919-0.547
		c1.93-0.201,3.372-0.56,4.326-1.073c0.776,0.266,1.664,0.399,2.662,0.399s1.952-0.122,2.861-0.366
		c0.267-0.022,0.943-0.178,2.031-0.466c0.797-0.2,1.463-0.267,1.996-0.2c0.399,0,0.565,0.167,0.5,0.499
		c0.598,0,0.897,0.2,0.897,0.599c-0.199,0.799-0.577,1.266-1.132,1.398c-1.442,0.354-3.948,0.82-7.521,1.397
		c-0.444,5.524-0.666,10.128-0.666,13.811c0,1.397,0.022,2.773,0.067,4.127c0.021,0.421,0,0.743-0.067,0.965
		c-0.11,0.354-0.332,0.521-0.665,0.499c-0.644-0.022-1.176-0.294-1.598-0.815c-0.421-0.521-0.654-1.104-0.698-1.748
		c-0.045-0.819-0.067-1.685-0.067-2.595c0-1.464,0.1-3.782,0.3-6.955c0.199-3.04,0.288-5.357,0.266-6.955
		c-0.599-0.045-1.431,0.012-2.496,0.166c-1.221,0.178-2.063,0.267-2.529,0.267c-1.031,0-1.878-0.271-2.55-0.794
		c-0.23,2.246-0.46,4.492-0.678,6.751c-0.377,3.55-0.566,6.512-0.566,8.885c0,0.776,0.022,1.542,0.067,2.296
		c0.022,0.354-0.106,0.666-0.383,0.932c-0.277,0.267-0.594,0.4-0.948,0.4c-0.688,0-1.265-0.466-1.731-1.398
		c-1.42-2.772-3.183-7.122-5.291-13.045c-0.045-0.133-0.1-0.2-0.166-0.2c-0.156,0-0.256,0.156-0.3,0.467
		c-0.377,3.173-0.566,6.512-0.566,10.017c0,1.687,0.045,3.405,0.134,5.158c0.021,0.643-0.167,1.087-0.566,1.331
		c-0.156,0.155-0.322,0.232-0.499,0.232c-0.156,0-0.355-0.066-0.599-0.199c-0.333-0.155-0.544-0.256-0.633-0.3
		c-0.288-0.089-0.466-0.354-0.532-0.799c-0.022-0.354-0.045-0.721-0.067-1.098c-0.066-1.243-0.099-2.54-0.099-3.895
		C182.466,106.246,182.599,103.306,182.865,99.779z M169.554,95.086c0.709-0.288,1.419-0.576,2.13-0.865
		c0.82-0.421,1.852-0.798,3.094-1.131c1.087-0.288,2.174-0.565,3.262-0.832c0.11-0.021,0.244-0.033,0.399-0.033
		c0.599,0,1.298,0.232,2.097,0.698c0.021,0.089,0.077,0.256,0.166,0.5c0.088,0.244,0.133,0.421,0.133,0.532
		c0,0.178-0.078,0.322-0.233,0.433c-0.821,0.332-2.03,0.722-3.627,1.164c-1.598,0.444-2.807,0.832-3.628,1.165
		c-0.199,0.577-0.344,1.864-0.432,3.86c0.354,0.133,0.765,0.2,1.231,0.2c0.333,0,0.854-0.056,1.564-0.166
		c0.71-0.111,1.231-0.167,1.564-0.167c0.621,0,1.154,0.133,1.598,0.399c0.31,0.444,0.465,0.732,0.465,0.865
		c0,0.155-0.078,0.277-0.232,0.366c-0.045,0.021-0.2,0.178-0.466,0.466c-0.178,0.199-0.4,0.288-0.666,0.266
		c-0.466,0.111-1.32,0.179-2.562,0.2c-1.043,0.022-1.875,0.155-2.496,0.399c-0.422,1.642-0.632,2.939-0.632,3.894
		c0,0.644,0.088,1.153,0.266,1.53c1.042,0.732,2.85,1.043,5.424,0.932c0.177,0,0.366-0.083,0.566-0.249
		c0.199-0.167,0.366-0.25,0.499-0.25c0.621-0.133,1.032,0.333,1.231,1.398c0.067,0.354,0.005,0.682-0.183,0.98
		c-0.189,0.301-0.46,0.461-0.815,0.483c-2.685,0.088-5.014-0.122-6.988-0.632c-0.622-0.156-1.188-0.5-1.698-1.032
		c-0.51-0.533-0.798-1.132-0.865-1.797c-0.2-1.93-0.2-3.661,0-5.191c-0.621-0.422-0.898-0.832-0.832-1.231
		c0.022-0.199,0.194-0.382,0.516-0.549c0.321-0.166,0.504-0.338,0.549-0.517c0.044-0.177,0.133-1.23,0.266-3.161
		c-1.242-0.243-1.852-0.71-1.83-1.397C168.411,95.974,168.799,95.464,169.554,95.086z M157.741,145.87
		c-0.622-0.155-1.188-0.5-1.698-1.031c-0.51-0.533-0.798-1.133-0.865-1.798c-0.2-1.93-0.2-3.66,0-5.19
		c-0.621-0.422-0.898-0.832-0.832-1.232c0.022-0.198,0.194-0.382,0.516-0.549c0.321-0.166,0.504-0.338,0.549-0.516
		c0.044-0.177,0.133-1.231,0.266-3.161c-1.242-0.244-1.852-0.71-1.83-1.398c0.022-0.643,0.41-1.152,1.165-1.53
		c0.709-0.288,1.419-0.576,2.13-0.865c0.82-0.421,1.852-0.798,3.094-1.131c1.087-0.288,2.174-0.566,3.262-0.832
		c0.11-0.022,0.243-0.033,0.399-0.033c0.599,0,1.298,0.232,2.096,0.698c0.022,0.089,0.078,0.256,0.167,0.5
		c0.088,0.244,0.133,0.421,0.133,0.531c0,0.179-0.078,0.322-0.233,0.434c-0.821,0.332-2.03,0.721-3.627,1.164
		c-1.598,0.443-2.807,0.832-3.628,1.165c-0.199,0.577-0.344,1.863-0.432,3.859c0.354,0.134,0.765,0.2,1.231,0.2
		c0.333,0,0.854-0.055,1.564-0.166c0.71-0.11,1.231-0.167,1.564-0.167c0.621,0,1.154,0.133,1.598,0.4
		c0.31,0.443,0.465,0.731,0.465,0.865c0,0.154-0.078,0.276-0.232,0.365c-0.045,0.022-0.2,0.179-0.466,0.467
		c-0.178,0.198-0.4,0.287-0.666,0.266c-0.466,0.111-1.32,0.178-2.562,0.2c-1.043,0.021-1.875,0.154-2.496,0.398
		c-0.422,1.643-0.632,2.94-0.632,3.895c0,0.643,0.088,1.152,0.266,1.529c1.042,0.732,2.85,1.043,5.424,0.933
		c0.177,0,0.366-0.083,0.566-0.249c0.199-0.167,0.366-0.25,0.499-0.25c0.621-0.133,1.032,0.333,1.231,1.397
		c0.067,0.355,0.005,0.683-0.183,0.981c-0.189,0.3-0.46,0.46-0.815,0.483C162.044,146.591,159.715,146.381,157.741,145.87z
		 M179.688,163.222l-3.567,12.681c-0.037,0.151-0.188,0.265-0.339,0.265h-0.302c-0.17,0-0.283-0.094-0.321-0.207l-3.378-8.549
		h-0.094l-3.341,8.549c-0.056,0.113-0.132,0.207-0.32,0.207h-0.302c-0.151,0-0.302-0.113-0.34-0.265l-3.567-12.681
		c-0.075-0.265,0.076-0.453,0.34-0.453h1.736c0.151,0,0.302,0.132,0.34,0.265l1.962,7.528h0.076l3-7.773
		c0.038-0.114,0.133-0.208,0.321-0.208h0.34c0.189,0,0.283,0.094,0.321,0.208l3.019,7.773h0.076l1.924-7.528
		c0.038-0.133,0.189-0.265,0.34-0.265h1.736C179.613,162.769,179.764,162.957,179.688,163.222z M179.271,125.837
		c-0.976,0.089-2.174,0.433-3.594,1.031c-1.797,0.754-2.973,1.209-3.527,1.364c-0.089,1.398-0.133,2.818-0.133,4.26
		c0,1.442,0.044,2.885,0.133,4.326c0.177,0.045,0.366,0.066,0.566,0.066c0.443,0,1.242-0.178,2.396-0.532
		c1.086-0.311,1.918-0.433,2.495-0.366c0.488,0.045,0.71,0.233,0.666,0.566c-0.133,0.864-0.688,1.529-1.664,1.996
		c-0.91,0.289-1.819,0.588-2.729,0.898c-0.355,0.045-0.931,0.155-1.73,0.333c-0.045,0.444-0.067,0.943-0.067,1.497
		c0,0.533,0.028,1.343,0.083,2.429c0.056,1.089,0.084,1.897,0.084,2.431c0,1.908-0.3,3.416-0.899,4.525
		c-0.133,0.243-0.333,0.366-0.599,0.366c-0.266,0-0.544-0.123-0.832-0.366c-0.288-0.245-0.477-0.511-0.566-0.799
		c-0.222-0.688-0.332-1.486-0.332-2.396c0-0.312,0.077-1.388,0.233-3.229c0.11-1.331,0.088-2.407-0.067-3.228
		c-0.045-0.288-0.266-0.521-0.665-0.699c-0.511-0.221-0.832-0.399-0.966-0.532c-0.066-0.155-0.044-0.599,0.067-1.331
		c0.266,0.044,0.493-0.045,0.682-0.267c0.188-0.221,0.371-0.332,0.549-0.332c0.089,0,0.178,0.011,0.267,0.033
		c0.221-1.087,0.332-2.308,0.332-3.661c0-0.466-0.089-2.186-0.266-5.158c-0.422-0.111-0.838-0.371-1.248-0.782
		c-0.411-0.41-0.615-0.814-0.615-1.215c0-0.554,0.399-0.887,1.198-0.998c1.086-0.155,3.094-0.71,6.023-1.664
		c2.573-0.843,4.636-1.274,6.19-1.298c0.399,0,0.748,0.106,1.048,0.316c0.299,0.212,0.449,0.493,0.449,0.849
		c0,0.444-0.139,0.849-0.416,1.215c-0.278,0.366-0.638,0.594-1.081,0.683c-0.178,0.045-0.422-0.006-0.733-0.15
		C179.693,125.876,179.449,125.814,179.271,125.837z M185.877,175.62c0,0.188-0.169,0.357-0.358,0.357h-1.755
		c-0.189,0-0.359-0.169-0.359-0.357v-12.493c0-0.188,0.17-0.358,0.359-0.358h1.755c0.189,0,0.358,0.17,0.358,0.358V175.62z
		 M185.527,139.78c-0.044,0.444-0.066,0.943-0.066,1.497c0,0.533,0.027,1.343,0.083,2.429c0.055,1.089,0.083,1.897,0.083,2.431
		c0,1.908-0.299,3.416-0.898,4.525c-0.134,0.243-0.333,0.366-0.599,0.366c-0.267,0-0.544-0.123-0.832-0.366
		c-0.289-0.245-0.478-0.511-0.566-0.799c-0.222-0.688-0.333-1.486-0.333-2.396c0-0.312,0.078-1.388,0.233-3.229
		c0.111-1.331,0.088-2.407-0.066-3.228c-0.045-0.288-0.267-0.521-0.666-0.699c-0.511-0.221-0.832-0.399-0.965-0.532
		c-0.067-0.155-0.045-0.599,0.066-1.331c0.267,0.044,0.494-0.045,0.683-0.267c0.188-0.221,0.371-0.332,0.549-0.332
		c0.088,0,0.177,0.011,0.266,0.033c0.221-1.087,0.333-2.308,0.333-3.661c0-0.466-0.089-2.186-0.266-5.158
		c-0.422-0.111-0.838-0.371-1.248-0.782c-0.411-0.41-0.616-0.814-0.616-1.215c0-0.554,0.399-0.887,1.198-0.998
		c1.087-0.155,3.095-0.71,6.023-1.664c2.574-0.843,4.637-1.274,6.19-1.298c0.399,0,0.749,0.106,1.048,0.316
		c0.3,0.212,0.45,0.493,0.45,0.849c0,0.444-0.139,0.849-0.416,1.215c-0.278,0.366-0.638,0.594-1.082,0.683
		c-0.178,0.045-0.422-0.006-0.732-0.15c-0.311-0.144-0.555-0.205-0.732-0.183c-0.977,0.089-2.175,0.433-3.594,1.031
		c-1.797,0.754-2.973,1.209-3.528,1.364c-0.089,1.398-0.133,2.818-0.133,4.26c0,1.442,0.044,2.885,0.133,4.326
		c0.178,0.045,0.366,0.066,0.566,0.066c0.444,0,1.242-0.178,2.396-0.532c1.087-0.311,1.919-0.433,2.496-0.366
		c0.488,0.045,0.71,0.233,0.665,0.566c-0.133,0.864-0.687,1.529-1.663,1.996c-0.91,0.289-1.82,0.588-2.729,0.898
		C186.903,139.492,186.326,139.603,185.527,139.78z M198.313,164.675c0,0.188-0.151,0.358-0.359,0.358h-2.887v10.587
		c0,0.188-0.17,0.357-0.358,0.357h-1.755c-0.189,0-0.359-0.169-0.359-0.357v-10.587h-2.887c-0.208,0-0.359-0.171-0.359-0.358v-1.548
		c0-0.188,0.151-0.358,0.359-0.358h8.246c0.208,0,0.359,0.17,0.359,0.358V164.675z M199.104,143.573
		c-1.264,0-2.54-0.687-3.827-2.062c-0.865-0.933-1.297-2.142-1.297-3.627c0-1.643,0.487-3.405,1.464-5.291
		c0.421-0.799,0.932-1.486,1.531-2.064c0.687-0.687,1.342-1.031,1.963-1.031c0.355,0,0.687,0.134,0.998,0.399
		c0.311,0.266,1.143,0.621,2.496,1.065c1.065,0.354,1.819,0.953,2.263,1.797c0.776,1.486,1.165,2.762,1.165,3.827
		c0,0.599-0.111,1.143-0.333,1.631c-1.309,2.949-3.161,4.703-5.557,5.258C199.681,143.54,199.392,143.573,199.104,143.573z
		 M212.862,175.62c0,0.188-0.17,0.357-0.357,0.357h-1.737c-0.207,0-0.358-0.169-0.358-0.357v-5.208h-6.151v5.208
		c0,0.188-0.151,0.357-0.359,0.357h-1.755c-0.188,0-0.358-0.169-0.358-0.357v-12.493c0-0.188,0.17-0.358,0.358-0.358h1.755
		c0.208,0,0.359,0.17,0.359,0.358v5.001h6.151v-5.001c0-0.188,0.151-0.358,0.358-0.358h1.737c0.188,0,0.357,0.17,0.357,0.358V175.62
		z M219.736,147.102c-1.176-0.91-2.64-2.307-4.392-4.193c-1.953-2.107-3.406-3.571-4.36-4.393c-0.065,0.577-0.188,2.086-0.366,4.525
		c-0.111,1.843-0.311,3.306-0.599,4.394c-0.046,0-0.183,0.055-0.416,0.166s-0.427,0.144-0.582,0.1
		c-0.978-0.222-1.464-0.898-1.464-2.029c0-0.333,0.043-0.776,0.133-1.331c0.088-0.644,0.145-1.043,0.166-1.198
		c0.088-1.287,0.145-2.817,0.166-4.593v-3.627c0-3.018,0.167-5.558,0.5-7.621c0.221-1.375,1.52-2.007,3.893-1.896
		c1.198,0.044,2.241,0.644,3.129,1.797c0.82,1.064,1.231,2.219,1.231,3.46c0,1.044-0.39,2.086-1.165,3.129
		c-0.666,0.932-1.486,1.664-2.463,2.196c-0.398,0.222-0.6,0.466-0.6,0.732c0,0.289,0.233,0.632,0.699,1.031
		c0.355,0.288,0.711,0.577,1.065,0.865c0.022,0.022,1.241,1.131,3.661,3.328c1.529,1.376,2.617,2.607,3.261,3.694
		c0.065,0.088,0.101,0.188,0.101,0.299C221.335,146.446,220.802,146.836,219.736,147.102z M227.921,171.185h-2.358v4.436
		c0,0.188-0.17,0.357-0.358,0.357h-1.736c-0.207,0-0.358-0.169-0.358-0.357v-12.493c0-0.188,0.151-0.358,0.358-0.358h4.435
		c2.321,0,4.228,1.888,4.228,4.17C232.13,169.278,230.224,171.185,227.921,171.185z M233.38,137.202c0.334-3.71,0.5-6.388,0.5-8.031
		c0-0.938-0.038-1.818-0.1-2.664c-1.406,0.276-3.235,0.596-5.492,0.96c-0.443,5.523-0.664,10.128-0.664,13.81
		c0,1.398,0.021,2.774,0.065,4.127c0.022,0.421,0,0.743-0.065,0.965c-0.111,0.354-0.334,0.521-0.666,0.499
		c-0.644-0.021-1.177-0.294-1.598-0.814c-0.422-0.522-0.655-1.104-0.699-1.748c-0.045-0.82-0.066-1.686-0.066-2.595
		c0-1.465,0.1-3.782,0.3-6.955c0.2-3.04,0.288-5.358,0.266-6.955c-0.599-0.045-1.431,0.011-2.496,0.166
		c-1.22,0.178-2.063,0.266-2.528,0.266c-1.086,0-1.975-0.291-2.662-0.872c-0.266-0.582-0.399-0.884-0.399-0.906
		c0-0.156,0.078-0.324,0.233-0.503c0.709-0.246,2.162-0.47,4.359-0.672c1.93-0.201,3.371-0.559,4.325-1.073
		c0.777,0.267,1.664,0.399,2.662,0.399c0.999,0,1.952-0.122,2.862-0.366c0.267-0.021,0.943-0.178,2.029-0.466
		c0.799-0.2,1.465-0.266,1.998-0.2c0.398,0,0.565,0.167,0.498,0.499c0.6,0,0.899,0.2,0.899,0.6
		c-0.169,0.675-0.473,1.098-0.895,1.297c0.12,0.137,0.217,0.295,0.261,0.5c0.068,1.819-0.01,4.543-0.232,8.17
		c-0.222,3.628-0.311,6.351-0.266,8.17c0.621-0.267,1.431-0.732,2.429-1.398c1.087-0.754,1.875-1.253,2.362-1.497
		c0.111,0,0.306-0.021,0.584-0.066c0.277-0.044,0.482-0.066,0.615-0.066c0.443,0,0.766,0.178,0.965,0.535
		c0.266,0.491,0.266,0.903,0,1.237c-0.045,0.021-1.342,0.946-3.894,2.774c-1.487,1.07-2.807,1.861-3.96,2.374
		c-0.134,0.067-0.267,0.101-0.4,0.101c-0.311,0-0.599-0.2-0.864-0.601c-0.399-0.532-0.61-0.81-0.632-0.833
		C232.97,143.413,233.091,140.691,233.38,137.202z"/>
	<path fill="#F15A31" d="M227.751,165.09h-2.188v3.793h2.188c1.058,0,1.945-0.849,1.945-1.963
		C229.696,165.882,228.809,165.09,227.751,165.09z"/>
	<path fill="#F15A31" d="M256.508,100.312c-0.222-0.888-0.432-1.775-0.632-2.662c-0.666,1.842-1.243,3.683-1.73,5.523
		c0.354-0.066,1.287-0.1,2.795-0.1C256.874,102.253,256.729,101.332,256.508,100.312z"/>
	<path fill="#F15A31" d="M227.724,100.278c1.84-1.375,2.883-2.696,3.127-3.96c0.067-0.4,0.09-0.754,0.067-1.065
		c-0.067-0.466-0.261-0.887-0.582-1.265c-0.321-0.377-0.838-0.565-1.548-0.565c-0.532,0-0.865,0.166-0.998,0.499
		c-0.111,0.556-0.167,1.188-0.167,1.897c0,0.288,0.034,1.03,0.101,2.229C227.767,98.958,227.767,99.701,227.724,100.278z"/>
	<path fill="#FFFFFF" d="M266.493,173.714h-4.812v-10.587c0-0.188-0.17-0.358-0.357-0.358h-1.738c-0.207,0-0.357,0.17-0.357,0.358
		v12.493c0,0.188,0.15,0.357,0.357,0.357h6.908c0.207,0,0.358-0.169,0.358-0.357v-1.549
		C266.852,173.884,266.7,173.714,266.493,173.714z"/>
	<path fill="#FFFFFF" d="M277.532,173.714h-4.812v-10.587c0-0.188-0.17-0.358-0.357-0.358h-1.736c-0.209,0-0.359,0.17-0.359,0.358
		v12.493c0,0.188,0.15,0.357,0.359,0.357h6.906c0.207,0,0.358-0.169,0.358-0.357v-1.549
		C277.891,173.884,277.739,173.714,277.532,173.714z"/>
	<path fill="#FFFFFF" d="M253.926,162.769h-1.755c-0.189,0-0.359,0.17-0.359,0.358v12.493c0,0.188,0.17,0.357,0.359,0.357h1.755
		c0.188,0,0.358-0.169,0.358-0.357v-12.493C254.284,162.938,254.114,162.769,253.926,162.769z"/>
	<path fill="#FFFFFF" d="M281.136,162.938c-0.057-0.076-0.15-0.17-0.301-0.17h-1.926c-0.302,0-0.453,0.302-0.302,0.547l4.302,6.304
		v6.001c0,0.188,0.151,0.357,0.359,0.357h1.736c0.188,0,0.359-0.169,0.359-0.357V169.6l4.358-6.284c0.151-0.245,0-0.547-0.302-0.547
		h-1.944c-0.151,0-0.245,0.094-0.302,0.17l-3.02,4.34L281.136,162.938z"/>
	<path fill="#FFFFFF" d="M246.51,162.769h-1.737c-0.207,0-0.357,0.17-0.357,0.358v5.001h-6.152v-5.001
		c0-0.188-0.15-0.358-0.359-0.358h-1.755c-0.188,0-0.358,0.17-0.358,0.358v12.493c0,0.188,0.17,0.357,0.358,0.357h1.755
		c0.209,0,0.359-0.169,0.359-0.357v-5.208h6.152v5.208c0,0.188,0.15,0.357,0.357,0.357h1.737c0.188,0,0.358-0.169,0.358-0.357
		v-12.493C246.868,162.938,246.698,162.769,246.51,162.769z"/>
	<path fill="#FFFFFF" d="M212.505,162.769h-1.737c-0.207,0-0.358,0.17-0.358,0.358v5.001h-6.151v-5.001
		c0-0.188-0.151-0.358-0.359-0.358h-1.755c-0.188,0-0.358,0.17-0.358,0.358v12.493c0,0.188,0.17,0.357,0.358,0.357h1.755
		c0.208,0,0.359-0.169,0.359-0.357v-5.208h6.151v5.208c0,0.188,0.151,0.357,0.358,0.357h1.737c0.188,0,0.357-0.169,0.357-0.357
		v-12.493C212.862,162.938,212.692,162.769,212.505,162.769z"/>
	<path fill="#FFFFFF" d="M197.955,162.769h-8.246c-0.208,0-0.359,0.17-0.359,0.358v1.548c0,0.188,0.151,0.358,0.359,0.358h2.887
		v10.587c0,0.188,0.17,0.357,0.359,0.357h1.755c0.188,0,0.358-0.169,0.358-0.357v-10.587h2.887c0.208,0,0.359-0.171,0.359-0.358
		v-1.548C198.313,162.938,198.163,162.769,197.955,162.769z"/>
	<path fill="#FFFFFF" d="M227.902,162.769h-4.435c-0.207,0-0.358,0.17-0.358,0.358v12.493c0,0.188,0.151,0.357,0.358,0.357h1.736
		c0.188,0,0.358-0.169,0.358-0.357v-4.436h2.358c2.303,0,4.209-1.906,4.209-4.246C232.13,164.656,230.224,162.769,227.902,162.769z
		 M227.751,168.883h-2.188v-3.793h2.188c1.058,0,1.945,0.792,1.945,1.83C229.696,168.034,228.809,168.883,227.751,168.883z"/>
	<path fill="#FFFFFF" d="M185.52,162.769h-1.755c-0.189,0-0.359,0.17-0.359,0.358v12.493c0,0.188,0.17,0.357,0.359,0.357h1.755
		c0.189,0,0.358-0.169,0.358-0.357v-12.493C185.877,162.938,185.708,162.769,185.52,162.769z"/>
	<path fill="#FFFFFF" d="M179.349,162.769h-1.736c-0.151,0-0.302,0.132-0.34,0.265l-1.924,7.528h-0.076l-3.019-7.773
		c-0.038-0.114-0.132-0.208-0.321-0.208h-0.34c-0.188,0-0.283,0.094-0.321,0.208l-3,7.773h-0.076l-1.962-7.528
		c-0.038-0.133-0.189-0.265-0.34-0.265h-1.736c-0.264,0-0.415,0.188-0.34,0.453l3.567,12.681c0.038,0.151,0.189,0.265,0.34,0.265
		h0.302c0.188,0,0.264-0.094,0.32-0.207l3.341-8.549h0.094l3.378,8.549c0.038,0.113,0.151,0.207,0.321,0.207h0.302
		c0.151,0,0.302-0.113,0.339-0.265l3.567-12.681C179.764,162.957,179.613,162.769,179.349,162.769z"/>
	<path fill="#FFFFFF" d="M217.974,141.943c-2.42-2.197-3.639-3.306-3.661-3.328c-0.354-0.288-0.71-0.577-1.065-0.865
		c-0.466-0.399-0.699-0.742-0.699-1.031c0-0.267,0.201-0.511,0.6-0.732c0.977-0.532,1.797-1.265,2.463-2.196
		c0.775-1.043,1.165-2.085,1.165-3.129c0-1.241-0.411-2.396-1.231-3.46c-0.888-1.153-1.931-1.753-3.129-1.797
		c-2.373-0.11-3.672,0.521-3.893,1.896c-0.333,2.063-0.5,4.604-0.5,7.621v3.627c-0.021,1.775-0.078,3.306-0.166,4.593
		c-0.021,0.155-0.078,0.555-0.166,1.198c-0.09,0.555-0.133,0.998-0.133,1.331c0,1.131,0.486,1.808,1.464,2.029
		c0.155,0.044,0.349,0.012,0.582-0.1s0.37-0.166,0.416-0.166c0.288-1.088,0.487-2.551,0.599-4.394
		c0.178-2.439,0.301-3.948,0.366-4.525c0.954,0.821,2.407,2.285,4.36,4.393c1.752,1.887,3.216,3.283,4.392,4.193
		c1.065-0.266,1.599-0.655,1.599-1.165c0-0.111-0.035-0.211-0.101-0.299C220.591,144.551,219.503,143.319,217.974,141.943z
		 M211.085,132.426c-0.068-1.198-0.101-1.941-0.101-2.229c0-0.71,0.055-1.342,0.167-1.896c0.133-0.333,0.465-0.499,0.998-0.499
		c0.71,0,1.227,0.188,1.547,0.564c0.322,0.378,0.516,0.799,0.583,1.266c0.022,0.311,0,0.665-0.067,1.064
		c-0.244,1.265-1.287,2.585-3.127,3.96C211.128,134.078,211.128,133.336,211.085,132.426z"/>
	<path fill="#FFFFFF" d="M205.527,138.217c0.222-0.488,0.333-1.032,0.333-1.631c0-1.065-0.389-2.341-1.165-3.827
		c-0.444-0.844-1.198-1.442-2.263-1.797c-1.353-0.444-2.185-0.8-2.496-1.065c-0.311-0.266-0.643-0.399-0.998-0.399
		c-0.621,0-1.276,0.345-1.963,1.031c-0.599,0.578-1.11,1.266-1.531,2.064c-0.977,1.886-1.464,3.648-1.464,5.291
		c0,1.485,0.432,2.694,1.297,3.627c1.287,1.376,2.563,2.062,3.827,2.062c0.288,0,0.577-0.033,0.866-0.099
		C202.366,142.92,204.218,141.166,205.527,138.217z M201.733,139.381c-0.91,1.221-1.852,1.831-2.828,1.831
		c-0.422,0-0.944-0.455-1.564-1.365c-0.444-0.665-0.666-1.476-0.666-2.43c0-1.397,0.388-2.429,1.165-3.095
		c0.044-0.044,0.1-0.065,0.166-0.065c0.089,0,0.277,0.099,0.566,0.299c0.288,0.2,0.51,0.266,0.665,0.2
		c0.244-0.09,0.588-0.389,1.032-0.899c0.399-0.443,0.732-0.665,0.998-0.665c0.089,0,0.189,0.022,0.3,0.066
		c0.71,0.311,1.142,1.275,1.298,2.895C202.976,137.151,202.599,138.228,201.733,139.381z"/>
	<path fill="#FFFFFF" d="M260.401,148.998c0.51,0,1.087-0.232,1.73-0.698c0.799-0.6,1.297-1.087,1.498-1.464
		c0.599-1.133,0.898-2.308,0.898-3.528c0-1.486-0.533-3.294-1.598-5.424c-1.598-3.195-2.441-4.914-2.529-5.158
		c-0.2-0.555-0.299-1.154-0.299-1.797c0-1.731,0.599-3.195,1.797-4.394c0.133-0.133,0.266-0.199,0.398-0.199
		c0.022,0,0.188,0.045,0.5,0.133c0.199,0.066,0.388,0.056,0.565-0.033c0.644-0.333,0.965-0.721,0.965-1.165
		c0-0.243-0.11-0.487-0.333-0.732c-0.466-0.51-1.165-0.765-2.096-0.765c-0.489,0-0.988,0.122-1.498,0.366
		c-1.109,0.532-1.963,1.409-2.562,2.629c-0.533,1.064-0.799,2.273-0.799,3.627c0,1.642,0.715,3.833,2.146,6.573
		c1.431,2.739,2.146,4.831,2.146,6.272c0,1.021-0.232,2.02-0.699,2.995c-0.11,0.243-0.332,0.377-0.666,0.399
		c-0.332,0.021-0.543,0.088-0.631,0.2c-0.334,0.377-0.5,0.697-0.5,0.965c0,0.442,0.334,0.809,0.998,1.098
		C260.013,148.965,260.201,148.998,260.401,148.998z"/>
	<path fill="#FFFFFF" d="M191.65,136.553c0.045-0.333-0.177-0.521-0.665-0.566c-0.577-0.066-1.409,0.056-2.496,0.366
		c-1.154,0.354-1.952,0.532-2.396,0.532c-0.2,0-0.388-0.021-0.566-0.066c-0.089-1.441-0.133-2.884-0.133-4.326
		c0-1.441,0.044-2.861,0.133-4.26c0.555-0.155,1.731-0.61,3.528-1.364c1.419-0.599,2.617-0.942,3.594-1.031
		c0.177-0.022,0.421,0.039,0.732,0.183c0.31,0.145,0.554,0.195,0.732,0.15c0.444-0.089,0.804-0.316,1.082-0.683
		c0.277-0.366,0.416-0.771,0.416-1.215c0-0.355-0.15-0.637-0.45-0.849c-0.299-0.21-0.649-0.316-1.048-0.316
		c-1.553,0.023-3.616,0.455-6.19,1.298c-2.928,0.954-4.936,1.509-6.023,1.664c-0.799,0.111-1.198,0.444-1.198,0.998
		c0,0.4,0.205,0.805,0.616,1.215c0.41,0.411,0.826,0.671,1.248,0.782c0.177,2.973,0.266,4.692,0.266,5.158
		c0,1.354-0.112,2.574-0.333,3.661c-0.089-0.022-0.178-0.033-0.266-0.033c-0.178,0-0.361,0.111-0.549,0.332
		c-0.189,0.222-0.416,0.311-0.683,0.267c-0.111,0.732-0.133,1.176-0.066,1.331c0.133,0.133,0.454,0.312,0.965,0.532
		c0.399,0.178,0.621,0.411,0.666,0.699c0.154,0.82,0.177,1.896,0.066,3.228c-0.155,1.841-0.233,2.917-0.233,3.229
		c0,0.909,0.111,1.708,0.333,2.396c0.088,0.288,0.277,0.554,0.566,0.799c0.288,0.243,0.565,0.366,0.832,0.366
		c0.266,0,0.465-0.123,0.599-0.366c0.599-1.109,0.898-2.617,0.898-4.525c0-0.533-0.028-1.342-0.083-2.431
		c-0.056-1.086-0.083-1.896-0.083-2.429c0-0.554,0.022-1.053,0.066-1.497c0.799-0.178,1.376-0.288,1.731-0.333
		c0.909-0.311,1.819-0.609,2.729-0.898C190.963,138.082,191.517,137.417,191.65,136.553z"/>
	<path fill="#FFFFFF" d="M255.742,127.301c-0.798-0.466-1.497-0.698-2.096-0.698c-0.156,0-0.289,0.011-0.4,0.033
		c-1.087,0.266-2.174,0.544-3.261,0.832c-1.243,0.333-2.273,0.71-3.096,1.131c-0.709,0.289-1.42,0.577-2.129,0.865
		c-0.754,0.378-1.143,0.888-1.164,1.53c-0.023,0.688,0.586,1.154,1.83,1.398c-0.133,1.93-0.223,2.984-0.267,3.161
		c-0.045,0.178-0.228,0.35-0.549,0.516c-0.322,0.167-0.494,0.351-0.517,0.549c-0.066,0.4,0.211,0.811,0.832,1.232
		c-0.199,1.53-0.199,3.261,0,5.19c0.066,0.665,0.354,1.265,0.865,1.798c0.51,0.531,1.076,0.876,1.697,1.031
		c1.975,0.511,4.305,0.721,6.989,0.633c0.354-0.023,0.626-0.184,0.815-0.483c0.188-0.299,0.25-0.626,0.182-0.981
		c-0.199-1.064-0.609-1.53-1.23-1.397c-0.133,0-0.3,0.083-0.499,0.25c-0.2,0.166-0.389,0.249-0.565,0.249
		c-2.574,0.11-4.383-0.2-5.426-0.933c-0.177-0.377-0.266-0.887-0.266-1.529c0-0.954,0.211-2.252,0.633-3.895
		c0.62-0.244,1.452-0.377,2.495-0.398c1.243-0.022,2.097-0.089,2.563-0.2c0.266,0.021,0.488-0.067,0.664-0.266
		c0.268-0.288,0.422-0.444,0.467-0.467c0.154-0.089,0.232-0.211,0.232-0.365c0-0.134-0.154-0.422-0.466-0.865
		c-0.444-0.268-0.976-0.4-1.597-0.4c-0.333,0-0.854,0.057-1.564,0.167c-0.709,0.111-1.23,0.166-1.563,0.166
		c-0.466,0-0.878-0.066-1.231-0.2c0.088-1.996,0.232-3.282,0.432-3.859c0.822-0.333,2.031-0.722,3.627-1.165
		c1.599-0.443,2.808-0.832,3.629-1.164c0.154-0.111,0.232-0.255,0.232-0.434c0-0.11-0.045-0.287-0.133-0.531
		C255.82,127.557,255.765,127.39,255.742,127.301z"/>
	<path fill="#FFFFFF" d="M269.07,136.969c1.431,2.739,2.146,4.831,2.146,6.272c0,1.021-0.232,2.02-0.699,2.995
		c-0.11,0.243-0.331,0.377-0.664,0.399c-0.333,0.021-0.545,0.088-0.633,0.2c-0.332,0.377-0.5,0.697-0.5,0.965
		c0,0.442,0.334,0.809,1,1.098c0.177,0.066,0.365,0.1,0.564,0.1c0.51,0,1.087-0.232,1.73-0.698c0.8-0.6,1.299-1.087,1.498-1.464
		c0.599-1.133,0.898-2.308,0.898-3.528c0-1.486-0.533-3.294-1.597-5.424c-1.599-3.195-2.44-4.914-2.53-5.158
		c-0.199-0.555-0.299-1.154-0.299-1.797c0-1.731,0.6-3.195,1.797-4.394c0.133-0.133,0.266-0.199,0.398-0.199
		c0.022,0,0.188,0.045,0.5,0.133c0.199,0.066,0.388,0.056,0.565-0.033c0.644-0.333,0.966-0.721,0.966-1.165
		c0-0.243-0.111-0.487-0.334-0.732c-0.465-0.51-1.164-0.765-2.096-0.765c-0.488,0-0.988,0.122-1.498,0.366
		c-1.109,0.532-1.963,1.409-2.562,2.629c-0.531,1.064-0.799,2.273-0.799,3.627C266.923,132.037,267.64,134.229,269.07,136.969z"/>
	<path fill="#FFFFFF" d="M279.636,142.809c-0.045-1.819,0.045-4.542,0.267-8.17c0.222-3.627,0.299-6.351,0.231-8.17
		c-0.133-0.62-0.621-0.932-1.463-0.932c-0.445,0-0.811,0.145-1.099,0.434c0.088,1,0.133,2.066,0.133,3.2
		c0,1.644-0.166,4.321-0.499,8.031c-0.289,3.489-0.41,6.211-0.365,8.166c0.021,0.023,0.232,0.301,0.631,0.833
		c0.267,0.4,0.556,0.601,0.865,0.601c0.135,0,0.268-0.033,0.4-0.101c1.152-0.513,2.473-1.304,3.96-2.374
		c2.551-1.828,3.849-2.753,3.894-2.774c0.267-0.334,0.267-0.746,0-1.237c-0.199-0.357-0.521-0.535-0.965-0.535
		c-0.134,0-0.339,0.022-0.615,0.066c-0.278,0.045-0.473,0.066-0.584,0.066c-0.487,0.244-1.275,0.743-2.361,1.497
		C281.066,142.076,280.257,142.542,279.636,142.809z"/>
	<path fill="#FFFFFF" d="M234.511,146.802c0.134,0,0.267-0.033,0.4-0.101c1.153-0.513,2.473-1.304,3.96-2.374
		c2.552-1.828,3.849-2.753,3.894-2.774c0.266-0.334,0.266-0.746,0-1.237c-0.199-0.357-0.521-0.535-0.965-0.535
		c-0.133,0-0.338,0.022-0.615,0.066c-0.278,0.045-0.473,0.066-0.584,0.066c-0.487,0.244-1.275,0.743-2.362,1.497
		c-0.998,0.666-1.808,1.132-2.429,1.398c-0.045-1.819,0.044-4.542,0.266-8.17c0.223-3.627,0.301-6.351,0.232-8.17
		c-0.044-0.204-0.141-0.362-0.261-0.5c0.422-0.2,0.726-0.622,0.895-1.297c0-0.399-0.3-0.6-0.899-0.6
		c0.067-0.332-0.1-0.499-0.498-0.499c-0.533-0.065-1.199,0-1.998,0.2c-1.086,0.288-1.763,0.444-2.029,0.466
		c-0.91,0.244-1.863,0.366-2.862,0.366c-0.998,0-1.885-0.133-2.662-0.399c-0.954,0.515-2.396,0.872-4.325,1.073
		c-2.197,0.202-3.65,0.426-4.359,0.672c-0.155,0.179-0.233,0.347-0.233,0.503c0,0.022,0.134,0.324,0.399,0.906
		c0.688,0.581,1.576,0.872,2.662,0.872c0.465,0,1.309-0.088,2.528-0.266c1.065-0.155,1.897-0.211,2.496-0.166
		c0.022,1.597-0.065,3.915-0.266,6.955c-0.2,3.173-0.3,5.49-0.3,6.955c0,0.909,0.021,1.774,0.066,2.595
		c0.044,0.644,0.277,1.226,0.699,1.748c0.421,0.521,0.954,0.793,1.598,0.814c0.332,0.022,0.555-0.145,0.666-0.499
		c0.065-0.222,0.088-0.544,0.065-0.965c-0.044-1.353-0.065-2.729-0.065-4.127c0-3.682,0.221-8.286,0.664-13.81
		c2.257-0.365,4.086-0.685,5.492-0.96c0.062,0.846,0.1,1.726,0.1,2.664c0,1.644-0.166,4.321-0.5,8.031
		c-0.289,3.489-0.41,6.211-0.365,8.166c0.021,0.023,0.232,0.301,0.632,0.833C233.912,146.602,234.2,146.802,234.511,146.802z"/>
	<path fill="#FFFFFF" d="M291.914,136.852c-0.687,1.775-1.375,3.55-2.063,5.325c-0.754,2.085-1.164,3.937-1.23,5.557
		c-0.021,0.333,0.184,0.649,0.616,0.949c0.433,0.299,0.837,0.426,1.214,0.382c0.754,0,1.165-0.388,1.232-1.164
		c0.021-0.2,0.021-0.666,0-1.397c0-0.533,0.055-0.978,0.166-1.331c0.554-1.775,1.808-5.003,3.76-9.685
		c1.664-4.015,2.807-7.276,3.428-9.784c-0.422-0.421-0.943-0.632-1.564-0.632c-0.443,0-0.754,0.155-0.932,0.466
		c-0.621,0.998-1.187,2.264-1.697,3.793c-0.443,1.311-0.888,2.63-1.33,3.96c-0.488-1.131-0.988-2.262-1.498-3.394
		c-0.6-1.331-1.176-2.418-1.73-3.261c-0.799-0.244-1.221-0.366-1.265-0.366c-0.267,0-0.538,0.104-0.815,0.316
		c-0.277,0.211-0.416,0.438-0.416,0.682c0,0.111,0.033,0.222,0.1,0.333C288.997,129.553,290.339,132.637,291.914,136.852z"/>
	<path fill="#FFFFFF" d="M165.544,146.02c0.188-0.299,0.25-0.626,0.183-0.981c-0.199-1.064-0.61-1.53-1.231-1.397
		c-0.133,0-0.3,0.083-0.499,0.25c-0.2,0.166-0.389,0.249-0.566,0.249c-2.574,0.11-4.382-0.2-5.424-0.933
		c-0.178-0.377-0.266-0.887-0.266-1.529c0-0.954,0.21-2.252,0.632-3.895c0.621-0.244,1.453-0.377,2.496-0.398
		c1.242-0.022,2.096-0.089,2.562-0.2c0.266,0.021,0.488-0.067,0.666-0.266c0.266-0.288,0.421-0.444,0.466-0.467
		c0.154-0.089,0.232-0.211,0.232-0.365c0-0.134-0.155-0.422-0.465-0.865c-0.444-0.268-0.977-0.4-1.598-0.4
		c-0.333,0-0.854,0.057-1.564,0.167c-0.71,0.111-1.231,0.166-1.564,0.166c-0.466,0-0.877-0.066-1.231-0.2
		c0.088-1.996,0.233-3.282,0.432-3.859c0.821-0.333,2.03-0.722,3.628-1.165c1.597-0.443,2.806-0.832,3.627-1.164
		c0.155-0.111,0.233-0.255,0.233-0.434c0-0.11-0.045-0.287-0.133-0.531c-0.089-0.244-0.145-0.411-0.167-0.5
		c-0.798-0.466-1.497-0.698-2.096-0.698c-0.156,0-0.289,0.011-0.399,0.033c-1.088,0.266-2.175,0.544-3.262,0.832
		c-1.242,0.333-2.274,0.71-3.094,1.131c-0.711,0.289-1.421,0.577-2.13,0.865c-0.755,0.378-1.143,0.888-1.165,1.53
		c-0.022,0.688,0.588,1.154,1.83,1.398c-0.133,1.93-0.222,2.984-0.266,3.161c-0.045,0.178-0.228,0.35-0.549,0.516
		c-0.322,0.167-0.494,0.351-0.516,0.549c-0.066,0.4,0.211,0.811,0.832,1.232c-0.2,1.53-0.2,3.261,0,5.19
		c0.067,0.665,0.355,1.265,0.865,1.798c0.51,0.531,1.076,0.876,1.698,1.031c1.974,0.511,4.303,0.721,6.988,0.633
		C165.084,146.479,165.355,146.319,165.544,146.02z"/>
	<path fill="#FFFFFF" d="M181.817,125.487c0.277-0.366,0.416-0.771,0.416-1.215c0-0.355-0.15-0.637-0.449-0.849
		c-0.3-0.21-0.649-0.316-1.048-0.316c-1.554,0.023-3.617,0.455-6.19,1.298c-2.929,0.954-4.937,1.509-6.023,1.664
		c-0.799,0.111-1.198,0.444-1.198,0.998c0,0.4,0.204,0.805,0.615,1.215c0.41,0.411,0.826,0.671,1.248,0.782
		c0.177,2.973,0.266,4.692,0.266,5.158c0,1.354-0.111,2.574-0.332,3.661c-0.089-0.022-0.178-0.033-0.267-0.033
		c-0.178,0-0.361,0.111-0.549,0.332c-0.189,0.222-0.416,0.311-0.682,0.267c-0.111,0.732-0.133,1.176-0.067,1.331
		c0.134,0.133,0.455,0.312,0.966,0.532c0.399,0.178,0.62,0.411,0.665,0.699c0.155,0.82,0.177,1.896,0.067,3.228
		c-0.156,1.841-0.233,2.917-0.233,3.229c0,0.909,0.11,1.708,0.332,2.396c0.089,0.288,0.278,0.554,0.566,0.799
		c0.288,0.243,0.566,0.366,0.832,0.366c0.266,0,0.466-0.123,0.599-0.366c0.599-1.109,0.899-2.617,0.899-4.525
		c0-0.533-0.028-1.342-0.084-2.431c-0.055-1.086-0.083-1.896-0.083-2.429c0-0.554,0.022-1.053,0.067-1.497
		c0.799-0.178,1.375-0.288,1.73-0.333c0.91-0.311,1.819-0.609,2.729-0.898c0.976-0.467,1.531-1.132,1.664-1.996
		c0.044-0.333-0.178-0.521-0.666-0.566c-0.577-0.066-1.409,0.056-2.495,0.366c-1.154,0.354-1.953,0.532-2.396,0.532
		c-0.2,0-0.389-0.021-0.566-0.066c-0.089-1.441-0.133-2.884-0.133-4.326c0-1.441,0.044-2.861,0.133-4.26
		c0.554-0.155,1.73-0.61,3.527-1.364c1.42-0.599,2.618-0.942,3.594-1.031c0.178-0.022,0.422,0.039,0.732,0.183
		c0.311,0.145,0.555,0.195,0.733,0.15C181.179,126.081,181.539,125.854,181.817,125.487z"/>
	<path fill="#FFFFFF" d="M236.774,93.855c0.466,0,1.309-0.089,2.529-0.267c1.064-0.154,1.896-0.211,2.495-0.166
		c0.022,1.598-0.065,3.915-0.266,6.955c-0.199,3.173-0.3,5.491-0.3,6.955c0,0.91,0.022,1.775,0.066,2.595
		c0.044,0.645,0.277,1.227,0.699,1.748c0.421,0.521,0.954,0.793,1.598,0.815c0.332,0.021,0.555-0.146,0.666-0.499
		c0.066-0.222,0.088-0.544,0.066-0.965c-0.045-1.354-0.066-2.729-0.066-4.127c0-3.683,0.221-8.286,0.666-13.811
		c3.57-0.577,6.077-1.043,7.52-1.397c0.555-0.133,0.932-0.6,1.132-1.398c0-0.398-0.3-0.599-0.899-0.599
		c0.067-0.332-0.099-0.499-0.498-0.499c-0.533-0.066-1.199,0-1.996,0.2c-1.088,0.288-1.765,0.443-2.03,0.466
		c-0.91,0.244-1.864,0.366-2.862,0.366c-0.999,0-1.886-0.134-2.663-0.399c-0.954,0.514-2.396,0.872-4.325,1.073
		c-2.197,0.202-3.649,0.426-4.359,0.672c-0.155,0.178-0.233,0.346-0.233,0.503c0,0.021,0.134,0.324,0.399,0.906
		C234.8,93.564,235.688,93.855,236.774,93.855z"/>
	<path fill="#FFFFFF" d="M170.219,98.015c-0.133,1.931-0.222,2.984-0.266,3.161c-0.045,0.179-0.228,0.351-0.549,0.517
		c-0.322,0.167-0.494,0.35-0.516,0.549c-0.066,0.399,0.211,0.81,0.832,1.231c-0.2,1.53-0.2,3.262,0,5.191
		c0.067,0.665,0.355,1.264,0.865,1.797c0.51,0.532,1.076,0.876,1.698,1.032c1.974,0.51,4.303,0.72,6.988,0.632
		c0.355-0.022,0.626-0.183,0.815-0.483c0.188-0.299,0.25-0.626,0.183-0.98c-0.199-1.065-0.61-1.531-1.231-1.398
		c-0.133,0-0.3,0.083-0.499,0.25c-0.2,0.166-0.389,0.249-0.566,0.249c-2.574,0.111-4.382-0.199-5.424-0.932
		c-0.178-0.377-0.266-0.887-0.266-1.53c0-0.954,0.21-2.252,0.632-3.894c0.621-0.244,1.453-0.377,2.496-0.399
		c1.242-0.021,2.096-0.089,2.562-0.2c0.266,0.022,0.488-0.066,0.666-0.266c0.266-0.288,0.421-0.444,0.466-0.466
		c0.154-0.089,0.232-0.211,0.232-0.366c0-0.133-0.155-0.421-0.465-0.865c-0.444-0.267-0.977-0.399-1.598-0.399
		c-0.333,0-0.854,0.056-1.564,0.167c-0.71,0.11-1.231,0.166-1.564,0.166c-0.466,0-0.877-0.067-1.231-0.2
		c0.088-1.996,0.233-3.283,0.432-3.86c0.821-0.333,2.03-0.721,3.628-1.165c1.597-0.442,2.806-0.832,3.627-1.164
		c0.155-0.11,0.233-0.255,0.233-0.433c0-0.111-0.045-0.288-0.133-0.532c-0.089-0.244-0.145-0.411-0.166-0.5
		c-0.799-0.466-1.498-0.698-2.097-0.698c-0.155,0-0.289,0.012-0.399,0.033c-1.088,0.267-2.175,0.544-3.262,0.832
		c-1.242,0.333-2.274,0.71-3.094,1.131c-0.711,0.289-1.421,0.577-2.13,0.865c-0.755,0.378-1.143,0.888-1.165,1.531
		C168.367,97.305,168.977,97.771,170.219,98.015z"/>
	<path fill="#FFFFFF" d="M251.25,103.739c-0.044,0.155-0.249,0.271-0.615,0.349c-0.366,0.078-0.599,0.178-0.698,0.3
		c-0.101,0.122-0.15,0.238-0.15,0.35c0,0.133,0.154,0.322,0.466,0.565c0.31,0.244,0.454,0.467,0.433,0.665
		c-0.066,0.688-0.433,1.843-1.099,3.461c-0.554,1.42-0.798,2.552-0.731,3.396c0.043,0.421,0.433,0.754,1.164,0.998
		c0.578,0.177,0.955,0.066,1.131-0.333c0.355-0.843,0.722-2.074,1.1-3.694c0.398-1.752,0.721-2.972,0.965-3.66
		c0.487-0.421,1.164-0.688,2.03-0.799c0.754-0.065,1.508-0.133,2.263-0.2c0.422,1.133,0.787,2.541,1.098,4.228
		c0.289,1.553,0.977,2.429,2.063,2.629c0.133,0.021,0.388-0.133,0.765-0.466s0.566-0.722,0.566-1.165c0-0.267-0.066-0.577-0.2-0.933
		c-1.198-3.394-2.351-7.709-3.461-12.944c-0.11-0.909-0.231-1.819-0.366-2.729c-0.177-1.064-0.576-1.863-1.197-2.396
		c-0.244-0.199-0.521-0.299-0.832-0.299c-0.422,0-0.698,0.154-0.832,0.466c-0.577,1.396-1.231,3.405-1.963,6.022
		C252.282,100.566,251.649,102.63,251.25,103.739z M255.876,97.649c0.2,0.887,0.41,1.774,0.632,2.662
		c0.222,1.021,0.366,1.941,0.433,2.762c-1.508,0-2.44,0.033-2.795,0.1C254.633,101.332,255.21,99.491,255.876,97.649z"/>
	<path fill="#FFFFFF" d="M211.851,95.086c-0.756,0.378-1.144,0.888-1.166,1.531c-0.021,0.688,0.588,1.154,1.83,1.397
		c-0.133,1.931-0.222,2.984-0.266,3.161c-0.045,0.179-0.229,0.351-0.549,0.517c-0.322,0.167-0.494,0.35-0.516,0.549
		c-0.066,0.399,0.211,0.81,0.832,1.231c-0.201,1.53-0.201,3.262,0,5.191c0.066,0.665,0.354,1.264,0.864,1.797
		c0.511,0.532,1.076,0.876,1.697,1.032c1.976,0.51,4.304,0.72,6.989,0.632c0.354-0.022,0.625-0.183,0.814-0.483
		c0.188-0.299,0.25-0.626,0.184-0.98c-0.199-1.065-0.61-1.531-1.231-1.398c-0.133,0-0.3,0.083-0.499,0.25
		c-0.2,0.166-0.389,0.249-0.566,0.249c-2.574,0.111-4.381-0.199-5.424-0.932c-0.178-0.377-0.267-0.887-0.267-1.53
		c0-0.954,0.211-2.252,0.633-3.894c0.621-0.244,1.453-0.377,2.496-0.399c1.242-0.021,2.097-0.089,2.562-0.2
		c0.267,0.022,0.488-0.066,0.666-0.266c0.267-0.288,0.422-0.444,0.465-0.466c0.156-0.089,0.233-0.211,0.233-0.366
		c0-0.133-0.155-0.421-0.465-0.865c-0.444-0.267-0.978-0.399-1.599-0.399c-0.332,0-0.854,0.056-1.563,0.167
		c-0.71,0.11-1.231,0.166-1.563,0.166c-0.467,0-0.877-0.067-1.231-0.2c0.088-1.996,0.233-3.283,0.433-3.86
		c0.82-0.333,2.029-0.721,3.627-1.165c1.598-0.442,2.807-0.832,3.627-1.164c0.156-0.11,0.233-0.255,0.233-0.433
		c0-0.111-0.045-0.288-0.133-0.532c-0.089-0.244-0.146-0.411-0.167-0.5c-0.798-0.466-1.497-0.698-2.096-0.698
		c-0.156,0-0.289,0.012-0.399,0.033c-1.088,0.267-2.175,0.544-3.262,0.832c-1.242,0.333-2.274,0.71-3.095,1.131
		C213.269,94.51,212.56,94.798,211.851,95.086z"/>
	<path fill="#FFFFFF" d="M225.66,113.323c0.155,0.044,0.349,0.011,0.582-0.101c0.233-0.11,0.372-0.166,0.416-0.166
		c0.288-1.088,0.487-2.551,0.599-4.393c0.178-2.44,0.301-3.949,0.366-4.526c0.954,0.821,2.407,2.285,4.36,4.394
		c1.752,1.886,3.216,3.283,4.393,4.192c1.064-0.266,1.598-0.654,1.598-1.164c0-0.111-0.033-0.212-0.101-0.3
		c-0.644-1.087-1.729-2.317-3.261-3.693c-2.42-2.197-3.639-3.307-3.661-3.328c-0.354-0.288-0.71-0.577-1.065-0.865
		c-0.466-0.4-0.699-0.743-0.699-1.032c0-0.266,0.201-0.51,0.6-0.731c0.977-0.532,1.797-1.266,2.463-2.196
		c0.775-1.043,1.165-2.085,1.165-3.129c0-1.242-0.411-2.396-1.231-3.46c-0.888-1.154-1.931-1.753-3.129-1.797
		c-2.373-0.111-3.672,0.521-3.893,1.896c-0.333,2.064-0.499,4.604-0.499,7.621v3.627c-0.022,1.776-0.078,3.307-0.167,4.593
		c-0.021,0.155-0.078,0.556-0.166,1.198c-0.089,0.555-0.133,0.998-0.133,1.331C224.196,112.424,224.683,113.102,225.66,113.323z
		 M227.79,93.922c0.133-0.333,0.466-0.499,0.998-0.499c0.71,0,1.227,0.188,1.548,0.565c0.321,0.378,0.515,0.799,0.582,1.265
		c0.022,0.312,0,0.665-0.067,1.065c-0.244,1.264-1.287,2.585-3.127,3.96c0.043-0.577,0.043-1.32,0-2.23
		c-0.066-1.198-0.101-1.94-0.101-2.229C227.623,95.109,227.679,94.478,227.79,93.922z"/>
	<path fill="#FFFFFF" d="M182.632,113.589c0.066,0.444,0.244,0.71,0.532,0.799c0.089,0.044,0.3,0.145,0.633,0.3
		c0.244,0.133,0.443,0.199,0.599,0.199c0.177,0,0.343-0.077,0.499-0.232c0.399-0.244,0.587-0.688,0.566-1.331
		c-0.089-1.753-0.134-3.472-0.134-5.158c0-3.505,0.189-6.844,0.566-10.017c0.044-0.311,0.144-0.467,0.3-0.467
		c0.066,0,0.121,0.067,0.166,0.2c2.108,5.923,3.871,10.272,5.291,13.045c0.466,0.933,1.043,1.398,1.731,1.398
		c0.354,0,0.671-0.134,0.948-0.4c0.277-0.266,0.405-0.577,0.383-0.932c-0.045-0.754-0.067-1.52-0.067-2.296
		c0-2.373,0.189-5.335,0.566-8.885c0.217-2.259,0.447-4.505,0.678-6.751c0.672,0.523,1.519,0.794,2.55,0.794
		c0.466,0,1.308-0.089,2.529-0.267c1.065-0.154,1.897-0.211,2.496-0.166c0.022,1.598-0.067,3.915-0.266,6.955
		c-0.2,3.173-0.3,5.491-0.3,6.955c0,0.91,0.022,1.775,0.067,2.595c0.044,0.645,0.277,1.227,0.698,1.748
		c0.422,0.521,0.954,0.793,1.598,0.815c0.333,0.021,0.554-0.146,0.665-0.499c0.067-0.222,0.089-0.544,0.067-0.965
		c-0.045-1.354-0.067-2.729-0.067-4.127c0-3.683,0.222-8.286,0.666-13.811c3.572-0.577,6.078-1.043,7.521-1.397
		c0.555-0.133,0.933-0.6,1.132-1.398c0-0.398-0.3-0.599-0.897-0.599c0.065-0.332-0.101-0.499-0.5-0.499
		c-0.533-0.066-1.199,0-1.996,0.2c-1.088,0.288-1.765,0.443-2.031,0.466c-0.909,0.244-1.863,0.366-2.861,0.366
		s-1.886-0.134-2.662-0.399c-0.954,0.514-2.396,0.872-4.326,1.073c-1.819,0.167-3.12,0.35-3.919,0.547
		c0.021-0.195,0.039-0.393,0.059-0.589c-0.067-0.222-0.212-0.377-0.433-0.466c-0.067-0.022-0.278-0.077-0.632-0.166
		c-0.267-0.067-0.5-0.101-0.699-0.101c-0.577,0-0.899,0.222-0.965,0.666c-0.711,5.968-1.232,10.427-1.564,13.377
		c-0.821-1.508-1.731-3.715-2.729-6.622c-1.043-3.039-1.919-5.235-2.629-6.589c-0.732-0.599-1.287-0.876-1.664-0.832
		c-0.799,0-1.209,0.244-1.231,0.732c-0.045,0.577-0.278,3.55-0.699,8.919c-0.266,3.526-0.399,6.467-0.399,8.817
		c0,1.354,0.033,2.651,0.099,3.895C182.587,112.868,182.61,113.234,182.632,113.589z"/>
	<path fill="#FFFFFF" d="M270.585,113.589c0.066,0.444,0.243,0.71,0.532,0.799c0.088,0.044,0.3,0.145,0.632,0.3
		c0.244,0.133,0.443,0.199,0.6,0.199c0.178,0,0.344-0.077,0.5-0.232c0.398-0.244,0.586-0.688,0.564-1.331
		c-0.089-1.753-0.133-3.472-0.133-5.158c0-3.505,0.188-6.844,0.566-10.017c0.043-0.311,0.144-0.467,0.299-0.467
		c0.066,0,0.121,0.067,0.166,0.2c2.107,5.923,3.871,10.272,5.291,13.045c0.467,0.933,1.043,1.398,1.73,1.398
		c0.355,0,0.671-0.134,0.949-0.4c0.277-0.266,0.404-0.577,0.383-0.932c-0.045-0.754-0.066-1.52-0.066-2.296
		c0-2.373,0.188-5.335,0.565-8.885c0.288-2.995,0.587-5.979,0.897-8.952c-0.065-0.222-0.211-0.377-0.432-0.466
		c-0.066-0.022-0.277-0.077-0.633-0.166c-0.266-0.067-0.499-0.101-0.698-0.101c-0.577,0-0.899,0.222-0.966,0.666
		c-0.71,5.968-1.23,10.427-1.564,13.377c-0.82-1.508-1.729-3.715-2.728-6.622c-1.043-3.039-1.92-5.235-2.629-6.589
		c-0.733-0.599-1.287-0.876-1.664-0.832c-0.799,0-1.21,0.244-1.231,0.732c-0.045,0.577-0.277,3.55-0.699,8.919
		c-0.267,3.526-0.399,6.467-0.399,8.817c0,1.354,0.034,2.651,0.101,3.895C270.54,112.868,270.562,113.234,270.585,113.589z"/>
	<path fill="#FFFFFF" d="M265.293,112.491c0.666,0.021,1.099-0.278,1.298-0.899c-0.021-0.554-0.033-1.12-0.033-1.696
		c0-1.553,0.155-3.85,0.467-6.889c0.31-3.04,0.466-5.312,0.466-6.821c0-0.688-0.023-1.354-0.067-1.997
		c-0.044-0.022-0.078-0.067-0.1-0.134c-0.022-0.044-0.022-0.199,0-0.466c0-0.222-0.033-0.333-0.1-0.333
		c-0.045,0-0.111,0.033-0.199,0.101c-0.422-0.244-0.844-0.366-1.266-0.366c-0.531,0-0.91,0.211-1.131,0.632
		c0.044,0.555,0.066,1.121,0.066,1.697c0,1.486-0.184,3.728-0.549,6.723c-0.367,2.995-0.549,5.247-0.549,6.755
		c0,0.865,0.043,1.687,0.133,2.463C263.817,112.036,264.339,112.446,265.293,112.491z"/>
	<path fill="#F2DF48" d="M131.592,163.151c0.862-16.814-6.645-42.243-36.812-49.202c-5.354-1.235-11.41-1.899-18.273-1.818
		c-45.533,0.539-49.478,47.793-49.478,47.793s-0.031,0.399-0.028,1.109v0.042c0.031,5.145,1.872,26.147,29.257,34.244
		c26.363,11.906,47.554,5.381,60.671-6.031C125.972,181.421,131.178,171.23,131.592,163.151z"/>
	<path fill="#174993" d="M402.862,105.494c-7.188-0.355-7.358,6.569-7.358,6.569s-0.08,3.832,4.956,5.496
		c7.229,3.39,11.622-1.112,11.593-4.02C412.024,110.633,410.05,105.852,402.862,105.494z"/>
</g>
<g>
</g>
<g>
</g>
<g>
</g>
<g>
</g>
<g>
</g>
<g>
</g>
</svg>
