<?xml version="1.0" encoding="utf-8"?>
<!-- Generator: Adobe Illustrator 16.0.0, SVG Export Plug-In . SVG Version: 6.00 Build 0)  -->
<!DOCTYPE svg PUBLIC "-//W3C//DTD SVG 1.1 Tiny//EN" "http://www.w3.org/Graphics/SVG/1.1/DTD/svg11-tiny.dtd">
<svg version="1.1" baseProfile="tiny" id="Layer_1" xmlns="http://www.w3.org/2000/svg" xmlns:xlink="http://www.w3.org/1999/xlink"
	 x="0px" y="0px" width="233.371px" height="81.984px" viewBox="0 0 233.371 81.984" xml:space="preserve">
<g>
	<path fill="#FFFFFF" d="M24.996,40.717c-0.524,1.206-1.022,2.41-1.494,3.615c-0.628,1.415-1.31,2.542-2.043,3.38
		c-1.625,2.044-3.25,4.062-4.874,6.053c-1.939,2.411-3.694,4.088-5.267,5.03c-0.524,0.629-1.1,1.284-1.729,1.966
		c-0.629,0.68-1.258,1.021-1.887,1.021c-0.314,0-0.682-0.078-1.101-0.235c-0.42-0.157-0.878-0.342-1.375-0.551
		c-0.499-0.21-0.852-0.55-1.061-1.021C4.009,57.773,3.93,55.415,3.93,52.9c0-2.567,0.104-6.394,0.314-11.477
		c0.209-5.082,0.314-8.908,0.314-11.477c0-3.405-0.131-6.523-0.393-9.354c-0.053-0.052-0.629-0.654-1.729-1.808
		c-0.682-0.681-1.021-1.31-1.021-1.887c0-0.262,0.051-0.523,0.157-0.786c0.261-0.629,0.837-0.995,1.729-1.101
		c0.681-0.104,1.362-0.183,2.044-0.235c4.402,0.943,9.012,3.406,13.834,7.389c1.258,1.049,2.28,2.149,3.066,3.301
		c2.515,3.722,3.773,7.206,3.773,10.455C26.018,37.599,25.677,39.197,24.996,40.717z M19.336,32.305
		c-0.471-3.302-3.275-6.21-8.411-8.725c-0.367,8.752-0.471,18.027-0.314,27.825c5.921-5.921,8.882-11.555,8.882-16.899
		C19.494,33.773,19.441,33.04,19.336,32.305z"/>
	<path fill="#FFFFFF" d="M58.088,54.314c0.314,0.839,0.472,1.572,0.472,2.201c0,1.049-0.446,1.965-1.336,2.751
		c-0.892,0.786-1.494,1.152-1.808,1.101c-2.568-0.472-4.193-2.541-4.873-6.21c-0.735-3.981-1.599-7.31-2.594-9.982
		c-1.782,0.157-3.564,0.314-5.345,0.472c-2.043,0.263-3.643,0.892-4.794,1.887c-0.578,1.625-1.336,4.508-2.28,8.646
		c-0.892,3.824-1.756,6.732-2.594,8.725c-0.42,0.943-1.311,1.205-2.673,0.786c-1.729-0.577-2.646-1.363-2.751-2.358
		c-0.157-1.991,0.419-4.663,1.729-8.018c1.572-3.824,2.437-6.55,2.594-8.175c0.052-0.472-0.289-0.994-1.022-1.571
		c-0.734-0.576-1.101-1.022-1.101-1.337c0-0.262,0.118-0.536,0.354-0.825c0.236-0.287,0.786-0.523,1.651-0.707
		c0.864-0.184,1.348-0.458,1.454-0.825c0.943-2.62,2.437-7.493,4.48-14.621c1.729-6.183,3.274-10.926,4.638-14.228
		c0.314-0.732,0.969-1.1,1.965-1.1c0.733,0,1.388,0.235,1.965,0.707c1.466,1.258,2.41,3.145,2.83,5.659
		c0.314,2.149,0.602,4.298,0.865,6.446C52.533,36.105,55.258,46.297,58.088,54.314z M46.611,39.302
		c-0.157-1.938-0.499-4.113-1.021-6.524c-0.524-2.096-1.022-4.191-1.494-6.288c-1.572,4.35-2.936,8.699-4.087,13.048
		C40.847,39.38,43.047,39.302,46.611,39.302z"/>
	<path fill="#FFFFFF" d="M83.634,40.717c-0.524,1.206-1.022,2.41-1.494,3.615c-0.628,1.415-1.31,2.542-2.043,3.38
		c-1.625,2.044-3.25,4.062-4.874,6.053c-1.939,2.411-3.694,4.088-5.267,5.03c-0.524,0.629-1.1,1.284-1.729,1.966
		c-0.629,0.68-1.258,1.021-1.887,1.021c-0.314,0-0.682-0.078-1.101-0.235c-0.42-0.157-0.878-0.342-1.375-0.551
		c-0.499-0.21-0.852-0.55-1.061-1.021c-0.157-2.201-0.236-4.56-0.236-7.074c0-2.567,0.104-6.394,0.314-11.477
		c0.209-5.082,0.314-8.908,0.314-11.477c0-3.405-0.131-6.523-0.393-9.354c-0.053-0.052-0.629-0.654-1.729-1.808
		c-0.682-0.681-1.021-1.31-1.021-1.887c0-0.262,0.051-0.523,0.157-0.786c0.261-0.629,0.837-0.995,1.729-1.101
		c0.681-0.104,1.362-0.183,2.044-0.235c4.402,0.943,9.012,3.406,13.834,7.389c1.258,1.049,2.28,2.149,3.066,3.301
		c2.515,3.722,3.773,7.206,3.773,10.455C84.656,37.599,84.314,39.197,83.634,40.717z M77.974,32.305
		c-0.471-3.302-3.275-6.21-8.411-8.725c-0.367,8.752-0.471,18.027-0.314,27.825c5.921-5.921,8.882-11.555,8.882-16.899
		C78.131,33.773,78.079,33.04,77.974,32.305z"/>
	<path fill="#FFFFFF" d="M101.319,7.152c0.262,0.996,0.393,1.992,0.393,2.987c0,1.835-0.55,4.166-1.65,6.995
		c-1.572,4.036-2.464,6.473-2.673,7.311c-1.257,4.612-3.04,6.917-5.345,6.917c-0.42,0-0.839-0.078-1.258-0.235
		c-1.101-0.366-1.494-1.284-1.179-2.751S90.995,23.45,92.83,18c1.362-4.245,2.174-7.86,2.437-10.848
		C95.371,6,96.418,5.528,98.411,5.737c0.891,0.105,1.494,0.21,1.808,0.314C100.794,6.261,101.162,6.629,101.319,7.152z"/>
	<path fill="#FFFFFF" d="M123.721,10.532c0,1.049-0.76,1.965-2.279,2.751c-0.42,0.21-0.865,0.236-1.337,0.079
		c-0.734-0.209-1.128-0.314-1.179-0.314c-0.314,0-0.629,0.157-0.943,0.472c-2.83,2.829-4.245,6.288-4.245,10.376
		c0,1.521,0.236,2.935,0.708,4.244c0.208,0.577,2.201,4.638,5.974,12.184c2.516,5.031,3.772,9.303,3.772,12.812
		c0,2.883-0.707,5.659-2.121,8.332c-0.473,0.891-1.651,2.044-3.537,3.459c-1.521,1.101-2.883,1.65-4.088,1.65
		c-0.472,0-0.917-0.078-1.336-0.235c-1.572-0.682-2.358-1.547-2.358-2.595c0-0.629,0.393-1.389,1.179-2.279
		c0.209-0.263,0.708-0.42,1.494-0.472c0.786-0.053,1.309-0.367,1.572-0.943c1.1-2.305,1.65-4.663,1.65-7.074
		c0-3.405-1.69-8.344-5.07-14.816c-3.38-6.472-5.07-11.646-5.07-15.524c0-3.196,0.628-6.053,1.886-8.568
		c1.415-2.881,3.432-4.952,6.053-6.21c1.205-0.575,2.384-0.864,3.537-0.864c2.201,0,3.852,0.604,4.952,1.808
		C123.457,9.38,123.721,9.956,123.721,10.532z"/>
	<path fill="#FFFFFF" d="M171.118,40.717c-0.524,1.206-1.022,2.41-1.493,3.615c-0.629,1.415-1.311,2.542-2.044,3.38
		c-1.625,2.044-3.25,4.062-4.874,6.053c-1.939,2.411-3.693,4.088-5.266,5.03c-0.525,0.629-1.101,1.284-1.729,1.966
		c-0.629,0.68-1.258,1.021-1.887,1.021c-0.314,0-0.682-0.078-1.101-0.235c-0.42-0.157-0.878-0.342-1.375-0.551
		c-0.499-0.21-0.853-0.55-1.062-1.021c-0.157-2.201-0.235-4.56-0.235-7.074c0-2.567,0.104-6.394,0.314-11.477
		c0.209-5.082,0.314-8.908,0.314-11.477c0-3.405-0.132-6.523-0.394-9.354c-0.053-0.052-0.629-0.654-1.729-1.808
		c-0.682-0.681-1.021-1.31-1.021-1.887c0-0.262,0.051-0.523,0.157-0.786c0.261-0.629,0.837-0.995,1.729-1.101
		c0.68-0.104,1.361-0.183,2.043-0.235c4.402,0.943,9.013,3.406,13.834,7.389c1.258,1.049,2.28,2.149,3.066,3.301
		c2.516,3.722,3.773,7.206,3.773,10.455C172.141,37.599,171.799,39.197,171.118,40.717z M165.459,32.305
		c-0.472-3.302-3.275-6.21-8.411-8.725c-0.367,8.752-0.472,18.027-0.314,27.825c5.921-5.921,8.882-11.555,8.882-16.899
		C165.615,33.773,165.562,33.04,165.459,32.305z"/>
	<path fill="#FFFFFF" d="M204.21,54.314c0.314,0.839,0.472,1.572,0.472,2.201c0,1.049-0.445,1.965-1.336,2.751
		c-0.893,0.786-1.494,1.152-1.809,1.101c-2.568-0.472-4.193-2.541-4.873-6.21c-0.734-3.981-1.6-7.31-2.594-9.982
		c-1.783,0.157-3.564,0.314-5.346,0.472c-2.043,0.263-3.643,0.892-4.795,1.887c-0.577,1.625-1.336,4.508-2.279,8.646
		c-0.892,3.824-1.756,6.732-2.594,8.725c-0.42,0.943-1.311,1.205-2.673,0.786c-1.729-0.577-2.646-1.363-2.751-2.358
		c-0.157-1.991,0.419-4.663,1.729-8.018c1.571-3.824,2.437-6.55,2.594-8.175c0.052-0.472-0.288-0.994-1.022-1.571
		c-0.734-0.576-1.1-1.022-1.1-1.337c0-0.262,0.117-0.536,0.354-0.825c0.236-0.287,0.786-0.523,1.65-0.707
		c0.865-0.184,1.349-0.458,1.455-0.825c0.942-2.62,2.436-7.493,4.48-14.621c1.729-6.183,3.273-10.926,4.637-14.228
		c0.314-0.732,0.969-1.1,1.965-1.1c0.734,0,1.389,0.235,1.966,0.707c1.466,1.258,2.409,3.145,2.829,5.659
		c0.314,2.149,0.602,4.298,0.865,6.446C198.654,36.105,201.38,46.297,204.21,54.314z M192.733,39.302
		c-0.157-1.938-0.499-4.113-1.021-6.524c-0.524-2.096-1.022-4.191-1.493-6.288c-1.572,4.35-2.936,8.699-4.088,13.048
		C186.969,39.38,189.17,39.302,192.733,39.302z"/>
	<path fill="#FFFFFF" d="M232.586,11.554c-1.468,5.922-4.166,13.625-8.097,23.109c-4.612,11.058-7.573,18.682-8.882,22.874
		c-0.264,0.837-0.393,1.886-0.393,3.144c0.051,1.729,0.051,2.83,0,3.302c-0.158,1.833-1.129,2.751-2.909,2.751
		c-0.892,0.104-1.847-0.196-2.869-0.904c-1.021-0.707-1.507-1.454-1.454-2.24c0.157-3.825,1.127-8.2,2.908-13.127
		c1.624-4.191,3.249-8.383,4.873-12.576c-3.721-9.956-6.891-17.24-9.51-21.853c-0.158-0.261-0.236-0.522-0.236-0.785
		c0-0.576,0.326-1.113,0.982-1.611c0.654-0.498,1.297-0.747,1.926-0.747c0.104,0,1.101,0.288,2.986,0.864
		c1.311,1.992,2.674,4.56,4.088,7.703c1.205,2.673,2.385,5.346,3.537,8.018c1.048-3.144,2.096-6.261,3.145-9.354
		c1.205-3.616,2.541-6.603,4.009-8.961c0.419-0.733,1.151-1.101,2.2-1.101C230.357,10.06,231.59,10.559,232.586,11.554z"/>
</g>
</svg>
