<?xml version="1.0" encoding="utf-8"?>
<!-- Generator: Adobe Illustrator 16.0.0, SVG Export Plug-In . SVG Version: 6.00 Build 0)  -->
<!DOCTYPE svg PUBLIC "-//W3C//DTD SVG 1.1 Tiny//EN" "http://www.w3.org/Graphics/SVG/1.1/DTD/svg11-tiny.dtd">
<svg version="1.1" baseProfile="tiny" id="Layer_1" xmlns="http://www.w3.org/2000/svg" xmlns:xlink="http://www.w3.org/1999/xlink"
	 x="0px" y="0px" width="273.355px" height="77px" viewBox="0 0 273.355 77" xml:space="preserve">
<g>
	<path fill="none" d="M18.204,20.456h-5.476v36.852h5.476c3.774,0,4.662-3.182,4.662-7.325v-22.2
		C22.866,23.638,21.978,20.456,18.204,20.456z M21.46,50.056c0,4.145-0.962,5.477-2.22,5.92c0.074-0.813,0.148-1.628,0.148-2.516
		V31.334c0-4.218-0.888-7.4-4.588-7.4h-0.74v-2.146h4.144c1.776,0,3.256,0.813,3.256,6.068V50.056z"/>
	<path fill="none" d="M197.726,49.982v-22.2c0-4.145-0.888-7.326-4.661-7.326h-5.477v36.852h5.477
		C196.838,57.308,197.726,54.126,197.726,49.982z M194.1,55.976c0.074-0.813,0.148-1.628,0.148-2.516V31.334
		c0-4.218-0.888-7.4-4.588-7.4h-0.74v-2.146h4.145c1.775,0,3.256,0.813,3.256,6.068v22.199C196.32,54.2,195.358,55.532,194.1,55.976
		z"/>
	<path fill="none" d="M51.948,26.746L49.062,45.32h5.92L52.17,26.746H51.948z M50.764,44.062l-0.074-0.518l1.332-8.362l1.332,8.88
		H50.764z"/>
	<path fill="none" d="M226.809,26.746l-2.886,18.574h5.92l-2.812-18.574H226.809z M225.625,44.062l-0.074-0.518l1.332-8.362
		l1.332,8.88H225.625z"/>
	<path fill="none" d="M94.646,49.982v-22.2c0-4.145-0.888-7.326-4.662-7.326h-5.476v36.852h5.476
		C93.758,57.308,94.646,54.126,94.646,49.982z M91.02,55.976c0.074-0.813,0.148-1.628,0.148-2.516V31.334
		c0-4.218-0.888-7.4-4.588-7.4h-0.74v-2.146h4.144c1.776,0,3.256,0.813,3.256,6.068v22.199C93.24,54.2,92.278,55.532,91.02,55.976z"
		/>
	<path fill="#FFFFFF" d="M231.767,12.982h-9.25l-10.655,51.8h8.731l1.776-12.062h8.954l1.85,12.062h9.25L231.767,12.982z
		 M223.923,45.32l2.886-18.574h0.223l2.812,18.574H223.923z"/>
	<path fill="#FFFFFF" d="M141.857,65.448c7.4,0,13.764-4.145,13.764-11.618c0-6.068-2.294-8.88-5.994-13.024l-9.25-10.655
		c-2.146-2.442-2.738-4.07-2.738-6.438c0-2.294,1.926-4.07,4.219-4.07c2.22,0,4.144,2.072,4.144,5.772v2.072h9.25v-3.553
		c0-6.956-5.549-11.617-13.394-11.617c-7.844,0-13.468,4.588-13.468,11.617c0,7.03,1.554,9.177,6.882,14.505l7.77,7.77
		c2.072,2.072,2.96,4.292,2.96,7.104c0,2.961-1.85,4.736-4.144,4.736c-2.293,0-4.219-1.628-4.219-4.736v-4.884h-9.176v5.402
		C128.463,61.304,134.457,65.448,141.857,65.448z"/>
	<polygon fill="#FFFFFF" points="225.551,43.544 225.625,44.062 228.215,44.062 226.883,35.182 	"/>
	<path fill="#FFFFFF" d="M196.32,27.856c0-5.255-1.48-6.068-3.256-6.068h-4.145v2.146h0.74c3.7,0,4.588,3.183,4.588,7.4V53.46
		c0,0.888-0.074,1.702-0.148,2.516c1.259-0.443,2.221-1.775,2.221-5.92V27.856z"/>
	<path fill="#FFFFFF" d="M142.819,30.964h9.027v-2.072h-7.178v-3.403c0-2.664-1.109-4.366-2.812-4.366
		c-1.332,0-2.442,0.888-2.737,2.146c1.923,0.37,3.477,2.368,3.477,5.624v1.851L142.819,30.964z"/>
	<path fill="#FFFFFF" d="M174.86,16.534v51.8h16.649c2.738,0,5.254-1.036,7.178-2.738c-1.184,0.37-2.441,0.593-3.699,0.593h-7.4
		h-10.656V16.534H174.86z"/>
	<path fill="#FFFFFF" d="M206.458,49.982v-22.2c0-2.072-0.222-4.218-0.666-6.143c-1.184-5.031-5.55-8.657-10.804-8.657h-16.65v51.8
		h16.65C202.98,64.782,206.458,57.9,206.458,49.982z M187.588,57.308V20.456h5.477c3.773,0,4.661,3.182,4.661,7.326v22.2
		c0,4.144-0.888,7.325-4.661,7.325H187.588z"/>
	<polygon fill="#FFFFFF" points="230.213,54.2 223.553,54.2 223.257,56.272 227.919,56.272 229.695,68.26 238.945,68.26 
		241.017,66.188 231.915,66.188 	"/>
	<path fill="#FFFFFF" d="M141.857,66.928c-8.807,0-14.727-5.254-14.727-13.023V51.98h-2.146v5.327
		c0,7.549,5.995,11.692,13.468,11.692c3.774,0,7.252-1.11,9.768-3.108C146.297,66.558,144.151,66.928,141.857,66.928z"/>
	<polygon fill="#FFFFFF" points="258.185,37.92 251.895,12.982 242.793,12.982 253.597,44.654 253.597,64.782 262.477,64.782 
		262.477,44.654 273.355,12.982 264.253,12.982 	"/>
	<path fill="#FFFFFF" d="M23.828,65.596c-1.184,0.37-2.442,0.593-3.7,0.593h-7.4H2.072V16.534H0v51.8h16.65
		C19.388,68.334,21.904,67.298,23.828,65.596z"/>
	<polygon fill="#FFFFFF" points="208.457,68.26 217.115,68.26 219.187,66.188 210.159,66.188 220.741,14.832 219.039,16.46 	"/>
	<polygon fill="#FFFFFF" points="258.185,32.518 262.033,16.534 260.775,16.534 257.519,30.076 	"/>
	<polygon fill="#FFFFFF" points="50.69,43.544 50.764,44.062 53.354,44.062 52.022,35.182 	"/>
	<path fill="#FFFFFF" d="M56.906,12.982h-9.25L37,64.782h8.732l1.776-12.062h8.954l1.85,12.062h9.25L56.906,12.982z M49.062,45.32
		l2.886-18.574h0.222l2.812,18.574H49.062z"/>
	<path fill="#FFFFFF" d="M30.932,21.64c-1.184-5.031-5.55-8.657-10.804-8.657H3.478v51.8h16.65c7.992,0,11.47-6.882,11.47-14.8
		v-22.2C31.598,25.71,31.376,23.564,30.932,21.64z M22.866,49.982c0,4.144-0.888,7.325-4.662,7.325h-5.476V20.456h5.476
		c3.774,0,4.662,3.182,4.662,7.326V49.982z"/>
	<path fill="#FFFFFF" d="M124.911,27.486c0,7.029,1.554,9.102,6.882,14.43l5.181,5.18h2.071v2.146l0.592,0.518
		c1.851,2.221,2.887,4.218,2.96,6.882c1.259-0.296,2.072-1.479,2.072-3.256c0-2.22-0.665-4.069-2.738-6.216l-7.621-7.696
		c-5.329-5.327-7.327-8.065-7.327-15.466c0-1.406,0.222-2.664,0.518-3.848C125.873,22.084,124.911,24.6,124.911,27.486z"/>
	<polygon fill="#FFFFFF" points="55.352,54.2 48.692,54.2 48.396,56.272 53.058,56.272 54.834,68.26 64.084,68.26 66.156,66.188 
		57.054,66.188 	"/>
	<path fill="#FFFFFF" d="M18.204,21.788H14.06v2.146h0.74c3.7,0,4.588,3.183,4.588,7.4V53.46c0,0.888-0.074,1.702-0.148,2.516
		c1.258-0.443,2.22-1.775,2.22-5.92V27.856C21.46,22.602,19.98,21.788,18.204,21.788z"/>
	<polygon fill="#FFFFFF" points="242.571,16.534 239.389,16.534 250.119,48.206 250.119,68.334 259.073,68.334 259.073,66.262 
		252.191,66.262 252.191,44.95 	"/>
	<path fill="#FFFFFF" d="M103.378,49.982v-22.2c0-2.072-0.222-4.218-0.666-6.143c-1.184-5.031-5.55-8.657-10.804-8.657h-16.65v51.8
		h16.65C99.9,64.782,103.378,57.9,103.378,49.982z M84.508,57.308V20.456h5.476c3.774,0,4.662,3.182,4.662,7.326v22.2
		c0,4.144-0.888,7.325-4.662,7.325H84.508z"/>
	<polygon fill="#FFFFFF" points="33.596,68.26 42.254,68.26 44.326,66.188 35.298,66.188 45.88,14.832 44.178,16.46 	"/>
	<polygon fill="#FFFFFF" points="113.886,26.376 118.77,22.454 118.77,12.982 109.52,12.982 109.52,22.232 116.846,22.232 
		111.74,26.376 	"/>
	<path fill="#FFFFFF" d="M71.78,16.534v51.8h16.65c2.738,0,5.254-1.036,7.178-2.738c-1.184,0.37-2.442,0.593-3.7,0.593h-7.4H73.852
		V16.534H71.78z"/>
	<path fill="#FFFFFF" d="M93.24,27.856c0-5.255-1.48-6.068-3.256-6.068H85.84v2.146h0.74c3.7,0,4.588,3.183,4.588,7.4V53.46
		c0,0.888-0.074,1.702-0.148,2.516c1.258-0.443,2.22-1.775,2.22-5.92V27.856z"/>
</g>
</svg>
